<svg xmlns="http://www.w3.org/2000/svg" id="canvas" viewBox="254.287 130.135 662.724 168.690"><path d="M 273.71,160.58 C 273.58 161.78, 273.90 163.05, 274.52 166.19 C 275.13 169.33, 275.86 171.52, 276.80 176.27 C 277.73 181.02, 278.36 183.97, 279.20 189.94 C 280.03 195.91, 280.33 199.45, 280.97 206.11 C 281.60 212.77, 281.81 216.46, 282.36 223.24 C 282.91 230.02, 283.19 233.52, 283.72 240.01 C 284.26 246.51, 284.73 250.03, 285.05 255.71 C 285.37 261.39, 285.34 264.46, 285.33 268.40 C 285.32 272.35, 285.23 273.91, 285.01 275.44 C 284.80 276.96, 285.02 276.98, 284.27 276.03 C 283.51 275.09, 282.88 273.83, 281.24 270.71 C 279.59 267.59, 278.26 265.38, 276.02 260.44 C 273.79 255.51, 272.33 252.48, 270.06 246.05 C 267.79 239.61, 266.59 235.88, 264.68 228.27 C 262.78 220.66, 261.74 216.26, 260.54 208.01 C 259.35 199.76, 258.74 195.10, 258.71 187.02 C 258.68 178.94, 259.03 174.64, 260.40 167.60 C 261.78 160.55, 262.91 157.07, 265.60 151.80 C 268.29 146.52, 270.06 144.42, 273.84 141.25 C 277.62 138.07, 279.94 136.98, 284.50 135.93 C 289.06 134.88, 291.77 135.02, 296.64 135.99 C 301.51 136.95, 304.46 138.13, 308.86 140.75 C 313.25 143.37, 315.68 145.18, 318.64 149.09 C 321.59 153.00, 322.82 155.64, 323.62 160.31 C 324.41 164.98, 324.07 167.65, 322.63 172.42 C 321.20 177.20, 319.55 179.76, 316.44 184.21 C 313.33 188.65, 310.77 190.88, 307.08 194.66 C 303.39 198.44, 300.91 200.07, 298.00 203.10 C 295.09 206.14, 293.61 207.40, 292.53 209.83 C 291.46 212.27, 291.35 213.63, 292.63 215.26 C 293.90 216.90, 295.30 217.29, 298.93 218.01 C 302.55 218.73, 305.28 218.31, 310.74 218.85 C 316.21 219.40, 319.79 219.49, 326.24 220.74 C 332.69 221.99, 336.77 222.83, 342.99 225.12 C 349.22 227.40, 352.45 228.84, 357.36 232.16 C 362.28 235.49, 364.41 237.77, 367.56 241.75 C 370.71 245.72, 371.93 247.99, 373.11 252.03 C 374.29 256.07, 374.23 258.04, 373.47 261.93 C 372.72 265.82, 371.90 267.89, 369.34 271.48 C 366.77 275.07, 365.08 276.85, 360.65 279.88 C 356.23 282.91, 353.16 284.37, 347.21 286.64 C 341.26 288.91, 337.52 289.84, 330.92 291.23 C 324.31 292.63, 320.69 293.12, 314.18 293.62 C 307.67 294.12, 304.02 294.09, 298.37 293.73 C 292.73 293.38, 289.98 292.84, 285.94 291.83 C 281.90 290.83, 280.48 289.71, 278.19 288.71 C 275.89 287.70, 275.32 287.44, 274.47 286.80 C 273.61 286.17, 274.15 285.75, 273.90 285.52 C 273.64 285.29, 273.33 285.15, 273.19 285.63 C 273.05 286.12, 272.45 286.79, 273.20 287.94 C 273.94 289.09, 274.48 290.15, 276.93 291.38 C 279.37 292.62, 281.16 293.26, 285.43 294.12 C 289.70 294.98, 292.49 295.41, 298.27 295.66 C 304.05 295.91, 307.72 295.92, 314.32 295.38 C 320.92 294.84, 324.57 294.36, 331.28 292.97 C 337.99 291.58, 341.77 290.69, 347.88 288.42 C 353.99 286.15, 357.17 284.73, 361.82 281.61 C 366.48 278.48, 368.39 276.65, 371.17 272.80 C 373.95 268.95, 374.93 266.63, 375.73 262.36 C 376.53 258.08, 376.51 255.78, 375.18 251.41 C 373.85 247.05, 372.45 244.67, 369.09 240.52 C 365.73 236.37, 363.47 234.08, 358.38 230.65 C 353.29 227.23, 349.97 225.78, 343.63 223.40 C 337.28 221.02, 333.17 220.14, 326.65 218.73 C 320.14 217.33, 316.48 217.11, 311.04 216.37 C 305.59 215.64, 302.83 215.53, 299.43 215.06 C 296.03 214.59, 294.94 214.80, 294.03 214.00 C 293.11 213.20, 293.68 212.88, 294.85 211.06 C 296.02 209.24, 297.12 207.87, 299.90 204.90 C 302.67 201.94, 305.06 200.12, 308.71 196.22 C 312.37 192.32, 314.99 190.05, 318.17 185.40 C 321.35 180.76, 323.12 178.11, 324.62 173.02 C 326.13 167.93, 326.54 165.00, 325.68 159.96 C 324.83 154.91, 323.49 152.02, 320.34 147.81 C 317.20 143.60, 314.61 141.68, 309.95 138.91 C 305.29 136.13, 302.22 134.90, 297.04 133.91 C 291.86 132.93, 288.91 132.80, 284.03 133.98 C 279.16 135.17, 276.63 136.43, 272.65 139.85 C 268.67 143.26, 266.87 145.56, 264.13 151.05 C 261.39 156.55, 260.30 160.12, 258.93 167.31 C 257.56 174.51, 257.25 178.85, 257.29 187.03 C 257.33 195.21, 257.94 199.89, 259.12 208.21 C 260.29 216.54, 261.33 220.95, 263.16 228.64 C 264.99 236.33, 266.16 240.09, 268.27 246.65 C 270.38 253.21, 271.67 256.31, 273.71 261.43 C 275.75 266.55, 276.57 269.04, 278.48 272.25 C 280.38 275.47, 281.56 276.74, 283.23 277.50 C 284.91 278.26, 285.93 277.88, 286.85 276.06 C 287.77 274.24, 287.80 272.51, 287.83 268.42 C 287.87 264.32, 287.49 261.28, 287.02 255.57 C 286.55 249.86, 286.06 246.36, 285.47 239.86 C 284.88 233.37, 284.61 229.89, 284.08 223.10 C 283.55 216.32, 283.36 212.64, 282.81 205.95 C 282.26 199.26, 282.03 195.70, 281.35 189.67 C 280.67 183.64, 280.17 180.64, 279.41 175.80 C 278.64 170.97, 278.37 168.62, 277.53 165.49 C 276.69 162.36, 275.96 161.13, 275.20 160.15 C 274.44 159.17, 273.85 159.37, 273.71 160.58" style="stroke: black; fill: black;"/><path d="M 380.41,240.62 C 379.99 240.53, 379.07 240.46, 378.64 241.20 C 378.21 241.95, 378.01 242.86, 378.26 244.33 C 378.52 245.80, 378.72 246.52, 379.92 248.55 C 381.11 250.59, 381.95 252.01, 384.24 254.50 C 386.53 256.98, 388.32 258.64, 391.37 260.99 C 394.41 263.35, 396.05 264.47, 399.45 266.28 C 402.86 268.09, 404.85 268.96, 408.39 270.04 C 411.93 271.11, 413.82 271.57, 417.17 271.66 C 420.53 271.75, 422.24 271.46, 425.17 270.47 C 428.10 269.48, 429.50 268.52, 431.81 266.69 C 434.12 264.86, 435.07 263.45, 436.72 261.32 C 438.38 259.18, 439.26 257.82, 440.10 256.03 C 440.93 254.23, 440.75 253.14, 440.90 252.34 C 441.05 251.54, 440.74 251.47, 440.85 252.02 C 440.96 252.58, 440.77 253.51, 441.45 255.13 C 442.13 256.74, 442.55 258.05, 444.25 260.11 C 445.96 262.16, 447.54 263.46, 449.97 265.42 C 452.41 267.39, 453.79 268.53, 456.44 269.94 C 459.09 271.35, 460.75 272.05, 463.22 272.49 C 465.69 272.92, 467.08 273.06, 468.79 272.12 C 470.49 271.18, 471.17 269.98, 471.74 267.80 C 472.31 265.63, 472.19 264.10, 471.64 261.23 C 471.09 258.36, 470.01 256.50, 468.98 253.46 C 467.95 250.42, 467.17 248.53, 466.48 246.01 C 465.78 243.50, 465.13 242.53, 465.50 240.88 C 465.87 239.23, 466.37 238.78, 468.35 237.76 C 470.32 236.75, 471.96 236.34, 475.37 235.82 C 478.79 235.29, 481.14 235.08, 485.43 235.16 C 489.72 235.23, 492.64 235.48, 496.83 236.20 C 501.01 236.92, 502.89 237.38, 506.34 238.75 C 509.78 240.12, 511.66 241.30, 514.06 243.06 C 516.46 244.82, 517.04 245.69, 518.33 247.54 C 519.62 249.38, 519.84 250.51, 520.49 252.29 C 521.15 254.07, 521.16 254.98, 521.62 256.42 C 522.07 257.86, 522.13 258.58, 522.77 259.49 C 523.41 260.40, 523.73 260.87, 524.83 260.96 C 525.92 261.06, 526.58 260.98, 528.24 259.97 C 529.90 258.95, 531.04 257.88, 533.14 255.90 C 535.23 253.91, 536.23 252.14, 538.71 250.05 C 541.18 247.96, 542.82 246.77, 545.52 245.43 C 548.23 244.10, 549.92 243.62, 552.24 243.37 C 554.57 243.11, 555.32 243.25, 557.13 244.18 C 558.94 245.11, 559.63 246.21, 561.29 248.01 C 562.96 249.82, 563.73 251.14, 565.45 253.19 C 567.18 255.24, 568.11 256.42, 569.93 258.27 C 571.75 260.12, 572.70 261.26, 574.55 262.46 C 576.41 263.66, 577.48 264.01, 579.22 264.26 C 580.96 264.51, 581.98 264.15, 583.25 263.70 C 584.51 263.25, 585.19 262.62, 585.54 262.01 C 585.88 261.40, 585.57 260.88, 584.98 260.65 C 584.39 260.42, 583.63 260.79, 582.59 260.87 C 581.55 260.96, 580.96 261.37, 579.78 261.10 C 578.60 260.82, 578.04 260.65, 576.68 259.52 C 575.32 258.39, 574.57 257.26, 572.97 255.44 C 571.37 253.62, 570.45 252.45, 568.66 250.42 C 566.86 248.39, 566.02 247.12, 564.00 245.28 C 561.97 243.44, 560.95 242.31, 558.55 241.23 C 556.14 240.14, 554.89 239.68, 551.97 239.84 C 549.05 240.00, 547.09 240.63, 543.94 242.03 C 540.78 243.42, 539.05 244.78, 536.20 246.82 C 533.34 248.85, 531.81 250.20, 529.66 252.22 C 527.52 254.24, 526.52 255.48, 525.48 256.91 C 524.44 258.34, 524.52 259.01, 524.45 259.38 C 524.39 259.75, 525.02 259.52, 525.14 258.76 C 525.27 257.99, 525.36 257.09, 525.07 255.55 C 524.77 254.01, 524.47 253.04, 523.67 251.06 C 522.86 249.07, 522.58 247.72, 521.03 245.60 C 519.48 243.49, 518.64 242.38, 515.91 240.47 C 513.18 238.56, 511.10 237.48, 507.38 236.07 C 503.66 234.67, 501.68 234.23, 497.31 233.44 C 492.94 232.65, 490.00 232.30, 485.52 232.12 C 481.03 231.93, 478.64 231.95, 474.88 232.51 C 471.11 233.06, 469.14 233.37, 466.70 234.88 C 464.26 236.38, 463.54 237.63, 462.68 240.03 C 461.83 242.42, 462.00 243.89, 462.43 246.85 C 462.87 249.80, 463.90 251.71, 464.86 254.80 C 465.83 257.89, 466.53 259.77, 467.28 262.28 C 468.03 264.80, 468.52 265.87, 468.61 267.39 C 468.69 268.91, 468.59 269.57, 467.70 269.89 C 466.82 270.20, 466.01 269.73, 464.19 268.98 C 462.37 268.23, 460.87 267.56, 458.62 266.15 C 456.36 264.74, 455.02 263.80, 452.91 261.93 C 450.80 260.07, 449.68 258.62, 448.06 256.83 C 446.43 255.03, 446.00 254.21, 444.80 252.94 C 443.59 251.67, 443.17 250.88, 442.04 250.48 C 440.91 250.08, 440.19 250.23, 439.14 250.96 C 438.09 251.68, 437.92 252.52, 436.79 254.10 C 435.66 255.67, 434.97 256.90, 433.50 258.83 C 432.02 260.77, 431.31 262.13, 429.41 263.79 C 427.50 265.46, 426.42 266.24, 423.99 267.15 C 421.55 268.06, 420.17 268.37, 417.23 268.35 C 414.29 268.32, 412.55 268.00, 409.30 267.03 C 406.04 266.06, 404.11 265.24, 400.97 263.49 C 397.84 261.74, 396.31 260.62, 393.61 258.26 C 390.92 255.90, 389.45 254.09, 387.50 251.67 C 385.56 249.26, 384.94 247.92, 383.90 246.19 C 382.86 244.45, 382.82 243.94, 382.29 243.00 C 381.75 242.07, 381.51 241.79, 381.21 241.52 C 380.90 241.25, 380.92 241.85, 380.76 241.67 C 380.60 241.49, 380.83 240.71, 380.41 240.62" style="stroke: black; fill: black;"/><path d="M 578.25,171.18 C 578.61 172.69, 579.67 174.47, 581.47 177.94 C 583.26 181.42, 584.58 183.67, 587.23 188.56 C 589.87 193.45, 591.79 196.86, 594.68 202.39 C 597.57 207.92, 598.98 210.87, 601.68 216.19 C 604.38 221.52, 605.71 224.48, 608.18 228.99 C 610.65 233.51, 611.74 235.50, 614.02 238.77 C 616.31 242.04, 617.29 243.36, 619.60 245.35 C 621.92 247.33, 623.15 247.91, 625.59 248.71 C 628.02 249.51, 629.23 249.62, 631.78 249.35 C 634.33 249.08, 635.72 248.49, 638.32 247.35 C 640.93 246.20, 642.33 244.88, 644.82 243.63 C 647.32 242.38, 648.48 241.63, 650.81 241.09 C 653.15 240.55, 654.15 240.42, 656.52 240.92 C 658.89 241.41, 660.21 242.11, 662.67 243.55 C 665.13 244.99, 666.60 246.63, 668.82 248.10 C 671.03 249.57, 672.08 250.04, 673.76 250.88 C 675.43 251.73, 676.37 252.23, 677.20 252.32 C 678.04 252.41, 678.28 252.08, 677.94 251.31 C 677.60 250.54, 676.84 249.81, 675.52 248.46 C 674.20 247.12, 673.52 246.28, 671.34 244.59 C 669.15 242.90, 667.43 241.47, 664.61 240.01 C 661.78 238.56, 660.12 237.83, 657.21 237.31 C 654.31 236.78, 652.91 236.88, 650.07 237.39 C 647.22 237.89, 645.71 238.58, 643.00 239.82 C 640.29 241.06, 638.87 242.35, 636.52 243.59 C 634.17 244.83, 633.26 245.59, 631.25 246.03 C 629.25 246.48, 628.45 246.44, 626.51 245.84 C 624.57 245.24, 623.64 244.73, 621.55 243.03 C 619.45 241.32, 618.33 240.32, 616.03 237.31 C 613.73 234.30, 612.55 232.36, 610.04 227.96 C 607.52 223.56, 606.16 220.60, 603.47 215.29 C 600.77 209.98, 599.40 206.98, 596.57 201.42 C 593.74 195.85, 591.89 192.39, 589.32 187.45 C 586.75 182.51, 585.67 180.13, 583.74 176.72 C 581.81 173.30, 580.78 171.50, 579.69 170.39 C 578.59 169.28, 577.90 169.67, 578.25 171.18" style="stroke: black; fill: black;"/><path d="M 725.70,236.00 C 726.61 235.25, 728.03 233.57, 728.46 231.47 C 728.88 229.37, 728.98 227.79, 727.82 225.52 C 726.66 223.24, 725.55 221.28, 722.64 220.09 C 719.74 218.90, 717.43 218.97, 713.31 219.56 C 709.19 220.15, 706.21 220.90, 702.03 223.02 C 697.85 225.14, 695.46 226.97, 692.40 230.18 C 689.33 233.38, 688.25 235.54, 686.72 239.04 C 685.19 242.54, 684.50 244.60, 684.75 247.70 C 685.01 250.81, 685.96 252.45, 688.00 254.57 C 690.04 256.68, 691.73 257.43, 694.96 258.26 C 698.20 259.09, 700.29 259.14, 704.19 258.71 C 708.09 258.28, 710.29 257.67, 714.47 256.12 C 718.66 254.56, 720.95 253.18, 725.11 250.95 C 729.26 248.71, 731.74 247.12, 735.23 244.95 C 738.73 242.78, 740.27 241.53, 742.59 240.08 C 744.90 238.63, 745.59 238.09, 746.82 237.69 C 748.05 237.29, 748.04 237.24, 748.74 238.07 C 749.43 238.90, 749.26 240.11, 750.28 241.85 C 751.30 243.58, 752.03 244.82, 753.82 246.75 C 755.60 248.69, 756.73 249.98, 759.20 251.54 C 761.68 253.10, 763.22 253.82, 766.20 254.57 C 769.18 255.32, 770.95 255.46, 774.12 255.28 C 777.29 255.10, 779.14 254.72, 782.05 253.68 C 784.97 252.64, 786.40 251.86, 788.69 250.07 C 790.99 248.27, 791.98 246.81, 793.54 244.69 C 795.10 242.57, 795.76 241.23, 796.50 239.46 C 797.24 237.69, 797.09 236.55, 797.25 235.84 C 797.41 235.12, 796.93 235.13, 797.32 235.88 C 797.70 236.63, 797.91 237.83, 799.17 239.59 C 800.43 241.34, 801.46 242.82, 803.61 244.66 C 805.76 246.51, 807.29 247.54, 809.92 248.80 C 812.56 250.05, 814.12 250.44, 816.78 250.93 C 819.45 251.42, 820.80 251.40, 823.25 251.23 C 825.70 251.06, 826.78 250.86, 829.03 250.09 C 831.28 249.32, 832.37 248.53, 834.51 247.38 C 836.65 246.23, 837.62 245.49, 839.75 244.33 C 841.87 243.18, 843.19 242.55, 845.14 241.61 C 847.08 240.67, 847.99 240.09, 849.46 239.63 C 850.92 239.17, 851.19 239.09, 852.45 239.30 C 853.71 239.51, 854.27 239.97, 855.74 240.67 C 857.22 241.36, 857.99 242.06, 859.83 242.76 C 861.68 243.46, 862.79 243.70, 864.97 244.17 C 867.16 244.63, 868.35 244.86, 870.76 245.08 C 873.18 245.30, 874.54 245.37, 877.04 245.26 C 879.54 245.14, 880.82 244.81, 883.27 244.50 C 885.71 244.18, 886.92 243.97, 889.27 243.70 C 891.61 243.43, 892.86 243.32, 894.98 243.14 C 897.09 242.97, 898.01 242.82, 899.84 242.83 C 901.67 242.83, 902.50 242.93, 904.15 243.18 C 905.79 243.43, 906.65 243.85, 908.06 244.10 C 909.46 244.35, 910.07 244.43, 911.16 244.43 C 912.26 244.43, 913.00 244.44, 913.53 244.10 C 914.06 243.76, 914.15 243.26, 913.81 242.74 C 913.46 242.22, 912.78 241.98, 911.81 241.52 C 910.83 241.06, 910.34 240.87, 908.92 240.45 C 907.50 240.03, 906.51 239.68, 904.71 239.42 C 902.90 239.17, 901.87 239.18, 899.88 239.15 C 897.88 239.12, 896.94 239.18, 894.73 239.28 C 892.52 239.39, 891.23 239.44, 888.83 239.67 C 886.44 239.91, 885.16 240.18, 882.76 240.47 C 880.37 240.76, 879.19 241.05, 876.87 241.14 C 874.54 241.22, 873.36 241.12, 871.15 240.91 C 868.95 240.69, 867.82 240.48, 865.83 240.08 C 863.84 239.67, 862.97 239.45, 861.22 238.86 C 859.48 238.28, 858.78 237.69, 857.11 237.16 C 855.43 236.63, 854.53 236.36, 852.84 236.19 C 851.16 236.03, 850.56 236.01, 848.68 236.33 C 846.81 236.65, 845.68 236.94, 843.48 237.79 C 841.28 238.65, 839.88 239.38, 837.69 240.61 C 835.50 241.83, 834.51 242.72, 832.53 243.93 C 830.55 245.14, 829.68 245.92, 827.78 246.66 C 825.88 247.40, 825.08 247.54, 823.04 247.63 C 821.01 247.72, 819.80 247.64, 817.59 247.10 C 815.37 246.56, 814.08 246.18, 811.96 244.93 C 809.84 243.67, 808.86 242.52, 806.97 240.82 C 805.09 239.13, 804.20 237.85, 802.53 236.46 C 800.86 235.07, 800.01 234.29, 798.62 233.88 C 797.24 233.48, 796.70 233.67, 795.60 234.43 C 794.51 235.19, 794.21 236.09, 793.16 237.67 C 792.10 239.25, 791.71 240.46, 790.33 242.34 C 788.96 244.21, 788.21 245.50, 786.29 247.03 C 784.38 248.57, 783.22 249.14, 780.75 250.01 C 778.27 250.88, 776.62 251.26, 773.92 251.39 C 771.21 251.52, 769.69 251.36, 767.22 250.68 C 764.75 249.99, 763.58 249.39, 761.57 247.98 C 759.56 246.56, 758.80 245.30, 757.18 243.60 C 755.56 241.90, 754.85 240.97, 753.46 239.48 C 752.07 237.99, 751.65 236.98, 750.23 236.16 C 748.82 235.34, 748.25 235.18, 746.37 235.38 C 744.49 235.57, 743.39 235.71, 740.84 237.14 C 738.30 238.57, 737.07 240.23, 733.66 242.52 C 730.26 244.80, 727.85 246.38, 723.82 248.57 C 719.79 250.76, 717.51 252.07, 713.52 253.48 C 709.53 254.88, 707.43 255.29, 703.88 255.59 C 700.34 255.88, 698.52 255.60, 695.78 254.96 C 693.04 254.31, 691.78 253.86, 690.20 252.36 C 688.63 250.86, 688.08 249.90, 687.92 247.46 C 687.75 245.03, 688.09 243.26, 689.39 240.19 C 690.69 237.12, 691.63 235.02, 694.42 232.11 C 697.20 229.20, 699.46 227.49, 703.32 225.63 C 707.18 223.76, 710.14 223.20, 713.72 222.79 C 717.30 222.39, 719.03 222.74, 721.22 223.61 C 723.41 224.48, 723.92 225.66, 724.66 227.12 C 725.40 228.59, 725.07 229.30, 724.92 230.92 C 724.76 232.54, 723.74 234.22, 723.89 235.23 C 724.05 236.25, 724.79 236.75, 725.70 236.00" style="stroke: black; fill: black;"/></svg>