# Wavefront OBJ
# Created by fragMOTION 1.3.7
# http://www.fragmosoft.com

mtllib Bob_Beard_Chops.mtl
# 44 vertices
v 0.0239114 0.813096 -0.0663322
v 0.0300085 0.803588 -0.0525185
v 0.0232224 0.802784 -0.0596995
v 0.0360904 0.817789 -0.0530425
v 0.0247754 0.820999 -0.0640166
v 0.0357314 0.83405 -0.0568657
v 0.0422615 0.811262 -0.0321307
v 0.0502155 0.825759 -0.0376165
v 0.0444994 0.841943 -0.0499751
v 0.0492805 0.817488 -0.018048
v 0.0562375 0.834968 -0.02307
v 0.0520415 0.854827 -0.0371954
v 0.0476825 0.826793 -0.00927753
v 0.0529535 0.844348 -0.0102549
v 0.0575235 0.856011 -0.019225
v 0.0579015 0.867719 -0.0208935
v 0.0544795 0.865366 -0.03489
v 0.0579015 0.880533 -0.0230481
v 0.0544795 0.87818 -0.0370446
v 0.0200674 0.801912 -0.05341
v 0.0322355 0.80868 -0.0316966
v 0.0383655 0.81699 -0.0150449
v -0.0187626 0.813096 -0.0663321
v -0.0248596 0.803588 -0.0525184
v -0.0309416 0.817789 -0.0530424
v -0.0180736 0.802784 -0.0596994
v -0.0196266 0.820999 -0.0640165
v -0.0305826 0.83405 -0.0568656
v -0.0371125 0.811262 -0.0321306
v -0.0450665 0.825759 -0.0376163
v -0.0393506 0.841943 -0.0499749
v -0.0441315 0.817487 -0.0180479
v -0.0510885 0.834968 -0.0230699
v -0.0468925 0.854826 -0.0371953
v -0.0425335 0.826793 -0.00927738
v -0.0478045 0.844347 -0.0102547
v -0.0523745 0.856011 -0.0192248
v -0.0527525 0.867719 -0.0208933
v -0.0493305 0.865366 -0.0348899
v -0.0527525 0.880533 -0.0230479
v -0.0493305 0.87818 -0.0370445
v -0.0149186 0.801912 -0.0534099
v -0.0270865 0.80868 -0.0316965
v -0.0332165 0.81699 -0.0150448
# 44 texture vertices
vt 0.217982 -0.631803
vt 0.242375 -0.655361
vt 0.267378 -0.644468
vt 0.264252 -0.608152
vt 0.217435 -0.611894
vt 0.242697 -0.572358
vt 0.33096 -0.616745
vt 0.316773 -0.577606
vt 0.269838 -0.545575
vt 0.37065 -0.595545
vt 0.35836 -0.552641
vt 0.311731 -0.509694
vt 0.400993 -0.579721
vt 0.396899 -0.532452
vt 0.366916 -0.503195
vt 0.358572 -0.474895
vt 0.317281 -0.484722
vt 0.346564 -0.445076
vt 0.305586 -0.455798
vt 0.260552 -0.667403
vt 0.332399 -0.641208
vt 0.387102 -0.616892
vt 0.198564 -0.633006
vt 0.152288 -0.609364
vt 0.149171 -0.64568
vt 0.174177 -0.656569
vt 0.199105 -0.613097
vt 0.173833 -0.573566
vt 0.099756 -0.578826
vt 0.085583 -0.617967
vt 0.146684 -0.546789
vt 0.058163 -0.553868
vt 0.045887 -0.596774
vt 0.104782 -0.510914
vt 0.019618 -0.533686
vt 0.01554 -0.580957
vt 0.049594 -0.504423
vt 0.099225 -0.485945
vt 0.057933 -0.476121
vt 0.110918 -0.457023
vt 0.06994 -0.4463
vt 0.156004 -0.668613
vt 0.08415 -0.642431
vt 0.029441 -0.618125
# 48 normals
vn 0.741918 -0.171057 -0.648304
vn 0.680321 -0.428096 -0.594892
vn 0.776038 -0.378683 -0.504345
vn 0.775503 -0.267994 -0.571641
vn 0.698847 0.0190391 -0.715018
vn 0.72102 -0.175593 -0.670296
vn 0.807201 -0.50854 -0.299688
vn 0.873841 -0.294916 -0.386556
vn 0.829391 -0.15015 -0.538114
vn 0.917311 -0.393204 0.0626982
vn 0.99419 -0.106475 0.0157992
vn 0.955591 -0.115196 -0.271248
vn 0.882261 -0.237319 0.406564
vn 0.980938 -0.128502 0.145767
vn 0.910678 -0.323883 -0.256446
vn 0.966506 -0.0718466 -0.246382
vn 0.969093 -0.116663 -0.217367
vn 0.972132 -0.0388722 -0.23119
vn 0.170523 -0.984043 -0.0508161
vn 0.135658 -0.951372 0.276564
vn 0.252671 -0.954883 0.156063
vn 0.250636 -0.925443 0.284141
vn 0.150422 -0.905626 0.396504
vn 0.229729 -0.646388 0.727603
vn -0.74192 -0.171058 -0.648301
vn -0.775505 -0.267995 -0.571639
vn -0.77604 -0.378683 -0.504343
vn -0.680323 -0.428096 -0.59489
vn -0.698849 0.0190388 -0.715016
vn -0.721022 -0.175593 -0.670294
vn -0.873842 -0.294917 -0.386553
vn -0.807202 -0.508541 -0.299685
vn -0.829392 -0.15015 -0.538111
vn -0.99419 -0.106475 0.0158022
vn -0.917311 -0.393205 0.0627009
vn -0.955592 -0.115196 -0.271245
vn -0.980937 -0.128503 0.14577
vn -0.88226 -0.237319 0.406567
vn -0.910679 -0.323884 -0.256443
vn -0.969094 -0.116663 -0.217364
vn -0.966507 -0.071847 -0.246379
vn -0.972132 -0.0388726 -0.231187
vn -0.170523 -0.984043 -0.0508156
vn -0.252671 -0.954883 0.156064
vn -0.135656 -0.951373 0.276564
vn -0.15042 -0.905626 0.396504
vn -0.250634 -0.925444 0.284142
vn -0.229727 -0.646388 0.727604
usemtl _09_-_Defaultaaa
g Bob_Beard_Chops
s off
f 1/1/1 2/3/3 3/2/2
f 2/3/3 1/1/1 4/4/4
f 5/5/5 4/4/4 1/1/1
f 4/4/4 5/5/5 6/6/6
f 4/4/4 7/7/7 2/3/3
f 7/7/7 4/4/4 8/8/8
f 6/6/6 8/8/8 4/4/4
f 8/8/8 6/6/6 9/9/9
f 8/8/8 10/10/10 7/7/7
f 10/10/10 8/8/8 11/11/11
f 9/9/9 11/11/11 8/8/8
f 11/11/11 9/9/9 12/12/12
f 11/11/11 13/13/13 10/10/10
f 13/13/13 11/11/11 14/14/14
f 12/12/12 14/14/14 11/11/11
f 14/14/14 12/12/12 15/15/15
f 12/12/12 16/16/16 15/15/15
f 16/16/16 12/12/12 17/17/17
f 17/17/17 18/18/18 16/16/16
f 18/18/18 17/17/17 19/19/18
f 2/3/19 20/20/19 3/2/19
f 7/7/20 20/20/20 2/3/20
f 20/20/21 7/7/21 21/21/21
f 10/10/22 21/21/22 7/7/22
f 21/21/23 10/10/23 22/22/23
f 10/10/24 13/13/24 22/22/24
f 23/23/25 24/25/27 25/24/26
f 24/25/27 23/23/25 26/26/28
f 27/27/29 25/24/26 28/28/30
f 25/24/26 27/27/29 23/23/25
f 25/24/26 29/30/32 30/29/31
f 29/30/32 25/24/26 24/25/27
f 28/28/30 30/29/31 31/31/33
f 30/29/31 28/28/30 25/24/26
f 30/29/31 32/33/35 33/32/34
f 32/33/35 30/29/31 29/30/32
f 31/31/33 33/32/34 34/34/36
f 33/32/34 31/31/33 30/29/31
f 33/32/34 35/36/38 36/35/37
f 35/36/38 33/32/34 32/33/35
f 34/34/36 36/35/37 37/37/39
f 36/35/37 34/34/36 33/32/34
f 34/34/36 38/39/41 39/38/40
f 38/39/41 34/34/36 37/37/39
f 39/38/40 40/41/42 41/40/42
f 40/41/42 39/38/40 38/39/41
f 24/25/43 26/26/43 42/42/43
f 29/30/44 42/42/44 43/43/44
f 42/42/45 29/30/45 24/25/45
f 32/33/46 43/43/46 44/44/46
f 43/43/47 32/33/47 29/30/47
f 32/33/48 44/44/48 35/36/48
