# Wavefront OBJ
# Created by fragMOTION 1.3.7
# http://www.fragmosoft.com

mtllib Bob_Beard_Moustache.mtl
# 28 vertices
v 0.0192024 0.821757 -0.0731882
v 0.0284294 0.831501 -0.065031
v 0.0284294 0.820202 -0.0631312
v 0.0167694 0.826379 -0.0761496
v 0.0025744 0.831554 -0.0812736
v 0.0167694 0.844734 -0.0770516
v 0.00257439 0.842491 -0.0831126
v 0.0250484 0.841271 -0.0695861
v 0.0025744 0.832124 -0.0778831
v 0.0167694 0.827306 -0.070635
v 0.0190774 0.822458 -0.0690167
v 0.0283044 0.820297 -0.0578094
v 0.0284294 0.835607 -0.0622351
v 0.0167694 0.845304 -0.0736612
v 0.0025744 0.843061 -0.0797222
v 0.0250484 0.841841 -0.0661957
v -0.0140536 0.821757 -0.0731881
v -0.0232806 0.831501 -0.065031
v -0.0116206 0.826379 -0.0761495
v -0.0232806 0.820202 -0.0631311
v -0.0116206 0.844734 -0.0770516
v -0.0198996 0.841271 -0.069586
v -0.0116206 0.827306 -0.0706349
v -0.0139286 0.822458 -0.0690167
v -0.0231556 0.820297 -0.0578093
v -0.0232806 0.835606 -0.062235
v -0.0116206 0.845304 -0.0736612
v -0.0198996 0.841841 -0.0661956
# 20 texture vertices
vt 0.289303 -0.817936
vt 0.347945 -0.829177
vt 0.347945 -0.788933
vt 0.273837 -0.800202
vt 0.182678 -0.77929
vt 0.273837 -0.736095
vt 0.182678 -0.740337
vt 0.326455 -0.752438
vt 0.288504 -0.817936
vt 0.347146 -0.831946
vt 0.347945 -0.776339
vt 0.076053 -0.817936
vt 0.09152 -0.800202
vt 0.017411 -0.788933
vt 0.017411 -0.829177
vt 0.09152 -0.736095
vt 0.038901 -0.752438
vt 0.076852 -0.817936
vt 0.017411 -0.776339
vt 0.01821 -0.831946
# 32 normals
vn -0.0268231 -0.554349 -0.831852
vn 0.950104 -0.0517224 -0.307615
vn 0.925534 -0.010985 -0.378505
vn 0.093222 -0.681787 -0.725587
vn -1.01086e-006 -0.648013 -0.761629
vn 0.397359 0.631635 -0.66569
vn -1.42779e-006 0.466137 -0.884712
vn 0.778587 0.440609 -0.44684
vn 4.54578e-007 -0.986157 0.165813
vn -0.740045 -0.664356 0.104715
vn -0.907556 -0.417736 0.0428882
vn 0.999795 0.00179366 0.0201876
vn 0.971531 0.163233 -0.171706
vn 0.304081 0.939459 -0.157962
vn -4.54578e-007 0.986157 -0.165813
vn 0.792792 0.601055 -0.101063
vn -0.31882 -0.936219 0.147809
vn -0.241366 -0.970364 0.0116583
vn 0.0268208 -0.554349 -0.831852
vn -0.0932239 -0.681788 -0.725586
vn -0.925535 -0.0109854 -0.378502
vn -0.950105 -0.0517228 -0.307612
vn -0.397361 0.631635 -0.665689
vn -0.778589 0.440608 -0.446838
vn 0.740045 -0.664356 0.104713
vn 0.907556 -0.417735 0.0428855
vn -0.971531 0.163233 -0.171703
vn -0.999794 0.00179325 0.0201906
vn -0.304082 0.939459 -0.157961
vn -0.792792 0.601055 -0.101061
vn 0.241366 -0.970364 0.0116575
vn 0.31882 -0.936219 0.147808
usemtl _09_-_Defaultaaa
g Bob_Beard_Moustache
s off
f 1/1/1 2/3/3 3/2/2
f 2/3/3 1/1/1 4/4/4
f 5/5/5 6/6/6 4/4/4
f 6/6/6 5/5/5 7/7/7
f 4/4/4 8/8/8 2/3/3
f 8/8/8 4/4/4 6/6/6
f 4/4/4 9/5/9 5/5/5
f 9/5/9 4/4/4 10/4/10
f 1/1/1 10/4/10 4/4/4
f 10/4/10 1/1/1 11/9/11
f 2/3/3 12/10/12 3/2/2
f 12/10/12 2/3/3 13/11/13
f 7/7/7 14/6/14 6/6/6
f 14/6/14 7/7/7 15/7/15
f 6/6/6 16/8/16 8/8/8
f 16/8/16 6/6/6 14/6/14
f 8/8/8 13/11/13 2/3/3
f 13/11/13 8/8/8 16/8/16
f 3/2/17 11/9/17 1/1/17
f 11/9/18 3/2/18 12/10/18
f 17/12/19 18/14/21 19/13/20
f 18/14/21 17/12/19 20/15/22
f 5/5/5 21/16/23 7/7/7
f 21/16/23 5/5/5 19/13/20
f 19/13/20 22/17/24 21/16/23
f 22/17/24 19/13/20 18/14/21
f 19/13/20 9/5/9 23/13/25
f 9/5/9 19/13/20 5/5/5
f 17/12/19 23/13/25 24/18/26
f 23/13/25 17/12/19 19/13/20
f 18/14/21 25/20/28 26/19/27
f 25/20/28 18/14/21 20/15/22
f 7/7/7 27/16/29 15/7/15
f 27/16/29 7/7/7 21/16/23
f 21/16/23 28/17/30 27/16/29
f 28/17/30 21/16/23 22/17/24
f 22/17/24 26/19/27 28/17/30
f 26/19/27 22/17/24 18/14/21
f 20/15/31 24/18/31 25/20/31
f 24/18/32 20/15/32 17/12/32
