# Wavefront OBJ
# Created by fragMOTION 1.3.7
# http://www.fragmosoft.com

mtllib Bob_Beard_Goatee.mtl
# 40 vertices
v 0.00257442 0.789691 -0.072517
v 0.0167694 0.820178 -0.0729227
v 0.0167694 0.792978 -0.0666326
v 0.00257441 0.823286 -0.0777539
v 0.0284294 0.820202 -0.0631312
v 0.0259994 0.802223 -0.0630205
v 0.0284294 0.831501 -0.065031
v 0.0167694 0.826736 -0.0740254
v 0.0025744 0.831554 -0.0812736
v 0.0167694 0.844734 -0.0770516
v 0.00257439 0.842491 -0.0831126
v 0.0250484 0.841271 -0.0695861
v 0.0167694 0.820748 -0.0695323
v 0.00257441 0.823856 -0.0743645
v 0.00257445 0.793909 -0.0559318
v 0.0167695 0.796897 -0.0518314
v 0.0263285 0.803586 -0.0525182
v 0.0284294 0.811456 -0.0560784
v 0.0025744 0.832124 -0.0778831
v 0.0167694 0.827306 -0.070635
v 0.0284294 0.835607 -0.0622351
v 0.0167694 0.845304 -0.0736612
v 0.0025744 0.843061 -0.0797222
v 0.0250484 0.841841 -0.0661957
v -0.0116206 0.820178 -0.0729227
v -0.0116206 0.792978 -0.0666325
v -0.0232806 0.820202 -0.0631311
v -0.0208506 0.802223 -0.0630205
v -0.0232806 0.831501 -0.065031
v -0.0116206 0.826736 -0.0740253
v -0.0116206 0.844734 -0.0770516
v -0.0198996 0.841271 -0.069586
v -0.0116206 0.820748 -0.0695323
v -0.0116206 0.796897 -0.0518314
v -0.0211796 0.803586 -0.0525181
v -0.0232806 0.811456 -0.0560783
v -0.0116206 0.827306 -0.0706349
v -0.0232806 0.835606 -0.062235
v -0.0116206 0.845304 -0.0736612
v -0.0198996 0.841841 -0.0661956
# 40 texture vertices
vt 0.177716 -0.591988
vt 0.22778 -0.593829
vt 0.237529 -0.484399
vt 0.177715 -0.462147
vt 0.270829 -0.570805
vt 0.296706 -0.501245
vt 0.299996 -0.452486
vt 0.2397 -0.457986
vt 0.177715 -0.430317
vt 0.241034 -0.386361
vt 0.177715 -0.387678
vt 0.283063 -0.40841
vt 0.234604 -0.480511
vt 0.177715 -0.452769
vt 0.177716 -0.651414
vt 0.260991 -0.641893
vt 0.306507 -0.592195
vt 0.312373 -0.545023
vt 0.177715 -0.442598
vt 0.234194 -0.463105
vt 0.312954 -0.438542
vt 0.249238 -0.377709
vt 0.177715 -0.375566
vt 0.295562 -0.404907
vt 0.117902 -0.484399
vt 0.127652 -0.59383
vt 0.058726 -0.501246
vt 0.084603 -0.570807
vt 0.115731 -0.457986
vt 0.055435 -0.452486
vt 0.114396 -0.38636
vt 0.072367 -0.408409
vt 0.120828 -0.480511
vt 0.094441 -0.641894
vt 0.043059 -0.545024
vt 0.048925 -0.592197
vt 0.121236 -0.463105
vt 0.042477 -0.438542
vt 0.106193 -0.377709
vt 0.059868 -0.404907
# 39 normals
vn -7.27598e-007 -0.803824 -0.594868
vn 0.524229 -0.766847 -0.370311
vn 0.314805 0.2118 -0.925223
vn -1.34681e-006 0.579101 -0.815256
vn 0.806952 -0.406738 -0.428245
vn 0.902857 -0.0979917 -0.418624
vn 0.906686 -0.0267683 -0.420955
vn 0.0415209 -0.598286 -0.800206
vn -9.95752e-007 -0.658051 -0.752974
vn 0.414384 0.604823 -0.680055
vn -1.42779e-006 0.466137 -0.884712
vn 0.775499 0.417307 -0.473768
vn -0.70355 0.700809 -0.117834
vn -4.54578e-007 0.986157 -0.165813
vn 5.79383e-007 -0.967907 0.251307
vn 0.424855 -0.883015 0.199456
vn 0.823084 -0.567897 0.00512872
vn 0.781439 -0.39167 -0.485744
vn 4.54578e-007 -0.986157 0.165813
vn -0.881141 -0.466308 0.0784068
vn 0.970124 0.166773 -0.176197
vn 0.304081 0.939459 -0.157962
vn 0.792792 0.601055 -0.101063
vn -0.314808 0.2118 -0.925222
vn -0.524229 -0.766847 -0.37031
vn -0.902859 -0.0979921 -0.418621
vn -0.806953 -0.406738 -0.428242
vn -0.0415231 -0.598286 -0.800206
vn -0.906688 -0.0267686 -0.420952
vn -0.414386 0.604822 -0.680054
vn -0.775501 0.417306 -0.473766
vn 0.703549 0.700809 -0.117836
vn -0.424855 -0.883015 0.199457
vn -0.78144 -0.391671 -0.485741
vn -0.823084 -0.567897 0.0051312
vn 0.881141 -0.466307 0.0784041
vn -0.970125 0.166773 -0.176194
vn -0.304082 0.939459 -0.157961
vn -0.792792 0.601055 -0.101061
usemtl _09_-_Defaultaaa
g Bob_Beard_Goatee
s off
f 1/1/1 2/3/3 3/2/2
f 2/3/3 1/1/1 4/4/4
f 3/2/2 5/6/6 6/5/5
f 5/6/6 3/2/2 2/3/3
f 2/3/3 7/7/7 5/6/6
f 7/7/7 2/3/3 8/8/8
f 9/9/9 10/10/10 8/8/8
f 10/10/10 9/9/9 11/11/11
f 8/8/8 12/12/12 7/7/7
f 12/12/12 8/8/8 10/10/10
f 4/4/4 13/13/13 2/3/3
f 13/13/13 4/4/4 14/14/14
f 3/2/2 15/15/15 1/1/1
f 15/15/15 3/2/2 16/16/16
f 5/6/6 17/17/17 6/5/5
f 17/17/17 5/6/6 18/18/18
f 6/5/5 16/16/16 3/2/2
f 16/16/16 6/5/5 17/17/17
f 8/8/8 19/19/19 9/9/9
f 19/19/19 8/8/8 20/20/20
f 2/3/3 20/20/20 8/8/8
f 20/20/20 2/3/3 13/13/13
f 7/7/7 18/18/18 5/6/6
f 18/18/18 7/7/7 21/21/21
f 11/11/11 22/22/22 10/10/10
f 22/22/22 11/11/11 23/23/14
f 10/10/10 24/24/23 12/12/12
f 24/24/23 10/10/10 22/22/22
f 12/12/12 21/21/21 7/7/7
f 21/21/21 12/12/12 24/24/23
f 1/1/1 25/25/24 4/4/4
f 25/25/24 1/1/1 26/26/25
f 26/26/25 27/27/26 25/25/24
f 27/27/26 26/26/25 28/28/27
f 25/25/24 29/30/29 30/29/28
f 29/30/29 25/25/24 27/27/26
f 9/9/9 31/31/30 11/11/11
f 31/31/30 9/9/9 30/29/28
f 30/29/28 32/32/31 31/31/30
f 32/32/31 30/29/28 29/30/29
f 4/4/4 33/33/32 14/14/14
f 33/33/32 4/4/4 25/25/24
f 26/26/25 15/15/15 34/34/33
f 15/15/15 26/26/25 1/1/1
f 27/27/26 35/36/35 36/35/34
f 35/36/35 27/27/26 28/28/27
f 28/28/27 34/34/33 35/36/35
f 34/34/33 28/28/27 26/26/25
f 30/29/28 19/19/19 37/37/36
f 19/19/19 30/29/28 9/9/9
f 25/25/24 37/37/36 33/33/32
f 37/37/36 25/25/24 30/29/28
f 29/30/29 36/35/34 38/38/37
f 36/35/34 29/30/29 27/27/26
f 11/11/11 39/39/38 23/23/14
f 39/39/38 11/11/11 31/31/30
f 31/31/30 40/40/39 39/39/38
f 40/40/39 31/31/30 32/32/31
f 32/32/31 38/38/37 40/40/39
f 38/38/37 32/32/31 29/30/29
