# Wavefront OBJ
# Created by fragMOTION 1.3.7
# http://www.fragmosoft.com

mtllib Bob_Beard_Only.mtl
# 57 vertices
v 0.00257442 0.797628 -0.0738514
v 0.0167694 0.81588 -0.0722001
v 0.0167694 0.800915 -0.0679671
v 0.00257441 0.818988 -0.0770313
v 0.0284294 0.813681 -0.0628348
v 0.0259994 0.802223 -0.0630205
v 0.0167694 0.81645 -0.0688097
v 0.00257441 0.819558 -0.0736419
v 0.00257444 0.788929 -0.0573334
v 0.0167695 0.791917 -0.053232
v 0.0300085 0.803586 -0.0525182
v 0.0360904 0.817787 -0.0530421
v 0.0284294 0.82498 -0.0647347
v 0.0328194 0.835607 -0.0622351
v 0.00257448 0.797454 -0.0348508
v 0.0167695 0.800442 -0.0307494
v 0.0422615 0.81126 -0.0321304
v 0.0502155 0.825757 -0.0376162
v 0.0451984 0.849768 -0.0488651
v 0.0533705 0.819092 -0.0183178
v 0.0575055 0.834966 -0.0230697
v 0.0278785 0.808101 -0.0179604
v 0.0520415 0.854824 -0.0371949
v 0.0494985 0.828356 -0.00954035
v 0.0575065 0.844345 -0.0102544
v 0.0278785 0.817365 -0.00918293
v 0.0575235 0.856009 -0.0192247
v 0.0579015 0.867717 -0.0208932
v 0.0544795 0.865364 -0.0348897
v 0.0579015 0.880531 -0.0230478
v 0.0544795 0.878178 -0.0370443
v -0.0116206 0.81588 -0.0722001
v -0.0116206 0.800915 -0.067967
v -0.0232806 0.813681 -0.0628347
v -0.0208506 0.802223 -0.0630205
v -0.0116206 0.81645 -0.0688096
v -0.0116206 0.791917 -0.053232
v -0.0248596 0.803586 -0.0525181
v -0.0309416 0.817787 -0.053042
v -0.0232806 0.82498 -0.0647346
v -0.0276706 0.835606 -0.062235
v -0.0116205 0.800441 -0.0307493
v -0.0371125 0.81126 -0.0321303
v -0.0450665 0.825757 -0.037616
v -0.0400496 0.849767 -0.0488649
v -0.0482215 0.819092 -0.0183177
v -0.0523565 0.834966 -0.0230695
v -0.0227295 0.808101 -0.0179603
v -0.0468925 0.854824 -0.0371948
v -0.0443495 0.828356 -0.00954019
v -0.0523575 0.844345 -0.0102542
v -0.0227295 0.817365 -0.00918285
v -0.0523745 0.856009 -0.0192245
v -0.0527525 0.867717 -0.020893
v -0.0493305 0.865364 -0.0348895
v -0.0527525 0.880531 -0.0230476
v -0.0493305 0.878178 -0.0370441
# 57 texture vertices
vt 0.216646 -0.488363
vt 0.240066 -0.492753
vt 0.24676 -0.45489
vt 0.216645 -0.440605
vt 0.254921 -0.502229
vt 0.269397 -0.484345
vt 0.246706 -0.445317
vt 0.216644 -0.435367
vt 0.216648 -0.529947
vt 0.238657 -0.535404
vt 0.266639 -0.523191
vt 0.290342 -0.503157
vt 0.281435 -0.462029
vt 0.305145 -0.45606
vt 0.21665 -0.587875
vt 0.25171 -0.591497
vt 0.299765 -0.562207
vt 0.323981 -0.533693
vt 0.34828 -0.475123
vt 0.329622 -0.580921
vt 0.352368 -0.557273
vt 0.285866 -0.610809
vt 0.370649 -0.500896
vt 0.344925 -0.602688
vt 0.376435 -0.577985
vt 0.303862 -0.634088
vt 0.38825 -0.542329
vt 0.405867 -0.525309
vt 0.39037 -0.495555
vt 0.424961 -0.506169
vt 0.409458 -0.476405
vt 0.18653 -0.454894
vt 0.193227 -0.492756
vt 0.163894 -0.484351
vt 0.178372 -0.502233
vt 0.186584 -0.44532
vt 0.194639 -0.535406
vt 0.142951 -0.503167
vt 0.166655 -0.523197
vt 0.151854 -0.462037
vt 0.128143 -0.456073
vt 0.181591 -0.591501
vt 0.109316 -0.533711
vt 0.133534 -0.56222
vt 0.085009 -0.475146
vt 0.080931 -0.557297
vt 0.10368 -0.58094
vt 0.147438 -0.61082
vt 0.062642 -0.500924
vt 0.056866 -0.578016
vt 0.088379 -0.602711
vt 0.129445 -0.634102
vt 0.045046 -0.542363
vt 0.042918 -0.495589
vt 0.027427 -0.525348
vt 0.023826 -0.476445
vt 0.008329 -0.506215
# 55 normals
vn -1.08935e-006 -0.591858 -0.806042
vn 0.451467 -0.53268 -0.715842
vn 0.527168 0.239213 -0.815396
vn -1.34471e-006 0.581534 -0.813522
vn 0.679369 -0.466253 -0.566626
vn 0.73736 -0.190973 -0.647942
vn 0.262817 0.951489 -0.159985
vn -4.54578e-007 0.986157 -0.165813
vn -6.50017e-009 -0.989976 -0.141235
vn 0.398141 -0.917163 -0.0172169
vn 0.762643 -0.628707 -0.151999
vn 0.80618 -0.29295 -0.514057
vn 0.736176 -0.143308 -0.661444
vn 0.777234 -0.153956 -0.610086
vn 7.2784e-007 -0.935039 0.354545
vn 0.348536 -0.90413 0.247125
vn 0.623739 -0.776682 -0.0878314
vn 0.848884 -0.295912 -0.437987
vn 0.8424 -0.0898457 -0.531309
vn 0.763042 -0.576093 0.293059
vn 0.989015 -0.126537 -0.0764086
vn 0.370309 -0.844363 0.387198
vn 0.937032 -0.0811386 -0.339687
vn 0.689122 -0.413062 0.595391
vn 0.987936 -0.154281 0.0134283
vn 0.297711 -0.637976 0.710179
vn 0.947918 -0.153609 -0.279028
vn 0.966506 -0.0718466 -0.246382
vn 0.969093 -0.116663 -0.217367
vn 0.972132 -0.0388722 -0.23119
vn -0.52717 0.239213 -0.815395
vn -0.451469 -0.53268 -0.71584
vn -0.737362 -0.190973 -0.64794
vn -0.679371 -0.466254 -0.566624
vn -0.262818 0.951489 -0.159984
vn -0.398141 -0.917163 -0.0172157
vn -0.806181 -0.29295 -0.514055
vn -0.762643 -0.628707 -0.151997
vn -0.736178 -0.143308 -0.661442
vn -0.777236 -0.153956 -0.610084
vn -0.348535 -0.904131 0.247127
vn -0.848885 -0.295913 -0.437985
vn -0.623739 -0.776682 -0.0878295
vn -0.842402 -0.0898461 -0.531307
vn -0.989015 -0.126537 -0.0764057
vn -0.763041 -0.576093 0.293061
vn -0.370307 -0.844363 0.387199
vn -0.937033 -0.081139 -0.339685
vn -0.987936 -0.154281 0.0134312
vn -0.68912 -0.413062 0.595393
vn -0.297709 -0.637976 0.71018
vn -0.947919 -0.153609 -0.279025
vn -0.969094 -0.116663 -0.217364
vn -0.966507 -0.071847 -0.246379
vn -0.972132 -0.0388726 -0.231187
usemtl _09_-_Defaultaaa
g Bob_Beard_Only
s off
f 1/1/1 2/3/3 3/2/2
f 2/3/3 1/1/1 4/4/4
f 3/2/2 5/6/6 6/5/5
f 5/6/6 3/2/2 2/3/3
f 4/4/4 7/7/7 2/3/3
f 7/7/7 4/4/4 8/8/8
f 3/2/2 9/9/9 1/1/1
f 9/9/9 3/2/2 10/10/10
f 5/6/6 11/11/11 6/5/5
f 11/11/11 5/6/6 12/12/12
f 6/5/5 11/11/11 10/10/10
f 13/13/13 12/12/12 5/6/6
f 12/12/12 13/13/13 14/14/14
f 10/10/10 15/15/15 9/9/9
f 15/15/15 10/10/10 16/16/16
f 12/12/12 17/17/17 11/11/11
f 17/17/17 12/12/12 18/18/18
f 11/11/11 16/16/16 10/10/10
f 16/16/16 11/11/11 17/17/17
f 14/14/14 18/18/18 12/12/12
f 18/18/18 14/14/14 19/19/19
f 18/18/18 20/20/20 17/17/17
f 20/20/20 18/18/18 21/21/21
f 17/17/17 22/22/22 16/16/16
f 22/22/22 17/17/17 20/20/20
f 19/19/19 21/21/21 18/18/18
f 21/21/21 19/19/19 23/23/23
f 21/21/21 24/24/24 20/20/20
f 24/24/24 21/21/21 25/25/25
f 20/20/20 26/26/26 22/22/22
f 26/26/26 20/20/20 24/24/24
f 23/23/23 25/25/25 21/21/21
f 25/25/25 23/23/23 27/27/27
f 23/23/23 28/28/28 27/27/27
f 28/28/28 23/23/23 29/29/29
f 29/29/29 30/30/30 28/28/28
f 30/30/30 29/29/29 31/31/30
f 6/5/5 10/10/10 3/2/2
f 2/3/3 13/13/13 5/6/6
f 1/1/1 32/32/31 4/4/4
f 32/32/31 1/1/1 33/33/32
f 33/33/32 34/34/33 32/32/31
f 34/34/33 33/33/32 35/35/34
f 4/4/4 36/36/35 8/8/8
f 36/36/35 4/4/4 32/32/31
f 33/33/32 9/9/9 37/37/36
f 9/9/9 33/33/32 1/1/1
f 34/34/33 38/39/38 39/38/37
f 38/39/38 34/34/33 35/35/34
f 35/35/34 37/37/36 38/39/38
f 40/40/39 39/38/37 41/41/40
f 39/38/37 40/40/39 34/34/33
f 37/37/36 15/15/15 42/42/41
f 15/15/15 37/37/36 9/9/9
f 39/38/37 43/44/43 44/43/42
f 43/44/43 39/38/37 38/39/38
f 38/39/38 42/42/41 43/44/43
f 42/42/41 38/39/38 37/37/36
f 41/41/40 44/43/42 45/45/44
f 44/43/42 41/41/40 39/38/37
f 44/43/42 46/47/46 47/46/45
f 46/47/46 44/43/42 43/44/43
f 43/44/43 48/48/47 46/47/46
f 48/48/47 43/44/43 42/42/41
f 45/45/44 47/46/45 49/49/48
f 47/46/45 45/45/44 44/43/42
f 47/46/45 50/51/50 51/50/49
f 50/51/50 47/46/45 46/47/46
f 46/47/46 52/52/51 50/51/50
f 52/52/51 46/47/46 48/48/47
f 49/49/48 51/50/49 53/53/52
f 51/50/49 49/49/48 47/46/45
f 49/49/48 54/55/54 55/54/53
f 54/55/54 49/49/48 53/53/52
f 55/54/53 56/57/55 57/56/55
f 56/57/55 55/54/53 54/55/54
f 35/35/34 33/33/32 37/37/36
f 32/32/31 34/34/33 40/40/39
