# Wavefront OBJ
# Created by fragMOTION 1.3.7
# http://www.fragmosoft.com

mtllib Bob_Beard_Full.mtl
# 73 vertices
v 0.00257442 0.797628 -0.0738514
v 0.0167694 0.820178 -0.0729227
v 0.0167694 0.800915 -0.0679671
v 0.00257441 0.823286 -0.0777539
v 0.0284294 0.820202 -0.0631312
v 0.0259994 0.802223 -0.0630205
v 0.0284294 0.831501 -0.065031
v 0.0167694 0.826736 -0.0740254
v 0.0025744 0.831554 -0.0812736
v 0.0167694 0.844734 -0.0770516
v 0.00257439 0.842491 -0.0831126
v 0.0250484 0.841271 -0.0695861
v 0.0167694 0.820748 -0.0695323
v 0.00257441 0.823856 -0.0743645
v 0.00257444 0.788929 -0.0573334
v 0.0167695 0.791917 -0.053232
v 0.0300085 0.803586 -0.0525182
v 0.0360904 0.817787 -0.0530421
v 0.0025744 0.832124 -0.0778831
v 0.0167694 0.827306 -0.070635
v 0.0328194 0.835607 -0.0622351
v 0.0167694 0.845304 -0.0736612
v 0.0025744 0.843061 -0.0797222
v 0.0250484 0.841841 -0.0661957
v 0.00257448 0.797454 -0.0348508
v 0.0167695 0.800442 -0.0307494
v 0.0422615 0.81126 -0.0321304
v 0.0502155 0.825757 -0.0376162
v 0.0451984 0.849768 -0.0488651
v 0.0533705 0.819092 -0.0183178
v 0.0575055 0.834966 -0.0230697
v 0.0278785 0.808101 -0.0179604
v 0.0520415 0.854824 -0.0371949
v 0.0494985 0.828356 -0.00954035
v 0.0575065 0.844345 -0.0102544
v 0.0278785 0.817365 -0.00918293
v 0.0575235 0.856009 -0.0192247
v 0.0579015 0.867717 -0.0208932
v 0.0544795 0.865364 -0.0348897
v 0.0579015 0.880531 -0.0230478
v 0.0544795 0.878178 -0.0370443
v -0.0116206 0.820178 -0.0729227
v -0.0116206 0.800915 -0.067967
v -0.0232806 0.820202 -0.0631311
v -0.0208506 0.802223 -0.0630205
v -0.0232806 0.831501 -0.065031
v -0.0116206 0.826736 -0.0740253
v -0.0116206 0.844734 -0.0770516
v -0.0198996 0.841271 -0.069586
v -0.0116206 0.820748 -0.0695323
v -0.0116206 0.791917 -0.053232
v -0.0248596 0.803586 -0.0525181
v -0.0309416 0.817787 -0.053042
v -0.0116206 0.827306 -0.0706349
v -0.0276706 0.835606 -0.062235
v -0.0116206 0.845304 -0.0736612
v -0.0198996 0.841841 -0.0661956
v -0.0116205 0.800441 -0.0307493
v -0.0371125 0.81126 -0.0321303
v -0.0450665 0.825757 -0.037616
v -0.0400496 0.849767 -0.0488649
v -0.0482215 0.819092 -0.0183177
v -0.0523565 0.834966 -0.0230695
v -0.0227295 0.808101 -0.0179603
v -0.0468925 0.854824 -0.0371948
v -0.0443495 0.828356 -0.00954019
v -0.0523575 0.844345 -0.0102542
v -0.0227295 0.817365 -0.00918285
v -0.0523745 0.856009 -0.0192245
v -0.0527525 0.867717 -0.020893
v -0.0493305 0.865364 -0.0348895
v -0.0527525 0.880531 -0.0230476
v -0.0493305 0.878178 -0.0370441
# 75 texture vertices
vt 0.211687 -0.535128
vt 0.234074 -0.53948
vt 0.24015 -0.488487
vt 0.212387 -0.468212
vt 0.248681 -0.546069
vt 0.266096 -0.504874
vt 0.271292 -0.473095
vt 0.241197 -0.472957
vt 0.210761 -0.456791
vt 0.241954 -0.425851
vt 0.210975 -0.42677
vt 0.263143 -0.442266
vt 0.239084 -0.487316
vt 0.217541 -0.462341
vt 0.211536 -0.580493
vt 0.234341 -0.585664
vt 0.26182 -0.56365
vt 0.282988 -0.531612
vt 0.21114 -0.465741
vt 0.23838 -0.475573
vt 0.28661 -0.469004
vt 0.245399 -0.420508
vt 0.211019 -0.418491
vt 0.268426 -0.439811
vt 0.211476 -0.646611
vt 0.252352 -0.646332
vt 0.299814 -0.598381
vt 0.320842 -0.556514
vt 0.336441 -0.480552
vt 0.332818 -0.61026
vt 0.353081 -0.575332
vt 0.29154 -0.657733
vt 0.363654 -0.504659
vt 0.351703 -0.630229
vt 0.380797 -0.591663
vt 0.313625 -0.678824
vt 0.387794 -0.546842
vt 0.403504 -0.521913
vt 0.383264 -0.49258
vt 0.420465 -0.494166
vt 0.400217 -0.464823
vt 0.183935 -0.487227
vt 0.189255 -0.538854
vt 0.157079 -0.504276
vt 0.174538 -0.545439
vt 0.180291 -0.472383
vt 0.151065 -0.472786
vt 0.180054 -0.425374
vt 0.158974 -0.441844
vt 0.207662 -0.461867
vt 0.185565 -0.483541
vt 0.188719 -0.585289
vt 0.140078 -0.531287
vt 0.161281 -0.563212
vt 0.18195 -0.473196
vt 0.210028 -0.465894
vt 0.135919 -0.468811
vt 0.176652 -0.420043
vt 0.153736 -0.439457
vt 0.17067 -0.646032
vt 0.10217 -0.556395
vt 0.123253 -0.598116
vt 0.086306 -0.480607
vt 0.069933 -0.575351
vt 0.090247 -0.610145
vt 0.131557 -0.657514
vt 0.059186 -0.504767
vt 0.042241 -0.591813
vt 0.071389 -0.630203
vt 0.109512 -0.678673
vt 0.035143 -0.547063
vt 0.03955 -0.492783
vt 0.019375 -0.522222
vt 0.022535 -0.465115
vt 0.002352 -0.494563
# 70 normals
vn -1.09033e-006 -0.591112 -0.806589
vn 0.455506 -0.51954 -0.722906
vn 0.318534 0.203765 -0.925752
vn -1.34568e-006 0.580415 -0.814321
vn 0.690407 -0.448773 -0.567398
vn 0.719145 -0.158172 -0.676618
vn 0.659841 -0.156362 -0.734957
vn 0.0415209 -0.598286 -0.800206
vn -9.95752e-007 -0.658051 -0.752974
vn 0.414384 0.604823 -0.680055
vn -1.42779e-006 0.466137 -0.884712
vn 0.717659 0.446302 -0.534583
vn -0.70355 0.700809 -0.117834
vn -4.54578e-007 0.986157 -0.165813
vn -6.50017e-009 -0.989976 -0.141235
vn 0.398141 -0.917163 -0.0172169
vn 0.7703 -0.614524 -0.170289
vn 0.778484 -0.30646 -0.547764
vn 4.54578e-007 -0.986157 0.165813
vn -0.881141 -0.466308 0.0784068
vn 0.72868 -0.121857 -0.673926
vn 0.304081 0.939459 -0.157962
vn 0.604223 0.785785 -0.132124
vn 7.2784e-007 -0.935039 0.354545
vn 0.348536 -0.90413 0.247125
vn 0.623739 -0.776682 -0.0878314
vn 0.848884 -0.295912 -0.437987
vn 0.8424 -0.0898457 -0.531309
vn 0.763042 -0.576093 0.293059
vn 0.989015 -0.126537 -0.0764086
vn 0.370309 -0.844363 0.387198
vn 0.937032 -0.0811386 -0.339687
vn 0.689122 -0.413062 0.595391
vn 0.987936 -0.154281 0.0134283
vn 0.297711 -0.637976 0.710179
vn 0.947918 -0.153609 -0.279028
vn 0.966506 -0.0718466 -0.246382
vn 0.969093 -0.116663 -0.217367
vn 0.972132 -0.0388722 -0.23119
vn -0.318537 0.203764 -0.925751
vn -0.455508 -0.51954 -0.722904
vn -0.719147 -0.158172 -0.676616
vn -0.690408 -0.448774 -0.567396
vn -0.0415231 -0.598286 -0.800206
vn -0.659843 -0.156362 -0.734955
vn -0.414386 0.604822 -0.680054
vn -0.717661 0.446302 -0.534582
vn 0.703549 0.700809 -0.117836
vn -0.398141 -0.917163 -0.0172157
vn -0.778486 -0.30646 -0.547761
vn -0.7703 -0.614524 -0.170287
vn 0.881141 -0.466307 0.0784041
vn -0.728682 -0.121857 -0.673924
vn -0.304082 0.939459 -0.157961
vn -0.604224 0.785784 -0.132122
vn -0.348535 -0.904131 0.247127
vn -0.848885 -0.295913 -0.437985
vn -0.623739 -0.776682 -0.0878295
vn -0.842402 -0.0898461 -0.531307
vn -0.989015 -0.126537 -0.0764057
vn -0.763041 -0.576093 0.293061
vn -0.370307 -0.844363 0.387199
vn -0.937033 -0.081139 -0.339685
vn -0.987936 -0.154281 0.0134312
vn -0.68912 -0.413062 0.595393
vn -0.297709 -0.637976 0.71018
vn -0.947919 -0.153609 -0.279025
vn -0.969094 -0.116663 -0.217364
vn -0.966507 -0.071847 -0.246379
vn -0.972132 -0.0388726 -0.231187
usemtl _09_-_Defaultaaa
g Bob_Beard_Full
s off
f 1/1/1 2/3/3 3/2/2
f 2/3/3 1/1/1 4/4/4
f 3/2/2 5/6/6 6/5/5
f 5/6/6 3/2/2 2/3/3
f 2/3/3 7/7/7 5/6/6
f 7/7/7 2/3/3 8/8/8
f 9/9/9 10/10/10 8/8/8
f 10/10/10 9/9/9 11/11/11
f 8/8/8 12/12/12 7/7/7
f 12/12/12 8/8/8 10/10/10
f 4/4/4 13/13/13 2/3/3
f 13/13/13 4/4/4 14/14/14
f 3/2/2 15/15/15 1/1/1
f 15/15/15 3/2/2 16/16/16
f 5/6/6 17/17/17 6/5/5
f 17/17/17 5/6/6 18/18/18
f 6/5/5 17/17/17 16/16/16
f 8/8/8 19/19/19 9/9/9
f 19/19/19 8/8/8 20/20/20
f 2/3/3 20/20/20 8/8/8
f 20/20/20 2/3/3 13/13/13
f 7/7/7 18/18/18 5/6/6
f 18/18/18 7/7/7 21/21/21
f 11/11/11 22/22/22 10/10/10
f 22/22/22 11/11/11 23/23/14
f 10/10/10 24/24/23 12/12/12
f 24/24/23 10/10/10 22/22/22
f 12/12/12 21/21/21 7/7/7
f 21/21/21 12/12/12 24/24/23
f 16/16/16 25/25/24 15/15/15
f 25/25/24 16/16/16 26/26/25
f 18/18/18 27/27/26 17/17/17
f 27/27/26 18/18/18 28/28/27
f 17/17/17 26/26/25 16/16/16
f 26/26/25 17/17/17 27/27/26
f 21/21/21 28/28/27 18/18/18
f 28/28/27 21/21/21 29/29/28
f 28/28/27 30/30/29 27/27/26
f 30/30/29 28/28/27 31/31/30
f 27/27/26 32/32/31 26/26/25
f 32/32/31 27/27/26 30/30/29
f 29/29/28 31/31/30 28/28/27
f 31/31/30 29/29/28 33/33/32
f 31/31/30 34/34/33 30/30/29
f 34/34/33 31/31/30 35/35/34
f 30/30/29 36/36/35 32/32/31
f 36/36/35 30/30/29 34/34/33
f 33/33/32 35/35/34 31/31/30
f 35/35/34 33/33/32 37/37/36
f 33/33/32 38/38/37 37/37/36
f 38/38/37 33/33/32 39/39/38
f 39/39/38 40/40/39 38/38/37
f 40/40/39 39/39/38 41/41/39
f 6/5/5 16/16/16 3/2/2
f 1/1/1 42/42/40 4/4/4
f 42/42/40 1/1/1 43/43/41
f 43/43/41 44/44/42 42/42/40
f 44/44/42 43/43/41 45/45/43
f 42/42/40 46/47/45 47/46/44
f 46/47/45 42/42/40 44/44/42
f 9/9/9 48/48/46 11/11/11
f 48/48/46 9/9/9 47/46/44
f 47/46/44 49/49/47 48/48/46
f 49/49/47 47/46/44 46/47/45
f 4/4/4 50/51/48 14/50/14
f 50/51/48 4/4/4 42/42/40
f 43/43/41 15/15/15 51/52/49
f 15/15/15 43/43/41 1/1/1
f 44/44/42 52/54/51 53/53/50
f 52/54/51 44/44/42 45/45/43
f 45/45/43 51/52/49 52/54/51
f 47/46/44 19/56/19 54/55/52
f 19/56/19 47/46/44 9/9/9
f 42/42/40 54/55/52 50/51/48
f 54/55/52 42/42/40 47/46/44
f 46/47/45 53/53/50 55/57/53
f 53/53/50 46/47/45 44/44/42
f 11/11/11 56/58/54 23/23/14
f 56/58/54 11/11/11 48/48/46
f 48/48/46 57/59/55 56/58/54
f 57/59/55 48/48/46 49/49/47
f 49/49/47 55/57/53 57/59/55
f 55/57/53 49/49/47 46/47/45
f 51/52/49 25/25/24 58/60/56
f 25/25/24 51/52/49 15/15/15
f 53/53/50 59/62/58 60/61/57
f 59/62/58 53/53/50 52/54/51
f 52/54/51 58/60/56 59/62/58
f 58/60/56 52/54/51 51/52/49
f 55/57/53 60/61/57 61/63/59
f 60/61/57 55/57/53 53/53/50
f 60/61/57 62/65/61 63/64/60
f 62/65/61 60/61/57 59/62/58
f 59/62/58 64/66/62 62/65/61
f 64/66/62 59/62/58 58/60/56
f 61/63/59 63/64/60 65/67/63
f 63/64/60 61/63/59 60/61/57
f 63/64/60 66/69/65 67/68/64
f 66/69/65 63/64/60 62/65/61
f 62/65/61 68/70/66 66/69/65
f 68/70/66 62/65/61 64/66/62
f 65/67/63 67/68/64 69/71/67
f 67/68/64 65/67/63 63/64/60
f 65/67/63 70/73/69 71/72/68
f 70/73/69 65/67/63 69/71/67
f 71/72/68 72/75/70 73/74/70
f 72/75/70 71/72/68 70/73/69
f 45/45/43 43/43/41 51/52/49
