# Wavefront OBJ
# Created by fragMOTION 1.3.7
# http://www.fragmosoft.com

mtllib Bob_Beard_PointyChin.mtl
# 28 vertices
v 0.00257453 0.780436 -0.0759161
v 0.0142315 0.805289 -0.079315
v 0.0100435 0.785532 -0.0731669
v 0.0025745 0.811414 -0.0846546
v 0.0166885 0.794161 -0.0703143
v 0.0220445 0.806785 -0.0732066
v 0.0197525 0.818298 -0.0784745
v 0.0224815 0.821986 -0.0758892
v 0.0142315 0.805859 -0.0759246
v 0.0025745 0.811984 -0.0812642
v 0.00257454 0.794534 -0.0649326
v 0.0167695 0.799088 -0.0610956
v 0.0220765 0.799387 -0.0690625
v 0.0237785 0.807089 -0.0699215
v 0.0197525 0.819087 -0.0737824
v 0.0213465 0.822865 -0.0718177
v -0.00908249 0.805289 -0.079315
v -0.00489447 0.785532 -0.0731669
v -0.0167165 0.806785 -0.0732066
v -0.0115395 0.794161 -0.0703143
v -0.0143935 0.818327 -0.0783019
v -0.0174825 0.821984 -0.075901
v -0.00908248 0.805859 -0.0759246
v -0.0116205 0.799088 -0.0610956
v -0.0169275 0.799387 -0.0690625
v -0.0179735 0.807089 -0.0699215
v -0.0143935 0.819087 -0.0737824
v -0.0163475 0.822865 -0.0718176
# 28 texture vertices
vt 0.177754 -0.582193
vt 0.201758 -0.583033
vt 0.240843 -0.489018
vt 0.177522 -0.445707
vt 0.249167 -0.578509
vt 0.286441 -0.520131
vt 0.278465 -0.467706
vt 0.300336 -0.462232
vt 0.244322 -0.471974
vt 0.177507 -0.439144
vt 0.177782 -0.650667
vt 0.270764 -0.641781
vt 0.284662 -0.57485
vt 0.301674 -0.531168
vt 0.283885 -0.448628
vt 0.311825 -0.455923
vt 0.114359 -0.489258
vt 0.153712 -0.583037
vt 0.069327 -0.520281
vt 0.106254 -0.578498
vt 0.093061 -0.467573
vt 0.070588 -0.463056
vt 0.110824 -0.472244
vt 0.084802 -0.641899
vt 0.055107 -0.531245
vt 0.07076 -0.575063
vt 0.087655 -0.449165
vt 0.059044 -0.457282
# 32 normals
vn 9.08523e-008 -0.972473 -0.233014
vn 0.599053 -0.800709 -0.000333918
vn 0.455683 0.151895 -0.877087
vn -1.66452e-006 0.581683 -0.813416
vn 0.775377 -0.609167 -0.166452
vn 0.75785 -0.248425 -0.603281
vn 0.160928 0.148162 -0.975782
vn 0.987751 0.046193 -0.149042
vn -0.503331 0.852132 -0.143278
vn -7.71674e-007 0.986157 -0.165814
vn 1.60438e-006 -0.653991 0.756503
vn 0.418201 -0.725464 0.546635
vn 0.722042 -0.576093 -0.383108
vn 0.905888 -0.15081 -0.395758
vn -0.916953 0.393472 -0.0661575
vn 0.957541 0.1751 0.229032
vn -0.44794 0.164635 -0.878775
vn -0.592603 -0.805495 -0.000197619
vn -0.796559 -0.223817 -0.561605
vn -0.782708 -0.615113 -0.094889
vn -0.0913427 0.117761 -0.988832
vn -0.987685 0.00722989 -0.156287
vn 0.51234 0.846894 -0.142399
vn -0.418202 -0.725463 0.546636
vn -0.947743 -0.117194 -0.296731
vn -0.731461 -0.568314 -0.376807
vn 0.922456 0.380757 -0.0640224
vn -0.962352 0.128001 0.239781
vn -0.761765 0.638886 -0.107422
vn -0.795254 0.507821 -0.331193
vn 0.72039 0.683968 -0.115005
vn 0.756337 0.563823 -0.331748
usemtl _09_-_Defaulteee
g Bob_Beard_PointyChin
s off
f 1/1/1 2/3/3 3/2/2
f 2/3/3 1/1/1 4/4/4
f 2/3/3 5/5/5 3/2/2
f 5/5/5 2/3/3 6/6/6
f 7/7/7 6/6/6 2/3/3
f 6/6/6 7/7/7 8/8/8
f 4/4/4 9/9/9 2/3/3
f 9/9/9 4/4/4 10/10/10
f 3/2/2 11/11/11 1/1/1
f 11/11/11 3/2/2 12/12/12
f 6/6/6 13/13/13 5/5/5
f 13/13/13 6/6/6 14/14/14
f 5/5/5 12/12/12 3/2/2
f 12/12/12 5/5/5 13/13/13
f 2/3/3 15/15/15 7/7/7
f 15/15/15 2/3/3 9/9/9
f 8/8/8 14/14/14 6/6/6
f 14/14/14 8/8/8 16/16/16
f 1/1/1 17/17/17 4/4/4
f 17/17/17 1/1/1 18/18/18
f 18/18/18 19/19/19 17/17/17
f 19/19/19 18/18/18 20/20/20
f 19/19/19 21/21/21 17/17/17
f 21/21/21 19/19/19 22/22/22
f 4/4/4 23/23/23 10/10/10
f 23/23/23 4/4/4 17/17/17
f 18/18/18 11/11/11 24/24/24
f 11/11/11 18/18/18 1/1/1
f 19/19/19 25/26/26 26/25/25
f 25/26/26 19/19/19 20/20/20
f 20/20/20 24/24/24 25/26/26
f 24/24/24 20/20/20 18/18/18
f 17/17/17 27/27/27 23/23/23
f 27/27/27 17/17/17 21/21/21
f 22/22/22 26/25/25 28/28/28
f 26/25/25 22/22/22 19/19/19
f 15/15/29 8/8/29 7/7/29
f 8/8/30 15/15/30 16/16/30
f 22/22/31 27/27/31 21/21/31
f 27/27/32 22/22/32 28/28/32
