# Wavefront OBJ
# Created by fragMOTION 1.3.7
# http://www.fragmosoft.com

mtllib Bob_Beard_LongScruffy.mtl
# 82 vertices
v 0.00257451 0.767168 -0.0880448
v 0.0156965 0.792773 -0.086198
v 0.0156965 0.768537 -0.0814445
v 0.0025745 0.797448 -0.0895364
v 0.0313285 0.799103 -0.0733518
v 0.0356805 0.772259 -0.0717323
v 0.0167695 0.818725 -0.0815742
v 0.0284295 0.830049 -0.0736826
v 0.0167695 0.825283 -0.0826769
v 0.00257448 0.830101 -0.0899251
v 0.0167695 0.843282 -0.0857032
v 0.00257447 0.841038 -0.0917641
v 0.0250485 0.839818 -0.0782376
v 0.00257449 0.817297 -0.0878269
v 0.0167695 0.819295 -0.0781838
v 0.0025745 0.817867 -0.0844365
v 0.00257457 0.7716 -0.0540472
v 0.0205986 0.773064 -0.0547182
v 0.0487166 0.780308 -0.0570385
v 0.0439255 0.804214 -0.0601719
v 0.00257449 0.830671 -0.0865347
v 0.0167695 0.825853 -0.0792865
v 0.0328195 0.834154 -0.0708866
v 0.0167695 0.843852 -0.0823127
v 0.00257448 0.841609 -0.0883737
v 0.0250485 0.840388 -0.0748472
v 0.0025746 0.78348 -0.0348493
v 0.0186836 0.788285 -0.028344
v 0.0569066 0.786626 -0.041355
v 0.0555956 0.811141 -0.0479056
v 0.0451985 0.848315 -0.0575166
v 0.0597636 0.820349 -0.0333592
v 0.0610846 0.794651 -0.0275749
v 0.0238176 0.796158 -0.0184798
v 0.0520415 0.853371 -0.0458465
v 0.0573966 0.816647 -0.0216917
v 0.0500696 0.802908 -0.0187043
v 0.0303156 0.798174 -0.0152585
v 0.0575236 0.854556 -0.0278762
v 0.0540106 0.848586 -0.0208886
v 0.0579016 0.866265 -0.0295447
v 0.0544795 0.863911 -0.0435412
v 0.0579016 0.879079 -0.0316993
v 0.0544795 0.876725 -0.0456958
v -0.0105475 0.792773 -0.086198
v -0.0105475 0.768537 -0.0814445
v -0.0261795 0.799103 -0.0733517
v -0.0279215 0.772259 -0.0717322
v -0.0116205 0.818725 -0.0815742
v -0.0232805 0.830048 -0.0736825
v -0.0116205 0.825283 -0.0826769
v -0.0116205 0.843281 -0.0857031
v -0.0198995 0.839818 -0.0782375
v -0.0116205 0.819295 -0.0781838
v -0.0154494 0.773064 -0.0547182
v -0.0407744 0.779847 -0.0569609
v -0.0387765 0.804214 -0.0601717
v -0.0116205 0.825853 -0.0792864
v -0.0276705 0.834154 -0.0708865
v -0.0116205 0.843852 -0.0823127
v -0.0198995 0.840388 -0.0748471
v -0.0135344 0.788285 -0.0283439
v -0.0526774 0.788629 -0.0416916
v -0.0504464 0.811141 -0.0479055
v -0.0400495 0.848315 -0.0575165
v -0.0586474 0.794456 -0.0275421
v -0.0546144 0.820349 -0.033359
v -0.0186684 0.796158 -0.0184798
v -0.0468925 0.853371 -0.0458463
v -0.0522474 0.816647 -0.0216916
v -0.0449204 0.802908 -0.0187041
v -0.0245814 0.798149 -0.0152341
v -0.0523744 0.854556 -0.0278761
v -0.0488614 0.848587 -0.0208886
v -0.0527524 0.866264 -0.0295446
v -0.0493305 0.863911 -0.0435411
v -0.0527524 0.879079 -0.0316992
v -0.0493305 0.876725 -0.0456957
v -0.0419674 0.832694 -0.014499
v -0.0227294 0.807771 -0.0109278
v 0.0277716 0.807896 -0.0108536
v 0.0477856 0.832837 -0.0146144
# 94 texture vertices
vt 0.635999 -0.760889
vt 0.654216 -0.755038
vt 0.663957 -0.822055
vt 0.635335 -0.839052
vt 0.699679 -0.751137
vt 0.717051 -0.823749
vt 0.682061 -0.88966
vt 0.736526 -0.907341
vt 0.688716 -0.904782
vt 0.639501 -0.919131
vt 0.688086 -0.952115
vt 0.639084 -0.949706
vt 0.722802 -0.937339
vt 0.634233 -0.891224
vt 0.677689 -0.895554
vt 0.633672 -0.898553
vt 0.634012 -0.665876
vt 0.685235 -0.688833
vt 0.74265 -0.747373
vt 0.765448 -0.813797
vt 0.639973 -0.909809
vt 0.686119 -0.904403
vt 0.763732 -0.910778
vt 0.69322 -0.957646
vt 0.639011 -0.958216
vt 0.731181 -0.940226
vt 0.688538 -0.614071
vt 0.746298 -0.629498
vt 0.776854 -0.739734
vt 0.811477 -0.799064
vt 0.853488 -0.900189
vt 0.855857 -0.780063
vt 0.806159 -0.734635
vt 0.801673 -0.632593
vt 0.906719 -0.865022
vt 0.860041 -0.746448
vt 0.830418 -0.71128
vt 0.818758 -0.652663
vt 0.942961 -0.780626
vt 0.940988 -0.818447
vt 0.965191 -0.841818
vt 0.93775 -0.872542
vt 0.99256 -0.866197
vt 0.965131 -0.896952
vt 0.607098 -0.821454
vt 0.617472 -0.755064
vt 0.554361 -0.822444
vt 0.577375 -0.751391
vt 0.587121 -0.887916
vt 0.590197 -0.903798
vt 0.539699 -0.907247
vt 0.589977 -0.951404
vt 0.555056 -0.936771
vt 0.58903 -0.888649
vt 0.583226 -0.691392
vt 0.50667 -0.814366
vt 0.533236 -0.74762
vt 0.596106 -0.898961
vt 0.512585 -0.911827
vt 0.584799 -0.957
vt 0.546741 -0.939866
vt 0.521589 -0.632533
vt 0.578563 -0.615951
vt 0.460068 -0.802495
vt 0.489718 -0.745943
vt 0.422038 -0.904917
vt 0.414455 -0.784993
vt 0.46336 -0.741841
vt 0.466073 -0.634928
vt 0.366915 -0.871494
vt 0.409551 -0.751204
vt 0.438155 -0.714642
vt 0.449087 -0.65377
vt 0.330833 -0.82607
vt 0.327512 -0.787429
vt 0.33628 -0.880208
vt 0.307571 -0.850665
vt 0.310015 -0.9058
vt 0.281274 -0.876267
vt 0.35684 -0.727031
vt 0.419718 -0.649856
vt 0.848362 -0.646172
vt 0.912186 -0.723714
vt 0.790237 -0.880741
vt 0.768665 -0.833334
vt 0.510509 -0.852265
vt 0.494391 -0.903018
vt 0.705658 -0.765117
vt 0.560396 -0.775702
vt 0.673802 -0.691528
vt 0.62575 -0.672239
vt 0.58115 -0.698543
vt 0.569099 -0.735478
vt 0.691277 -0.726228
# 79 normals
vn -8.06754e-007 -0.723194 -0.690645
vn 0.391299 -0.776297 -0.494214
vn 0.468653 -0.012624 -0.883292
vn 0.0175283 0.0477277 -0.998707
vn 0.581263 -0.668247 -0.464305
vn 0.644833 0.0398689 -0.763283
vn 0.168612 0.438708 -0.88267
vn 0.614676 -0.0748956 -0.785216
vn 0.0415209 -0.598286 -0.800206
vn -9.44552e-007 -0.65805 -0.752974
vn 0.414384 0.604823 -0.680056
vn -1.72743e-006 0.466137 -0.884713
vn 0.717659 0.446303 -0.534584
vn 0.0162683 0.597217 -0.801915
vn -0.812926 0.574305 -0.0965632
vn -7.71674e-007 0.986157 -0.165814
vn 1.04875e-006 -0.9391 0.343645
vn 0.132855 -0.933649 0.332639
vn 0.767383 -0.577841 -0.277891
vn 0.738165 0.015925 -0.674433
vn 7.71674e-007 -0.986157 0.165814
vn -0.881141 -0.466308 0.0784071
vn 0.674422 -0.00532464 -0.738327
vn 0.304081 0.939459 -0.157962
vn 0.604223 0.785785 -0.132124
vn 1.33304e-006 -0.841192 0.540738
vn 0.0731253 -0.822505 0.564037
vn 0.763256 -0.64608 0.00451027
vn 0.86783 0.00470636 -0.496839
vn 0.81742 0.0396343 -0.574677
vn 0.99313 0.0839955 -0.081471
vn 0.787383 -0.484507 0.381157
vn 0.0105605 -0.720616 0.693254
vn 0.929207 -0.00257216 -0.36955
vn 0.801316 0.0101584 0.598155
vn 0.360968 -0.269265 0.89286
vn 0.0586866 -0.610359 0.789948
vn 0.684625 0.144433 0.714442
vn 0.995337 0.00794039 -0.0961278
vn 0.966506 -0.0718462 -0.246382
vn 0.969093 -0.116663 -0.217367
vn 0.972132 -0.0388718 -0.23119
vn -0.473661 -0.0225598 -0.880418
vn -0.404004 -0.773108 -0.488962
vn -0.659448 0.0155756 -0.751589
vn -0.586902 -0.678049 -0.442487
vn -0.176721 0.448236 -0.876273
vn -0.041523 -0.598286 -0.800206
vn -0.614678 -0.0748962 -0.785214
vn -0.414387 0.604822 -0.680054
vn -0.717661 0.446302 -0.534582
vn 0.812926 0.574306 -0.0965659
vn -0.148011 -0.93079 0.334251
vn -0.731826 -0.0121715 -0.681383
vn -0.721896 -0.647217 -0.244898
vn 0.881142 -0.466307 0.0784041
vn -0.674424 -0.00532531 -0.738325
vn -0.304083 0.939458 -0.157961
vn -0.604224 0.785784 -0.132122
vn -0.0904357 -0.823174 0.560541
vn -0.852954 0.029211 -0.521169
vn -0.748604 -0.653917 -0.109479
vn -0.817422 0.0396334 -0.574674
vn -0.988716 0.122498 -0.0862289
vn -0.800908 -0.491548 0.341945
vn -0.0135755 -0.728994 0.684385
vn -0.929209 -0.00257309 -0.369547
vn -0.78071 0.0446154 0.623299
vn -0.334202 -0.243366 0.91054
vn -0.0349244 -0.603352 0.79671
vn -0.995338 0.00793956 -0.0961235
vn -0.684571 0.14185 0.715011
vn -0.969094 -0.116664 -0.217364
vn -0.966507 -0.0718472 -0.246379
vn -0.972132 -0.0388728 -0.231187
vn -0.292972 0.135816 0.946425
vn -0.164765 -0.208265 0.964095
vn 0.148641 -0.201019 0.968245
vn 0.309118 0.135514 0.941319
usemtl _09_-_Defaultaaa
g Bob_Beard_LongScruffy
s off
f 1/1/1 2/3/3 3/2/2
f 2/3/3 1/1/1 4/4/4
f 3/2/2 5/6/6 6/5/5
f 5/6/6 3/2/2 2/3/3
f 7/7/7 8/8/8 5/6/6
f 8/8/8 7/7/7 9/9/9
f 10/10/10 11/11/11 9/9/9
f 11/11/11 10/10/10 12/12/12
f 9/9/9 13/13/13 8/8/8
f 13/13/13 9/9/9 11/11/11
f 14/14/14 15/15/15 7/7/7
f 15/15/15 14/14/14 16/16/16
f 3/2/2 17/17/17 1/1/1
f 17/17/17 3/2/2 18/18/18
f 5/6/6 19/19/19 6/5/5
f 19/19/19 5/6/6 20/20/20
f 6/5/5 19/19/19 18/18/18
f 9/9/9 21/21/21 10/10/10
f 21/21/21 9/9/9 22/22/22
f 7/7/7 22/22/22 9/9/9
f 22/22/22 7/7/7 15/15/15
f 8/8/8 20/20/20 5/6/6
f 20/20/20 8/8/8 23/23/23
f 12/12/12 24/24/24 11/11/11
f 24/24/24 12/12/12 25/25/16
f 11/11/11 26/26/25 13/13/13
f 26/26/25 11/11/11 24/24/24
f 13/13/13 23/23/23 8/8/8
f 23/23/23 13/13/13 26/26/25
f 18/18/18 27/27/26 17/17/17
f 27/27/26 18/18/18 28/28/27
f 20/20/20 29/29/28 19/19/19
f 29/29/28 20/20/20 30/30/29
f 29/29/28 18/18/18 19/19/19
f 18/18/18 29/29/28 28/28/27
f 23/23/23 30/30/29 20/20/20
f 30/30/29 23/23/23 31/31/30
f 32/32/31 29/29/28 30/30/29
f 29/29/28 32/32/31 33/33/32
f 29/29/28 34/34/33 28/28/27
f 34/34/33 29/29/28 33/33/32
f 31/31/30 32/32/31 30/30/29
f 32/32/31 31/31/30 35/35/34
f 36/36/35 33/33/32 32/32/31
f 33/33/32 36/36/35 37/37/36
f 33/33/32 38/38/37 34/34/33
f 38/38/37 33/33/32 37/37/36
f 32/32/31 39/40/39 40/39/38
f 39/40/39 32/32/31 35/35/34
f 35/35/34 41/41/40 39/40/39
f 41/41/40 35/35/34 42/42/41
f 42/42/41 43/43/42 41/41/40
f 43/43/42 42/42/41 44/44/42
f 6/5/5 18/18/18 3/2/2
f 1/1/1 45/45/43 4/4/4
f 45/45/43 1/1/1 46/46/44
f 46/46/44 47/47/45 45/45/43
f 47/47/45 46/46/44 48/48/46
f 49/49/47 50/51/49 51/50/48
f 50/51/49 49/49/47 47/47/45
f 10/10/10 52/52/50 12/12/12
f 52/52/50 10/10/10 51/50/48
f 51/50/48 53/53/51 52/52/50
f 53/53/51 51/50/48 50/51/49
f 14/14/14 54/54/52 16/16/16
f 54/54/52 14/14/14 49/49/47
f 46/46/44 17/17/17 55/55/53
f 17/17/17 46/46/44 1/1/1
f 47/47/45 56/57/55 57/56/54
f 56/57/55 47/47/45 48/48/46
f 48/48/46 55/55/53 56/57/55
f 51/50/48 21/21/21 58/58/56
f 21/21/21 51/50/48 10/10/10
f 49/49/47 58/58/56 54/54/52
f 58/58/56 49/49/47 51/50/48
f 50/51/49 57/56/54 59/59/57
f 57/56/54 50/51/49 47/47/45
f 12/12/12 60/60/58 25/25/16
f 60/60/58 12/12/12 52/52/50
f 52/52/50 61/61/59 60/60/58
f 61/61/59 52/52/50 53/53/51
f 53/53/51 59/59/57 61/61/59
f 59/59/57 53/53/51 50/51/49
f 55/55/53 27/63/26 62/62/60
f 27/63/26 55/55/53 17/17/17
f 57/56/54 63/65/62 64/64/61
f 63/65/62 57/56/54 56/57/55
f 55/55/53 63/65/62 56/57/55
f 63/65/62 55/55/53 62/62/60
f 59/59/57 64/64/61 65/66/63
f 64/64/61 59/59/57 57/56/54
f 64/64/61 66/68/65 67/67/64
f 66/68/65 64/64/61 63/65/62
f 63/65/62 68/69/66 66/68/65
f 68/69/66 63/65/62 62/62/60
f 65/66/63 67/67/64 69/70/67
f 67/67/64 65/66/63 64/64/61
f 66/68/65 70/71/68 67/67/64
f 70/71/68 66/68/65 71/72/69
f 66/68/65 72/73/70 71/72/69
f 72/73/70 66/68/65 68/69/66
f 67/67/64 73/74/71 69/70/67
f 73/74/71 67/67/64 74/75/72
f 69/70/67 75/77/74 76/76/73
f 75/77/74 69/70/67 73/74/71
f 76/76/73 77/79/75 78/78/75
f 77/79/75 76/76/73 75/77/74
f 48/48/46 46/46/44 55/55/53
f 7/7/7 4/4/4 14/14/14
f 4/4/4 7/7/7 2/3/3
f 14/14/14 45/45/43 49/49/47
f 45/45/43 14/14/14 4/4/4
f 49/49/47 45/45/43 47/47/45
f 67/67/64 70/71/68 74/75/72
f 70/71/68 79/80/76 74/75/72
f 79/80/76 70/71/68 71/72/69
f 79/80/76 72/73/70 80/81/77
f 72/73/70 79/80/76 71/72/69
f 80/81/77 72/73/70 68/69/66
f 34/34/33 38/38/37 81/82/78
f 38/38/37 82/83/79 81/82/78
f 82/83/79 38/38/37 37/37/36
f 82/83/79 36/36/35 40/39/38
f 36/36/35 82/83/79 37/37/36
f 40/39/38 36/36/35 32/32/31
f 5/6/6 2/3/3 7/7/7
f 40/84/38 79/86/76 82/85/79
f 79/86/76 40/84/38 74/87/72
f 82/85/79 80/89/77 81/88/78
f 80/89/77 82/85/79 79/86/76
f 28/90/27 62/92/60 27/91/26
f 28/90/27 68/93/66 62/92/60
f 34/94/33 68/93/66 28/90/27
f 34/94/33 80/89/77 68/93/66
f 81/88/78 80/89/77 34/94/33
