# Wavefront OBJ
# Created by fragMOTION 1.3.7
# http://www.fragmosoft.com

mtllib Bob_Beard_Long.mtl
# 95 vertices
v 0.00257442 0.767867 -0.0733183
v 0.0156964 0.790416 -0.0723895
v 0.0156964 0.771154 -0.067433
v 0.00257441 0.793525 -0.0772208
v 0.0264764 0.790441 -0.0625971
v 0.0242294 0.772462 -0.0624863
v 0.0167694 0.820178 -0.0729227
v 0.0284294 0.831501 -0.065031
v 0.0284294 0.820202 -0.0631312
v 0.0167694 0.826736 -0.0740254
v 0.0025744 0.831554 -0.0812736
v 0.0167694 0.844734 -0.0770516
v 0.00257439 0.842491 -0.0831126
v 0.0250484 0.841271 -0.0695861
v 0.00257441 0.818749 -0.0791754
v 0.0167694 0.820748 -0.0695323
v 0.00257441 0.819319 -0.075785
v 0.00257445 0.759169 -0.0567994
v 0.0135185 0.762156 -0.0526989
v 0.0316675 0.773826 -0.0519841
v 0.0364975 0.793547 -0.0499987
v 0.0025744 0.832124 -0.0778831
v 0.0167694 0.827306 -0.070635
v 0.0366184 0.817787 -0.0530421
v 0.0328194 0.835607 -0.0622351
v 0.0167694 0.845304 -0.0736612
v 0.0025744 0.843061 -0.0797222
v 0.0250484 0.841841 -0.0661957
v 0.00257448 0.767694 -0.0343167
v 0.0156965 0.770681 -0.0302163
v 0.0421685 0.7815 -0.0315973
v 0.0447685 0.799958 -0.0377482
v 0.0477065 0.825229 -0.04076
v 0.0451984 0.849768 -0.0488651
v 0.0495325 0.78933 -0.0177846
v 0.0533555 0.809167 -0.0232017
v 0.0248755 0.778341 -0.0174273
v 0.0546115 0.834437 -0.0262136
v 0.0520415 0.854824 -0.0371949
v 0.0533565 0.818546 -0.0103864
v 0.0459535 0.798595 -0.00900627
v 0.0303155 0.787604 -0.00864886
v 0.0575235 0.856009 -0.0192247
v 0.0540105 0.850039 -0.012237
v 0.0579015 0.867717 -0.0208932
v 0.0544795 0.865364 -0.0348897
v 0.0579015 0.880531 -0.0230478
v 0.0544795 0.878178 -0.0370443
v -0.0105476 0.790416 -0.0723894
v -0.0105476 0.771154 -0.0674329
v -0.0213276 0.790441 -0.062597
v -0.0190806 0.772462 -0.0624862
v -0.0116206 0.820178 -0.0729227
v -0.0232806 0.831501 -0.065031
v -0.0116206 0.826736 -0.0740253
v -0.0232806 0.820202 -0.0631311
v -0.0116206 0.844734 -0.0770516
v -0.0198996 0.841271 -0.069586
v -0.0116206 0.820748 -0.0695323
v -0.00836954 0.762156 -0.0526989
v -0.0265185 0.773826 -0.051984
v -0.0313485 0.793547 -0.0499986
v -0.0116206 0.827306 -0.0706349
v -0.0314696 0.817787 -0.053042
v -0.0276706 0.835606 -0.062235
v -0.0116206 0.845304 -0.0736612
v -0.0198996 0.841841 -0.0661956
v -0.0105475 0.770681 -0.0302162
v -0.0370195 0.7815 -0.0315972
v -0.0396195 0.799958 -0.037748
v -0.0425575 0.825229 -0.0407599
v -0.0400496 0.849767 -0.0488649
v -0.0443835 0.78933 -0.0177844
v -0.0482065 0.809167 -0.0232015
v -0.0197765 0.778341 -0.0174272
v -0.0494625 0.834437 -0.0262134
v -0.0468925 0.854824 -0.0371948
v -0.0482075 0.818546 -0.0103863
v -0.0408045 0.798595 -0.00900613
v -0.0245815 0.788279 -0.00463906
v -0.0523745 0.856009 -0.0192245
v -0.0488615 0.85004 -0.012237
v -0.0527525 0.867717 -0.020893
v -0.0493305 0.865364 -0.0348895
v -0.0527525 0.880531 -0.0230476
v -0.0493305 0.878178 -0.0370441
v -0.0419675 0.834147 -0.00584738
v -0.0227295 0.809223 -0.00227627
v -0.0186685 0.800542 -0.00759233
v -0.0116205 0.792882 -0.0203813
v 0.00257449 0.786943 -0.0282272
v 0.0167695 0.792882 -0.0203814
v 0.0238175 0.800542 -0.0075924
v 0.0277715 0.809348 -0.00220206
v 0.0477855 0.830306 -0.0082398
# 97 texture vertices
vt 0.290886 -0.605136
vt 0.336351 -0.595646
vt 0.332389 -0.54589
vt 0.295706 -0.539905
vt 0.358369 -0.591093
vt 0.365969 -0.547422
vt 0.341345 -0.473765
vt 0.378574 -0.475509
vt 0.379252 -0.447248
vt 0.34099 -0.455695
vt 0.296673 -0.437502
vt 0.342694 -0.412032
vt 0.2967 -0.411586
vt 0.368257 -0.422502
vt 0.297257 -0.478117
vt 0.339444 -0.471109
vt 0.297534 -0.470945
vt 0.290956 -0.646544
vt 0.362577 -0.635823
vt 0.386316 -0.589665
vt 0.403519 -0.543368
vt 0.296661 -0.445094
vt 0.336418 -0.460204
vt 0.409779 -0.484707
vt 0.394824 -0.437836
vt 0.347988 -0.406611
vt 0.296732 -0.404177
vt 0.375037 -0.419308
vt 0.407265 -0.674368
vt 0.422584 -0.645612
vt 0.438749 -0.578721
vt 0.438838 -0.532886
vt 0.454277 -0.474446
vt 0.452034 -0.412532
vt 0.471541 -0.565177
vt 0.481935 -0.521434
vt 0.457135 -0.623837
vt 0.501233 -0.466351
vt 0.494188 -0.412207
vt 0.517081 -0.516312
vt 0.494976 -0.562317
vt 0.484556 -0.604903
vt 0.55374 -0.450817
vt 0.53899 -0.426155
vt 0.544387 -0.397146
vt 0.509642 -0.3908
vt 0.549704 -0.365932
vt 0.514896 -0.359863
vt 0.258732 -0.54668
vt 0.250481 -0.594513
vt 0.225465 -0.545533
vt 0.230935 -0.587942
vt 0.253525 -0.474391
vt 0.252913 -0.45563
vt 0.215302 -0.446869
vt 0.215781 -0.474617
vt 0.251221 -0.411965
vt 0.226253 -0.422623
vt 0.256152 -0.470883
vt 0.227612 -0.629844
vt 0.188509 -0.540494
vt 0.204324 -0.585851
vt 0.257295 -0.459797
vt 0.199931 -0.437151
vt 0.18422 -0.48287
vt 0.245882 -0.406491
vt 0.219568 -0.419602
vt 0.170361 -0.641385
vt 0.188147 -0.668399
vt 0.153953 -0.529876
vt 0.153257 -0.57531
vt 0.143775 -0.410789
vt 0.14031 -0.471871
vt 0.111747 -0.518215
vt 0.121604 -0.561795
vt 0.135242 -0.62103
vt 0.101998 -0.409645
vt 0.09424 -0.463172
vt 0.077132 -0.512777
vt 0.098548 -0.558342
vt 0.103123 -0.60067
vt 0.057632 -0.423165
vt 0.04328 -0.446649
vt 0.086433 -0.388398
vt 0.052141 -0.394902
vt 0.080852 -0.357862
vt 0.04652 -0.364222
vt 0.039028 -0.500218
vt 0.057955 -0.582616
vt 0.079371 -0.608256
vt 0.110847 -0.64133
vt 0.13718 -0.675998
vt 0.458223 -0.679812
vt 0.482984 -0.644174
vt 0.513788 -0.611549
vt 0.536203 -0.587599
vt 0.546604 -0.50872
# 92 normals
vn -1.09027e-006 -0.591154 -0.806559
vn 0.488663 -0.521194 -0.69969
vn 0.507641 -0.114686 -0.853902
vn 0.00944152 -0.0986182 -0.99508
vn 0.627127 -0.472206 -0.619462
vn 0.725868 -0.103559 -0.679994
vn 0.224649 0.352046 -0.908623
vn 0.709467 -0.0866966 -0.699386
vn 0.655801 -0.153216 -0.739223
vn 0.0415209 -0.598286 -0.800206
vn -9.95752e-007 -0.658051 -0.752974
vn 0.414384 0.604823 -0.680055
vn -1.42779e-006 0.466137 -0.884712
vn 0.717659 0.446302 -0.534583
vn 0.00952461 0.52477 -0.851191
vn -0.812926 0.574305 -0.0965631
vn -4.54578e-007 0.986157 -0.165813
vn -6.85744e-009 -0.989943 -0.141467
vn 0.348019 -0.937248 -0.0212129
vn 0.768784 -0.55791 -0.312583
vn 0.833626 -0.149818 -0.531622
vn 4.54578e-007 -0.986157 0.165813
vn -0.881141 -0.466308 0.0784068
vn 0.766117 -0.105931 -0.633911
vn 0.727733 -0.113144 -0.676464
vn 0.304081 0.939459 -0.157962
vn 0.604223 0.785785 -0.132124
vn 0.00894512 -0.768909 0.639296
vn 0.0109001 -0.777842 0.628365
vn 0.750711 -0.657093 -0.0682732
vn 0.880431 -0.205046 -0.427548
vn 0.870059 -0.115434 -0.479241
vn 0.852925 -0.106135 -0.511131
vn 0.79512 -0.552568 0.249904
vn 0.972705 -0.144021 -0.181944
vn -0.172993 -0.746796 0.64216
vn 0.982031 -0.0783125 -0.171704
vn 0.931618 -0.106202 -0.347576
vn 0.798378 -0.0631578 0.598835
vn 0.431697 -0.246212 0.867766
vn -0.0489916 -0.511414 0.857937
vn 0.767626 -0.0237262 0.640459
vn 0.986782 -0.108869 -0.120035
vn 0.966506 -0.0718466 -0.246382
vn 0.969093 -0.116663 -0.217367
vn 0.972132 -0.0388722 -0.23119
vn -0.513855 -0.117608 -0.849777
vn -0.488666 -0.521194 -0.699688
vn -0.725544 -0.0974079 -0.681247
vn -0.627129 -0.472206 -0.61946
vn -0.234066 0.355976 -0.904707
vn -0.0415231 -0.598286 -0.800206
vn -0.655803 -0.153216 -0.739221
vn -0.70876 -0.0930725 -0.699283
vn -0.414386 0.604822 -0.680054
vn -0.717661 0.446302 -0.534582
vn 0.812926 0.574306 -0.0965655
vn -0.348019 -0.937248 -0.0212118
vn -0.836947 -0.135043 -0.530362
vn -0.768784 -0.557911 -0.312581
vn 0.881141 -0.466307 0.0784041
vn -0.727735 -0.113144 -0.676461
vn -0.77491 -0.125095 -0.619569
vn -0.304082 0.939459 -0.157961
vn -0.604224 0.785784 -0.132122
vn -0.0344959 -0.790812 0.611086
vn -0.870239 -0.195607 -0.452131
vn -0.750782 -0.656983 -0.0685574
vn -0.852926 -0.106136 -0.511128
vn -0.858958 -0.113796 -0.499241
vn -0.973555 -0.157057 -0.165905
vn -0.805827 -0.546578 0.227805
vn 0.152433 -0.770057 0.619497
vn -0.931619 -0.106202 -0.347574
vn -0.981353 -0.065971 -0.180536
vn -0.833604 -0.0913144 0.544763
vn -0.550896 -0.258024 0.793686
vn 0.231862 -0.481438 0.845255
vn -0.986783 -0.108869 -0.120031
vn -0.79091 0.0342848 0.610972
vn -0.969094 -0.116663 -0.217364
vn -0.966507 -0.071847 -0.246379
vn -0.972132 -0.0388726 -0.231187
vn -0.300571 0.142977 0.942982
vn -0.0300795 -0.0989359 0.994639
vn 0.216393 -0.52951 0.820239
vn 0.423629 -0.578803 0.696796
vn 0.0292444 -0.505339 0.862425
vn -0.390217 -0.60373 0.695155
vn -0.312909 -0.502463 0.80599
vn 0.133172 -0.102177 0.985812
vn 0.237357 0.0873889 0.967484
usemtl _09_-_Defaultaaa
g Bob_Beard_Long
s off
f 1/1/1 2/3/3 3/2/2
f 2/3/3 1/1/1 4/4/4
f 3/2/2 5/6/6 6/5/5
f 5/6/6 3/2/2 2/3/3
f 7/7/7 8/9/9 9/8/8
f 8/9/9 7/7/7 10/10/10
f 11/11/11 12/12/12 10/10/10
f 12/12/12 11/11/11 13/13/13
f 10/10/10 14/14/14 8/9/9
f 14/14/14 10/10/10 12/12/12
f 15/15/15 16/16/16 7/7/7
f 16/16/16 15/15/15 17/17/17
f 3/2/2 18/18/18 1/1/1
f 18/18/18 3/2/2 19/19/19
f 5/6/6 20/20/20 6/5/5
f 20/20/20 5/6/6 21/21/21
f 6/5/5 20/20/20 19/19/19
f 10/10/10 22/22/22 11/11/11
f 22/22/22 10/10/10 23/23/23
f 7/7/7 23/23/23 10/10/10
f 23/23/23 7/7/7 16/16/16
f 8/9/9 24/24/24 9/8/8
f 24/24/24 8/9/9 25/25/25
f 13/13/13 26/26/26 12/12/12
f 26/26/26 13/13/13 27/27/17
f 12/12/12 28/28/27 14/14/14
f 28/28/27 12/12/12 26/26/26
f 14/14/14 25/25/25 8/9/9
f 25/25/25 14/14/14 28/28/27
f 19/19/19 29/29/28 18/18/18
f 29/29/28 19/19/19 30/30/29
f 21/21/21 31/31/30 20/20/20
f 31/31/30 21/21/21 32/32/31
f 31/31/30 19/19/19 20/20/20
f 19/19/19 31/31/30 30/30/29
f 25/25/25 33/33/32 24/24/24
f 33/33/32 25/25/25 34/34/33
f 32/32/31 35/35/34 31/31/30
f 35/35/34 32/32/31 36/36/35
f 31/31/30 37/37/36 30/30/29
f 37/37/36 31/31/30 35/35/34
f 34/34/33 38/38/37 33/33/32
f 38/38/37 34/34/33 39/39/38
f 40/40/39 35/35/34 36/36/35
f 35/35/34 40/40/39 41/41/40
f 35/35/34 42/42/41 37/37/36
f 42/42/41 35/35/34 41/41/40
f 38/38/37 43/44/43 44/43/42
f 43/44/43 38/38/37 39/39/38
f 39/39/38 45/45/44 43/44/43
f 45/45/44 39/39/38 46/46/45
f 46/46/45 47/47/46 45/45/44
f 47/47/46 46/46/45 48/48/46
f 6/5/5 19/19/19 3/2/2
f 1/1/1 49/49/47 4/4/4
f 49/49/47 1/1/1 50/50/48
f 50/50/48 51/51/49 49/49/47
f 51/51/49 50/50/48 52/52/50
f 53/53/51 54/55/53 55/54/52
f 54/55/53 53/53/51 56/56/54
f 11/11/11 57/57/55 13/13/13
f 57/57/55 11/11/11 55/54/52
f 55/54/52 58/58/56 57/57/55
f 58/58/56 55/54/52 54/55/53
f 15/15/15 59/59/57 17/17/17
f 59/59/57 15/15/15 53/53/51
f 50/50/48 18/18/18 60/60/58
f 18/18/18 50/50/48 1/1/1
f 51/51/49 61/62/60 62/61/59
f 61/62/60 51/51/49 52/52/50
f 52/52/50 60/60/58 61/62/60
f 55/54/52 22/22/22 63/63/61
f 22/22/22 55/54/52 11/11/11
f 53/53/51 63/63/61 59/59/57
f 63/63/61 53/53/51 55/54/52
f 54/55/53 64/65/63 65/64/62
f 64/65/63 54/55/53 56/56/54
f 13/13/13 66/66/64 27/27/17
f 66/66/64 13/13/13 57/57/55
f 57/57/55 67/67/65 66/66/64
f 67/67/65 57/57/55 58/58/56
f 58/58/56 65/64/62 67/67/65
f 65/64/62 58/58/56 54/55/53
f 60/60/58 29/69/28 68/68/66
f 29/69/28 60/60/58 18/18/18
f 62/61/59 69/71/68 70/70/67
f 69/71/68 62/61/59 61/62/60
f 60/60/58 69/71/68 61/62/60
f 69/71/68 60/60/58 68/68/66
f 65/64/62 71/73/70 72/72/69
f 71/73/70 65/64/62 64/65/63
f 70/70/67 73/75/72 74/74/71
f 73/75/72 70/70/67 69/71/68
f 69/71/68 75/76/73 73/75/72
f 75/76/73 69/71/68 68/68/66
f 72/72/69 76/78/75 77/77/74
f 76/78/75 72/72/69 71/73/70
f 73/75/72 78/79/76 74/74/71
f 78/79/76 73/75/72 79/80/77
f 73/75/72 80/81/78 79/80/77
f 80/81/78 73/75/72 75/76/73
f 76/78/75 81/82/79 77/77/74
f 81/82/79 76/78/75 82/83/80
f 77/77/74 83/85/82 84/84/81
f 83/85/82 77/77/74 81/82/79
f 84/84/81 85/87/83 86/86/83
f 85/87/83 84/84/81 83/85/82
f 52/52/50 50/50/48 60/60/58
f 7/7/7 4/4/4 15/15/15
f 4/4/4 7/7/7 2/3/3
f 15/15/15 49/49/47 53/53/51
f 49/49/47 15/15/15 4/4/4
f 53/53/51 51/51/49 56/56/54
f 51/51/49 53/53/51 49/49/47
f 56/56/54 62/61/59 64/65/63
f 62/61/59 56/56/54 51/51/49
f 64/65/63 70/70/67 71/73/70
f 70/70/67 64/65/63 62/61/59
f 71/73/70 74/74/71 76/78/75
f 74/74/71 71/73/70 70/70/67
f 76/78/75 78/79/76 82/83/80
f 78/79/76 76/78/75 74/74/71
f 78/79/76 87/88/84 82/83/80
f 87/88/84 78/79/76 79/80/77
f 87/88/84 80/81/78 88/89/85
f 80/81/78 87/88/84 79/80/77
f 88/89/85 75/76/73 89/90/86
f 75/76/73 88/89/85 80/81/78
f 89/90/86 68/68/66 90/91/87
f 68/68/66 89/90/86 75/76/73
f 90/91/87 29/69/28 91/92/88
f 29/69/28 90/91/87 68/68/66
f 91/93/88 30/30/29 92/94/89
f 30/30/29 91/93/88 29/29/28
f 92/94/89 37/37/36 93/95/90
f 37/37/36 92/94/89 30/30/29
f 93/95/90 42/42/41 94/96/91
f 42/42/41 93/95/90 37/37/36
f 42/42/41 95/97/92 94/96/91
f 95/97/92 42/42/41 41/41/40
f 95/97/92 40/40/39 44/43/42
f 40/40/39 95/97/92 41/41/40
f 44/43/42 36/36/35 38/38/37
f 36/36/35 44/43/42 40/40/39
f 38/38/37 32/32/31 33/33/32
f 32/32/31 38/38/37 36/36/35
f 33/33/32 21/21/21 24/24/24
f 21/21/21 33/33/32 32/32/31
f 24/24/24 5/6/6 9/8/8
f 5/6/6 24/24/24 21/21/21
f 9/8/8 2/3/3 7/7/7
f 2/3/3 9/8/8 5/6/6
f 44/43/42 87/88/84 95/97/92
f 87/88/84 44/43/42 82/83/80
f 95/97/92 88/89/85 94/96/91
f 88/89/85 95/97/92 87/88/84
f 92/94/89 90/91/87 91/92/88
f 92/94/89 89/90/86 90/91/87
f 93/95/90 89/90/86 92/94/89
f 93/95/90 88/89/85 89/90/86
f 94/96/91 88/89/85 93/95/90
