# Wavefront OBJ
# Created by fragMOTION 1.3.7
# http://www.fragmosoft.com

mtllib Bob_Beard_Chin.mtl
# 21 vertices
v 0.0186765 0.79989 -0.06228
v 0.0112255 0.799415 -0.0752679
v 0.00257455 0.794005 -0.0620459
v 0.0172905 0.800732 -0.0724474
v 0.00257451 0.800348 -0.0801656
v 0.0115215 0.782637 -0.0662258
v 0.0115215 0.780692 -0.0735437
v 0.0198785 0.784775 -0.0670944
v 0.00257453 0.779097 -0.0767667
v 0.00257454 0.781781 -0.0659806
v 0.0115216 0.785169 -0.0604213
v 0.0206186 0.787167 -0.0603729
v 0.00257455 0.784382 -0.0613264
v -0.0135275 0.79989 -0.0622799
v -0.00607648 0.799415 -0.0752679
v -0.0121415 0.800732 -0.0724474
v -0.00637246 0.782642 -0.0661912
v -0.0147295 0.784781 -0.0670598
v -0.00637247 0.780692 -0.0735436
v -0.00637245 0.785169 -0.0604213
v -0.0154694 0.787167 -0.0603729
# 43 texture vertices
vt 0.305254 -0.803813
vt 0.19756 -0.796665
vt 0.25712 -0.924646
vt 0.300076 -0.907421
vt 0.19756 -0.95918
vt 0.608332 -0.831025
vt 0.532134 -0.833561
vt 0.608297 -0.925855
vt 0.687299 -0.95633
vt 0.687299 -0.830379
vt 0.102983 -0.40483
vt 0.078222 -0.500962
vt 0.144904 -0.515824
vt 0.21078 -0.448236
vt 0.210781 -0.522558
vt 0.395837 -0.046371
vt 0.395851 -0.231333
vt 0.496831 -0.214781
vt 0.501055 -0.060146
vt 0.631766 -0.164012
vt 0.5693 -0.044212
vt 0.724578 -0.136625
vt 0.730898 -0.047159
vt 0.607284 -0.758627
vt 0.525159 -0.753731
vt 0.687299 -0.767293
vt 0.089867 -0.803812
vt 0.095043 -0.907421
vt 0.138 -0.924646
vt 0.766266 -0.831025
vt 0.766302 -0.925855
vt 0.842464 -0.833561
vt 0.318577 -0.404829
vt 0.276657 -0.515824
vt 0.343339 -0.500961
vt 0.29062 -0.060159
vt 0.29487 -0.214794
vt 0.222372 -0.044233
vt 0.159929 -0.164043
vt 0.060774 -0.047205
vt 0.067115 -0.13667
vt 0.849439 -0.753732
vt 0.767315 -0.758628
# 29 normals
vn 0.62823 0.778025 -0.00225039
vn -9.20618e-008 0.972633 0.232345
vn 0.23913 0.75928 -0.605236
vn 0.512068 0.7158 -0.474781
vn -1.56706e-006 0.690014 -0.723796
vn 0.169662 -0.934283 0.313576
vn 0.802991 -0.564618 -0.190821
vn 0.451928 -0.765626 -0.457796
vn 4.23682e-005 -0.793933 -0.608005
vn 0.000172058 -0.936934 0.349507
vn -0.0374234 0.143068 0.989005
vn -0.0366114 0.142684 0.989091
vn -0.0574004 0.123441 0.99069
vn 1.62116e-006 0.115392 0.99332
vn 1.64806e-006 0.074622 0.997212
vn 0.88281 -0.459574 0.0971481
vn 0.139129 -0.901283 0.410284
vn 1.25923e-006 -0.873022 0.48768
vn -0.628231 0.778024 -0.00224924
vn -0.512229 0.715649 -0.474836
vn -0.239132 0.75928 -0.605236
vn -0.169352 -0.934141 0.314167
vn -0.452421 -0.765298 -0.457858
vn -0.803096 -0.564981 -0.189298
vn 0.0374266 0.143068 0.989005
vn 0.0574036 0.123442 0.99069
vn 0.0366146 0.142684 0.989091
vn -0.882971 -0.459257 0.097188
vn -0.13877 -0.900857 0.41134
usemtl _09_-_Defaultaaa
g Bob_Beard_Chin
s off
f 1/1/1 2/3/3 3/2/2
f 2/3/3 1/1/1 4/4/4
f 2/3/3 5/5/5 3/2/2
f 6/6/6 7/8/8 8/7/7
f 9/9/9 6/6/6 10/10/10
f 6/6/6 9/9/9 7/8/8
f 1/11/11 11/13/13 12/12/12
f 11/13/13 1/11/11 3/14/14
f 3/14/14 13/15/15 11/13/13
f 5/16/5 7/18/8 9/17/9
f 7/18/8 5/16/5 2/19/3
f 7/18/8 4/21/4 8/20/7
f 4/21/4 7/18/8 2/19/3
f 4/21/4 12/22/16 8/20/7
f 12/22/16 4/21/4 1/23/1
f 6/6/6 12/25/16 11/24/17
f 12/25/16 6/6/6 8/7/7
f 10/10/10 11/24/17 13/26/18
f 11/24/17 10/10/10 6/6/6
f 14/27/19 15/29/21 16/28/20
f 15/29/21 14/27/19 3/2/2
f 15/29/21 3/2/2 5/5/5
f 17/30/22 18/32/24 19/31/23
f 9/9/9 17/30/22 19/31/23
f 17/30/22 9/9/9 10/10/10
f 14/33/25 20/34/26 3/14/14
f 20/34/26 14/33/25 21/35/27
f 3/14/14 20/34/26 13/15/15
f 5/16/5 19/37/23 15/36/21
f 19/37/23 5/16/5 9/17/9
f 16/38/20 19/37/23 18/39/24
f 19/37/23 16/38/20 15/36/21
f 16/38/20 21/41/28 14/40/19
f 21/41/28 16/38/20 18/39/24
f 21/42/28 17/30/22 20/43/29
f 17/30/22 21/42/28 18/32/24
f 20/43/29 10/10/10 13/26/18
f 10/10/10 20/43/29 17/30/22
