<svg xmlns="http://www.w3.org/2000/svg" id="canvas" viewBox="194.411 89.106 455.947 158.163"><path d="M 221.28,129.23 C 221.52 131.13, 222.14 133.73, 223.03 138.60 C 223.93 143.47, 224.67 146.81, 225.77 153.57 C 226.87 160.32, 227.54 164.79, 228.53 172.36 C 229.52 179.93, 229.92 184.04, 230.72 191.39 C 231.51 198.75, 231.78 202.57, 232.50 209.13 C 233.21 215.70, 233.65 218.90, 234.30 224.20 C 234.94 229.50, 235.20 231.98, 235.72 235.64 C 236.24 239.29, 236.63 240.87, 236.92 242.48 C 237.20 244.10, 237.55 244.52, 237.13 243.72 C 236.71 242.91, 236.28 241.75, 234.81 238.45 C 233.34 235.15, 232.18 232.70, 229.77 227.21 C 227.36 221.72, 225.75 218.16, 222.75 211.01 C 219.75 203.85, 217.85 199.51, 214.76 191.44 C 211.68 183.37, 209.98 178.94, 207.31 170.66 C 204.64 162.38, 203.22 158.00, 201.41 150.03 C 199.60 142.06, 198.80 137.91, 198.27 130.81 C 197.75 123.71, 197.78 120.20, 198.79 114.52 C 199.80 108.84, 200.81 106.32, 203.34 102.42 C 205.87 98.52, 207.52 96.93, 211.45 95.01 C 215.39 93.09, 217.88 92.71, 223.02 92.82 C 228.16 92.93, 231.44 93.76, 237.15 95.57 C 242.87 97.38, 246.27 98.88, 251.60 101.86 C 256.92 104.84, 259.72 106.74, 263.77 110.45 C 267.82 114.16, 269.67 116.38, 271.86 120.40 C 274.04 124.41, 274.62 126.55, 274.70 130.52 C 274.77 134.49, 274.11 136.54, 272.24 140.24 C 270.36 143.93, 268.68 145.89, 265.30 149.00 C 261.93 152.10, 259.53 153.55, 255.36 155.77 C 251.19 157.99, 248.53 158.75, 244.47 160.09 C 240.42 161.44, 238.15 161.77, 235.09 162.50 C 232.04 163.23, 230.88 163.38, 229.20 163.74 C 227.53 164.10, 227.20 164.13, 226.71 164.29 C 226.22 164.46, 226.22 164.53, 226.74 164.57 C 227.27 164.60, 227.61 164.69, 229.33 164.48 C 231.05 164.28, 232.25 164.26, 235.34 163.56 C 238.43 162.85, 240.68 162.36, 244.76 160.95 C 248.85 159.54, 251.54 158.78, 255.75 156.51 C 259.97 154.24, 262.42 152.78, 265.86 149.60 C 269.30 146.42, 271.03 144.42, 272.95 140.60 C 274.87 136.78, 275.55 134.61, 275.46 130.50 C 275.37 126.39, 274.73 124.16, 272.48 120.05 C 270.24 115.95, 268.33 113.71, 264.22 109.96 C 260.11 106.21, 257.29 104.29, 251.92 101.29 C 246.54 98.28, 243.13 96.76, 237.36 94.93 C 231.58 93.10, 228.27 92.23, 223.03 92.12 C 217.79 92.02, 215.19 92.41, 211.15 94.40 C 207.10 96.39, 205.38 98.07, 202.80 102.07 C 200.22 106.08, 199.24 108.67, 198.23 114.42 C 197.23 120.18, 197.23 123.70, 197.78 130.85 C 198.32 137.99, 199.14 142.14, 200.96 150.13 C 202.79 158.12, 204.21 162.51, 206.88 170.80 C 209.55 179.10, 211.24 183.52, 214.31 191.61 C 217.38 199.70, 219.27 204.05, 222.21 211.23 C 225.16 218.41, 226.71 221.99, 229.04 227.52 C 231.37 233.05, 232.31 235.60, 233.86 238.89 C 235.41 242.18, 236.06 243.26, 236.81 243.97 C 237.55 244.68, 237.63 244.11, 237.58 242.42 C 237.54 240.73, 237.11 239.17, 236.58 235.51 C 236.05 231.85, 235.65 229.41, 234.95 224.12 C 234.24 218.83, 233.79 215.63, 233.05 209.07 C 232.31 202.52, 232.04 198.69, 231.25 191.34 C 230.46 183.98, 230.07 179.86, 229.10 172.29 C 228.13 164.71, 227.47 160.23, 226.40 153.46 C 225.32 146.70, 224.63 143.34, 223.71 138.47 C 222.80 133.61, 222.30 130.98, 221.82 129.13 C 221.33 127.28, 221.03 127.34, 221.28 129.23" style="stroke: black; fill: black;"/><path d="M 279.09,177.21 C 278.97 178.20, 278.89 179.75, 279.07 182.11 C 279.25 184.46, 279.51 186.07, 279.99 188.99 C 280.47 191.91, 280.68 193.93, 281.46 196.69 C 282.24 199.45, 283.29 201.61, 283.89 202.80 C 284.50 203.98, 284.68 203.90, 284.47 202.61 C 284.26 201.32, 283.43 199.12, 282.83 196.35 C 282.23 193.57, 281.96 191.62, 281.46 188.74 C 280.96 185.87, 280.69 184.27, 280.33 181.96 C 279.97 179.65, 279.91 178.12, 279.67 177.17 C 279.42 176.22, 279.21 176.23, 279.09 177.21" style="stroke: black; fill: black;"/><path d="M 271.82,130.77 C 271.91 130.57, 271.90 130.38, 271.79 130.21 C 271.69 130.03, 271.52 129.89, 271.29 129.89 C 271.06 129.89, 270.78 130.00, 270.66 130.21 C 270.54 130.42, 270.54 130.74, 270.68 130.93 C 270.81 131.12, 271.10 131.21, 271.33 131.17 C 271.56 131.14, 271.72 130.96, 271.82 130.77" style="stroke: black; fill: black;"/><path d="M 319.89,117.43 C 319.90 118.70, 319.93 120.24, 320.46 123.73 C 320.98 127.22, 321.49 129.60, 322.52 134.89 C 323.55 140.18, 324.13 143.81, 325.59 150.18 C 327.06 156.56, 328.16 160.27, 329.84 166.77 C 331.52 173.26, 332.36 176.69, 333.99 182.65 C 335.61 188.61, 336.58 191.67, 337.98 196.57 C 339.39 201.46, 340.03 203.75, 341.00 207.12 C 341.96 210.49, 342.25 211.59, 342.81 213.41 C 343.36 215.23, 343.54 215.67, 343.79 216.22 C 344.04 216.76, 344.12 216.74, 344.06 216.14 C 344.00 215.54, 343.94 215.07, 343.50 213.22 C 343.06 211.37, 342.83 210.24, 341.86 206.87 C 340.89 203.50, 340.11 201.25, 338.66 196.37 C 337.20 191.49, 336.23 188.44, 334.58 182.49 C 332.94 176.53, 332.10 173.11, 330.43 166.62 C 328.77 160.12, 327.69 156.40, 326.27 150.03 C 324.84 143.65, 324.30 140.03, 323.32 134.74 C 322.34 129.45, 321.96 127.06, 321.38 123.58 C 320.80 120.11, 320.70 118.60, 320.41 117.37 C 320.11 116.14, 319.88 116.16, 319.89 117.43" style="stroke: black; fill: black;"/><path d="M 331.78,178.18 C 332.98 177.68, 334.46 176.70, 337.50 175.21 C 340.54 173.72, 342.67 172.70, 346.98 170.75 C 351.29 168.79, 354.20 167.58, 359.06 165.42 C 363.92 163.27, 366.70 162.18, 371.27 159.98 C 375.83 157.77, 378.19 156.60, 381.89 154.38 C 385.59 152.16, 387.35 151.00, 389.76 148.87 C 392.17 146.73, 392.87 145.62, 393.92 143.71 C 394.98 141.81, 394.89 140.24, 395.04 139.34 C 395.18 138.44, 395.00 138.43, 394.63 139.21 C 394.26 140.00, 394.28 141.49, 393.18 143.27 C 392.07 145.05, 391.44 146.04, 389.09 148.11 C 386.75 150.19, 385.09 151.42, 381.45 153.66 C 377.82 155.89, 375.47 157.07, 370.92 159.27 C 366.38 161.47, 363.59 162.54, 358.72 164.66 C 353.86 166.79, 350.94 167.98, 346.60 169.90 C 342.27 171.83, 340.06 172.75, 337.04 174.31 C 334.03 175.87, 332.57 176.93, 331.51 177.71 C 330.46 178.48, 330.58 178.68, 331.78 178.18" style="stroke: black; fill: black;"/><path d="M 362.04,117.38 C 361.83 117.94, 361.42 118.28, 361.46 120.21 C 361.50 122.15, 361.54 123.56, 362.25 127.05 C 362.96 130.54, 363.51 132.84, 364.99 137.66 C 366.47 142.49, 367.50 145.54, 369.66 151.18 C 371.83 156.83, 373.26 160.13, 375.82 165.89 C 378.38 171.66, 379.81 174.78, 382.47 180.00 C 385.12 185.22, 386.49 187.75, 389.08 191.99 C 391.67 196.23, 393.08 198.20, 395.43 201.19 C 397.79 204.18, 398.89 205.45, 400.84 206.92 C 402.80 208.39, 403.78 208.73, 405.21 208.52 C 406.64 208.31, 407.30 207.64, 407.99 205.87 C 408.67 204.10, 408.74 202.53, 408.64 199.66 C 408.54 196.78, 408.08 194.84, 407.48 191.50 C 406.87 188.16, 406.34 186.13, 405.64 182.96 C 404.93 179.79, 404.53 178.26, 403.93 175.65 C 403.34 173.04, 402.91 171.86, 402.67 169.89 C 402.43 167.92, 402.47 167.23, 402.74 165.79 C 403.02 164.36, 403.20 163.69, 404.04 162.74 C 404.87 161.79, 405.56 161.42, 406.93 161.05 C 408.29 160.68, 409.11 160.55, 410.87 160.88 C 412.62 161.20, 413.81 161.47, 415.72 162.68 C 417.64 163.88, 418.61 164.91, 420.45 166.91 C 422.28 168.90, 423.26 170.19, 424.88 172.64 C 426.50 175.09, 427.21 176.58, 428.55 179.16 C 429.88 181.74, 430.45 183.35, 431.56 185.54 C 432.68 187.73, 433.08 188.86, 434.11 190.10 C 435.15 191.34, 435.67 191.71, 436.76 191.75 C 437.85 191.79, 438.47 191.43, 439.55 190.30 C 440.63 189.17, 441.07 188.05, 442.16 186.10 C 443.25 184.16, 443.86 182.67, 445.01 180.56 C 446.15 178.46, 446.79 177.26, 447.89 175.59 C 448.99 173.92, 449.39 173.11, 450.49 172.22 C 451.59 171.34, 452.14 171.02, 453.39 171.16 C 454.64 171.30, 455.28 171.78, 456.73 172.92 C 458.19 174.06, 458.99 175.10, 460.66 176.86 C 462.33 178.62, 463.31 179.74, 465.08 181.72 C 466.85 183.71, 467.78 184.96, 469.51 186.79 C 471.23 188.61, 472.13 189.63, 473.71 190.86 C 475.28 192.09, 475.95 192.53, 477.39 192.93 C 478.84 193.34, 479.59 193.39, 480.94 192.88 C 482.30 192.38, 482.98 191.85, 484.17 190.41 C 485.36 188.98, 485.83 187.67, 486.88 185.70 C 487.92 183.72, 488.43 182.36, 489.39 180.55 C 490.35 178.74, 490.69 177.55, 491.67 176.64 C 492.65 175.74, 492.92 175.61, 494.29 176.03 C 495.66 176.45, 496.42 177.26, 498.52 178.77 C 500.63 180.27, 502.09 181.53, 504.84 183.57 C 507.58 185.62, 509.20 187.06, 512.23 189.00 C 515.26 190.93, 516.88 191.95, 519.99 193.26 C 523.10 194.57, 524.72 195.05, 527.79 195.55 C 530.86 196.05, 532.48 196.08, 535.34 195.76 C 538.20 195.44, 539.70 195.06, 542.11 193.94 C 544.52 192.83, 545.62 191.93, 547.38 190.18 C 549.15 188.42, 549.90 187.27, 550.95 185.19 C 551.99 183.11, 552.38 181.82, 552.60 179.79 C 552.83 177.75, 552.69 176.71, 552.06 175.01 C 551.43 173.31, 550.71 172.42, 549.44 171.29 C 548.16 170.17, 547.33 169.73, 545.70 169.39 C 544.07 169.06, 542.92 169.04, 541.29 169.63 C 539.66 170.22, 538.79 170.82, 537.55 172.34 C 536.30 173.86, 535.62 174.97, 535.05 177.23 C 534.47 179.48, 534.33 180.97, 534.66 183.62 C 535.00 186.26, 535.44 187.88, 536.73 190.43 C 538.02 192.98, 539.03 194.39, 541.10 196.36 C 543.18 198.34, 544.58 199.17, 547.10 200.30 C 549.63 201.43, 551.21 201.79, 553.74 202.00 C 556.28 202.21, 557.58 202.03, 559.78 201.36 C 561.98 200.70, 562.97 199.98, 564.74 198.67 C 566.51 197.36, 567.45 196.48, 568.61 194.80 C 569.77 193.12, 570.09 191.96, 570.56 190.27 C 571.02 188.57, 570.94 187.39, 570.95 186.33 C 570.96 185.28, 570.72 185.01, 570.60 184.98 C 570.49 184.95, 570.19 185.21, 570.36 186.17 C 570.53 187.14, 570.64 188.19, 571.47 189.82 C 572.30 191.46, 573.05 192.69, 574.50 194.34 C 575.95 196.00, 576.79 196.84, 578.71 198.10 C 580.63 199.36, 581.97 199.82, 584.10 200.65 C 586.23 201.47, 587.32 201.86, 589.36 202.23 C 591.41 202.60, 592.50 202.66, 594.33 202.48 C 596.17 202.29, 597.05 202.04, 598.55 201.31 C 600.05 200.58, 600.64 199.90, 601.83 198.84 C 603.02 197.79, 603.51 196.90, 604.49 196.03 C 605.47 195.16, 605.75 194.67, 606.75 194.50 C 607.76 194.33, 608.17 194.53, 609.53 195.19 C 610.88 195.85, 611.72 196.60, 613.51 197.81 C 615.31 199.01, 616.40 199.96, 618.52 201.21 C 620.64 202.46, 621.90 203.16, 624.10 204.07 C 626.31 204.97, 627.50 205.27, 629.54 205.74 C 631.59 206.21, 632.56 206.27, 634.34 206.41 C 636.12 206.55, 636.96 206.51, 638.43 206.44 C 639.91 206.37, 640.43 206.26, 641.72 206.07 C 643.00 205.88, 643.78 205.85, 644.86 205.51 C 645.94 205.16, 646.69 204.69, 647.10 204.36 C 647.51 204.03, 647.42 203.84, 646.91 203.85 C 646.41 203.86, 645.65 204.20, 644.58 204.40 C 643.50 204.61, 642.78 204.71, 641.54 204.89 C 640.31 205.07, 639.80 205.23, 638.38 205.29 C 636.96 205.36, 636.15 205.37, 634.44 205.21 C 632.73 205.05, 631.80 204.99, 629.84 204.50 C 627.88 204.01, 626.76 203.70, 624.65 202.77 C 622.55 201.85, 621.38 201.13, 619.32 199.88 C 617.26 198.63, 616.21 197.68, 614.35 196.51 C 612.49 195.35, 611.57 194.65, 610.02 194.05 C 608.47 193.45, 607.85 193.31, 606.59 193.51 C 605.33 193.72, 604.83 194.20, 603.70 195.08 C 602.58 195.95, 602.10 196.84, 600.96 197.88 C 599.83 198.91, 599.38 199.57, 598.03 200.25 C 596.68 200.93, 595.91 201.13, 594.22 201.28 C 592.54 201.42, 591.53 201.34, 589.60 200.96 C 587.68 200.57, 586.63 200.18, 584.61 199.37 C 582.59 198.56, 581.28 198.13, 579.51 196.91 C 577.74 195.69, 577.06 194.86, 575.75 193.28 C 574.45 191.69, 573.88 190.48, 573.00 188.99 C 572.11 187.49, 571.82 186.64, 571.32 185.82 C 570.83 185.00, 570.83 184.81, 570.54 184.89 C 570.26 184.96, 570.17 185.20, 569.91 186.20 C 569.65 187.20, 569.72 188.32, 569.25 189.89 C 568.78 191.47, 568.60 192.52, 567.55 194.08 C 566.50 195.63, 565.62 196.44, 563.99 197.67 C 562.37 198.90, 561.46 199.60, 559.43 200.21 C 557.40 200.82, 556.21 200.96, 553.86 200.74 C 551.50 200.52, 550.01 200.17, 547.65 199.10 C 545.28 198.03, 543.97 197.25, 542.04 195.39 C 540.10 193.53, 539.18 192.19, 537.98 189.80 C 536.79 187.41, 536.40 185.88, 536.07 183.43 C 535.75 180.98, 535.89 179.61, 536.38 177.56 C 536.88 175.50, 537.48 174.50, 538.55 173.14 C 539.61 171.79, 540.33 171.28, 541.71 170.77 C 543.09 170.26, 544.07 170.29, 545.46 170.57 C 546.85 170.85, 547.56 171.20, 548.66 172.17 C 549.77 173.14, 550.42 173.92, 550.97 175.41 C 551.52 176.91, 551.63 177.80, 551.40 179.64 C 551.17 181.48, 550.79 182.68, 549.81 184.61 C 548.83 186.54, 548.15 187.65, 546.51 189.29 C 544.86 190.94, 543.85 191.78, 541.59 192.83 C 539.33 193.88, 537.92 194.22, 535.20 194.53 C 532.48 194.85, 530.93 194.87, 527.98 194.41 C 525.02 193.95, 523.44 193.51, 520.42 192.23 C 517.40 190.95, 515.83 189.95, 512.87 188.01 C 509.92 186.06, 508.36 184.59, 505.65 182.50 C 502.94 180.42, 501.56 179.06, 499.34 177.58 C 497.11 176.10, 496.18 175.44, 494.52 175.10 C 492.86 174.76, 492.33 174.93, 491.04 175.87 C 489.75 176.81, 489.19 177.98, 488.07 179.79 C 486.96 181.61, 486.45 183.00, 485.46 184.96 C 484.46 186.92, 484.09 188.21, 483.11 189.61 C 482.14 191.01, 481.66 191.50, 480.58 191.97 C 479.49 192.45, 478.90 192.41, 477.68 192.00 C 476.46 191.59, 475.90 191.16, 474.48 189.92 C 473.05 188.68, 472.20 187.66, 470.55 185.82 C 468.90 183.98, 467.98 182.72, 466.22 180.72 C 464.46 178.71, 463.50 177.57, 461.75 175.80 C 460.01 174.03, 459.16 172.99, 457.50 171.87 C 455.85 170.74, 455.00 170.28, 453.47 170.18 C 451.95 170.09, 451.21 170.46, 449.87 171.39 C 448.53 172.31, 448.04 173.14, 446.78 174.81 C 445.52 176.48, 444.78 177.65, 443.57 179.76 C 442.36 181.87, 441.70 183.38, 440.72 185.35 C 439.75 187.31, 439.48 188.45, 438.69 189.59 C 437.90 190.74, 437.53 191.10, 436.78 191.08 C 436.03 191.06, 435.72 190.73, 434.92 189.50 C 434.11 188.27, 433.80 187.15, 432.77 184.95 C 431.74 182.76, 431.11 181.14, 429.76 178.53 C 428.41 175.92, 427.66 174.42, 426.02 171.89 C 424.37 169.37, 423.43 168.00, 421.52 165.92 C 419.61 163.83, 418.56 162.74, 416.47 161.47 C 414.38 160.20, 413.06 159.88, 411.09 159.57 C 409.11 159.26, 408.16 159.41, 406.59 159.91 C 405.02 160.41, 404.21 160.92, 403.24 162.06 C 402.28 163.19, 402.09 164.00, 401.75 165.59 C 401.41 167.18, 401.38 167.94, 401.56 170.01 C 401.75 172.07, 402.12 173.28, 402.68 175.93 C 403.25 178.57, 403.71 180.07, 404.40 183.23 C 405.09 186.39, 405.58 188.43, 406.13 191.73 C 406.68 195.03, 406.96 196.97, 407.14 199.73 C 407.33 202.50, 407.45 203.94, 407.05 205.57 C 406.64 207.20, 406.25 207.77, 405.13 207.88 C 404.01 208.00, 403.24 207.60, 401.44 206.16 C 399.63 204.71, 398.47 203.55, 396.12 200.64 C 393.77 197.74, 392.31 195.80, 389.69 191.61 C 387.08 187.43, 385.70 184.90, 383.05 179.71 C 380.39 174.51, 378.96 171.38, 376.42 165.63 C 373.88 159.87, 372.45 156.57, 370.34 150.93 C 368.23 145.28, 367.24 142.23, 365.86 137.41 C 364.48 132.58, 364.12 130.26, 363.45 126.81 C 362.79 123.36, 362.73 122.02, 362.54 120.15 C 362.34 118.27, 362.58 117.97, 362.48 117.42 C 362.38 116.87, 362.24 116.82, 362.04 117.38" style="stroke: black; fill: black;"/></svg>