# Wavefront OBJ
# Created by fragMOTION 1.3.7
# http://www.fragmosoft.com

mtllib Bob_SuitJacket.mtl
# 185 vertices
v 0.0740375 0.771787 -0.0307713
v 0.0436131 0.761667 -0.045074
v 0.0487328 0.790925 -0.0219897
v 0.0854755 0.751043 -0.0344173
v 0.092281 0.735463 -0.0391615
v 0.0664266 0.698078 -0.0624591
v 0.0512526 0.73251 -0.0565465
v 0.0940966 0.707501 -0.0265532
v 0.042956 0.817635 0.0359515
v 0.0865943 0.790422 0.0587264
v 0.0742516 0.805539 0.0197746
v 0.0542611 0.796116 0.065208
v 0.118778 0.555843 0.0585317
v 0.0731809 0.570868 0.0939197
v 0.0739399 0.559196 0.0956747
v 0.1175 0.566258 0.0568246
v 0.116721 0.556873 -0.0230627
v 0.118838 0.527167 -0.00989505
v 0.0718475 0.548566 -0.0593195
v 0.0984759 0.504435 -0.0303307
v 0.0600673 0.49682 -0.0496333
v 0.00792276 0.574082 0.0954166
v 0.00746772 0.561342 0.0982728
v 0.0717107 0.662373 0.0888622
v 0.00398564 0.69846 0.0900699
v 0.00468709 0.662357 0.0913638
v 0.0734585 0.69994 0.0879045
v 0.123979 0.456722 0.00776229
v 0.120244 0.503083 0.000912695
v 0.0879081 0.458495 -0.0337248
v 0.00582997 0.496776 -0.0571405
v 0.055549 0.462812 -0.0520216
v 0.0298924 0.462618 -0.0573625
v 0.120593 0.507733 0.0676257
v 0.0691453 0.514694 0.105578
v 0.123452 0.465364 0.0753128
v 0.0701969 0.474575 0.115445
v 0.0732771 0.614557 0.0896857
v 0.100089 0.658185 0.0648262
v 0.114279 0.662977 0.0403817
v 0.112763 0.612444 -0.0217082
v 0.10816 0.665814 -0.0204331
v 0.112856 0.614635 0.0577516
v 0.0691483 0.663123 -0.0620061
v 0.0749161 0.607237 -0.0621786
v 0.142087 0.726758 -0.023173
v 0.153308 0.680853 -0.00357574
v 0.0749838 0.726181 -0.0210398
v 0.0937934 0.621812 0.0114961
v 0.0846104 0.668759 -0.00344716
v 0.16082 0.634232 0.0115723
v 0.0772257 0.737002 0.047017
v 0.0806885 0.691298 0.0671056
v 0.0905328 0.636726 0.0844244
v 0.0829841 0.739345 0.0565675
v 0.149682 0.702883 0.0694302
v 0.137939 0.75205 0.0494809
v 0.157213 0.64895 0.0845868
v 0.149166 0.751085 0.00732045
v 0.16202 0.613819 0.0101809
v 0.109998 0.541114 0.0073606
v 0.0978958 0.600188 0.0106735
v 0.16634 0.556093 0.00652368
v 0.11583 0.501651 0.00104183
v 0.168166 0.507816 0.000532993
v 0.111533 0.53825 0.0716171
v 0.0979147 0.599555 0.0816984
v 0.122499 0.495283 0.0656239
v 0.166635 0.554148 0.0707082
v 0.16162 0.613181 0.081336
v 0.16948 0.501974 0.0634968
v 0.105234 0.795866 0.0241382
v 0.111752 0.797013 -0.00800387
v 0.0748056 0.803897 -0.00791951
v 0.092599 0.711123 0.0641626
v 0.0568047 0.806981 -0.00526892
v 0.113308 0.773618 -0.0305037
v 0.107459 0.744931 -0.0313602
v 0.102168 0.750157 0.06057
v 0.0641214 0.742671 0.0827698
v 0.105035 0.753012 0.057621
v 0.00340003 0.734748 0.0863399
v 0.00348719 0.792363 0.0663874
v 0.0981093 0.72812 -0.00269855
v 0.107938 0.740576 0.0455404
v 0.10982 0.699911 0.028936
v 0.100602 0.698602 -0.00772235
v 0.102573 0.708081 0.0449365
v 0.00956903 0.54847 -0.0673004
v 0.00571436 0.518419 0.108648
v 0.0035368 0.478185 0.119056
v 0.00777806 0.615105 0.0910194
v 0.00389115 0.818356 0.0425762
v 0.110717 0.727996 0.0167354
v 0.00965632 0.603227 -0.0717386
v -0.0610303 0.771868 -0.0346962
v -0.0295909 0.761043 -0.0471609
v -0.0723838 0.75073 -0.0389934
v -0.0367509 0.790451 -0.0244092
v -0.0795676 0.736758 -0.0420729
v -0.050122 0.697067 -0.0653143
v -0.0802089 0.708322 -0.028292
v -0.03564 0.731646 -0.0588831
v -0.0331837 0.816806 0.0342794
v -0.078838 0.78951 0.0542821
v -0.0461418 0.795179 0.0628637
v -0.06419 0.805526 0.0157147
v -0.102267 0.563797 0.0544336
v -0.0576646 0.575471 0.0915324
v -0.100472 0.573626 0.0528217
v -0.05889 0.564345 0.0932184
v -0.0983047 0.563874 -0.0270045
v -0.103158 0.536953 -0.0141556
v -0.0530102 0.553094 -0.0624172
v -0.0828028 0.512772 -0.0345407
v -0.0448414 0.501287 -0.0542643
v -0.0607534 0.661888 0.0861138
v -0.0640954 0.698786 0.0845388
v -0.113469 0.465279 0.00402561
v -0.075831 0.462143 -0.0384682
v -0.105624 0.513523 -0.00333291
v -0.043058 0.465156 -0.0553771
v -0.011054 0.462866 -0.0579799
v -0.108123 0.518021 0.0633076
v -0.0576247 0.520613 0.103177
v -0.115292 0.476907 0.070724
v -0.0629751 0.481013 0.112886
v -0.0594053 0.61626 0.087241
v -0.0890195 0.65687 0.0607285
v -0.102362 0.661294 0.0354505
v -0.0962216 0.613953 -0.025553
v -0.0990624 0.616105 0.05362
v -0.093492 0.664455 -0.0249431
v -0.052957 0.662194 -0.0647622
v -0.0567311 0.608623 -0.0646323
v -0.130226 0.728661 -0.030517
v -0.0632408 0.727764 -0.0260506
v -0.142328 0.682715 -0.0115518
v -0.0843314 0.619101 0.00587519
v -0.151133 0.632438 0.00334885
v -0.0737308 0.670302 -0.00909079
v -0.0679175 0.738405 0.0412884
v -0.0721697 0.692482 0.0616674
v -0.0822375 0.640974 0.0770672
v -0.0738823 0.740589 0.0512956
v -0.140881 0.70485 0.0600716
v -0.12816 0.75326 0.0410802
v -0.148693 0.654146 0.074645
v -0.136502 0.75143 -0.0047552
v -0.153446 0.608791 0.00650998
v -0.103419 0.534823 0.0176351
v -0.159306 0.55145 0.0139671
v -0.0897118 0.593876 0.0101819
v -0.110498 0.494902 0.0195963
v -0.162505 0.502595 0.0177534
v -0.105073 0.545572 0.0808166
v -0.090014 0.606735 0.0798183
v -0.113126 0.502414 0.0830689
v -0.159845 0.562113 0.0772183
v -0.153341 0.621624 0.0763236
v -0.163902 0.510315 0.0799447
v -0.0950321 0.797317 0.0184242
v -0.0991052 0.798643 -0.0142466
v -0.0630008 0.80339 -0.0124334
v -0.082982 0.711633 0.0623158
v -0.0445799 0.806265 -0.00833914
v -0.0995423 0.773979 -0.037054
v -0.0948284 0.746898 -0.0369208
v -0.093872 0.748773 0.0550659
v -0.0966435 0.751634 0.0517244
v -0.0565417 0.741993 0.0806048
v -0.0866075 0.728787 -0.00731954
v -0.0987349 0.739731 0.0392634
v -0.0980414 0.698241 0.0238562
v -0.0871718 0.697807 -0.0113386
v -0.0919496 0.708202 0.0416962
v -0.0995512 0.726722 0.0110344
v -0.0258739 0.731646 -0.0599263
v -0.0216494 0.696618 -0.0682725
v -0.0152043 0.662301 -0.0671056
v 0.0285454 0.662556 -0.0665173
v 0.0365099 0.697089 -0.0670762
v 0.0407221 0.732355 -0.0581258
v 0.00350735 0.675889 0.0155743
v 0.00594151 0.717474 0.00813339
# 258 texture vertices
vt 0.603976 -0.300641
vt 0.550011 -0.29437
vt 0.538841 -0.315921
vt 0.607193 -0.314765
vt 0.608283 -0.342578
vt 0.542711 -0.346526
vt 0.557451 -0.390365
vt 0.608608 -0.391447
vt 0.750859 -0.249722
vt 0.696757 -0.25344
vt 0.688343 -0.293897
vt 0.740677 -0.292788
vt 0.651109 -0.552165
vt 0.7248 -0.550974
vt 0.728436 -0.537906
vt 0.649656 -0.540055
vt 0.588959 -0.535285
vt 0.610803 -0.559466
vt 0.552321 -0.532607
vt 0.541585 -0.574601
vt 0.583934 -0.571866
vt 0.793195 -0.551142
vt 0.793156 -0.534979
vt 0.728835 -0.43809
vt 0.793294 -0.436914
vt 0.793282 -0.385879
vt 0.72556 -0.386788
vt 0.618352 -0.616085
vt 0.614767 -0.579525
vt 0.584019 -0.617093
vt 0.49873 -0.578372
vt 0.519486 -0.617664
vt 0.553435 -0.61683
vt 0.665931 -0.586443
vt 0.726025 -0.586756
vt 0.663903 -0.617605
vt 0.722367 -0.617625
vt 0.733509 -0.488359
vt 0.670489 -0.444306
vt 0.649289 -0.436868
vt 0.602283 -0.430907
vt 0.591101 -0.48314
vt 0.659298 -0.486407
vt 0.559996 -0.422737
vt 0.559125 -0.483736
vt 0.863018 -0.111448
vt 0.843231 -0.111031
vt 0.866992 -0.170158
vt 0.841544 -0.177954
vt 0.840054 -0.255626
vt 0.864722 -0.244611
vt 0.925167 -0.112164
vt 0.927103 -0.159317
vt 0.954276 -0.147803
vt 0.926952 -0.226383
vt 0.951203 -0.233573
vt 0.911584 -0.121577
vt 0.898366 -0.114734
vt 0.891289 -0.161207
vt 0.892527 -0.233701
vt 0.88606 -0.115809
vt 0.864821 -0.288259
vt 0.844277 -0.292554
vt 0.844823 -0.394577
vt 0.868096 -0.391231
vt 0.842126 -0.461269
vt 0.865017 -0.453491
vt 0.949963 -0.277245
vt 0.92342 -0.27387
vt 0.919228 -0.366704
vt 0.954366 -0.380658
vt 0.907296 -0.449837
vt 0.957326 -0.455426
vt 0.8935 -0.278527
vt 0.887762 -0.380999
vt 0.883541 -0.446836
vt 0.897534 -0.059442
vt 0.886667 -0.065151
vt 0.898768 -0.024866
vt 0.885021 -0.026206
vt 0.697215 -0.38226
vt 0.716392 -0.226034
vt 0.86566 -0.066431
vt 0.867962 -0.024353
vt 0.856743 -0.024579
vt 0.854629 -0.084885
vt 0.701421 -0.329308
vt 0.731351 -0.332606
vt 0.691444 -0.309285
vt 0.793018 -0.339783
vt 0.791925 -0.293085
vt 0.911347 -0.062147
vt 0.9103 -0.084289
vt 0.944613 -0.060521
vt 0.925453 -0.087506
vt 0.953871 -0.104738
vt 0.649141 -0.383871
vt 0.621279 -0.39515
vt 0.954533 -0.024741
vt 0.661934 -0.377661
vt 0.684231 -0.23011
vt 0.500002 -0.531435
vt 0.793225 -0.584566
vt 0.793357 -0.617487
vt 0.793221 -0.489409
vt 0.582294 -0.263468
vt 0.590677 -0.2735
vt 0.671566 -0.328949
vt 0.792377 -0.26123
vt 0.64583 -0.350939
vt 0.626532 -0.351996
vt 0.847271 -0.030936
vt 0.499982 -0.486038
vt 0.935896 -0.064764
vt 0.396024 -0.300641
vt 0.392807 -0.314765
vt 0.461512 -0.317358
vt 0.454585 -0.296499
vt 0.391571 -0.342676
vt 0.391397 -0.39134
vt 0.442461 -0.390326
vt 0.457296 -0.346424
vt 0.250748 -0.247995
vt 0.259757 -0.292713
vt 0.312054 -0.293883
vt 0.302521 -0.253202
vt 0.348973 -0.550831
vt 0.351226 -0.537874
vt 0.273761 -0.536797
vt 0.274709 -0.550963
vt 0.412527 -0.534559
vt 0.38855 -0.558914
vt 0.447658 -0.532502
vt 0.415928 -0.571829
vt 0.458575 -0.574476
vt 0.206817 -0.534981
vt 0.206775 -0.551143
vt 0.270975 -0.437539
vt 0.274481 -0.386854
vt 0.206717 -0.385882
vt 0.206713 -0.436914
vt 0.381527 -0.616366
vt 0.416191 -0.617119
vt 0.385178 -0.579676
vt 0.499422 -0.577875
vt 0.442836 -0.616897
vt 0.488679 -0.617541
vt 0.273928 -0.586959
vt 0.333543 -0.587678
vt 0.277603 -0.61746
vt 0.336081 -0.617534
vt 0.265649 -0.488838
vt 0.329347 -0.44372
vt 0.350728 -0.43725
vt 0.340353 -0.486598
vt 0.408614 -0.483244
vt 0.39775 -0.430885
vt 0.440913 -0.484061
vt 0.439967 -0.422832
vt 0.137031 -0.111595
vt 0.132987 -0.170182
vt 0.156769 -0.111031
vt 0.135322 -0.244335
vt 0.159611 -0.254487
vt 0.158456 -0.177954
vt 0.074848 -0.112395
vt 0.045724 -0.147803
vt 0.072897 -0.159317
vt 0.048513 -0.234896
vt 0.073316 -0.226553
vt 0.087796 -0.119956
vt 0.10874 -0.161153
vt 0.101828 -0.113824
vt 0.107536 -0.233471
vt 0.113674 -0.116057
vt 0.135179 -0.288259
vt 0.131789 -0.39159
vt 0.155184 -0.394236
vt 0.155723 -0.292554
vt 0.134591 -0.452981
vt 0.158374 -0.456918
vt 0.050037 -0.277245
vt 0.045408 -0.380657
vt 0.081068 -0.368201
vt 0.07658 -0.27387
vt 0.042782 -0.456172
vt 0.090633 -0.45142
vt 0.112443 -0.380798
vt 0.1065 -0.278527
vt 0.116727 -0.447448
vt 0.102466 -0.059442
vt 0.113333 -0.065151
vt 0.114996 -0.025988
vt 0.101554 -0.023231
vt 0.302885 -0.382418
vt 0.281838 -0.227325
vt 0.13434 -0.066431
vt 0.145371 -0.084885
vt 0.143257 -0.024579
vt 0.132038 -0.024353
vt 0.298579 -0.329308
vt 0.308619 -0.30986
vt 0.26859 -0.332541
vt 0.207002 -0.339777
vt 0.207282 -0.293456
vt 0.08878 -0.062478
vt 0.089544 -0.085196
vt 0.054149 -0.061816
vt 0.046129 -0.104738
vt 0.074013 -0.086011
vt 0.378562 -0.395135
vt 0.350983 -0.383802
vt 0.048141 -0.028587
vt 0.338091 -0.377617
vt 0.315186 -0.230839
vt 0.206783 -0.584566
vt 0.206643 -0.617485
vt 0.206784 -0.489408
vt 0.419062 -0.261541
vt 0.416764 -0.272721
vt 0.32945 -0.330317
vt 0.20644 -0.254642
vt 0.35358 -0.34929
vt 0.373511 -0.35206
vt 0.155548 -0.031216
vt 0.068713 -0.06737
vt 0.466189 -0.34692
vt 0.46986 -0.390713
vt 0.476582 -0.422595
vt 0.520381 -0.422668
vt 0.528394 -0.390488
vt 0.533302 -0.346866
vt 0.417969 -0.617188
vt 0.378906 -0.617188
vt 0.335938 -0.617188
vt 0.277344 -0.617188
vt 0.453125 -0.617188
vt 0.207031 -0.617188
vt 0.488281 -0.617188
vt 0.664063 -0.617188
vt 0.621094 -0.617188
vt 0.582031 -0.617188
vt 0.722656 -0.617188
vt 0.542969 -0.617188
vt 0.792969 -0.617188
vt 0.519531 -0.617188
vt 0.499138 -0.57827
vt 0.487784 -0.61771
vt 0.501783 -0.602644
vt 0.500701 -0.601618
vt 0.520103 -0.617589
vt 0.499767 -0.577415
vt 0.500443 -0.415935
vt 0.256528 -0.227274
vt 0.500922 -0.366822
vt 0.222579 -0.236683
vt 0.777979 -0.246669
vt 0.74473 -0.233924
# 222 normals
vn 0.0985622 0.455857 -0.883138
vn 0.0944781 0.586928 -0.801884
vn 0.245289 0.427826 -0.868343
vn 0.235249 0.209761 -0.948451
vn 0.508272 -0.192009 -0.747436
vn 0.265474 0.30364 -0.910685
vn 0.41189 0.0981057 -0.897233
vn 0.791086 -0.142807 -0.333311
vn 0.232371 0.885821 0.377087
vn 0.227053 0.945674 0.121135
vn 0.303008 0.580396 0.74911
vn 0.20104 0.597241 0.771628
vn 0.905147 0.115206 0.403377
vn 0.369705 0.196047 0.90625
vn 0.349666 0.175065 0.917689
vn 0.90714 0.0988152 0.402516
vn 0.896772 -0.0725261 -0.428394
vn 0.950459 -0.0961242 -0.290807
vn 0.395976 -0.134983 -0.893524
vn 0.256121 -0.129801 -0.915846
vn 0.68016 -0.148423 -0.702133
vn -0.00922836 0.218866 0.973816
vn -0.0104224 0.19537 0.978427
vn 0.347106 0.0271502 0.927224
vn 0.0369594 0.0619397 0.981638
vn 0.0479274 0.0561518 0.984655
vn 0.313236 0.0460339 0.941099
vn 0.952085 -0.00353523 -0.298005
vn 0.954075 -0.0458049 -0.292899
vn 0.194561 -0.0458354 -0.917869
vn 0.00539718 -0.0178978 -0.950012
vn 0.187346 0.0868212 -0.912611
vn 0.331182 0.0746611 -0.877571
vn 0.187428 -0.00798899 -0.939329
vn 0.892855 0.125623 0.431345
vn 0.339158 0.211426 0.916456
vn 0.895652 0.148071 0.419384
vn 0.179612 0.0252594 0.983413
vn 0.368712 0.116396 0.9146
vn 0.744196 0.0228138 0.655986
vn 0.983481 0.0211041 0.138393
vn 0.910659 0.0371069 -0.391377
vn 0.911526 -0.00532956 -0.391022
vn 0.894896 0.0867012 0.421395
vn 0.440324 -0.0152845 -0.886671
vn 0.441629 -0.0572942 -0.884667
vn 0.583374 -0.149359 -0.798352
vn -0.687409 -0.343037 -0.640153
vn 0.732852 -0.129311 -0.667987
vn -0.660927 -0.326876 -0.675522
vn -0.679396 -0.214279 -0.69626
vn 0.728295 0.00505432 -0.681535
vn -0.80626 -0.111625 0.463105
vn -0.718053 0.0713771 0.692318
vn -0.697254 -0.0819868 0.708302
vn -0.176292 0.198285 0.96416
vn 0.580126 0.306476 0.742079
vn 0.648746 0.278571 0.70587
vn 0.671366 0.1326 0.723606
vn 0.825398 0.353037 -0.0726684
vn 0.701995 0.0970893 -0.705532
vn -0.710272 -0.112466 -0.694887
vn -0.714996 -0.0750567 -0.694407
vn 0.703372 0.11586 -0.70076
vn -0.705154 -0.0336414 -0.707124
vn 0.658519 0.16069 -0.731299
vn -0.6692 -0.249654 0.699279
vn -0.655366 -0.27079 0.702249
vn -0.614189 -0.270677 0.735631
vn 0.720432 -0.0393015 0.691562
vn 0.734741 -0.0548948 0.67603
vn 0.736062 -0.0527516 0.674077
vn 0.220287 0.917638 0.327431
vn 0.150441 0.926025 -0.337532
vn 0.0500859 0.885441 -0.424692
vn 0.598503 -0.108875 0.72273
vn 0.0584162 0.906599 -0.373307
vn 0.216156 0.344757 -0.833693
vn 0.20422 -0.213785 -0.925163
vn 0.535698 0.0997653 0.819083
vn 0.206096 0.201592 0.953547
vn 0.330932 0.102406 0.928805
vn 0.0633241 0.171192 0.974047
vn -0.0301254 0.494937 0.868114
vn 0.299742 -0.792266 -0.0135643
vn 0.36945 -0.590684 0.590688
vn 0.97329 -0.033608 -0.152257
vn 0.948391 -0.0394601 -0.0645757
vn 0.844987 -0.191845 0.230523
vn 0.0125403 -0.133678 -0.985778
vn -0.00718401 0.238903 0.970858
vn -0.0150672 0.0843184 0.996325
vn -0.0142951 0.135987 0.984308
vn -0.026868 0.737161 0.67403
vn 0.94278 0.0955944 -0.14903
vn 0.0155094 -0.0829643 -0.989922
vn -0.0434263 0.456462 -0.888469
vn -0.180354 0.2113 -0.96059
vn -0.202484 0.426418 -0.880912
vn -0.0551575 0.581159 -0.808922
vn -0.452465 -0.205296 -0.839294
vn -0.769846 -0.170845 -0.455159
vn -0.369505 0.0911061 -0.916656
vn -0.22148 0.298445 -0.923879
vn -0.252272 0.896717 0.361249
vn -0.243458 0.603918 0.754181
vn -0.346277 0.581676 0.725969
vn -0.229312 0.949044 0.0928631
vn -0.905052 0.190733 0.372812
vn -0.910408 0.166711 0.370385
vn -0.371479 0.199382 0.903781
vn -0.38827 0.226678 0.891016
vn -0.882069 -0.00864577 -0.464633
vn -0.942398 -0.013597 -0.331675
vn -0.374409 -0.113107 -0.916227
vn -0.66264 -0.0972848 -0.741467
vn -0.237931 -0.121725 -0.959587
vn -0.381943 0.0244824 0.912098
vn -0.35704 0.0404108 0.924698
vn -0.938744 0.070636 -0.334912
vn -0.174106 -0.053635 -0.977038
vn -0.944592 0.0285142 -0.325941
vn -0.296625 0.0627918 -0.924035
vn -0.146765 0.0674186 -0.930468
vn -0.352781 0.244961 0.902862
vn -0.892802 0.206364 0.399037
vn -0.215776 0.0523699 0.975037
vn -0.892468 0.235689 0.384645
vn -0.397044 0.124903 0.900253
vn -0.769726 0.0122882 0.623182
vn -0.988435 0.00579104 0.0935094
vn -0.907747 0.0960651 0.385951
vn -0.898068 0.00618118 -0.423372
vn -0.89353 0.0249427 -0.431727
vn -0.413112 -0.0489696 -0.901018
vn -0.401909 -0.0213707 -0.906006
vn -0.555855 -0.142797 -0.818922
vn -0.709694 -0.122688 -0.693745
vn 0.707766 -0.343115 -0.617526
vn -0.7148 -0.0506606 -0.693826
vn 0.689107 -0.290801 -0.657868
vn 0.682605 -0.326664 -0.653713
vn 0.781879 -0.101279 0.518614
vn 0.693799 0.0647064 0.717256
vn 0.681931 -0.0230592 0.727313
vn 0.144253 0.19209 0.970718
vn -0.668613 0.295565 0.67993
vn -0.599244 0.296575 0.709818
vn -0.68292 0.212353 0.693107
vn -0.789602 0.315463 -0.157842
vn -0.69667 -0.0233543 -0.717012
vn -0.698105 -0.00514712 -0.714374
vn 0.711703 -0.218864 -0.663322
vn 0.709458 -0.263135 -0.65378
vn -0.655069 0.0204454 -0.743272
vn 0.697186 -0.177181 -0.686932
vn 0.645323 -0.121985 0.745716
vn 0.659132 -0.131889 0.739794
vn 0.654537 -0.097682 0.731896
vn -0.737821 0.0962652 0.667499
vn -0.724579 0.107728 0.679852
vn -0.734824 0.109704 0.66443
vn -0.220965 0.920878 0.314331
vn -0.110793 0.926916 -0.347687
vn -0.0259458 0.877958 -0.447546
vn -0.627762 -0.128214 0.640671
vn -0.039632 0.909632 -0.393107
vn -0.147483 0.313662 -0.86311
vn -0.146435 -0.216297 -0.953998
vn -0.578831 0.0825545 0.755735
vn -0.381927 0.0905268 0.885938
vn -0.259749 0.195131 0.934061
vn -0.290099 -0.784345 -0.0709171
vn -0.392136 -0.591359 0.543613
vn -0.942083 -0.060642 -0.142526
vn -0.964327 -0.0512333 -0.207663
vn -0.849145 -0.218048 0.118683
vn -0.931907 0.076071 -0.231968
vn -0.0669479 0.321417 -0.941849
vn -0.080582 0.105274 -0.983403
vn -0.0779914 -0.0444578 -0.986117
vn 0.119657 -0.0437739 -0.981587
vn 0.127597 0.104886 -0.978356
vn 0.113117 0.322253 -0.937066
vn -0.146317 -0.96999 0.114799
vn -0.158609 -0.963004 0.111243
vn -0.159 -0.962795 0.111131
vn -0.145451 -0.970514 0.115053
vn 0.11612 -0.985448 -0.0934965
vn 0.129118 -0.980555 -0.108934
vn 0.128745 -0.980697 -0.108491
vn 0.116956 -0.985137 -0.0944896
vn -0.0167526 -0.988671 0.0477454
vn -0.0459756 -0.986404 0.105397
vn -0.0813331 -0.981124 0.175441
vn -0.0127776 -0.966779 -0.00915634
vn -0.051244 -0.986198 0.157442
vn 0.529622 -0.797413 -0.0441861
vn -0.0269982 -0.984307 0.174389
vn -0.0408623 -0.949437 0.0937521
vn -0.0532257 -0.932261 0.0267064
vn -0.0653581 -0.925775 -0.0354641
vn -0.519301 -0.789169 -0.0661419
vn 0.0568513 -0.935061 -0.152171
vn 0.920342 0.25957 -0.270149
vn 0.00479708 0.764393 -0.634632
vn -0.0215817 0.463385 -0.870887
vn 0.569593 0.415685 -0.708133
vn 0.84934 0.456192 -0.233752
vn 0.017849 0.462502 -0.884283
vn 0.937199 0.116634 -0.311785
vn 0.917992 0.165952 -0.355333
vn 0.883755 0.355067 -0.303139
vn 0.873682 0.455673 -0.148046
vn 0.023654 0.330243 -0.94282
vn -0.514315 0.409558 -0.741415
vn -0.824825 0.454089 -0.284913
vn -0.871288 0.445669 -0.189483
vn -0.866442 0.349176 -0.347289
vn -0.927073 0.122257 -0.337275
vn -0.902892 0.162403 -0.391625
vn -0.91907 0.243845 -0.280163
usemtl _13_-_Defaultaaaaa
g Bob_SuitJacket
s off
f 1/1/1 2/3/3 3/2/2
f 2/3/3 1/1/1 4/4/4
f 5/5/5 6/7/7 7/6/6
f 6/7/7 5/5/5 8/8/8
f 9/9/9 10/11/11 11/10/10
f 10/11/11 9/9/9 12/12/12
f 13/13/13 14/15/15 15/14/14
f 14/15/15 13/13/13 16/16/16
f 17/17/17 13/13/13 18/18/18
f 13/13/13 17/17/17 16/16/16
f 19/19/19 20/21/21 21/20/20
f 20/21/21 19/19/19 17/17/17
f 15/14/14 22/23/23 23/22/22
f 22/23/23 15/14/14 14/15/15
f 24/24/24 25/26/26 26/25/25
f 25/26/26 24/24/24 27/27/27
f 28/28/28 20/21/21 29/29/29
f 20/21/21 28/28/28 30/30/30
f 31/31/31 32/33/33 33/32/32
f 32/33/33 31/31/31 21/20/34
f 15/14/14 34/34/35 13/13/13
f 34/34/35 15/14/14 35/35/36
f 35/35/36 36/36/37 34/34/35
f 36/36/37 35/35/36 37/37/38
f 13/13/13 29/29/29 18/18/18
f 29/29/29 13/13/13 34/34/35
f 34/34/35 28/28/28 29/29/29
f 28/28/28 34/34/35 36/36/37
f 38/38/39 39/39/40 24/24/24
f 40/40/41 41/42/43 42/41/42
f 41/42/43 40/40/41 43/43/44
f 41/42/43 44/44/45 42/41/42
f 44/44/45 41/42/43 45/45/46
f 46/46/47 47/48/49 48/47/48
f 47/48/49 49/50/51 50/49/50
f 49/50/51 47/48/49 51/51/52
f 52/52/53 50/54/50 53/53/54
f 50/54/50 54/55/55 53/53/54
f 54/55/55 50/54/50 49/56/51
f 55/57/56 56/59/58 57/58/57
f 55/57/56 53/53/54 56/59/58
f 55/57/56 52/52/53 53/53/54
f 53/53/54 58/60/59 56/59/58
f 58/60/59 53/53/54 54/55/55
f 59/61/60 56/59/58 47/48/49
f 56/59/58 51/51/52 47/48/49
f 51/51/52 56/59/58 58/60/59
f 60/62/61 61/64/63 62/63/62
f 61/64/63 60/62/61 63/65/64
f 63/65/64 64/66/65 61/64/63
f 64/66/65 63/65/64 65/67/66
f 62/68/62 66/70/68 67/69/67
f 66/70/68 62/68/62 61/71/63
f 61/71/63 68/72/69 66/70/68
f 68/72/69 61/71/63 64/73/65
f 67/69/67 69/75/71 70/74/70
f 69/75/71 67/69/67 66/70/68
f 66/70/68 71/76/72 69/75/71
f 71/76/72 66/70/68 68/72/69
f 70/74/70 63/65/64 60/62/61
f 63/65/64 70/74/70 69/75/71
f 69/75/71 65/67/66 63/65/64
f 65/67/66 69/75/71 71/76/72
f 58/60/59 60/62/61 51/51/52
f 60/62/61 58/60/59 70/74/70
f 51/51/52 62/63/62 49/50/51
f 62/63/62 51/51/52 60/62/61
f 54/55/55 62/68/62 67/69/67
f 62/68/62 54/55/55 49/56/51
f 67/69/67 58/60/59 54/55/55
f 58/60/59 67/69/67 70/74/70
f 72/77/73 59/61/60 73/78/74
f 59/61/60 72/77/73 57/58/57
f 73/78/74 11/79/10 72/77/73
f 11/79/10 73/78/74 74/80/75
f 39/39/40 27/27/27 24/24/24
f 27/27/27 39/39/40 75/81/76
f 11/10/10 76/82/77 9/9/9
f 77/83/78 4/85/4 1/84/1
f 4/85/4 77/83/78 78/86/79
f 46/46/47 78/86/79 77/83/78
f 79/87/80 12/12/12 80/88/81
f 79/87/80 10/11/11 12/12/12
f 79/87/80 81/89/82 10/11/11
f 82/90/83 12/12/12 83/91/84
f 12/12/12 82/90/83 80/88/81
f 72/77/73 11/79/10 10/92/11
f 57/58/57 81/93/82 55/57/56
f 57/58/57 10/92/11 81/93/82
f 57/58/57 72/77/73 10/92/11
f 84/94/85 52/52/53 85/95/86
f 52/52/53 84/94/85 48/96/48
f 42/41/42 86/97/87 40/40/41
f 86/97/87 42/41/42 87/98/88
f 5/99/5 48/96/48 84/94/85
f 8/8/8 87/98/88 42/41/42
f 86/97/87 88/100/89 40/40/41
f 21/20/20 30/30/30 32/33/33
f 20/21/21 30/30/30 21/20/20
f 17/17/17 18/18/18 20/21/21
f 18/18/18 29/29/29 20/21/21
f 76/82/77 11/10/10 74/101/75
f 21/20/20 89/102/90 19/19/19
f 89/102/90 21/20/20 31/31/31
f 23/22/22 35/35/36 15/14/14
f 35/35/36 23/22/22 90/103/91
f 35/35/36 91/104/92 37/37/38
f 91/104/92 35/35/36 90/103/91
f 50/54/50 52/52/53 48/96/48
f 48/47/48 47/48/49 50/49/50
f 45/45/46 17/17/17 19/19/19
f 17/17/17 45/45/46 41/42/43
f 41/42/43 16/16/16 17/17/17
f 16/16/16 41/42/43 43/43/44
f 16/16/16 38/38/39 14/15/15
f 38/38/39 16/16/16 43/43/44
f 14/15/15 92/105/93 22/23/23
f 92/105/93 14/15/15 38/38/39
f 76/106/77 74/107/75 3/2/2
f 3/2/2 74/107/75 1/1/1
f 1/84/1 73/78/74 77/83/78
f 73/78/74 1/84/1 74/80/75
f 77/83/78 59/61/60 46/46/47
f 59/61/60 77/83/78 73/78/74
f 59/61/60 47/48/49 46/46/47
f 56/59/58 59/61/60 57/58/57
f 43/43/44 40/40/41 39/39/40
f 79/87/80 85/108/86 81/89/82
f 40/40/41 75/81/76 39/39/40
f 75/81/76 40/40/41 88/100/89
f 39/39/40 38/38/39 43/43/44
f 93/109/94 12/12/12 9/9/9
f 27/27/27 82/90/83 25/26/26
f 82/90/83 27/27/27 80/88/81
f 80/88/81 75/81/76 79/87/80
f 75/81/76 80/88/81 27/27/27
f 75/81/76 85/108/86 79/87/80
f 85/108/86 75/81/76 88/100/89
f 85/108/86 86/97/87 94/110/95
f 86/97/87 85/108/86 88/100/89
f 94/110/95 87/98/88 84/111/85
f 87/98/88 94/110/95 86/97/87
f 8/8/8 84/111/85 87/98/88
f 84/111/85 8/8/8 5/5/5
f 44/44/45 8/8/8 42/41/42
f 8/8/8 44/44/45 6/7/7
f 7/6/6 4/4/4 5/5/5
f 4/4/4 7/6/6 2/3/3
f 5/112/5 78/86/79 48/47/48
f 78/86/79 5/112/5 4/85/4
f 78/86/79 46/46/47 48/47/48
f 55/57/56 85/95/86 52/52/53
f 85/95/86 55/57/56 81/93/82
f 26/25/25 38/38/39 24/24/24
f 38/38/39 26/25/25 92/105/93
f 93/109/94 83/91/84 12/12/12
f 19/19/19 95/113/96 45/45/46
f 95/113/96 19/19/19 89/102/90
f 84/94/85 85/95/86 94/114/95
f 96/115/97 97/117/99 98/116/98
f 97/117/99 96/115/97 99/118/100
f 100/119/101 101/121/103 102/120/102
f 101/121/103 100/119/101 103/122/104
f 104/123/105 105/125/107 106/124/106
f 105/125/107 104/123/105 107/126/108
f 108/127/109 109/129/111 110/128/110
f 109/129/111 108/127/109 111/130/112
f 112/131/113 108/127/109 110/128/110
f 108/127/109 112/131/113 113/132/114
f 114/133/115 115/134/116 112/131/113
f 115/134/116 114/133/115 116/135/117
f 111/130/112 22/136/23 109/129/111
f 22/136/23 111/130/112 23/137/22
f 117/138/118 25/140/26 118/139/119
f 25/140/26 117/138/118 26/141/25
f 119/142/120 115/134/116 120/143/121
f 115/134/116 119/142/120 121/144/122
f 31/145/31 122/146/123 116/135/117
f 122/146/123 31/145/31 123/147/124
f 111/130/112 124/149/126 125/148/125
f 124/149/126 111/130/112 108/127/109
f 125/148/125 126/151/128 127/150/127
f 126/151/128 125/148/125 124/149/126
f 108/127/109 121/144/122 124/149/126
f 121/144/122 108/127/109 113/132/114
f 124/149/126 119/142/120 126/151/128
f 119/142/120 124/149/126 121/144/122
f 128/152/129 117/138/118 129/153/130
f 130/154/131 131/156/133 132/155/132
f 131/156/133 130/154/131 133/157/134
f 131/156/133 134/159/136 135/158/135
f 134/159/136 131/156/133 133/157/134
f 136/160/137 137/162/139 138/161/138
f 138/161/138 139/164/141 140/163/140
f 139/164/141 138/161/138 141/165/142
f 142/166/143 143/168/144 141/167/142
f 141/167/142 144/170/145 139/169/141
f 144/170/145 141/167/142 143/168/144
f 145/171/146 143/168/144 142/166/143
f 145/171/146 146/172/147 143/168/144
f 145/171/146 147/173/148 146/172/147
f 143/168/144 148/174/149 144/170/145
f 148/174/149 143/168/144 146/172/147
f 149/175/150 138/161/138 146/172/147
f 146/172/147 140/163/140 148/174/149
f 140/163/140 146/172/147 138/161/138
f 150/176/151 151/178/153 152/177/152
f 151/178/153 150/176/151 153/179/154
f 152/177/152 154/181/156 155/180/155
f 154/181/156 152/177/152 151/178/153
f 153/182/154 156/184/157 151/183/153
f 156/184/157 153/182/154 157/185/158
f 151/183/153 158/187/159 154/186/156
f 158/187/159 151/183/153 156/184/157
f 157/185/158 159/188/160 156/184/157
f 159/188/160 157/185/158 160/189/161
f 156/184/157 161/190/162 158/187/159
f 161/190/162 156/184/157 159/188/160
f 160/189/161 152/177/152 159/188/160
f 152/177/152 160/189/161 150/176/151
f 159/188/160 155/180/155 161/190/162
f 155/180/155 159/188/160 152/177/152
f 148/174/149 150/176/151 160/189/161
f 150/176/151 148/174/149 140/163/140
f 140/163/140 153/179/154 150/176/151
f 153/179/154 140/163/140 139/164/141
f 144/170/145 153/182/154 139/169/141
f 153/182/154 144/170/145 157/185/158
f 157/185/158 148/174/149 160/189/161
f 148/174/149 157/185/158 144/170/145
f 162/191/163 149/175/150 147/173/148
f 149/175/150 162/191/163 163/192/164
f 163/192/164 107/194/108 164/193/165
f 107/194/108 163/192/164 162/191/163
f 129/153/130 118/139/119 165/195/166
f 118/139/119 129/153/130 117/138/118
f 107/126/108 104/123/105 166/196/167
f 167/197/168 98/199/98 168/198/169
f 98/199/98 167/197/168 96/200/97
f 136/160/137 167/197/168 168/198/169
f 169/201/170 105/125/107 170/202/171
f 169/201/170 106/124/106 105/125/107
f 169/201/170 171/203/172 106/124/106
f 82/204/83 106/124/106 171/203/172
f 106/124/106 82/204/83 83/205/84
f 162/191/163 105/206/107 107/194/108
f 147/173/148 105/206/107 162/191/163
f 147/173/148 170/207/171 105/206/107
f 147/173/148 145/171/146 170/207/171
f 172/208/173 142/166/143 137/209/139
f 142/166/143 172/208/173 173/210/174
f 133/157/134 174/212/176 175/211/175
f 174/212/176 133/157/134 130/154/131
f 100/213/101 172/208/173 137/209/139
f 102/120/102 133/157/134 175/211/175
f 174/212/176 130/154/131 176/214/177
f 116/135/117 122/146/123 120/143/121
f 115/134/116 116/135/117 120/143/121
f 112/131/113 115/134/116 113/132/114
f 113/132/114 115/134/116 121/144/122
f 166/196/167 164/215/165 107/126/108
f 116/135/117 89/102/90 31/145/31
f 89/102/90 116/135/117 114/133/115
f 23/137/22 125/148/125 90/216/91
f 125/148/125 23/137/22 111/130/112
f 125/148/125 91/217/92 90/216/91
f 91/217/92 125/148/125 127/150/127
f 141/167/142 137/209/139 142/166/143
f 137/162/139 141/165/142 138/161/138
f 135/158/135 112/131/113 131/156/133
f 112/131/113 135/158/135 114/133/115
f 131/156/133 110/128/110 132/155/132
f 110/128/110 131/156/133 112/131/113
f 110/128/110 128/152/129 132/155/132
f 128/152/129 110/128/110 109/129/111
f 109/129/111 92/218/93 128/152/129
f 92/218/93 109/129/111 22/136/23
f 166/219/167 99/118/100 164/220/165
f 99/118/100 96/115/97 164/220/165
f 96/200/97 163/192/164 164/193/165
f 163/192/164 96/200/97 167/197/168
f 167/197/168 149/175/150 163/192/164
f 149/175/150 167/197/168 136/160/137
f 149/175/150 136/160/137 138/161/138
f 146/172/147 147/173/148 149/175/150
f 132/155/132 129/153/130 130/154/131
f 169/201/170 170/202/171 173/221/174
f 130/154/131 165/195/166 176/214/177
f 165/195/166 130/154/131 129/153/130
f 129/153/130 132/155/132 128/152/129
f 93/222/94 104/123/105 106/124/106
f 118/139/119 82/204/83 171/203/172
f 82/204/83 118/139/119 25/140/26
f 171/203/172 165/195/166 118/139/119
f 165/195/166 171/203/172 169/201/170
f 165/195/166 173/221/174 176/214/177
f 173/221/174 165/195/166 169/201/170
f 173/221/174 174/212/176 176/214/177
f 174/212/176 173/221/174 177/223/178
f 177/223/178 175/211/175 174/212/176
f 175/211/175 177/223/178 172/224/173
f 102/120/102 172/224/173 100/119/101
f 172/224/173 102/120/102 175/211/175
f 134/159/136 102/120/102 101/121/103
f 102/120/102 134/159/136 133/157/134
f 103/122/104 98/116/98 97/117/99
f 98/116/98 103/122/104 100/119/101
f 100/225/101 168/198/169 98/199/98
f 168/198/169 100/225/101 137/162/139
f 168/198/169 137/162/139 136/160/137
f 145/171/146 173/210/174 170/207/171
f 173/210/174 145/171/146 142/166/143
f 26/141/25 128/152/129 92/218/93
f 128/152/129 26/141/25 117/138/118
f 93/222/94 106/124/106 83/205/84
f 95/113/96 114/133/115 135/158/135
f 114/133/115 95/113/96 89/102/90
f 172/208/173 177/226/178 173/210/174
f 97/117/99 178/227/179 103/122/104
f 103/122/104 179/228/180 101/121/103
f 179/228/180 103/122/104 178/227/179
f 101/121/103 180/229/181 134/159/136
f 180/229/181 101/121/103 179/228/180
f 180/229/181 135/158/135 134/159/136
f 135/158/135 180/229/181 95/113/96
f 45/45/46 181/230/182 44/44/45
f 181/230/182 45/45/46 95/113/96
f 44/44/45 182/231/183 6/7/7
f 182/231/183 44/44/45 181/230/182
f 182/231/183 7/6/6 6/7/7
f 7/6/6 182/231/183 183/232/184
f 183/232/184 2/3/3 7/6/6
f 161/190/185 154/181/187 158/187/186
f 154/181/187 161/190/185 155/180/188
f 65/67/189 68/72/191 64/66/190
f 68/72/191 65/67/189 71/76/192
f 120/233/193 126/235/195 119/234/194
f 120/233/193 127/236/195 126/235/195
f 122/237/196 127/236/195 120/233/193
f 122/237/196 91/238/197 127/236/195
f 123/239/198 91/238/197 122/237/196
f 36/240/199 30/242/201 28/241/200
f 37/243/199 30/242/201 36/240/199
f 37/243/199 32/244/202 30/242/201
f 91/245/197 32/244/202 37/243/199
f 33/246/203 32/244/202 91/245/197
f 31/247/204 91/249/197 123/248/198
f 91/250/197 31/252/204 33/251/203
f 180/229/205 184/253/207 95/113/206
f 104/123/208 185/254/210 166/196/209
f 179/228/211 184/253/207 180/229/205
f 179/228/211 185/255/210 184/253/207
f 185/255/210 179/228/211 178/227/212
f 97/117/213 185/255/210 178/227/212
f 99/118/214 185/255/210 97/117/213
f 166/219/209 185/255/210 99/118/214
f 93/222/215 185/256/210 104/123/208
f 9/9/216 185/257/210 93/109/215
f 76/82/217 185/258/210 9/9/216
f 3/2/218 185/255/210 76/106/217
f 2/3/219 185/255/210 3/2/218
f 182/231/220 185/255/210 183/232/221
f 185/255/210 182/231/220 184/253/207
f 185/255/210 2/3/219 183/232/221
f 184/253/207 181/230/222 95/113/206
f 184/253/207 182/231/220 181/230/222
