# Wavefront OBJ
# Created by fragMOTION 1.3.7
# http://www.fragmosoft.com

mtllib AmmoStrap.mtl
# 68 vertices
v -0.0802497 0.626499 -0.0542292
v -0.085106 0.600433 -0.0128018
v -0.094725 0.619674 -0.0111783
v -0.056225 0.598404 -0.0581231
v -0.0407311 0.650073 -0.083323
v -0.018295 0.614721 -0.080227
v -0.0148908 0.671181 -0.0900084
v 0.0124631 0.64088 -0.0809943
v 0.0405348 0.665721 -0.0827185
v 0.00427694 0.688311 -0.0939807
v 0.0599956 0.689596 -0.0788891
v 0.0252784 0.709711 -0.0886887
v 0.0778707 0.722703 -0.075419
v 0.0412572 0.731372 -0.0803295
v 0.0943002 0.750363 -0.0610968
v 0.0620357 0.764384 -0.063541
v 0.104511 0.78488 -0.0373969
v 0.0708964 0.79423 -0.0369493
v -0.0724844 0.606794 -0.00523096
v -0.0496599 0.606294 -0.038202
v -0.0161878 0.619268 -0.0592775
v 0.0121562 0.643026 -0.0613684
v 0.0402563 0.668301 -0.0642295
v 0.058696 0.695258 -0.0628682
v 0.0756986 0.720749 -0.0550486
v 0.0896251 0.749281 -0.0416772
v 0.0967749 0.776701 -0.0271461
v -0.0726405 0.633003 -0.0410804
v -0.086215 0.62384 -0.00485384
v -0.0394392 0.651522 -0.0648419
v -0.0151665 0.673717 -0.0717435
v 0.0039216 0.690814 -0.072726
v 0.0248656 0.712564 -0.067972
v 0.0396954 0.729339 -0.0605083
v 0.0574606 0.757633 -0.0411011
v 0.0682163 0.781307 -0.026703
v -0.088039 0.627008 0.0270276
v -0.101524 0.619046 0.0299832
v -0.0788098 0.612598 0.0249145
v -0.0860184 0.60569 0.0305538
v 0.0952755 0.810578 0.00254863
v 0.064569 0.815681 0.00381488
v 0.0944877 0.796494 0.00308545
v 0.0626699 0.80043 0.00414267
v 0.0778908 0.810394 0.0478135
v 0.0521037 0.814639 0.0401151
v 0.0783379 0.796358 0.0418193
v 0.0516701 0.79696 0.0333981
v 0.0477383 0.787749 0.0849805
v 0.0257463 0.796437 0.0809135
v 0.04481 0.775369 0.0744879
v 0.0223186 0.781625 0.06907
v 0.0060787 0.738917 0.103248
v -0.0119396 0.750281 0.0956487
v 0.0065414 0.734654 0.0890937
v -0.0115136 0.746162 0.0813744
v -0.0322362 0.684718 0.0944327
v -0.0485482 0.699345 0.0909797
v -0.0314854 0.684676 0.0819072
v -0.0469313 0.700732 0.078423
v -0.0608097 0.645922 0.0817575
v -0.0758896 0.660143 0.0782869
v -0.0618668 0.647605 0.0690396
v -0.0762971 0.659113 0.066126
v -0.0763644 0.624431 0.0649168
v -0.092222 0.634716 0.060043
v -0.0734049 0.626315 0.0546412
v -0.0827542 0.638008 0.0476223
# 60 texture vertices
vt 0.105882 -0.203498
vt 0.054688 -0.210938
vt 0.054688 -0.28125
vt 0.104522 -0.334043
vt 0.279521 -0.230258
vt 0.25551 -0.380595
vt 0.404867 -0.236141
vt 0.403059 -0.391663
vt 0.54366 -0.393586
vt 0.5 -0.237882
vt 0.654802 -0.380176
vt 0.609491 -0.23467
vt 0.773676 -0.357041
vt 0.704519 -0.220347
vt 0.883712 -0.312557
vt 0.817041 -0.195185
vt 0.965606 -0.214525
vt 0.905024 -0.149029
vt 0.144 -0.605575
vt 0.069074 -0.558973
vt 0.279705 -0.649258
vt 0.421002 -0.657867
vt 0.566753 -0.657798
vt 0.681747 -0.642271
vt 0.788528 -0.629656
vt 0.895119 -0.578451
vt 0.962242 -0.498678
vt 0.071997 -0.477844
vt 0.145175 -0.473573
vt 0.292749 -0.499209
vt 0.420596 -0.496653
vt 0.51922 -0.497063
vt 0.632653 -0.492129
vt 0.708408 -0.491725
vt 0.809883 -0.474274
vt 0.893723 -0.437142
vt 0.007813 -0.210938
vt 0.006163 -0.53869
vt 0.019768 -0.484166
vt 0.007813 -0.28125
vt 0.990769 -0.172692
vt 0.923313 -0.114838
vt 0.986094 -0.456799
vt 0.915333 -0.397827
vt 0.946253 -0.864455
vt 0.986177 -0.798102
vt 0.81336 -0.740187
vt 0.803273 -0.824126
vt 0.663757 -0.712566
vt 0.642005 -0.796675
vt 0.517829 -0.710168
vt 0.50652 -0.79117
vt 0.361854 -0.723535
vt 0.358478 -0.801566
vt 0.242206 -0.737336
vt 0.236262 -0.813246
vt 0.15333 -0.744838
vt 0.13875 -0.815883
vt 0.013582 -0.823027
vt 0.011007 -0.747663
# 136 normals
vn -0.625547 -0.44593 -0.633517
vn -0.874654 -0.399649 -0.258253
vn -0.836537 -0.477397 -0.256566
vn -0.553927 -0.430877 -0.706958
vn -0.241136 -0.270665 -0.923132
vn -0.197104 -0.27533 -0.933561
vn 0.0500835 -0.244299 -0.958088
vn 0.0990748 -0.193933 -0.966493
vn 0.192396 -0.13613 -0.960506
vn 0.169354 -0.185091 -0.957025
vn 0.281807 0.0186223 -0.947346
vn 0.271793 0.0731542 -0.948788
vn 0.315694 0.13122 -0.888427
vn 0.252749 0.283651 -0.918118
vn 0.33414 0.270928 -0.822598
vn 0.229683 0.41508 -0.838415
vn 0.356129 0.527853 -0.630357
vn 0.122322 0.706034 -0.638062
vn 0.406393 -0.883985 0.202984
vn 0.353671 -0.909711 0.190714
vn 0.398562 -0.89081 0.188069
vn 0.382452 -0.889639 0.222759
vn 0.538776 -0.823456 0.128662
vn 0.551829 -0.816177 0.118943
vn 0.657594 -0.734391 0.0995087
vn 0.657861 -0.734804 0.0969405
vn 0.730589 -0.658678 0.107891
vn 0.724157 -0.665834 0.107487
vn 0.716199 -0.625451 0.126996
vn 0.77963 -0.600311 0.0955614
vn 0.757603 -0.499504 0.0740581
vn 0.728498 -0.525999 0.0637913
vn 0.797939 -0.35278 0.195015
vn 0.748675 -0.423174 0.195919
vn 0.808513 -0.301345 0.234635
vn 0.789675 -0.329565 0.2414
vn 0.750638 0.597078 0.272844
vn 0.778858 0.579052 0.227712
vn 0.519843 0.545997 0.65116
vn 0.505393 0.52946 0.676353
vn 0.195478 0.352208 0.906869
vn 0.180169 0.34554 0.91395
vn -0.0928027 0.235802 0.956855
vn -0.0901892 0.218151 0.962129
vn -0.178156 0.115873 0.966378
vn -0.138974 0.0819801 0.975588
vn -0.260569 -0.108176 0.950282
vn -0.225204 -0.109 0.94599
vn -0.308805 -0.3171 0.88073
vn -0.265803 -0.267583 0.87207
vn -0.179631 -0.382515 0.871965
vn -0.15515 -0.305173 0.879766
vn -0.0844643 -0.603921 0.748438
vn -0.200688 -0.507591 0.732414
vn -0.56148 0.814175 -0.0655002
vn -0.407986 0.904208 -0.0450776
vn -0.461956 0.878699 -0.0203471
vn -0.570892 0.806674 -0.0786371
vn -0.596664 0.790524 -0.0265359
vn -0.570444 0.809516 -0.0353131
vn -0.679766 0.712355 -0.100791
vn -0.687404 0.702532 -0.116298
vn -0.694697 0.694972 -0.118586
vn -0.698772 0.690042 -0.126703
vn -0.743927 0.641835 -0.126955
vn -0.757977 0.63349 -0.0928236
vn -0.821438 0.559177 -0.030453
vn -0.809077 0.552613 0.00969843
vn -0.82403 0.455774 -0.0374554
vn -0.844516 0.426638 -0.0140498
vn -0.919414 0.257733 -0.054881
vn -0.91597 0.271437 -0.015133
vn -0.525646 0.822219 -0.175054
vn -0.539384 0.815257 -0.168444
vn 0.842557 0.504877 -0.159803
vn 0.821792 0.492719 -0.265388
vn 0.716826 -0.661913 0.182235
vn 0.763672 -0.59154 0.22431
vn -0.71374 -0.635929 0.275766
vn -0.670053 -0.669497 0.305417
vn 0.181156 0.881804 -0.19642
vn 0.0168081 0.984357 -0.122829
vn 0.862166 -0.174128 0.274853
vn 0.880145 -0.154233 0.264538
vn -0.0122683 -0.982419 0.146451
vn -0.193962 -0.853619 0.242413
vn -0.958611 0.120325 -0.232848
vn -0.95459 0.141195 -0.240692
vn 0.091037 0.902472 0.330125
vn 0.0713303 0.939595 0.327154
vn 0.768479 -0.273949 0.448541
vn 0.832984 -0.269844 0.385335
vn 0.0345004 -0.954838 -0.248764
vn -0.110449 -0.880161 -0.307763
vn -0.905278 0.165292 -0.386056
vn -0.881389 0.219474 -0.385313
vn 0.08752 0.662254 0.741948
vn 0.0822556 0.600567 0.794877
vn 0.758501 -0.489578 0.411108
vn 0.789921 -0.495404 0.340055
vn 0.0552643 -0.607135 -0.792171
vn -0.0161845 -0.657439 -0.75081
vn -0.786907 0.455091 -0.413825
vn -0.763704 0.511699 -0.390625
vn -0.217081 0.245037 0.941957
vn -0.228713 0.227429 0.94459
vn 0.75045 -0.621687 0.208544
vn 0.759255 -0.619708 0.184116
vn 0.211289 -0.277039 -0.935249
vn 0.18686 -0.282789 -0.937305
vn -0.753447 0.615735 -0.222393
vn -0.751529 0.628208 -0.191156
vn -0.233868 -0.0450769 0.961588
vn -0.223658 -0.0448975 0.962674
vn 0.754243 -0.642282 0.0361391
vn 0.765673 -0.629958 0.0177371
vn 0.22903 0.0440953 -0.958805
vn 0.228309 0.0624188 -0.961503
vn -0.767693 0.608123 -0.0685152
vn -0.768489 0.591797 -0.0574295
vn -0.354307 -0.20227 0.900275
vn -0.374755 -0.198433 0.889591
vn 0.843775 -0.500283 -0.130844
vn 0.8114 -0.554026 -0.118808
vn 0.358334 0.352407 -0.844991
vn 0.404986 0.242219 -0.868743
vn -0.785426 0.587179 -0.011926
vn -0.797804 0.557732 -0.0730422
vn -0.538244 -0.425769 0.714642
vn -0.565806 -0.461085 0.67018
vn 0.779664 -0.604978 0.0858841
vn 0.755693 -0.63313 0.0977997
vn 0.73642 0.34156 -0.568866
vn 0.784311 0.219863 -0.5648
vn -0.679848 0.665514 -0.273217
vn -0.629571 0.701015 -0.303229
usemtl _07_-_Defaultggg
g Bob_AmmoStrap
s off
f 1/1/1 2/3/3 3/2/2
f 2/3/3 1/1/1 4/4/4
f 5/5/5 4/4/4 1/1/1
f 4/4/4 5/5/5 6/6/6
f 7/7/7 6/6/6 5/5/5
f 6/6/6 7/7/7 8/8/8
f 7/7/7 9/9/9 8/8/8
f 9/9/9 7/7/7 10/10/10
f 10/10/10 11/11/11 9/9/9
f 11/11/11 10/10/10 12/12/12
f 12/12/12 13/13/13 11/11/11
f 13/13/13 12/12/12 14/14/14
f 14/14/14 15/15/15 13/13/13
f 15/15/15 14/14/14 16/16/16
f 16/16/16 17/17/17 15/15/15
f 17/17/17 16/16/16 18/18/18
f 4/19/19 19/20/21 2/20/20
f 19/20/21 4/19/19 20/19/22
f 4/19/19 21/21/23 20/19/22
f 21/21/23 4/19/19 6/21/24
f 6/21/24 22/22/25 21/21/23
f 22/22/25 6/21/24 8/22/26
f 8/22/26 23/23/27 22/22/25
f 23/23/27 8/22/26 9/23/28
f 9/23/28 24/24/29 23/23/27
f 24/24/29 9/23/28 11/24/30
f 11/24/30 25/25/31 24/24/29
f 25/25/31 11/24/30 13/25/32
f 13/25/32 26/26/33 25/25/31
f 26/26/33 13/25/32 15/26/34
f 15/26/34 27/27/35 26/26/33
f 27/27/35 15/26/34 17/27/36
f 19/20/37 28/29/39 29/28/38
f 28/29/39 19/20/37 20/19/40
f 20/19/40 30/30/41 28/29/39
f 30/30/41 20/19/40 21/21/42
f 21/21/42 31/31/43 30/30/41
f 31/31/43 21/21/42 22/22/44
f 22/22/44 32/32/45 31/31/43
f 32/32/45 22/22/44 23/23/46
f 23/23/46 33/33/47 32/32/45
f 33/33/47 23/23/46 24/24/48
f 24/24/48 34/34/49 33/33/47
f 34/34/49 24/24/48 25/25/50
f 25/25/50 35/35/51 34/34/49
f 35/35/51 25/25/50 26/26/52
f 26/26/52 36/36/53 35/35/51
f 36/36/53 26/26/52 27/27/54
f 28/29/55 3/28/57 29/28/56
f 3/28/57 28/29/55 1/29/58
f 28/29/55 5/30/59 1/29/58
f 5/30/59 28/29/55 30/30/60
f 30/30/60 7/31/61 5/30/59
f 7/31/61 30/30/60 31/31/62
f 31/31/62 10/32/63 7/31/61
f 10/32/63 31/31/62 32/32/64
f 32/32/64 12/33/65 10/32/63
f 12/33/65 32/32/64 33/33/66
f 33/33/66 14/34/67 12/33/65
f 14/34/67 33/33/66 34/34/68
f 34/34/68 16/35/69 14/34/67
f 16/35/69 34/34/68 35/35/70
f 35/35/70 18/36/71 16/35/69
f 18/36/71 35/35/70 36/36/72
f 3/2/57 37/37/73 29/2/56
f 37/37/73 3/2/57 38/37/74
f 29/28/38 39/38/75 19/20/37
f 39/38/75 29/28/38 37/39/76
f 19/20/21 40/38/77 2/20/20
f 40/38/77 19/20/21 39/38/78
f 2/3/3 38/37/79 3/2/2
f 38/37/79 2/3/3 40/40/80
f 18/18/18 41/41/81 17/17/17
f 41/41/81 18/18/18 42/42/82
f 17/27/36 43/43/83 27/27/35
f 43/43/83 17/27/36 41/43/84
f 27/27/54 44/44/85 36/36/53
f 44/44/85 27/27/54 43/43/86
f 36/36/72 42/44/87 18/36/71
f 42/44/87 36/36/72 44/44/88
f 42/45/82 45/47/89 41/46/81
f 45/47/89 42/45/82 46/48/90
f 41/46/84 47/47/91 43/46/83
f 47/47/91 41/46/84 45/47/92
f 43/46/86 48/48/93 44/45/85
f 48/48/93 43/46/86 47/47/94
f 44/45/88 46/48/95 42/45/87
f 46/48/95 44/45/88 48/48/96
f 46/48/90 49/49/97 45/47/89
f 49/49/97 46/48/90 50/50/98
f 45/47/92 51/49/99 47/47/91
f 51/49/99 45/47/92 49/49/100
f 47/47/94 52/50/101 48/48/93
f 52/50/101 47/47/94 51/49/102
f 48/48/96 50/50/103 46/48/95
f 50/50/103 48/48/96 52/50/104
f 50/50/98 53/51/105 49/49/97
f 53/51/105 50/50/98 54/52/106
f 49/49/100 55/51/107 51/49/99
f 55/51/107 49/49/100 53/51/108
f 51/49/102 56/52/109 52/50/101
f 56/52/109 51/49/102 55/51/110
f 52/50/104 54/52/111 50/50/103
f 54/52/111 52/50/104 56/52/112
f 54/52/106 57/53/113 53/51/105
f 57/53/113 54/52/106 58/54/114
f 53/51/108 59/53/115 55/51/107
f 59/53/115 53/51/108 57/53/116
f 55/51/110 60/54/117 56/52/109
f 60/54/117 55/51/110 59/53/118
f 56/52/112 58/54/119 54/52/111
f 58/54/119 56/52/112 60/54/120
f 58/54/114 61/55/121 57/53/113
f 61/55/121 58/54/114 62/56/122
f 57/53/116 63/55/123 59/53/115
f 63/55/123 57/53/116 61/55/124
f 59/53/118 64/56/125 60/54/117
f 64/56/125 59/53/118 63/55/126
f 60/54/120 62/56/127 58/54/119
f 62/56/127 60/54/120 64/56/128
f 62/56/122 65/57/129 61/55/121
f 65/57/129 62/56/122 66/58/130
f 61/55/124 67/57/131 63/55/123
f 67/57/131 61/55/124 65/57/132
f 63/55/126 68/58/133 64/56/125
f 68/58/133 63/55/126 67/57/134
f 64/56/128 66/58/135 62/56/127
f 66/58/135 64/56/128 68/58/136
f 68/58/136 38/59/74 66/58/135
f 38/59/74 68/58/136 37/59/73
f 66/58/130 40/60/80 65/57/129
f 40/60/80 66/58/130 38/59/79
f 67/57/131 40/60/77 39/60/78
f 40/60/77 67/57/131 65/57/132
f 39/60/75 68/58/133 67/57/134
f 68/58/133 39/60/75 37/59/76
