# Wavefront OBJ
# Created by fragMOTION 1.3.7
# http://www.fragmosoft.com

mtllib Bob_SuitJacket.mtl
# 185 vertices
v 0.0737357 0.771799 -0.0312221
v 0.0432918 0.761436 -0.0453283
v 0.048411 0.790721 -0.0222877
v 0.0852758 0.751095 -0.0349315
v 0.0921929 0.735696 -0.0397597
v 0.0663954 0.697868 -0.0626772
v 0.0510391 0.732274 -0.0567862
v 0.0941652 0.707537 -0.026981
v 0.0428756 0.817421 0.0356823
v 0.0867366 0.790467 0.0581961
v 0.0740635 0.805543 0.0193172
v 0.0544424 0.795959 0.0648715
v 0.119007 0.555632 0.0589002
v 0.0732658 0.570596 0.0941345
v 0.0740118 0.558923 0.0959078
v 0.117728 0.566046 0.0571772
v 0.11723 0.556647 -0.0227046
v 0.119338 0.526929 -0.00944534
v 0.0725049 0.548268 -0.0590953
v 0.0990863 0.504166 -0.0299466
v 0.0607685 0.496503 -0.0494092
v 0.0079936 0.573722 0.0954033
v 0.00753285 0.560982 0.09826
v 0.0721268 0.662179 0.0887304
v 0.00455795 0.698098 0.0900567
v 0.0051798 0.661998 0.0913521
v 0.0739664 0.699794 0.0876168
v 0.124473 0.456477 0.00826834
v 0.120725 0.502846 0.00138712
v 0.0885673 0.458197 -0.0333651
v 0.00656932 0.496529 -0.0571286
v 0.0562809 0.462484 -0.0518027
v 0.0306497 0.46234 -0.0572739
v 0.120801 0.507513 0.0680817
v 0.0691764 0.51441 0.105835
v 0.123672 0.465147 0.0758007
v 0.0702383 0.474294 0.115711
v 0.0735324 0.614319 0.0897409
v 0.100526 0.658072 0.0645958
v 0.114673 0.662914 0.0400633
v 0.113163 0.612259 -0.0216096
v 0.108392 0.665707 -0.0206808
v 0.113214 0.61449 0.0577546
v 0.0692943 0.662902 -0.0621582
v 0.0754035 0.606967 -0.0620732
v 0.142081 0.727277 -0.0240411
v 0.153331 0.681267 -0.0047114
v 0.0749795 0.726675 -0.0218433
v 0.0938453 0.62212 0.0100913
v 0.084636 0.669157 -0.00458077
v 0.160869 0.634555 0.0101683
v 0.0773197 0.737098 0.0463003
v 0.0807807 0.691302 0.0661005
v 0.0906528 0.636644 0.0831029
v 0.0830555 0.739407 0.055828
v 0.149773 0.70289 0.0684165
v 0.138011 0.752195 0.0487439
v 0.157331 0.648882 0.0832656
v 0.149193 0.751516 0.00653282
v 0.162074 0.614142 0.00867225
v 0.110069 0.541448 0.00555359
v 0.0979539 0.600492 0.00915577
v 0.166405 0.556437 0.00471943
v 0.115901 0.502037 -0.00098629
v 0.168236 0.508205 -0.00151838
v 0.111669 0.538227 0.0697852
v 0.0980404 0.599495 0.0801761
v 0.122641 0.495276 0.0635427
v 0.166762 0.55416 0.068892
v 0.161742 0.613139 0.0798232
v 0.169616 0.502002 0.0614058
v 0.105077 0.796213 0.0234837
v 0.111388 0.7974 -0.00869759
v 0.0744618 0.803894 -0.00837962
v 0.092938 0.711068 0.0636905
v 0.0565057 0.806836 -0.00561863
v 0.113085 0.774049 -0.0311517
v 0.107409 0.74536 -0.0320301
v 0.102487 0.750163 0.059945
v 0.0645767 0.742529 0.0823997
v 0.105326 0.753036 0.0569804
v 0.00394341 0.734379 0.0863169
v 0.00371277 0.79199 0.0663619
v 0.0981732 0.728253 -0.00334275
v 0.108194 0.740629 0.0448713
v 0.110118 0.699888 0.0284753
v 0.100756 0.698561 -0.0081328
v 0.102859 0.708065 0.0444404
v 0.0102674 0.548092 -0.067291
v 0.00572848 0.518055 0.10864
v 0.00355926 0.477819 0.119044
v 0.00797851 0.614751 0.0909873
v 0.00387577 0.817979 0.0425434
v 0.110888 0.728061 0.0161217
v 0.0102394 0.602844 -0.071723
v -0.0613438 0.771131 -0.0343231
v -0.0299186 0.760509 -0.0469803
v -0.0726095 0.749953 -0.0385468
v -0.0370732 0.789893 -0.024188
v -0.0797121 0.735853 -0.0414981
v -0.0501206 0.696497 -0.0651039
v -0.0801199 0.70759 -0.0278775
v -0.0358462 0.731107 -0.0586875
v -0.0332617 0.816277 0.0344709
v -0.078695 0.78875 0.0547547
v -0.0459504 0.794615 0.0631381
v -0.064375 0.804789 0.0160983
v -0.102004 0.563281 0.0540463
v -0.0575612 0.575024 0.0912876
v -0.100206 0.573111 0.0524495
v -0.0588032 0.563897 0.0929606
v -0.0977579 0.563356 -0.0273453
v -0.102644 0.536469 -0.0145624
v -0.0523269 0.552706 -0.0625515
v -0.0821793 0.512386 -0.0348855
v -0.0441164 0.501132 -0.0544508
v -0.0602769 0.661376 0.0861497
v -0.0635484 0.698216 0.0847517
v -0.11297 0.464851 0.00333854
v -0.0751552 0.462137 -0.03912
v -0.105135 0.513037 -0.00379127
v -0.0423136 0.465408 -0.0558747
v -0.0102928 0.462811 -0.0581604
v -0.107904 0.517507 0.0628395
v -0.0575901 0.520168 0.102907
v -0.115066 0.476383 0.0702189
v -0.06293 0.480561 0.112598
v -0.0590985 0.61579 0.0871074
v -0.0885026 0.656265 0.060884
v -0.101885 0.660626 0.0357144
v -0.0957328 0.613385 -0.0256514
v -0.0986102 0.615531 0.0535532
v -0.0931793 0.663801 -0.0247089
v -0.0527631 0.661635 -0.0645989
v -0.0561917 0.608131 -0.0646947
v -0.130215 0.727486 -0.0297981
v -0.0632314 0.726682 -0.0252913
v -0.142277 0.681613 -0.0106326
v -0.0842196 0.618149 0.00711021
v -0.151034 0.631401 0.00448829
v -0.073668 0.669286 -0.00807847
v -0.0679227 0.73764 0.0419572
v -0.0721699 0.691786 0.0625799
v -0.0821913 0.640331 0.0782094
v -0.0739293 0.739844 0.0519905
v -0.140894 0.704071 0.0608943
v -0.128192 0.752389 0.0416953
v -0.14866 0.653418 0.0756926
v -0.136522 0.750315 -0.00408877
v -0.153321 0.607772 0.00774438
v -0.103217 0.533899 0.0191969
v -0.159121 0.550454 0.0154319
v -0.0895724 0.592944 0.0115158
v -0.110253 0.493976 0.021325
v -0.162267 0.501607 0.0194185
v -0.10492 0.544915 0.0823297
v -0.0899315 0.606089 0.0810991
v -0.112924 0.501767 0.0847566
v -0.15971 0.561377 0.0786378
v -0.153273 0.620891 0.0775052
v -0.163708 0.509594 0.0815712
v -0.0951917 0.796323 0.0189994
v -0.0994727 0.797611 -0.0136464
v -0.0633368 0.802663 -0.0120551
v -0.0826323 0.710994 0.0627022
v -0.0448801 0.805665 -0.0080736
v -0.0998009 0.772892 -0.036454
v -0.094955 0.745832 -0.0362937
v -0.0935834 0.748031 0.0556364
v -0.0963846 0.750875 0.0523086
v -0.0560873 0.74141 0.0809223
v -0.0865987 0.727961 -0.00672003
v -0.0985225 0.738953 0.0398715
v -0.0977015 0.697528 0.0242697
v -0.0869813 0.697114 -0.0109599
v -0.0916484 0.707516 0.0421198
v -0.099391 0.72593 0.0115993
v -0.0261231 0.731136 -0.0597707
v -0.0216779 0.696134 -0.068163
v -0.0150117 0.661848 -0.0670437
v 0.0287189 0.66222 -0.0665558
v 0.0364652 0.696787 -0.0671877
v 0.040473 0.73209 -0.0583327
v 0.00385741 0.67549 0.0155774
v 0.00612329 0.717098 0.00811079
# 258 texture vertices
vt 0.603976 -0.300641
vt 0.550011 -0.29437
vt 0.538841 -0.315921
vt 0.607193 -0.314765
vt 0.608283 -0.342578
vt 0.542711 -0.346526
vt 0.557451 -0.390365
vt 0.608608 -0.391447
vt 0.750859 -0.249722
vt 0.696757 -0.25344
vt 0.688343 -0.293897
vt 0.740677 -0.292788
vt 0.651109 -0.552165
vt 0.7248 -0.550974
vt 0.728436 -0.537906
vt 0.649656 -0.540055
vt 0.588959 -0.535285
vt 0.610803 -0.559466
vt 0.552321 -0.532607
vt 0.541585 -0.574601
vt 0.583934 -0.571866
vt 0.793195 -0.551142
vt 0.793156 -0.534979
vt 0.728835 -0.43809
vt 0.793294 -0.436914
vt 0.793282 -0.385879
vt 0.72556 -0.386788
vt 0.618352 -0.616085
vt 0.614767 -0.579525
vt 0.584019 -0.617093
vt 0.49873 -0.578372
vt 0.519486 -0.617664
vt 0.553435 -0.61683
vt 0.665931 -0.586443
vt 0.726025 -0.586756
vt 0.663903 -0.617605
vt 0.722367 -0.617625
vt 0.733509 -0.488359
vt 0.670489 -0.444306
vt 0.649289 -0.436868
vt 0.602283 -0.430907
vt 0.591101 -0.48314
vt 0.659298 -0.486407
vt 0.559996 -0.422737
vt 0.559125 -0.483736
vt 0.863018 -0.111448
vt 0.843231 -0.111031
vt 0.866992 -0.170158
vt 0.841544 -0.177954
vt 0.840054 -0.255626
vt 0.864722 -0.244611
vt 0.925167 -0.112164
vt 0.927103 -0.159317
vt 0.954276 -0.147803
vt 0.926952 -0.226383
vt 0.951203 -0.233573
vt 0.911584 -0.121577
vt 0.898366 -0.114734
vt 0.891289 -0.161207
vt 0.892527 -0.233701
vt 0.88606 -0.115809
vt 0.864821 -0.288259
vt 0.844277 -0.292554
vt 0.844823 -0.394577
vt 0.868096 -0.391231
vt 0.842126 -0.461269
vt 0.865017 -0.453491
vt 0.949963 -0.277245
vt 0.92342 -0.27387
vt 0.919228 -0.366704
vt 0.954366 -0.380658
vt 0.907296 -0.449837
vt 0.957326 -0.455426
vt 0.8935 -0.278527
vt 0.887762 -0.380999
vt 0.883541 -0.446836
vt 0.897534 -0.059442
vt 0.886667 -0.065151
vt 0.898768 -0.024866
vt 0.885021 -0.026206
vt 0.697215 -0.38226
vt 0.716392 -0.226034
vt 0.86566 -0.066431
vt 0.867962 -0.024353
vt 0.856743 -0.024579
vt 0.854629 -0.084885
vt 0.701421 -0.329308
vt 0.731351 -0.332606
vt 0.691444 -0.309285
vt 0.793018 -0.339783
vt 0.791925 -0.293085
vt 0.911347 -0.062147
vt 0.9103 -0.084289
vt 0.944613 -0.060521
vt 0.925453 -0.087506
vt 0.953871 -0.104738
vt 0.649141 -0.383871
vt 0.621279 -0.39515
vt 0.954533 -0.024741
vt 0.661934 -0.377661
vt 0.684231 -0.23011
vt 0.500002 -0.531435
vt 0.793225 -0.584566
vt 0.793357 -0.617487
vt 0.793221 -0.489409
vt 0.582294 -0.263468
vt 0.590677 -0.2735
vt 0.671566 -0.328949
vt 0.792377 -0.26123
vt 0.64583 -0.350939
vt 0.626532 -0.351996
vt 0.847271 -0.030936
vt 0.499982 -0.486038
vt 0.935896 -0.064764
vt 0.396024 -0.300641
vt 0.392807 -0.314765
vt 0.461512 -0.317358
vt 0.454585 -0.296499
vt 0.391571 -0.342676
vt 0.391397 -0.39134
vt 0.442461 -0.390326
vt 0.457296 -0.346424
vt 0.250748 -0.247995
vt 0.259757 -0.292713
vt 0.312054 -0.293883
vt 0.302521 -0.253202
vt 0.348973 -0.550831
vt 0.351226 -0.537874
vt 0.273761 -0.536797
vt 0.274709 -0.550963
vt 0.412527 -0.534559
vt 0.38855 -0.558914
vt 0.447658 -0.532502
vt 0.415928 -0.571829
vt 0.458575 -0.574476
vt 0.206817 -0.534981
vt 0.206775 -0.551143
vt 0.270975 -0.437539
vt 0.274481 -0.386854
vt 0.206717 -0.385882
vt 0.206713 -0.436914
vt 0.381527 -0.616366
vt 0.416191 -0.617119
vt 0.385178 -0.579676
vt 0.499422 -0.577875
vt 0.442836 -0.616897
vt 0.488679 -0.617541
vt 0.273928 -0.586959
vt 0.333543 -0.587678
vt 0.277603 -0.61746
vt 0.336081 -0.617534
vt 0.265649 -0.488838
vt 0.329347 -0.44372
vt 0.350728 -0.43725
vt 0.340353 -0.486598
vt 0.408614 -0.483244
vt 0.39775 -0.430885
vt 0.440913 -0.484061
vt 0.439967 -0.422832
vt 0.137031 -0.111595
vt 0.132987 -0.170182
vt 0.156769 -0.111031
vt 0.135322 -0.244335
vt 0.159611 -0.254487
vt 0.158456 -0.177954
vt 0.074848 -0.112395
vt 0.045724 -0.147803
vt 0.072897 -0.159317
vt 0.048513 -0.234896
vt 0.073316 -0.226553
vt 0.087796 -0.119956
vt 0.10874 -0.161153
vt 0.101828 -0.113824
vt 0.107536 -0.233471
vt 0.113674 -0.116057
vt 0.135179 -0.288259
vt 0.131789 -0.39159
vt 0.155184 -0.394236
vt 0.155723 -0.292554
vt 0.134591 -0.452981
vt 0.158374 -0.456918
vt 0.050037 -0.277245
vt 0.045408 -0.380657
vt 0.081068 -0.368201
vt 0.07658 -0.27387
vt 0.042782 -0.456172
vt 0.090633 -0.45142
vt 0.112443 -0.380798
vt 0.1065 -0.278527
vt 0.116727 -0.447448
vt 0.102466 -0.059442
vt 0.113333 -0.065151
vt 0.114996 -0.025988
vt 0.101554 -0.023231
vt 0.302885 -0.382418
vt 0.281838 -0.227325
vt 0.13434 -0.066431
vt 0.145371 -0.084885
vt 0.143257 -0.024579
vt 0.132038 -0.024353
vt 0.298579 -0.329308
vt 0.308619 -0.30986
vt 0.26859 -0.332541
vt 0.207002 -0.339777
vt 0.207282 -0.293456
vt 0.08878 -0.062478
vt 0.089544 -0.085196
vt 0.054149 -0.061816
vt 0.046129 -0.104738
vt 0.074013 -0.086011
vt 0.378562 -0.395135
vt 0.350983 -0.383802
vt 0.048141 -0.028587
vt 0.338091 -0.377617
vt 0.315186 -0.230839
vt 0.206783 -0.584566
vt 0.206643 -0.617485
vt 0.206784 -0.489408
vt 0.419062 -0.261541
vt 0.416764 -0.272721
vt 0.32945 -0.330317
vt 0.20644 -0.254642
vt 0.35358 -0.34929
vt 0.373511 -0.35206
vt 0.155548 -0.031216
vt 0.068713 -0.06737
vt 0.466189 -0.34692
vt 0.46986 -0.390713
vt 0.476582 -0.422595
vt 0.520381 -0.422668
vt 0.528394 -0.390488
vt 0.533302 -0.346866
vt 0.417969 -0.617188
vt 0.378906 -0.617188
vt 0.335938 -0.617188
vt 0.277344 -0.617188
vt 0.453125 -0.617188
vt 0.207031 -0.617188
vt 0.488281 -0.617188
vt 0.664063 -0.617188
vt 0.621094 -0.617188
vt 0.582031 -0.617188
vt 0.722656 -0.617188
vt 0.542969 -0.617188
vt 0.792969 -0.617188
vt 0.519531 -0.617188
vt 0.499138 -0.57827
vt 0.487784 -0.61771
vt 0.501783 -0.602644
vt 0.500701 -0.601618
vt 0.520103 -0.617589
vt 0.499767 -0.577415
vt 0.500443 -0.415935
vt 0.256528 -0.227274
vt 0.500922 -0.366822
vt 0.222579 -0.236683
vt 0.777979 -0.246669
vt 0.74473 -0.233924
# 222 normals
vn 0.0901802 0.456184 -0.883846
vn 0.0869729 0.587121 -0.802571
vn 0.238157 0.428688 -0.869865
vn 0.228184 0.210858 -0.949925
vn 0.505779 -0.188888 -0.749819
vn 0.259813 0.304319 -0.911906
vn 0.408158 0.0991146 -0.898476
vn 0.790284 -0.140558 -0.335607
vn 0.230821 0.886795 0.375585
vn 0.222205 0.946873 0.119701
vn 0.304338 0.581984 0.747223
vn 0.203 0.598126 0.770352
vn 0.903481 0.116508 0.406416
vn 0.366063 0.196649 0.907525
vn 0.346164 0.175656 0.918804
vn 0.905523 0.100127 0.405472
vn 0.898138 -0.0713631 -0.425371
vn 0.951713 -0.0950424 -0.286918
vn 0.399175 -0.134635 -0.892016
vn 0.2601 -0.129755 -0.914684
vn 0.683251 -0.147781 -0.699217
vn -0.0131168 0.218975 0.973684
vn -0.0142072 0.195482 0.97828
vn 0.348035 0.0282452 0.926393
vn 0.0381551 0.062628 0.981215
vn 0.0509791 0.0569564 0.984343
vn 0.316397 0.0472624 0.939665
vn 0.953336 -0.00271467 -0.293897
vn 0.955341 -0.044748 -0.288872
vn 0.198537 -0.0459908 -0.916952
vn 0.00952628 -0.0162993 -0.949506
vn 0.191316 0.0873625 -0.911406
vn 0.335026 0.0744309 -0.876055
vn 0.191398 -0.00801527 -0.938489
vn 0.890925 0.126815 0.434924
vn 0.335078 0.211948 0.917835
vn 0.893711 0.149261 0.423086
vn 0.175492 0.0255905 0.984148
vn 0.367054 0.117239 0.914817
vn 0.745129 0.0249363 0.654207
vn 0.983379 0.0238827 0.135705
vn 0.909231 0.039453 -0.393392
vn 0.911528 -0.00375381 -0.39001
vn 0.894168 0.0886079 0.42153
vn 0.437901 -0.014331 -0.887466
vn 0.442785 -0.0567361 -0.883748
vn 0.582597 -0.14478 -0.799762
vn -0.687984 -0.339613 -0.64136
vn 0.732202 -0.125427 -0.669438
vn -0.661541 -0.323249 -0.676664
vn -0.680029 -0.21072 -0.696746
vn 0.727624 0.00886646 -0.682224
vn -0.805444 -0.114382 0.463775
vn -0.717367 0.0673616 0.693431
vn -0.696539 -0.0859357 0.708549
vn -0.175358 0.19287 0.965428
vn 0.580762 0.302951 0.742821
vn 0.649396 0.274813 0.706752
vn 0.672045 0.128893 0.723663
vn 0.824304 0.354801 -0.0730575
vn 0.701301 0.100884 -0.705691
vn -0.710902 -0.109087 -0.69478
vn -0.715683 -0.0713158 -0.694054
vn 0.702672 0.119676 -0.700817
vn -0.705911 -0.0294436 -0.706482
vn 0.657735 0.165007 -0.731007
vn -0.668472 -0.253418 0.698624
vn -0.654604 -0.274807 0.701373
vn -0.613353 -0.275247 0.734574
vn 0.7211 -0.0426723 0.690668
vn 0.735402 -0.0582184 0.675026
vn 0.736766 -0.0564734 0.672954
vn 0.215095 0.919437 0.325807
vn 0.141102 0.927054 -0.338697
vn 0.0423683 0.885542 -0.425092
vn 0.600938 -0.10786 0.720304
vn 0.0519186 0.906728 -0.373732
vn 0.21056 0.346901 -0.833862
vn 0.201755 -0.211017 -0.926117
vn 0.539786 0.10131 0.81601
vn 0.210315 0.202283 0.952322
vn 0.335562 0.103183 0.926861
vn 0.0670014 0.172118 0.973746
vn -0.0267593 0.495018 0.868178
vn 0.302252 -0.791062 -0.0161845
vn 0.374437 -0.589782 0.588133
vn 0.972484 -0.0304504 -0.156209
vn 0.947974 -0.0366035 -0.0680276
vn 0.84602 -0.189751 0.227394
vn 0.0163383 -0.133791 -0.985634
vn -0.0115225 0.238993 0.970794
vn -0.0193144 0.0844013 0.996245
vn -0.016584 0.136154 0.983999
vn -0.0255672 0.737206 0.674029
vn 0.941477 0.0992232 -0.153946
vn 0.0179476 -0.0831274 -0.989626
vn -0.0514212 0.455946 -0.888301
vn -0.187302 0.21008 -0.959525
vn -0.209539 0.425318 -0.879767
vn -0.0624471 0.580706 -0.808703
vn -0.455316 -0.208322 -0.836851
vn -0.770408 -0.173346 -0.452802
vn -0.373018 0.0897039 -0.915026
vn -0.227101 0.297428 -0.92266
vn -0.253817 0.895732 0.362578
vn -0.241236 0.60318 0.75546
vn -0.344697 0.580225 0.727819
vn -0.233787 0.947784 0.0938913
vn -0.906462 0.189536 0.369661
vn -0.911729 0.165503 0.367298
vn -0.374875 0.199004 0.902363
vn -0.391824 0.226275 0.889491
vn -0.880381 -0.0098451 -0.467463
vn -0.940997 -0.0142818 -0.33545
vn -0.371007 -0.112609 -0.917327
vn -0.659373 -0.0963782 -0.74418
vn -0.23364 -0.117671 -0.960405
vn -0.380681 0.0238292 0.912189
vn -0.353688 0.039577 0.925704
vn -0.937338 0.0713494 -0.33847
vn -0.169671 -0.045857 -0.977135
vn -0.943238 0.0279625 -0.329804
vn -0.292373 0.071264 -0.923459
vn -0.142623 0.071094 -0.929818
vn -0.356842 0.244608 0.901361
vn -0.894649 0.205261 0.395401
vn -0.219892 0.0521935 0.974127
vn -0.894359 0.234585 0.380909
vn -0.398401 0.124408 0.899379
vn -0.76815 0.0104728 0.624492
vn -0.987788 0.00306552 0.0961218
vn -0.907662 0.0943305 0.385492
vn -0.8973 0.00443406 -0.424065
vn -0.894232 0.0223989 -0.429431
vn -0.411612 -0.0497809 -0.901262
vn -0.404002 -0.0227419 -0.904625
vn -0.55525 -0.147092 -0.818573
vn -0.70918 -0.126587 -0.69357
vn 0.708479 -0.34512 -0.615589
vn -0.714341 -0.0544426 -0.694018
vn 0.689812 -0.292856 -0.656224
vn 0.683319 -0.32886 -0.651864
vn 0.782108 -0.0980306 0.518762
vn 0.693335 0.0686947 0.717334
vn 0.681535 -0.0191696 0.727802
vn 0.143511 0.196618 0.969921
vn -0.669314 0.29786 0.67824
vn -0.599652 0.298722 0.708395
vn -0.683558 0.214566 0.691803
vn -0.790341 0.312887 -0.158103
vn -0.696207 -0.0270902 -0.71733
vn -0.697668 -0.00888885 -0.71476
vn 0.71233 -0.220887 -0.661934
vn 0.710155 -0.265001 -0.652268
vn -0.654666 0.016514 -0.743688
vn 0.697754 -0.179459 -0.685684
vn 0.645026 -0.118094 0.746575
vn 0.658834 -0.12809 0.740727
vn 0.654243 -0.0937099 0.732627
vn -0.738332 0.0981745 0.666648
vn -0.725112 0.109697 0.678969
vn -0.735322 0.111752 0.663484
vn -0.225087 0.919502 0.315414
vn -0.118997 0.926044 -0.347271
vn -0.0331367 0.877611 -0.447645
vn -0.625255 -0.12925 0.642387
vn -0.0460044 0.909306 -0.393092
vn -0.152741 0.311404 -0.862654
vn -0.14938 -0.218757 -0.952689
vn -0.574945 0.080994 0.758669
vn -0.377415 0.0897738 0.887748
vn -0.255529 0.194618 0.935169
vn -0.288178 -0.785171 -0.0685547
vn -0.387525 -0.592052 0.54594
vn -0.942115 -0.0635845 -0.139115
vn -0.964722 -0.0544435 -0.203661
vn -0.847957 -0.220256 0.121433
vn -0.933267 0.0724141 -0.22716
vn -0.0732478 0.320928 -0.941438
vn -0.0846103 0.10474 -0.982814
vn -0.0800819 -0.0449535 -0.985546
vn 0.11748 -0.0437408 -0.981471
vn 0.123519 0.105002 -0.978558
vn 0.106806 0.322429 -0.937636
vn -0.145294 -0.969587 0.118899
vn -0.1576 -0.962588 0.115424
vn -0.157992 -0.962379 0.115315
vn -0.144426 -0.970113 0.119147
vn 0.116209 -0.984815 -0.0992559
vn 0.129146 -0.979763 -0.115054
vn 0.128775 -0.979909 -0.1146
vn 0.117041 -0.984493 -0.100272
vn -0.0165904 -0.987951 0.0397605
vn -0.0456509 -0.986144 0.100896
vn -0.0808043 -0.98121 0.175208
vn -0.0126845 -0.965275 -0.0181353
vn -0.0506342 -0.986247 0.157334
vn 0.53008 -0.796219 -0.0449487
vn -0.0264614 -0.984323 0.174381
vn -0.0404011 -0.949428 0.0937828
vn -0.0527878 -0.932247 0.0267649
vn -0.06491 -0.92577 -0.0353826
vn -0.518688 -0.789084 -0.068883
vn 0.0581222 -0.934278 -0.15339
vn 0.918625 0.261934 -0.272153
vn 0.00513511 0.764257 -0.634457
vn -0.0239402 0.462871 -0.870685
vn 0.563548 0.417883 -0.711657
vn 0.845881 0.459867 -0.23896
vn 0.0109593 0.462332 -0.884404
vn 0.935343 0.119462 -0.315258
vn 0.915331 0.169243 -0.360318
vn 0.880376 0.358773 -0.308459
vn 0.870861 0.459258 -0.153414
vn 0.0167166 0.330116 -0.943013
vn -0.520437 0.407243 -0.738351
vn -0.828582 0.450145 -0.28001
vn -0.874375 0.441687 -0.184291
vn -0.870012 0.345139 -0.342191
vn -0.928427 0.119268 -0.333668
vn -0.905506 0.15894 -0.386699
vn -0.919963 0.241298 -0.277956
usemtl _13_-_Defaultaaaaa
g Bob_SuitJacket
s off
f 1/1/1 2/3/3 3/2/2
f 2/3/3 1/1/1 4/4/4
f 5/5/5 6/7/7 7/6/6
f 6/7/7 5/5/5 8/8/8
f 9/9/9 10/11/11 11/10/10
f 10/11/11 9/9/9 12/12/12
f 13/13/13 14/15/15 15/14/14
f 14/15/15 13/13/13 16/16/16
f 17/17/17 13/13/13 18/18/18
f 13/13/13 17/17/17 16/16/16
f 19/19/19 20/21/21 21/20/20
f 20/21/21 19/19/19 17/17/17
f 15/14/14 22/23/23 23/22/22
f 22/23/23 15/14/14 14/15/15
f 24/24/24 25/26/26 26/25/25
f 25/26/26 24/24/24 27/27/27
f 28/28/28 20/21/21 29/29/29
f 20/21/21 28/28/28 30/30/30
f 31/31/31 32/33/33 33/32/32
f 32/33/33 31/31/31 21/20/34
f 15/14/14 34/34/35 13/13/13
f 34/34/35 15/14/14 35/35/36
f 35/35/36 36/36/37 34/34/35
f 36/36/37 35/35/36 37/37/38
f 13/13/13 29/29/29 18/18/18
f 29/29/29 13/13/13 34/34/35
f 34/34/35 28/28/28 29/29/29
f 28/28/28 34/34/35 36/36/37
f 38/38/39 39/39/40 24/24/24
f 40/40/41 41/42/43 42/41/42
f 41/42/43 40/40/41 43/43/44
f 41/42/43 44/44/45 42/41/42
f 44/44/45 41/42/43 45/45/46
f 46/46/47 47/48/49 48/47/48
f 47/48/49 49/50/51 50/49/50
f 49/50/51 47/48/49 51/51/52
f 52/52/53 50/54/50 53/53/54
f 50/54/50 54/55/55 53/53/54
f 54/55/55 50/54/50 49/56/51
f 55/57/56 56/59/58 57/58/57
f 55/57/56 53/53/54 56/59/58
f 55/57/56 52/52/53 53/53/54
f 53/53/54 58/60/59 56/59/58
f 58/60/59 53/53/54 54/55/55
f 59/61/60 56/59/58 47/48/49
f 56/59/58 51/51/52 47/48/49
f 51/51/52 56/59/58 58/60/59
f 60/62/61 61/64/63 62/63/62
f 61/64/63 60/62/61 63/65/64
f 63/65/64 64/66/65 61/64/63
f 64/66/65 63/65/64 65/67/66
f 62/68/62 66/70/68 67/69/67
f 66/70/68 62/68/62 61/71/63
f 61/71/63 68/72/69 66/70/68
f 68/72/69 61/71/63 64/73/65
f 67/69/67 69/75/71 70/74/70
f 69/75/71 67/69/67 66/70/68
f 66/70/68 71/76/72 69/75/71
f 71/76/72 66/70/68 68/72/69
f 70/74/70 63/65/64 60/62/61
f 63/65/64 70/74/70 69/75/71
f 69/75/71 65/67/66 63/65/64
f 65/67/66 69/75/71 71/76/72
f 58/60/59 60/62/61 51/51/52
f 60/62/61 58/60/59 70/74/70
f 51/51/52 62/63/62 49/50/51
f 62/63/62 51/51/52 60/62/61
f 54/55/55 62/68/62 67/69/67
f 62/68/62 54/55/55 49/56/51
f 67/69/67 58/60/59 54/55/55
f 58/60/59 67/69/67 70/74/70
f 72/77/73 59/61/60 73/78/74
f 59/61/60 72/77/73 57/58/57
f 73/78/74 11/79/10 72/77/73
f 11/79/10 73/78/74 74/80/75
f 39/39/40 27/27/27 24/24/24
f 27/27/27 39/39/40 75/81/76
f 11/10/10 76/82/77 9/9/9
f 77/83/78 4/85/4 1/84/1
f 4/85/4 77/83/78 78/86/79
f 46/46/47 78/86/79 77/83/78
f 79/87/80 12/12/12 80/88/81
f 79/87/80 10/11/11 12/12/12
f 79/87/80 81/89/82 10/11/11
f 82/90/83 12/12/12 83/91/84
f 12/12/12 82/90/83 80/88/81
f 72/77/73 11/79/10 10/92/11
f 57/58/57 81/93/82 55/57/56
f 57/58/57 10/92/11 81/93/82
f 57/58/57 72/77/73 10/92/11
f 84/94/85 52/52/53 85/95/86
f 52/52/53 84/94/85 48/96/48
f 42/41/42 86/97/87 40/40/41
f 86/97/87 42/41/42 87/98/88
f 5/99/5 48/96/48 84/94/85
f 8/8/8 87/98/88 42/41/42
f 86/97/87 88/100/89 40/40/41
f 21/20/20 30/30/30 32/33/33
f 20/21/21 30/30/30 21/20/20
f 17/17/17 18/18/18 20/21/21
f 18/18/18 29/29/29 20/21/21
f 76/82/77 11/10/10 74/101/75
f 21/20/20 89/102/90 19/19/19
f 89/102/90 21/20/20 31/31/31
f 23/22/22 35/35/36 15/14/14
f 35/35/36 23/22/22 90/103/91
f 35/35/36 91/104/92 37/37/38
f 91/104/92 35/35/36 90/103/91
f 50/54/50 52/52/53 48/96/48
f 48/47/48 47/48/49 50/49/50
f 45/45/46 17/17/17 19/19/19
f 17/17/17 45/45/46 41/42/43
f 41/42/43 16/16/16 17/17/17
f 16/16/16 41/42/43 43/43/44
f 16/16/16 38/38/39 14/15/15
f 38/38/39 16/16/16 43/43/44
f 14/15/15 92/105/93 22/23/23
f 92/105/93 14/15/15 38/38/39
f 76/106/77 74/107/75 3/2/2
f 3/2/2 74/107/75 1/1/1
f 1/84/1 73/78/74 77/83/78
f 73/78/74 1/84/1 74/80/75
f 77/83/78 59/61/60 46/46/47
f 59/61/60 77/83/78 73/78/74
f 59/61/60 47/48/49 46/46/47
f 56/59/58 59/61/60 57/58/57
f 43/43/44 40/40/41 39/39/40
f 79/87/80 85/108/86 81/89/82
f 40/40/41 75/81/76 39/39/40
f 75/81/76 40/40/41 88/100/89
f 39/39/40 38/38/39 43/43/44
f 93/109/94 12/12/12 9/9/9
f 27/27/27 82/90/83 25/26/26
f 82/90/83 27/27/27 80/88/81
f 80/88/81 75/81/76 79/87/80
f 75/81/76 80/88/81 27/27/27
f 75/81/76 85/108/86 79/87/80
f 85/108/86 75/81/76 88/100/89
f 85/108/86 86/97/87 94/110/95
f 86/97/87 85/108/86 88/100/89
f 94/110/95 87/98/88 84/111/85
f 87/98/88 94/110/95 86/97/87
f 8/8/8 84/111/85 87/98/88
f 84/111/85 8/8/8 5/5/5
f 44/44/45 8/8/8 42/41/42
f 8/8/8 44/44/45 6/7/7
f 7/6/6 4/4/4 5/5/5
f 4/4/4 7/6/6 2/3/3
f 5/112/5 78/86/79 48/47/48
f 78/86/79 5/112/5 4/85/4
f 78/86/79 46/46/47 48/47/48
f 55/57/56 85/95/86 52/52/53
f 85/95/86 55/57/56 81/93/82
f 26/25/25 38/38/39 24/24/24
f 38/38/39 26/25/25 92/105/93
f 93/109/94 83/91/84 12/12/12
f 19/19/19 95/113/96 45/45/46
f 95/113/96 19/19/19 89/102/90
f 84/94/85 85/95/86 94/114/95
f 96/115/97 97/117/99 98/116/98
f 97/117/99 96/115/97 99/118/100
f 100/119/101 101/121/103 102/120/102
f 101/121/103 100/119/101 103/122/104
f 104/123/105 105/125/107 106/124/106
f 105/125/107 104/123/105 107/126/108
f 108/127/109 109/129/111 110/128/110
f 109/129/111 108/127/109 111/130/112
f 112/131/113 108/127/109 110/128/110
f 108/127/109 112/131/113 113/132/114
f 114/133/115 115/134/116 112/131/113
f 115/134/116 114/133/115 116/135/117
f 111/130/112 22/136/23 109/129/111
f 22/136/23 111/130/112 23/137/22
f 117/138/118 25/140/26 118/139/119
f 25/140/26 117/138/118 26/141/25
f 119/142/120 115/134/116 120/143/121
f 115/134/116 119/142/120 121/144/122
f 31/145/31 122/146/123 116/135/117
f 122/146/123 31/145/31 123/147/124
f 111/130/112 124/149/126 125/148/125
f 124/149/126 111/130/112 108/127/109
f 125/148/125 126/151/128 127/150/127
f 126/151/128 125/148/125 124/149/126
f 108/127/109 121/144/122 124/149/126
f 121/144/122 108/127/109 113/132/114
f 124/149/126 119/142/120 126/151/128
f 119/142/120 124/149/126 121/144/122
f 128/152/129 117/138/118 129/153/130
f 130/154/131 131/156/133 132/155/132
f 131/156/133 130/154/131 133/157/134
f 131/156/133 134/159/136 135/158/135
f 134/159/136 131/156/133 133/157/134
f 136/160/137 137/162/139 138/161/138
f 138/161/138 139/164/141 140/163/140
f 139/164/141 138/161/138 141/165/142
f 142/166/143 143/168/144 141/167/142
f 141/167/142 144/170/145 139/169/141
f 144/170/145 141/167/142 143/168/144
f 145/171/146 143/168/144 142/166/143
f 145/171/146 146/172/147 143/168/144
f 145/171/146 147/173/148 146/172/147
f 143/168/144 148/174/149 144/170/145
f 148/174/149 143/168/144 146/172/147
f 149/175/150 138/161/138 146/172/147
f 146/172/147 140/163/140 148/174/149
f 140/163/140 146/172/147 138/161/138
f 150/176/151 151/178/153 152/177/152
f 151/178/153 150/176/151 153/179/154
f 152/177/152 154/181/156 155/180/155
f 154/181/156 152/177/152 151/178/153
f 153/182/154 156/184/157 151/183/153
f 156/184/157 153/182/154 157/185/158
f 151/183/153 158/187/159 154/186/156
f 158/187/159 151/183/153 156/184/157
f 157/185/158 159/188/160 156/184/157
f 159/188/160 157/185/158 160/189/161
f 156/184/157 161/190/162 158/187/159
f 161/190/162 156/184/157 159/188/160
f 160/189/161 152/177/152 159/188/160
f 152/177/152 160/189/161 150/176/151
f 159/188/160 155/180/155 161/190/162
f 155/180/155 159/188/160 152/177/152
f 148/174/149 150/176/151 160/189/161
f 150/176/151 148/174/149 140/163/140
f 140/163/140 153/179/154 150/176/151
f 153/179/154 140/163/140 139/164/141
f 144/170/145 153/182/154 139/169/141
f 153/182/154 144/170/145 157/185/158
f 157/185/158 148/174/149 160/189/161
f 148/174/149 157/185/158 144/170/145
f 162/191/163 149/175/150 147/173/148
f 149/175/150 162/191/163 163/192/164
f 163/192/164 107/194/108 164/193/165
f 107/194/108 163/192/164 162/191/163
f 129/153/130 118/139/119 165/195/166
f 118/139/119 129/153/130 117/138/118
f 107/126/108 104/123/105 166/196/167
f 167/197/168 98/199/98 168/198/169
f 98/199/98 167/197/168 96/200/97
f 136/160/137 167/197/168 168/198/169
f 169/201/170 105/125/107 170/202/171
f 169/201/170 106/124/106 105/125/107
f 169/201/170 171/203/172 106/124/106
f 82/204/83 106/124/106 171/203/172
f 106/124/106 82/204/83 83/205/84
f 162/191/163 105/206/107 107/194/108
f 147/173/148 105/206/107 162/191/163
f 147/173/148 170/207/171 105/206/107
f 147/173/148 145/171/146 170/207/171
f 172/208/173 142/166/143 137/209/139
f 142/166/143 172/208/173 173/210/174
f 133/157/134 174/212/176 175/211/175
f 174/212/176 133/157/134 130/154/131
f 100/213/101 172/208/173 137/209/139
f 102/120/102 133/157/134 175/211/175
f 174/212/176 130/154/131 176/214/177
f 116/135/117 122/146/123 120/143/121
f 115/134/116 116/135/117 120/143/121
f 112/131/113 115/134/116 113/132/114
f 113/132/114 115/134/116 121/144/122
f 166/196/167 164/215/165 107/126/108
f 116/135/117 89/102/90 31/145/31
f 89/102/90 116/135/117 114/133/115
f 23/137/22 125/148/125 90/216/91
f 125/148/125 23/137/22 111/130/112
f 125/148/125 91/217/92 90/216/91
f 91/217/92 125/148/125 127/150/127
f 141/167/142 137/209/139 142/166/143
f 137/162/139 141/165/142 138/161/138
f 135/158/135 112/131/113 131/156/133
f 112/131/113 135/158/135 114/133/115
f 131/156/133 110/128/110 132/155/132
f 110/128/110 131/156/133 112/131/113
f 110/128/110 128/152/129 132/155/132
f 128/152/129 110/128/110 109/129/111
f 109/129/111 92/218/93 128/152/129
f 92/218/93 109/129/111 22/136/23
f 166/219/167 99/118/100 164/220/165
f 99/118/100 96/115/97 164/220/165
f 96/200/97 163/192/164 164/193/165
f 163/192/164 96/200/97 167/197/168
f 167/197/168 149/175/150 163/192/164
f 149/175/150 167/197/168 136/160/137
f 149/175/150 136/160/137 138/161/138
f 146/172/147 147/173/148 149/175/150
f 132/155/132 129/153/130 130/154/131
f 169/201/170 170/202/171 173/221/174
f 130/154/131 165/195/166 176/214/177
f 165/195/166 130/154/131 129/153/130
f 129/153/130 132/155/132 128/152/129
f 93/222/94 104/123/105 106/124/106
f 118/139/119 82/204/83 171/203/172
f 82/204/83 118/139/119 25/140/26
f 171/203/172 165/195/166 118/139/119
f 165/195/166 171/203/172 169/201/170
f 165/195/166 173/221/174 176/214/177
f 173/221/174 165/195/166 169/201/170
f 173/221/174 174/212/176 176/214/177
f 174/212/176 173/221/174 177/223/178
f 177/223/178 175/211/175 174/212/176
f 175/211/175 177/223/178 172/224/173
f 102/120/102 172/224/173 100/119/101
f 172/224/173 102/120/102 175/211/175
f 134/159/136 102/120/102 101/121/103
f 102/120/102 134/159/136 133/157/134
f 103/122/104 98/116/98 97/117/99
f 98/116/98 103/122/104 100/119/101
f 100/225/101 168/198/169 98/199/98
f 168/198/169 100/225/101 137/162/139
f 168/198/169 137/162/139 136/160/137
f 145/171/146 173/210/174 170/207/171
f 173/210/174 145/171/146 142/166/143
f 26/141/25 128/152/129 92/218/93
f 128/152/129 26/141/25 117/138/118
f 93/222/94 106/124/106 83/205/84
f 95/113/96 114/133/115 135/158/135
f 114/133/115 95/113/96 89/102/90
f 172/208/173 177/226/178 173/210/174
f 97/117/99 178/227/179 103/122/104
f 103/122/104 179/228/180 101/121/103
f 179/228/180 103/122/104 178/227/179
f 101/121/103 180/229/181 134/159/136
f 180/229/181 101/121/103 179/228/180
f 180/229/181 135/158/135 134/159/136
f 135/158/135 180/229/181 95/113/96
f 45/45/46 181/230/182 44/44/45
f 181/230/182 45/45/46 95/113/96
f 44/44/45 182/231/183 6/7/7
f 182/231/183 44/44/45 181/230/182
f 182/231/183 7/6/6 6/7/7
f 7/6/6 182/231/183 183/232/184
f 183/232/184 2/3/3 7/6/6
f 161/190/185 154/181/187 158/187/186
f 154/181/187 161/190/185 155/180/188
f 65/67/189 68/72/191 64/66/190
f 68/72/191 65/67/189 71/76/192
f 120/233/193 126/235/195 119/234/194
f 120/233/193 127/236/195 126/235/195
f 122/237/196 127/236/195 120/233/193
f 122/237/196 91/238/197 127/236/195
f 123/239/198 91/238/197 122/237/196
f 36/240/199 30/242/201 28/241/200
f 37/243/199 30/242/201 36/240/199
f 37/243/199 32/244/202 30/242/201
f 91/245/197 32/244/202 37/243/199
f 33/246/203 32/244/202 91/245/197
f 31/247/204 91/249/197 123/248/198
f 91/250/197 31/252/204 33/251/203
f 180/229/205 184/253/207 95/113/206
f 104/123/208 185/254/210 166/196/209
f 179/228/211 184/253/207 180/229/205
f 179/228/211 185/255/210 184/253/207
f 185/255/210 179/228/211 178/227/212
f 97/117/213 185/255/210 178/227/212
f 99/118/214 185/255/210 97/117/213
f 166/219/209 185/255/210 99/118/214
f 93/222/215 185/256/210 104/123/208
f 9/9/216 185/257/210 93/109/215
f 76/82/217 185/258/210 9/9/216
f 3/2/218 185/255/210 76/106/217
f 2/3/219 185/255/210 3/2/218
f 182/231/220 185/255/210 183/232/221
f 185/255/210 182/231/220 184/253/207
f 185/255/210 2/3/219 183/232/221
f 184/253/207 181/230/222 95/113/206
f 184/253/207 182/231/220 181/230/222
