# Wavefront OBJ
# Created by fragMOTION 1.3.7
# http://www.fragmosoft.com

mtllib Bob_CodPiece.mtl
# 61 vertices
v 0.0551724 0.581666 0.0655976
v 0.0959766 0.55922 0.0464145
v 0.0936509 0.580584 0.0395504
v 0.0533904 0.560472 0.0745434
v 0.0860248 0.568538 -0.029227
v 0.0934556 0.551926 -0.00461661
v 0.0859676 0.545749 -0.0277193
v 0.0495663 0.531744 -0.050234
v 0.051927 0.494166 -0.0346404
v 0.020074 0.558788 0.0758765
v 0.00885912 0.581007 0.0651507
v 0.00836223 0.558714 0.0768114
v 0.00795755 0.487405 -0.0524745
v 0.0128694 0.450737 -0.00801144
v 0.00571216 0.455226 -0.0167831
v 0.00520678 0.449445 -0.0067945
v 0.0133797 0.515872 0.0964658
v 0.00592342 0.516348 0.0977758
v 0.0039271 0.474784 0.0989565
v 0.0112425 0.471482 0.0976086
v 0.00341654 0.461231 0.0935211
v 0.0032532 0.455033 0.0880345
v 0.0107011 0.456864 0.0880113
v 0.00444703 0.452171 0.0311975
v 0.00961788 0.558935 0.000493878
v 0.0101775 0.539111 -0.0592163
v -0.0372992 0.58489 0.0636035
v -0.0776724 0.566825 0.0424509
v -0.0363059 0.564496 0.0724799
v -0.0741282 0.586887 0.0358917
v -0.0646623 0.573991 -0.0324824
v -0.0741766 0.558264 -0.00827386
v -0.066201 0.551408 -0.0310265
v -0.0299893 0.534725 -0.0519844
v -0.0358497 0.498259 -0.037326
v -0.00368148 0.559934 0.0753165
v -0.00223476 0.451448 -0.00836447
v -0.00145574 0.516578 0.0961778
v -0.00359406 0.47218 0.0972618
v -0.00397971 0.457555 0.0876681
v 0.00976713 0.520405 -0.0722869
v 0.0910288 0.55652 0.0454501
v 0.0531488 0.55814 0.0700677
v 0.0846054 0.551396 -0.00503257
v 0.0469603 0.494982 -0.0259853
v 0.077904 0.543619 -0.0192967
v 0.0139421 0.462001 -0.00355794
v 0.0209966 0.557072 0.0714415
v 0.0140812 0.514297 0.0910618
v 0.0122808 0.477942 0.0938627
v 0.0119413 0.467651 0.0843337
v -0.0364074 0.561797 0.0647234
v -0.0717537 0.565546 0.0402971
v -0.0635506 0.557277 -0.00817223
v -0.0568174 0.548722 -0.0240598
v -0.0293625 0.498585 -0.0282533
v -0.00486256 0.558616 0.0707554
v -0.002672 0.462625 -0.00413473
v -0.00404656 0.479053 0.0934821
v -0.00224056 0.515371 0.0905523
v -0.00424059 0.468453 0.0837903
# 84 texture vertices
vt 0.734375 -0.527344
vt 0.648438 -0.527344
vt 0.65625 -0.550781
vt 0.734375 -0.550781
vt 0.582031 -0.527344
vt 0.605469 -0.550781
vt 0.589844 -0.550781
vt 0.534094 -0.547574
vt 0.539063 -0.589844
vt 0.773438 -0.550781
vt 0.785156 -0.550781
vt 0.785156 -0.527344
vt 0.500423 -0.589817
vt 0.5 -0.621094
vt 0.511719 -0.628906
vt 0.5 -0.632813
vt 0.773438 -0.585938
vt 0.785156 -0.585938
vt 0.785156 -0.617188
vt 0.777344 -0.617188
vt 0.785156 -0.621094
vt 0.777344 -0.625
vt 0.785156 -0.625
vt 0.777344 -0.636719
vt 0.785156 -0.636719
vt 0.683997 -0.521118
vt 0.619001 -0.523526
vt 0.566041 -0.531951
vt 0.5 -0.536863
vt 0.527002 -0.529908
vt 0.759825 -0.523526
vt 0.265625 -0.527344
vt 0.265625 -0.550781
vt 0.347656 -0.550781
vt 0.351563 -0.527344
vt 0.402344 -0.550781
vt 0.425781 -0.527344
vt 0.417969 -0.550781
vt 0.460938 -0.589844
vt 0.465235 -0.545629
vt 0.214844 -0.527344
vt 0.226563 -0.550781
vt 0.488281 -0.628906
vt 0.214844 -0.617188
vt 0.222656 -0.617188
vt 0.226563 -0.585938
vt 0.214844 -0.585938
vt 0.214844 -0.621094
vt 0.214844 -0.625
vt 0.222656 -0.625
vt 0.214844 -0.636719
vt 0.222656 -0.636719
vt 0.311511 -0.522208
vt 0.378173 -0.523596
vt 0.464844 -0.545777
vt 0.443938 -0.537336
vt 0.47904 -0.531497
vt 0.242071 -0.520819
vt 0.5 -0.553653
vt 0.214844 -0.550781
vt 0.65625 -0.554688
vt 0.734375 -0.554688
vt 0.605469 -0.554688
vt 0.542969 -0.59375
vt 0.589844 -0.554688
vt 0.515625 -0.628906
vt 0.769531 -0.554688
vt 0.769531 -0.585938
vt 0.773438 -0.617188
vt 0.773438 -0.625
vt 0.773438 -0.636719
vt 0.265625 -0.554688
vt 0.347656 -0.554688
vt 0.402344 -0.554688
vt 0.417969 -0.554688
vt 0.457031 -0.59375
vt 0.230469 -0.554688
vt 0.484375 -0.628906
vt 0.226563 -0.617188
vt 0.230469 -0.585938
vt 0.226563 -0.636719
vt 0.226563 -0.625
vt 0.214844 -0.644531
vt 0.785156 -0.644531
# 99 normals
vn 0.303422 0.350707 0.884188
vn 0.913158 0.19858 0.354709
vn 0.865705 0.242624 0.437448
vn 0.230812 0.383648 0.89387
vn 0.887043 0.0319798 -0.459126
vn 0.965807 0.216865 -0.140083
vn 0.733323 -0.08799 -0.673161
vn 0.517534 -0.173926 -0.836471
vn 0.451372 -0.417128 -0.774667
vn 0.0438874 0.448454 0.892605
vn 0.00191785 0.451586 0.892121
vn -0.00407225 0.42806 0.901927
vn -0.00699126 -0.561109 -0.808941
vn -0.0237919 -0.80218 -0.596608
vn 0.206794 -0.915861 -0.344144
vn -0.0418045 -0.981498 -0.186854
vn 0.160142 0.23563 0.955245
vn -0.0116798 0.231222 0.971168
vn -0.0291889 -0.127937 0.991353
vn 0.129055 -0.268243 0.954668
vn -0.0453135 -0.548391 0.834993
vn 0.247112 -0.844214 0.475646
vn -0.0524232 -0.909521 0.412338
vn -0.0483625 -0.996852 0.0628279
vn -0.15774 0.966321 -0.197212
vn -0.0907198 0.956529 -0.270476
vn 0.0422484 0.9351 -0.348278
vn -0.257514 0.890046 -0.372493
vn -0.0888986 0.845968 -0.522678
vn 0.0419467 0.947112 -0.314092
vn 0.0404233 0.943735 -0.322556
vn -0.315377 0.372484 0.870844
vn -0.236191 0.404807 0.883068
vn -0.859883 0.319873 0.397436
vn -0.909669 0.26914 0.314826
vn -0.939025 0.290552 -0.182339
vn -0.861294 0.0958941 -0.497653
vn -0.70753 -0.034543 -0.704961
vn -0.452183 -0.381718 -0.80393
vn -0.492313 -0.136371 -0.858642
vn -0.0415337 0.452628 0.890608
vn -0.275544 -0.893171 -0.355417
vn -0.198016 -0.252857 0.947023
vn -0.18067 0.251987 0.948181
vn -0.347134 -0.816259 0.461756
vn 0.238282 0.951446 -0.188569
vn 0.169288 0.947466 -0.264861
vn 0.337102 0.868529 -0.359647
vn 0.174116 0.836458 -0.517136
vn 0.0211497 -0.0138367 -0.998591
vn 0.147675 -0.876206 0.458067
vn 0.394036 -0.881735 0.257825
vn 0.403169 -0.859341 0.313558
vn 0.169908 -0.877267 0.448308
vn 0.0557898 -0.980212 0.183546
vn 0.131095 -0.969585 0.200702
vn 0.680927 -0.525427 0.508618
vn 0.71886 -0.497014 0.469408
vn 0.732205 -0.477754 0.476429
vn 0.67714 -0.522561 0.516381
vn 0.92466 -0.212811 0.315777
vn 0.916883 -0.223991 0.330383
vn 0.986403 -0.066112 0.14894
vn 0.973901 -0.0454403 0.222269
vn 0.974935 -0.0487609 0.216944
vn 0.9865 -0.0669858 0.147575
vn 0.988975 -0.0884532 0.11876
vn 0.983316 -0.0535851 0.173835
vn 0.993727 -0.100776 0.0484805
vn 0.994033 -0.0980703 0.0477546
vn -0.156354 -0.978677 0.129588
vn -0.208882 -0.924744 0.317134
vn -0.23147 -0.922145 0.308805
vn -0.146321 -0.982758 0.10777
vn -0.0914512 -0.976829 0.187247
vn -0.145892 -0.965422 0.210249
vn -0.733297 -0.371398 0.565524
vn -0.613173 -0.436897 0.656836
vn -0.622721 -0.438144 0.646932
vn -0.761575 -0.308044 0.567322
vn -0.166207 -0.938043 0.30364
vn -0.165622 -0.937457 0.305622
vn -0.955357 -0.13389 0.263376
vn -0.947411 -0.144912 0.285329
vn -0.337003 -0.90068 0.269876
vn -0.445386 -0.852383 0.269863
vn -0.990137 0.0350478 0.134308
vn -0.996353 -0.00981803 0.0847602
vn -0.986969 0.0245602 0.159024
vn -0.990082 0.0344678 0.134511
vn -0.999734 -0.0200252 0.0114136
vn -0.999578 -0.0212735 0.0197755
vn 0.0509109 -0.925364 0.375308
vn 0.0490443 -0.930168 0.36341
vn -0.972565 0.0471386 0.227688
vn -0.970871 0.049047 0.234378
vn 0.351802 -0.901771 0.246105
vn 0.473322 -0.846259 0.239482
vn 0.0389367 0.570893 -0.818656
usemtl _03_-_Defaultggg
g Bob_CodPiece
s off
f 1/1/1 2/3/3 3/2/2
f 2/3/3 1/1/1 4/4/4
f 2/3/3 5/5/5 3/2/2
f 5/5/5 2/3/3 6/6/6
f 7/7/7 8/8/8 5/5/5
f 8/8/8 7/7/7 9/9/9
f 10/10/10 11/12/12 12/11/11
f 13/13/13 14/15/15 15/14/14
f 14/15/15 13/13/13 9/9/9
f 5/5/5 6/6/6 7/7/7
f 14/15/15 16/16/16 15/14/14
f 17/17/17 12/11/11 18/18/18
f 12/11/11 17/17/17 10/10/10
f 19/19/19 17/17/17 18/18/18
f 17/17/17 19/19/19 20/20/20
f 19/19/19 21/21/21 20/20/20
f 21/21/21 22/23/23 23/22/22
f 23/22/22 24/25/24 14/24/15
f 3/2/25 25/26/27 1/1/26
f 5/5/28 25/27/27 3/2/25
f 8/8/29 25/28/27 5/5/28
f 26/29/30 25/30/27 8/8/29
f 1/1/26 25/31/27 11/12/31
f 27/32/32 28/34/34 29/33/33
f 28/34/34 27/32/32 30/35/35
f 28/34/34 31/37/37 32/36/36
f 31/37/37 28/34/34 30/35/35
f 33/38/38 34/40/40 35/39/39
f 34/40/40 33/38/38 31/37/37
f 11/41/12 29/33/33 36/42/41
f 29/33/33 11/41/12 27/32/32
f 37/43/42 13/13/13 15/14/14
f 13/13/13 37/43/42 35/39/39
f 31/37/37 33/38/38 32/36/36
f 37/43/42 15/14/14 16/16/16
f 19/44/19 38/46/44 39/45/43
f 38/46/44 19/44/19 18/47/18
f 19/44/19 39/45/43 21/48/21
f 21/48/21 40/50/45 22/49/23
f 40/50/45 37/52/42 24/51/24
f 30/35/46 27/32/47 25/53/27
f 31/37/48 30/35/46 25/54/27
f 34/55/49 31/37/48 25/56/27
f 26/29/30 34/55/49 25/57/27
f 27/32/47 11/41/31 25/58/27
f 20/20/20 21/21/21 23/22/22
f 21/48/21 39/45/43 40/50/45
f 35/39/39 34/40/40 13/13/13
f 34/40/40 41/59/50 13/13/13
f 41/59/50 8/8/8 13/13/13
f 8/8/8 9/9/9 13/13/13
f 11/12/12 4/4/4 1/1/1
f 4/4/4 11/12/12 10/10/10
f 11/41/12 36/42/41 12/60/11
f 38/46/44 12/60/11 36/42/41
f 12/60/11 38/46/44 18/47/18
f 23/22/22 22/23/23 24/25/24
f 22/49/23 40/50/45 24/51/24
f 4/4/51 42/61/53 2/3/52
f 42/61/53 4/4/51 43/62/54
f 2/3/52 44/63/56 6/6/55
f 44/63/56 2/3/52 42/61/53
f 7/7/57 45/64/59 9/9/58
f 45/64/59 7/7/57 46/65/60
f 9/9/58 47/66/62 14/15/61
f 47/66/62 9/9/58 45/64/59
f 17/17/63 48/67/65 10/10/64
f 48/67/65 17/17/63 49/68/66
f 20/20/67 49/68/66 17/17/63
f 49/68/66 20/20/67 50/69/68
f 14/24/61 51/70/70 23/22/69
f 51/70/70 14/24/61 47/71/62
f 28/34/71 52/72/73 29/33/72
f 52/72/73 28/34/71 53/73/74
f 32/36/75 53/73/74 28/34/71
f 53/73/74 32/36/75 54/74/76
f 35/39/77 55/75/79 33/38/78
f 55/75/79 35/39/77 56/76/80
f 29/33/72 57/77/82 36/42/81
f 57/77/82 29/33/72 52/72/73
f 37/43/83 56/76/80 35/39/77
f 56/76/80 37/43/83 58/78/84
f 33/38/85 54/74/76 32/36/75
f 54/74/76 33/38/85 55/75/86
f 38/46/87 59/79/89 39/45/88
f 59/79/89 38/46/87 60/80/90
f 40/50/91 58/81/84 37/52/83
f 58/81/84 40/50/91 61/82/92
f 23/22/69 50/69/68 20/20/67
f 50/69/68 23/22/69 51/70/70
f 39/45/88 61/82/92 40/50/91
f 61/82/92 39/45/88 59/79/89
f 10/10/93 43/62/54 4/4/51
f 43/62/54 10/10/93 48/67/94
f 36/42/95 60/80/90 38/46/87
f 60/80/90 36/42/95 57/77/96
f 7/7/97 44/63/56 46/65/98
f 44/63/56 7/7/97 6/6/55
f 37/52/42 16/83/16 24/51/24
f 14/24/15 24/25/24 16/84/16
f 8/8/8 41/59/50 26/29/99
f 26/29/99 41/59/50 34/40/40
