# Wavefront OBJ
# Created by fragMOTION 1.3.7
# http://www.fragmosoft.com

mtllib Bob_JacketShellSuit.mtl
# 206 vertices
v 0.0732418 0.774101 -0.0363315
v 0.04073 0.769471 -0.0403424
v 0.0384719 0.797031 -0.0201804
v 0.0854553 0.751798 -0.036894
v 0.103571 0.723617 -0.034176
v 0.0603977 0.699743 -0.0580938
v 0.0496961 0.734494 -0.0532757
v 0.105859 0.7007 -0.0211876
v 0.0371069 0.822429 0.029811
v 0.084343 0.794194 0.0574359
v 0.0774429 0.802395 0.021451
v 0.051161 0.796932 0.0637189
v 0.11225 0.567055 0.0491101
v 0.0604111 0.593367 0.0893195
v 0.0661445 0.575331 0.0949378
v 0.101431 0.590021 0.0433299
v 0.0982941 0.58003 -0.0207744
v 0.111928 0.547017 0.00188858
v 0.0662958 0.569907 -0.0575392
v 0.0965427 0.521554 -0.0295135
v 0.059547 0.522353 -0.0522497
v 0.00820369 0.697881 -0.0675618
v 0.00732129 0.735512 -0.0571924
v 0.00854449 0.593831 0.0906267
v 0.00838017 0.574789 0.095881
v 0.0564075 0.655539 0.0843297
v 0.00507822 0.695767 0.0907244
v 0.0056186 0.656037 0.0879978
v 0.064152 0.698229 0.0872855
v 0.116911 0.548223 0.0654462
v 0.0578957 0.558458 0.100174
v 0.119042 0.527378 0.0100234
v 0.0575267 0.611603 0.0821728
v 0.0895342 0.653992 0.063869
v 0.102965 0.659894 0.0414608
v 0.0926703 0.620725 -0.020698
v 0.0974067 0.665324 -0.0182441
v 0.100212 0.618649 0.0391844
v 0.0606318 0.664669 -0.0580106
v 0.060067 0.618857 -0.0540687
v 0.00820582 0.663891 -0.0661422
v 0.00967665 0.61935 -0.0652747
v 0.137591 0.725077 -0.0253002
v 0.154176 0.679713 -0.00862578
v 0.0727331 0.725526 -0.0225254
v 0.0996343 0.624164 0.0131179
v 0.0826546 0.667047 -0.00851025
v 0.157352 0.633939 0.0133166
v 0.0678211 0.737155 0.0465539
v 0.0784771 0.691433 0.0698567
v 0.0965124 0.638296 0.076349
v 0.0826149 0.737801 0.0583961
v 0.149829 0.704475 0.0696601
v 0.13348 0.749134 0.0513203
v 0.153861 0.647688 0.0766206
v 0.147094 0.737752 0.00933543
v 0.16434 0.615226 0.0101382
v 0.116668 0.519283 0.00586515
v 0.0982436 0.601391 0.0105451
v 0.167984 0.533207 0.00590109
v 0.126228 0.507315 0.00211829
v 0.160591 0.50598 0.00113649
v 0.126616 0.517222 0.0639986
v 0.0983659 0.600033 0.0791566
v 0.127583 0.498078 0.0537531
v 0.167664 0.529763 0.0638528
v 0.164069 0.61417 0.078983
v 0.161582 0.499206 0.0504145
v 0.106068 0.799602 0.0257302
v 0.112097 0.800763 -0.00838227
v 0.0738981 0.798371 -0.00718532
v 0.105033 0.701869 0.068608
v 0.0500005 0.814204 -0.0041449
v 0.106262 0.778394 -0.0342016
v 0.107628 0.744862 -0.033874
v 0.105119 0.750796 0.0633009
v 0.0637473 0.7405 0.0827586
v 0.105688 0.753225 0.0608835
v 0.00411491 0.735029 0.0849691
v 0.00391046 0.791172 0.0576014
v 0.109657 0.715238 0.00321977
v 0.10679 0.737718 0.0465658
v 0.108968 0.702012 0.0270303
v 0.109361 0.697632 -0.00431832
v 0.111238 0.702842 0.0465099
v 0.10829 0.521871 -0.0228218
v 0.00652455 0.769074 -0.043743
v 0.0107451 0.570628 -0.0627525
v 0.00932818 0.521596 -0.0614472
v 0.00777351 0.561621 0.0990928
v 0.00781844 0.612457 0.0857447
v 0.00390357 0.822893 0.0396565
v 0.107802 0.72107 0.017955
v -0.0277951 0.768466 -0.0418914
v -0.0607002 0.774161 -0.0380365
v -0.0296552 0.797188 -0.0219824
v -0.072706 0.750658 -0.0405159
v -0.0896466 0.721097 -0.0381958
v -0.0443389 0.698497 -0.0602837
v -0.0912317 0.698356 -0.0253086
v -0.0351392 0.73325 -0.0551934
v -0.0289064 0.821426 0.0283298
v -0.0764932 0.792215 0.0539069
v -0.0470436 0.800228 0.0603807
v -0.0676839 0.801433 0.0187537
v -0.093893 0.575226 0.0444889
v -0.0432645 0.596995 0.0873519
v -0.0822826 0.596065 0.0393461
v -0.0502806 0.57944 0.092748
v -0.0772719 0.58584 -0.0246068
v -0.092858 0.555548 -0.00274463
v -0.0433357 0.574551 -0.0602811
v -0.0782066 0.529974 -0.0345269
v -0.0405319 0.527506 -0.0564703
v -0.0450135 0.654682 0.0824278
v -0.0538335 0.696825 0.0848186
v -0.100658 0.557065 0.0605409
v -0.0424962 0.562877 0.0983185
v -0.101823 0.537219 0.00513707
v -0.041857 0.613283 0.0801594
v -0.077429 0.652583 0.0607381
v -0.0901083 0.658264 0.0378403
v -0.0748103 0.622022 -0.0239411
v -0.0839529 0.620462 0.0355217
v -0.0825578 0.663805 -0.0216189
v -0.0441248 0.663864 -0.0600116
v -0.0432664 0.618612 -0.0559322
v -0.125692 0.725265 -0.0308908
v -0.0609668 0.725523 -0.0258899
v -0.142992 0.68004 -0.0145655
v -0.0899696 0.620962 0.009719
v -0.147533 0.631419 0.00771213
v -0.0715599 0.667149 -0.0119267
v -0.0583928 0.737495 0.0432573
v -0.0699966 0.691928 0.0664126
v -0.0879076 0.64128 0.0712313
v -0.0735826 0.738249 0.0545804
v -0.141256 0.705196 0.0636962
v -0.124137 0.749707 0.0457022
v -0.1451 0.6514 0.0693274
v -0.136337 0.73815 0.00333266
v -0.155564 0.609185 0.0089416
v -0.110389 0.512659 0.0242842
v -0.161336 0.527596 0.0211534
v -0.0898436 0.594112 0.012692
v -0.118684 0.500344 0.0235876
v -0.153885 0.499698 0.0230518
v -0.120262 0.52384 0.0804389
v -0.090239 0.606426 0.0799915
v -0.125123 0.504431 0.0736845
v -0.160987 0.537021 0.0774619
v -0.15557 0.621793 0.0764589
v -0.154729 0.505091 0.0705275
v -0.0957636 0.799803 0.0210187
v -0.100165 0.800975 -0.0133691
v -0.0625718 0.797984 -0.010328
v -0.0939822 0.699502 0.0644468
v -0.0400323 0.812827 -0.00616176
v -0.0931647 0.778179 -0.0389676
v -0.0950813 0.745328 -0.038156
v -0.096364 0.748565 0.0587086
v -0.0968843 0.75104 0.056141
v -0.0554914 0.738752 0.0800632
v -0.0978464 0.713087 -0.00125936
v -0.0990827 0.72884 0.0436866
v -0.09681 0.699815 0.022939
v -0.0955363 0.695195 -0.0086025
v -0.0991731 0.700766 0.0422121
v -0.0902329 0.530687 -0.0277877
v -0.0982631 0.717693 0.0139426
v -0.0822729 0.545643 0.0704231
v 0.0073602 0.550287 0.094539
v -0.0364318 0.55175 0.0936326
v -0.0859024 0.528467 0.0111466
v -0.0621087 0.521993 -0.0295486
v -0.032978 0.519462 -0.0463629
v 0.00892811 0.514066 -0.051439
v 0.0972613 0.538205 0.0742022
v 0.0512158 0.547805 0.0952253
v 0.102215 0.520023 0.0152904
v 0.0796203 0.515118 -0.0252485
v 0.050988 0.515132 -0.0427172
v 0.0594745 0.818074 -0.00748596
v 0.035303 0.827755 0.029944
v 0.0500005 0.814205 -0.00414512
v 0.00379131 0.83175 0.0368918
v 0.0511381 0.787796 -0.0471221
v -0.050311 0.818999 -0.0103849
v -0.0378051 0.83213 0.0232739
v -0.0405862 0.796632 -0.0358107
v 0.0333613 0.826503 0.0287939
v 0.0480659 0.813969 -0.00365528
v 0.0357386 0.82158 0.028925
v 0.0566234 0.81871 -0.00725819
v 0.00385174 0.830362 0.0351046
v 0.00395425 0.82161 0.0372374
v 0.049594 0.790139 -0.0497647
v 0.0363878 0.798357 -0.0190154
v 0.00651329 0.768542 -0.0428927
v -0.0267397 0.819412 0.0265917
v -0.0475679 0.81998 -0.010089
v -0.0357884 0.831902 0.0220418
v -0.0373583 0.812445 -0.00594469
v -0.0390645 0.799223 -0.0340402
v -0.0276838 0.798549 -0.0207063
v 0.00587514 0.725915 0.013123
# 240 texture vertices
vt 0.603976 -0.300641
vt 0.539063 -0.285156
vt 0.537291 -0.313147
vt 0.607193 -0.314765
vt 0.610871 -0.355999
vt 0.542763 -0.342918
vt 0.553305 -0.387956
vt 0.608641 -0.390579
vt 0.752331 -0.240096
vt 0.695102 -0.256256
vt 0.69064 -0.291937
vt 0.741758 -0.286278
vt 0.662119 -0.544723
vt 0.733384 -0.537243
vt 0.740537 -0.507639
vt 0.659143 -0.509576
vt 0.588354 -0.51412
vt 0.604021 -0.549311
vt 0.548931 -0.511086
vt 0.543331 -0.56716
vt 0.578125 -0.570313
vt 0.5 -0.345979
vt 0.5 -0.388388
vt 0.792969 -0.535156
vt 0.792969 -0.507813
vt 0.74121 -0.442957
vt 0.792969 -0.4375
vt 0.792969 -0.386719
vt 0.731429 -0.387537
vt 0.668882 -0.567621
vt 0.75 -0.554688
vt 0.627003 -0.571268
vt 0.744619 -0.489743
vt 0.674809 -0.446183
vt 0.655364 -0.438503
vt 0.60004 -0.430449
vt 0.590248 -0.474267
vt 0.657116 -0.480209
vt 0.553348 -0.422023
vt 0.549415 -0.474686
vt 0.500001 -0.422152
vt 0.499942 -0.472263
vt 0.86076 -0.111948
vt 0.843231 -0.111031
vt 0.865789 -0.170292
vt 0.841522 -0.17777
vt 0.842296 -0.253802
vt 0.863754 -0.245696
vt 0.925985 -0.112119
vt 0.927103 -0.159317
vt 0.955656 -0.147578
vt 0.926386 -0.225606
vt 0.951008 -0.232737
vt 0.912585 -0.119896
vt 0.899126 -0.115994
vt 0.891727 -0.16141
vt 0.893098 -0.233857
vt 0.885675 -0.117033
vt 0.863715 -0.28908
vt 0.844445 -0.293548
vt 0.847656 -0.425781
vt 0.870511 -0.423128
vt 0.847656 -0.457031
vt 0.871094 -0.457031
vt 0.95205 -0.27775
vt 0.92342 -0.27387
vt 0.917969 -0.421875
vt 0.950781 -0.422869
vt 0.914063 -0.457031
vt 0.949219 -0.457031
vt 0.8935 -0.278527
vt 0.896434 -0.423438
vt 0.894531 -0.457031
vt 0.897534 -0.059442
vt 0.886667 -0.065151
vt 0.899981 -0.024266
vt 0.88451 -0.024361
vt 0.675288 -0.383487
vt 0.722656 -0.226563
vt 0.86566 -0.066431
vt 0.867962 -0.024353
vt 0.856743 -0.024579
vt 0.854629 -0.084885
vt 0.688994 -0.329308
vt 0.732649 -0.341787
vt 0.692811 -0.310135
vt 0.792969 -0.339844
vt 0.792969 -0.285156
vt 0.911263 -0.059194
vt 0.910251 -0.082896
vt 0.935548 -0.047255
vt 0.924806 -0.080877
vt 0.953871 -0.104738
vt 0.647584 -0.384499
vt 0.621985 -0.395149
vt 0.964045 -0.046156
vt 0.661482 -0.379384
vt 0.585938 -0.570313
vt 0.681759 -0.232972
vt 0.498288 -0.317361
vt 0.499921 -0.50994
vt 0.500209 -0.566964
vt 0.792969 -0.550781
vt 0.792969 -0.492188
vt 0.582031 -0.257813
vt 0.59375 -0.285156
vt 0.6743 -0.332125
vt 0.792969 -0.25
vt 0.642272 -0.359523
vt 0.630401 -0.361163
vt 0.841925 -0.054975
vt 0.912097 -0.056494
vt 0.463925 -0.310336
vt 0.453125 -0.285156
vt 0.396024 -0.300641
vt 0.392807 -0.314765
vt 0.389115 -0.356135
vt 0.391359 -0.390579
vt 0.446661 -0.388117
vt 0.457237 -0.342918
vt 0.247669 -0.240096
vt 0.258242 -0.286278
vt 0.30936 -0.291937
vt 0.304898 -0.256256
vt 0.338485 -0.547179
vt 0.33888 -0.507995
vt 0.258342 -0.50772
vt 0.267136 -0.53516
vt 0.411908 -0.513646
vt 0.39477 -0.548096
vt 0.451091 -0.510998
vt 0.419654 -0.57104
vt 0.45673 -0.568812
vt 0.207031 -0.507813
vt 0.207031 -0.535156
vt 0.258795 -0.443058
vt 0.268571 -0.387537
vt 0.207031 -0.386719
vt 0.207031 -0.4375
vt 0.263102 -0.551281
vt 0.329597 -0.566691
vt 0.380117 -0.572075
vt 0.255104 -0.490024
vt 0.325263 -0.446683
vt 0.344604 -0.438515
vt 0.343492 -0.480264
vt 0.409523 -0.474416
vt 0.399942 -0.430393
vt 0.450471 -0.474696
vt 0.446655 -0.42202
vt 0.13924 -0.111948
vt 0.134165 -0.170378
vt 0.156769 -0.111031
vt 0.13649 -0.244889
vt 0.157323 -0.253681
vt 0.158485 -0.177771
vt 0.074015 -0.112119
vt 0.044429 -0.147622
vt 0.072897 -0.159317
vt 0.048997 -0.233912
vt 0.073614 -0.225606
vt 0.087415 -0.119896
vt 0.108273 -0.16141
vt 0.100874 -0.115994
vt 0.106902 -0.233857
vt 0.114325 -0.117033
vt 0.136214 -0.28941
vt 0.136719 -0.421875
vt 0.152344 -0.425781
vt 0.155578 -0.293507
vt 0.132813 -0.449219
vt 0.152344 -0.449219
vt 0.047967 -0.277479
vt 0.046875 -0.421875
vt 0.085938 -0.414063
vt 0.07658 -0.27387
vt 0.046875 -0.449219
vt 0.085938 -0.449219
vt 0.109375 -0.417969
vt 0.1065 -0.278527
vt 0.109375 -0.449219
vt 0.102466 -0.059442
vt 0.113333 -0.065151
vt 0.11549 -0.024361
vt 0.100019 -0.024266
vt 0.324712 -0.383487
vt 0.273438 -0.230469
vt 0.13434 -0.066431
vt 0.145371 -0.084885
vt 0.143257 -0.024579
vt 0.132038 -0.024353
vt 0.309876 -0.329308
vt 0.307189 -0.310135
vt 0.267351 -0.341787
vt 0.207031 -0.339844
vt 0.207031 -0.285156
vt 0.088737 -0.059194
vt 0.089749 -0.082896
vt 0.068429 -0.05131
vt 0.046129 -0.104738
vt 0.076572 -0.08411
vt 0.378015 -0.395149
vt 0.352359 -0.384618
vt 0.046536 -0.049862
vt 0.338572 -0.379637
vt 0.413815 -0.571901
vt 0.318241 -0.232972
vt 0.207031 -0.558594
vt 0.207031 -0.492188
vt 0.417969 -0.261719
vt 0.414837 -0.277191
vt 0.321146 -0.348261
vt 0.207031 -0.25
vt 0.356211 -0.361408
vt 0.373278 -0.363389
vt 0.157879 -0.035985
vt 0.070969 -0.061759
vt 0.304688 -0.585938
vt 0.253906 -0.585938
vt 0.207031 -0.585938
vt 0.378906 -0.585938
vt 0.417969 -0.585938
vt 0.464844 -0.585938
vt 0.5 -0.585938
vt 0.792969 -0.585938
vt 0.757813 -0.585938
vt 0.703125 -0.585938
vt 0.625 -0.585938
vt 0.582031 -0.585938
vt 0.535156 -0.585938
vt 0.75611 -0.206878
vt 0.722656 -0.199219
vt 0.792969 -0.210938
vt 0.527555 -0.260022
vt 0.578125 -0.242188
vt 0.273438 -0.199219
vt 0.246789 -0.206144
vt 0.207031 -0.210938
vt 0.472656 -0.265625
vt 0.421875 -0.238281
# 255 normals
vn 0.0295991 0.412409 -0.909349
vn 0.0735181 0.650429 -0.755137
vn 0.0694766 0.456366 -0.887076
vn 0.172257 0.0801454 -0.981587
vn 0.565294 -0.212564 -0.77702
vn 0.204139 0.292467 -0.934233
vn 0.368955 0.100902 -0.915323
vn 0.86149 -0.168376 -0.464058
vn 0.303613 0.886841 0.345794
vn 0.321185 0.897292 0.0990546
vn 0.217854 0.6052 0.759425
vn 0.0803464 0.576985 0.812793
vn 0.885398 0.41759 0.199083
vn 0.403573 0.303221 0.856069
vn 0.364014 0.416652 0.826244
vn 0.898488 0.30132 0.312255
vn 0.897776 0.103819 -0.42005
vn 0.946873 0.235777 -0.213711
vn 0.444191 -0.0517045 -0.888972
vn 0.295766 -0.474615 -0.795028
vn 0.500797 -0.481993 -0.688852
vn 0.0164355 0.332714 -0.942885
vn 0.0186411 0.1299 -0.983131
vn -0.00966149 0.2851 0.95754
vn -0.00864576 0.338831 0.938062
vn 0.2952 -0.0490774 0.942835
vn -0.0165821 -0.021274 0.988167
vn -0.0197723 0.015091 0.991866
vn 0.260814 -0.039585 0.956722
vn 0.855651 -0.120527 0.500882
vn 0.219598 -0.129286 0.960533
vn 0.905679 -0.41442 -0.0384638
vn 0.410145 0.23836 0.874111
vn 0.698564 -0.193691 0.673869
vn 0.95687 -0.205667 0.15188
vn 0.879806 -0.185505 -0.41349
vn 0.897971 -0.0613665 -0.416257
vn 0.954856 -0.0726446 0.260021
vn 0.44236 -0.0640724 -0.881844
vn 0.472683 -0.057064 -0.868079
vn 0.0167014 -0.0487704 -0.987519
vn 0.0163067 -0.0929335 -0.988158
vn 0.556996 -0.137716 -0.819017
vn -0.601553 -0.534664 -0.593523
vn 0.730545 -0.143386 -0.667641
vn -0.64071 -0.398435 -0.656309
vn -0.652759 -0.232266 -0.715464
vn 0.710934 0.0273301 -0.698967
vn -0.900943 0.0736345 0.427644
vn -0.69583 -0.0524121 0.716291
vn -0.699174 -0.0990172 0.704289
vn -0.320685 0.207431 0.924194
vn 0.619891 0.284797 0.731182
vn 0.659697 0.254521 0.707122
vn 0.67761 0.153386 0.713733
vn 0.993983 0.103948 -0.0345237
vn 0.703763 0.190362 -0.684456
vn -0.737405 -0.0615756 -0.672639
vn -0.759386 -0.213928 -0.613256
vn 0.738701 0.0103387 -0.670671
vn -0.472245 -0.112183 -0.872991
vn 0.626854 0.0262567 -0.772793
vn -0.695065 -0.1818 0.695005
vn -0.511986 -0.3972 0.75695
vn -0.618388 -0.489172 0.605463
vn 0.709736 0.0805348 0.699022
vn 0.740861 -0.220933 0.633093
vn 0.755649 -0.395403 0.518782
vn 0.161369 0.962075 0.213816
vn 0.213572 0.916298 -0.32994
vn 0.123507 0.880561 -0.449771
vn 0.727304 -0.129368 0.663841
vn 0.369266 0.838536 -0.39789
vn 0.0992048 0.477086 -0.847166
vn 0.178305 -0.221343 -0.931165
vn 0.65727 0.0757628 0.716277
vn 0.195155 0.208243 0.95841
vn 0.496473 0.0460757 0.845813
vn -0.0244233 0.240045 0.970454
vn -0.0197975 0.46397 0.88563
vn 0.764821 -0.595731 0.0434062
vn 0.451783 -0.562872 0.612083
vn 0.96011 -0.173002 -0.0286558
vn 0.964812 -0.19966 -0.126005
vn 0.964415 -0.128078 0.146774
vn 0.720468 -0.487575 -0.47433
vn 0.013625 0.446042 -0.894686
vn 0.0179661 -0.0846015 -0.993104
vn 0.00420575 -0.447387 -0.879571
vn -0.0259746 -0.079815 0.995499
vn -0.0139096 0.240411 0.964196
vn -0.00772018 0.670191 0.740745
vn 0.940018 -0.113729 0.0498052
vn -0.0524605 0.446413 -0.893288
vn -0.0871925 0.64343 -0.759708
vn 0.0072502 0.438271 -0.898607
vn -0.123544 0.0917 -0.988075
vn -0.522744 -0.230726 -0.813735
vn -0.838456 -0.188254 -0.502372
vn -0.333659 0.0926255 -0.929996
vn -0.170323 0.286926 -0.94269
vn -0.345517 0.89672 0.273441
vn -0.181061 0.628202 0.75669
vn -0.293718 0.596512 0.727552
vn -0.321912 0.884277 0.0586979
vn -0.857301 0.486585 0.160021
vn -0.888668 0.360112 0.273499
vn -0.370308 0.441098 0.813602
vn -0.418083 0.330795 0.842088
vn -0.874908 0.142052 -0.456262
vn -0.897798 0.305503 -0.3136
vn -0.408029 -0.0191987 -0.911461
vn -0.587638 -0.402447 -0.69917
vn -0.301588 -0.46063 -0.830589
vn -0.326594 -0.0543255 0.931175
vn -0.297967 -0.046231 0.945039
vn -0.251987 -0.0869174 0.961926
vn -0.889278 -0.0539346 0.451439
vn -0.92539 -0.364636 -0.0905911
vn -0.43397 0.252633 0.857009
vn -0.720418 -0.205669 0.647261
vn -0.961211 -0.221167 0.115481
vn -0.965677 -0.0537336 0.221825
vn -0.883697 -0.0490336 -0.450741
vn -0.86496 -0.200641 -0.446181
vn -0.444509 -0.059243 -0.884619
vn -0.411607 -0.0706338 -0.898155
vn -0.528979 -0.140209 -0.836972
vn -0.707645 -0.144541 -0.691626
vn 0.619056 -0.541066 -0.569225
vn -0.695923 -0.0315605 -0.713711
vn 0.66396 -0.308253 -0.675281
vn 0.661548 -0.403874 -0.631854
vn 0.853661 -0.124142 0.505818
vn 0.670625 -0.0508897 0.74005
vn 0.683826 -0.034063 0.725157
vn 0.259091 0.182059 0.948539
vn -0.682752 0.260285 0.682716
vn -0.643696 0.290561 0.707975
vn -0.688879 0.235986 0.679552
vn -0.991856 0.106917 -0.0692086
vn -0.69645 0.0648676 -0.714668
vn -0.738959 -0.130862 -0.651677
vn 0.75891 -0.359993 -0.537994
vn 0.737764 -0.214495 -0.640075
vn -0.624231 -0.167687 -0.743009
vn 0.5211 -0.340237 -0.770976
vn 0.503476 -0.27334 0.803349
vn 0.687168 -0.0591747 0.723528
vn 0.512272 -0.435573 0.713332
vn -0.745304 -0.0602917 0.657451
vn -0.710702 0.231748 0.663346
vn -0.760341 -0.254846 0.584221
vn -0.16293 0.962613 0.205332
vn -0.188679 0.916506 -0.341708
vn -0.116039 0.883164 -0.452888
vn -0.737116 -0.16575 0.644738
vn -0.387479 0.835739 -0.386778
vn -0.0411794 0.467076 -0.858772
vn -0.127145 -0.227857 -0.953255
vn -0.6534 0.0821137 0.682402
vn -0.499424 0.104977 0.80802
vn -0.243115 0.193447 0.950512
vn -0.76984 -0.590325 -0.0742345
vn -0.597355 -0.528037 0.478208
vn -0.95371 -0.227657 -0.173725
vn -0.942475 -0.25289 -0.0762652
vn -0.952461 -0.213307 0.0909889
vn -0.732733 -0.283332 -0.616657
vn -0.904718 -0.277083 -0.0424467
vn -0.858574 0.399276 -0.221914
vn -0.846682 0.325848 -0.221124
vn -0.850226 0.35526 -0.221811
vn -0.0162902 -0.971101 0.0964622
vn 0.0202894 -0.97689 0.0896104
vn 0.00845897 -0.976318 0.095868
vn -0.030357 -0.969862 0.103889
vn -0.025733 -0.983146 -0.147982
vn -0.0433463 -0.980975 -0.158188
vn -9.5606e-005 -0.980428 -0.158488
vn 0.0184583 -0.981966 -0.147416
vn -0.41348 -0.680644 0.601374
vn -0.119236 -0.712432 0.688829
vn -0.0454733 -0.752506 0.654742
vn -0.299204 -0.939778 0.146251
vn -0.182641 -0.972693 -0.0995333
vn -0.132615 -0.963988 -0.205781
vn -0.0322573 -0.95966 -0.228468
vn 0.0545801 -0.712683 0.689877
vn 0.327293 -0.644945 0.682574
vn 0.197368 -0.947663 0.179218
vn 0.0984219 -0.957312 -0.102463
vn 0.0614626 -0.944167 -0.20418
vn 0.6525 0.224857 0.723066
vn 0.549148 0.26015 0.791833
vn 0.596484 -0.679558 0.418162
vn 0.560742 -0.716975 0.412502
vn -0.0350828 0.337323 0.939692
vn -0.051258 0.316225 0.944528
vn 0.407826 -0.795017 0.441435
vn 0.440627 -0.772585 0.456102
vn 0.119136 -0.885569 0.44854
vn -0.542023 0.0407585 0.838393
vn -0.638983 -0.672694 0.370824
vn -0.674149 -0.638191 0.366714
vn -0.728985 -0.198996 0.651607
vn -0.487727 -0.791334 0.364973
vn -0.47942 -0.790772 0.379078
vn -0.898686 -0.314662 -0.303755
vn -0.898894 -0.319087 -0.298956
vn -0.90191 -0.30055 -0.300746
vn -0.215972 -0.617444 -0.753618
vn -0.21581 -0.603115 -0.764007
vn 0.0266449 -0.628149 -0.774184
vn 0.0265389 -0.631659 -0.771771
vn -0.778776 0.297575 0.546958
vn -0.857002 0.136529 0.489422
vn -0.862132 0.121852 0.489849
vn -0.800512 0.25736 0.539921
vn -0.693623 0.42362 0.582381
vn 0.920584 -0.290835 -0.258413
vn 0.92094 -0.282683 -0.265111
vn 0.924249 -0.276291 -0.260248
vn 0.920811 -0.28972 -0.258899
vn 0.268331 -0.592003 -0.755512
vn 0.267979 -0.609753 -0.742897
vn 0.748543 0.316327 0.581606
vn 0.767522 0.282308 0.574757
vn 0.835815 0.149168 0.527494
vn 0.83373 0.158928 0.527238
vn 0.653894 0.443517 0.612796
vn 0.0142213 0.564006 -0.823963
vn -0.135197 0.614517 -0.775479
vn -0.253323 0.849715 -0.456939
vn -0.234941 0.811587 -0.5303
vn -0.00749781 0.977744 -0.192737
vn -0.0392532 0.971082 -0.220737
vn 0.0966607 0.789707 -0.601386
vn 0.0991548 0.793153 -0.59645
vn -0.191519 0.806526 -0.554052
vn -0.229786 0.833628 -0.496512
vn 0.168126 0.917338 -0.346137
vn 0.143736 0.875561 -0.450046
vn 0.662502 -0.323954 -0.671468
vn 0.744047 -0.197903 -0.633896
vn 0.245038 -0.200433 -0.948354
vn -0.00913311 0.964192 -0.264851
vn 0.630209 0.333517 -0.698645
vn 0.894665 0.411218 -0.170329
vn 0.0242965 0.261019 -0.962704
vn -0.598186 0.319078 -0.733596
vn -0.899426 0.394405 -0.186623
vn -0.845368 0.465021 0.26096
vn -0.0314517 0.794704 0.605841
vn 0.840418 0.490229 0.229197
usemtl _07_-_Defaultlll
g Bob_JacketShellSuit
s off
f 1/1/1 2/3/3 3/2/2
f 2/3/3 1/1/1 4/4/4
f 5/5/5 6/7/7 7/6/6
f 6/7/7 5/5/5 8/8/8
f 9/9/9 10/11/11 11/10/10
f 10/11/11 9/9/9 12/12/12
f 13/13/13 14/15/15 15/14/14
f 14/15/15 13/13/13 16/16/16
f 17/17/17 13/13/13 18/18/18
f 13/13/13 17/17/17 16/16/16
f 19/19/19 20/21/21 21/20/20
f 20/21/21 19/19/19 17/17/17
f 7/6/6 22/23/23 23/22/22
f 22/23/23 7/6/6 6/7/7
f 15/14/14 24/25/25 25/24/24
f 24/25/25 15/14/14 14/15/15
f 26/26/26 27/28/28 28/27/27
f 27/28/28 26/26/26 29/29/29
f 15/14/14 30/30/30 13/13/13
f 30/30/30 15/14/14 31/31/31
f 13/13/13 32/32/32 18/18/18
f 32/32/32 13/13/13 30/30/30
f 33/33/33 34/34/34 26/26/26
f 35/35/35 36/37/37 37/36/36
f 36/37/37 35/35/35 38/38/38
f 36/37/37 39/39/39 37/36/36
f 39/39/39 36/37/37 40/40/40
f 41/41/41 40/40/40 42/42/42
f 40/40/40 41/41/41 39/39/39
f 43/43/43 44/45/45 45/44/44
f 44/45/45 46/47/47 47/46/46
f 46/47/47 44/45/45 48/48/48
f 49/49/49 47/51/46 50/50/50
f 47/51/46 51/52/51 50/50/50
f 51/52/51 47/51/46 46/53/47
f 52/54/52 53/56/54 54/55/53
f 52/54/52 50/50/50 53/56/54
f 52/54/52 49/49/49 50/50/50
f 50/50/50 55/57/55 53/56/54
f 55/57/55 50/50/50 51/52/51
f 56/58/56 53/56/54 44/45/45
f 53/56/54 48/48/48 44/45/45
f 48/48/48 53/56/54 55/57/55
f 57/59/57 58/61/59 59/60/58
f 58/61/59 57/59/57 60/62/60
f 60/62/60 61/63/61 58/61/59
f 61/63/61 60/62/60 62/64/62
f 59/65/58 63/67/64 64/66/63
f 63/67/64 59/65/58 58/68/59
f 58/68/59 65/69/65 63/67/64
f 65/69/65 58/68/59 61/70/61
f 64/66/63 66/72/67 67/71/66
f 66/72/67 64/66/63 63/67/64
f 63/67/64 68/73/68 66/72/67
f 68/73/68 63/67/64 65/69/65
f 67/71/66 60/62/60 57/59/57
f 60/62/60 67/71/66 66/72/67
f 66/72/67 62/64/62 60/62/60
f 62/64/62 66/72/67 68/73/68
f 55/57/55 57/59/57 48/48/48
f 57/59/57 55/57/55 67/71/66
f 48/48/48 59/60/58 46/47/47
f 59/60/58 48/48/48 57/59/57
f 51/52/51 59/65/58 64/66/63
f 59/65/58 51/52/51 46/53/47
f 64/66/63 55/57/55 51/52/51
f 55/57/55 64/66/63 67/71/66
f 69/74/69 56/58/56 70/75/70
f 56/58/56 69/74/69 54/55/53
f 70/75/70 11/76/10 69/74/69
f 11/76/10 70/75/70 71/77/71
f 34/34/34 29/29/29 26/26/26
f 29/29/29 34/34/34 72/78/72
f 11/10/10 73/79/73 9/9/9
f 74/80/74 4/82/4 1/81/1
f 4/82/4 74/80/74 75/83/75
f 43/43/43 75/83/75 74/80/74
f 76/84/76 12/12/12 77/85/77
f 76/84/76 10/11/11 12/12/12
f 76/84/76 78/86/78 10/11/11
f 79/87/79 12/12/12 80/88/80
f 12/12/12 79/87/79 77/85/77
f 69/74/69 11/76/10 10/89/11
f 54/55/53 78/90/78 52/54/52
f 54/55/53 10/89/11 78/90/78
f 54/55/53 69/74/69 10/89/11
f 81/91/81 49/49/49 82/92/82
f 49/49/49 81/91/81 45/93/44
f 37/36/36 83/94/83 35/35/35
f 83/94/83 37/36/36 84/95/84
f 5/96/5 45/93/44 81/91/81
f 8/8/8 84/95/84 37/36/36
f 83/94/83 85/97/85 35/35/35
f 17/17/17 86/98/86 20/21/21
f 86/98/86 17/17/17 18/18/18
f 18/18/18 32/32/32 86/98/86
f 73/79/73 11/10/10 71/99/71
f 2/3/3 23/22/22 87/100/87
f 21/20/20 88/101/88 19/19/19
f 88/101/88 21/20/20 89/102/89
f 25/24/24 31/31/31 15/14/14
f 31/31/31 25/24/24 90/103/90
f 47/51/46 49/49/49 45/93/44
f 45/44/44 44/45/45 47/46/46
f 40/40/40 17/17/17 19/19/19
f 17/17/17 40/40/40 36/37/37
f 36/37/37 16/16/16 17/17/17
f 16/16/16 36/37/37 38/38/38
f 16/16/16 33/33/33 14/15/15
f 33/33/33 16/16/16 38/38/38
f 14/15/15 91/104/91 24/25/25
f 91/104/91 14/15/15 33/33/33
f 73/105/73 71/106/71 3/2/2
f 3/2/2 71/106/71 1/1/1
f 1/81/1 70/75/70 74/80/74
f 70/75/70 1/81/1 71/77/71
f 74/80/74 56/58/56 43/43/43
f 56/58/56 74/80/74 70/75/70
f 56/58/56 44/45/45 43/43/43
f 53/56/54 56/58/56 54/55/53
f 38/38/38 35/35/35 34/34/34
f 76/84/76 82/107/82 78/86/78
f 35/35/35 72/78/72 34/34/34
f 72/78/72 35/35/35 85/97/85
f 34/34/34 33/33/33 38/38/38
f 92/108/92 12/12/12 9/9/9
f 29/29/29 79/87/79 27/28/28
f 79/87/79 29/29/29 77/85/77
f 77/85/77 72/78/72 76/84/76
f 72/78/72 77/85/77 29/29/29
f 72/78/72 82/107/82 76/84/76
f 82/107/82 72/78/72 85/97/85
f 82/107/82 83/94/83 93/109/93
f 83/94/83 82/107/82 85/97/85
f 93/109/93 84/95/84 81/110/81
f 84/95/84 93/109/93 83/94/83
f 8/8/8 81/110/81 84/95/84
f 81/110/81 8/8/8 5/5/5
f 6/7/7 41/41/41 22/23/23
f 41/41/41 6/7/7 39/39/39
f 39/39/39 8/8/8 37/36/36
f 8/8/8 39/39/39 6/7/7
f 7/6/6 4/4/4 5/5/5
f 4/4/4 7/6/6 2/3/3
f 5/111/5 75/83/75 45/44/44
f 75/83/75 5/111/5 4/82/4
f 75/83/75 43/43/43 45/44/44
f 52/54/52 82/92/82 49/49/49
f 82/92/82 52/54/52 78/90/78
f 7/6/6 23/22/22 2/3/3
f 28/27/27 33/33/33 26/26/26
f 33/33/33 28/27/27 91/104/91
f 92/108/92 80/88/80 12/12/12
f 19/19/19 42/42/42 40/40/40
f 42/42/42 19/19/19 88/101/88
f 81/91/81 82/92/82 93/112/93
f 94/113/94 95/115/96 96/114/95
f 95/115/96 94/113/94 97/116/97
f 98/117/98 99/119/100 100/118/99
f 99/119/100 98/117/98 101/120/101
f 102/121/102 103/123/104 104/122/103
f 103/123/104 102/121/102 105/124/105
f 106/125/106 107/127/108 108/126/107
f 107/127/108 106/125/106 109/128/109
f 110/129/110 106/125/106 108/126/107
f 106/125/106 110/129/110 111/130/111
f 112/131/112 113/132/113 110/129/110
f 113/132/113 112/131/112 114/133/114
f 101/120/101 22/23/23 99/119/100
f 22/23/23 101/120/101 23/22/22
f 109/128/109 24/134/25 107/127/108
f 24/134/25 109/128/109 25/135/24
f 115/136/115 27/138/28 116/137/116
f 27/138/28 115/136/115 28/139/27
f 109/128/109 117/141/118 118/140/117
f 117/141/118 109/128/109 106/125/106
f 106/125/106 119/142/119 117/141/118
f 119/142/119 106/125/106 111/130/111
f 120/143/120 115/136/115 121/144/121
f 122/145/122 123/147/124 124/146/123
f 123/147/124 122/145/122 125/148/125
f 123/147/124 126/150/127 127/149/126
f 126/150/127 123/147/124 125/148/125
f 41/41/41 127/149/126 126/150/127
f 127/149/126 41/41/41 42/42/42
f 128/151/128 129/153/130 130/152/129
f 130/152/129 131/155/132 132/154/131
f 131/155/132 130/152/129 133/156/133
f 134/157/134 135/159/135 133/158/133
f 133/158/133 136/161/136 131/160/132
f 136/161/136 133/158/133 135/159/135
f 137/162/137 135/159/135 134/157/134
f 137/162/137 138/163/138 135/159/135
f 137/162/137 139/164/139 138/163/138
f 135/159/135 140/165/140 136/161/136
f 140/165/140 135/159/135 138/163/138
f 141/166/141 130/152/129 138/163/138
f 138/163/138 132/154/131 140/165/140
f 132/154/131 138/163/138 130/152/129
f 142/167/142 143/169/144 144/168/143
f 143/169/144 142/167/142 145/170/145
f 144/168/143 146/172/147 147/171/146
f 146/172/147 144/168/143 143/169/144
f 145/173/145 148/175/148 143/174/144
f 148/175/148 145/173/145 149/176/149
f 143/174/144 150/178/150 146/177/147
f 150/178/150 143/174/144 148/175/148
f 149/176/149 151/179/151 148/175/148
f 151/179/151 149/176/149 152/180/152
f 148/175/148 153/181/153 150/178/150
f 153/181/153 148/175/148 151/179/151
f 152/180/152 144/168/143 151/179/151
f 144/168/143 152/180/152 142/167/142
f 151/179/151 147/171/146 153/181/153
f 147/171/146 151/179/151 144/168/143
f 140/165/140 142/167/142 152/180/152
f 142/167/142 140/165/140 132/154/131
f 132/154/131 145/170/145 142/167/142
f 145/170/145 132/154/131 131/155/132
f 136/161/136 145/173/145 131/160/132
f 145/173/145 136/161/136 149/176/149
f 149/176/149 140/165/140 152/180/152
f 140/165/140 149/176/149 136/161/136
f 154/182/154 141/166/141 139/164/139
f 141/166/141 154/182/154 155/183/155
f 155/183/155 105/185/105 156/184/156
f 105/185/105 155/183/155 154/182/154
f 121/144/121 116/137/116 157/186/157
f 116/137/116 121/144/121 115/136/115
f 105/124/105 102/121/102 158/187/158
f 159/188/159 97/190/97 160/189/160
f 97/190/97 159/188/159 95/191/96
f 128/151/128 159/188/159 160/189/160
f 161/192/161 103/123/104 162/193/162
f 161/192/161 104/122/103 103/123/104
f 161/192/161 163/194/163 104/122/103
f 79/195/79 104/122/103 163/194/163
f 104/122/103 79/195/79 80/196/80
f 154/182/154 103/197/104 105/185/105
f 139/164/139 103/197/104 154/182/154
f 139/164/139 162/198/162 103/197/104
f 139/164/139 137/162/137 162/198/162
f 164/199/164 134/157/134 129/200/130
f 134/157/134 164/199/164 165/201/165
f 125/148/125 166/203/167 167/202/166
f 166/203/167 125/148/125 122/145/122
f 98/204/98 164/199/164 129/200/130
f 100/118/99 125/148/125 167/202/166
f 166/203/167 122/145/122 168/205/168
f 111/130/111 113/132/113 169/206/169
f 113/132/113 111/130/111 110/129/110
f 111/130/111 169/206/169 119/142/119
f 158/187/158 156/207/156 105/124/105
f 94/113/94 87/100/87 23/22/22
f 114/133/114 88/101/88 89/102/89
f 88/101/88 114/133/114 112/131/112
f 25/135/24 118/140/117 90/208/90
f 118/140/117 25/135/24 109/128/109
f 133/158/133 129/200/130 134/157/134
f 129/153/130 133/156/133 130/152/129
f 127/149/126 110/129/110 123/147/124
f 110/129/110 127/149/126 112/131/112
f 123/147/124 108/126/107 124/146/123
f 108/126/107 123/147/124 110/129/110
f 108/126/107 120/143/120 124/146/123
f 120/143/120 108/126/107 107/127/108
f 107/127/108 91/209/91 120/143/120
f 91/209/91 107/127/108 24/134/25
f 158/210/158 96/114/95 156/211/156
f 96/114/95 95/115/96 156/211/156
f 95/191/96 155/183/155 156/184/156
f 155/183/155 95/191/96 159/188/159
f 159/188/159 141/166/141 155/183/155
f 141/166/141 159/188/159 128/151/128
f 141/166/141 128/151/128 130/152/129
f 138/163/138 139/164/139 141/166/141
f 124/146/123 121/144/121 122/145/122
f 161/192/161 162/193/162 165/212/165
f 122/145/122 157/186/157 168/205/168
f 157/186/157 122/145/122 121/144/121
f 121/144/121 124/146/123 120/143/120
f 92/213/92 102/121/102 104/122/103
f 116/137/116 79/195/79 163/194/163
f 79/195/79 116/137/116 27/138/28
f 163/194/163 157/186/157 116/137/116
f 157/186/157 163/194/163 161/192/161
f 157/186/157 165/212/165 168/205/168
f 165/212/165 157/186/157 161/192/161
f 165/212/165 166/203/167 168/205/168
f 166/203/167 165/212/165 170/214/170
f 170/214/170 167/202/166 166/203/167
f 167/202/166 170/214/170 164/215/164
f 100/118/99 164/215/164 98/117/98
f 164/215/164 100/118/99 167/202/166
f 99/119/100 41/41/41 126/150/127
f 41/41/41 99/119/100 22/23/23
f 126/150/127 100/118/99 99/119/100
f 100/118/99 126/150/127 125/148/125
f 101/120/101 97/116/97 94/113/94
f 97/116/97 101/120/101 98/117/98
f 98/216/98 160/189/160 97/190/97
f 160/189/160 98/216/98 129/153/130
f 160/189/160 129/153/130 128/151/128
f 137/162/137 165/201/165 162/198/162
f 165/201/165 137/162/137 134/157/134
f 23/22/22 101/120/101 94/113/94
f 28/139/27 120/143/120 91/209/91
f 120/143/120 28/139/27 115/136/115
f 92/213/92 104/122/103 80/196/80
f 42/42/42 112/131/112 127/149/126
f 112/131/112 42/42/42 88/101/88
f 164/199/171 170/217/173 165/201/172
f 150/178/174 147/171/176 146/172/175
f 147/171/176 150/178/174 153/181/177
f 62/64/178 65/69/180 61/63/179
f 65/69/180 62/64/178 68/73/181
f 171/218/182 172/220/184 173/219/183
f 174/221/185 172/220/184 171/218/182
f 175/222/186 172/220/184 174/221/185
f 176/223/187 172/220/184 175/222/186
f 177/224/188 172/220/184 176/223/187
f 172/225/184 178/227/190 179/226/189
f 172/225/184 180/228/191 178/227/190
f 172/225/184 181/229/192 180/228/191
f 172/225/184 182/230/193 181/229/192
f 177/224/188 182/230/193 172/225/184
f 9/9/194 183/232/196 184/231/195
f 183/232/196 9/9/194 185/79/197
f 184/231/195 92/108/198 9/9/194
f 92/108/198 184/231/195 186/233/199
f 187/234/200 185/105/197 3/2/201
f 185/105/197 187/234/200 183/235/196
f 3/2/201 87/100/202 187/234/200
f 102/121/203 188/236/205 158/187/204
f 188/236/205 102/121/203 189/237/206
f 102/121/203 186/238/199 189/237/206
f 186/238/199 102/121/203 92/213/198
f 190/239/207 158/210/204 188/240/205
f 158/210/204 190/239/207 96/114/208
f 96/114/208 190/239/207 87/100/202
f 2/3/3 87/100/87 3/2/2
f 87/100/87 94/113/94 96/114/95
f 20/21/21 86/98/86 181/229/192
f 113/132/113 175/222/186 169/206/169
f 21/20/20 181/229/192 182/230/193
f 181/229/192 21/20/20 20/21/21
f 86/98/86 180/228/191 181/229/192
f 180/228/191 86/98/86 32/32/32
f 30/30/30 179/226/189 178/227/190
f 179/226/189 30/30/30 31/31/31
f 32/32/32 178/227/190 180/228/191
f 178/227/190 32/32/32 30/30/30
f 113/132/113 176/223/187 175/222/186
f 176/223/187 113/132/113 114/133/114
f 119/142/119 175/222/186 174/221/185
f 175/222/186 119/142/119 169/206/169
f 118/140/117 171/218/182 173/219/183
f 171/218/182 118/140/117 117/141/118
f 117/141/118 174/221/185 171/218/182
f 174/221/185 117/141/118 119/142/119
f 90/208/90 173/219/183 172/220/184
f 173/219/183 90/208/90 118/140/117
f 114/133/114 177/224/188 176/223/187
f 177/224/188 114/133/114 89/102/89
f 89/102/89 182/230/193 177/224/188
f 182/230/193 89/102/89 21/20/20
f 172/225/184 31/31/31 90/103/90
f 31/31/31 172/225/184 179/226/189
f 191/231/209 192/79/210 193/9/210
f 192/79/210 191/231/209 194/232/211
f 193/9/212 195/233/214 191/231/213
f 195/233/214 193/9/212 196/108/215
f 197/234/216 192/105/218 194/235/217
f 192/105/218 197/234/216 198/2/219
f 198/2/219 197/234/216 199/100/220
f 200/121/221 201/236/223 202/237/222
f 201/236/223 200/121/221 203/187/224
f 202/237/225 196/213/215 200/121/226
f 196/213/215 202/237/225 195/238/214
f 204/239/227 203/210/229 205/114/228
f 203/210/229 204/239/227 201/240/230
f 205/114/228 199/100/231 204/239/227
f 190/239/232 201/240/234 204/239/233
f 201/240/234 190/239/232 188/240/235
f 201/236/234 189/237/237 202/237/236
f 189/237/237 201/236/234 188/236/235
f 202/237/236 186/238/239 195/238/238
f 186/238/239 202/237/236 189/237/237
f 191/231/240 186/233/239 184/231/241
f 186/233/239 191/231/240 195/233/238
f 194/232/242 184/231/241 183/232/243
f 184/231/241 194/232/242 191/231/240
f 194/235/242 187/234/245 197/234/244
f 187/234/245 194/235/242 183/235/243
f 197/234/244 187/234/245 199/100/246
f 204/239/233 199/100/246 190/239/232
f 206/122/247 203/187/249 200/121/248
f 206/122/247 200/121/248 196/213/250
f 206/12/247 196/108/250 193/9/251
f 206/12/247 193/9/251 192/79/252
f 206/3/247 192/105/252 198/2/253
f 206/3/247 198/2/253 199/100/254
f 206/113/247 205/114/255 203/210/249
f 199/100/254 205/114/255 206/113/247
