# Wavefront OBJ
# Created by fragMOTION 1.3.7
# http://www.fragmosoft.com

mtllib Bob_Shirt_Football.mtl
# 130 vertices
v 0.0817064 0.77575 -0.0296427
v 0.0424996 0.767796 -0.033454
v 0.036171 0.799004 -0.0243406
v 0.0922152 0.755549 -0.0334608
v 0.0942849 0.739299 -0.0363772
v 0.0663753 0.698679 -0.0574961
v 0.0517496 0.734659 -0.0513196
v 0.10538 0.701037 -0.0235709
v 0.035778 0.821736 0.0248149
v 0.0908581 0.79385 0.052401
v 0.0773677 0.801433 0.0202494
v 0.0551922 0.79908 0.0584485
v 0.106391 0.52305 0.068224
v 0.0590778 0.557063 0.0806833
v 0.0585115 0.529387 0.092909
v 0.102157 0.55545 0.0579122
v 0.0991725 0.547147 -0.0169811
v 0.107578 0.516069 0.0121096
v 0.0967091 0.511959 -0.0172343
v 0.0548379 0.538771 -0.0579887
v 0.0546092 0.508333 -0.0533656
v 0.0081923 0.697725 -0.0663481
v 0.00729513 0.735604 -0.056094
v 0.00756478 0.557823 0.0887467
v 0.00670019 0.53251 0.0979924
v 0.0619094 0.654543 0.0777078
v 0.00434654 0.697431 0.0865265
v 0.00558538 0.656406 0.0879827
v 0.0668448 0.699109 0.0823815
v 0.0564903 0.602283 0.0810089
v 0.0962332 0.65518 0.0671699
v 0.113595 0.660812 0.0439577
v 0.0977597 0.609108 -0.0169028
v 0.103983 0.6641 -0.019213
v 0.103776 0.604611 0.0542025
v 0.066799 0.662471 -0.0586287
v 0.060063 0.605932 -0.0565199
v 0.0081452 0.663842 -0.0667731
v 0.00804652 0.606201 -0.0630706
v 0.139065 0.726685 -0.0261256
v 0.153882 0.665 -0.00515441
v 0.0838581 0.717521 -0.0211862
v 0.076173 0.727344 0.0501828
v 0.0837051 0.662822 -0.00160971
v 0.0821507 0.677086 0.0756998
v 0.0962552 0.736178 0.059242
v 0.156005 0.690147 0.0697516
v 0.141778 0.738744 0.0518152
v 0.154472 0.743244 0.00782993
v 0.123853 0.790906 0.0260306
v 0.122813 0.793677 -0.00663618
v 0.0796595 0.798639 -0.00646305
v 0.106957 0.704386 0.0642787
v 0.0470623 0.813463 -0.00306418
v 0.119685 0.771298 -0.0281138
v 0.116713 0.748374 -0.0286126
v 0.105123 0.748813 0.0592743
v 0.067129 0.741678 0.0781151
v 0.107435 0.752654 0.0557134
v 0.00328399 0.735654 0.0806405
v 0.00380811 0.796259 0.0588306
v 0.100843 0.725416 -0.00183851
v 0.0937326 0.744968 0.0433489
v 0.116816 0.700547 0.0303001
v 0.109556 0.697659 -0.0070575
v 0.100401 0.710169 0.0433237
v 0.00662622 0.762424 -0.0438964
v 0.0100774 0.53752 -0.0622439
v 0.00940892 0.509907 -0.0579091
v 0.00578371 0.601822 0.0890944
v 0.00408301 0.823636 0.0289125
v 0.101994 0.727592 0.0214378
v -0.0692472 0.775476 -0.0331317
v -0.0298242 0.766735 -0.0350888
v -0.0796833 0.754343 -0.0373986
v -0.0248309 0.798109 -0.0257195
v -0.0834781 0.731509 -0.0372342
v -0.0503103 0.697316 -0.0599204
v -0.0907566 0.698562 -0.0277594
v -0.0370464 0.733413 -0.0532918
v -0.0273252 0.820811 0.0233885
v -0.0826499 0.7925 0.048571
v -0.0474826 0.797843 0.0561206
v -0.0675344 0.800822 0.016914
v -0.0919377 0.53238 0.0635886
v -0.0434849 0.560664 0.0784924
v -0.0854675 0.562038 0.0539041
v -0.044882 0.534251 0.0904924
v -0.0828008 0.553537 -0.0208684
v -0.0911618 0.525418 0.00746456
v -0.0346259 0.541912 -0.0598998
v -0.0804996 0.520295 -0.0213761
v -0.0358831 0.51259 -0.0554806
v -0.0503632 0.653939 0.0781008
v -0.0562984 0.697661 0.0798168
v -0.044659 0.601835 0.0793722
v -0.0842942 0.653522 0.0637005
v -0.1009 0.658675 0.0397304
v -0.0829997 0.608309 -0.0198276
v -0.0911791 0.603757 0.0511511
v -0.0889448 0.662094 -0.0230676
v -0.0505027 0.661359 -0.0609052
v -0.0441404 0.605471 -0.058206
v -0.126903 0.726737 -0.032308
v -0.0695634 0.716909 -0.0252121
v -0.143383 0.665495 -0.0110446
v -0.064185 0.726941 0.0468196
v -0.073835 0.677601 0.0722039
v -0.0727892 0.662908 -0.00503187
v -0.0849376 0.735039 0.052438
v -0.147995 0.691039 0.0636151
v -0.132481 0.739346 0.0459645
v -0.141594 0.742061 -0.00388558
v -0.112475 0.789294 0.0181423
v -0.110428 0.793089 -0.0132789
v -0.0684058 0.798221 -0.00987474
v -0.0959267 0.701869 0.0599727
v -0.0370912 0.812229 -0.00496646
v -0.106291 0.770282 -0.0346445
v -0.103912 0.748128 -0.03492
v -0.09601 0.747261 0.0543244
v -0.0981967 0.75107 0.050082
v -0.0582343 0.739926 0.0753334
v -0.0881304 0.723761 -0.00507138
v -0.095369 0.737767 0.0407379
v -0.104063 0.698081 0.0257815
v -0.0953251 0.695421 -0.0112182
v -0.0933225 0.707921 0.0411375
v -0.106813 0.71993 0.0183949
v 0.00542038 0.776712 0.000181976
# 175 texture vertices
vt 0.59375 -0.304688
vt 0.535156 -0.292969
vt 0.539063 -0.316406
vt 0.613281 -0.316406
vt 0.609375 -0.339844
vt 0.546875 -0.34375
vt 0.5625 -0.386719
vt 0.613281 -0.390625
vt 0.753906 -0.25
vt 0.699219 -0.257813
vt 0.695313 -0.292969
vt 0.746094 -0.289063
vt 0.667969 -0.59375
vt 0.738281 -0.59375
vt 0.746094 -0.542969
vt 0.660156 -0.546875
vt 0.605469 -0.546875
vt 0.625 -0.59375
vt 0.59375 -0.59375
vt 0.546875 -0.554688
vt 0.546875 -0.59375
vt 0.503906 -0.34375
vt 0.503906 -0.386719
vt 0.796875 -0.59375
vt 0.796875 -0.539063
vt 0.746094 -0.441406
vt 0.796875 -0.4375
vt 0.796875 -0.386719
vt 0.734375 -0.386719
vt 0.753906 -0.488281
vt 0.6875 -0.441406
vt 0.65625 -0.4375
vt 0.605469 -0.429688
vt 0.605469 -0.484375
vt 0.667969 -0.484375
vt 0.5625 -0.421875
vt 0.554688 -0.484375
vt 0.503906 -0.421875
vt 0.503906 -0.480469
vt 0.859758 -0.100631
vt 0.840066 -0.111743
vt 0.863084 -0.17033
vt 0.927714 -0.110956
vt 0.928064 -0.151174
vt 0.955121 -0.14247
vt 0.910156 -0.113281
vt 0.899273 -0.115624
vt 0.891784 -0.16139
vt 0.88529 -0.116338
vt 0.897534 -0.059442
vt 0.886178 -0.065363
vt 0.899981 -0.024266
vt 0.88451 -0.024361
vt 0.6875 -0.382813
vt 0.722656 -0.230469
vt 0.863857 -0.066522
vt 0.867188 -0.023438
vt 0.856743 -0.024579
vt 0.854629 -0.084885
vt 0.683594 -0.347656
vt 0.734375 -0.335938
vt 0.703125 -0.320313
vt 0.796875 -0.339844
vt 0.796875 -0.289063
vt 0.911263 -0.059194
vt 0.911691 -0.087007
vt 0.942622 -0.057626
vt 0.925549 -0.082183
vt 0.957031 -0.094498
vt 0.652344 -0.382813
vt 0.625 -0.394531
vt 0.950466 -0.024372
vt 0.664063 -0.378906
vt 0.675781 -0.230469
vt 0.503906 -0.3125
vt 0.503906 -0.558594
vt 0.5 -0.59375
vt 0.834869 -0.171917
vt 0.796875 -0.488281
vt 0.585938 -0.253906
vt 0.582031 -0.289063
vt 0.679688 -0.339844
vt 0.796875 -0.257813
vt 0.65625 -0.363281
vt 0.632813 -0.363281
vt 0.847256 -0.024642
vt 0.928913 -0.062212
vt 0.402344 -0.300781
vt 0.398438 -0.316406
vt 0.46875 -0.316406
vt 0.476563 -0.296875
vt 0.398438 -0.347656
vt 0.394531 -0.390625
vt 0.445313 -0.386719
vt 0.460938 -0.34375
vt 0.25 -0.246094
vt 0.261719 -0.289063
vt 0.3125 -0.292969
vt 0.308594 -0.257813
vt 0.332031 -0.59375
vt 0.347656 -0.542969
vt 0.261719 -0.542969
vt 0.257813 -0.59375
vt 0.402344 -0.546875
vt 0.382813 -0.59375
vt 0.460938 -0.554688
vt 0.410156 -0.59375
vt 0.464844 -0.59375
vt 0.210938 -0.539063
vt 0.210938 -0.59375
vt 0.261719 -0.441406
vt 0.273438 -0.386719
vt 0.210938 -0.386719
vt 0.210938 -0.4375
vt 0.253906 -0.488281
vt 0.320313 -0.441406
vt 0.351563 -0.4375
vt 0.339844 -0.488281
vt 0.402344 -0.484375
vt 0.402344 -0.429688
vt 0.453125 -0.484375
vt 0.445313 -0.421875
vt 0.140974 -0.101172
vt 0.136673 -0.170671
vt 0.160156 -0.109375
vt 0.071528 -0.111727
vt 0.046875 -0.14693
vt 0.07032 -0.149829
vt 0.082031 -0.113281
vt 0.108264 -0.161447
vt 0.100866 -0.115209
vt 0.114581 -0.116373
vt 0.102466 -0.059442
vt 0.113674 -0.065298
vt 0.11549 -0.024361
vt 0.100019 -0.024266
vt 0.320313 -0.382813
vt 0.277344 -0.230469
vt 0.136116 -0.067004
vt 0.145371 -0.084885
vt 0.143257 -0.024579
vt 0.132038 -0.024353
vt 0.320313 -0.34375
vt 0.308594 -0.316406
vt 0.277344 -0.335938
vt 0.210938 -0.339844
vt 0.210938 -0.289063
vt 0.088737 -0.059194
vt 0.087763 -0.086132
vt 0.058823 -0.057925
vt 0.046875 -0.095021
vt 0.07783 -0.080473
vt 0.382813 -0.394531
vt 0.355469 -0.382813
vt 0.04924 -0.030881
vt 0.34375 -0.378906
vt 0.324219 -0.230469
vt 0.164063 -0.175781
vt 0.210938 -0.488281
vt 0.425781 -0.253906
vt 0.414063 -0.28125
vt 0.328125 -0.347656
vt 0.210938 -0.257813
vt 0.351563 -0.359375
vt 0.375 -0.367188
vt 0.156138 -0.025072
vt 0.077514 -0.05783
vt 0.230469 -0.25
vt 0.257813 -0.238281
vt 0.441406 -0.289063
vt 0.484375 -0.304688
vt 0.523438 -0.304688
vt 0.5625 -0.289063
vt 0.773438 -0.25
vt 0.738281 -0.234375
# 156 normals
vn 0.0422516 0.43516 -0.898707
vn 0.13989 0.521345 -0.841802
vn 0.103592 0.372959 -0.922047
vn 0.116112 0.154752 -0.980855
vn 0.391746 -0.220381 -0.830447
vn 0.164361 0.370479 -0.911748
vn 0.381524 0.126323 -0.906534
vn 0.838218 -0.0574184 -0.532045
vn 0.229581 0.928409 0.292146
vn 0.229304 0.967319 0.0449363
vn 0.225032 0.592111 0.758862
vn 0.120254 0.611618 0.78039
vn 0.83629 0.268148 0.478242
vn 0.30163 0.345197 0.88874
vn 0.319362 0.21285 0.922227
vn 0.866962 0.118374 0.483152
vn 0.904656 -0.0366007 -0.423568
vn 0.981781 0.156176 -0.108236
vn 0.815988 -0.0769435 -0.572926
vn 0.395785 -0.117613 -0.90961
vn 0.395705 -0.145516 -0.906776
vn 0.0153023 0.381319 -0.924317
vn 0.0176784 0.164505 -0.976
vn -0.00708987 0.317696 0.948166
vn -0.0133731 0.215059 0.975272
vn 0.225067 -0.00756834 0.963254
vn -0.000778499 0.0432672 0.988
vn 0.0578577 0.0480406 0.984322
vn 0.228554 -0.00947248 0.9655
vn 0.305519 0.023959 0.946221
vn 0.583441 -0.0613463 0.797795
vn 0.963737 -0.119998 0.199869
vn 0.879725 -0.120046 -0.439905
vn 0.898924 -0.0945823 -0.41489
vn 0.885093 -0.101904 0.44367
vn 0.446678 -0.0571722 -0.880399
vn 0.445731 -0.0694425 -0.885551
vn 0.0156562 -0.0110899 -0.98921
vn 0.0148039 -0.0525323 -0.992615
vn 0.510712 -0.0499338 -0.851188
vn -0.574976 -0.408253 -0.679349
vn 0.687118 -0.180253 -0.703831
vn -0.92933 0.072542 0.362054
vn -0.698515 0.145485 0.70065
vn -0.725783 -0.299231 -0.619437
vn -0.33198 0.198902 0.886648
vn 0.635585 0.31664 0.704111
vn 0.690722 0.317811 0.649539
vn 0.828559 0.325604 -0.137881
vn 0.38337 0.785291 0.219979
vn 0.223358 0.847665 -0.361548
vn 0.150176 0.895163 -0.411025
vn 0.682101 -0.0455343 0.72211
vn 0.274064 0.899547 -0.340153
vn 0.188277 0.378418 -0.82731
vn 0.0879294 -0.151817 -0.963499
vn 0.541945 -0.0380832 0.790161
vn 0.187262 0.197514 0.96017
vn 0.300159 -0.0693678 0.921324
vn 0.090379 0.188926 0.968391
vn -0.0269324 0.54154 0.840243
vn 0.349203 -0.762187 -0.0910113
vn -0.101512 -0.617766 0.567663
vn 0.987829 -0.088251 -0.0439118
vn 0.959078 -0.114314 -0.226244
vn 0.799064 -0.215061 0.335989
vn 0.0151511 0.387602 -0.921702
vn 0.0169635 -0.115082 -0.991995
vn 0.0163353 -0.15069 -0.988446
vn -0.0147828 0.0375142 0.993252
vn -0.0252985 0.79873 0.601158
vn 0.793022 -0.275414 0.0713998
vn 0.000700474 0.436355 -0.899718
vn -0.0787348 0.132438 -0.988041
vn -0.0727145 0.370373 -0.926033
vn -0.116934 0.517578 -0.847609
vn -0.380104 -0.203552 -0.891466
vn -0.816029 -0.0816517 -0.564676
vn -0.349419 0.12415 -0.919956
vn -0.145082 0.36281 -0.917978
vn -0.269648 0.92109 0.280862
vn -0.170437 0.609555 0.773798
vn -0.26248 0.582234 0.725877
vn -0.237248 0.970422 0.0339941
vn -0.826285 0.335118 0.452713
vn -0.868742 0.186541 0.457749
vn -0.343202 0.235806 0.907969
vn -0.308855 0.373019 0.874909
vn -0.891676 0.0243885 -0.451099
vn -0.975756 0.172289 -0.134971
vn -0.354146 -0.0955762 -0.929139
vn -0.792972 -0.0406908 -0.607898
vn -0.355639 -0.115832 -0.927418
vn -0.27412 -0.0178105 0.949416
vn -0.273967 0.0042415 0.953153
vn -0.333146 0.00809837 0.93621
vn -0.623841 -0.071748 0.764305
vn -0.969694 -0.138773 0.161224
vn -0.897258 -0.11043 0.41577
vn -0.888571 -0.0850523 -0.442232
vn -0.861929 -0.138358 -0.474714
vn -0.414958 -0.0680547 -0.901834
vn -0.415294 -0.0653584 -0.897031
vn -0.47862 -0.05356 -0.870635
vn -0.665254 -0.175937 -0.725592
vn 0.594721 -0.422827 -0.628706
vn 0.910672 -0.00662539 0.413078
vn 0.729409 -0.341893 -0.592513
vn 0.659944 0.120482 0.741592
vn 0.281793 0.196486 0.924256
vn -0.710804 0.331381 0.620438
vn -0.655143 0.324604 0.682217
vn -0.790761 0.288389 -0.222584
vn -0.358601 0.735833 0.149592
vn -0.186747 0.82671 -0.393238
vn -0.13271 0.898335 -0.417679
vn -0.707016 -0.0665451 0.695277
vn -0.284659 0.891355 -0.352783
vn -0.130424 0.345473 -0.853067
vn -0.033523 -0.159279 -0.966612
vn -0.55054 -0.0406579 0.724569
vn -0.296728 0.0205036 0.895922
vn -0.23454 0.191872 0.950632
vn -0.315149 -0.770382 -0.129808
vn -0.331618 -0.563469 0.554773
vn -0.948136 -0.137355 -0.265817
vn -0.984091 -0.111641 -0.0860118
vn -0.846868 -0.208615 0.224478
vn -0.9929 0.0238536 -0.103454
vn 0.185433 -0.965674 0.181903
vn 0.0453941 -0.947409 0.316787
vn -0.195592 -0.96389 0.18072
vn -0.0618769 -0.945504 0.319676
vn -0.0529659 -0.988249 0.143383
vn -0.0499785 -0.986263 0.157438
vn -0.0667862 -0.988714 0.134106
vn -0.147807 -0.98174 0.119746
vn -0.0545212 -0.988519 0.14092
vn -0.0490462 -0.988334 0.144187
vn -0.0540645 -0.988338 0.142352
vn -0.0476817 -0.989324 0.13771
vn -0.0682852 -0.990208 0.121756
vn -0.04612 -0.989037 0.14028
vn -0.0492952 -0.986458 0.15643
vn -0.0500792 -0.986321 0.157048
vn -0.0438859 -0.988216 0.146643
vn -0.0455993 -0.988736 0.142557
vn 0.011615 0.522378 -0.852635
vn 0.38301 0.636639 -0.669324
vn -0.00164599 0.870686 -0.491837
vn 0.632084 0.71233 -0.305051
vn 0.658002 0.735657 -0.160755
vn -0.00697113 0.951194 -0.308516
vn -0.671338 0.71617 -0.190803
vn -0.638255 0.693708 -0.333767
vn -0.370868 0.625587 -0.686366
usemtl _20_-_Defaultaaaaa
g Bob_Shirt_Football
s off
f 1/1/1 2/3/3 3/2/2
f 2/3/3 1/1/1 4/4/4
f 5/5/5 6/7/7 7/6/6
f 6/7/7 5/5/5 8/8/8
f 9/9/9 10/11/11 11/10/10
f 10/11/11 9/9/9 12/12/12
f 13/13/13 14/15/15 15/14/14
f 14/15/15 13/13/13 16/16/16
f 17/17/17 13/13/13 18/18/18
f 13/13/13 17/17/17 16/16/16
f 19/19/19 20/20/20 17/17/17
f 20/20/20 19/19/19 21/21/21
f 7/6/6 22/23/23 23/22/22
f 22/23/23 7/6/6 6/7/7
f 15/14/14 24/25/25 25/24/24
f 24/25/25 15/14/14 14/15/15
f 26/26/26 27/28/28 28/27/27
f 27/28/28 26/26/26 29/29/29
f 30/30/30 31/31/31 26/26/26
f 32/32/32 33/34/34 34/33/33
f 33/34/34 32/32/32 35/35/35
f 33/34/34 36/36/36 34/33/33
f 36/36/36 33/34/34 37/37/37
f 38/38/38 37/37/37 39/39/39
f 37/37/37 38/38/38 36/36/36
f 40/40/40 41/42/42 42/41/41
f 43/43/43 44/45/45 45/44/44
f 46/46/46 47/48/48 48/47/47
f 46/46/46 45/44/44 47/48/48
f 46/46/46 43/43/43 45/44/44
f 49/49/49 47/48/48 41/42/42
f 50/50/50 49/49/49 51/51/51
f 49/49/49 50/50/50 48/47/47
f 51/51/51 11/52/10 50/50/50
f 11/52/10 51/51/51 52/53/52
f 31/31/31 29/29/29 26/26/26
f 29/29/29 31/31/31 53/54/53
f 11/10/10 54/55/54 9/9/9
f 55/56/55 4/58/4 1/57/1
f 4/58/4 55/56/55 56/59/56
f 40/40/40 56/59/56 55/56/55
f 57/60/57 12/12/12 58/61/58
f 57/60/57 10/11/11 12/12/12
f 57/60/57 59/62/59 10/11/11
f 60/63/60 12/12/12 61/64/61
f 12/12/12 60/63/60 58/61/58
f 50/50/50 11/52/10 10/65/11
f 48/47/47 59/66/59 46/46/46
f 48/47/47 10/65/11 59/66/59
f 48/47/47 50/50/50 10/65/11
f 62/67/62 43/43/43 63/68/63
f 43/43/43 62/67/62 42/69/41
f 34/33/33 64/70/64 32/32/32
f 64/70/64 34/33/33 65/71/65
f 5/72/5 42/69/41 62/67/62
f 8/8/8 65/71/65 34/33/33
f 64/70/64 66/73/66 32/32/32
f 17/17/17 18/18/18 19/19/19
f 54/55/54 11/10/10 52/74/52
f 2/3/3 67/75/67 3/2/2
f 68/76/68 21/21/21 69/77/69
f 21/21/21 68/76/68 20/20/20
f 44/45/45 43/43/43 42/69/41
f 42/41/41 41/42/42 44/78/45
f 37/37/37 17/17/17 20/20/20
f 17/17/17 37/37/37 33/34/34
f 33/34/34 16/16/16 17/17/17
f 16/16/16 33/34/34 35/35/35
f 16/16/16 30/30/30 14/15/15
f 30/30/30 16/16/16 35/35/35
f 14/15/15 70/79/70 24/25/25
f 70/79/70 14/15/15 30/30/30
f 54/80/54 52/81/52 3/2/2
f 3/2/2 52/81/52 1/1/1
f 1/57/1 51/51/51 55/56/55
f 51/51/51 1/57/1 52/53/52
f 55/56/55 49/49/49 40/40/40
f 49/49/49 55/56/55 51/51/51
f 49/49/49 41/42/42 40/40/40
f 47/48/48 49/49/49 48/47/47
f 35/35/35 32/32/32 31/31/31
f 57/60/57 63/82/63 59/62/59
f 32/32/32 53/54/53 31/31/31
f 53/54/53 32/32/32 66/73/66
f 31/31/31 30/30/30 35/35/35
f 71/83/71 12/12/12 9/9/9
f 29/29/29 60/63/60 27/28/28
f 60/63/60 29/29/29 58/61/58
f 58/61/58 53/54/53 57/60/57
f 53/54/53 58/61/58 29/29/29
f 53/54/53 63/82/63 57/60/57
f 63/82/63 53/54/53 66/73/66
f 63/82/63 64/70/64 72/84/72
f 64/70/64 63/82/63 66/73/66
f 72/84/72 65/71/65 62/85/62
f 65/71/65 72/84/72 64/70/64
f 8/8/8 62/85/62 65/71/65
f 62/85/62 8/8/8 5/5/5
f 6/7/7 38/38/38 22/23/23
f 38/38/38 6/7/7 36/36/36
f 36/36/36 8/8/8 34/33/33
f 8/8/8 36/36/36 6/7/7
f 7/6/6 4/4/4 5/5/5
f 4/4/4 7/6/6 2/3/3
f 5/86/5 56/59/56 42/41/41
f 56/59/56 5/86/5 4/58/4
f 56/59/56 40/40/40 42/41/41
f 46/46/46 63/68/63 43/43/43
f 63/68/63 46/46/46 59/66/59
f 2/3/3 23/22/22 67/75/67
f 23/22/22 2/3/3 7/6/6
f 28/27/27 30/30/30 26/26/26
f 30/30/30 28/27/27 70/79/70
f 71/83/71 61/64/61 12/12/12
f 20/20/20 39/39/39 37/37/37
f 39/39/39 20/20/20 68/76/68
f 62/67/62 63/68/63 72/87/72
f 73/88/73 74/90/75 75/89/74
f 74/90/75 73/88/73 76/91/76
f 77/92/77 78/94/79 79/93/78
f 78/94/79 77/92/77 80/95/80
f 81/96/81 82/98/83 83/97/82
f 82/98/83 81/96/81 84/99/84
f 85/100/85 86/102/87 87/101/86
f 86/102/87 85/100/85 88/103/88
f 89/104/89 85/100/85 87/101/86
f 85/100/85 89/104/89 90/105/90
f 91/106/91 92/107/92 89/104/89
f 92/107/92 91/106/91 93/108/93
f 80/95/80 22/23/23 78/94/79
f 22/23/23 80/95/80 23/22/22
f 88/103/88 24/109/25 86/102/87
f 24/109/25 88/103/88 25/110/24
f 94/111/94 27/113/28 95/112/95
f 27/113/28 94/111/94 28/114/27
f 96/115/96 94/111/94 97/116/97
f 98/117/98 99/119/100 100/118/99
f 99/119/100 98/117/98 101/120/101
f 99/119/100 102/122/103 103/121/102
f 102/122/103 99/119/100 101/120/101
f 38/38/38 103/121/102 102/122/103
f 103/121/102 38/38/38 39/39/39
f 104/123/104 105/125/106 106/124/105
f 107/126/107 108/128/109 109/127/108
f 110/129/110 108/128/109 107/126/107
f 110/129/110 111/130/111 108/128/109
f 110/129/110 112/131/112 111/130/111
f 113/132/113 106/124/105 111/130/111
f 114/133/114 113/132/113 112/131/112
f 113/132/113 114/133/114 115/134/115
f 115/134/115 84/136/84 116/135/116
f 84/136/84 115/134/115 114/133/114
f 97/116/97 95/112/95 117/137/117
f 95/112/95 97/116/97 94/111/94
f 84/99/84 81/96/81 118/138/118
f 119/139/119 75/141/74 120/140/120
f 75/141/74 119/139/119 73/142/73
f 104/123/104 119/139/119 120/140/120
f 121/143/121 82/98/83 122/144/122
f 121/143/121 83/97/82 82/98/83
f 121/143/121 123/145/123 83/97/82
f 60/146/60 83/97/82 123/145/123
f 83/97/82 60/146/60 61/147/61
f 114/133/114 82/148/83 84/136/84
f 112/131/112 82/148/83 114/133/114
f 112/131/112 122/149/122 82/148/83
f 112/131/112 110/129/110 122/149/122
f 124/150/124 107/126/107 105/151/106
f 107/126/107 124/150/124 125/152/125
f 101/120/101 126/154/127 127/153/126
f 126/154/127 101/120/101 98/117/98
f 77/155/77 124/150/124 105/151/106
f 79/93/78 101/120/101 127/153/126
f 126/154/127 98/117/98 128/156/128
f 89/104/89 92/107/92 90/105/90
f 118/138/118 116/157/116 84/99/84
f 74/90/75 76/91/76 67/75/67
f 68/76/68 93/108/93 91/106/91
f 93/108/93 68/76/68 69/77/69
f 109/127/108 105/151/106 107/126/107
f 105/125/106 109/158/108 106/124/105
f 103/121/102 89/104/89 99/119/100
f 89/104/89 103/121/102 91/106/91
f 99/119/100 87/101/86 100/118/99
f 87/101/86 99/119/100 89/104/89
f 87/101/86 96/115/96 100/118/99
f 96/115/96 87/101/86 86/102/87
f 86/102/87 70/159/70 96/115/96
f 70/159/70 86/102/87 24/109/25
f 118/160/118 76/91/76 116/161/116
f 76/91/76 73/88/73 116/161/116
f 73/142/73 115/134/115 116/135/116
f 115/134/115 73/142/73 119/139/119
f 119/139/119 113/132/113 115/134/115
f 113/132/113 119/139/119 104/123/104
f 113/132/113 104/123/104 106/124/105
f 111/130/111 112/131/112 113/132/113
f 100/118/99 97/116/97 98/117/98
f 121/143/121 122/144/122 125/162/125
f 98/117/98 117/137/117 128/156/128
f 117/137/117 98/117/98 97/116/97
f 97/116/97 100/118/99 96/115/96
f 71/163/71 81/96/81 83/97/82
f 95/112/95 60/146/60 123/145/123
f 60/146/60 95/112/95 27/113/28
f 123/145/123 117/137/117 95/112/95
f 117/137/117 123/145/123 121/143/121
f 117/137/117 125/162/125 128/156/128
f 125/162/125 117/137/117 121/143/121
f 125/162/125 126/154/127 128/156/128
f 126/154/127 125/162/125 129/164/129
f 129/164/129 127/153/126 126/154/127
f 127/153/126 129/164/129 124/165/124
f 79/93/78 124/165/124 77/92/77
f 124/165/124 79/93/78 127/153/126
f 78/94/79 38/38/38 102/122/103
f 38/38/38 78/94/79 22/23/23
f 102/122/103 79/93/78 78/94/79
f 79/93/78 102/122/103 101/120/101
f 80/95/80 75/89/74 74/90/75
f 75/89/74 80/95/80 77/92/77
f 77/166/77 120/140/120 75/141/74
f 120/140/120 77/166/77 105/125/106
f 120/140/120 105/125/106 104/123/104
f 110/129/110 125/152/125 122/149/122
f 125/152/125 110/129/110 107/126/107
f 74/90/75 23/22/22 80/95/80
f 23/22/22 74/90/75 67/75/67
f 28/114/27 96/115/96 70/159/70
f 96/115/96 28/114/27 94/111/94
f 71/163/71 83/97/82 61/147/61
f 39/39/39 91/106/91 103/121/102
f 91/106/91 39/39/39 68/76/68
f 124/150/124 129/167/129 125/152/125
f 44/45/130 47/48/130 45/44/130
f 47/48/131 44/45/131 41/42/131
f 111/130/132 109/127/132 108/128/132
f 109/127/133 111/130/133 106/124/133
f 69/77/134 92/107/136 93/108/135
f 92/107/136 85/100/138 90/105/137
f 69/77/134 85/100/138 92/107/136
f 69/77/134 88/103/139 85/100/138
f 25/24/140 88/103/139 69/77/134
f 15/14/141 18/18/143 13/13/142
f 18/18/143 21/21/145 19/19/144
f 18/18/143 69/77/146 21/21/145
f 15/14/141 69/77/146 18/18/143
f 25/24/147 69/77/146 15/14/141
f 71/163/148 130/168/150 81/96/149
f 81/96/149 130/169/150 118/138/151
f 130/170/150 76/91/152 118/160/151
f 76/91/152 130/171/150 67/75/153
f 3/2/154 67/75/153 130/172/150
f 54/80/155 3/2/154 130/173/150
f 71/83/148 9/9/156 130/174/150
f 9/9/156 54/55/155 130/175/150
