# Wavefront OBJ
# Created by fragMOTION 1.3.7
# http://www.fragmosoft.com

mtllib Bob_ArticShoulder_L.mtl
# 128 vertices
v 0.148294 0.72 0.0655094
v 0.117617 0.71394 0.0700461
v 0.126496 0.69403 0.0720504
v 0.148403 0.68637 0.0664568
v 0.120825 0.803436 0.0582656
v 0.0691523 0.809933 0.0466302
v 0.0812926 0.792357 0.0650365
v 0.114939 0.78496 0.0739239
v 0.144001 0.758301 0.0713522
v 0.140425 0.75811 0.0663045
v 0.0993658 0.7374 0.0706753
v 0.11867 0.714635 0.0721832
v 0.150012 0.721271 0.0676415
v 0.135777 0.804448 0.0187549
v 0.0809911 0.81348 0.0136499
v 0.157097 0.763949 0.0276751
v 0.153538 0.760667 0.0270025
v 0.0834816 0.775676 0.0773227
v 0.0920318 0.758316 0.0747985
v 0.15909 0.710763 0.032062
v 0.15815 0.676468 0.034185
v 0.157191 0.709781 0.0320746
v 0.144533 0.719161 0.0611107
v 0.144652 0.685391 0.0618781
v 0.126603 0.693857 0.0660535
v 0.117149 0.713345 0.0641082
v 0.115829 0.794901 0.0502863
v 0.111473 0.779849 0.0633017
v 0.0812214 0.789009 0.0602453
v 0.0693333 0.804712 0.0440384
v 0.137543 0.756826 0.0614661
v 0.0990277 0.736682 0.0647737
v 0.0814235 0.807918 0.0139491
v 0.130351 0.796121 0.0181342
v 0.14864 0.758416 0.0268326
v 0.0797424 0.773988 0.073441
v 0.0886814 0.755397 0.0635601
v 0.151316 0.709008 0.0318026
v 0.152176 0.675931 0.0340696
v 0.0892074 0.755646 0.0693763
v 0.152005 0.702196 -0.0133442
v 0.151115 0.670441 0.000178999
v 0.129757 0.674872 -0.0076638
v 0.12039 0.692308 -0.0173371
v 0.119522 0.781816 -0.0459807
v 0.11728 0.757477 -0.0526973
v 0.0821584 0.765101 -0.0501212
v 0.0718448 0.789638 -0.0410197
v 0.14826 0.735248 -0.0349359
v 0.143985 0.733777 -0.0299735
v 0.153856 0.702431 -0.0154785
v 0.121938 0.692225 -0.0193981
v 0.108153 0.716399 -0.0309392
v 0.081881 0.807328 -0.0124917
v 0.136401 0.798183 -0.00811976
v 0.157928 0.758542 0.00467387
v 0.154278 0.755901 0.00601314
v 0.0880717 0.741088 -0.0543984
v 0.10016 0.731133 -0.0444648
v 0.159545 0.708327 0.021587
v 0.157823 0.707808 0.0215762
v 0.147799 0.703056 -0.00930507
v 0.119399 0.694431 -0.0118254
v 0.129398 0.67744 -0.0022528
v 0.147003 0.671576 0.00439862
v 0.115043 0.777045 -0.0361433
v 0.0717476 0.786169 -0.036462
v 0.0819277 0.763893 -0.0445217
v 0.114285 0.755705 -0.0407078
v 0.141272 0.738739 -0.0259576
v 0.107578 0.718596 -0.0254302
v 0.130657 0.790881 -0.00518121
v 0.0826985 0.802146 -0.0104069
v 0.149347 0.754102 0.00630533
v 0.0843942 0.739666 -0.0503238
v 0.0954121 0.733202 -0.0341988
v 0.151973 0.707115 0.02166
v 0.0968152 0.730901 -0.0392569
v -0.095954 0.687833 0.00244635
v -0.0882659 0.683816 -0.0255428
v -0.083801 0.684403 -0.023236
v -0.0908958 0.687907 0.00256069
v -0.0518941 0.685265 -0.0610251
v -0.0495732 0.685654 -0.0565453
v 0.00836687 0.693928 -0.0699682
v 0.00825386 0.693838 -0.0649104
v 0.0561722 0.710736 -0.060465
v 0.0560626 0.710423 -0.0554162
v 0.0962734 0.741414 -0.044828
v 0.096055 0.742634 -0.0400092
v -0.0961027 0.703794 -0.00132642
v -0.0910445 0.703868 -0.00121208
v -0.0839497 0.700363 -0.0270085
v -0.0884146 0.699776 -0.0293154
v -0.0496344 0.701995 -0.0579327
v -0.0519553 0.701607 -0.0624115
v 0.00800705 0.710235 -0.064626
v 0.00812007 0.710324 -0.0696836
v 0.0490613 0.728381 -0.0562312
v 0.0488001 0.725368 -0.0597152
v 0.086607 0.749848 -0.0418697
v 0.0867419 0.74872 -0.0467566
v -0.101747 0.694875 0.0324635
v -0.0966894 0.694949 0.0325779
v -0.0909027 0.703513 0.0578864
v -0.0950532 0.704142 0.0607111
v -0.0518989 0.717358 0.0764073
v -0.0533495 0.718383 0.0811452
v 0.00444699 0.728029 0.081328
v 0.00431237 0.730085 0.0859492
v 0.0608325 0.751056 0.0730125
v 0.0611766 0.753415 0.0774403
v 0.0904762 0.76739 0.0631018
v 0.0903675 0.7685 0.0679728
v -0.101895 0.710835 0.0286908
v -0.0952019 0.720102 0.0569386
v -0.0910514 0.719472 0.0541138
v -0.0968381 0.710909 0.0288051
v -0.0539238 0.734365 0.0775095
v -0.0524732 0.73334 0.0727716
v 0.00424351 0.745068 0.0792787
v 0.00437812 0.743012 0.0746573
v 0.0594357 0.765833 0.0704494
v 0.0591021 0.763449 0.06603
v 0.0843983 0.77724 0.0663261
v 0.0845095 0.776018 0.061508
v 0.104141 0.740596 0.0753098
v 0.112591 0.718356 -0.0356755
# 62 texture vertices
vt 0.67827 -0.56135
vt 0.753751 -0.721801
vt 0.810746 -0.581263
vt 0.655882 -0.753892
vt 0.722034 -0.182657
vt 0.852203 -0.099115
vt 0.730904 -0.025345
vt 0.826675 -0.24236
vt 0.728944 -0.366769
vt 0.811834 -0.580984
vt 0.944653 -0.409954
vt 0.682929 -0.560991
vt 0.547633 -0.201315
vt 0.56478 -0.037467
vt 0.545059 -0.354284
vt 0.958646 -0.159185
vt 0.984093 -0.286629
vt 0.520727 -0.572093
vt 0.496903 -0.765286
vt 0.315536 -0.561351
vt 0.235502 -0.721916
vt 0.337258 -0.754023
vt 0.182746 -0.580841
vt 0.271772 -0.182657
vt 0.141602 -0.099116
vt 0.167131 -0.242361
vt 0.262901 -0.025345
vt 0.264862 -0.36677
vt 0.181918 -0.57886
vt 0.302047 -0.561988
vt 0.09844 -0.397482
vt 0.446173 -0.201315
vt 0.429025 -0.037467
vt 0.448747 -0.354284
vt 0.035159 -0.159186
vt 0.009712 -0.28663
vt 0.473079 -0.572093
vt 0.5 -0.992188
vt 0.5625 -0.992188
vt 0.664063 -0.992188
vt 0.804688 -0.992188
vt 0.898438 -0.992188
vt 1 -0.992188
vt 0.5 -0.9375
vt 0.5625 -0.9375
vt 0.664063 -0.9375
vt 0.804688 -0.9375
vt 0.898438 -0.9375
vt 1 -0.9375
vt 0.4375 -0.992188
vt 0.367188 -0.992188
vt 0.375 -0.992188
vt 0.273438 -0.992188
vt 0.148438 -0.992188
vt 0.046875 -0.992188
vt 0 -0.992188
vt 0.4375 -0.9375
vt 0.367188 -0.9375
vt 0.273438 -0.9375
vt 0.148438 -0.9375
vt 0.046875 -0.9375
vt 0 -0.9375
# 295 normals
vn 0.645985 0.115249 0.746966
vn 0.18408 0.102367 0.977567
vn 0.112476 0.170983 0.977643
vn 0.77767 0.0460916 0.626982
vn 0.277997 0.684389 0.575002
vn -0.157504 0.543292 0.792285
vn -0.233812 0.838679 0.427795
vn 0.126328 0.336168 0.921566
vn 0.559259 0.189055 0.784572
vn 0.451966 0.325623 0.806187
vn 0.0761505 0.0863591 0.992599
vn 0.0606994 0.132484 0.982166
vn 0.68811 0.199577 0.68771
vn 0.485518 0.721927 0.0745247
vn -0.160243 0.915629 -0.0466081
vn 0.83977 0.260322 0.176235
vn 0.784768 0.409133 0.121248
vn 0.0381281 0.27349 0.949642
vn 0.0558626 0.0587402 0.981189
vn 0.972384 0.121419 0.107257
vn 0.999198 0.0125673 0.0380213
vn 0.971973 0.0913673 0.148055
vn -0.638516 -0.181591 -0.739283
vn -0.0438942 -0.115656 -0.992319
vn -0.653274 -0.139824 -0.744099
vn -0.0619566 -0.0970245 -0.992055
vn -0.353725 -0.649624 -0.583798
vn -0.102672 -0.48534 -0.853719
vn -0.195132 -0.282459 -0.928843
vn 0.0360165 -0.853067 -0.468571
vn -0.486173 -0.282202 -0.800613
vn -0.0783126 -0.117354 -0.982979
vn -0.562898 -0.659276 0.000277349
vn -0.0397854 -0.927801 0.0456346
vn -0.811612 -0.360294 -0.0506791
vn -0.206066 -0.231104 -0.941167
vn -0.141434 -0.116721 -0.972663
vn -0.979648 -0.112882 -0.0374811
vn -0.997095 -0.0687349 -0.0328206
vn -0.669592 -0.740688 0.0550224
vn -0.152125 -0.941126 0.301893
vn -0.650703 -0.759263 0.0102907
vn -0.158749 -0.930809 0.329229
vn 0.0641706 -0.969675 0.235823
vn 0.08257 -0.968165 0.2363
vn -0.919243 -0.0405439 -0.177524
vn -0.952813 -0.0505252 0.00244351
vn -0.916076 -0.0484805 -0.184596
vn -0.953969 -0.0333992 -0.00157166
vn -0.882191 -0.0563399 0.132121
vn -0.875223 -0.0169318 0.150145
vn -0.588829 0.0563218 0.67399
vn -0.587129 0.0558267 0.676262
vn -0.712301 -0.483004 0.102499
vn -0.710179 -0.492665 0.0647742
vn -0.60645 -0.664624 0.101592
vn -0.612389 -0.659409 0.103993
vn -0.74396 -0.629266 0.130417
vn -0.74046 -0.634289 0.121456
vn 0.684896 -0.244934 -0.66074
vn 0.222191 -0.40361 -0.887542
vn 0.801685 -0.241246 -0.546902
vn 0.209605 -0.388354 -0.894731
vn 0.242305 0.401221 -0.771032
vn -0.148816 0.125221 -0.960064
vn 0.163389 -0.0868112 -0.951292
vn -0.193606 0.555545 -0.758587
vn 0.608872 -0.13372 -0.710562
vn 0.525931 -0.0795306 -0.792243
vn 0.166569 -0.386494 -0.905721
vn 0.737395 -0.111899 -0.638199
vn 0.142576 -0.351592 -0.914255
vn 0.493832 0.637269 -0.28957
vn -0.14731 0.840509 -0.357615
vn 0.850692 0.1871 -0.135983
vn 0.792988 0.343215 -0.167325
vn 0.0821181 -0.158664 -0.970258
vn 0.160701 -0.367119 -0.880652
vn 0.978935 0.0804567 -0.065339
vn 0.97796 0.0408852 -0.0895242
vn -0.634674 -0.189296 -0.738142
vn -0.0604252 -0.0945572 -0.992991
vn -0.288225 -0.688335 -0.570498
vn -0.0757284 -0.504064 -0.848481
vn 0.0247001 -0.846315 -0.471092
vn -0.19356 -0.297937 -0.924604
vn -0.469601 -0.317069 -0.793092
vn -0.0668847 -0.100707 -0.988606
vn -0.556584 -0.665417 0.00222103
vn -0.0535996 -0.921841 0.0427972
vn -0.804822 -0.369693 -0.0488232
vn -0.207601 -0.308641 -0.922353
vn -0.147327 -0.145142 -0.968346
vn -0.975372 -0.119557 -0.0368739
vn -0.674738 -0.698718 0.237743
vn -0.152636 -0.978075 0.141674
vn -0.154428 -0.981462 0.113504
vn -0.65661 -0.697328 0.287394
vn -0.921875 0.0305385 0.0988407
vn -0.943327 -0.0460735 -0.0480807
vn -0.943876 -0.0273405 -0.0518908
vn -0.916424 0.0339184 0.104186
vn -0.883727 -0.218341 -0.176377
vn -0.879084 -0.196854 -0.211741
vn -0.520116 -0.451196 -0.681349
vn -0.51596 -0.46576 -0.678046
vn -0.493959 -0.657159 0.102581
vn -0.503374 -0.641188 0.143524
vn -0.70054 -0.620527 0.135276
vn -0.702746 -0.622717 0.132646
vn -0.841696 -0.520501 0.049996
vn -0.842206 -0.518781 0.0582877
vn -0.983866 -0.0705424 -0.0279478
vn -0.997929 -0.0584928 -0.0267804
vn -0.979863 -0.0774013 -0.0273479
vn -0.846144 -0.266544 -0.00897525
vn -0.840324 -0.276617 -0.00704114
vn -0.540643 -0.662045 0.0991273
vn -0.534008 -0.667959 0.101015
vn 0.0349965 -0.902791 0.202058
vn 0.0204854 -0.897888 0.19954
vn 0.0163773 -0.990022 0.13996
vn 0.0726902 -0.991565 0.107306
vn 0.0722908 -0.991251 0.110431
vn 0.0114082 -0.990414 0.137661
vn 0.112995 -0.993188 0.0284363
vn 0.111603 -0.993371 0.027554
vn 0.23571 -0.971757 -0.0113281
vn 0.236697 -0.971492 -0.0133427
vn 0.478799 -0.876876 -0.0428913
vn 0.446236 -0.894061 -0.0391026
vn 0.0395753 -0.816459 0.170355
vn 0.0395086 -0.814107 0.186851
vn -0.0163772 0.990021 -0.139963
vn -0.0741795 0.991753 -0.104517
vn -0.0114081 0.990413 -0.137664
vn -0.0731212 0.991345 -0.10903
vn -0.116359 0.992851 -0.02659
vn -0.113929 0.993139 -0.0263544
vn -0.246135 0.969172 0.0110666
vn -0.2429 0.969959 0.0133795
vn -0.397451 0.878054 0.0462989
vn -0.438505 0.897925 0.0379896
vn -0.230053 0.854728 -0.180645
vn -0.218693 0.852526 -0.20117
vn -0.964459 -0.0692619 -0.254994
vn -0.833032 -0.134604 -0.536599
vn -0.863403 -0.112628 -0.491783
vn -0.397109 -0.0903382 -0.913315
vn -0.451175 -0.0686829 -0.889788
vn 0.0713078 0.0108042 -0.997396
vn 0.00392016 0.0291133 -0.999569
vn 0.208334 0.141363 -0.967788
vn 0.200213 0.151656 -0.967944
vn 0.294357 0.100651 -0.91051
vn 0.341289 0.016017 -0.87274
vn -0.339565 -0.00834204 0.873975
vn -0.230413 -0.133803 0.949863
vn -0.290409 -0.0983954 0.912652
vn -0.214533 -0.143482 0.966121
vn -0.0565599 -0.0308963 0.997921
vn -0.0113719 -0.00799964 0.999903
vn 0.395331 0.0700566 0.915863
vn 0.440812 0.0905407 0.893021
vn 0.842409 0.119001 0.525534
vn 0.868762 0.121575 0.480075
vn 0.964238 0.069445 0.255777
vn 0.0130925 -0.948441 0.316683
vn 0.0946161 -0.931698 0.350694
vn 0.006679 -0.947678 0.319159
vn 0.0979921 -0.934683 0.34171
vn 0.174548 -0.948822 0.263189
vn 0.175444 -0.948401 0.264111
vn 0.219323 -0.890678 0.398234
vn 0.225909 -0.886655 0.403496
vn 0.273858 -0.781914 0.423133
vn 0.288461 -0.781064 0.414633
vn -0.138033 -0.806026 0.192904
vn -0.136305 -0.809886 0.176483
vn -0.0130925 0.948442 -0.31668
vn -0.0947007 0.931644 -0.350814
vn -0.0983094 0.934527 -0.342045
vn -0.00667909 0.947679 -0.319156
vn -0.172774 0.949273 -0.262737
vn -0.17451 0.948617 -0.263954
vn -0.228147 0.888733 -0.397621
vn -0.231556 0.885347 -0.403166
vn -0.277471 0.788948 -0.427347
vn -0.293314 0.789361 -0.41524
vn -0.0806753 0.825714 -0.212659
vn -0.0725136 0.831407 -0.188925
vn -0.975208 0.04226 0.217217
vn -0.779813 0.137119 0.610811
vn -0.823511 0.121084 0.554228
vn -0.262833 0.20698 0.942379
vn -0.309238 0.216348 0.926048
vn -0.0734531 0.391281 0.917335
vn -0.10351 0.410001 0.906192
vn -0.071305 0.449422 0.882009
vn -0.0416947 0.437123 0.890055
vn 0.0475452 0.327035 0.933222
vn 0.0770068 0.266396 0.950029
vn -0.0311337 -0.298469 -0.940573
vn 0.0189178 -0.439663 -0.891208
vn 0.0172672 -0.452929 -0.883177
vn 0.00534027 -0.24215 -0.958122
vn 0.0691057 -0.411725 -0.908684
vn 0.0789687 -0.387908 -0.918309
vn 0.2881 -0.220523 -0.931863
vn 0.324778 -0.200915 -0.924204
vn 0.774696 -0.136217 -0.617488
vn 0.824686 -0.122821 -0.552094
vn 0.976939 -0.0404551 -0.20965
vn 0.982762 0.0511517 0.177658
vn -0.00906693 0.973141 -0.230033
vn -0.982762 -0.0511517 -0.177658
vn 0.00906693 -0.973141 0.230033
vn -0.576209 -0.448912 0.436716
vn -0.700118 -0.304161 0.39555
vn -0.73771 -0.257959 0.384995
vn -0.505148 -0.487963 0.525961
vn -0.587379 -0.438549 0.515498
vn -0.64699 -0.40113 0.50904
vn -0.595133 -0.45447 0.488251
vn -0.511638 -0.504588 0.498939
vn -0.457916 -0.529957 0.506206
vn 0.409965 -0.740229 0.338017
vn 0.361286 -0.788132 0.342635
vn 0.420742 -0.729524 0.336793
vn 0.363889 -0.794749 0.321914
vn 0.412612 -0.746661 0.317326
vn 0.468718 -0.690353 0.310151
vn 0.508311 -0.707314 0.242772
vn 0.562845 -0.639661 0.233426
vn 0.562093 -0.640605 0.233574
vn 0.55548 -0.647295 0.228388
vn 0.500205 -0.714376 0.237608
vn 0.446115 -0.778628 0.244065
vn 0.566533 -0.643355 0.210645
vn 0.568054 -0.641425 0.210343
vn 0.569233 -0.639928 0.210107
vn 0.56728 -0.642407 0.210497
vn 0.558227 -0.653502 0.193336
vn 0.480394 -0.747629 0.205568
vn 0.490517 -0.742098 0.201825
vn 0.56713 -0.647014 0.18942
vn 0.565946 -0.648507 0.189654
vn 0.399185 -0.807484 0.128102
vn 0.371667 -0.824964 0.132026
vn 0.32379 -0.880371 0.133168
vn 0.375452 -0.826407 0.109203
vn 0.402797 -0.808832 0.105297
vn -0.52203 -0.759492 -0.258595
vn -0.0411696 -0.824233 -0.223239
vn -0.12577 -0.815349 -0.228524
vn -0.029755 -0.820502 -0.251926
vn -0.504351 -0.762949 -0.286063
vn -0.440338 -0.770601 -0.280436
vn -0.614952 -0.524758 -0.343654
vn -0.561544 -0.589341 -0.325531
vn -0.378436 -0.801617 -0.252002
vn 0.225333 -0.888657 0.357137
vn 0.227169 -0.887046 0.357102
vn 0.22715 -0.886283 0.359055
vn 0.225315 -0.887894 0.359091
vn 0.214527 -0.897349 0.359264
vn 0.358502 -0.845681 0.35054
vn 0.355137 -0.849553 0.350663
vn 0.352976 -0.852036 0.350738
vn 0.25808 -0.891699 0.329058
vn 0.261829 -0.888179 0.32898
vn 0.366157 -0.885492 0.232248
vn 0.369042 -0.882122 0.23217
vn 0.37123 -0.879567 0.232107
vn 0.368317 -0.882969 0.23219
vn 0.271402 -0.934113 0.134187
vn 0.284423 -0.921715 0.134019
vn 0.284796 -0.92136 0.134013
vn 0.390063 -0.885086 0.114879
vn 0.3785 -0.89884 0.115187
vn 0.376344 -0.901397 0.115233
vn 0.252516 -0.935205 0.096853
vn 0.219103 -0.964915 0.0968988
vn 0.225062 -0.959637 0.0969357
vn 0.218026 -0.964658 0.101769
vn 0.251493 -0.934966 0.101716
vn 0.25111 -0.935308 0.10172
vn -0.495461 -0.663224 -0.551637
vn -0.500903 -0.661714 -0.552233
vn -0.427716 -0.681593 -0.544446
vn -0.26984 -0.546818 0.705254
vn -0.446381 -0.540067 0.70301
vn -0.43487 -0.540667 0.703157
vn 0.124355 -0.433716 -0.870955
vn 0.0663608 0.0391793 0.985614
usemtl _16_-_Defaultoo
g Bob_ArticShoulder_L
s off
f 1/1/1 2/3/3 3/2/2
f 3/2/2 4/4/4 1/1/1
f 5/5/5 6/7/7 7/6/6
f 7/6/6 8/8/8 5/5/5
f 9/9/9 5/5/5 8/8/8
f 10/9/10 11/11/12 12/10/11
f 12/10/11 13/12/13 10/9/10
f 6/7/7 5/5/5 14/13/14
f 14/13/14 15/14/15 6/7/7
f 14/13/14 5/5/5 9/9/9
f 9/9/9 16/15/16 14/13/14
f 17/15/17 10/9/10 13/12/13
f 18/16/18 19/17/19 8/8/8
f 8/8/8 7/6/6 18/16/18
f 17/15/17 13/12/13 20/18/20
f 1/1/1 4/4/4 21/19/21
f 21/19/21 22/18/22 1/1/1
f 23/1/23 24/4/25 25/2/24
f 25/2/24 26/3/26 23/1/23
f 27/5/27 28/8/29 29/6/28
f 29/6/28 30/7/30 27/5/27
f 31/9/31 28/8/29 27/5/27
f 31/9/31 23/1/23 26/3/26
f 26/3/26 32/11/32 31/9/31
f 30/7/30 33/14/34 34/13/33
f 34/13/33 27/5/27 30/7/30
f 27/5/27 34/13/33 35/15/35
f 35/15/35 31/9/31 27/5/27
f 35/15/35 23/1/23 31/9/31
f 36/16/36 29/6/28 28/8/29
f 28/8/29 37/17/37 36/16/36
f 28/8/29 31/9/31 37/17/37
f 31/9/31 32/11/32 37/17/37
f 35/15/35 38/18/38 23/1/23
f 23/1/23 38/18/38 39/19/39
f 39/19/39 24/4/25 23/1/23
f 3/2/40 25/2/42 24/4/41
f 24/4/41 4/4/43 3/2/40
f 24/4/41 39/19/45 21/19/44
f 21/19/44 4/4/43 24/4/41
f 15/14/46 33/14/48 30/7/47
f 30/7/47 6/7/49 15/14/46
f 30/7/47 29/6/51 7/6/50
f 7/6/50 6/7/49 30/7/47
f 29/6/51 36/16/53 18/16/52
f 18/16/52 7/6/50 29/6/51
f 36/16/53 37/17/55 40/17/54
f 40/17/54 18/16/52 36/16/53
f 40/17/54 37/17/55 32/11/56
f 32/11/56 11/11/57 40/17/54
f 32/11/56 26/3/59 2/3/58
f 2/3/58 11/11/57 32/11/56
f 26/3/59 25/2/42 3/2/40
f 3/2/40 2/3/58 26/3/59
f 41/20/60 42/22/62 43/21/61
f 43/21/61 44/23/63 41/20/60
f 45/24/64 46/26/66 47/25/65
f 47/25/65 48/27/67 45/24/64
f 49/28/68 46/26/66 45/24/64
f 50/28/69 51/30/71 52/29/70
f 52/29/70 53/31/72 50/28/69
f 48/27/67 54/33/74 55/32/73
f 55/32/73 45/24/64 48/27/67
f 49/28/68 45/24/64 55/32/73
f 55/32/73 56/34/75 49/28/68
f 57/34/76 51/30/71 50/28/69
f 58/35/77 47/25/65 46/26/66
f 46/26/66 59/36/78 58/35/77
f 57/34/76 60/37/79 51/30/71
f 41/20/60 61/37/80 21/19/21
f 21/19/21 42/22/62 41/20/60
f 62/20/81 63/23/82 64/21/24
f 64/21/24 65/22/25 62/20/81
f 66/24/83 67/27/85 68/25/84
f 68/25/84 69/26/86 66/24/83
f 70/28/87 66/24/83 69/26/86
f 70/28/87 71/31/88 63/23/82
f 63/23/82 62/20/81 70/28/87
f 67/27/85 66/24/83 72/32/89
f 72/32/89 73/33/90 67/27/85
f 66/24/83 70/28/87 74/34/91
f 74/34/91 72/32/89 66/24/83
f 74/34/91 70/28/87 62/20/81
f 75/35/92 76/36/93 69/26/86
f 69/26/86 68/25/84 75/35/92
f 69/26/86 76/36/93 70/28/87
f 70/28/87 76/36/93 71/31/88
f 74/34/91 62/20/81 77/37/94
f 62/20/81 65/22/25 39/19/39
f 39/19/39 77/37/94 62/20/81
f 43/21/95 42/22/97 65/22/96
f 65/22/96 64/21/98 43/21/95
f 65/22/96 42/22/97 21/19/44
f 21/19/44 39/19/45 65/22/96
f 54/33/99 48/27/101 67/27/100
f 67/27/100 73/33/102 54/33/99
f 67/27/100 48/27/101 47/25/103
f 47/25/103 68/25/104 67/27/100
f 68/25/104 47/25/103 58/35/105
f 58/35/105 75/35/106 68/25/104
f 75/35/106 58/35/105 78/36/107
f 78/36/107 76/36/108 75/35/106
f 78/36/107 53/31/110 71/31/109
f 71/31/109 76/36/108 78/36/107
f 71/31/109 53/31/110 44/23/111
f 44/23/111 63/23/112 71/31/109
f 63/23/112 44/23/111 43/21/95
f 43/21/95 64/21/98 63/23/112
f 38/18/113 77/37/115 39/19/114
f 35/15/116 74/34/117 77/37/115
f 77/37/115 38/18/113 35/15/116
f 34/13/118 72/32/119 74/34/117
f 74/34/117 35/15/116 34/13/118
f 33/14/120 73/33/121 72/32/119
f 72/32/119 34/13/118 33/14/120
f 22/18/22 21/19/21 61/37/80
f 20/18/20 60/37/79 57/34/76
f 57/34/76 17/15/17 20/18/20
f 16/15/16 56/34/75 55/32/73
f 55/32/73 14/13/14 16/15/16
f 15/14/15 14/13/14 55/32/73
f 55/32/73 54/33/74 15/14/15
f 33/14/48 15/14/46 54/33/99
f 54/33/99 73/33/102 33/14/48
f 79/38/122 80/39/124 81/39/123
f 81/39/123 82/38/125 79/38/122
f 80/39/124 83/40/127 84/40/126
f 84/40/126 81/39/123 80/39/124
f 83/40/127 85/41/129 86/41/128
f 86/41/128 84/40/126 83/40/127
f 85/41/129 87/42/131 88/42/130
f 88/42/130 86/41/128 85/41/129
f 87/42/131 89/43/133 90/43/132
f 90/43/132 88/42/130 87/42/131
f 91/44/134 92/44/136 93/45/135
f 93/45/135 94/45/137 91/44/134
f 94/45/137 93/45/135 95/46/138
f 95/46/138 96/46/139 94/45/137
f 96/46/139 95/46/138 97/47/140
f 97/47/140 98/47/141 96/46/139
f 98/47/141 97/47/140 99/48/142
f 99/48/142 100/48/143 98/47/141
f 100/48/143 99/48/142 101/49/144
f 101/49/144 102/49/145 100/48/143
f 79/38/146 91/44/146 94/45/147
f 94/45/147 80/39/148 79/38/146
f 80/39/148 94/45/147 96/46/149
f 96/46/149 83/40/150 80/39/148
f 83/40/150 96/46/149 98/47/151
f 98/47/151 85/41/152 83/40/150
f 85/41/152 98/47/151 100/48/153
f 100/48/153 87/42/154 85/41/152
f 87/42/154 100/48/153 102/49/155
f 102/49/155 89/43/156 87/42/154
f 90/43/157 101/49/159 99/48/158
f 99/48/158 88/42/160 90/43/157
f 88/42/160 99/48/158 97/47/161
f 97/47/161 86/41/162 88/42/160
f 86/41/162 97/47/161 95/46/163
f 95/46/163 84/40/164 86/41/162
f 84/40/164 95/46/163 93/45/165
f 93/45/165 81/39/166 84/40/164
f 81/39/166 93/45/165 92/44/167
f 92/44/167 82/38/167 81/39/166
f 103/50/168 104/50/170 105/51/169
f 105/51/169 106/52/171 103/50/168
f 106/52/171 105/51/169 107/53/172
f 107/53/172 108/53/173 106/52/171
f 108/53/173 107/53/172 109/54/174
f 109/54/174 110/54/175 108/53/173
f 110/54/175 109/54/174 111/55/176
f 111/55/176 112/55/177 110/54/175
f 112/55/177 111/55/176 113/56/178
f 113/56/178 114/56/179 112/55/177
f 115/57/180 116/58/182 117/58/181
f 117/58/181 118/57/183 115/57/180
f 116/58/182 119/59/185 120/59/184
f 120/59/184 117/58/181 116/58/182
f 119/59/185 121/60/187 122/60/186
f 122/60/186 120/59/184 119/59/185
f 121/60/187 123/61/189 124/61/188
f 124/61/188 122/60/186 121/60/187
f 123/61/189 125/62/191 126/62/190
f 126/62/190 124/61/188 123/61/189
f 103/50/192 106/51/194 116/58/193
f 116/58/193 115/57/192 103/50/192
f 106/51/194 108/53/196 119/59/195
f 119/59/195 116/58/193 106/51/194
f 108/53/196 110/54/198 121/60/197
f 121/60/197 119/59/195 108/53/196
f 110/54/198 112/55/200 123/61/199
f 123/61/199 121/60/197 110/54/198
f 112/55/200 114/56/202 125/62/201
f 125/62/201 123/61/199 112/55/200
f 113/56/203 111/55/205 124/61/204
f 124/61/204 126/62/206 113/56/203
f 111/55/205 109/54/208 122/60/207
f 122/60/207 124/61/204 111/55/205
f 109/54/208 107/53/210 120/59/209
f 120/59/209 122/60/207 109/54/208
f 107/53/210 105/51/212 117/58/211
f 117/58/211 120/59/209 107/53/210
f 105/51/212 104/50/213 118/57/213
f 118/57/213 117/58/211 105/51/212
f 118/57/214 104/50/214 82/38/214
f 82/38/214 92/44/214 118/57/214
f 118/57/215 92/44/215 91/44/215
f 91/44/215 115/57/215 118/57/215
f 115/57/216 91/44/216 79/38/216
f 79/38/216 103/50/216 115/57/216
f 104/50/217 103/50/217 79/38/217
f 79/38/217 82/38/217 104/50/217
f 18/16/218 40/17/220 19/17/219
f 40/17/221 11/11/223 127/11/222
f 127/11/224 19/17/226 40/17/225
f 11/11/227 10/9/229 9/9/228
f 9/9/230 127/11/232 11/11/231
f 10/9/233 17/15/235 16/15/234
f 16/15/236 9/9/238 10/9/237
f 17/15/239 57/34/241 56/34/240
f 56/34/240 16/15/242 17/15/239
f 57/34/243 50/28/244 49/28/244
f 49/28/245 56/34/247 57/34/246
f 50/28/248 53/31/250 128/31/249
f 128/31/251 49/28/252 50/28/252
f 53/31/253 78/36/255 59/36/254
f 59/36/256 128/31/258 53/31/257
f 78/36/259 58/35/261 59/36/260
f 2/3/262 1/1/263 13/12/263
f 13/12/264 12/10/266 2/3/265
f 1/1/267 22/18/269 20/18/268
f 20/18/270 13/12/271 1/1/271
f 22/18/272 61/37/274 60/37/273
f 60/37/273 20/18/275 22/18/272
f 61/37/276 41/20/278 51/30/277
f 51/30/279 60/37/281 61/37/280
f 41/20/282 44/23/284 52/29/283
f 52/29/285 51/30/287 41/20/286
f 44/23/288 53/31/290 52/29/289
f 11/11/291 2/3/293 12/10/292
f 128/31/294 59/36/78 46/26/66
f 46/26/66 49/28/68 128/31/294
f 8/8/8 19/17/19 127/11/295
f 127/11/295 9/9/9 8/8/8
