# Wavefront OBJ
# Created by fragMOTION 1.3.7
# http://www.fragmosoft.com

mtllib Bob_BoilerSuit.mtl
# 236 vertices
v 0.0682828 0.753698 -0.032514
v 0.0367825 0.752082 -0.0373278
v 0.0367915 0.782327 -0.0202389
v 0.0792533 0.730213 -0.0361101
v 0.0911554 0.712278 -0.0345256
v 0.0559778 0.685332 -0.0510948
v 0.0442202 0.720789 -0.047232
v 0.0909209 0.681175 -0.0208053
v 0.0312098 0.801049 0.0328746
v 0.0759872 0.769719 0.0603267
v 0.072317 0.7787 0.0267204
v 0.0415627 0.771312 0.0656962
v 0.0839923 0.546005 0.0405923
v 0.0439499 0.557889 0.0683676
v 0.0431386 0.549974 0.0707904
v 0.0846671 0.557894 0.0362398
v 0.0689994 0.547104 -0.0289605
v 0.0817957 0.524986 -0.0070675
v 0.036822 0.537528 -0.0556021
v 0.0638571 0.496383 -0.0360012
v 0.029026 0.479815 -0.0435191
v -0.00254294 0.686321 -0.0664613
v 0.00174908 0.72495 -0.0542083
v -0.00390346 0.556208 0.0718938
v -0.00371457 0.547124 0.0756114
v 0.0466394 0.638046 0.0823958
v -0.0108151 0.68092 0.0880696
v -0.00874436 0.641001 0.0867943
v 0.0495831 0.679536 0.0864154
v 0.0425374 0.470992 -0.05601
v 0.0924402 0.37236 -0.080565
v 0.0415902 0.391044 -0.106165
v 0.0905655 0.455964 -0.0194795
v 0.0355899 0.30037 -0.150187
v 0.0815509 0.281586 -0.105951
v -0.01084 0.459757 -0.0356962
v 0.00165166 0.331659 0.00694279
v 0.00362447 0.43142 0.0928322
v -0.0156672 0.374549 -0.0731242
v 0.0107218 0.267067 -0.0516797
v -0.000612258 0.282952 -0.103249
v 0.0902231 0.337334 -0.00910794
v 0.0878119 0.419747 0.040913
v 0.0746117 0.268428 -0.0558962
v 0.0393578 0.233605 -0.143709
v 0.0786963 0.153454 -0.124036
v 0.0348271 0.163344 -0.155431
v 0.0836242 0.227867 -0.112137
v 0.0743749 0.0635986 -0.132578
v 0.0361865 0.0874367 -0.165803
v -0.00953304 0.212359 -0.112724
v 0.00131188 0.150009 -0.0641742
v -0.00257102 0.216216 -0.0419644
v -0.00356534 0.153121 -0.120631
v 0.010478 0.057334 -0.0947896
v 0.00372426 0.0706515 -0.143076
v 0.0815452 0.148346 -0.0721763
v 0.0806584 0.224157 -0.047714
v 0.055503 0.0544469 -0.0933468
v 0.0883711 0.495455 0.00323068
v -0.0154922 0.470866 -0.0480739
v -0.014263 0.434205 -0.0276631
v 0.0933598 0.499862 0.0588802
v 0.0420028 0.504594 0.0927955
v 0.0900929 0.437885 0.0556219
v 0.0396951 0.439353 0.0881643
v 0.0479511 0.595051 0.0666402
v 0.0832536 0.634791 0.061421
v 0.0915872 0.640685 0.0376951
v 0.0765747 0.596071 -0.0254376
v 0.085112 0.647029 -0.0227053
v 0.0878089 0.593203 0.0309168
v 0.0517624 0.650164 -0.0549051
v 0.0457431 0.59467 -0.0523883
v -0.0106398 0.653777 -0.0663143
v -0.0126405 0.592661 -0.0557942
v 0.129914 0.689269 -0.0128402
v 0.13878 0.650374 0.0214328
v 0.0682681 0.693632 -0.0106518
v 0.0849419 0.600948 0.0537984
v 0.0719359 0.642154 0.023131
v 0.141487 0.608308 0.0523673
v 0.0571907 0.722919 0.0573907
v 0.0685153 0.68291 0.0890917
v 0.0813899 0.635551 0.110856
v 0.0806505 0.725997 0.0709391
v 0.135114 0.691505 0.0871856
v 0.126433 0.734724 0.0610749
v 0.137484 0.642511 0.109621
v 0.137088 0.710094 0.0211573
v 0.14854 0.58553 0.0551141
v 0.0990234 0.517635 0.080443
v 0.0842135 0.574604 0.0590443
v 0.146538 0.527318 0.0762271
v 0.107654 0.481107 0.0972179
v 0.148929 0.482327 0.0967905
v 0.107768 0.544451 0.144386
v 0.0826806 0.602975 0.127381
v 0.115187 0.497489 0.146974
v 0.145216 0.55255 0.13983
v 0.146607 0.614405 0.123593
v 0.149347 0.498392 0.143904
v 0.10013 0.769999 0.0345092
v 0.107893 0.766065 -0.000313011
v 0.0703052 0.774231 -0.00333755
v 0.0861007 0.681681 0.0731876
v 0.0434899 0.793033 -0.00202112
v 0.102237 0.752106 -0.0315832
v 0.098144 0.712636 -0.0302099
v 0.0945041 0.730791 0.0725958
v 0.0496866 0.721925 0.0840212
v 0.0945318 0.732502 0.0706664
v -0.0110041 0.721301 0.0820336
v -0.00572869 0.77588 0.0609174
v 0.0936214 0.697741 0.00846206
v 0.0950552 0.712998 0.0547803
v 0.0951793 0.681615 0.0290224
v 0.0946199 0.677937 -0.00263542
v 0.0978544 0.681559 0.0495544
v -0.0091812 0.42675 0.0324899
v -0.0153084 0.536068 -0.0569062
v -0.00250286 0.502559 0.0971481
v -0.00234115 0.465024 0.105333
v -0.00852147 0.415144 0.0719378
v -0.00737182 0.594339 0.07495
v -0.00203758 0.803157 0.0390056
v 0.0907245 0.705275 0.0216195
v -0.0628229 0.766506 -0.0447638
v -0.0322342 0.756297 -0.0436753
v -0.0776282 0.744483 -0.0507319
v -0.0317023 0.78644 -0.0265731
v -0.090813 0.725253 -0.0516408
v -0.0621014 0.691332 -0.0573161
v -0.100229 0.690887 -0.0308765
v -0.0414691 0.726022 -0.055113
v -0.0337615 0.804916 0.0268496
v -0.0858424 0.779996 0.0461053
v -0.0533009 0.777105 0.0569714
v -0.0729959 0.792229 0.0153537
v -0.0979305 0.549104 0.0545267
v -0.0537228 0.559559 0.0758283
v -0.098898 0.561049 0.0501927
v -0.0505994 0.551334 0.078878
v -0.0936956 0.549907 -0.0166208
v -0.102722 0.527663 0.00885251
v -0.0665595 0.538559 -0.047489
v -0.0911105 0.496437 -0.0236618
v -0.0582964 0.481082 -0.035985
v -0.0642003 0.642231 0.0820914
v -0.0705289 0.685638 0.080087
v -0.0723129 0.445449 -0.03372
v -0.115951 0.345825 0.0119328
v -0.112222 0.448604 0.0155596
v -0.071461 0.347791 -0.0281535
v -0.0645107 0.239125 -0.0151437
v -0.101823 0.254886 0.0352407
v -0.0143989 0.442509 -0.0137092
v -0.00950977 0.355592 0.0902364
v -0.00856502 0.350232 -0.00207063
v -0.0113244 0.431637 0.0941219
v -0.0230302 0.277231 0.070414
v -0.0206105 0.255592 0.0225211
v -0.0996669 0.353164 0.0895136
v -0.0973546 0.437557 0.084667
v -0.0867006 0.277067 0.0773062
v -0.0598368 0.194633 0.045902
v -0.0875983 0.166297 0.128274
v -0.0989273 0.218983 0.0753689
v -0.0493215 0.144494 0.0956012
v -0.0763685 0.108966 0.192914
v -0.0413084 0.0878471 0.155039
v -0.00545813 0.205721 0.0727688
v -0.00340065 0.210032 0.152389
v -0.00599876 0.16547 0.117342
v -0.00386923 0.266066 0.110535
v -0.00995736 0.141333 0.21026
v -0.00524674 0.102981 0.184946
v -0.0833623 0.20587 0.162032
v -0.087531 0.269387 0.11413
v -0.0551599 0.141875 0.215498
v -0.108284 0.498308 0.0201979
v -0.10354 0.502718 0.0758686
v -0.0470192 0.505885 0.100476
v -0.0993421 0.450389 0.0868543
v -0.0446289 0.453299 0.107253
v -0.0611748 0.597651 0.0721631
v -0.100955 0.641747 0.0609151
v -0.10869 0.648248 0.0371451
v -0.0988769 0.600725 -0.0183752
v -0.104462 0.597746 0.0407935
v -0.101575 0.654079 -0.023218
v -0.0680091 0.654686 -0.055234
v -0.0704885 0.597768 -0.0477661
v -0.137079 0.735454 -0.0509976
v -0.072404 0.730378 -0.0453189
v -0.151525 0.685702 -0.0419398
v -0.104032 0.622577 -0.0379293
v -0.159607 0.635368 -0.0368875
v -0.0858417 0.67076 -0.0429554
v -0.0676105 0.720627 0.0284239
v -0.0843887 0.671498 0.0346395
v -0.102785 0.620214 0.0286444
v -0.091738 0.718814 0.040993
v -0.149783 0.686839 0.0356766
v -0.135817 0.736133 0.0358338
v -0.157961 0.632503 0.0296433
v -0.145228 0.736623 -0.0113337
v -0.167984 0.617291 -0.0478935
v -0.125214 0.542537 -0.0647964
v -0.171476 0.557664 -0.0643533
v -0.105061 0.599604 -0.0486756
v -0.137292 0.50548 -0.0717131
v -0.178437 0.509732 -0.0735674
v -0.137914 0.528539 0.00248721
v -0.107823 0.583391 0.0235454
v -0.14881 0.487755 -0.0237656
v -0.174236 0.541549 0.00210276
v -0.170324 0.601382 0.0247374
v -0.182142 0.495237 -0.0262408
v -0.100311 0.794365 0.015624
v -0.102256 0.791774 -0.0201151
v -0.0652367 0.788348 -0.0160267
v -0.105045 0.691393 0.0631166
v -0.0403268 0.797993 -0.00980827
v -0.0948314 0.771576 -0.0484221
v -0.101216 0.7458 -0.0517467
v -0.110613 0.741541 0.0531936
v -0.11002 0.743006 0.0512696
v -0.070519 0.729267 0.0729657
v -0.103937 0.712656 -0.010398
v -0.110855 0.726392 0.0345224
v -0.109501 0.692015 0.0182383
v -0.106112 0.688136 -0.0132115
v -0.114258 0.692336 0.0383786
v -0.101968 0.719326 0.00288351
v -0.00184668 0.756101 0.00557409
# 298 texture vertices
vt 0.603976 -0.300641
vt 0.529669 -0.295028
vt 0.541471 -0.314005
vt 0.607193 -0.314765
vt 0.606713 -0.341151
vt 0.543673 -0.341375
vt 0.558414 -0.387627
vt 0.60555 -0.389414
vt 0.752331 -0.240096
vt 0.695102 -0.256256
vt 0.689667 -0.291869
vt 0.740471 -0.293881
vt 0.659002 -0.549482
vt 0.739505 -0.544441
vt 0.73761 -0.533147
vt 0.651573 -0.534998
vt 0.57922 -0.533981
vt 0.616214 -0.556774
vt 0.542595 -0.531789
vt 0.538974 -0.574682
vt 0.576694 -0.571959
vt 0.499989 -0.342111
vt 0.500018 -0.387689
vt 0.792053 -0.543622
vt 0.792007 -0.531039
vt 0.737049 -0.443036
vt 0.792721 -0.437319
vt 0.792557 -0.390193
vt 0.73248 -0.389454
vt 0.571018 -0.613689
vt 0.582276 -0.710684
vt 0.619429 -0.710862
vt 0.616055 -0.614361
vt 0.594383 -0.772851
vt 0.633002 -0.775141
vt 0.78242 -0.616153
vt 0.737339 -0.630361
vt 0.728985 -0.700933
vt 0.775128 -0.709928
vt 0.721726 -0.771574
vt 0.769495 -0.770716
vt 0.678165 -0.63168
vt 0.678811 -0.704018
vt 0.673391 -0.771462
vt 0.60529 -0.831888
vt 0.619111 -0.899585
vt 0.658253 -0.895501
vt 0.645673 -0.828967
vt 0.63703 -0.980409
vt 0.666011 -0.98031
vt 0.759599 -0.828299
vt 0.72405 -0.825831
vt 0.721627 -0.896407
vt 0.750766 -0.897617
vt 0.708326 -0.980182
vt 0.738194 -0.980191
vt 0.67857 -0.820075
vt 0.680142 -0.887456
vt 0.686767 -0.980016
vt 0.620865 -0.580773
vt 0.500012 -0.578185
vt 0.5 -0.602496
vt 0.524038 -0.615773
vt 0.674382 -0.584999
vt 0.741831 -0.578075
vt 0.67923 -0.615237
vt 0.739876 -0.611926
vt 0.736606 -0.492237
vt 0.670075 -0.445485
vt 0.649011 -0.43896
vt 0.599881 -0.430512
vt 0.585056 -0.484302
vt 0.652465 -0.490356
vt 0.558759 -0.421976
vt 0.551735 -0.483643
vt 0.500002 -0.421746
vt 0.499977 -0.485786
vt 0.86076 -0.111948
vt 0.845907 -0.110474
vt 0.86655 -0.170343
vt 0.841544 -0.177954
vt 0.842416 -0.253649
vt 0.864913 -0.245066
vt 0.925985 -0.112119
vt 0.927103 -0.159317
vt 0.954276 -0.147803
vt 0.926386 -0.225606
vt 0.948863 -0.233503
vt 0.910148 -0.118844
vt 0.899126 -0.115994
vt 0.891727 -0.16141
vt 0.893098 -0.233857
vt 0.885675 -0.117033
vt 0.864821 -0.288259
vt 0.844277 -0.292554
vt 0.847931 -0.39456
vt 0.866639 -0.393311
vt 0.848023 -0.457371
vt 0.863941 -0.456587
vt 0.949963 -0.277245
vt 0.92342 -0.27387
vt 0.913602 -0.368504
vt 0.953838 -0.381233
vt 0.906609 -0.451595
vt 0.949085 -0.455732
vt 0.8935 -0.278527
vt 0.890682 -0.381986
vt 0.885541 -0.453016
vt 0.897534 -0.059442
vt 0.886667 -0.065151
vt 0.899981 -0.024266
vt 0.88451 -0.024361
vt 0.700173 -0.385125
vt 0.725719 -0.226605
vt 0.86566 -0.066431
vt 0.867962 -0.024353
vt 0.856743 -0.024579
vt 0.854629 -0.084885
vt 0.701421 -0.329308
vt 0.731962 -0.332946
vt 0.692811 -0.310135
vt 0.792254 -0.341547
vt 0.792132 -0.288406
vt 0.911296 -0.058793
vt 0.910251 -0.082896
vt 0.939163 -0.051925
vt 0.924806 -0.080877
vt 0.953887 -0.101825
vt 0.647256 -0.3846
vt 0.621437 -0.393892
vt 0.950466 -0.024372
vt 0.662151 -0.379622
vt 0.537026 -0.709985
vt 0.551538 -0.772795
vt 0.569257 -0.84442
vt 0.584356 -0.906572
vt 0.614734 -0.980624
vt 0.5 -0.638948
vt 0.681759 -0.232972
vt 0.5 -0.531429
vt 0.792761 -0.574059
vt 0.792391 -0.602933
vt 0.780221 -0.605323
vt 0.783649 -0.610277
vt 0.79272 -0.493588
vt 0.581168 -0.257534
vt 0.585163 -0.277191
vt 0.6743 -0.332125
vt 0.792037 -0.252309
vt 0.64236 -0.352002
vt 0.626813 -0.352272
vt 0.847256 -0.024642
vt 0.931996 -0.05878
vt 0.396024 -0.300641
vt 0.392807 -0.314765
vt 0.458529 -0.314005
vt 0.470331 -0.295028
vt 0.393287 -0.341151
vt 0.394404 -0.390013
vt 0.441586 -0.387636
vt 0.45634 -0.341373
vt 0.247669 -0.240096
vt 0.259456 -0.293915
vt 0.312911 -0.291999
vt 0.304898 -0.256256
vt 0.340711 -0.551118
vt 0.348427 -0.534998
vt 0.26239 -0.533147
vt 0.260512 -0.544477
vt 0.42078 -0.533981
vt 0.383933 -0.556778
vt 0.457405 -0.531789
vt 0.423306 -0.571959
vt 0.461026 -0.574682
vt 0.207993 -0.531039
vt 0.207975 -0.54362
vt 0.262951 -0.443036
vt 0.26745 -0.389484
vt 0.20744 -0.390195
vt 0.207279 -0.437319
vt 0.428982 -0.613689
vt 0.383945 -0.614361
vt 0.380571 -0.710862
vt 0.417724 -0.710684
vt 0.366998 -0.775141
vt 0.405597 -0.772756
vt 0.21758 -0.616153
vt 0.224872 -0.709928
vt 0.271015 -0.700933
vt 0.263778 -0.630969
vt 0.230505 -0.770716
vt 0.278274 -0.771574
vt 0.321278 -0.703327
vt 0.322087 -0.631411
vt 0.326801 -0.770624
vt 0.39471 -0.831888
vt 0.354328 -0.828967
vt 0.341747 -0.895501
vt 0.380889 -0.899585
vt 0.333989 -0.98031
vt 0.36297 -0.980409
vt 0.240501 -0.8283
vt 0.249234 -0.897617
vt 0.278373 -0.896407
vt 0.27595 -0.825831
vt 0.261806 -0.980191
vt 0.291674 -0.980182
vt 0.319858 -0.887456
vt 0.321627 -0.819509
vt 0.313233 -0.980016
vt 0.37914 -0.580738
vt 0.475962 -0.615773
vt 0.258192 -0.578051
vt 0.325937 -0.584857
vt 0.260124 -0.611872
vt 0.320658 -0.615128
vt 0.263394 -0.492237
vt 0.329925 -0.445485
vt 0.350948 -0.438784
vt 0.347535 -0.490356
vt 0.414944 -0.484302
vt 0.400063 -0.430542
vt 0.448265 -0.483643
vt 0.441256 -0.421902
vt 0.13924 -0.111948
vt 0.13345 -0.170343
vt 0.15444 -0.108379
vt 0.135087 -0.245066
vt 0.157584 -0.253649
vt 0.158456 -0.177954
vt 0.074015 -0.112119
vt 0.045724 -0.147803
vt 0.072897 -0.159317
vt 0.051136 -0.233503
vt 0.073614 -0.225606
vt 0.089616 -0.120766
vt 0.108273 -0.16141
vt 0.100874 -0.115994
vt 0.106902 -0.233857
vt 0.114325 -0.117033
vt 0.135179 -0.288259
vt 0.133361 -0.393311
vt 0.152069 -0.39456
vt 0.155723 -0.292554
vt 0.136059 -0.456587
vt 0.151977 -0.457371
vt 0.050037 -0.277245
vt 0.046162 -0.381233
vt 0.086398 -0.368504
vt 0.07658 -0.27387
vt 0.050915 -0.455732
vt 0.093391 -0.451595
vt 0.109318 -0.381986
vt 0.1065 -0.278527
vt 0.114459 -0.453016
vt 0.102466 -0.059442
vt 0.113333 -0.065151
vt 0.11549 -0.024361
vt 0.100019 -0.024266
vt 0.299767 -0.384809
vt 0.274281 -0.226605
vt 0.13434 -0.066431
vt 0.145371 -0.084885
vt 0.143257 -0.024579
vt 0.132038 -0.024353
vt 0.298579 -0.329308
vt 0.307189 -0.310135
vt 0.268122 -0.332869
vt 0.207675 -0.341565
vt 0.207836 -0.288403
vt 0.08893 -0.058845
vt 0.089749 -0.082896
vt 0.059171 -0.052483
vt 0.045803 -0.103772
vt 0.075194 -0.080877
vt 0.378181 -0.393908
vt 0.35267 -0.384471
vt 0.049534 -0.024372
vt 0.338265 -0.379858
vt 0.462974 -0.709985
vt 0.448462 -0.772795
vt 0.430741 -0.844045
vt 0.415644 -0.906572
vt 0.385266 -0.980624
vt 0.318241 -0.232972
vt 0.207426 -0.574059
vt 0.207639 -0.602951
vt 0.218069 -0.604182
vt 0.216351 -0.610277
vt 0.20728 -0.493588
vt 0.418832 -0.257534
vt 0.414837 -0.277191
vt 0.3257 -0.332125
vt 0.207963 -0.252309
vt 0.356927 -0.351437
vt 0.373683 -0.353768
vt 0.152744 -0.024642
vt 0.073561 -0.062393
# 258 normals
vn 0.123637 0.50013 -0.855539
vn 0.2019 0.64176 -0.738966
vn 0.0911232 0.382805 -0.919324
vn 0.187468 0.108504 -0.976105
vn 0.469448 -0.203324 -0.84683
vn 0.260653 0.201265 -0.944221
vn 0.416292 0.0370382 -0.902553
vn 0.859739 -0.0630839 -0.498436
vn 0.279966 0.856937 0.430687
vn 0.33517 0.882816 0.19699
vn 0.145836 0.612018 0.772753
vn 0.121027 0.58421 0.802528
vn 0.895421 0.263414 0.356772
vn 0.325463 0.37319 0.868165
vn 0.384808 0.205535 0.897836
vn 0.942619 0.094279 0.31744
vn 0.817584 -0.084404 -0.567101
vn 0.94425 0.0864646 -0.317671
vn 0.295674 -0.115627 -0.94357
vn 0.163988 -0.196953 -0.966601
vn 0.621146 -0.0219824 -0.771899
vn 0.105825 0.309855 -0.944876
vn 0.0589295 0.147725 -0.981693
vn 0.0843208 0.409324 0.908485
vn 0.0867769 0.244486 0.964666
vn 0.259117 -0.15611 0.945255
vn -0.00656608 -0.128797 0.983602
vn -0.049761 0.0257147 0.993056
vn 0.193036 -0.0315431 0.975557
vn 0.103914 0.343098 -0.895284
vn 0.0507383 0.437395 -0.897837
vn 0.897443 0.151761 -0.414204
vn 0.911586 0.156696 -0.374613
vn 0.0469931 0.192272 -0.9721
vn 0.921696 0.0410285 -0.383716
vn -0.405395 -0.220563 -0.887134
vn -0.462943 -0.459864 0.757766
vn -0.557303 -0.462147 0.689807
vn -0.925176 0.106478 -0.364295
vn -0.628789 -0.189351 0.748565
vn -0.945216 0.0655003 -0.31568
vn 0.652803 -0.257153 0.657375
vn 0.643151 -0.434554 0.630492
vn 0.59636 -0.245965 0.756465
vn 0.148709 0.054469 -0.987379
vn 0.19 0.129172 -0.973249
vn 0.903204 -0.00143767 -0.429209
vn 0.914851 0.0419991 -0.401602
vn 0.319848 0.563831 -0.741974
vn 0.964387 -0.0206369 -0.222808
vn -0.936067 0.0525467 -0.347876
vn -0.622188 -0.0493804 0.781309
vn -0.633005 -0.273045 0.724397
vn -0.939361 -0.0190245 -0.342401
vn -0.641756 -0.356949 0.653394
vn -0.855035 0.0336947 -0.517474
vn 0.580018 -0.0564436 0.812646
vn 0.624924 -0.275364 0.73051
vn 0.550082 -0.320687 0.757555
vn 0.944807 0.0512768 -0.323591
vn -0.0857481 -0.324714 -0.941917
vn -0.0665384 -0.763046 -0.64291
vn 0.880193 0.227755 0.4164
vn 0.314383 0.313825 0.895923
vn 0.834012 -0.252114 0.430124
vn 0.272013 -0.178147 0.889285
vn 0.390248 -0.0716681 0.913109
vn 0.736687 -0.20014 0.636717
vn 0.979519 -0.15492 0.0810116
vn 0.869814 -0.122932 -0.464355
vn 0.859415 -0.153935 -0.477806
vn 0.953503 -0.147582 0.251065
vn 0.432845 -0.0803438 -0.88899
vn 0.402829 -0.143724 -0.897342
vn -0.0355478 -0.0277013 -0.992572
vn -0.0429084 -0.108484 -0.98725
vn 0.595916 -0.412397 -0.689066
vn -0.621384 -0.567466 -0.540245
vn 0.738005 -0.369452 -0.564671
vn -0.661976 -0.520616 -0.53921
vn -0.688239 -0.361045 -0.627235
vn 0.725152 -0.14268 -0.672393
vn -0.843568 -0.0587855 0.533795
vn -0.689583 0.167104 0.704663
vn -0.716294 0.198153 0.667734
vn -0.0659737 0.39827 0.914892
vn 0.630445 0.417871 0.654159
vn 0.655452 0.374265 0.65598
vn 0.659709 0.408624 0.628578
vn 0.996215 0.0813847 -0.0305482
vn 0.712989 -0.101244 -0.693826
vn -0.720726 -0.303426 -0.623287
vn -0.700181 -0.441482 -0.561107
vn 0.69362 -0.260513 -0.671583
vn -0.688039 -0.452811 -0.565401
vn 0.738812 -0.222868 -0.633546
vn -0.714149 0.137157 0.686228
vn -0.559579 -0.0102785 0.828713
vn -0.582052 -0.124672 0.796629
vn 0.706584 0.341892 0.61925
vn 0.690913 0.142744 0.708706
vn 0.805846 0.0950557 0.584026
vn 0.232498 0.917696 0.318861
vn 0.289971 0.9205 -0.251259
vn 0.288487 0.89234 -0.337332
vn 0.651435 -0.146646 0.738875
vn 0.380524 0.877453 -0.288157
vn 0.21136 0.530809 -0.792178
vn 0.19861 -0.349634 -0.891716
vn 0.571005 0.0764902 0.794429
vn 0.0996645 0.205316 0.973608
vn 0.325712 0.159722 0.925801
vn -0.0751515 0.230479 0.970171
vn -0.0490552 0.499381 0.864992
vn 0.690533 -0.681488 0.0469181
vn 0.532991 -0.61908 0.465032
vn 0.9866 -0.117236 -0.0777353
vn 0.98564 -0.102343 -0.10612
vn 0.973834 -0.1702 0.125491
vn -0.0143412 -0.999895 0.00186958
vn -0.0869984 -0.126409 -0.987084
vn 0.0861621 0.311861 0.946213
vn 0.0868607 0.0833639 0.992726
vn 0.00868024 -0.766581 0.545434
vn 0.0373492 -0.0663887 0.990853
vn -0.02409 0.69453 0.717633
vn 0.400768 -0.826206 0.232997
vn 0.120165 0.508957 -0.852148
vn 0.00844756 0.141965 -0.989823
vn 0.124333 0.380777 -0.91627
vn 0.0137467 0.653057 -0.756366
vn -0.319585 -0.131135 -0.937361
vn -0.806144 0.0215613 -0.586206
vn -0.314969 0.0741943 -0.941081
vn -0.0584973 0.220757 -0.973573
vn -0.251347 0.888562 0.381417
vn -0.193452 0.603417 0.773605
vn -0.198142 0.617832 0.746679
vn -0.177646 0.916775 0.168081
vn -0.820745 0.29296 0.487819
vn -0.879596 0.126125 0.455997
vn -0.235937 0.216453 0.945212
vn -0.161 0.380379 0.910109
vn -0.896497 -0.0547778 -0.437163
vn -0.981778 0.114443 -0.151709
vn -0.45692 -0.115764 -0.881036
vn -0.747613 -0.0444479 -0.662621
vn -0.332841 -0.189366 -0.923773
vn -0.273767 -0.135987 0.943791
vn -0.294476 -0.00677209 0.949872
vn -0.277936 -0.0751001 -0.956369
vn -0.969324 -0.0016263 -0.243185
vn -0.960783 -0.0753231 -0.266874
vn -0.227 -0.0942423 -0.969324
vn -0.966211 -0.191726 -0.139571
vn -0.201827 -0.47844 -0.791534
vn 0.277498 -0.655716 -0.702163
vn 0.844525 -0.110533 -0.523985
vn 0.694758 -0.0416147 0.718038
vn 0.572432 -0.474885 0.668435
vn 0.880638 -0.176154 -0.419832
vn 0.742767 0.324355 0.536564
vn -0.512309 -0.0309719 0.858243
vn -0.519006 0.0325614 0.848648
vn -0.47771 0.311246 0.775191
vn -0.274569 -0.77068 -0.575034
vn -0.957172 -0.266122 -0.114019
vn -0.944598 -0.313454 -0.097373
vn -0.319132 -0.714223 -0.622929
vn -0.975782 -0.199108 -0.029889
vn -0.40312 -0.420189 -0.810055
vn 0.874052 -0.29306 -0.387491
vn 0.885369 -0.329281 -0.328171
vn 0.744043 0.409958 0.527574
vn 0.716888 0.584416 0.380171
vn 0.875187 -0.47757 -0.077291
vn 0.686759 0.476478 0.548105
vn -0.480338 0.462717 0.745096
vn -0.47384 0.64426 0.600337
vn -0.472985 0.609468 0.617186
vn -0.984395 0.0790887 -0.157201
vn -0.147116 0.320483 0.93576
vn -0.788954 0.25183 0.560476
vn -0.104517 -0.0121873 0.99085
vn -0.733368 -0.137903 0.65766
vn -0.297799 -0.0552757 0.947931
vn -0.753265 -0.143874 0.632626
vn -0.990363 -0.080529 0.0756024
vn -0.928917 -0.103107 0.347762
vn -0.904371 -0.10714 -0.406807
vn -0.877355 -0.0569521 -0.469152
vn -0.483505 -0.120096 -0.862095
vn -0.437414 -0.0474793 -0.89138
vn -0.572361 0.0918071 -0.814847
vn -0.719017 0.0501963 -0.693177
vn 0.659794 -0.241262 -0.711663
vn -0.675672 0.318717 -0.661564
vn 0.710326 -0.0346853 -0.698459
vn 0.654191 -0.250296 -0.713713
vn 0.795081 -0.396202 0.459206
vn 0.64404 -0.29004 0.707877
vn 0.670687 -0.271007 0.687206
vn 0.0257234 -0.13426 0.990612
vn -0.673308 0.0536521 0.737412
vn -0.644955 0.0891503 0.759003
vn -0.679299 0.0682453 0.726036
vn -0.977025 0.211391 -0.0271291
vn -0.653564 0.388371 -0.649632
vn -0.646156 0.244196 -0.723084
vn 0.718446 -0.108229 -0.687111
vn 0.752944 0.0375514 -0.657012
vn -0.690961 0.264031 -0.667298
vn 0.718388 -0.0594267 -0.689855
vn 0.482179 -0.540763 0.689259
vn 0.658046 -0.353051 0.664571
vn 0.497346 -0.645985 0.550831
vn -0.740843 -0.220181 0.634564
vn -0.735616 -0.00315543 0.67669
vn -0.848371 -0.183036 0.496548
vn -0.0415921 0.952841 0.293843
vn 0.0183929 0.945742 -0.312966
vn -0.0317348 0.92026 -0.388366
vn -0.736394 -0.0761292 0.665754
vn -0.216359 0.912769 -0.343611
vn 0.0726543 0.519455 -0.82726
vn -0.11136 -0.121254 -0.985607
vn -0.681476 0.106872 0.655355
vn -0.455022 0.14659 0.841939
vn -0.249418 0.226636 0.941502
vn -0.747854 -0.615503 -0.0874786
vn -0.660541 -0.567447 0.322316
vn -0.975276 -0.00270646 -0.209435
vn -0.980802 -0.01727 -0.181393
vn -0.994945 -0.070164 0.0217611
vn -0.541056 -0.765209 0.105878
vn 0.0636319 -0.946423 0.296428
vn 0.0106915 -0.942763 0.328448
vn -0.135443 -0.900528 -0.37113
vn -0.0958121 -0.947499 -0.290727
vn -0.0417265 -0.914926 -0.375319
vn -0.0446982 -0.917296 -0.369201
vn -0.0442179 -0.916913 -0.37019
vn -0.0607242 -0.930081 -0.336209
vn 0.0168822 -0.868173 -0.495974
vn 0.0810419 -0.687143 0.705772
vn 0.0762901 -0.683042 0.710231
vn -0.0174256 -0.602162 0.798184
vn 0.0802739 -0.68648 0.706492
vn 0.106668 -0.709259 0.681722
vn 0.109879 0.577561 -0.807688
vn 0.57596 0.613161 -0.539095
vn 0.100088 0.843065 -0.528417
vn 0.755791 0.632396 -0.165569
vn 0.774099 0.617881 -0.135004
vn 0.0959416 0.885091 -0.455422
vn -0.657703 0.703845 -0.267415
vn -0.63367 0.714606 -0.294659
vn -0.391701 0.670758 -0.628829
usemtl _18_-_Defaultaa
g Bob_BoilerSuit
s off
f 1/1/1 2/3/3 3/2/2
f 2/3/3 1/1/1 4/4/4
f 5/5/5 6/7/7 7/6/6
f 6/7/7 5/5/5 8/8/8
f 9/9/9 10/11/11 11/10/10
f 10/11/11 9/9/9 12/12/12
f 13/13/13 14/15/15 15/14/14
f 14/15/15 13/13/13 16/16/16
f 17/17/17 13/13/13 18/18/18
f 13/13/13 17/17/17 16/16/16
f 19/19/19 20/21/21 21/20/20
f 20/21/21 19/19/19 17/17/17
f 7/6/6 22/23/23 23/22/22
f 22/23/23 7/6/6 6/7/7
f 15/14/14 24/25/25 25/24/24
f 24/25/25 15/14/14 14/15/15
f 26/26/26 27/28/28 28/27/27
f 27/28/28 26/26/26 29/29/29
f 30/30/30 31/32/32 32/31/31
f 31/32/32 30/30/30 33/33/33
f 31/32/32 34/34/34 32/31/31
f 34/34/34 31/32/32 35/35/35
f 36/36/36 37/38/38 38/37/37
f 37/38/38 36/36/36 39/39/39
f 39/39/39 40/40/40 37/38/38
f 40/40/40 39/39/39 41/41/41
f 38/37/37 42/43/43 43/42/42
f 42/43/43 38/37/37 37/38/38
f 37/38/38 44/44/44 42/43/43
f 44/44/44 37/38/38 40/40/40
f 43/42/42 31/32/32 33/33/33
f 31/32/32 43/42/42 42/43/43
f 42/43/43 35/35/35 31/32/32
f 35/35/35 42/43/43 44/44/44
f 45/45/45 46/47/47 47/46/46
f 46/47/47 45/45/45 48/48/48
f 47/46/46 49/50/50 50/49/49
f 49/50/50 47/46/46 46/47/47
f 51/51/51 52/53/53 53/52/52
f 52/53/53 51/51/51 54/54/54
f 54/54/54 55/55/55 52/53/53
f 55/55/55 54/54/54 56/56/56
f 53/52/52 57/58/58 58/57/57
f 57/58/58 53/52/52 52/53/53
f 52/53/53 59/59/59 57/58/58
f 59/59/59 52/53/53 55/55/55
f 58/57/57 46/47/47 48/48/48
f 46/47/47 58/57/57 57/58/58
f 57/58/58 49/50/50 46/47/47
f 49/50/50 57/58/58 59/59/59
f 33/33/33 20/21/21 60/60/60
f 20/21/21 33/33/33 30/30/30
f 61/61/61 36/63/36 62/62/62
f 36/63/36 61/61/61 21/20/20
f 15/14/14 63/64/63 13/13/13
f 63/64/63 15/14/14 64/65/64
f 64/65/64 65/66/65 63/64/63
f 65/66/65 64/65/64 66/67/66
f 66/67/66 43/42/42 65/66/65
f 43/42/42 66/67/66 38/37/37
f 45/45/45 35/35/35 48/48/48
f 35/35/35 45/45/45 34/34/34
f 48/48/48 44/44/44 58/57/57
f 44/44/44 48/48/48 35/35/35
f 44/44/44 53/52/52 58/57/57
f 53/52/52 44/44/44 40/40/40
f 40/40/40 51/51/51 53/52/52
f 51/51/51 40/40/40 41/41/41
f 13/13/13 60/60/60 18/18/18
f 60/60/60 13/13/13 63/64/63
f 63/64/63 33/33/33 60/60/60
f 33/33/33 63/64/63 65/66/65
f 65/66/65 43/42/42 33/33/33
f 67/68/67 68/69/68 26/26/26
f 69/70/69 70/72/71 71/71/70
f 70/72/71 69/70/69 72/73/72
f 70/72/71 73/74/73 71/71/70
f 73/74/73 70/72/71 74/75/74
f 75/76/75 74/75/74 76/77/76
f 74/75/74 75/76/75 73/74/73
f 77/78/77 78/80/79 79/79/78
f 78/80/79 80/82/81 81/81/80
f 80/82/81 78/80/79 82/83/82
f 83/84/83 81/86/80 84/85/84
f 81/86/80 85/87/85 84/85/84
f 85/87/85 81/86/80 80/88/81
f 86/89/86 87/91/88 88/90/87
f 86/89/86 84/85/84 87/91/88
f 86/89/86 83/84/83 84/85/84
f 84/85/84 89/92/89 87/91/88
f 89/92/89 84/85/84 85/87/85
f 90/93/90 87/91/88 78/80/79
f 87/91/88 82/83/82 78/80/79
f 82/83/82 87/91/88 89/92/89
f 91/94/91 92/96/93 93/95/92
f 92/96/93 91/94/91 94/97/94
f 94/97/94 95/98/95 92/96/93
f 95/98/95 94/97/94 96/99/96
f 93/100/92 97/102/98 98/101/97
f 97/102/98 93/100/92 92/103/93
f 92/103/93 99/104/99 97/102/98
f 99/104/99 92/103/93 95/105/95
f 98/101/97 100/107/101 101/106/100
f 100/107/101 98/101/97 97/102/98
f 97/102/98 102/108/102 100/107/101
f 102/108/102 97/102/98 99/104/99
f 101/106/100 94/97/94 91/94/91
f 94/97/94 101/106/100 100/107/101
f 100/107/101 96/99/96 94/97/94
f 96/99/96 100/107/101 102/108/102
f 89/92/89 91/94/91 82/83/82
f 91/94/91 89/92/89 101/106/100
f 82/83/82 93/95/92 80/82/81
f 93/95/92 82/83/82 91/94/91
f 85/87/85 93/100/92 98/101/97
f 93/100/92 85/87/85 80/88/81
f 98/101/97 89/92/89 85/87/85
f 89/92/89 98/101/97 101/106/100
f 103/109/103 90/93/90 104/110/104
f 90/93/90 103/109/103 88/90/87
f 104/110/104 11/111/10 103/109/103
f 11/111/10 104/110/104 105/112/105
f 68/69/68 29/29/29 26/26/26
f 29/29/29 68/69/68 106/113/106
f 11/10/10 107/114/107 9/9/9
f 108/115/108 4/117/4 1/116/1
f 4/117/4 108/115/108 109/118/109
f 77/78/77 109/118/109 108/115/108
f 110/119/110 12/12/12 111/120/111
f 110/119/110 10/11/11 12/12/12
f 110/119/110 112/121/112 10/11/11
f 113/122/113 12/12/12 114/123/114
f 12/12/12 113/122/113 111/120/111
f 103/109/103 11/111/10 10/124/11
f 88/90/87 112/125/112 86/89/86
f 88/90/87 10/124/11 112/125/112
f 88/90/87 103/109/103 10/124/11
f 115/126/115 83/84/83 116/127/116
f 83/84/83 115/126/115 79/128/78
f 71/71/70 117/129/117 69/70/69
f 117/129/117 71/71/70 118/130/118
f 5/131/5 79/128/78 115/126/115
f 8/8/8 118/130/118 71/71/70
f 117/129/117 119/132/119 69/70/69
f 21/20/20 30/30/30 36/63/36
f 20/21/21 30/30/30 21/20/20
f 30/30/30 32/31/31 39/133/39
f 32/31/31 41/134/41 39/133/39
f 41/134/41 32/31/31 34/34/34
f 34/34/34 51/135/51 41/134/41
f 51/135/51 34/34/34 45/45/45
f 51/135/51 47/46/46 54/136/54
f 47/46/46 51/135/51 45/45/45
f 54/136/54 50/49/49 56/137/56
f 50/49/49 54/136/54 47/46/46
f 17/17/17 18/18/18 20/21/21
f 18/18/18 60/60/60 20/21/21
f 36/63/36 120/138/120 62/62/62
f 107/114/107 11/10/10 105/139/105
f 2/3/3 23/22/22 3/2/2
f 21/20/20 121/140/121 19/19/19
f 121/140/121 21/20/20 61/61/61
f 25/24/24 64/65/64 15/14/14
f 64/65/64 25/24/24 122/141/122
f 64/65/64 123/142/123 66/67/66
f 123/142/123 64/65/64 122/141/122
f 123/142/123 38/37/37 66/67/66
f 38/37/37 123/142/123 124/143/124
f 124/143/124 120/144/120 38/37/37
f 38/37/37 120/144/120 36/36/36
f 81/86/80 83/84/83 79/128/78
f 79/79/78 78/80/79 81/81/80
f 74/75/74 17/17/17 19/19/19
f 17/17/17 74/75/74 70/72/71
f 70/72/71 16/16/16 17/17/17
f 16/16/16 70/72/71 72/73/72
f 16/16/16 67/68/67 14/15/15
f 67/68/67 16/16/16 72/73/72
f 14/15/15 125/145/125 24/25/25
f 125/145/125 14/15/15 67/68/67
f 107/146/107 105/147/105 3/2/2
f 3/2/2 105/147/105 1/1/1
f 1/116/1 104/110/104 108/115/108
f 104/110/104 1/116/1 105/112/105
f 108/115/108 90/93/90 77/78/77
f 90/93/90 108/115/108 104/110/104
f 90/93/90 78/80/79 77/78/77
f 87/91/88 90/93/90 88/90/87
f 30/30/30 39/133/39 36/63/36
f 72/73/72 69/70/69 68/69/68
f 110/119/110 116/148/116 112/121/112
f 69/70/69 106/113/106 68/69/68
f 106/113/106 69/70/69 119/132/119
f 68/69/68 67/68/67 72/73/72
f 126/149/126 12/12/12 9/9/9
f 29/29/29 113/122/113 27/28/28
f 113/122/113 29/29/29 111/120/111
f 111/120/111 106/113/106 110/119/110
f 106/113/106 111/120/111 29/29/29
f 106/113/106 116/148/116 110/119/110
f 116/148/116 106/113/106 119/132/119
f 116/148/116 117/129/117 127/150/127
f 117/129/117 116/148/116 119/132/119
f 127/150/127 118/130/118 115/151/115
f 118/130/118 127/150/127 117/129/117
f 8/8/8 115/151/115 118/130/118
f 115/151/115 8/8/8 5/5/5
f 6/7/7 75/76/75 22/23/23
f 75/76/75 6/7/7 73/74/73
f 73/74/73 8/8/8 71/71/70
f 8/8/8 73/74/73 6/7/7
f 7/6/6 4/4/4 5/5/5
f 4/4/4 7/6/6 2/3/3
f 5/152/5 109/118/109 79/79/78
f 109/118/109 5/152/5 4/117/4
f 109/118/109 77/78/77 79/79/78
f 86/89/86 116/127/116 83/84/83
f 116/127/116 86/89/86 112/125/112
f 7/6/6 23/22/22 2/3/3
f 28/27/27 67/68/67 26/26/26
f 67/68/67 28/27/27 125/145/125
f 126/149/126 114/123/114 12/12/12
f 19/19/19 76/77/76 74/75/74
f 76/77/76 19/19/19 121/140/121
f 115/126/115 116/127/116 127/153/127
f 128/154/128 129/156/130 130/155/129
f 129/156/130 128/154/128 131/157/131
f 132/158/132 133/160/134 134/159/133
f 133/160/134 132/158/132 135/161/135
f 136/162/136 137/164/138 138/163/137
f 137/164/138 136/162/136 139/165/139
f 140/166/140 141/168/142 142/167/141
f 141/168/142 140/166/140 143/169/143
f 144/170/144 140/166/140 142/167/141
f 140/166/140 144/170/144 145/171/145
f 146/172/146 147/173/147 144/170/144
f 147/173/147 146/172/146 148/174/148
f 135/161/135 22/23/23 133/160/134
f 22/23/23 135/161/135 23/22/22
f 143/169/143 24/175/25 141/168/142
f 24/175/25 143/169/143 25/176/24
f 149/177/149 27/179/28 150/178/150
f 27/179/28 149/177/149 28/180/27
f 151/181/151 152/183/153 153/182/152
f 152/183/153 151/181/151 154/184/154
f 152/183/153 155/186/156 156/185/155
f 155/186/156 152/183/153 154/184/154
f 157/187/157 158/189/159 159/188/158
f 158/189/159 157/187/157 160/190/160
f 159/188/158 161/192/162 162/191/161
f 161/192/162 159/188/158 158/189/159
f 160/190/160 163/193/163 158/189/159
f 163/193/163 160/190/160 164/194/164
f 158/189/159 165/195/165 161/192/162
f 165/195/165 158/189/159 163/193/163
f 164/194/164 152/183/153 163/193/163
f 152/183/153 164/194/164 153/182/152
f 163/193/163 156/185/155 165/195/165
f 156/185/155 163/193/163 152/183/153
f 166/196/166 167/198/168 168/197/167
f 167/198/168 166/196/166 169/199/169
f 169/199/169 170/200/170 167/198/168
f 170/200/170 169/199/169 171/201/171
f 172/202/172 173/204/174 174/203/173
f 173/204/174 172/202/172 175/205/175
f 174/203/173 176/207/177 177/206/176
f 176/207/177 174/203/173 173/204/174
f 175/205/175 178/208/178 173/204/174
f 178/208/178 175/205/175 179/209/179
f 173/204/174 180/210/180 176/207/177
f 180/210/180 173/204/174 178/208/178
f 179/209/179 167/198/168 178/208/178
f 167/198/168 179/209/179 168/197/167
f 178/208/178 170/200/170 180/210/180
f 170/200/170 178/208/178 167/198/168
f 153/182/152 147/173/147 151/181/151
f 147/173/147 153/182/152 181/211/181
f 61/61/61 157/212/157 148/174/148
f 157/212/157 61/61/61 62/62/62
f 143/169/143 182/214/183 183/213/182
f 182/214/183 143/169/143 140/166/140
f 183/213/182 184/216/185 185/215/184
f 184/216/185 183/213/182 182/214/183
f 185/215/184 164/194/164 160/190/160
f 164/194/164 185/215/184 184/216/185
f 166/196/166 156/185/155 155/186/156
f 156/185/155 166/196/166 168/197/167
f 168/197/167 165/195/165 156/185/155
f 165/195/165 168/197/167 179/209/179
f 165/195/165 175/205/175 161/192/162
f 175/205/175 165/195/165 179/209/179
f 161/192/162 172/202/172 162/191/161
f 172/202/172 161/192/162 175/205/175
f 140/166/140 181/211/181 182/214/183
f 181/211/181 140/166/140 145/171/145
f 182/214/183 153/182/152 184/216/185
f 153/182/152 182/214/183 181/211/181
f 184/216/185 153/182/152 164/194/164
f 186/217/186 149/177/149 187/218/187
f 188/219/188 189/221/190 190/220/189
f 189/221/190 188/219/188 191/222/191
f 189/221/190 192/224/193 193/223/192
f 192/224/193 189/221/190 191/222/191
f 75/76/75 193/223/192 192/224/193
f 193/223/192 75/76/75 76/77/76
f 194/225/194 195/227/196 196/226/195
f 196/226/195 197/229/198 198/228/197
f 197/229/198 196/226/195 199/230/199
f 200/231/200 201/233/201 199/232/199
f 199/232/199 202/235/202 197/234/198
f 202/235/202 199/232/199 201/233/201
f 203/236/203 201/233/201 200/231/200
f 203/236/203 204/237/204 201/233/201
f 203/236/203 205/238/205 204/237/204
f 201/233/201 206/239/206 202/235/202
f 206/239/206 201/233/201 204/237/204
f 207/240/207 196/226/195 204/237/204
f 204/237/204 198/228/197 206/239/206
f 198/228/197 204/237/204 196/226/195
f 208/241/208 209/243/210 210/242/209
f 209/243/210 208/241/208 211/244/211
f 210/242/209 212/246/213 213/245/212
f 212/246/213 210/242/209 209/243/210
f 211/247/211 214/249/214 209/248/210
f 214/249/214 211/247/211 215/250/215
f 209/248/210 216/252/216 212/251/213
f 216/252/216 209/248/210 214/249/214
f 215/250/215 217/253/217 214/249/214
f 217/253/217 215/250/215 218/254/218
f 214/249/214 219/255/219 216/252/216
f 219/255/219 214/249/214 217/253/217
f 218/254/218 210/242/209 217/253/217
f 210/242/209 218/254/218 208/241/208
f 217/253/217 213/245/212 219/255/219
f 213/245/212 217/253/217 210/242/209
f 206/239/206 208/241/208 218/254/218
f 208/241/208 206/239/206 198/228/197
f 198/228/197 211/244/211 208/241/208
f 211/244/211 198/228/197 197/229/198
f 202/235/202 211/247/211 197/234/198
f 211/247/211 202/235/202 215/250/215
f 215/250/215 206/239/206 218/254/218
f 206/239/206 215/250/215 202/235/202
f 220/256/220 207/240/207 205/238/205
f 207/240/207 220/256/220 221/257/221
f 221/257/221 139/259/139 222/258/222
f 139/259/139 221/257/221 220/256/220
f 187/218/187 150/178/150 223/260/223
f 150/178/150 187/218/187 149/177/149
f 139/165/139 136/162/136 224/261/224
f 225/262/225 130/264/129 226/263/226
f 130/264/129 225/262/225 128/265/128
f 194/225/194 225/262/225 226/263/226
f 227/266/227 137/164/138 228/267/228
f 227/266/227 138/163/137 137/164/138
f 227/266/227 229/268/229 138/163/137
f 113/269/113 138/163/137 229/268/229
f 138/163/137 113/269/113 114/270/114
f 220/256/220 137/271/138 139/259/139
f 205/238/205 137/271/138 220/256/220
f 205/238/205 228/272/228 137/271/138
f 205/238/205 203/236/203 228/272/228
f 230/273/230 200/231/200 195/274/196
f 200/231/200 230/273/230 231/275/231
f 191/222/191 232/277/233 233/276/232
f 232/277/233 191/222/191 188/219/188
f 132/278/132 230/273/230 195/274/196
f 134/159/133 191/222/191 233/276/232
f 232/277/233 188/219/188 234/279/234
f 148/174/148 157/212/157 151/181/151
f 147/173/147 148/174/148 151/181/151
f 151/181/151 159/280/158 154/184/154
f 154/184/154 162/281/161 155/186/156
f 162/281/161 154/184/154 159/280/158
f 155/186/156 172/282/172 166/196/166
f 172/282/172 155/186/156 162/281/161
f 172/282/172 169/199/169 166/196/166
f 169/199/169 172/282/172 174/283/173
f 174/283/173 171/201/171 169/199/169
f 171/201/171 174/283/173 177/284/176
f 144/170/144 147/173/147 145/171/145
f 145/171/145 147/173/147 181/211/181
f 157/212/157 62/62/62 120/138/120
f 224/261/224 222/285/222 139/165/139
f 129/156/130 131/157/131 23/22/22
f 148/174/148 121/140/121 61/61/61
f 121/140/121 148/174/148 146/172/146
f 25/176/24 183/213/182 122/286/122
f 183/213/182 25/176/24 143/169/143
f 183/213/182 123/287/123 122/286/122
f 123/287/123 183/213/182 185/215/184
f 123/287/123 160/190/160 124/288/124
f 160/190/160 123/287/123 185/215/184
f 124/288/124 160/190/160 120/289/120
f 160/190/160 157/187/157 120/289/120
f 199/232/199 195/274/196 200/231/200
f 195/227/196 199/230/199 196/226/195
f 193/223/192 144/170/144 189/221/190
f 144/170/144 193/223/192 146/172/146
f 189/221/190 142/167/141 190/220/189
f 142/167/141 189/221/190 144/170/144
f 142/167/141 186/217/186 190/220/189
f 186/217/186 142/167/141 141/168/142
f 141/168/142 125/290/125 186/217/186
f 125/290/125 141/168/142 24/175/25
f 224/291/224 131/157/131 222/292/222
f 131/157/131 128/154/128 222/292/222
f 128/265/128 221/257/221 222/258/222
f 221/257/221 128/265/128 225/262/225
f 225/262/225 207/240/207 221/257/221
f 207/240/207 225/262/225 194/225/194
f 207/240/207 194/225/194 196/226/195
f 204/237/204 205/238/205 207/240/207
f 151/181/151 157/212/157 159/280/158
f 190/220/189 187/218/187 188/219/188
f 227/266/227 228/267/228 231/293/231
f 188/219/188 223/260/223 234/279/234
f 223/260/223 188/219/188 187/218/187
f 187/218/187 190/220/189 186/217/186
f 126/294/126 136/162/136 138/163/137
f 150/178/150 113/269/113 229/268/229
f 113/269/113 150/178/150 27/179/28
f 229/268/229 223/260/223 150/178/150
f 223/260/223 229/268/229 227/266/227
f 223/260/223 231/293/231 234/279/234
f 231/293/231 223/260/223 227/266/227
f 231/293/231 232/277/233 234/279/234
f 232/277/233 231/293/231 235/295/235
f 235/295/235 233/276/232 232/277/233
f 233/276/232 235/295/235 230/296/230
f 134/159/133 230/296/230 132/158/132
f 230/296/230 134/159/133 233/276/232
f 133/160/134 75/76/75 192/224/193
f 75/76/75 133/160/134 22/23/23
f 192/224/193 134/159/133 133/160/134
f 134/159/133 192/224/193 191/222/191
f 135/161/135 130/155/129 129/156/130
f 130/155/129 135/161/135 132/158/132
f 132/297/132 226/263/226 130/264/129
f 226/263/226 132/297/132 195/227/196
f 226/263/226 195/227/196 194/225/194
f 203/236/203 231/275/231 228/272/228
f 231/275/231 203/236/203 200/231/200
f 23/22/22 135/161/135 129/156/130
f 28/180/27 186/217/186 125/290/125
f 186/217/186 28/180/27 149/177/149
f 126/294/126 138/163/137 114/270/114
f 76/77/76 146/172/146 193/223/192
f 146/172/146 76/77/76 121/140/121
f 230/273/230 235/298/235 231/275/231
f 99/104/236 96/99/237 102/108/237
f 96/99/237 99/104/236 95/98/236
f 216/252/238 213/245/239 212/246/238
f 213/245/239 216/252/238 219/255/239
f 55/55/240 49/50/242 59/59/241
f 55/55/240 50/49/243 49/50/242
f 56/56/244 50/49/243 55/55/240
f 180/210/245 177/206/247 176/207/246
f 170/200/248 177/206/247 180/210/245
f 171/201/249 177/206/247 170/200/248
f 126/294/250 236/294/252 136/162/251
f 136/162/251 236/162/252 224/261/253
f 224/291/253 236/157/252 131/157/254
f 131/157/254 236/157/252 23/22/255
f 3/2/256 23/22/255 236/2/252
f 107/146/257 3/2/256 236/2/252
f 9/9/258 107/114/257 236/9/252
f 9/9/258 236/149/252 126/149/250
