# Wavefront OBJ
# Created by fragMOTION 1.3.7
# http://www.fragmosoft.com

mtllib Bob_Apron.mtl
# 177 vertices
v 0.0841217 0.787138 -0.0284848
v 0.0556313 0.771863 -0.045655
v 0.0496752 0.801569 -0.0193326
v 0.0885759 0.760622 -0.039782
v 0.0945924 0.740931 -0.0413251
v 0.0659908 0.698616 -0.067307
v 0.0605095 0.73875 -0.0616402
v 0.108497 0.700663 -0.0259336
v 0.0351172 0.821762 0.0286979
v 0.0632441 0.811586 0.0421022
v 0.076211 0.805876 0.022688
v 0.0386566 0.81071 0.0538331
v 0.0591069 0.550585 -0.0607799
v 0.0859021 0.50684 -0.0425816
v 0.0538574 0.491955 -0.0561178
v 0.094785 0.562035 -0.0273067
v 0.0690408 0.474614 -0.0607934
v 0.109013 0.363715 -0.0443125
v 0.0711274 0.375903 -0.0862895
v 0.107963 0.464159 -0.0186862
v 0.0687665 0.254568 -0.100624
v 0.10667 0.263183 -0.0618927
v 0.106954 0.505438 -0.0123418
v 0.0925066 0.604933 -0.0143143
v 0.0683555 0.664529 -0.069566
v 0.106255 0.666324 -0.0213829
v 0.0634423 0.610329 -0.0574735
v 0.00833962 0.666234 -0.078961
v 0.00891348 0.605323 -0.0700425
v 0.0451811 0.816735 -0.00373684
v 0.101877 0.530086 -0.0225388
v 0.0825765 0.800302 -0.00689852
v 0.0104268 0.549361 -0.069505
v 0.00828561 0.484729 -0.0657504
v 0.0957786 0.572402 0.0474565
v 0.0981175 0.597244 0.0425496
v 0.0593484 0.600367 0.0744806
v 0.0553539 0.575732 0.0743708
v 0.00674497 0.600947 0.0769563
v 0.00828386 0.575683 0.0732968
v 0.00410344 0.823552 0.0329775
v 0.00842074 0.698337 -0.0764854
v 0.00374606 0.80763 0.0581252
v 0.0382882 0.286463 -0.113159
v 0.0257954 0.384643 -0.0884521
v 0.0193725 0.468357 -0.0628497
v -0.0718568 0.786889 -0.0320996
v -0.0423579 0.771011 -0.047944
v -0.075767 0.760001 -0.0435789
v -0.0383887 0.800628 -0.021375
v -0.0812001 0.739427 -0.0450193
v -0.0494686 0.697266 -0.0697054
v -0.0933768 0.698259 -0.0302338
v -0.0455876 0.737548 -0.0641101
v -0.0265888 0.8208 0.0272188
v -0.0543363 0.810557 0.0396355
v -0.0367463 0.809514 0.0520363
v -0.0700081 0.80428 0.0199109
v -0.0331334 0.55344 -0.0627783
v -0.0685143 0.513743 -0.0484308
v -0.0749444 0.567141 -0.0309698
v -0.0414376 0.506449 -0.0620392
v -0.0525851 0.476612 -0.0645313
v -0.0941462 0.367472 -0.0434818
v -0.0929554 0.468373 -0.0218541
v -0.054848 0.377768 -0.0846717
v -0.0536364 0.276591 -0.0954716
v -0.0924889 0.27156 -0.0576018
v -0.0913725 0.512382 -0.0177112
v -0.0753654 0.606041 -0.0174477
v -0.0517167 0.663522 -0.071817
v -0.0458829 0.610436 -0.0594344
v -0.0912956 0.664647 -0.0253363
v -0.035085 0.815803 -0.0055495
v -0.0831928 0.538225 -0.0267963
v -0.0711506 0.800305 -0.0107675
v -0.0788509 0.578348 0.043787
v -0.0826645 0.600192 0.0390925
v -0.0448291 0.601425 0.0725371
v -0.0385287 0.578707 0.0724167
v -0.00123998 0.380536 -0.0937953
v 0.0292138 0.288431 -0.13097
v -0.0109266 0.288502 -0.11439
v 0.0126003 0.385228 -0.104094
v -0.00027558 0.466521 -0.0686888
v 0.0124207 0.465838 -0.0699349
v 0.0867193 0.758355 -0.0273179
v 0.0830843 0.777632 -0.0229349
v 0.0804127 0.787692 -0.00598438
v 0.0736957 0.797987 0.0251494
v 0.0599616 0.80153 0.0426939
v 0.0361381 0.799201 0.0514496
v 0.0039508 0.796316 0.0547962
v -0.0335658 0.79809 0.0498205
v -0.0511763 0.799977 0.0403907
v -0.0673636 0.79695 0.0230236
v -0.0691901 0.787286 -0.00964445
v -0.0710855 0.777013 -0.0263431
v -0.0744786 0.757336 -0.0308933
v -0.0796886 0.741437 -0.0338535
v -0.0871914 0.699722 -0.0187557
v -0.0825245 0.666419 -0.0140518
v -0.0750609 0.609788 -0.00690656
v -0.0732668 0.60332 0.0314799
v -0.0399652 0.604177 0.0584733
v 0.00680478 0.603661 0.0621157
v 0.0543966 0.603533 0.0602153
v 0.0883516 0.601329 0.0345478
v 0.0901835 0.609065 -0.00390566
v 0.0925149 0.667955 -0.0106527
v 0.101348 0.701764 -0.0146605
v 0.0924616 0.74316 -0.0304696
v 0.0450709 0.791974 -0.01926
v 0.0503153 0.768476 -0.038727
v 0.0537969 0.73756 -0.0499567
v 0.00778704 0.736895 -0.0651104
v 0.0074988 0.739082 -0.0546007
v -0.0394557 0.736174 -0.0520264
v -0.0372352 0.767132 -0.0405797
v -0.0335349 0.790638 -0.0208897
v -0.0298878 0.804771 -0.0063606
v -0.0221698 0.811017 0.0226301
v 0.00431634 0.813774 0.0270007
v 0.0309555 0.811824 0.02382
v 0.0403088 0.806091 -0.00485748
v 0.0881795 0.571183 0.0394806
v 0.0517141 0.573661 0.0607189
v 0.00843063 0.573982 0.0599599
v -0.0347292 0.576286 0.0589387
v -0.070978 0.576717 0.0361267
v -0.0722356 0.565579 -0.0149304
v -0.0767049 0.539398 -0.00871658
v -0.0842782 0.51181 -7.36067e-005
v -0.084001 0.46627 -0.00329717
v -0.0839222 0.364449 -0.0250591
v -0.0816415 0.268894 -0.0397799
v 0.0952657 0.263071 -0.0439391
v 0.0981145 0.360186 -0.0263259
v 0.0982696 0.461768 -0.000792414
v 0.0995123 0.50461 0.00408396
v 0.0956202 0.531589 -0.0047965
v 0.0905268 0.560354 -0.0115297
v 0.0577318 0.700942 -0.0527513
v 0.00804157 0.700825 -0.0603901
v -0.0419086 0.699749 -0.0548394
v 0.0694075 0.466674 -0.0313844
v 0.0707162 0.369411 -0.0605691
v 0.0725287 0.264863 -0.0771864
v 0.0856016 0.510061 -0.0166988
v 0.0534397 0.503156 -0.0271256
v 0.029587 0.285388 -0.0954984
v 0.0264465 0.381812 -0.0656065
v 0.0187001 0.461971 -0.0416542
v -0.0546451 0.468951 -0.0356353
v -0.055298 0.372181 -0.05874
v -0.0559192 0.274298 -0.0748833
v -0.0691823 0.516843 -0.0217278
v -0.0372638 0.507464 -0.0320116
v -0.0106165 0.381339 -0.0660284
v 0.0205774 0.287277 -0.0999108
v 0.00792356 0.381426 -0.0697968
v -0.0130792 0.284622 -0.0923326
v -0.00294465 0.461442 -0.045001
v 0.00820414 0.455129 -0.0445025
v 0.00831497 0.491872 -0.0416987
v 0.0587956 0.553072 -0.0414533
v 0.0680398 0.666928 -0.0454854
v 0.0634061 0.612348 -0.0388753
v 0.00812136 0.665281 -0.0549098
v 0.00931176 0.60782 -0.0471424
v 0.00963481 0.552191 -0.0490757
v 0.0655713 0.702463 -0.044186
v 0.007914 0.702092 -0.0531183
v -0.0334499 0.555968 -0.0434562
v -0.0520985 0.665714 -0.0478643
v -0.0459552 0.612711 -0.0408569
v -0.0501546 0.70094 -0.0466927
# 162 texture vertices
vt 0.602753 -0.302047
vt 0.560158 -0.311434
vt 0.560293 -0.311433
vt 0.599907 -0.316551
vt 0.599672 -0.340808
vt 0.556824 -0.343677
vt 0.555007 -0.388254
vt 0.609014 -0.390519
vt 0.749072 -0.252835
vt 0.704317 -0.26261
vt 0.723559 -0.274453
vt 0.760789 -0.275064
vt 0.541998 -0.530802
vt 0.537866 -0.573787
vt 0.5763 -0.571239
vt 0.583528 -0.528924
vt 0.568997 -0.612944
vt 0.582031 -0.714844
vt 0.621681 -0.713195
vt 0.615661 -0.613674
vt 0.59375 -0.78125
vt 0.625 -0.78125
vt 0.609463 -0.579815
vt 0.589749 -0.494196
vt 0.602372 -0.428933
vt 0.556732 -0.420956
vt 0.544522 -0.482598
vt 0.499994 -0.421393
vt 0.499985 -0.4847
vt 0.730779 -0.234588
vt 0.606179 -0.557918
vt 0.683214 -0.237626
vt 0.49998 -0.53041
vt 0.499864 -0.57631
vt 0.649316 -0.522512
vt 0.649691 -0.502822
vt 0.739917 -0.520946
vt 0.73582 -0.502588
vt 0.792147 -0.519051
vt 0.792946 -0.502492
vt 0.554865 -0.287498
vt 0.578483 -0.272144
vt 0.790454 -0.263389
vt 0.500147 -0.388946
vt 0.791714 -0.27502
vt 0.186579 -0.737565
vt 0.132946 -0.739059
vt 0.152344 -0.796875
vt 0.195313 -0.796875
vt 0.172189 -0.675045
vt 0.124317 -0.686439
vt 0.152564 -0.640508
vt 0.396876 -0.300069
vt 0.400452 -0.314153
vt 0.440155 -0.307846
vt 0.402344 -0.340193
vt 0.393599 -0.389614
vt 0.444648 -0.38857
vt 0.441406 -0.34375
vt 0.243596 -0.249915
vt 0.248696 -0.278552
vt 0.278684 -0.272891
vt 0.298355 -0.263509
vt 0.461413 -0.530544
vt 0.416036 -0.529141
vt 0.423427 -0.571174
vt 0.462523 -0.57361
vt 0.430956 -0.613338
vt 0.383555 -0.613316
vt 0.379368 -0.712568
vt 0.419635 -0.712953
vt 0.367188 -0.78125
vt 0.402344 -0.78125
vt 0.390641 -0.579043
vt 0.410608 -0.493233
vt 0.451108 -0.482182
vt 0.443245 -0.421117
vt 0.399536 -0.429232
vt 0.271305 -0.232261
vt 0.394772 -0.556238
vt 0.316105 -0.239092
vt 0.349317 -0.503212
vt 0.349443 -0.522389
vt 0.261928 -0.502737
vt 0.26406 -0.520321
vt 0.207 -0.5025
vt 0.209351 -0.519181
vt 0.443799 -0.297052
vt 0.417622 -0.274245
vt 0.206753 -0.261779
vt 0.207736 -0.281743
vt 0.092312 -0.739055
vt 0.074219 -0.796875
vt 0.113281 -0.796875
vt 0.1137 -0.739065
vt 0.102184 -0.686311
vt 0.113686 -0.688505
vt 0.113821 -0.639882
vt 0.073872 -0.640196
vt 0.055671 -0.675509
vt 0.040767 -0.737895
vt 0.035156 -0.796875
vt 0.602133 -0.316848
vt 0.604748 -0.30171
vt 0.579831 -0.271835
vt 0.680398 -0.240321
vt 0.702039 -0.266486
vt 0.722497 -0.278717
vt 0.75998 -0.279907
vt 0.792028 -0.27978
vt 0.207515 -0.285528
vt 0.249643 -0.2827
vt 0.279126 -0.276697
vt 0.299584 -0.264691
vt 0.319294 -0.240079
vt 0.414214 -0.272259
vt 0.395831 -0.299456
vt 0.397566 -0.314009
vt 0.400782 -0.33983
vt 0.391655 -0.390416
vt 0.3978 -0.431807
vt 0.40821 -0.490992
vt 0.347026 -0.501663
vt 0.262057 -0.501096
vt 0.207012 -0.500982
vt 0.793027 -0.499785
vt 0.735503 -0.500281
vt 0.649419 -0.499997
vt 0.592941 -0.492613
vt 0.604546 -0.429525
vt 0.609998 -0.390579
vt 0.60186 -0.340673
vt 0.557789 -0.310723
vt 0.558545 -0.311353
vt 0.554317 -0.343491
vt 0.500423 -0.343927
vt 0.445313 -0.34375
vt 0.442379 -0.308659
vt 0.442022 -0.307904
vt 0.446632 -0.295914
vt 0.270464 -0.231421
vt 0.243615 -0.24894
vt 0.206647 -0.25939
vt 0.553842 -0.285145
vt 0.649452 -0.524123
vt 0.740184 -0.522685
vt 0.792283 -0.521396
vt 0.209404 -0.520561
vt 0.264033 -0.521515
vt 0.348991 -0.524235
vt 0.412743 -0.530458
vt 0.392961 -0.55558
vt 0.388831 -0.578713
vt 0.381765 -0.613137
vt 0.376872 -0.712387
vt 0.363281 -0.78125
vt 0.632813 -0.78125
vt 0.627363 -0.713195
vt 0.619327 -0.613674
vt 0.611296 -0.579927
vt 0.608098 -0.556967
vt 0.588972 -0.530846
# 295 normals
vn 0.163962 0.657055 -0.726061
vn 0.132252 0.712797 -0.687147
vn 0.221298 0.469068 -0.8538
vn 0.2939 0.405106 -0.862774
vn 0.519272 0.156219 -0.820735
vn 0.376658 0.218262 -0.900153
vn 0.430309 0.114684 -0.886067
vn 0.689198 0.0402903 -0.712223
vn 0.225447 0.94659 0.22584
vn 0.417581 0.859588 0.081659
vn 0.29379 0.909539 0.220171
vn 0.141486 0.923337 0.356925
vn 0.430131 -0.0249353 -0.901043
vn 0.301466 -0.051007 -0.951443
vn 0.644807 0.0215158 -0.730935
vn 0.829843 -0.00492349 -0.556497
vn 0.493755 0.171937 -0.828022
vn 0.502658 0.177116 -0.846138
vn 0.756247 0.136575 -0.639873
vn 0.768265 0.0940957 -0.620171
vn 0.505087 -0.152952 -0.791729
vn 0.752051 -0.0293672 -0.625535
vn 0.801175 0.0160436 -0.565308
vn 0.8949 -0.10893 -0.417115
vn 0.763601 -0.125937 -0.616184
vn 0.496497 -0.0992122 -0.849164
vn 0.528949 -0.157895 -0.823849
vn 0.015272 -0.0333382 -0.989974
vn 0.0129819 -0.149556 -0.980598
vn 0.284338 0.921556 -0.255921
vn 0.795619 0.0448022 -0.598849
vn 0.279347 0.880736 -0.372423
vn 0.027754 -0.0569603 -0.996545
vn 0.0483299 -0.0679435 -0.996518
vn 0.870065 -0.00913197 0.491794
vn 0.936282 -0.020104 0.339571
vn 0.270754 0.065928 0.95872
vn 0.355424 0.0552885 0.926655
vn -0.018265 0.0722809 0.995521
vn -0.0162944 0.0575881 0.990477
vn -0.0206502 0.8722 0.486211
vn 0.0181514 0.174148 -0.974936
vn -0.0241702 0.841794 0.538892
vn 0.191195 0.304889 -0.84359
vn 0.164447 0.164594 -0.850878
vn 0.23511 0.334554 -0.805595
vn -0.129068 0.656308 -0.736782
vn -0.257139 0.405268 -0.876276
vn -0.192445 0.466255 -0.863337
vn -0.11749 0.708179 -0.695274
vn -0.483696 0.142168 -0.8562
vn -0.660468 0.0257863 -0.741403
vn -0.396336 0.105216 -0.903311
vn -0.341955 0.206544 -0.916691
vn -0.249847 0.94483 0.206566
vn -0.193341 0.925226 0.326091
vn -0.32527 0.901845 0.178998
vn -0.408829 0.851393 0.0155371
vn -0.368824 0.0189247 -0.927952
vn -0.795699 0.0492271 -0.602326
vn -0.637219 0.08165 -0.763459
vn -0.302245 0.0295608 -0.949562
vn -0.476226 0.128701 -0.864879
vn -0.746595 0.0884272 -0.658297
vn -0.734735 0.122049 -0.667285
vn -0.474499 0.152689 -0.866911
vn -0.734062 0.0664793 -0.637814
vn -0.484208 0.0656813 -0.806185
vn -0.779169 0.0418948 -0.622591
vn -0.873083 -0.106624 -0.465072
vn -0.50318 -0.165402 -0.840837
vn -0.467066 -0.106277 -0.867587
vn -0.741799 -0.137121 -0.645148
vn -0.285402 0.915288 -0.276428
vn -0.762997 0.107054 -0.636639
vn -0.261329 0.884228 -0.384813
vn -0.949594 0.0165749 0.2994
vn -0.887839 0.0563076 0.455541
vn -0.37822 0.0650825 0.916104
vn -0.299173 0.0858342 0.94861
vn -0.0718679 0.273926 -0.875241
vn -0.0704271 0.221255 -0.84984
vn 0.198819 0.0602212 -0.880939
vn 0.0946402 0.24847 -0.851715
vn -0.107135 0.301892 -0.852456
vn 0.073856 0.331995 -0.843267
vn 0.96207 0.162043 0.189867
vn 0.970461 0.0205179 0.199611
vn 0.973178 -0.0240586 0.184158
vn 0.961888 0.162226 0.188558
vn 0.964668 -0.104703 0.224456
vn 0.957109 -0.110037 0.252831
vn 0.860148 -0.136569 0.411014
vn 0.863669 -0.146647 0.397805
vn 0.678005 -0.0883018 0.726337
vn 0.676916 -0.112232 0.710562
vn 0.254355 -0.205885 0.94493
vn 0.296866 -0.18891 0.936033
vn -0.00892428 -0.255423 0.966701
vn -0.00789418 -0.256329 0.966377
vn -0.332145 -0.21643 0.917968
vn -0.398285 -0.200793 0.894885
vn -0.702286 -0.0839877 0.701069
vn -0.697193 -0.0999963 0.682481
vn -0.856466 -0.127931 0.389134
vn -0.875194 -0.150593 0.329846
vn -0.984034 -0.110574 0.132988
vn -0.980932 -0.122558 0.144612
vn -0.981453 0.0227759 0.147492
vn -0.983752 -0.0206639 0.130629
vn -0.97509 0.156225 0.144691
vn -0.974698 0.155222 0.144061
vn -0.929197 0.206626 0.179787
vn -0.927946 0.216243 0.189857
vn -0.88821 0.132166 0.421826
vn -0.889661 0.137859 0.416635
vn -0.866713 -0.0661791 0.474752
vn -0.863147 -0.0625218 0.481621
vn -0.901564 -0.090587 0.407148
vn -0.902095 -0.0886422 0.40725
vn -0.592552 0.794242 0.0730397
vn -0.414383 0.898346 0.111902
vn -0.313121 0.936922 0.131299
vn -0.591533 0.795505 0.0724537
vn -0.0862768 0.977228 0.175237
vn -0.0798958 0.978113 0.174565
vn 0.0039144 0.978873 0.188212
vn 0.00556574 0.979071 0.187563
vn 0.102907 0.975981 0.177402
vn 0.101251 0.976349 0.176723
vn 0.408852 0.900422 0.13337
vn 0.328543 0.930955 0.145256
vn 0.555904 0.821602 0.108256
vn 0.557319 0.820658 0.107832
vn 0.787074 -0.0294889 0.605919
vn 0.755104 -0.0296498 0.64133
vn 0.750173 -0.0320046 0.64691
vn 0.787119 -0.0307131 0.606308
vn 0.825557 0.137575 0.537028
vn 0.832324 0.151005 0.522906
vn 0.913628 0.230912 0.250135
vn 0.909606 0.242856 0.262641
vn -0.77758 0.314954 -0.543591
vn -0.823047 0.209696 -0.526122
vn -0.8214 0.209808 -0.525576
vn -0.752489 0.340196 -0.562527
vn -0.556127 0.742945 -0.372489
vn -0.585876 0.710668 -0.38896
vn -0.0065817 0.997492 -0.032674
vn -0.00652544 0.997466 -0.0320987
vn 0.55952 0.759773 -0.331182
vn 0.596212 0.722771 -0.348854
vn 0.852496 0.218801 -0.474532
vn 0.852252 0.219222 -0.474395
vn 0.808323 0.320903 -0.492886
vn 0.786219 0.342971 -0.513232
vn 0.803236 0.40216 -0.438011
vn 0.817251 0.427334 -0.382891
vn 0.557353 0.530446 -0.637383
vn 0.501065 0.533262 -0.680036
vn 0.0136287 0.489474 -0.870739
vn 0.0128124 0.490177 -0.870188
vn -0.530444 0.527851 -0.662416
vn -0.47882 0.530685 -0.698237
vn -0.778383 0.40018 -0.483029
vn -0.798225 0.425231 -0.424146
vn 0.179083 -0.969401 0.159208
vn 0.00202353 -0.989498 0.131149
vn 0.000265633 -0.989118 0.134481
vn 0.114485 -0.980232 0.151701
vn -0.032338 -0.989567 0.126613
vn -0.0329115 -0.989357 0.128248
vn -0.0672785 -0.987361 0.130074
vn -0.0684478 -0.986904 0.133398
vn -0.268188 -0.950482 0.147785
vn -0.195818 -0.968418 0.144268
vn -0.403759 -0.901811 0.144196
vn -0.401999 -0.902947 0.141057
vn -0.93303 0.259225 0.247851
vn -0.91222 0.302374 0.273925
vn -0.914487 0.294981 0.273425
vn -0.933323 0.256558 0.248857
vn -0.910675 0.138023 0.372543
vn -0.912698 0.120125 0.374277
vn -0.898564 -0.0325059 0.43081
vn -0.89863 -0.0408057 0.431232
vn -0.879819 -0.0879443 0.467101
vn -0.873006 -0.070335 0.451851
vn -0.873009 -0.0708771 0.452195
vn 0.0291237 -0.928192 -0.153899
vn 0.0283429 -0.914852 -0.11875
vn 0.02915 -0.928844 -0.154998
vn -0.0367021 -0.949621 -0.0208845
vn -0.0366634 -0.950215 -0.025405
vn -0.0378705 -0.925545 0.126149
vn 0.858579 -0.012016 0.488104
vn 0.862773 -0.114842 0.492375
vn 0.862662 -0.115008 0.492532
vn 0.858531 -0.0142814 0.488474
vn 0.885154 -0.0657247 0.441695
vn 0.884847 -0.072321 0.444802
vn 0.911846 0.0738047 0.36134
vn 0.913012 0.060332 0.362374
vn 0.923307 0.226956 0.304803
vn 0.92389 0.223728 0.303438
vn 0.928371 0.227427 0.292459
vn 0.927873 0.228136 0.293035
vn 0.309967 -0.934997 0.163467
vn 0.311656 -0.934814 0.160088
vn -0.144634 -0.17561 0.965546
vn -0.144578 -0.176436 0.965264
vn -0.145716 -0.160678 0.970917
vn -0.147401 -0.140567 0.979037
vn 0.108914 -0.173952 0.970414
vn 0.108881 -0.17311 0.970706
vn 0.107517 -0.137373 0.984667
vn 0.108296 -0.157887 0.976273
vn 0.0181942 0.253716 -0.96161
vn -0.48977 -0.101502 0.816746
vn -0.790456 -0.0684243 0.593765
vn -0.756247 -0.136575 0.639873
vn -0.502658 -0.177124 0.846142
vn -0.79378 0.0358559 0.57623
vn -0.504223 0.028137 0.786657
vn -0.645498 0.0225671 0.721181
vn -0.796021 0.0532059 0.568814
vn -0.293911 -0.0561898 0.892861
vn -0.152711 -0.108205 0.865478
vn -0.184098 -0.229614 0.852703
vn -0.24627 -0.279301 0.818
vn 0.460706 -0.10126 0.876212
vn 0.474499 -0.152696 0.866911
vn 0.770323 -0.110776 0.627957
vn 0.740735 -0.0796252 0.665722
vn 0.469018 -0.105015 0.79683
vn 0.776321 -0.0561585 0.592282
vn 0.777455 0.0255246 0.625491
vn 0.618763 -0.0107477 0.781657
vn 0.259042 -0.0673433 0.956044
vn 0.108135 -0.22361 0.866553
vn -0.0442051 -0.236505 0.86143
vn -0.151623 -0.107425 0.863632
vn 0.0478723 -0.125164 0.863796
vn 0.144987 -0.266999 0.84992
vn -0.0587019 -0.199104 0.870044
vn -0.0327311 0.0193474 0.958424
vn 0.0102224 -0.913698 -0.164993
vn 0.0274835 -0.914828 -0.119114
vn 0.0282642 -0.928155 -0.154269
vn 0.0913577 -0.911345 -0.147674
vn 0.0733234 -0.889461 -0.248516
vn 0.132181 -0.907222 -0.116228
vn 0.113269 -0.905928 -0.161002
vn 0.143994 -0.931298 -0.0851107
vn 0.156516 -0.944727 -0.0358312
vn 0.104969 -0.885019 -0.245549
vn 0.122538 -0.905958 -0.144323
vn -0.0167049 -0.93553 -0.0137602
vn -0.0359646 -0.949641 -0.0211807
vn -0.037134 -0.925612 0.125862
vn 0.0706912 -0.937182 -0.0981535
vn -0.0718234 -0.893288 -0.132392
vn -0.0602868 -0.899878 -0.184943
vn 0.0829985 -0.954059 -0.0523306
vn -0.120429 -0.926116 -0.0161916
vn -0.142446 -0.916653 0.123748
vn -0.426075 0.0782273 0.899891
vn -0.696031 0.0586063 0.714404
vn -0.686199 -0.0154078 0.687554
vn -0.374131 0.00362943 0.868953
vn -0.763399 0.10309 0.625817
vn -0.497143 0.117483 0.850462
vn -0.484325 0.0976437 0.857279
vn -0.752781 0.105424 0.633062
vn -0.0181501 0.0703333 0.98703
vn -0.0144402 0.105238 0.987393
vn -0.830218 0.0101004 0.553984
vn -0.846435 -0.033798 0.502299
vn -0.0264009 0.0396046 0.957989
vn -0.0129559 0.0808558 0.993274
vn -0.469412 0.0390285 0.8764
vn -0.0195681 -0.0582518 0.990853
vn -0.738983 0.119997 0.650636
vn 0.363099 0.0547048 0.928763
vn 0.339651 -0.0267074 0.933347
vn 0.643771 -0.068524 0.758433
vn 0.639054 0.030744 0.767363
vn 0.704167 0.12567 0.690838
vn 0.700577 0.109447 0.693976
vn 0.433226 0.101546 0.885911
vn 0.452064 0.129441 0.875377
vn 0.836072 -0.0437731 0.546362
vn 0.826348 -0.0916132 0.552861
vn 0.414358 0.0268537 0.904811
vn 0.684681 0.0905866 0.714884
usemtl _10_-_Default
g Bob_Apron
s off
f 1/1/1 2/3/3 3/2/2
f 2/3/3 1/1/1 4/4/4
f 5/5/5 6/7/7 7/6/6
f 6/7/7 5/5/5 8/8/8
f 9/9/9 10/11/11 11/10/10
f 10/11/11 9/9/9 12/12/12
f 13/13/13 14/15/15 15/14/14
f 14/15/15 13/13/13 16/16/16
f 17/17/17 18/19/19 19/18/18
f 18/19/19 17/17/17 20/20/20
f 18/19/19 21/21/21 19/18/18
f 21/21/21 18/19/19 22/22/22
f 20/20/20 14/15/15 23/23/23
f 14/15/15 20/20/20 17/17/17
f 24/24/24 25/26/26 26/25/25
f 25/26/26 24/24/24 27/27/27
f 28/28/28 27/27/27 29/29/29
f 27/27/27 28/28/28 25/26/26
f 11/10/10 30/30/30 9/9/9
f 14/15/15 17/17/17 15/14/14
f 16/16/16 31/31/31 14/15/15
f 31/31/31 23/23/23 14/15/15
f 30/30/30 11/10/10 32/32/32
f 15/14/14 33/33/33 13/13/13
f 33/33/33 15/14/14 34/34/34
f 27/27/27 16/16/16 13/13/13
f 16/16/16 27/27/27 24/24/24
f 24/24/24 35/35/35 16/16/16
f 35/35/35 24/24/24 36/36/36
f 35/35/35 37/38/38 38/37/37
f 37/38/38 35/35/35 36/36/36
f 38/37/37 39/40/40 40/39/39
f 39/40/40 38/37/37 37/38/38
f 30/41/30 32/42/32 3/2/2
f 3/2/2 32/42/32 1/1/1
f 41/43/41 12/12/12 9/9/9
f 6/7/7 28/28/28 42/44/42
f 28/28/28 6/7/7 25/26/26
f 25/26/26 8/8/8 26/25/25
f 8/8/8 25/26/26 6/7/7
f 7/6/6 4/4/4 5/5/5
f 4/4/4 7/6/6 2/3/3
f 41/43/41 43/45/43 12/12/12
f 13/13/13 29/29/29 27/27/27
f 29/29/29 13/13/13 33/33/33
f 19/46/18 44/48/45 45/47/44
f 44/48/45 19/46/18 21/49/21
f 17/50/17 45/47/44 46/51/46
f 45/47/44 17/50/17 19/46/18
f 46/51/46 15/52/14 17/50/17
f 47/53/47 48/55/49 49/54/48
f 48/55/49 47/53/47 50/55/50
f 51/56/51 52/58/53 53/57/52
f 52/58/53 51/56/51 54/59/54
f 55/60/55 56/62/57 57/61/56
f 56/62/57 55/60/55 58/63/58
f 59/64/59 60/66/61 61/65/60
f 60/66/61 59/64/59 62/67/62
f 63/68/63 64/70/65 65/69/64
f 64/70/65 63/68/63 66/71/66
f 64/70/65 67/73/68 68/72/67
f 67/73/68 64/70/65 66/71/66
f 65/69/64 60/66/61 63/68/63
f 60/66/61 65/69/64 69/74/69
f 70/75/70 71/77/72 72/76/71
f 71/77/72 70/75/70 73/78/73
f 28/28/28 72/76/71 71/77/72
f 72/76/71 28/28/28 29/29/29
f 58/63/58 55/60/55 74/79/74
f 60/66/61 62/67/62 63/68/63
f 61/65/60 60/66/61 75/80/75
f 75/80/75 60/66/61 69/74/69
f 74/79/74 76/81/76 58/63/58
f 62/67/62 33/33/33 34/34/34
f 33/33/33 62/67/62 59/64/59
f 72/76/71 61/65/60 70/75/70
f 61/65/60 72/76/71 59/64/59
f 70/75/70 77/83/78 78/82/77
f 77/83/78 70/75/70 61/65/60
f 77/83/78 79/84/79 78/82/77
f 79/84/79 77/83/78 80/85/80
f 80/85/80 39/86/40 79/84/79
f 39/86/40 80/85/80 40/87/39
f 74/88/74 50/55/50 76/89/76
f 50/55/50 47/53/47 76/89/76
f 41/90/41 55/60/55 57/61/56
f 52/58/53 28/28/28 71/77/72
f 28/28/28 52/58/53 42/44/42
f 71/77/72 53/57/52 52/58/53
f 53/57/52 71/77/72 73/78/73
f 54/59/54 49/54/48 48/55/49
f 49/54/48 54/59/54 51/56/51
f 41/90/41 57/61/56 43/91/43
f 29/29/29 59/64/59 72/76/71
f 59/64/59 29/29/29 33/33/33
f 81/92/81 82/94/83 83/93/82
f 82/94/83 81/92/81 84/95/84
f 85/96/85 84/95/84 81/92/81
f 84/95/84 85/96/85 86/97/86
f 34/98/34 85/96/85 62/99/62
f 62/99/62 85/96/85 63/100/63
f 85/96/85 34/98/34 86/97/86
f 81/92/81 63/100/63 85/96/85
f 63/100/63 81/92/81 66/101/66
f 83/93/82 66/101/66 81/92/81
f 66/101/66 83/93/82 67/102/68
f 34/98/34 46/51/46 86/97/86
f 46/51/46 34/98/34 15/52/14
f 84/95/84 46/51/46 45/47/44
f 46/51/46 84/95/84 86/97/86
f 82/94/83 45/47/44 44/48/45
f 45/47/44 82/94/83 84/95/84
f 87/103/87 1/1/89 88/104/88
f 1/1/89 87/103/87 4/4/90
f 88/104/88 32/42/92 89/105/91
f 32/42/92 88/104/88 1/1/89
f 89/106/91 11/10/94 90/107/93
f 11/10/94 89/106/91 32/32/92
f 90/107/93 10/11/96 91/108/95
f 10/11/96 90/107/93 11/10/94
f 91/108/95 12/12/98 92/109/97
f 12/12/98 91/108/95 10/11/96
f 92/109/97 43/45/100 93/110/99
f 43/45/100 92/109/97 12/12/98
f 93/111/99 57/61/102 94/112/101
f 57/61/102 93/111/99 43/91/100
f 94/112/101 56/62/104 95/113/103
f 56/62/104 94/112/101 57/61/102
f 95/113/103 58/63/106 96/114/105
f 58/63/106 95/113/103 56/62/104
f 96/114/105 76/81/108 97/115/107
f 76/81/108 96/114/105 58/63/106
f 97/116/107 47/53/110 98/117/109
f 47/53/110 97/116/107 76/89/108
f 98/117/109 49/54/112 99/118/111
f 49/54/112 98/117/109 47/53/110
f 99/118/111 51/56/114 100/119/113
f 51/56/114 99/118/111 49/54/112
f 100/119/113 53/57/116 101/120/115
f 53/57/116 100/119/113 51/56/114
f 101/120/115 73/78/118 102/121/117
f 73/78/118 101/120/115 53/57/116
f 102/121/117 70/75/120 103/122/119
f 70/75/120 102/121/117 73/78/118
f 103/122/121 78/82/123 104/123/122
f 78/82/123 103/122/121 70/75/124
f 104/123/122 79/84/126 105/124/125
f 79/84/126 104/123/122 78/82/123
f 105/124/125 39/86/128 106/125/127
f 39/86/128 105/124/125 79/84/126
f 106/126/127 37/38/130 107/127/129
f 37/38/130 106/126/127 39/40/128
f 107/127/129 36/36/132 108/128/131
f 36/36/132 107/127/129 37/38/130
f 108/128/131 24/24/134 109/129/133
f 24/24/134 108/128/131 36/36/132
f 109/129/135 26/25/137 110/130/136
f 26/25/137 109/129/135 24/24/138
f 110/130/136 8/8/140 111/131/139
f 8/8/140 110/130/136 26/25/137
f 111/131/139 5/5/142 112/132/141
f 5/5/142 111/131/139 8/8/140
f 112/132/141 4/4/90 87/103/87
f 4/4/90 112/132/141 5/5/142
f 113/133/143 2/3/145 114/134/144
f 2/3/145 113/133/143 3/2/146
f 114/134/144 7/6/148 115/135/147
f 7/6/148 114/134/144 2/3/145
f 115/135/147 116/136/150 117/136/149
f 116/136/150 115/135/147 7/6/148
f 117/136/149 54/59/152 118/137/151
f 54/59/152 117/136/149 116/136/150
f 118/137/151 48/55/154 119/138/153
f 48/55/154 118/137/151 54/59/152
f 119/138/153 50/55/156 120/139/155
f 50/55/156 119/138/153 48/55/154
f 120/139/155 74/88/158 121/140/157
f 74/88/158 120/139/155 50/55/156
f 121/141/157 55/60/160 122/142/159
f 55/60/160 121/141/157 74/79/158
f 122/142/159 41/90/162 123/143/161
f 41/90/162 122/142/159 55/60/160
f 123/43/161 9/9/164 124/9/163
f 9/9/164 123/43/161 41/43/162
f 124/9/163 30/30/166 125/30/165
f 30/30/166 124/9/163 9/9/164
f 125/144/165 3/2/146 113/133/143
f 3/2/146 125/144/165 30/41/166
f 126/145/167 38/37/169 127/146/168
f 38/37/169 126/145/167 35/35/170
f 127/146/168 40/39/172 128/147/171
f 40/39/172 127/146/168 38/37/169
f 128/148/171 80/85/174 129/149/173
f 80/85/174 128/148/171 40/87/172
f 129/149/173 77/83/176 130/150/175
f 77/83/176 129/149/173 80/85/174
f 130/150/175 61/65/178 131/151/177
f 61/65/178 130/150/175 77/83/176
f 131/151/179 75/80/181 132/152/180
f 75/80/181 131/151/179 61/65/182
f 132/152/180 69/74/184 133/153/183
f 69/74/184 132/152/180 75/80/181
f 133/153/183 65/69/186 134/154/185
f 65/69/186 133/153/183 69/74/184
f 134/154/185 64/70/187 135/155/187
f 64/70/187 134/154/185 65/69/186
f 135/155/187 68/72/189 136/156/188
f 68/72/189 135/155/187 64/70/187
f 136/156/190 68/72/192 67/73/191
f 137/157/193 21/21/195 22/22/194
f 137/157/196 18/19/198 138/158/197
f 18/19/198 137/157/196 22/22/199
f 138/158/197 20/20/201 139/159/200
f 20/20/201 138/158/197 18/19/198
f 139/159/200 23/23/203 140/160/202
f 23/23/203 139/159/200 20/20/201
f 140/160/202 31/31/205 141/161/204
f 31/31/205 140/160/202 23/23/203
f 141/161/204 16/16/207 142/162/206
f 16/16/207 141/161/204 31/31/205
f 142/162/208 35/35/170 126/145/167
f 35/35/170 142/162/208 16/16/209
f 143/135/210 117/136/212 144/136/211
f 117/136/212 143/135/210 115/135/213
f 144/136/214 118/137/216 145/137/215
f 118/137/216 144/136/214 117/136/217
f 52/58/53 116/136/218 42/44/42
f 116/136/218 52/58/53 54/59/54
f 42/44/42 7/6/6 6/7/7
f 7/6/6 42/44/42 116/136/218
f 146/17/219 138/19/221 139/20/220
f 138/19/221 146/17/219 147/18/222
f 138/19/221 148/21/224 137/22/223
f 148/21/224 138/19/221 147/18/222
f 139/20/220 149/15/225 146/17/219
f 149/15/225 139/20/220 140/23/226
f 149/15/225 150/14/227 146/17/219
f 147/46/222 151/48/228 148/49/224
f 151/48/228 147/46/222 152/47/229
f 146/50/219 152/47/229 147/46/222
f 152/47/229 146/50/219 153/51/230
f 153/51/230 146/50/219 150/52/227
f 154/68/231 135/70/233 155/71/232
f 135/70/233 154/68/231 134/69/234
f 135/70/233 156/73/235 155/71/232
f 156/73/235 135/70/233 136/72/236
f 134/69/234 157/66/238 133/74/237
f 157/66/238 134/69/234 154/68/231
f 157/66/238 154/68/231 158/67/239
f 159/92/240 160/94/242 161/95/241
f 160/94/242 159/92/240 162/93/243
f 163/96/244 161/95/241 164/97/245
f 161/95/241 163/96/244 159/92/240
f 165/98/246 158/99/239 163/96/244
f 158/99/239 154/100/231 163/96/244
f 163/96/244 164/97/245 165/98/246
f 159/92/240 154/100/231 155/101/232
f 154/100/231 159/92/240 163/96/244
f 162/93/243 155/101/232 156/102/235
f 155/101/232 162/93/243 159/92/240
f 165/98/246 164/97/245 153/51/230
f 153/51/230 150/52/227 165/98/246
f 161/95/241 153/51/230 164/97/245
f 153/51/230 161/95/241 152/47/229
f 160/94/242 152/47/229 161/95/241
f 152/47/229 160/94/242 151/48/228
f 156/73/247 136/72/249 67/73/248
f 162/93/250 67/102/252 83/93/251
f 67/102/252 162/93/250 156/102/253
f 160/94/254 83/93/256 82/94/255
f 83/93/256 160/94/254 162/93/257
f 148/21/258 21/21/260 137/22/259
f 160/94/261 44/48/263 151/48/262
f 44/48/263 160/94/261 82/94/264
f 151/48/262 21/49/266 148/49/265
f 21/49/266 151/48/262 44/48/263
f 166/13/267 149/15/269 142/16/268
f 149/15/269 166/13/267 150/14/270
f 109/24/271 167/26/273 168/27/272
f 167/26/273 109/24/271 110/25/274
f 169/28/275 168/27/272 167/26/273
f 168/27/272 169/28/275 170/29/276
f 142/16/268 149/15/269 141/31/277
f 141/31/277 149/15/269 140/23/278
f 150/14/270 171/33/280 165/34/279
f 171/33/280 150/14/270 166/13/267
f 168/27/272 142/16/268 109/24/271
f 142/16/268 168/27/272 166/13/267
f 172/7/281 169/28/275 167/26/273
f 169/28/275 172/7/281 173/44/282
f 167/26/273 111/8/283 172/7/281
f 111/8/283 167/26/273 110/25/274
f 166/13/267 170/29/276 171/33/280
f 170/29/276 166/13/267 168/27/272
f 174/64/284 157/66/286 158/67/285
f 157/66/286 174/64/284 131/65/287
f 103/75/288 175/77/290 102/78/289
f 175/77/290 103/75/288 176/76/291
f 169/28/275 176/76/291 170/29/276
f 176/76/291 169/28/275 175/77/290
f 131/65/287 132/80/292 157/66/286
f 132/80/292 133/74/293 157/66/286
f 158/67/285 171/33/280 174/64/284
f 171/33/280 158/67/285 165/34/279
f 176/76/291 131/65/287 174/64/284
f 131/65/287 176/76/291 103/75/288
f 177/58/294 169/28/275 173/44/282
f 169/28/275 177/58/294 175/77/290
f 175/77/290 101/57/295 102/78/289
f 101/57/295 175/77/290 177/58/294
f 170/29/276 174/64/284 171/33/280
f 174/64/284 170/29/276 176/76/291
