# Wavefront OBJ
# Created by fragMOTION 1.3.7
# http://www.fragmosoft.com

mtllib Bob_BulletVest.mtl
# 110 vertices
v 0.0891257 0.748853 -0.0330732
v 0.0379888 0.750465 -0.0489306
v 0.0450018 0.776482 -0.0257269
v 0.0937146 0.733845 -0.0335154
v 0.0965588 0.714352 -0.0321154
v 0.0537088 0.686171 -0.0653685
v 0.0446771 0.720541 -0.0588952
v 0.0954507 0.684929 -0.0232133
v 0.0441408 0.807996 0.038051
v 0.089561 0.773554 0.067085
v 0.0932745 0.77566 0.0269855
v 0.0421064 0.784298 0.0732343
v -0.00441792 0.688088 -0.076144
v 0.00194429 0.724915 -0.0652419
v 0.0457864 0.637193 0.0914406
v -0.0102391 0.680994 0.101544
v -0.00705477 0.639755 0.0963885
v 0.0490351 0.67898 0.0985572
v 0.0499192 0.595936 0.0837908
v 0.0808263 0.634428 0.0684751
v 0.0974191 0.639034 0.0369279
v 0.076988 0.595499 -0.0311192
v 0.0898759 0.646154 -0.0260559
v 0.0887 0.592366 0.0381143
v 0.0491114 0.649959 -0.0702556
v 0.0438627 0.595767 -0.0668973
v -0.0104507 0.65201 -0.0775422
v -0.014594 0.594554 -0.0686823
v 0.0897471 0.68269 0.0782774
v 0.06459 0.793184 -0.00450449
v 0.0472248 0.726717 0.0958305
v 0.098611 0.730801 0.0685274
v -0.0113859 0.723499 0.0955422
v -0.00619914 0.783118 0.0709629
v 0.100815 0.684761 0.0278587
v 0.0972224 0.682005 -0.0043748
v 0.104195 0.683693 0.0484568
v 0.0631452 0.814388 0.000488843
v 0.0458142 0.824026 0.0314609
v -0.00213618 0.810345 0.0447647
v -0.00173498 0.829626 0.0429572
v 0.0544915 0.804072 -0.0289743
v 0.0934816 0.774581 -0.00377542
v 0.00400952 0.767947 -0.0508081
v 0.00366046 0.752996 -0.0563668
v 0.0220303 0.7872 -0.0556007
v 0.0802683 0.539875 -0.030574
v 0.0383049 0.529995 -0.0647013
v 0.091441 0.54833 0.039997
v 0.054497 0.551939 0.0881002
v -0.0057744 0.5968 0.0936134
v -0.00149402 0.552553 0.100435
v -0.0162788 0.527962 -0.066791
v -0.0837627 0.767108 -0.04916
v -0.03147 0.755503 -0.0553479
v -0.091151 0.747975 -0.0507135
v -0.0380679 0.782957 -0.0334384
v -0.0973764 0.726547 -0.048311
v -0.061749 0.691421 -0.0690943
v -0.106324 0.693861 -0.0288003
v -0.042039 0.726552 -0.0658293
v -0.0452022 0.814049 0.0311584
v -0.0994009 0.78659 0.0502157
v -0.0536269 0.790152 0.0644292
v -0.0922696 0.795817 0.0103155
v -0.0615989 0.640949 0.0922885
v -0.0671422 0.68413 0.0953172
v -0.0587496 0.598176 0.0906264
v -0.0998397 0.641711 0.0662156
v -0.11409 0.646511 0.0382782
v -0.100121 0.599274 -0.0204547
v -0.104484 0.596897 0.0481663
v -0.10711 0.653044 -0.0245178
v -0.0683064 0.653805 -0.0683267
v -0.0725339 0.597885 -0.0585018
v -0.107325 0.691596 0.0703903
v -0.0579774 0.803724 -0.0151632
v -0.0684461 0.732817 0.0865382
v -0.114216 0.743756 0.0485171
v -0.114662 0.695372 0.0191849
v -0.10887 0.691718 -0.012223
v -0.119474 0.694318 0.0396795
v -0.0583762 0.82024 -0.0114592
v -0.0464918 0.828469 0.0223855
v -0.0452481 0.808885 -0.0387671
v -0.0870403 0.794394 -0.0207015
v -0.0104613 0.788695 -0.0587864
v -0.104968 0.542326 -0.0153161
v -0.0696168 0.531561 -0.0553899
v -0.103488 0.551158 0.0568153
v -0.0587644 0.553582 0.0978723
v 0.0328681 0.801281 0.029456
v 0.0557991 0.816208 -0.00253157
v 0.0442944 0.796319 -0.00341954
v 0.0430458 0.824811 0.0258255
v -0.000990029 0.803532 0.0352055
v -0.000945759 0.830262 0.0351947
v 0.050666 0.807407 -0.0263813
v 0.0321834 0.782856 -0.0243716
v 0.0203053 0.790169 -0.0527885
v 0.00385162 0.773823 -0.0460299
v -0.0341601 0.804568 0.0238637
v -0.0504393 0.821321 -0.0129768
v -0.0429322 0.828987 0.0176437
v -0.0405047 0.800372 -0.0104261
v -0.0412843 0.811247 -0.0396216
v -0.0265377 0.785213 -0.0287945
v -0.00583381 0.790562 -0.0574705
v 0.0388415 0.726217 0.0126696
v -0.0471375 0.73116 0.00606824
# 110 texture vertices
vt 0.601563 -0.296875
vt 0.534162 -0.294078
vt 0.535472 -0.313605
vt 0.601894 -0.316105
vt 0.601563 -0.339844
vt 0.542763 -0.342918
vt 0.555215 -0.387946
vt 0.608389 -0.388399
vt 0.748508 -0.241119
vt 0.6875 -0.25
vt 0.6875 -0.289063
vt 0.741758 -0.289667
vt 0.5 -0.343245
vt 0.5 -0.388388
vt 0.742679 -0.440898
vt 0.793174 -0.432759
vt 0.792969 -0.390625
vt 0.736903 -0.386603
vt 0.74349 -0.489198
vt 0.676576 -0.445632
vt 0.648851 -0.438873
vt 0.60058 -0.430677
vt 0.585419 -0.484573
vt 0.656886 -0.489677
vt 0.555713 -0.421962
vt 0.552312 -0.483688
vt 0.5 -0.421841
vt 0.499977 -0.485786
vt 0.701808 -0.384259
vt 0.720508 -0.227609
vt 0.735235 -0.344879
vt 0.697876 -0.334964
vt 0.792969 -0.347656
vt 0.792969 -0.285156
vt 0.648443 -0.382701
vt 0.622261 -0.393292
vt 0.662287 -0.378505
vt 0.75369 -0.201367
vt 0.722736 -0.195989
vt 0.792969 -0.25
vt 0.792969 -0.210938
vt 0.539143 -0.256664
vt 0.578125 -0.253906
vt 0.578125 -0.238281
vt 0.672019 -0.235886
vt 0.499984 -0.303083
vt 0.499961 -0.312454
vt 0.512887 -0.281261
vt 0.545507 -0.53198
vt 0.581596 -0.534299
vt 0.652345 -0.535473
vt 0.737898 -0.539347
vt 0.794546 -0.545
vt 0.793677 -0.491007
vt 0.589844 -0.285156
vt 0.5 -0.531429
vt 0.390625 -0.300781
vt 0.390625 -0.3125
vt 0.464551 -0.313621
vt 0.466049 -0.294444
vt 0.390625 -0.339844
vt 0.390625 -0.390625
vt 0.441406 -0.386719
vt 0.457237 -0.342918
vt 0.251888 -0.240488
vt 0.258242 -0.289667
vt 0.308594 -0.289063
vt 0.304688 -0.253906
vt 0.257248 -0.441028
vt 0.263127 -0.386519
vt 0.207031 -0.386719
vt 0.206863 -0.432722
vt 0.255919 -0.489763
vt 0.323654 -0.445713
vt 0.351124 -0.438771
vt 0.343247 -0.490221
vt 0.414533 -0.484669
vt 0.399355 -0.430717
vt 0.447688 -0.483723
vt 0.444288 -0.422053
vt 0.298267 -0.383802
vt 0.277344 -0.222656
vt 0.264487 -0.342416
vt 0.309028 -0.322232
vt 0.207031 -0.346557
vt 0.207031 -0.285156
vt 0.378504 -0.3934
vt 0.353022 -0.382599
vt 0.339587 -0.378392
vt 0.271908 -0.205958
vt 0.248414 -0.20131
vt 0.207031 -0.207031
vt 0.207031 -0.25
vt 0.46235 -0.256728
vt 0.414063 -0.238281
vt 0.414063 -0.253906
vt 0.316406 -0.230469
vt 0.487784 -0.278395
vt 0.419389 -0.534327
vt 0.454986 -0.531903
vt 0.342301 -0.540648
vt 0.240634 -0.543323
vt 0.206283 -0.491019
vt 0.206226 -0.543383
vt 0.410156 -0.273438
vt 0.72347 -0.196603
vt 0.487784 -0.278687
vt 0.486908 -0.278103
vt 0.649486 -0.324757
vt 0.348521 -0.336736
# 182 normals
vn 0.302449 0.380917 -0.86619
vn 0.249276 0.625917 -0.735617
vn 0.267767 0.43245 -0.859802
vn 0.383614 0.0808601 -0.919535
vn 0.573362 -0.045073 -0.806385
vn 0.304562 0.276125 -0.905653
vn 0.432012 0.117167 -0.88662
vn 0.846076 -0.114141 -0.509097
vn 0.302215 0.85253 0.394967
vn 0.552472 0.804801 0.0951824
vn 0.380503 0.545396 0.739424
vn 0.0950461 0.606684 0.789228
vn 0.0957415 0.319633 -0.940862
vn 0.0318062 0.172426 -0.976874
vn 0.334116 -0.0886477 0.930989
vn 0.0147936 -0.0832732 0.988933
vn -0.0382468 -0.0158732 0.992576
vn 0.262698 -0.0783143 0.954746
vn 0.471061 0.0565986 0.876646
vn 0.722531 -0.198631 0.653231
vn 0.967079 -0.207378 0.105778
vn 0.882334 -0.16103 -0.427837
vn 0.881479 -0.110888 -0.452671
vn 0.965664 -0.0898628 0.232083
vn 0.434103 -0.0705852 -0.889699
vn 0.421796 -0.107026 -0.897162
vn -0.0285666 -0.0486642 -0.991545
vn -0.0700411 -0.0953329 -0.990089
vn 0.683113 -0.134155 0.700605
vn 0.403775 0.799796 -0.401694
vn 0.185968 0.197817 0.960942
vn 0.554383 0.0880978 0.822752
vn -0.0666356 0.233778 0.968647
vn -0.0442438 0.538884 0.841205
vn 0.963912 -0.164155 -0.0928334
vn 0.983682 -0.0932551 -0.123996
vn 0.956991 -0.167027 0.219037
vn 0.471664 0.284671 0.830043
vn 0.656882 0.0995993 0.745299
vn 0.943819 -0.229526 0.237499
vn 0.894165 -0.402833 0.0401251
vn -0.0657979 0.337318 0.939089
vn -0.086233 0.178768 0.9758
vn 0.839444 -0.401053 -0.361981
vn 0.679204 -0.583687 -0.436904
vn 0.418956 0.800747 -0.419987
vn 0.0926489 0.51883 -0.845961
vn 0.106997 0.35127 -0.93014
vn 0.587425 -0.605277 -0.531283
vn 0.017873 -0.781485 -0.619385
vn 0.331929 -0.13889 -0.932254
vn 0.876609 -0.0236321 -0.479431
vn 0.962075 0.0957547 0.255075
vn 0.513726 0.212839 0.830653
vn 0.0866281 0.268277 0.958941
vn 0.0494101 0.0903273 0.989294
vn -0.0134949 0.759111 0.650821
vn -0.0870406 -0.128947 -0.987148
vn -0.0468917 0.428365 -0.898083
vn -0.19162 0.127232 -0.97316
vn -0.0327449 0.458745 -0.887864
vn 0.000205133 0.650576 -0.758709
vn -0.437102 0.0218105 -0.895657
vn -0.826205 -0.0403393 -0.555607
vn -0.362573 0.153201 -0.912312
vn -0.115408 0.308515 -0.94083
vn -0.242966 0.884337 0.349583
vn -0.163034 0.622542 0.765414
vn -0.422506 0.586138 0.666696
vn -0.354969 0.905472 0.0152033
vn -0.322159 -0.0656896 0.936171
vn -0.319031 -0.0525404 0.938526
vn -0.353304 0.0735903 0.928502
vn -0.752381 -0.139161 0.634785
vn -0.980021 -0.138509 0.118285
vn -0.93941 -0.0451823 0.331208
vn -0.934406 -0.0721828 -0.343326
vn -0.901576 -0.0987323 -0.413983
vn -0.551147 -0.0893161 -0.826985
vn -0.471113 -0.040935 -0.874828
vn -0.743198 -0.0751996 0.638766
vn -0.176063 0.856775 -0.452793
vn -0.316719 0.212289 0.917858
vn -0.679755 0.153594 0.701738
vn -0.976842 -0.00177456 -0.199129
vn -0.967319 -0.0713125 -0.17524
vn -0.98373 -0.0738623 0.143445
vn -0.567729 0.346456 0.73021
vn -0.944343 -0.239592 -0.143985
vn -0.98895 -0.136186 0.0473782
vn -0.775186 0.168783 0.604483
vn -0.789775 -0.32229 -0.519585
vn -0.682266 -0.470372 -0.558855
vn -0.135942 0.870002 -0.471098
vn -0.530267 -0.559208 -0.63292
vn -0.94636 -0.00380207 -0.322565
vn -0.490531 -0.12696 -0.861293
vn -0.90102 0.122779 0.415822
vn -0.357546 0.225477 0.905826
vn -0.575453 -0.244692 -0.778337
vn -0.996549 0.0499568 0.0509961
vn -0.994225 0.0054852 -0.106001
vn -0.58364 -0.203838 -0.783415
vn 0.0783846 -0.290427 -0.949244
vn 0.0580467 -0.312928 -0.944219
vn -0.851751 0.238552 0.462343
vn -0.794933 0.307322 0.518583
vn -0.721498 0.389498 0.567753
vn -0.0442181 0.530692 0.843176
vn 0.668433 -0.305784 -0.674531
vn 0.701223 -0.265686 -0.657089
vn 0.991826 -0.0901155 0.0892634
vn 0.975147 -0.0443856 0.214021
vn 0.766444 0.161536 0.619951
vn 0.732525 0.247487 0.631383
vn 0.634647 0.326705 0.697566
vn 0.909891 0.285198 -0.295547
vn 0.910191 0.284266 -0.295661
vn 0.914502 0.300452 -0.264859
vn 0.311827 -0.108818 -0.939385
vn -0.0472384 0.607938 -0.787653
vn 0.195047 0.790985 -0.572502
vn -0.0726816 0.88316 -0.454813
vn -0.160532 0.964803 -0.18882
vn -0.0801153 0.989057 0.0839422
vn 0.0400722 0.991355 0.0841547
vn 0.155075 0.977743 0.107008
vn 0.283633 0.943433 -0.145196
vn 0.241238 0.868071 -0.423927
vn -0.00605712 0.801124 -0.591683
vn 0.166195 0.724492 -0.662563
vn -0.59729 0.341383 -0.72348
vn -0.818964 0.37836 -0.43019
vn -0.824629 0.361848 -0.432425
vn -0.82498 0.361948 -0.43161
vn -0.6318 0.494549 -0.594351
vn 0.991979 0.10352 0.0311116
vn 0.648881 -0.729249 -0.0471875
vn 0.674641 -0.685467 0.259323
vn 0.68278 -0.289177 0.658483
vn 0.644108 0.631153 -0.426765
vn 0.658181 0.191712 -0.712376
vn 0.78405 -0.298425 -0.501566
vn 0.603123 0.796053 -0.0386067
vn 0.576404 0.798684 -0.0640246
vn 0.620082 0.116843 0.773543
vn 0.706535 0.575641 0.410551
vn 0.621821 0.1968 0.751162
vn -0.475069 0.267971 -0.832569
vn -0.527676 0.693373 -0.476911
vn -0.954664 0.248781 -0.162554
vn -0.469543 0.85466 -0.104921
vn -0.501504 0.853928 -0.0795589
vn -0.664662 0.63544 0.373731
vn -0.711924 0.264268 0.629623
vn -0.734282 0.2274 0.639429
vn -0.845473 -0.121827 0.498703
vn -0.857925 -0.498662 0.110597
vn -0.779738 -0.552343 -0.203312
vn -0.711344 -0.179791 -0.662118
vn 0.161064 -0.981892 0.0924861
vn 0.157867 -0.978214 0.0789716
vn 0.160759 -0.982119 0.0889759
vn 0.0868047 -0.986399 0.136017
vn 0.0863853 -0.986861 0.131234
vn 0.0860751 -0.987203 0.127697
vn 0.0213758 -0.988911 0.143677
vn 0.0206132 -0.989761 0.134981
vn 0.0263042 -0.988625 0.144823
vn 0.0255416 -0.989489 0.13613
vn 0.0259482 -0.989028 0.140765
vn -0.0295683 -0.987815 0.149644
vn -0.0299244 -0.988218 0.145585
vn -0.0303309 -0.988678 0.140951
vn -0.0249497 -0.988273 0.147325
vn -0.025682 -0.989089 0.138975
vn -0.091012 -0.984288 0.146539
vn -0.0905926 -0.983826 0.151322
vn -0.0913221 -0.984629 0.143003
vn -0.167698 -0.977471 0.119533
vn -0.17105 -0.977074 0.121141
vn -0.171357 -0.977302 0.11763
usemtl _07_-_Defaulteee
g Bob_BulletVest
s off
f 1/1/1 2/3/3 3/2/2
f 2/3/3 1/1/1 4/4/4
f 5/5/5 6/7/7 7/6/6
f 6/7/7 5/5/5 8/8/8
f 9/9/9 10/11/11 11/10/10
f 10/11/11 9/9/9 12/12/12
f 7/6/6 13/14/14 14/13/13
f 13/14/14 7/6/6 6/7/7
f 15/15/15 16/17/17 17/16/16
f 16/17/17 15/15/15 18/18/18
f 19/19/19 20/20/20 15/15/15
f 21/21/21 22/23/23 23/22/22
f 22/23/23 21/21/21 24/24/24
f 22/23/23 25/25/25 23/22/22
f 25/25/25 22/23/23 26/26/26
f 27/27/27 26/26/26 28/28/28
f 26/26/26 27/27/27 25/25/25
f 20/20/20 18/18/18 15/15/15
f 18/18/18 20/20/20 29/29/29
f 11/10/10 30/30/30 9/9/9
f 31/31/31 10/11/11 12/12/12
f 10/11/11 31/31/31 32/32/32
f 33/33/33 12/12/12 34/34/34
f 12/12/12 33/33/33 31/31/31
f 23/22/22 35/35/35 21/21/21
f 35/35/35 23/22/22 36/36/36
f 8/8/8 36/36/36 23/22/22
f 35/35/35 37/37/37 21/21/21
f 9/9/38 38/39/40 39/38/39
f 38/39/40 9/9/38 30/30/41
f 39/38/39 40/40/42 9/9/38
f 40/40/42 39/38/39 41/41/43
f 42/42/44 30/43/41 3/2/45
f 30/43/41 42/42/44 38/44/40
f 30/30/30 11/10/10 43/45/46
f 44/46/47 2/3/3 45/47/48
f 2/3/3 44/46/47 3/2/2
f 46/48/49 3/2/45 44/46/50
f 3/2/45 46/48/49 42/42/44
f 26/26/26 47/50/52 48/49/51
f 47/50/52 26/26/26 22/23/23
f 22/23/23 49/51/53 47/50/52
f 49/51/53 22/23/23 24/24/24
f 49/51/53 19/19/19 50/52/54
f 19/19/19 49/51/53 24/24/24
f 50/52/54 51/54/56 52/53/55
f 51/54/56 50/52/54 19/19/19
f 30/43/30 43/55/46 3/2/2
f 3/2/2 43/55/46 1/1/1
f 24/24/24 21/21/21 20/20/20
f 21/21/21 29/29/29 20/20/20
f 29/29/29 21/21/21 37/37/37
f 20/20/20 19/19/19 24/24/24
f 40/40/57 12/12/12 9/9/9
f 18/18/18 33/33/33 16/17/17
f 33/33/33 18/18/18 31/31/31
f 31/31/31 29/29/29 32/32/32
f 29/29/29 31/31/31 18/18/18
f 37/37/37 32/32/32 29/29/29
f 6/7/7 27/27/27 13/14/14
f 27/27/27 6/7/7 25/25/25
f 25/25/25 8/8/8 23/22/22
f 8/8/8 25/25/25 6/7/7
f 7/6/6 4/4/4 5/5/5
f 4/4/4 7/6/6 2/3/3
f 2/3/3 14/13/13 45/47/48
f 14/13/13 2/3/3 7/6/6
f 17/16/16 19/19/19 15/15/15
f 19/19/19 17/16/16 51/54/56
f 40/40/57 34/34/34 12/12/12
f 48/49/51 28/28/28 26/26/26
f 28/28/28 48/49/51 53/56/58
f 54/57/59 55/59/61 56/58/60
f 55/59/61 54/57/59 57/60/62
f 58/61/63 59/63/65 60/62/64
f 59/63/65 58/61/63 61/64/66
f 62/65/67 63/67/69 64/66/68
f 63/67/69 62/65/67 65/68/70
f 61/64/66 13/14/14 59/63/65
f 13/14/14 61/64/66 14/13/13
f 66/69/71 16/71/17 67/70/72
f 16/71/17 66/69/71 17/72/16
f 68/73/73 66/69/71 69/74/74
f 70/75/75 71/77/77 72/76/76
f 71/77/77 70/75/75 73/78/78
f 71/77/77 74/80/80 75/79/79
f 74/80/80 71/77/77 73/78/78
f 27/27/27 75/79/79 74/80/80
f 75/79/79 27/27/27 28/28/28
f 69/74/74 67/70/72 76/81/81
f 67/70/72 69/74/74 66/69/71
f 65/68/70 62/65/67 77/82/82
f 78/83/83 63/67/69 79/84/84
f 63/67/69 78/83/83 64/66/68
f 33/85/33 64/66/68 78/83/83
f 64/66/68 33/85/33 34/86/34
f 73/78/78 80/88/86 81/87/85
f 80/88/86 73/78/78 70/75/75
f 60/62/64 73/78/78 81/87/85
f 80/88/86 70/75/75 82/89/87
f 62/65/88 83/90/90 77/82/89
f 83/90/90 62/65/88 84/91/91
f 84/91/91 40/93/42 41/92/43
f 40/93/42 84/91/91 62/65/88
f 85/94/92 77/96/89 83/95/90
f 77/96/89 85/94/92 57/60/93
f 77/82/82 86/97/94 65/68/70
f 44/46/47 55/59/61 57/60/62
f 55/59/61 44/46/47 45/47/48
f 87/98/95 57/60/93 85/94/92
f 57/60/93 87/98/95 44/46/50
f 75/79/79 88/99/96 71/77/77
f 88/99/96 75/79/79 89/100/97
f 71/77/77 90/101/98 72/76/76
f 90/101/98 71/77/77 88/99/96
f 90/101/98 68/73/73 72/76/76
f 68/73/73 90/101/98 91/102/99
f 91/102/99 51/103/56 68/73/73
f 51/103/56 91/102/99 52/104/55
f 77/96/82 57/60/62 86/105/94
f 57/60/62 54/57/59 86/105/94
f 72/76/76 69/74/74 70/75/75
f 70/75/75 76/81/81 82/89/87
f 76/81/81 70/75/75 69/74/74
f 69/74/74 72/76/76 68/73/73
f 40/93/57 62/65/67 64/66/68
f 67/70/72 33/85/33 78/83/83
f 33/85/33 67/70/72 16/71/17
f 78/83/83 76/81/81 67/70/72
f 76/81/81 78/83/83 79/84/84
f 79/84/84 82/89/87 76/81/81
f 59/63/65 27/27/27 74/80/80
f 27/27/27 59/63/65 13/14/14
f 74/80/80 60/62/64 59/63/65
f 60/62/64 74/80/80 73/78/78
f 61/64/66 56/58/60 55/59/61
f 56/58/60 61/64/66 58/61/63
f 55/59/61 14/13/13 61/64/66
f 14/13/13 55/59/61 45/47/48
f 17/72/16 68/73/73 51/103/56
f 68/73/73 17/72/16 66/69/71
f 40/93/57 64/66/68 34/86/34
f 28/28/28 89/100/97 75/79/79
f 89/100/97 28/28/28 53/56/58
f 92/9/100 93/106/102 94/30/101
f 93/106/102 92/9/100 95/38/103
f 95/38/103 96/40/105 97/41/104
f 96/40/105 95/38/103 92/9/100
f 98/42/106 94/43/101 93/44/102
f 94/43/101 98/42/106 99/48/107
f 100/48/108 99/48/107 98/42/106
f 99/48/107 100/48/108 101/46/109
f 102/65/110 103/90/112 104/91/111
f 103/90/112 102/65/110 105/82/113
f 104/91/111 96/93/105 102/65/110
f 96/93/105 104/91/111 97/92/104
f 106/94/114 105/96/113 107/60/115
f 105/96/113 106/94/114 103/95/112
f 107/60/115 108/98/116 106/94/114
f 108/98/116 107/60/115 101/46/109
f 44/46/117 108/107/119 101/46/118
f 108/107/119 44/46/117 87/46/120
f 87/98/121 106/94/122 108/108/122
f 106/94/122 87/98/121 85/94/122
f 85/94/123 103/95/123 106/94/123
f 103/95/123 85/94/123 83/95/123
f 83/90/124 104/91/124 103/90/124
f 104/91/124 83/90/124 84/91/124
f 84/91/125 97/92/125 104/91/125
f 97/92/125 84/91/125 41/92/126
f 41/38/126 95/38/127 97/41/127
f 95/38/127 41/38/126 39/38/127
f 39/38/128 93/106/128 95/38/128
f 93/106/128 39/38/128 38/106/128
f 38/44/129 98/42/129 93/44/129
f 98/42/129 38/44/129 42/42/129
f 42/42/130 100/48/130 98/42/130
f 100/48/130 42/42/130 46/48/131
f 46/48/132 101/46/134 100/48/133
f 101/46/134 46/48/136 44/46/135
f 109/109/137 43/45/139 11/10/138
f 43/45/139 109/109/137 1/1/140
f 37/37/141 109/109/137 32/32/142
f 109/109/137 10/11/143 32/32/142
f 10/11/143 109/109/137 11/10/138
f 36/36/144 109/109/137 35/35/145
f 1/1/140 109/109/137 4/4/146
f 109/109/137 36/36/144 8/8/147
f 4/4/146 109/109/137 5/5/148
f 109/109/137 8/8/147 5/5/148
f 109/109/137 37/37/141 35/35/145
f 79/84/149 110/110/151 82/89/150
f 80/88/152 110/110/151 81/87/153
f 81/87/153 110/110/151 60/62/154
f 58/61/155 110/110/151 56/58/156
f 110/110/151 86/97/158 54/57/157
f 110/110/151 65/68/159 86/97/158
f 110/110/151 63/67/160 65/68/159
f 63/67/160 110/110/151 79/84/149
f 60/62/154 110/110/151 58/61/155
f 56/58/156 110/110/151 54/57/157
f 82/89/150 110/110/151 80/88/152
f 49/51/161 48/49/163 47/50/162
f 50/52/164 48/49/166 49/51/165
f 52/53/167 48/49/168 50/52/167
f 52/53/169 53/56/171 48/49/170
f 52/53/172 89/100/174 53/56/173
f 91/102/175 89/100/176 52/53/175
f 90/101/177 89/100/179 91/102/178
f 88/99/180 89/100/182 90/101/181
