# Wavefront OBJ
# Created by fragMOTION 1.3.7
# http://www.fragmosoft.com

mtllib Bob_CoatArmy.mtl
# 193 vertices
v 0.0731174 0.773583 -0.0328453
v 0.0496961 0.734495 -0.0532752
v 0.0375958 0.793457 -0.0193859
v 0.0854553 0.751799 -0.036894
v 0.0964864 0.73426 -0.0368926
v 0.0654068 0.699803 -0.0579886
v 0.105859 0.700701 -0.0211872
v 0.0371635 0.818021 0.0303006
v 0.0843429 0.794195 0.0574363
v 0.0774429 0.802396 0.021451
v 0.051161 0.796933 0.0637194
v 0.10132 0.559977 0.0503994
v 0.0542818 0.571569 0.0848813
v 0.0499873 0.562129 0.0870561
v 0.0983848 0.568454 0.0461879
v 0.0944076 0.558552 -0.0178044
v 0.105251 0.533604 0.00352168
v 0.0593037 0.548417 -0.0572673
v 0.0876447 0.504894 -0.0313628
v 0.0521329 0.495149 -0.0426821
v 0.00820369 0.697882 -0.0675614
v 0.00793322 0.570966 0.0842713
v 0.0078736 0.559924 0.0883583
v 0.0598125 0.655567 0.0843949
v 0.00507822 0.695767 0.0907248
v 0.00561861 0.656037 0.0879983
v 0.064152 0.698229 0.0872859
v 0.118155 0.457195 0.00554366
v 0.111719 0.505435 0.0153193
v 0.0669101 0.466943 -0.0511088
v 0.111062 0.505355 0.0779329
v 0.0521076 0.514952 0.107712
v 0.115219 0.458535 0.0798216
v 0.0479296 0.46683 0.115813
v 0.0608736 0.611403 0.0813017
v 0.0951405 0.654039 0.0639746
v 0.109448 0.659948 0.0415829
v 0.0913174 0.611632 -0.0197733
v 0.103449 0.665375 -0.0181304
v 0.10076 0.608261 0.0389515
v 0.0640709 0.665384 -0.05345
v 0.0634843 0.6094 -0.0529056
v 0.00812935 0.664555 -0.0616448
v 0.00947197 0.604438 -0.0635231
v 0.137591 0.725077 -0.0253006
v 0.154045 0.680479 -0.00543349
v 0.0727328 0.725526 -0.0225259
v 0.0967932 0.623582 0.0151807
v 0.0825237 0.667814 -0.0053182
v 0.157315 0.634128 0.0153709
v 0.0678208 0.737154 0.0465534
v 0.078477 0.691432 0.0698565
v 0.0936412 0.637857 0.080497
v 0.0826147 0.737801 0.0583956
v 0.149829 0.704475 0.0696597
v 0.13348 0.749134 0.0513198
v 0.153793 0.648017 0.0807686
v 0.147093 0.737752 0.00933499
v 0.164325 0.615405 0.00784485
v 0.114267 0.541828 0.00402885
v 0.0954135 0.600833 0.00834142
v 0.162101 0.554087 0.00324159
v 0.115764 0.504933 -0.00235801
v 0.166079 0.509687 -0.00270509
v 0.124613 0.540719 0.0736038
v 0.0955729 0.599005 0.0836995
v 0.127652 0.495185 0.0654414
v 0.162384 0.551147 0.0721819
v 0.16409 0.613878 0.0834667
v 0.167361 0.499076 0.061474
v 0.106068 0.799603 0.0257299
v 0.112097 0.800763 -0.00838261
v 0.0738982 0.798371 -0.00718546
v 0.105033 0.701869 0.0686084
v 0.050058 0.809796 -0.00366527
v 0.106262 0.778393 -0.0342017
v 0.107131 0.74512 -0.0339196
v 0.105119 0.750797 0.0633013
v 0.0637473 0.740501 0.082759
v 0.094184 0.755787 0.058713
v 0.00411489 0.73503 0.0849695
v 0.00372014 0.792896 0.0649026
v 0.108356 0.718871 0.00233899
v 0.10679 0.737719 0.0465661
v 0.112114 0.701221 0.0281285
v 0.109148 0.69763 -0.00432234
v 0.115522 0.7022 0.0471372
v 0.0100863 0.54878 -0.0624456
v 0.00876678 0.484581 -0.0516956
v 0.00625563 0.514845 0.10737
v 0.00328025 0.469707 0.115849
v 0.00786197 0.612015 0.0828187
v 0.0040325 0.81781 0.0371389
v 0.105827 0.72472 0.0170432
v -0.0606562 0.772926 -0.0359165
v -0.0351392 0.733251 -0.0551929
v -0.072706 0.750659 -0.0405158
v -0.0263252 0.792498 -0.0208237
v -0.082705 0.731992 -0.0405391
v -0.049348 0.698438 -0.060388
v -0.0912317 0.698356 -0.0253081
v -0.0288498 0.817018 0.0288195
v -0.0764932 0.792216 0.0539072
v -0.0437167 0.795542 0.0615747
v -0.0676839 0.801434 0.0187536
v -0.0842194 0.56646 0.0463527
v -0.0386083 0.57439 0.0829025
v -0.0806583 0.57452 0.0423067
v -0.0340891 0.565347 0.0851951
v -0.0747796 0.564432 -0.0215515
v -0.0868659 0.542642 -0.000968549
v -0.038034 0.552489 -0.0597517
v -0.0706351 0.512229 -0.0359047
v -0.0346875 0.498334 -0.049207
v -0.0484185 0.654654 0.0823654
v -0.0538335 0.696826 0.084819
v -0.105536 0.462676 0.00174434
v -0.0510934 0.469066 -0.0542259
v -0.0964915 0.515229 0.0104529
v -0.0984456 0.514167 0.0760605
v -0.0394932 0.51921 0.106069
v -0.105257 0.46536 0.0804009
v -0.0407705 0.470318 0.113668
v -0.0451844 0.613189 0.0791541
v -0.0830353 0.652535 0.0606334
v -0.0965911 0.658209 0.0377192
v -0.0739658 0.612639 -0.0228951
v -0.0834572 0.611402 0.0352383
v -0.0886004 0.663754 -0.0217317
v -0.0477194 0.664525 -0.0555854
v -0.0467885 0.609138 -0.0548943
v -0.125692 0.725264 -0.0308912
v -0.0640355 0.725318 -0.0256031
v -0.142969 0.680823 -0.0113748
v -0.0871801 0.620547 0.0118899
v -0.147535 0.631805 0.00973892
v -0.0715361 0.667933 -0.00873599
v -0.0583924 0.737495 0.0432568
v -0.0699962 0.691928 0.0664122
v -0.0851233 0.641239 0.0754612
v -0.0735823 0.738249 0.0545799
v -0.141255 0.705196 0.0636957
v -0.124136 0.749707 0.0457018
v -0.145108 0.65216 0.0734189
v -0.136337 0.73815 0.00333223
v -0.155536 0.608895 0.0066598
v -0.107362 0.534873 0.0182332
v -0.154865 0.54788 0.0145817
v -0.0870215 0.593051 0.0106706
v -0.108431 0.495647 0.0199408
v -0.159406 0.501789 0.0187893
v -0.117959 0.548132 0.0865037
v -0.0874931 0.606237 0.0846734
v -0.125045 0.505214 0.0849662
v -0.155446 0.558974 0.0826852
v -0.155619 0.62238 0.0809132
v -0.160338 0.508353 0.0806998
v -0.0957637 0.799803 0.0210184
v -0.100165 0.800976 -0.0133694
v -0.0625717 0.797984 -0.0103281
v -0.0939822 0.699502 0.0644472
v -0.0399748 0.808418 -0.00568191
v -0.0931648 0.778179 -0.038968
v -0.0946246 0.745582 -0.0381484
v -0.096364 0.748566 0.0587089
v -0.0854973 0.755551 0.0541677
v -0.0554915 0.738753 0.0800637
v -0.0964791 0.716746 -0.00208124
v -0.0973375 0.735959 0.0420515
v -0.0993321 0.698706 0.0237074
v -0.0952778 0.695198 -0.00859664
v -0.103613 0.699593 0.0425553
v -0.0948225 0.722848 0.0128736
v -0.00503378 0.460489 -0.0537904
v 0.00860672 0.461675 -0.0552913
v 0.0208414 0.460519 -0.0513662
v 0.0753965 0.798507 -0.0124092
v 0.113054 0.806412 0.00115199
v 0.113088 0.802999 -0.0133755
v 0.0753622 0.80192 0.00211831
v 0.0749674 0.794717 -0.0115197
v 0.112659 0.799209 -0.0124861
v 0.112625 0.802621 0.00204142
v 0.0749332 0.79813 0.00300775
v -0.0635094 0.798371 -0.0157462
v -0.101694 0.806583 -0.00395593
v -0.0641256 0.801786 -0.00123229
v -0.101078 0.803168 -0.0184698
v -0.0631531 0.794577 -0.0148384
v -0.100721 0.799374 -0.0175621
v -0.101337 0.802789 -0.00304816
v -0.0637692 0.797992 -0.000324527
v 0.00579723 0.745109 0.00400716
# 245 texture vertices
vt 0.603976 -0.300641
vt 0.529669 -0.295028
vt 0.545866 -0.339287
vt 0.607193 -0.314765
vt 0.606713 -0.341151
vt 0.557679 -0.388221
vt 0.608641 -0.390579
vt 0.752331 -0.240096
vt 0.695102 -0.256256
vt 0.69064 -0.291937
vt 0.741758 -0.289667
vt 0.654361 -0.548598
vt 0.743748 -0.54723
vt 0.741421 -0.533909
vt 0.651573 -0.534998
vt 0.57922 -0.533981
vt 0.617274 -0.557917
vt 0.542595 -0.531789
vt 0.538974 -0.574682
vt 0.576694 -0.571959
vt 0.49967 -0.386123
vt 0.792236 -0.546487
vt 0.792263 -0.531893
vt 0.737049 -0.443036
vt 0.792721 -0.437319
vt 0.792944 -0.388496
vt 0.733702 -0.387537
vt 0.615985 -0.617059
vt 0.621698 -0.580619
vt 0.571245 -0.615743
vt 0.676517 -0.585315
vt 0.743308 -0.578495
vt 0.681407 -0.611943
vt 0.741628 -0.604466
vt 0.740751 -0.490247
vt 0.670075 -0.445485
vt 0.64863 -0.437634
vt 0.60213 -0.430189
vt 0.585056 -0.484302
vt 0.652465 -0.490356
vt 0.55797 -0.421974
vt 0.551735 -0.483643
vt 0.5 -0.421841
vt 0.499977 -0.485786
vt 0.86076 -0.111948
vt 0.843231 -0.111031
vt 0.86655 -0.170343
vt 0.841544 -0.177954
vt 0.842416 -0.253649
vt 0.864913 -0.245066
vt 0.925985 -0.112119
vt 0.927103 -0.159317
vt 0.954276 -0.147803
vt 0.926386 -0.225606
vt 0.948863 -0.233503
vt 0.912585 -0.119896
vt 0.899126 -0.115994
vt 0.891727 -0.16141
vt 0.893098 -0.233857
vt 0.885675 -0.117033
vt 0.864821 -0.288259
vt 0.844277 -0.292554
vt 0.847931 -0.39456
vt 0.866639 -0.393311
vt 0.848023 -0.457371
vt 0.863941 -0.456587
vt 0.949963 -0.277245
vt 0.92342 -0.27387
vt 0.913602 -0.368504
vt 0.953838 -0.381233
vt 0.906609 -0.451595
vt 0.949085 -0.455732
vt 0.8935 -0.278527
vt 0.890682 -0.381986
vt 0.885541 -0.453016
vt 0.897534 -0.059442
vt 0.886667 -0.065151
vt 0.899981 -0.024266
vt 0.88451 -0.024361
vt 0.696239 -0.383487
vt 0.725719 -0.226605
vt 0.86566 -0.066431
vt 0.867962 -0.024353
vt 0.856743 -0.024579
vt 0.854629 -0.084885
vt 0.701421 -0.329308
vt 0.732649 -0.332749
vt 0.692811 -0.310135
vt 0.792513 -0.341719
vt 0.792365 -0.28706
vt 0.911263 -0.059194
vt 0.910251 -0.082896
vt 0.935782 -0.047049
vt 0.924806 -0.080877
vt 0.953871 -0.104738
vt 0.647809 -0.384287
vt 0.621985 -0.395149
vt 0.950466 -0.024372
vt 0.660687 -0.378998
vt 0.681759 -0.232972
vt 0.5 -0.531429
vt 0.5 -0.577819
vt 0.792659 -0.574519
vt 0.79212 -0.58899
vt 0.793114 -0.492058
vt 0.581168 -0.257534
vt 0.585163 -0.277191
vt 0.6743 -0.332125
vt 0.792037 -0.252309
vt 0.641807 -0.349591
vt 0.625855 -0.35017
vt 0.847256 -0.024642
vt 0.922098 -0.058954
vt 0.396024 -0.300641
vt 0.392807 -0.314765
vt 0.452732 -0.34259
vt 0.470331 -0.295028
vt 0.393287 -0.341151
vt 0.391359 -0.390579
vt 0.442321 -0.388221
vt 0.247669 -0.240096
vt 0.258242 -0.289667
vt 0.30936 -0.291937
vt 0.304898 -0.256256
vt 0.345639 -0.548598
vt 0.348427 -0.534998
vt 0.258546 -0.533889
vt 0.25662 -0.546901
vt 0.42078 -0.533981
vt 0.382726 -0.557917
vt 0.457405 -0.531789
vt 0.423306 -0.571959
vt 0.461026 -0.574682
vt 0.207833 -0.531885
vt 0.207867 -0.546481
vt 0.262951 -0.443036
vt 0.266298 -0.387537
vt 0.207056 -0.388496
vt 0.207279 -0.437319
vt 0.383944 -0.61712
vt 0.428001 -0.617029
vt 0.378302 -0.580619
vt 0.256714 -0.578483
vt 0.323528 -0.585417
vt 0.25889 -0.605502
vt 0.318878 -0.611987
vt 0.258924 -0.490526
vt 0.329925 -0.445485
vt 0.35137 -0.437634
vt 0.347535 -0.490356
vt 0.414944 -0.484302
vt 0.39787 -0.430189
vt 0.448265 -0.483643
vt 0.44203 -0.421974
vt 0.13924 -0.111948
vt 0.13345 -0.170343
vt 0.156769 -0.111031
vt 0.135087 -0.245066
vt 0.157584 -0.253649
vt 0.158456 -0.177954
vt 0.074015 -0.112119
vt 0.045724 -0.147803
vt 0.072897 -0.159317
vt 0.051136 -0.233503
vt 0.073614 -0.225606
vt 0.087415 -0.119896
vt 0.108273 -0.16141
vt 0.100874 -0.115994
vt 0.106902 -0.233857
vt 0.114325 -0.117033
vt 0.135179 -0.288259
vt 0.133361 -0.393311
vt 0.152069 -0.39456
vt 0.155723 -0.292554
vt 0.136059 -0.456587
vt 0.151977 -0.457371
vt 0.050037 -0.277245
vt 0.046162 -0.381233
vt 0.086398 -0.368504
vt 0.07658 -0.27387
vt 0.050915 -0.455732
vt 0.093391 -0.451595
vt 0.109318 -0.381986
vt 0.1065 -0.278527
vt 0.114459 -0.453016
vt 0.102466 -0.059442
vt 0.113333 -0.065151
vt 0.11549 -0.024361
vt 0.100019 -0.024266
vt 0.303761 -0.383487
vt 0.274281 -0.226605
vt 0.13434 -0.066431
vt 0.145371 -0.084885
vt 0.143257 -0.024579
vt 0.132038 -0.024353
vt 0.298579 -0.329308
vt 0.307189 -0.310135
vt 0.267351 -0.332749
vt 0.207487 -0.341719
vt 0.207256 -0.296586
vt 0.088737 -0.059194
vt 0.089749 -0.082896
vt 0.064218 -0.047049
vt 0.046129 -0.104738
vt 0.075194 -0.080877
vt 0.378015 -0.395149
vt 0.352191 -0.384287
vt 0.049534 -0.024372
vt 0.339313 -0.378998
vt 0.318241 -0.232972
vt 0.207375 -0.57452
vt 0.207578 -0.593743
vt 0.206849 -0.492067
vt 0.418832 -0.257534
vt 0.414837 -0.277191
vt 0.3257 -0.332125
vt 0.207963 -0.252309
vt 0.358193 -0.349591
vt 0.374145 -0.35017
vt 0.152744 -0.024642
vt 0.077902 -0.058954
vt 0.069814 -0.639822
vt 0.056374 -0.678287
vt 0.098382 -0.679096
vt 0.113515 -0.679847
vt 0.113693 -0.639822
vt 0.124073 -0.679816
vt 0.153175 -0.639822
vt 0.170937 -0.679892
vt 0.990404 -0.274404
vt 0.990327 -0.202274
vt 0.963328 -0.202274
vt 0.96325 -0.274404
vt 0.993625 -0.278556
vt 0.993508 -0.199855
vt 0.960146 -0.199855
vt 0.96003 -0.278556
vt 0.005161 -0.279598
vt 0.032315 -0.279598
vt 0.032238 -0.207468
vt 0.005239 -0.207468
vt 0.001941 -0.28375
vt 0.002057 -0.205048
vt 0.035419 -0.205048
vt 0.035536 -0.28375
# 227 normals
vn -0.010749 0.479178 -0.876079
vn 0.0137006 0.589926 -0.806544
vn 0.124508 0.334002 -0.934313
vn 0.152488 0.131649 -0.979248
vn 0.467851 -0.0956838 -0.863284
vn 0.40312 0.0318398 -0.90592
vn 0.850904 0.0172256 -0.512084
vn 0.215454 0.921829 0.319304
vn 0.227916 0.920928 0.144116
vn 0.229248 0.619541 0.743793
vn 0.157845 0.650215 0.743172
vn 0.862025 0.334912 0.37619
vn 0.236223 0.391911 0.887734
vn 0.37566 0.196227 0.90243
vn 0.918753 0.154227 0.357997
vn 0.899502 -0.00513823 -0.429494
vn 0.963051 0.133818 -0.233722
vn 0.430876 -0.0757337 -0.893703
vn 0.36071 0.0447033 -0.84615
vn 0.733649 -0.024079 -0.664703
vn 0.0190125 0.0878372 -0.987844
vn -0.00510827 0.381498 0.923314
vn -0.0122616 0.248154 0.965833
vn 0.271886 -0.0614695 0.948947
vn -0.016548 -0.0443649 0.987306
vn -0.0197123 0.00580338 0.991938
vn 0.248195 -0.0264778 0.960551
vn 0.942325 0.0667095 -0.311893
vn 0.964598 0.0891112 -0.248212
vn 0.545892 0.134248 -0.804353
vn 0.809067 0.24575 0.500128
vn 0.225907 0.314828 0.898602
vn 0.821008 0.105172 0.51144
vn 0.229547 0.0002915 0.909921
vn 0.382167 0.0124389 0.916606
vn 0.698033 -0.178581 0.678707
vn 0.958974 -0.192581 0.156235
vn 0.879401 -0.133508 -0.434135
vn 0.889587 -0.131299 -0.419143
vn 0.940204 -0.145234 0.287152
vn 0.439376 -0.0930084 -0.880825
vn 0.477846 -0.0702463 -0.864309
vn 0.016701 -0.0732391 -0.986137
vn 0.0169432 -0.0431645 -0.991356
vn 0.540071 -0.196996 -0.81824
vn -0.679096 -0.336935 -0.652154
vn 0.741979 -0.15656 -0.651886
vn -0.644511 -0.393652 -0.655473
vn -0.695048 -0.149645 -0.697824
vn 0.716197 0.0964472 -0.687578
vn -0.890111 -0.0669795 0.450794
vn -0.694244 0.0082923 0.719692
vn -0.708191 -0.041418 0.701024
vn -0.170776 0.196761 0.965464
vn 0.576195 0.256866 0.7759
vn 0.647968 0.280046 0.708317
vn 0.664502 0.194146 0.716046
vn 0.994003 0.10314 -0.0363347
vn 0.694395 0.205573 -0.689605
vn -0.73949 -0.0459246 -0.6716
vn -0.731399 -0.0816756 -0.677042
vn 0.684562 0.10586 -0.721227
vn -0.742621 0.0654986 -0.66457
vn 0.668106 0.284708 -0.677777
vn -0.69793 -0.178979 0.692869
vn -0.547587 -0.287613 0.785765
vn -0.593498 -0.29799 0.738831
vn 0.720873 0.0703158 0.688671
vn 0.717145 -0.103076 0.68926
vn 0.787852 -0.0452654 0.611868
vn 0.18244 0.926809 0.324811
vn 0.170091 0.930432 -0.31535
vn 0.052929 0.893837 -0.437146
vn 0.704919 -0.0822791 0.695007
vn 0.217183 0.883417 -0.41242
vn 0.0800838 0.46817 -0.85471
vn 0.172853 -0.252316 -0.923126
vn 0.604396 0.0775813 0.766248
vn 0.191375 0.204762 0.959921
vn 0.229892 -0.00944428 0.949109
vn -0.0252161 0.214564 0.976384
vn -0.0269319 0.538313 0.842314
vn 0.685949 -0.686789 -0.00198359
vn 0.552054 -0.555041 0.525455
vn 0.98791 -0.0323079 -0.104748
vn 0.980967 -0.0229898 -0.158352
vn 0.982656 -0.0622002 0.136556
vn 0.0182107 -0.0768336 -0.993718
vn 0.0528731 0.0242512 -0.925747
vn -0.00624813 0.292349 0.93295
vn -0.0252665 0.0665821 0.939114
vn -0.0178464 0.0745357 0.98998
vn -0.0248692 0.792707 0.607326
vn 0.863997 -0.373638 0.10761
vn 0.0492165 0.481506 -0.874813
vn -0.109206 0.131221 -0.985298
vn -0.0919053 0.33083 -0.939205
vn 0.00448619 0.589788 -0.806751
vn -0.423949 -0.110463 -0.895013
vn -0.828997 -0.00187038 -0.54872
vn -0.367225 0.0226775 -0.922027
vn -0.257463 0.914647 0.308693
vn -0.210241 0.644819 0.734851
vn -0.276643 0.610958 0.722271
vn -0.231472 0.908771 0.111723
vn -0.851577 0.394707 0.33881
vn -0.920467 0.216498 0.318123
vn -0.40017 0.21979 0.885902
vn -0.24421 0.410286 0.877102
vn -0.878959 0.0528349 -0.468682
vn -0.934327 0.222977 -0.278055
vn -0.396411 -0.0442979 -0.915688
vn -0.703568 0.0370605 -0.708403
vn -0.2805 0.0619162 -0.899789
vn -0.303479 -0.0663257 0.938158
vn -0.285685 -0.0328275 0.949388
vn -0.925144 0.118776 -0.356648
vn -0.518641 0.120883 -0.844292
vn -0.939362 0.178649 -0.292719
vn -0.234092 0.337754 0.895579
vn -0.806151 0.314997 0.490429
vn -0.237351 0.0310892 0.91628
vn -0.827863 0.16918 0.520323
vn -0.416692 0.0258974 0.900429
vn -0.720075 -0.19055 0.652114
vn -0.963267 -0.208808 0.120249
vn -0.955746 -0.112902 0.248935
vn -0.8769 -0.120531 -0.452507
vn -0.863961 -0.148327 -0.466917
vn -0.449887 -0.0724504 -0.88104
vn -0.408641 -0.0995241 -0.897023
vn -0.512289 -0.199538 -0.835311
vn -0.719658 -0.157598 -0.676207
vn 0.659422 -0.368204 -0.609762
vn -0.700429 0.0383886 -0.709148
vn 0.707056 -0.224844 -0.664757
vn 0.665335 -0.399097 -0.630913
vn 0.873869 -0.0674383 0.481462
vn 0.669125 0.00983632 0.743085
vn 0.69378 0.0227546 0.716097
vn 0.138154 0.201239 0.969751
vn -0.670986 0.285779 0.684184
vn -0.601656 0.262724 0.754312
vn -0.675201 0.276586 0.677878
vn -0.991817 0.106098 -0.0710148
vn -0.68668 0.0784863 -0.722711
vn -0.681096 -0.0359341 -0.731312
vn 0.72848 -0.250983 -0.637435
vn 0.740245 -0.199014 -0.642208
vn -0.671168 0.0962411 -0.707848
vn 0.75492 -0.171126 -0.622574
vn 0.535534 -0.150016 0.831083
vn 0.690112 -0.0568921 0.72091
vn 0.546993 -0.129478 0.79903
vn -0.722685 0.045659 0.689668
vn -0.722042 0.219971 0.655079
vn -0.790008 0.121314 0.591571
vn -0.189457 0.92759 0.315203
vn -0.146872 0.93038 -0.324168
vn -0.0332082 0.896853 -0.439408
vn -0.730693 -0.0993538 0.664991
vn -0.225941 0.876634 -0.422346
vn -0.0308152 0.458128 -0.864367
vn -0.123087 -0.259164 -0.944949
vn -0.636795 0.0557213 0.70234
vn -0.264583 -0.0213517 0.873109
vn -0.240462 0.198431 0.950159
vn -0.673306 -0.699879 -0.0429132
vn -0.563505 -0.564469 0.477332
vn -0.973324 -0.0458701 -0.199744
vn -0.982342 -0.057081 -0.145569
vn -0.986299 -0.0865259 0.0944439
vn -0.866305 -0.377517 0.0269534
vn -0.128979 0.249456 -0.849105
vn 0.0673972 0.293997 -0.839993
vn 0.261594 0.247784 -0.815613
vn -0.0104177 -0.910662 -0.242784
vn -0.0104179 -0.914073 -0.23559
vn 0.0840538 -0.978863 -0.157119
vn -0.105921 -0.95489 0.059641
vn 0.031249 -0.910662 -0.239845
vn -0.0625715 -0.95698 0.0609643
vn -0.098294 -0.946465 -0.189301
vn 0.0259061 -0.911535 -0.231609
vn -0.107678 -0.960678 0.107732
vn -0.108553 -0.960438 0.1075
vn -0.111624 -0.959626 0.106689
vn -0.112493 -0.959404 0.106461
vn 0.0841876 -0.976318 -0.155799
vn 0.0886133 -0.9748 -0.161219
vn 0.0878157 -0.975074 -0.160242
vn 0.0849928 -0.976043 -0.156785
vn -0.0422406 -0.987365 0.0225744
vn -0.128193 -0.961741 0.0490505
vn -0.144192 -0.951485 0.057841
vn -0.0285111 -0.987593 -0.00619453
vn 0.0445498 -0.98123 -0.158426
vn -0.0284098 -0.951822 0.0496339
vn -0.0171852 -0.931655 0.0117825
vn -0.0233551 -0.928331 -0.0199252
vn -0.0589272 -0.949718 -0.189133
vn -0.0241537 -0.957161 0.0629099
vn -0.572591 0.417002 -0.705868
vn 0.580795 0.441503 -0.683925
vn 0.578196 0.700454 0.418392
vn -0.575301 0.687075 0.443797
vn -0.754774 -0.0676657 -0.652485
vn 0.6549 -0.242114 -0.715881
vn 0.651441 0.102649 0.751723
vn -0.757752 0.229144 0.610987
vn 0.60827 0.412217 -0.678296
vn 0.559507 0.682477 0.470295
vn -0.591402 0.705192 0.391086
vn -0.544647 0.446065 -0.710202
vn 0.783831 -0.0739005 -0.616561
vn -0.622715 -0.236937 -0.745712
vn -0.684963 0.108064 0.72052
vn 0.730242 0.223114 0.64573
vn 0.0140763 0.419511 -0.906565
vn 0.529524 0.496537 -0.68659
vn 0.00264694 0.781471 -0.623937
vn 0.805277 0.549516 -0.22013
vn 0.830361 0.556671 -0.0106313
vn 0.00478288 0.84577 -0.522868
vn -0.845462 0.531513 -0.0483249
vn -0.811351 0.524769 -0.25634
vn -0.513524 0.480696 -0.709992
usemtl _18_-_Defaultaaa
g Bob_CoatArmy
s off
f 1/1/1 2/3/3 3/2/2
f 2/3/3 1/1/1 4/4/4
f 5/5/5 6/6/6 2/3/3
f 6/6/6 5/5/5 7/7/7
f 8/8/8 9/10/10 10/9/9
f 9/10/10 8/8/8 11/11/11
f 12/12/12 13/14/14 14/13/13
f 13/14/14 12/12/12 15/15/15
f 16/16/16 12/12/12 17/17/17
f 12/12/12 16/16/16 15/15/15
f 18/18/18 19/20/20 20/19/19
f 19/20/20 18/18/18 16/16/16
f 6/6/6 21/21/21 2/3/3
f 14/13/13 22/23/23 23/22/22
f 22/23/23 14/13/13 13/14/14
f 24/24/24 25/26/26 26/25/25
f 25/26/26 24/24/24 27/27/27
f 28/28/28 19/20/20 29/29/29
f 19/20/20 28/28/28 30/30/30
f 14/13/13 31/31/31 12/12/12
f 31/31/31 14/13/13 32/32/32
f 32/32/32 33/33/33 31/31/31
f 33/33/33 32/32/32 34/34/34
f 12/12/12 29/29/29 17/17/17
f 29/29/29 12/12/12 31/31/31
f 31/31/31 28/28/28 29/29/29
f 28/28/28 31/31/31 33/33/33
f 35/35/35 36/36/36 24/24/24
f 37/37/37 38/39/39 39/38/38
f 38/39/39 37/37/37 40/40/40
f 38/39/39 41/41/41 39/38/38
f 41/41/41 38/39/39 42/42/42
f 43/43/43 42/42/42 44/44/44
f 42/42/42 43/43/43 41/41/41
f 45/45/45 46/47/47 47/46/46
f 46/47/47 48/49/49 49/48/48
f 48/49/49 46/47/47 50/50/50
f 51/51/51 49/53/48 52/52/52
f 49/53/48 53/54/53 52/52/52
f 53/54/53 49/53/48 48/55/49
f 54/56/54 55/58/56 56/57/55
f 54/56/54 52/52/52 55/58/56
f 54/56/54 51/51/51 52/52/52
f 52/52/52 57/59/57 55/58/56
f 57/59/57 52/52/52 53/54/53
f 58/60/58 55/58/56 46/47/47
f 55/58/56 50/50/50 46/47/47
f 50/50/50 55/58/56 57/59/57
f 59/61/59 60/63/61 61/62/60
f 60/63/61 59/61/59 62/64/62
f 62/64/62 63/65/63 60/63/61
f 63/65/63 62/64/62 64/66/64
f 61/67/60 65/69/66 66/68/65
f 65/69/66 61/67/60 60/70/61
f 60/70/61 67/71/67 65/69/66
f 67/71/67 60/70/61 63/72/63
f 66/68/65 68/74/69 69/73/68
f 68/74/69 66/68/65 65/69/66
f 65/69/66 70/75/70 68/74/69
f 70/75/70 65/69/66 67/71/67
f 69/73/68 62/64/62 59/61/59
f 62/64/62 69/73/68 68/74/69
f 68/74/69 64/66/64 62/64/62
f 64/66/64 68/74/69 70/75/70
f 57/59/57 59/61/59 50/50/50
f 59/61/59 57/59/57 69/73/68
f 50/50/50 61/62/60 48/49/49
f 61/62/60 50/50/50 59/61/59
f 53/54/53 61/67/60 66/68/65
f 61/67/60 53/54/53 48/55/49
f 66/68/65 57/59/57 53/54/53
f 57/59/57 66/68/65 69/73/68
f 71/76/71 58/60/58 72/77/72
f 58/60/58 71/76/71 56/57/55
f 72/77/72 10/78/9 71/76/71
f 10/78/9 72/77/72 73/79/73
f 36/36/36 27/27/27 24/24/24
f 27/27/27 36/36/36 74/80/74
f 10/9/9 75/81/75 8/8/8
f 76/82/76 4/84/4 1/83/1
f 4/84/4 76/82/76 77/85/77
f 45/45/45 77/85/77 76/82/76
f 78/86/78 11/11/11 79/87/79
f 78/86/78 9/10/10 11/11/11
f 78/86/78 80/88/80 9/10/10
f 81/89/81 11/11/11 82/90/82
f 11/11/11 81/89/81 79/87/79
f 71/76/71 10/78/9 9/91/10
f 56/57/55 80/92/80 54/56/54
f 56/57/55 9/91/10 80/92/80
f 56/57/55 71/76/71 9/91/10
f 83/93/83 51/51/51 84/94/84
f 51/51/51 83/93/83 47/95/46
f 39/38/38 85/96/85 37/37/37
f 85/96/85 39/38/38 86/97/86
f 5/98/5 47/95/46 83/93/83
f 7/7/7 86/97/86 39/38/38
f 85/96/85 87/99/87 37/37/37
f 19/20/20 30/30/30 20/19/19
f 16/16/16 17/17/17 19/20/20
f 17/17/17 29/29/29 19/20/20
f 75/81/75 10/9/9 73/100/73
f 2/3/3 21/21/21 3/2/2
f 20/19/19 88/101/88 18/18/18
f 88/101/88 20/19/19 89/102/89
f 23/22/22 32/32/32 14/13/13
f 32/32/32 23/22/22 90/103/90
f 32/32/32 91/104/91 34/34/34
f 91/104/91 32/32/32 90/103/90
f 49/53/48 51/51/51 47/95/46
f 47/46/46 46/47/47 49/48/48
f 42/42/42 16/16/16 18/18/18
f 16/16/16 42/42/42 38/39/39
f 38/39/39 15/15/15 16/16/16
f 15/15/15 38/39/39 40/40/40
f 15/15/15 35/35/35 13/14/14
f 35/35/35 15/15/15 40/40/40
f 13/14/14 92/105/92 22/23/23
f 92/105/92 13/14/14 35/35/35
f 75/106/75 73/107/73 3/2/2
f 3/2/2 73/107/73 1/1/1
f 1/83/1 72/77/72 76/82/76
f 72/77/72 1/83/1 73/79/73
f 76/82/76 58/60/58 45/45/45
f 58/60/58 76/82/76 72/77/72
f 58/60/58 46/47/47 45/45/45
f 55/58/56 58/60/58 56/57/55
f 40/40/40 37/37/37 36/36/36
f 78/86/78 84/108/84 80/88/80
f 37/37/37 74/80/74 36/36/36
f 74/80/74 37/37/37 87/99/87
f 36/36/36 35/35/35 40/40/40
f 93/109/93 11/11/11 8/8/8
f 27/27/27 81/89/81 25/26/26
f 81/89/81 27/27/27 79/87/79
f 79/87/79 74/80/74 78/86/78
f 74/80/74 79/87/79 27/27/27
f 74/80/74 84/108/84 78/86/78
f 84/108/84 74/80/74 87/99/87
f 84/108/84 85/96/85 94/110/94
f 85/96/85 84/108/84 87/99/87
f 94/110/94 86/97/86 83/111/83
f 86/97/86 94/110/94 85/96/85
f 7/7/7 83/111/83 86/97/86
f 83/111/83 7/7/7 5/5/5
f 6/6/6 43/43/43 21/21/21
f 43/43/43 6/6/6 41/41/41
f 41/41/41 7/7/7 39/38/38
f 7/7/7 41/41/41 6/6/6
f 4/4/4 5/5/5 2/3/3
f 5/112/5 77/85/77 47/46/46
f 77/85/77 5/112/5 4/84/4
f 77/85/77 45/45/45 47/46/46
f 54/56/54 84/94/84 51/51/51
f 84/94/84 54/56/54 80/92/80
f 26/25/25 35/35/35 24/24/24
f 35/35/35 26/25/25 92/105/92
f 93/109/93 82/90/82 11/11/11
f 18/18/18 44/44/44 42/42/42
f 44/44/44 18/18/18 88/101/88
f 83/93/83 84/94/84 94/113/94
f 95/114/95 96/116/97 97/115/96
f 96/116/97 95/114/95 98/117/98
f 99/118/99 100/120/101 101/119/100
f 100/120/101 99/118/99 96/116/97
f 102/121/102 103/123/104 104/122/103
f 103/123/104 102/121/102 105/124/105
f 106/125/106 107/127/108 108/126/107
f 107/127/108 106/125/106 109/128/109
f 110/129/110 106/125/106 108/126/107
f 106/125/106 110/129/110 111/130/111
f 112/131/112 113/132/113 110/129/110
f 113/132/113 112/131/112 114/133/114
f 21/21/21 100/120/101 96/116/97
f 109/128/109 22/134/23 107/127/108
f 22/134/23 109/128/109 23/135/22
f 115/136/115 25/138/26 116/137/116
f 25/138/26 115/136/115 26/139/25
f 117/140/117 113/132/113 118/141/118
f 113/132/113 117/140/117 119/142/119
f 109/128/109 120/144/121 121/143/120
f 120/144/121 109/128/109 106/125/106
f 121/143/120 122/146/123 123/145/122
f 122/146/123 121/143/120 120/144/121
f 106/125/106 119/142/119 120/144/121
f 119/142/119 106/125/106 111/130/111
f 120/144/121 117/140/117 122/146/123
f 117/140/117 120/144/121 119/142/119
f 124/147/124 115/136/115 125/148/125
f 126/149/126 127/151/128 128/150/127
f 127/151/128 126/149/126 129/152/129
f 127/151/128 130/154/131 131/153/130
f 130/154/131 127/151/128 129/152/129
f 43/43/43 131/153/130 130/154/131
f 131/153/130 43/43/43 44/44/44
f 132/155/132 133/157/134 134/156/133
f 134/156/133 135/159/136 136/158/135
f 135/159/136 134/156/133 137/160/137
f 138/161/138 139/163/139 137/162/137
f 137/162/137 140/165/140 135/164/136
f 140/165/140 137/162/137 139/163/139
f 141/166/141 139/163/139 138/161/138
f 141/166/141 142/167/142 139/163/139
f 141/166/141 143/168/143 142/167/142
f 139/163/139 144/169/144 140/165/140
f 144/169/144 139/163/139 142/167/142
f 145/170/145 134/156/133 142/167/142
f 142/167/142 136/158/135 144/169/144
f 136/158/135 142/167/142 134/156/133
f 146/171/146 147/173/148 148/172/147
f 147/173/148 146/171/146 149/174/149
f 148/172/147 150/176/151 151/175/150
f 150/176/151 148/172/147 147/173/148
f 149/177/149 152/179/152 147/178/148
f 152/179/152 149/177/149 153/180/153
f 147/178/148 154/182/154 150/181/151
f 154/182/154 147/178/148 152/179/152
f 153/180/153 155/183/155 152/179/152
f 155/183/155 153/180/153 156/184/156
f 152/179/152 157/185/157 154/182/154
f 157/185/157 152/179/152 155/183/155
f 156/184/156 148/172/147 155/183/155
f 148/172/147 156/184/156 146/171/146
f 155/183/155 151/175/150 157/185/157
f 151/175/150 155/183/155 148/172/147
f 144/169/144 146/171/146 156/184/156
f 146/171/146 144/169/144 136/158/135
f 136/158/135 149/174/149 146/171/146
f 149/174/149 136/158/135 135/159/136
f 140/165/140 149/177/149 135/164/136
f 149/177/149 140/165/140 153/180/153
f 153/180/153 144/169/144 156/184/156
f 144/169/144 153/180/153 140/165/140
f 158/186/158 145/170/145 143/168/143
f 145/170/145 158/186/158 159/187/159
f 159/187/159 105/189/105 160/188/160
f 105/189/105 159/187/159 158/186/158
f 125/148/125 116/137/116 161/190/161
f 116/137/116 125/148/125 115/136/115
f 105/124/105 102/121/102 162/191/162
f 163/192/163 97/194/96 164/193/164
f 97/194/96 163/192/163 95/195/95
f 132/155/132 163/192/163 164/193/164
f 165/196/165 103/123/104 166/197/166
f 165/196/165 104/122/103 103/123/104
f 165/196/165 167/198/167 104/122/103
f 81/199/81 104/122/103 167/198/167
f 104/122/103 81/199/81 82/200/82
f 158/186/158 103/201/104 105/189/105
f 143/168/143 103/201/104 158/186/158
f 143/168/143 166/202/166 103/201/104
f 143/168/143 141/166/141 166/202/166
f 168/203/168 138/161/138 133/204/134
f 138/161/138 168/203/168 169/205/169
f 129/152/129 170/207/171 171/206/170
f 170/207/171 129/152/129 126/149/126
f 99/208/99 168/203/168 133/204/134
f 101/119/100 129/152/129 171/206/170
f 170/207/171 126/149/126 172/209/172
f 113/132/113 114/133/114 118/141/118
f 110/129/110 113/132/113 111/130/111
f 111/130/111 113/132/113 119/142/119
f 162/191/162 160/210/160 105/124/105
f 96/116/97 98/117/98 21/21/21
f 114/133/114 88/101/88 89/102/89
f 88/101/88 114/133/114 112/131/112
f 23/135/22 121/143/120 90/211/90
f 121/143/120 23/135/22 109/128/109
f 121/143/120 91/212/91 90/211/90
f 91/212/91 121/143/120 123/145/122
f 137/162/137 133/204/134 138/161/138
f 133/157/134 137/160/137 134/156/133
f 131/153/130 110/129/110 127/151/128
f 110/129/110 131/153/130 112/131/112
f 127/151/128 108/126/107 128/150/127
f 108/126/107 127/151/128 110/129/110
f 108/126/107 124/147/124 128/150/127
f 124/147/124 108/126/107 107/127/108
f 107/127/108 92/213/92 124/147/124
f 92/213/92 107/127/108 22/134/23
f 162/214/162 98/117/98 160/215/160
f 98/117/98 95/114/95 160/215/160
f 95/195/95 159/187/159 160/188/160
f 159/187/159 95/195/95 163/192/163
f 163/192/163 145/170/145 159/187/159
f 145/170/145 163/192/163 132/155/132
f 145/170/145 132/155/132 134/156/133
f 142/167/142 143/168/143 145/170/145
f 128/150/127 125/148/125 126/149/126
f 165/196/165 166/197/166 169/216/169
f 126/149/126 161/190/161 172/209/172
f 161/190/161 126/149/126 125/148/125
f 125/148/125 128/150/127 124/147/124
f 93/217/93 102/121/102 104/122/103
f 116/137/116 81/199/81 167/198/167
f 81/199/81 116/137/116 25/138/26
f 167/198/167 161/190/161 116/137/116
f 161/190/161 167/198/167 165/196/165
f 161/190/161 169/216/169 172/209/172
f 169/216/169 161/190/161 165/196/165
f 169/216/169 170/207/171 172/209/172
f 170/207/171 169/216/169 173/218/173
f 173/218/173 171/206/170 170/207/171
f 171/206/170 173/218/173 168/219/168
f 101/119/100 168/219/168 99/118/99
f 168/219/168 101/119/100 171/206/170
f 100/120/101 43/43/43 130/154/131
f 43/43/43 100/120/101 21/21/21
f 130/154/131 101/119/100 100/120/101
f 101/119/100 130/154/131 129/152/129
f 97/115/96 96/116/97 99/118/99
f 99/220/99 164/193/164 97/194/96
f 164/193/164 99/220/99 133/157/134
f 164/193/164 133/157/134 132/155/132
f 141/166/141 169/205/169 166/202/166
f 169/205/169 141/166/141 138/161/138
f 26/139/25 124/147/124 92/213/92
f 124/147/124 26/139/25 115/136/115
f 93/217/93 104/122/103 82/200/82
f 44/44/44 112/131/112 131/153/130
f 112/131/112 44/44/44 88/101/88
f 168/203/168 173/221/173 169/205/169
f 114/222/114 174/224/174 118/223/118
f 174/224/174 89/226/89 175/225/175
f 176/227/176 89/226/89 20/228/19
f 176/227/176 20/228/19 30/229/30
f 175/225/175 89/226/89 176/227/176
f 114/222/114 89/226/89 174/224/174
f 175/225/177 118/223/179 174/224/178
f 118/223/179 175/225/177 91/225/180
f 175/225/181 30/229/183 91/225/182
f 30/229/183 175/225/181 176/227/184
f 151/175/185 154/182/187 157/185/186
f 154/182/187 151/175/185 150/176/188
f 64/66/189 67/71/191 63/65/190
f 67/71/191 64/66/189 70/75/192
f 122/146/193 91/212/195 123/145/194
f 117/140/196 91/212/195 122/146/193
f 118/141/197 91/212/195 117/140/196
f 34/34/198 28/28/200 33/33/199
f 34/34/198 30/30/201 28/28/200
f 91/104/202 30/30/201 34/34/198
f 177/230/203 178/232/205 179/231/204
f 178/232/205 177/230/203 180/233/206
f 181/234/207 179/231/204 182/235/208
f 179/231/204 181/234/207 177/230/203
f 182/235/208 178/232/205 183/236/209
f 178/232/205 182/235/208 179/231/204
f 183/236/209 180/233/206 184/237/210
f 180/233/206 183/236/209 178/232/205
f 184/237/210 177/230/203 181/234/207
f 177/230/203 184/237/210 180/233/206
f 185/238/211 186/240/213 187/239/212
f 186/240/213 185/238/211 188/241/214
f 189/242/215 188/241/214 185/238/211
f 188/241/214 189/242/215 190/243/216
f 190/243/216 186/240/213 188/241/214
f 186/240/213 190/243/216 191/244/217
f 191/244/217 187/239/212 186/240/213
f 187/239/212 191/244/217 192/245/218
f 192/245/218 185/238/211 187/239/212
f 185/238/211 192/245/218 189/242/215
f 93/217/219 193/121/221 102/121/220
f 102/121/220 193/191/221 162/191/222
f 162/214/222 193/117/221 98/117/223
f 98/117/223 193/21/221 21/21/224
f 3/2/225 21/21/224 193/21/221
f 75/106/226 3/2/225 193/2/221
f 8/8/227 75/81/226 193/81/221
f 8/8/227 193/8/221 93/109/219
