# Wavefront OBJ
# Created by fragMOTION 1.3.7
# http://www.fragmosoft.com

mtllib Bob_CatcherVest.mtl
# 136 vertices
v 0.0833762 0.753223 -0.0395109
v 0.0380252 0.749674 -0.0544568
v 0.0451348 0.775257 -0.0316254
v 0.0874562 0.734128 -0.0398279
v 0.0893347 0.71268 -0.0387424
v 0.0474936 0.685802 -0.071541
v 0.0436423 0.720139 -0.0640867
v 0.0747546 0.67944 -0.0554438
v -0.00458618 0.687328 -0.0819838
v 0.00118775 0.724593 -0.070197
v 0.00291898 0.683414 0.0998984
v -0.00825788 0.640877 0.0988409
v 0.00627662 0.63977 0.0972371
v -0.0107927 0.681548 0.100633
v 0.0458943 0.619933 0.0950408
v 0.0750052 0.634749 0.0717039
v 0.0458684 0.637161 0.093548
v 0.0971287 0.632188 0.0435605
v 0.0776401 0.605541 -0.0314163
v 0.0887851 0.627295 -0.030387
v 0.0937532 0.615214 0.0435674
v 0.0447055 0.595247 -0.0689439
v 0.0492219 0.649171 -0.0757323
v -0.00994572 0.650822 -0.0832573
v -0.0144989 0.593714 -0.074008
v -0.0106901 0.727476 0.0967512
v 0.00741161 0.786915 0.0727797
v -0.00591638 0.787816 0.0721606
v 0.0025459 0.727403 0.0961487
v 0.0465079 0.792605 -0.0100939
v 0.0605631 0.799082 0.0211881
v 0.0698949 0.788835 -0.0135888
v 0.00389215 0.752054 -0.0619084
v 0.0786952 0.560844 -0.0321734
v 0.0382152 0.534823 -0.0689856
v -0.00788633 0.622069 0.0994345
v -0.00409878 0.798923 0.0591489
v -0.0163412 0.534028 -0.0723233
v -0.0772808 0.766499 -0.0538694
v -0.0313703 0.754428 -0.0605298
v -0.0855991 0.746634 -0.0537892
v -0.0375368 0.781543 -0.0392525
v -0.091773 0.723955 -0.0513651
v -0.0563311 0.690442 -0.074334
v -0.0834558 0.686997 -0.0613158
v -0.0425881 0.725176 -0.0698728
v -0.0627016 0.623682 0.0960896
v -0.0615584 0.640105 0.0939424
v -0.0921855 0.640882 0.071933
v -0.114376 0.639759 0.0445565
v -0.0994029 0.610681 -0.0259881
v -0.112335 0.622508 0.0448717
v -0.108226 0.633683 -0.026923
v -0.0716561 0.598057 -0.0632001
v -0.0681924 0.653106 -0.0741406
v -0.0191565 0.788538 0.0703695
v -0.0239142 0.72894 0.0940671
v -0.0404333 0.798953 -0.0181288
v -0.0624706 0.799582 -0.0258673
v -0.0587025 0.808117 0.0101718
v -0.103681 0.565166 -0.0228574
v -0.0696863 0.536808 -0.061285
v -0.0245769 0.684773 0.0985633
v -0.0222035 0.64081 0.0973871
v -0.0344727 0.806057 0.0221285
v -0.0418972 0.802572 0.0507418
v 0.0337203 0.801518 0.0284144
v 0.0349414 0.797693 0.0578163
v 0.0803511 0.748278 -0.0274586
v 0.03304 0.748262 -0.0458255
v 0.0849582 0.731372 -0.0277919
v 0.0411923 0.768342 -0.0232049
v 0.0405412 0.72002 -0.0546654
v 0.0735897 0.682783 -0.0442776
v 0.0872324 0.712464 -0.0269113
v 0.0444579 0.687183 -0.0616207
v -0.004638 0.68852 -0.0715333
v 0.000429221 0.724172 -0.060438
v 0.00286613 0.681903 0.084023
v -0.00817261 0.641353 0.0825674
v -0.010133 0.680355 0.0859009
v 0.00557254 0.640306 0.0810214
v 0.0425119 0.620185 0.0746635
v 0.0426967 0.637448 0.0783145
v 0.0664087 0.635897 0.0629619
v 0.0828636 0.634418 0.041865
v 0.0651205 0.606749 -0.0231227
v 0.0763367 0.615856 0.0422381
v 0.0785297 0.631732 -0.0223352
v 0.0463866 0.652211 -0.0653741
v 0.0422832 0.600993 -0.0586853
v -0.00948448 0.653736 -0.0725566
v -0.013582 0.599459 -0.0635188
v -0.00978488 0.723502 0.0821981
v 0.00751021 0.779306 0.0583521
v 0.00278676 0.723198 0.0804439
v -0.00513139 0.780312 0.0584236
v 0.0423764 0.781462 -0.00215471
v 0.0669558 0.778971 -0.00461824
v 0.058011 0.784084 0.021602
v 0.00242844 0.746415 -0.0512314
v 0.0650304 0.563197 -0.0187984
v 0.0364113 0.53803 -0.0537828
v -0.00822333 0.62215 0.078646
v -0.0041785 0.793177 0.0561524
v -0.0151491 0.537348 -0.0571987
v -0.0776457 0.760772 -0.0411612
v -0.0282772 0.752378 -0.0511531
v -0.0365001 0.774317 -0.0295674
v -0.0856859 0.743374 -0.0411762
v -0.0914675 0.723493 -0.0391405
v -0.0536469 0.691573 -0.0642769
v -0.0409545 0.724721 -0.0600344
v -0.0824617 0.690356 -0.0504327
v -0.0601234 0.623786 0.0754327
v -0.0834614 0.641359 0.0633065
v -0.0587973 0.641016 0.0790519
v -0.0999709 0.640953 0.0427593
v -0.08637 0.611027 -0.0180149
v -0.0972732 0.637502 -0.0195063
v -0.0949135 0.621904 0.0433701
v -0.0645839 0.655972 -0.0640339
v -0.0676907 0.603713 -0.0535027
v -0.0175926 0.780836 0.0560768
v -0.022215 0.724641 0.0784839
v -0.0394568 0.787476 -0.00971831
v -0.0586937 0.792788 0.0108267
v -0.0628903 0.789501 -0.0166633
v -0.0885685 0.566835 -0.0109438
v -0.0655664 0.539959 -0.0467064
v -0.0231229 0.683186 0.0827738
v -0.0213456 0.641275 0.0812181
v -0.033392 0.792904 0.022784
v -0.04187 0.787968 0.0468853
v 0.0307343 0.788683 0.0286929
v 0.0337128 0.783203 0.053843
# 94 texture vertices
vt 0.598363 -0.307388
vt 0.535156 -0.289063
vt 0.53653 -0.321762
vt 0.598204 -0.32984
vt 0.598515 -0.352392
vt 0.542763 -0.349749
vt 0.549267 -0.387563
vt 0.59375 -0.390625
vt 0.5 -0.348554
vt 0.5 -0.388388
vt 0.773438 -0.386719
vt 0.773438 -0.449219
vt 0.785156 -0.449219
vt 0.785156 -0.390625
vt 0.734375 -0.476563
vt 0.734375 -0.449219
vt 0.675781 -0.449219
vt 0.652344 -0.449219
vt 0.597656 -0.449219
vt 0.585938 -0.473345
vt 0.652344 -0.476563
vt 0.550781 -0.480469
vt 0.555713 -0.421962
vt 0.5 -0.421841
vt 0.5 -0.481622
vt 0.785156 -0.34375
vt 0.785156 -0.285156
vt 0.773438 -0.285156
vt 0.773438 -0.34375
vt 0.71875 -0.226563
vt 0.679688 -0.234375
vt 0.71875 -0.242188
vt 0.5 -0.323434
vt 0.546875 -0.53125
vt 0.582031 -0.515625
vt 0.539063 -0.267373
vt 0.582031 -0.267373
vt 0.785156 -0.476563
vt 0.785156 -0.246094
vt 0.5 -0.531429
vt 0.395344 -0.30927
vt 0.394286 -0.3315
vt 0.467725 -0.322349
vt 0.464844 -0.292969
vt 0.394227 -0.352981
vt 0.40625 -0.390625
vt 0.447181 -0.38671
vt 0.457237 -0.349749
vt 0.257813 -0.476563
vt 0.3125 -0.449219
vt 0.257813 -0.449219
vt 0.347656 -0.449219
vt 0.347656 -0.476563
vt 0.414063 -0.476563
vt 0.402344 -0.453125
vt 0.449219 -0.480469
vt 0.444288 -0.422378
vt 0.207031 -0.34375
vt 0.21875 -0.34375
vt 0.21875 -0.285156
vt 0.207031 -0.285156
vt 0.273438 -0.21875
vt 0.285156 -0.238281
vt 0.316406 -0.230469
vt 0.417969 -0.515625
vt 0.453125 -0.53125
vt 0.460938 -0.267373
vt 0.410156 -0.267373
vt 0.21875 -0.386719
vt 0.207031 -0.390625
vt 0.21875 -0.449219
vt 0.207031 -0.476563
vt 0.207031 -0.246094
vt 0.25 -0.234375
vt 0.242188 -0.261719
vt 0.753906 -0.265625
vt 0.746094 -0.238281
vt 0.207031 -0.449219
vt 0.59765 -0.304993
vt 0.598058 -0.329841
vt 0.534036 -0.320617
vt 0.542969 -0.350581
vt 0.598526 -0.353414
vt 0.549321 -0.386533
vt 0.5 -0.386719
vt 0.554688 -0.421875
vt 0.5 -0.53125
vt 0.394657 -0.310343
vt 0.467204 -0.321257
vt 0.39409 -0.331756
vt 0.393961 -0.352097
vt 0.457031 -0.350581
vt 0.446818 -0.386235
vt 0.445313 -0.4222
# 270 normals
vn 0.264018 0.35477 -0.895123
vn 0.161837 0.65567 -0.734792
vn 0.24139 0.459006 -0.852981
vn 0.400287 0.10151 -0.907807
vn 0.506442 0.0917991 -0.85266
vn 0.313704 0.28376 -0.901614
vn 0.349533 0.163255 -0.914681
vn 0.605436 0.0557329 -0.785926
vn 0.0859964 0.330302 -0.93616
vn 0.0295383 0.170442 -0.977186
vn 0.0509856 0.00508308 0.99307
vn 0.101549 0.0101134 0.987291
vn 0.0034553 -0.0192266 0.992027
vn -0.0444869 -0.0015752 0.992995
vn 0.387432 0.0326849 0.914638
vn 0.357771 0.0857553 0.923346
vn 0.68813 -0.220125 0.682343
vn 0.938344 -0.209897 0.254734
vn 0.836996 -0.316651 -0.430617
vn 0.824761 -0.284865 -0.475608
vn 0.943659 -0.20786 0.236233
vn 0.427095 -0.122017 -0.890057
vn 0.417861 -0.0616783 -0.897905
vn -0.0210521 -0.049906 -0.991288
vn -0.0621317 -0.100879 -0.989109
vn -0.0613614 0.214019 0.972586
vn -0.0374622 0.58185 0.812142
vn 0.0176142 0.628285 0.777464
vn 0.0436601 0.219302 0.972598
vn 0.0262221 0.913292 -0.399372
vn 0.1103 0.823038 -0.551732
vn 0.0488509 0.986813 -0.129938
vn 0.109729 0.412023 -0.90364
vn 0.309555 -0.0637226 -0.946146
vn 0.703841 -0.057293 -0.70165
vn 0.0158052 0.0575397 0.990866
vn 0.00563474 0.856531 0.51583
vn -0.0743211 -0.040673 -0.994365
vn -0.0363181 0.383902 -0.921906
vn -0.231826 0.149924 -0.959072
vn -0.018289 0.479994 -0.876074
vn 0.0861229 0.664802 -0.74179
vn -0.36907 0.147857 -0.914046
vn -0.538893 0.110654 -0.828619
vn -0.284153 0.191891 -0.931925
vn -0.152585 0.312798 -0.933404
vn -0.35486 0.0869039 0.922398
vn -0.700515 -0.167438 0.684894
vn -0.325803 0.137452 0.926925
vn -0.950158 -0.142244 0.263656
vn -0.954614 -0.140663 0.248224
vn -0.872685 -0.235606 -0.423543
vn -0.876348 -0.261049 -0.40049
vn -0.52189 -0.0991112 -0.843217
vn -0.449658 -0.0325948 -0.886144
vn -0.165319 0.231422 0.956419
vn -0.0796689 0.63446 0.768579
vn 0.189187 0.903517 -0.384013
vn 0.131104 0.983604 -0.121854
vn 0.134691 0.824717 -0.548888
vn -0.776015 -0.0222162 -0.626052
vn -0.444596 -0.0498454 -0.892324
vn -0.143516 0.0147663 0.98361
vn -0.0947886 0.011438 0.987515
vn 0.0834714 0.995277 0.0467592
vn 0.0307092 0.968338 0.247441
vn 0.0488189 0.966517 0.248304
vn 0.0456548 0.996237 0.0424801
vn -0.221715 -0.475092 0.848742
vn -0.328021 -0.293099 0.894584
vn -0.25026 -0.415048 0.872787
vn -0.177087 -0.595001 0.781777
vn -0.328835 -0.235121 0.910035
vn -0.512525 -0.121653 0.845092
vn -0.677075 0.0026337 0.727511
vn -0.446902 -0.0868563 0.882222
vn -0.0312411 -0.177095 0.976001
vn -0.0846839 -0.314288 0.941676
vn -0.123804 0.00527795 -0.986727
vn 0.0438875 0.00878907 -0.992903
vn -0.00459858 0.0287654 -0.991795
vn -0.114875 -0.0119395 -0.985886
vn -0.387175 -0.0268844 -0.914861
vn -0.688723 0.220607 -0.681598
vn -0.357961 -0.082504 -0.923534
vn -0.921316 0.259666 -0.269121
vn -0.914966 0.287448 -0.261762
vn -0.801054 0.207113 0.550973
vn -0.831433 0.213372 0.499887
vn -0.427894 0.125641 0.888908
vn -0.439549 0.0834921 0.885657
vn 0.0195092 0.0543671 0.991027
vn 0.059485 0.10231 0.988795
vn 0.0608981 -0.215311 -0.97228
vn -0.115363 -0.214834 -0.967806
vn -0.102921 -0.540351 -0.834831
vn 0.0351069 -0.597447 -0.800824
vn -0.0347874 -0.887484 0.45315
vn -0.074192 -0.963822 0.243058
vn -0.112691 -0.815905 0.561788
vn -0.108272 -0.425685 0.897138
vn -0.701395 0.0618268 0.703695
vn -0.322343 0.0489862 0.942439
vn -0.0184436 -0.0603784 -0.990663
vn 0.00595619 -0.796158 -0.604876
vn 0.0738095 0.0410378 0.994308
vn -0.00919185 -0.494905 0.867652
vn -0.0681484 -0.606804 0.791661
vn 0.0321054 -0.437988 0.89731
vn 0.139116 -0.326978 0.932184
vn 0.374465 -0.17861 0.906123
vn 0.175438 -0.266168 0.943664
vn 0.390331 -0.124082 0.905179
vn 0.616672 -0.0609037 0.778835
vn 0.36619 -0.0529352 -0.920512
vn 0.332562 -0.106774 -0.928536
vn 0.700096 0.169991 -0.68472
vn 0.937209 0.193185 -0.278195
vn 0.863991 0.158444 0.472486
vn 0.851136 0.160084 0.495327
vn 0.932325 0.221822 -0.273974
vn 0.470239 0.0526433 0.874623
vn 0.519242 0.102223 0.844307
vn 0.183016 -0.558139 -0.80902
vn 0.235547 -0.234408 -0.940784
vn -0.190299 -0.878115 0.438513
vn -0.133525 -0.817972 0.559172
vn -0.123357 -0.963233 0.237719
vn 0.452822 0.0343226 0.888656
vn 0.774083 0.026877 0.628287
vn 0.215042 -0.012232 -0.970434
vn 0.097528 -0.0195536 -0.987161
vn -0.113204 -0.993024 0.0287529
vn -0.105405 -0.993734 0.0298082
vn -0.106251 -0.993664 0.0294481
vn -0.116045 -0.99275 0.0288163
vn -0.0190834 -0.941038 -0.337304
vn -0.0130513 -0.941177 -0.337327
vn -0.0157626 -0.941112 -0.337535
vn -0.0178016 -0.940678 -0.338348
vn -0.0554342 -0.994473 0.0344971
vn -0.0584027 -0.994159 0.0344772
vn -0.0297114 -0.997141 0.0370026
vn -0.0191259 -0.998244 0.0377118
vn -0.0422902 -0.93885 -0.339544
vn -0.0520318 -0.937346 -0.340141
vn -0.035005 -0.940108 -0.338619
vn -0.0362487 -0.939298 -0.340215
vn -0.968253 0.0120038 0.248836
vn -0.967388 0.19645 0.158163
vn -0.969212 0.17496 0.17168
vn -0.970491 0.0111496 0.239966
vn -0.829994 -0.127969 0.542798
vn -0.800193 -0.256324 0.542119
vn -0.528217 -0.661903 0.531587
vn -0.39087 -0.827683 0.402341
vn -0.989859 0.052364 -0.122809
vn -0.989814 0.0529146 -0.122854
vn -0.990074 0.0442235 -0.132135
vn -0.990067 0.0442986 -0.132218
vn -0.990545 0.0583227 -0.0961268
vn -0.99055 0.0584184 -0.0957598
vn -0.993722 0.0482907 -0.0425934
vn -0.993834 0.0479583 -0.0407072
vn 0.000440537 0.99474 0.0428695
vn -0.012516 0.994172 0.052199
vn -0.0144941 0.994215 0.0502409
vn 0.00116663 0.994774 0.0426035
vn -0.0313414 0.994361 0.0323547
vn -0.0266217 0.994528 0.0327426
vn -0.0803832 0.990985 -0.0362965
vn -0.0832622 0.991204 -0.0208193
vn -0.254442 0.959292 -0.0540537
vn -0.291235 0.948685 -0.050509
vn -0.649042 0.505644 0.554771
vn -0.59471 0.523197 0.59784
vn -0.989526 0.0348968 0.109715
vn -0.984942 -0.116401 0.104081
vn -0.997119 0.00187325 0.0427842
vn -0.996863 -0.0398706 0.0347378
vn -0.950449 0.293615 0.0798955
vn -0.94522 0.304887 0.0998361
vn -0.927261 0.344034 0.139773
vn -0.932677 0.324068 0.153216
vn -0.0407818 -0.995182 -0.00505399
vn 0.00803507 -0.995487 0.00640387
vn -0.011094 -0.995631 0.00649049
vn -0.0291413 -0.99042 0.0971523
vn -0.0303513 -0.988319 0.1159
vn -0.0642538 -0.985214 0.134537
vn -0.0557446 -0.985252 0.13673
vn -0.541898 0.150355 0.818674
vn -0.506398 0.162052 0.839103
vn -0.596374 0.0987349 0.790511
vn -0.621101 0.0866952 0.772761
vn 0.893538 -0.133046 0.421764
vn 0.64849 -0.349481 0.675443
vn 0.693318 -0.226879 0.683082
vn 0.896751 -0.135975 0.413646
vn 0.209664 -0.864214 0.456404
vn 0.340721 -0.714916 0.609915
vn 0.995161 -0.0806653 0.0488438
vn 0.996427 -0.0598983 0.0322797
vn 0.996374 -0.0606655 0.0325055
vn 0.996337 -0.0337862 -0.000723954
vn 0.996342 -0.0342772 -0.000164732
vn 0.994334 -0.0145209 -0.0536149
vn 0.994419 -0.0152203 -0.0514746
vn 0.0750182 0.993351 0.00699555
vn 0.0761655 0.993281 0.00738851
vn 0.0807238 0.992531 0.0303033
vn 0.0853755 0.991783 0.0421572
vn 0.11733 0.989375 0.0208211
vn 0.127385 0.988129 0.0245033
vn 0.168803 0.982193 -0.0219806
vn 0.165823 0.982171 -0.0374019
vn 0.327729 0.940405 -0.0643363
vn 0.364716 0.927149 -0.0611102
vn -0.00574918 -0.986704 0.135193
vn 0.00538003 -0.987181 0.132184
vn -0.0543694 -0.989529 0.0973175
vn -0.0528793 -0.987522 0.116041
vn -0.0929388 -0.991944 0.00716105
vn -0.0726232 -0.993506 0.00708044
vn 0.603757 0.117086 0.783536
vn 0.702982 0.0553201 0.705105
vn 0.681049 0.0684851 0.725164
vn 0.575132 0.131506 0.802626
vn 0.299427 -0.854373 0.413557
vn 0.156377 -0.957922 0.232768
vn 0.222993 -0.937715 0.257753
vn 0.283593 -0.846811 0.439482
vn -0.00352459 -0.974998 0.216019
vn -0.00381688 -0.974828 0.216539
vn -0.160761 -0.952084 0.255408
vn -0.224773 -0.929245 0.288832
vn -0.302672 -0.840105 0.444317
vn -0.283706 -0.833377 0.468496
vn 0.996435 0.0684 -0.0445719
vn 0.995792 0.0381238 -0.0804095
vn 0.905984 0.0412702 -0.421062
vn 0.911854 0.0667462 -0.404794
vn 0.771778 0.250316 -0.584363
vn 0.77046 0.287249 -0.568918
vn -0.616046 0.336766 -0.711931
vn -0.798756 0.157845 -0.578336
vn -0.803733 0.184772 -0.56309
vn -0.612866 0.373475 -0.696204
vn -0.942811 0.190788 -0.260495
vn -0.946281 0.218304 -0.224568
vn -0.829275 0.546954 0.0728176
vn -0.821697 0.555083 0.0941685
vn -0.653067 0.693755 0.297981
vn -0.651877 0.694409 0.298225
vn 0.685468 0.598845 0.411278
vn 0.686111 0.597071 0.412864
vn 0.886951 0.408993 0.213271
vn 0.867342 0.433832 0.242809
vn 0.950022 0.160568 0.252588
vn 0.957279 0.152285 0.229459
vn 0.93026 0.188765 0.301089
vn 0.929089 0.16118 0.319784
vn 0.937146 0.0333672 0.335816
vn 0.932882 0.012875 0.349024
vn 0.966552 -0.166612 0.171414
vn 0.971959 -0.124013 0.177508
vn 0.977288 -0.0600297 0.183029
vn 0.955313 -0.211853 0.180934
vn 0.657858 0.482622 0.575739
vn 0.707763 0.461156 0.532858
usemtl _18_-_Defaultnnn
g Bob_CatcherVest
s off
f 1/1/1 2/3/3 3/2/2
f 2/3/3 1/1/1 4/4/4
f 5/5/5 6/7/7 7/6/6
f 6/7/7 5/5/5 8/8/8
f 7/6/6 9/10/10 10/9/9
f 9/10/10 7/6/6 6/7/7
f 11/11/11 12/13/13 13/12/12
f 12/13/13 11/11/11 14/14/14
f 15/15/15 16/17/17 17/16/16
f 18/18/18 19/20/20 20/19/19
f 19/20/20 18/18/18 21/21/21
f 22/22/22 20/19/19 19/20/20
f 20/19/19 22/22/22 23/23/23
f 24/24/24 22/22/22 25/25/25
f 22/22/22 24/24/24 23/23/23
f 26/26/26 27/28/28 28/27/27
f 27/28/28 26/26/26 29/29/29
f 30/30/30 31/32/32 32/31/31
f 2/3/3 33/33/33 3/2/2
f 22/22/22 34/35/35 35/34/34
f 34/35/35 22/22/22 19/20/20
f 30/36/30 32/37/31 3/2/2
f 3/2/2 32/37/31 1/1/1
f 21/21/21 18/18/18 16/17/17
f 16/17/17 15/15/15 21/21/21
f 11/11/11 26/26/26 14/14/14
f 26/26/26 11/11/11 29/29/29
f 6/7/7 24/24/24 9/10/10
f 24/24/24 6/7/7 23/23/23
f 23/23/23 8/8/8 20/19/19
f 8/8/8 23/23/23 6/7/7
f 7/6/6 4/4/4 5/5/5
f 4/4/4 7/6/6 2/3/3
f 2/3/3 10/9/9 33/33/33
f 10/9/9 2/3/3 7/6/6
f 36/38/36 13/12/12 12/13/13
f 37/39/37 28/27/27 27/28/28
f 35/34/34 25/25/25 22/22/22
f 25/25/25 35/34/34 38/40/38
f 39/41/39 40/43/41 41/42/40
f 40/43/41 39/41/39 42/44/42
f 43/45/43 44/47/45 45/46/44
f 44/47/45 43/45/43 46/48/46
f 46/48/46 9/10/10 44/47/45
f 9/10/10 46/48/46 10/9/9
f 47/49/47 48/51/49 49/50/48
f 50/52/50 51/54/52 52/53/51
f 51/54/52 50/52/50 53/55/53
f 53/55/53 54/56/54 51/54/52
f 54/56/54 53/55/53 55/57/55
f 24/24/24 54/56/54 55/57/55
f 54/56/54 24/24/24 25/25/25
f 26/58/26 56/60/57 57/59/56
f 56/60/57 26/58/26 28/61/27
f 58/62/58 59/64/60 60/63/59
f 40/43/41 42/44/42 33/33/33
f 54/56/54 61/65/61 51/54/52
f 61/65/61 54/56/54 62/66/62
f 58/67/58 42/44/42 59/68/60
f 42/44/42 39/41/39 59/68/60
f 52/53/51 49/50/48 50/52/50
f 49/50/48 52/53/51 47/49/47
f 63/69/63 26/58/26 57/59/56
f 26/58/26 63/69/63 14/70/14
f 44/47/45 24/24/24 55/57/55
f 24/24/24 44/47/45 9/10/10
f 55/57/55 45/46/44 44/47/45
f 45/46/44 55/57/55 53/55/53
f 46/48/46 41/42/40 40/43/41
f 41/42/40 46/48/46 43/45/43
f 40/43/41 10/9/9 46/48/46
f 10/9/9 40/43/41 33/33/33
f 48/51/49 36/72/36 64/71/64
f 36/72/36 48/51/49 47/49/47
f 37/73/37 56/60/57 28/61/27
f 25/25/25 62/66/62 54/56/54
f 62/66/62 25/25/25 38/40/38
f 65/74/65 60/63/59 66/75/66
f 60/63/59 65/74/65 58/62/58
f 37/73/37 66/75/66 56/60/57
f 66/75/66 37/73/37 65/74/65
f 31/32/32 67/77/68 68/76/67
f 67/77/68 31/32/32 30/30/30
f 68/76/67 37/39/37 27/28/28
f 37/39/37 68/76/67 67/77/68
f 17/16/16 36/38/36 15/15/15
f 36/38/36 17/16/16 13/12/12
f 63/69/63 12/78/13 14/70/14
f 12/78/13 63/69/63 64/71/64
f 64/71/64 36/72/36 12/78/13
f 69/79/69 70/81/71 71/80/70
f 70/81/71 69/79/69 72/2/72
f 73/82/73 74/8/75 75/83/74
f 74/8/75 73/82/73 76/84/76
f 73/82/73 77/85/77 76/84/76
f 77/85/77 73/82/73 78/9/78
f 79/11/79 80/13/81 81/14/80
f 80/13/81 79/11/79 82/12/82
f 83/15/83 84/16/85 85/17/84
f 86/18/86 87/20/88 88/21/87
f 87/20/88 86/18/86 89/19/89
f 87/20/88 90/86/91 91/22/90
f 90/86/91 87/20/88 89/19/89
f 92/24/92 91/22/90 90/86/91
f 91/22/90 92/24/92 93/25/93
f 94/26/94 95/28/96 96/29/95
f 95/28/96 94/26/94 97/27/97
f 98/30/98 99/31/100 100/32/99
f 70/81/71 72/2/72 101/33/101
f 91/22/90 102/35/102 87/20/88
f 102/35/102 91/22/90 103/34/103
f 98/36/98 72/2/72 99/37/100
f 72/2/72 69/79/69 99/37/100
f 88/21/87 85/17/84 86/18/86
f 85/17/84 88/21/87 83/15/83
f 79/11/79 94/26/94 96/29/95
f 94/26/94 79/11/79 81/14/80
f 76/84/76 92/24/92 90/86/91
f 92/24/92 76/84/76 77/85/77
f 90/86/91 74/8/75 76/84/76
f 74/8/75 90/86/91 89/19/89
f 75/83/74 70/81/71 73/82/73
f 70/81/71 75/83/74 71/80/70
f 70/81/71 78/9/78 73/82/73
f 78/9/78 70/81/71 101/33/101
f 104/38/104 80/13/81 82/12/82
f 105/39/105 95/28/96 97/27/97
f 103/34/103 93/25/93 106/87/106
f 93/25/93 103/34/103 91/22/90
f 107/88/107 108/89/109 109/44/108
f 108/89/109 107/88/107 110/90/110
f 111/91/111 112/93/113 113/92/112
f 112/93/113 111/91/111 114/46/114
f 113/92/112 77/85/77 78/9/78
f 77/85/77 113/92/112 112/93/113
f 115/49/115 116/50/117 117/51/116
f 118/52/118 119/54/120 120/55/119
f 119/54/120 118/52/118 121/53/121
f 119/54/120 122/94/122 120/55/119
f 122/94/122 119/54/120 123/56/123
f 92/24/92 123/56/123 93/25/93
f 123/56/123 92/24/92 122/94/122
f 94/58/94 124/60/124 97/61/97
f 124/60/124 94/58/94 125/59/125
f 126/62/126 127/63/128 128/64/127
f 108/89/109 101/33/101 109/44/108
f 123/56/123 129/65/130 130/66/129
f 129/65/130 123/56/123 119/54/120
f 126/67/126 128/68/127 109/44/108
f 109/44/108 128/68/127 107/88/107
f 121/53/121 118/52/118 116/50/117
f 116/50/117 115/49/115 121/53/121
f 131/69/131 94/58/94 81/70/80
f 94/58/94 131/69/131 125/59/125
f 112/93/113 92/24/92 77/85/77
f 92/24/92 112/93/113 122/94/122
f 122/94/122 114/46/114 120/55/119
f 114/46/114 122/94/122 112/93/113
f 113/92/112 110/90/110 111/91/111
f 110/90/110 113/92/112 108/89/109
f 108/89/109 78/9/78 101/33/101
f 78/9/78 108/89/109 113/92/112
f 117/51/116 104/72/104 115/49/115
f 104/72/104 117/51/116 132/71/132
f 105/73/105 97/61/97 124/60/124
f 93/25/93 130/66/129 106/87/106
f 130/66/129 93/25/93 123/56/123
f 133/74/133 127/63/135 126/62/134
f 127/63/135 133/74/133 134/75/136
f 105/73/137 134/75/139 133/74/138
f 134/75/139 105/73/137 124/60/140
f 100/32/141 135/77/143 98/30/142
f 135/77/143 100/32/141 136/76/144
f 136/76/145 105/39/147 135/77/146
f 105/39/147 136/76/145 95/28/148
f 84/16/85 104/38/104 82/12/82
f 104/38/104 84/16/85 83/15/83
f 81/70/80 132/71/132 131/69/131
f 132/71/132 81/70/80 80/78/81
f 132/71/132 80/78/81 104/72/104
f 127/63/149 59/64/151 128/64/150
f 59/64/151 127/63/149 60/63/152
f 66/75/153 127/63/149 134/75/154
f 127/63/149 66/75/153 60/63/152
f 56/60/155 134/75/154 124/60/156
f 134/75/154 56/60/155 66/75/153
f 57/59/157 124/60/159 125/59/158
f 124/60/159 57/59/157 56/60/160
f 63/69/161 125/59/158 131/69/162
f 125/59/158 63/69/161 57/59/157
f 63/69/161 132/71/164 64/71/163
f 132/71/164 63/69/161 131/69/162
f 64/71/165 117/51/167 48/51/166
f 117/51/167 64/71/165 132/71/168
f 48/51/166 116/50/170 49/50/169
f 116/50/170 48/51/166 117/51/167
f 49/50/169 118/52/172 50/52/171
f 118/52/172 49/50/169 116/50/170
f 118/52/172 53/55/173 50/52/171
f 53/55/173 118/52/172 120/55/174
f 120/55/175 45/46/177 53/55/176
f 45/46/177 120/55/175 114/46/178
f 111/91/179 45/46/177 114/46/178
f 45/46/177 111/91/179 43/45/180
f 110/90/181 43/45/180 111/91/179
f 43/45/180 110/90/181 41/42/182
f 107/88/183 41/42/182 110/90/181
f 41/42/182 107/88/183 39/41/184
f 128/68/150 39/41/184 107/88/183
f 39/41/184 128/68/150 59/68/151
f 36/72/185 115/49/186 104/72/185
f 115/49/186 36/72/185 47/49/187
f 47/49/187 121/53/188 115/49/186
f 121/53/188 47/49/187 52/53/189
f 121/53/188 51/54/191 119/54/190
f 51/54/191 121/53/188 52/53/189
f 51/54/192 129/65/194 119/54/193
f 129/65/194 51/54/192 61/65/195
f 100/32/196 68/76/198 136/76/197
f 68/76/198 100/32/196 31/32/199
f 136/76/197 27/28/201 95/28/200
f 27/28/201 136/76/197 68/76/198
f 95/28/202 29/29/204 96/29/203
f 29/29/204 95/28/202 27/28/202
f 96/29/203 11/11/206 79/11/205
f 11/11/206 96/29/203 29/29/204
f 11/11/206 82/12/207 79/11/205
f 82/12/207 11/11/206 13/12/208
f 84/16/209 13/12/211 17/16/210
f 13/12/211 84/16/209 82/12/212
f 85/17/213 17/16/210 16/17/214
f 17/16/210 85/17/213 84/16/209
f 86/18/215 16/17/214 18/18/216
f 16/17/214 86/18/215 85/17/213
f 20/19/217 86/18/215 18/18/216
f 86/18/215 20/19/217 89/19/218
f 19/20/219 88/21/221 87/20/220
f 88/21/221 19/20/219 21/21/222
f 88/21/221 15/15/224 83/15/223
f 15/15/224 88/21/221 21/21/222
f 83/15/223 36/38/185 104/38/185
f 36/38/185 83/15/223 15/15/224
f 19/20/225 102/35/227 34/35/226
f 102/35/227 19/20/225 87/20/228
f 34/35/229 103/34/231 35/34/230
f 103/34/231 34/35/229 102/35/232
f 103/34/231 38/40/233 35/34/230
f 38/40/233 103/34/231 106/87/234
f 38/40/233 130/66/236 62/66/235
f 130/66/236 38/40/233 106/87/234
f 130/66/236 61/65/237 62/66/235
f 61/65/237 130/66/236 129/65/238
f 58/62/239 133/74/241 126/62/240
f 133/74/241 58/62/239 65/74/242
f 65/74/242 105/73/243 133/74/241
f 105/73/243 65/74/242 37/73/244
f 105/39/245 67/77/247 135/77/246
f 67/77/247 105/39/245 37/39/248
f 135/77/246 30/30/250 98/30/249
f 30/30/250 135/77/246 67/77/247
f 98/36/249 3/2/252 72/2/251
f 3/2/252 98/36/249 30/36/250
f 33/33/253 72/2/251 3/2/252
f 72/2/251 33/33/253 101/33/254
f 33/33/255 109/44/257 101/33/256
f 109/44/257 33/33/255 42/44/258
f 42/44/258 126/67/240 109/44/257
f 126/67/240 42/44/258 58/67/239
f 4/4/259 69/79/261 71/80/260
f 69/79/261 4/4/259 1/1/262
f 1/1/262 99/37/263 69/79/261
f 99/37/263 1/1/262 32/37/264
f 32/31/264 100/32/196 99/31/263
f 100/32/196 32/31/264 31/32/199
f 5/5/265 71/80/260 75/83/266
f 71/80/260 5/5/265 4/4/259
f 8/8/267 75/83/266 74/8/268
f 75/83/266 8/8/267 5/5/265
f 8/8/267 89/19/270 20/19/269
f 89/19/270 8/8/267 74/8/268
