# Wavefront OBJ
# Created by fragMOTION 1.3.7
# http://www.fragmosoft.com

mtllib Bob_Cuirass.mtl
# 120 vertices
v 0.0498804 0.774215 -0.0451115
v 0.0781174 0.776539 -0.0364495
v 0.0809873 0.7621 -0.0425541
v 0.0481841 0.802546 -0.0214142
v 0.0683987 0.698956 -0.0625419
v 0.0895617 0.732101 -0.0459712
v 0.0981954 0.689464 -0.0318609
v 0.0524946 0.733464 -0.0606188
v 0.0874671 0.79544 0.0604663
v 0.0529375 0.814807 0.029717
v 0.0543772 0.799259 0.0664925
v 0.0809446 0.799869 0.0229539
v 0.00828209 0.697759 -0.0714476
v 0.0076745 0.734969 -0.0628714
v 0.00500797 0.695748 0.096668
v 0.0564517 0.659837 0.096428
v 0.0606787 0.698471 0.09276
v 0.00548375 0.656924 0.0969296
v 0.0546207 0.607873 0.087056
v 0.0881568 0.672303 0.0825746
v 0.0691277 0.663063 -0.0610394
v 0.0968148 0.587881 -0.0237278
v 0.064738 0.604127 -0.0608323
v 0.0997943 0.661838 -0.0300177
v 0.00839397 0.662313 -0.0700505
v 0.00940652 0.607189 -0.0696658
v 0.0879732 0.704096 0.0823568
v 0.0491806 0.809771 -0.00404147
v 0.087497 0.7519 0.0717283
v 0.0604611 0.740976 0.0864412
v 0.00437137 0.734676 0.0893549
v 0.00362734 0.795021 0.0675199
v 0.110764 0.692012 0.0299056
v 0.105333 0.682415 -0.0122839
v 0.105266 0.675153 0.0575284
v 0.104955 0.697882 0.0665428
v 0.0789739 0.796347 -0.00779447
v 0.0964584 0.567308 -0.0235015
v 0.0625887 0.562009 -0.0627302
v 0.0948903 0.573797 0.0395558
v 0.0943824 0.594825 0.0386647
v 0.0914905 0.575515 0.0625617
v 0.0577067 0.576806 0.0865967
v 0.0905567 0.599269 0.0669196
v 0.00720365 0.608021 0.0896729
v 0.00805974 0.579175 0.0906051
v 0.0102059 0.560415 -0.0697641
v -0.0368965 0.773181 -0.0470824
v -0.0656005 0.775636 -0.0397458
v -0.0368904 0.801619 -0.02335
v -0.0679959 0.760846 -0.0459482
v -0.0521305 0.697627 -0.0649968
v -0.0753482 0.730158 -0.0495751
v -0.0372042 0.732277 -0.0625688
v -0.0829386 0.687053 -0.038206
v -0.0798287 0.793507 0.056664
v -0.0444759 0.813661 0.0275038
v -0.0716179 0.798849 0.0194572
v -0.0471122 0.797865 0.0641946
v -0.0454591 0.658954 0.0944542
v -0.0505454 0.697165 0.0904447
v -0.0397155 0.609243 0.0851876
v -0.0770097 0.670777 0.0796924
v -0.0525342 0.662186 -0.0633341
v -0.0778602 0.590928 -0.0271649
v -0.0842545 0.660424 -0.0335411
v -0.0461624 0.604813 -0.0629046
v -0.0776873 0.702136 0.0789008
v -0.0388601 0.808802 -0.0060443
v -0.0791185 0.749569 0.0679985
v -0.051982 0.7394 0.0839427
v -0.0982195 0.689662 0.0256186
v -0.0931381 0.673102 0.0535711
v -0.090931 0.680389 -0.0162269
v -0.0938818 0.69559 0.0624303
v -0.067882 0.795642 -0.0111714
v -0.0769649 0.571897 -0.0270907
v -0.0422334 0.564547 -0.0648722
v -0.0769099 0.579011 0.035911
v -0.0774072 0.597819 0.0352278
v -0.0742018 0.60218 0.0636772
v -0.0735889 0.581027 0.0590482
v -0.0411371 0.580253 0.0844446
v 0.0625385 0.532008 -0.0598949
v 0.0942082 0.539263 -0.0224867
v 0.0911198 0.554484 0.0735099
v 0.0572007 0.554114 0.0907672
v 0.00774884 0.557174 0.0943825
v 0.0101066 0.530835 -0.0671154
v -0.0749972 0.545708 -0.0262278
v -0.0424991 0.53596 -0.0622038
v -0.0417425 0.55824 0.0885307
v -0.0740458 0.561037 0.0705742
v 0.0893034 0.56612 -0.0189412
v 0.0589858 0.536423 -0.0436689
v 0.0885122 0.54181 -0.0179784
v 0.0590954 0.5648 -0.0464807
v 0.0861034 0.555207 0.0648131
v 0.0547412 0.573885 0.0764942
v 0.0812987 0.573798 0.0597034
v 0.0543287 0.554462 0.080169
v 0.00821319 0.576104 0.0801059
v 0.00795333 0.557209 0.0834563
v 0.00987384 0.536379 -0.0503965
v 0.00995002 0.564833 -0.0529719
v -0.039173 0.567225 -0.0484947
v -0.0693488 0.547776 -0.0214631
v -0.0394568 0.540006 -0.0458199
v -0.069772 0.570664 -0.0222733
v -0.0379214 0.57713 0.0744753
v -0.0384182 0.558282 0.0780785
v -0.0687146 0.561228 0.0620573
v -0.0667902 0.578768 0.0565378
v 0.040737 0.698534 0.026434
v 0.0226725 0.623066 0.0318404
v 0.00617338 0.710352 0.0246208
v -0.0452746 0.697528 0.0246802
v -0.00846832 0.623124 0.0313034
v -0.0683784 0.577023 0.0353681
v 0.086264 0.572192 0.0386661
# 171 texture vertices
vt 0.545774 -0.307182
vt 0.59375 -0.3125
vt 0.59375 -0.296875
vt 0.55622 -0.285116
vt 0.55695 -0.391783
vt 0.597656 -0.394531
vt 0.59375 -0.339844
vt 0.539063 -0.347656
vt 0.6875 -0.28125
vt 0.734375 -0.28125
vt 0.734375 -0.253906
vt 0.6875 -0.257813
vt 0.499927 -0.392049
vt 0.499436 -0.346143
vt 0.796875 -0.394531
vt 0.726563 -0.394531
vt 0.734375 -0.4375
vt 0.796875 -0.4375
vt 0.738281 -0.492188
vt 0.6875 -0.421875
vt 0.558594 -0.429688
vt 0.54911 -0.486902
vt 0.597656 -0.507813
vt 0.597656 -0.417969
vt 0.5 -0.429688
vt 0.499968 -0.48236
vt 0.6875 -0.386719
vt 0.734375 -0.234375
vt 0.691406 -0.332031
vt 0.726563 -0.351563
vt 0.796875 -0.355469
vt 0.796875 -0.28125
vt 0.652344 -0.386719
vt 0.617188 -0.386719
vt 0.664063 -0.417969
vt 0.679688 -0.386719
vt 0.6875 -0.234375
vt 0.597656 -0.527344
vt 0.546875 -0.527344
vt 0.648438 -0.53125
vt 0.648438 -0.503906
vt 0.679688 -0.53125
vt 0.730469 -0.535156
vt 0.679688 -0.5
vt 0.796875 -0.492188
vt 0.796875 -0.535156
vt 0.585513 -0.25577
vt 0.591409 -0.277337
vt 0.5 -0.527344
vt 0.449799 -0.308327
vt 0.44969 -0.28763
vt 0.40625 -0.296875
vt 0.40625 -0.3125
vt 0.442783 -0.391762
vt 0.457269 -0.347018
vt 0.40625 -0.339844
vt 0.402344 -0.394531
vt 0.3125 -0.28125
vt 0.3125 -0.261719
vt 0.265625 -0.253906
vt 0.265625 -0.28125
vt 0.207031 -0.394531
vt 0.207031 -0.4375
vt 0.273438 -0.4375
vt 0.277344 -0.394531
vt 0.265625 -0.492188
vt 0.3125 -0.421875
vt 0.441406 -0.429688
vt 0.402344 -0.421875
vt 0.402344 -0.507813
vt 0.450812 -0.486912
vt 0.3125 -0.386719
vt 0.265625 -0.234375
vt 0.308594 -0.332031
vt 0.273438 -0.351563
vt 0.207031 -0.28125
vt 0.207031 -0.355469
vt 0.347656 -0.386719
vt 0.335938 -0.417969
vt 0.378906 -0.386719
vt 0.324219 -0.386719
vt 0.3125 -0.234375
vt 0.402344 -0.53125
vt 0.453125 -0.527344
vt 0.355469 -0.53125
vt 0.350253 -0.505646
vt 0.320313 -0.503906
vt 0.316406 -0.53125
vt 0.207031 -0.492188
vt 0.207031 -0.535156
vt 0.269531 -0.535156
vt 0.412866 -0.256348
vt 0.408449 -0.274003
vt 0.546875 -0.5625
vt 0.59375 -0.5625
vt 0.683594 -0.5625
vt 0.730469 -0.5625
vt 0.796875 -0.5625
vt 0.5 -0.5625
vt 0.40625 -0.5625
vt 0.453125 -0.5625
vt 0.207031 -0.5625
vt 0.269531 -0.5625
vt 0.308594 -0.5625
vt 0.601563 -0.53125
vt 0.597656 -0.558594
vt 0.546875 -0.546875
vt 0.679688 -0.558594
vt 0.675781 -0.539063
vt 0.730469 -0.550781
vt 0.796875 -0.550781
vt 0.5 -0.546875
vt 0.453125 -0.546875
vt 0.402344 -0.558594
vt 0.398438 -0.535156
vt 0.269531 -0.550781
vt 0.207031 -0.550781
vt 0.316406 -0.535156
vt 0.316406 -0.558594
vt 0.675781 -0.367188
vt 0.65625 -0.367188
vt 0.632813 -0.367188
vt 0.617188 -0.375
vt 0.613281 -0.367188
vt 0.605469 -0.328125
vt 0.605469 -0.304688
vt 0.607366 -0.281317
vt 0.67199 -0.257832
vt 0.679487 -0.277527
vt 0.679688 -0.316406
vt 0.679688 -0.351563
vt 0.664063 -0.488281
vt 0.625 -0.492188
vt 0.609375 -0.46875
vt 0.632813 -0.441406
vt 0.664063 -0.441406
vt 0.74601 -0.26217
vt 0.742188 -0.234375
vt 0.554688 -0.269531
vt 0.539752 -0.296629
vt 0.529883 -0.324344
vt 0.513722 -0.334899
vt 0.486676 -0.336548
vt 0.469525 -0.323685
vt 0.465897 -0.303565
vt 0.443889 -0.267093
vt 0.257813 -0.246094
vt 0.256453 -0.263681
vt 0.234677 -0.272978
vt 0.761341 -0.264493
vt 0.324219 -0.316406
vt 0.324219 -0.371094
vt 0.316406 -0.351563
vt 0.34375 -0.371094
vt 0.359375 -0.371094
vt 0.378906 -0.375
vt 0.39424 -0.374358
vt 0.391601 -0.328611
vt 0.394531 -0.304688
vt 0.392557 -0.281074
vt 0.321778 -0.254434
vt 0.320629 -0.276913
vt 0.342148 -0.490464
vt 0.375 -0.492188
vt 0.390625 -0.46875
vt 0.355316 -0.535816
vt 0.648438 -0.535156
vt 0.680497 -0.465516
vt 0.319413 -0.464348
vt 0.324219 -0.429688
vt 0.367188 -0.421875
# 353 normals
vn 0.168498 0.495222 -0.851021
vn 0.261361 0.329906 -0.905542
vn 0.243396 0.572535 -0.780104
vn 0.260784 0.792516 -0.546644
vn 0.419414 0.0589241 -0.895392
vn 0.785831 -0.0112394 -0.603992
vn 0.478615 0.136197 -0.863044
vn 0.230073 0.244057 -0.937363
vn 0.273621 0.652281 0.704755
vn 0.141561 0.545371 0.825794
vn 0.350553 0.933124 0.0350404
vn 0.428911 0.896519 -0.0414094
vn 0.0179082 0.0992537 -0.984477
vn 0.0178586 0.251434 -0.963039
vn -0.0198742 0.105175 0.986106
vn 0.214586 0.094253 0.964576
vn 0.225283 -0.0310841 0.962767
vn -0.0175167 -0.0327165 0.988136
vn 0.265758 -0.033933 0.955898
vn 0.555416 -0.0233961 0.820104
vn 0.459448 -0.0603419 -0.873301
vn 0.483798 -0.0805402 -0.861957
vn 0.888274 -0.0948588 -0.437822
vn 0.814345 -0.0968329 -0.553831
vn 0.0164336 -0.0429241 -0.987914
vn 0.016599 -0.0541036 -0.990599
vn 0.487521 0.0255241 0.864886
vn 0.320073 0.909616 -0.253088
vn 0.33611 0.261001 0.903773
vn 0.199198 0.233885 0.949783
vn -0.0234145 0.233853 0.968649
vn -0.0261589 0.334286 0.942106
vn 0.957193 -0.258357 0.0301377
vn 0.970366 -0.118219 -0.165363
vn 0.925977 -0.146211 0.323273
vn 0.76582 -0.231193 0.586985
vn 0.373673 0.861558 -0.330009
vn 0.89182 -0.102732 -0.43262
vn 0.470722 -0.113105 -0.870028
vn 0.991681 -0.0307479 0.101082
vn 0.989944 -0.0209801 0.0943347
vn 0.779993 0.10131 0.613992
vn 0.31893 0.166258 0.930724
vn 0.675515 -0.0960444 0.722565
vn -0.0181116 0.0231 0.991811
vn -0.0152324 0.170483 0.982398
vn 0.0169594 -0.109408 -0.989569
vn -0.140795 0.493571 -0.858126
vn -0.253571 0.78955 -0.558452
vn -0.213345 0.573453 -0.790731
vn -0.225422 0.328244 -0.916807
vn -0.370025 0.0556805 -0.917811
vn -0.195217 0.238676 -0.946609
vn -0.430955 0.138467 -0.888436
vn -0.749137 -0.0453636 -0.650148
vn -0.320886 0.647196 0.691312
vn -0.439093 0.89582 -0.0615509
vn -0.374966 0.926596 0.0183045
vn -0.193506 0.541024 0.81841
vn -0.253719 -0.0348021 0.954795
vn -0.250577 0.0906218 0.95544
vn -0.302738 -0.0275221 0.944586
vn -0.5824 -0.0307784 0.79926
vn -0.422106 -0.0739244 -0.893088
vn -0.79904 -0.136449 -0.573183
vn -0.87445 -0.0641447 -0.471866
vn -0.455139 -0.0747494 -0.879437
vn -0.522044 0.0168467 0.843468
vn -0.329161 0.904874 -0.268901
vn -0.380269 0.251111 0.888747
vn -0.244874 0.227592 0.940322
vn -0.952625 -0.288548 -0.00667751
vn -0.935154 -0.172616 0.2852
vn -0.963027 -0.15325 -0.192828
vn -0.783307 -0.257411 0.55408
vn -0.365257 0.863139 -0.34754
vn -0.877568 -0.0582798 -0.469524
vn -0.442385 -0.0922965 -0.887722
vn -0.995202 0.0221685 0.05996
vn -0.992966 0.0178026 0.0532207
vn -0.703565 -0.0747899 0.697317
vn -0.79492 0.144794 0.584881
vn -0.34702 0.191702 0.915476
vn 0.471129 -0.159316 -0.865903
vn 0.766882 -0.147681 -0.622322
vn 0.519447 0.321658 0.790669
vn 0.260821 0.187655 0.94603
vn -0.0131819 0.209305 0.977175
vn 0.0155763 -0.158487 -0.98609
vn -0.744283 -0.0872028 -0.660229
vn -0.446332 -0.122212 -0.884963
vn -0.283295 0.210539 0.934643
vn -0.524798 0.371222 0.764893
vn -0.858329 0.134545 0.488774
vn -0.669557 0.131419 0.728931
vn -0.41092 0.152946 0.896776
vn -0.418041 0.159693 0.889568
vn -0.524706 -0.112985 -0.84255
vn -0.690658 -0.0805486 -0.715488
vn -0.309558 -0.135215 -0.938851
vn -0.308267 -0.141462 -0.939658
vn 0.0158209 -0.154539 -0.985094
vn 0.0152111 -0.167264 -0.984987
vn -0.0154976 0.160861 0.985298
vn -0.0156549 0.155936 0.983326
vn 0.389798 0.139762 0.906117
vn 0.381713 0.124093 0.914094
vn 0.644988 0.0817341 0.757954
vn 0.843929 0.0859247 0.524432
vn 0.340206 -0.159804 -0.924107
vn 0.337789 -0.172559 -0.924137
vn 0.711673 -0.128034 -0.687011
vn 0.550359 -0.165271 -0.817087
vn 0.143281 0.964839 -0.205131
vn 0.144743 0.965314 -0.199442
vn 0.144108 0.965235 -0.201219
vn 0.101363 0.982744 -0.129742
vn 0.102475 0.982502 -0.128721
vn 0.100694 0.982759 -0.131538
vn 0.10432 0.963602 -0.229006
vn 0.106142 0.965276 -0.218004
vn 0.1054 0.963448 -0.227993
vn 0.350844 0.911878 0.204531
vn 0.351407 0.910583 0.208865
vn 0.349634 0.913774 0.199105
vn 0.70484 0.298946 0.638313
vn 0.70187 0.286294 0.644189
vn 0.701635 0.290916 0.643066
vn 0.781729 0.100538 0.609652
vn 0.780075 0.118605 0.608158
vn 0.779198 0.112911 0.606823
vn 0.847762 -0.0540321 0.520079
vn 0.848663 -0.0418204 0.519331
vn 0.851565 -0.0224112 0.51086
vn 0.914191 -0.329229 0.213784
vn 0.931637 -0.280043 0.194818
vn 0.911982 -0.335718 0.213991
vn 0.9032 -0.415527 -0.0388622
vn 0.926372 -0.349611 -0.0591958
vn 0.909497 -0.400944 -0.0392968
vn 0.881173 -0.392347 -0.244649
vn 0.8965 -0.333772 -0.262089
vn 0.896265 -0.361469 -0.245528
vn 0.765085 -0.119246 -0.61962
vn 0.771724 -0.143804 -0.61703
vn 0.768525 -0.160458 -0.616384
vn 0.760264 -0.106753 -0.627778
vn 0.76128 -0.109258 -0.627415
vn 0.766844 -0.131613 -0.625781
vn 0.36686 0.924251 -0.0714587
vn 0.382023 0.917184 -0.0829072
vn 0.382732 0.916588 -0.0857585
vn 0.382215 0.917525 -0.0804368
vn 0.382359 0.916694 -0.0865161
vn 0.367194 0.923811 -0.0750627
vn 0.602186 0.0807863 0.784784
vn 0.600737 0.106462 0.781758
vn 0.603229 0.0733362 0.7882
vn 0.485631 -0.859007 0.10113
vn 0.482982 -0.861681 0.0826498
vn 0.479303 -0.867059 0.0584774
vn 0.448262 -0.854358 0.229251
vn 0.442163 -0.868299 0.186791
vn 0.447453 -0.856021 0.222949
vn -0.894044 0.390049 0.215906
vn -0.890849 0.379526 0.226942
vn -0.888414 0.399185 0.215673
vn -0.904775 0.417221 0.0464773
vn -0.907892 0.401685 0.059351
vn -0.902027 0.421689 0.0463631
vn -0.913414 0.385813 -0.102124
vn -0.919125 0.369387 -0.0891712
vn -0.912122 0.388122 -0.102186
vn -0.892966 0.250394 -0.365669
vn -0.898149 0.238812 -0.354835
vn -0.876776 0.144972 -0.452232
vn -0.880211 0.135857 -0.443801
vn -0.880388 0.13398 -0.44632
vn 0.0210882 0.95841 0.277972
vn 0.0194578 0.961306 0.269826
vn 0.0219568 0.9609 0.269639
vn -0.0527815 0.96035 0.267934
vn -0.0509244 0.960367 0.268295
vn -0.0492114 0.957515 0.27647
vn 0.895894 0.164734 -0.411996
vn 0.895974 0.157108 -0.407651
vn 0.895151 0.158483 -0.405855
vn 0.905878 0.270786 -0.324834
vn 0.90761 0.261847 -0.316222
vn 0.910085 0.409194 -0.0608036
vn 0.915329 0.392806 -0.0499104
vn 0.910883 0.40747 -0.0607164
vn 0.891163 0.443861 0.0907961
vn 0.89669 0.425413 0.101706
vn 0.89276 0.440707 0.0909588
vn 0.870008 0.422804 0.252718
vn 0.874009 0.403569 0.261956
vn 0.873269 0.416157 0.253059
vn 0.0833507 0.465689 -0.880988
vn 0.0856386 0.487235 -0.862286
vn 0.08554 0.465445 -0.880927
vn -0.0591293 0.463334 -0.884202
vn -0.0584216 0.485394 -0.865376
vn -0.0560496 0.463302 -0.88413
vn -0.857257 -0.137106 -0.495879
vn -0.858445 -0.123166 -0.496127
vn -0.856166 -0.101334 -0.495107
vn -0.1775 0.962225 -0.182246
vn -0.177282 0.962684 -0.178352
vn -0.178617 0.962637 -0.176171
vn -0.857715 -0.121159 -0.497876
vn -0.855845 -0.100729 -0.496906
vn -0.85543 -0.099267 -0.496759
vn -0.140847 0.976614 -0.131264
vn -0.141558 0.976664 -0.128633
vn -0.142202 0.976524 -0.129073
vn -0.140675 0.955703 -0.237207
vn -0.139044 0.957749 -0.227141
vn -0.141304 0.955518 -0.237643
vn -0.430909 0.888942 0.110058
vn -0.428321 0.888162 0.119582
vn -0.4289 0.888686 0.1158
vn -0.846738 0.224726 0.465265
vn -0.845649 0.223094 0.466603
vn -0.855516 0.228737 0.458494
vn -0.879923 0.138936 0.436824
vn -0.887217 0.141414 0.43293
vn -0.891968 0.126696 0.432482
vn -0.9384 0.00375932 0.34439
vn -0.93069 0.0312634 0.344018
vn -0.938165 0.0129883 0.344023
vn -0.971464 -0.22097 0.0810091
vn -0.976419 -0.174139 0.0725108
vn -0.972518 -0.21629 0.0807984
vn -0.956782 -0.269876 -0.104062
vn -0.962579 -0.225713 -0.11317
vn -0.953835 -0.280363 -0.103577
vn -0.925107 -0.266878 -0.268512
vn -0.931342 -0.243773 -0.269576
vn -0.931329 -0.216547 -0.275934
vn -0.356902 0.923444 -0.0790192
vn -0.342179 0.929743 -0.0947325
vn -0.343096 0.929737 -0.0916996
vn -0.34361 0.92864 -0.100154
vn -0.344379 0.929485 -0.0938523
vn -0.357419 0.92244 -0.0874596
vn -0.627917 0.0790481 0.761729
vn -0.630221 0.0941887 0.763358
vn -0.628241 0.0963553 0.757685
vn -0.648485 0.0368781 0.758223
vn -0.648534 0.037328 0.75825
vn -0.646658 0.0190562 0.757406
vn -0.5754 0.0546444 0.811197
vn -0.575679 0.0578428 0.811294
vn -0.576778 0.0724028 0.81168
vn -0.809056 -0.270909 -0.517959
vn -0.811964 -0.269163 -0.516674
vn -0.811705 -0.269276 -0.516811
vn -0.40664 -0.251438 -0.877192
vn -0.404998 -0.247204 -0.877734
vn -0.278546 -0.952877 0.101004
vn -0.281282 -0.952018 0.104318
vn -0.281444 -0.951969 0.104505
vn -0.236055 -0.966358 0.08269
vn -0.234005 -0.966861 0.0800279
vn -0.233148 -0.967048 0.0791411
vn -0.253283 -0.959948 0.0992097
vn -0.251305 -0.960547 0.0967003
vn -0.255023 -0.959228 0.102822
vn -0.231251 -0.964804 0.106574
vn -0.232108 -0.964597 0.107465
vn -0.229502 -0.965494 0.102936
vn -0.0201843 -0.968221 0.242586
vn -0.021328 -0.96809 0.243874
vn -0.0218795 -0.96753 0.245985
vn 0.044128 -0.932015 0.355334
vn 0.0443994 -0.932084 0.354962
vn 0.045773 -0.932971 0.352027
vn -0.0708238 -0.963543 0.253465
vn -0.0693984 -0.963766 0.251945
vn -0.0682447 -0.963967 0.250664
vn -0.0411471 -0.948723 0.307929
vn -0.0421001 -0.948578 0.308894
vn -0.0436842 -0.948241 0.310736
vn -0.0136515 -0.96596 0.251834
vn -0.0147918 -0.965826 0.253122
vn -0.0162024 -0.965686 0.254656
vn -0.0445628 -0.948207 0.310717
vn -0.0429785 -0.948545 0.308875
vn -0.042022 -0.948692 0.307904
vn -0.0631635 -0.965952 0.2451
vn -0.0626128 -0.966532 0.242983
vn -0.0614589 -0.966715 0.241702
vn -0.129311 -0.926506 0.34846
vn -0.130689 -0.925373 0.351367
vn -0.130968 -0.925251 0.351731
vn 0.616689 -0.0124934 0.782577
vn 0.616809 -0.00899318 0.785225
vn 0.543587 0.032766 0.836892
vn 0.543276 0.0285686 0.83524
vn 0.54324 0.0277297 0.834864
vn 0.189346 -0.972908 0.111827
vn 0.192966 -0.972494 0.105444
vn 0.19111 -0.972835 0.108068
vn 0.164393 -0.977385 0.111128
vn 0.161835 -0.977548 0.115824
vn 0.162619 -0.977397 0.1149
vn 0.136168 -0.983548 0.0997248
vn 0.13884 -0.983138 0.0961308
vn 0.16289 -0.977652 0.112365
vn 0.162106 -0.977805 0.113289
vn 0.160241 -0.978081 0.115956
vn 0.81241 -0.317104 -0.487453
vn 0.812329 -0.318153 -0.487188
vn 0.81308 -0.306853 -0.489849
vn 0.295573 -0.217615 -0.927366
vn 0.295106 -0.227466 -0.92679
vn 0.531594 0.119105 -0.830268
vn 0.526304 0.111663 -0.830279
vn 0.526305 0.141927 -0.82655
vn -0.061047 -0.997468 -0.0167953
vn -0.0593042 -0.997289 -0.0192775
vn -0.0588047 -0.997238 -0.0199939
vn -0.0582222 -0.997308 -0.0180871
vn -0.059402 -0.997426 -0.0164945
vn -0.0604648 -0.997533 -0.0148872
vn 0.00683254 -0.998307 -0.0387302
vn 0.0061399 -0.99845 -0.0373818
vn 0.0056464 -0.998546 -0.0366643
vn -0.0226437 -0.996672 -0.0680921
vn -0.0221421 -0.996546 -0.0691939
vn -0.021459 -0.996406 -0.0701439
vn -0.0228976 -0.998718 -0.0191653
vn -0.0233948 -0.998787 -0.0184459
vn -0.0251296 -0.99903 -0.0159568
vn -0.0258025 -0.99904 -0.0140775
vn -0.0247441 -0.998896 -0.0156898
vn -0.0235698 -0.998736 -0.017287
vn -0.0520673 -0.995427 -0.0681038
vn -0.0527543 -0.995543 -0.0671526
vn -0.0532213 -0.995645 -0.0661115
vn -0.0818408 -0.995201 -0.037056
vn -0.0813409 -0.995151 -0.0377688
vn -0.0806806 -0.995074 -0.0390514
vn -0.499914 0.10112 -0.848561
vn -0.496824 0.137167 -0.849172
vn -0.5004 0.14029 -0.843441
vn -0.451638 -0.863975 0.207638
vn -0.452111 -0.864964 0.201637
vn -0.457831 -0.869234 0.166678
vn -0.483075 -0.868968 0.0823988
vn -0.489495 -0.867898 0.0413739
vn -0.484937 -0.86907 0.0647075
usemtl _06_-_Defaultcc
g Bob_Cuirass
s off
f 1/1/1 2/3/3 3/2/2
f 2/3/3 1/1/1 4/4/4
f 5/5/5 6/7/7 7/6/6
f 6/7/7 5/5/5 8/8/8
f 9/9/9 10/11/11 11/10/10
f 10/11/11 9/9/9 12/12/12
f 13/13/13 8/8/8 5/5/5
f 8/8/8 13/13/13 14/14/14
f 15/15/15 16/17/17 17/16/16
f 16/17/17 15/15/15 18/18/18
f 19/19/19 20/20/20 16/17/17
f 21/21/21 22/23/23 23/22/22
f 22/23/23 21/21/21 24/24/24
f 23/22/22 25/25/25 21/21/21
f 25/25/25 23/22/22 26/26/26
f 17/16/16 20/20/20 27/27/27
f 20/20/20 17/16/16 16/17/17
f 12/12/12 28/28/28 10/11/11
f 11/10/10 29/29/29 9/9/9
f 29/29/29 11/10/10 30/30/30
f 11/10/10 31/31/31 30/30/30
f 31/31/31 11/10/10 32/32/32
f 33/33/33 24/24/24 34/34/34
f 24/24/24 33/33/33 35/35/35
f 7/6/6 34/34/34 24/24/24
f 33/33/33 36/36/36 35/35/35
f 28/28/28 12/12/12 37/37/37
f 38/38/38 23/22/22 22/23/23
f 23/22/22 38/38/38 39/39/39
f 40/40/40 22/23/23 41/41/41
f 22/23/23 40/40/40 38/38/38
f 42/42/42 19/19/19 43/43/43
f 19/19/19 42/42/42 44/44/44
f 45/45/45 43/43/43 19/19/19
f 43/43/43 45/45/45 46/46/46
f 28/47/28 37/48/37 4/4/4
f 4/4/4 37/48/37 2/3/3
f 27/27/27 35/35/35 36/36/36
f 35/35/35 27/27/27 20/20/20
f 20/20/20 19/19/19 44/44/44
f 31/31/31 17/16/16 30/30/30
f 17/16/16 31/31/31 15/15/15
f 27/27/27 30/30/30 17/16/16
f 30/30/30 27/27/27 29/29/29
f 25/25/25 5/5/5 21/21/21
f 5/5/5 25/25/25 13/13/13
f 7/6/6 21/21/21 5/5/5
f 21/21/21 7/6/6 24/24/24
f 3/2/2 8/8/8 1/1/1
f 8/8/8 3/2/2 6/7/7
f 19/19/19 18/18/18 45/45/45
f 18/18/18 19/19/19 16/17/17
f 26/26/26 39/39/39 47/49/47
f 39/39/39 26/26/26 23/22/22
f 48/50/48 49/52/50 50/51/49
f 49/52/50 48/50/48 51/53/51
f 52/54/52 53/56/54 54/55/53
f 53/56/54 52/54/52 55/57/55
f 56/58/56 57/60/58 58/59/57
f 57/60/58 56/58/56 59/61/59
f 13/13/13 54/55/53 14/14/14
f 54/55/53 13/13/13 52/54/52
f 15/62/15 60/64/60 18/63/18
f 60/64/60 15/62/15 61/65/61
f 62/66/62 60/64/60 63/67/63
f 64/68/64 65/70/66 66/69/65
f 65/70/66 64/68/64 67/71/67
f 67/71/67 25/25/25 26/26/26
f 25/25/25 67/71/67 64/68/64
f 61/65/61 63/67/63 60/64/60
f 63/67/63 61/65/61 68/72/68
f 58/59/57 57/60/58 69/73/69
f 70/74/70 59/61/59 56/58/56
f 59/61/59 70/74/70 71/75/71
f 59/61/59 31/77/31 32/76/32
f 31/77/31 59/61/59 71/75/71
f 72/78/72 66/69/65 73/79/73
f 66/69/65 72/78/72 74/80/74
f 55/57/55 66/69/65 74/80/74
f 72/78/72 73/79/73 75/81/75
f 69/73/69 76/82/76 58/59/57
f 77/83/77 67/71/67 78/84/78
f 67/71/67 77/83/77 65/70/66
f 79/85/79 65/70/66 77/83/77
f 65/70/66 79/85/79 80/86/80
f 79/85/79 81/87/81 80/86/80
f 81/87/81 79/85/79 82/88/82
f 45/89/45 83/91/83 46/90/46
f 83/91/83 45/89/45 62/66/62
f 69/92/69 50/51/49 76/93/76
f 50/51/49 49/52/50 76/93/76
f 68/72/68 73/79/73 63/67/63
f 73/79/73 68/72/68 75/81/75
f 31/77/31 61/65/61 15/62/15
f 61/65/61 31/77/31 71/75/71
f 68/72/68 71/75/71 70/74/70
f 71/75/71 68/72/68 61/65/61
f 25/25/25 52/54/52 13/13/13
f 52/54/52 25/25/25 64/68/64
f 55/57/55 64/68/64 66/69/65
f 64/68/64 55/57/55 52/54/52
f 51/53/51 54/55/53 53/56/54
f 54/55/53 51/53/51 48/50/48
f 62/66/62 18/63/18 60/64/60
f 18/63/18 62/66/62 45/89/45
f 78/84/78 26/26/26 47/49/47
f 26/26/26 78/84/78 67/71/67
f 38/38/38 84/94/84 39/39/39
f 84/94/84 38/38/38 85/95/85
f 86/96/86 43/43/43 87/97/87
f 43/43/43 86/96/86 42/42/42
f 46/46/46 87/97/87 43/43/43
f 87/97/87 46/46/46 88/98/88
f 39/39/39 89/99/89 47/49/47
f 89/99/89 39/39/39 84/94/84
f 78/84/78 90/100/90 77/83/77
f 90/100/90 78/84/78 91/101/91
f 83/91/83 88/102/88 46/90/46
f 88/102/88 83/91/83 92/103/92
f 47/49/47 91/101/91 78/84/78
f 91/101/91 47/49/47 89/99/89
f 41/41/41 42/42/42 40/40/40
f 42/42/42 41/41/41 44/44/44
f 63/67/63 81/87/81 62/66/62
f 62/66/62 82/88/82 83/91/83
f 82/88/82 62/66/62 81/87/81
f 83/91/83 93/104/93 92/103/92
f 93/104/93 83/91/83 82/88/82
f 94/105/94 95/107/96 96/106/95
f 95/107/96 94/105/94 97/39/97
f 98/108/98 99/43/100 100/109/99
f 99/43/100 98/108/98 101/110/101
f 102/46/102 101/110/101 103/111/103
f 101/110/101 102/46/102 99/43/100
f 97/39/97 104/112/104 95/107/96
f 104/112/104 97/39/97 105/49/105
f 106/84/106 107/114/108 108/113/107
f 107/114/108 106/84/106 109/115/109
f 110/91/110 103/117/103 111/116/111
f 103/117/103 110/91/110 102/90/102
f 105/49/105 108/113/107 104/112/104
f 108/113/107 105/49/105 106/84/106
f 110/91/110 112/119/113 113/118/112
f 112/119/113 110/91/110 111/116/111
f 27/27/114 36/36/116 114/120/115
f 114/121/117 36/36/119 33/33/118
f 114/122/120 33/33/122 34/34/121
f 7/6/123 114/123/125 34/34/124
f 6/7/126 114/124/128 7/6/127
f 3/2/129 114/125/131 6/7/130
f 2/3/132 114/126/134 3/2/133
f 2/3/135 37/48/137 114/127/136
f 37/37/138 12/12/140 114/128/139
f 12/12/141 9/9/143 114/129/142
f 114/130/144 9/9/146 29/29/145
f 114/131/147 29/29/149 27/27/148
f 115/132/150 44/44/152 41/41/151
f 22/23/153 115/133/155 41/41/154
f 115/134/156 22/23/158 24/24/157
f 35/35/159 115/135/161 24/24/160
f 35/35/162 20/20/164 115/136/163
f 11/10/165 10/11/167 116/137/166
f 10/11/168 28/28/170 116/138/169
f 28/47/171 4/4/173 116/139/172
f 4/4/174 1/1/174 116/140/175
f 1/1/176 8/8/178 116/141/177
f 116/142/179 8/8/181 14/14/180
f 54/55/182 116/143/184 14/14/183
f 48/50/185 116/144/187 54/55/186
f 50/51/188 116/145/189 48/50/188
f 50/51/190 69/92/192 116/146/191
f 69/73/193 57/60/195 116/147/194
f 57/60/196 59/61/198 116/148/197
f 59/61/199 32/76/201 116/149/200
f 32/32/202 11/10/204 116/150/203
f 56/58/205 117/151/207 70/74/206
f 68/72/208 117/152/210 75/81/209
f 70/74/211 117/153/213 68/72/212
f 75/81/214 117/154/216 72/78/215
f 72/78/217 117/155/219 74/80/218
f 117/156/220 55/57/222 74/80/221
f 117/157/223 53/56/225 55/57/224
f 117/158/226 51/53/228 53/56/227
f 49/52/229 51/53/231 117/159/230
f 76/93/232 49/52/234 117/160/233
f 58/59/235 76/82/237 117/161/236
f 58/59/238 117/162/240 56/58/239
f 118/163/241 80/86/243 81/87/242
f 80/86/244 118/164/246 65/70/245
f 118/165/247 66/69/249 65/70/248
f 107/114/250 77/83/252 90/100/251
f 77/83/253 107/114/255 109/115/254
f 82/88/256 112/119/258 93/104/257
f 112/119/259 82/88/260 113/118/260
f 79/85/261 113/118/263 82/88/262
f 113/118/264 79/85/266 119/166/265
f 109/115/267 79/85/269 77/83/268
f 79/85/270 109/115/272 119/166/271
f 108/113/273 90/100/275 91/101/274
f 90/100/276 108/113/278 107/114/277
f 89/99/279 108/113/281 91/101/280
f 108/113/282 89/99/284 104/112/283
f 95/107/285 89/99/287 84/94/286
f 89/99/288 95/107/290 104/112/289
f 85/95/291 95/107/293 84/94/292
f 95/107/294 85/95/296 96/106/295
f 38/38/297 96/106/298 85/95/298
f 96/106/299 38/38/301 94/105/300
f 40/40/302 94/105/304 38/38/303
f 94/105/305 40/40/307 120/167/306
f 100/109/308 40/40/309 42/42/308
f 40/40/310 100/109/312 120/167/311
f 98/108/313 42/42/315 86/96/314
f 42/42/316 98/108/317 100/109/316
f 44/44/318 115/168/320 20/20/319
f 88/98/321 101/110/323 87/97/322
f 101/110/324 88/98/326 103/111/325
f 98/108/327 87/97/329 101/110/328
f 87/97/330 98/108/332 86/96/331
f 111/116/333 88/102/335 92/103/334
f 88/102/336 111/116/338 103/117/337
f 112/119/339 92/103/341 93/104/340
f 92/103/342 112/119/344 111/116/343
f 63/67/345 118/169/347 81/87/346
f 73/79/348 118/170/350 63/67/349
f 73/79/351 66/69/353 118/171/352
