# Wavefront OBJ
# Created by fragMOTION 1.3.7
# http://www.fragmosoft.com

mtllib Bob_ChestRig.mtl
# 119 vertices
v 0.0598274 0.772892 -0.0416354
v 0.0762421 0.784917 -0.0352398
v 0.0784316 0.762758 -0.0407353
v 0.058024 0.806991 -0.0206722
v 0.0723579 0.682467 -0.0667828
v 0.0877014 0.732451 -0.0488637
v 0.0957992 0.673424 -0.037959
v 0.0695955 0.732425 -0.061633
v 0.0519693 0.795313 0.0616341
v 0.052296 0.818545 0.02773
v 0.034885 0.796697 0.0661095
v 0.0696068 0.810397 0.0198984
v 0.0842193 0.655166 -0.0709357
v 0.110302 0.599846 -0.0385525
v 0.0838178 0.596296 -0.0698858
v 0.111516 0.653605 -0.0436911
v 0.0389453 0.658637 -0.0853749
v 0.0700098 0.594099 -0.0795393
v 0.0381557 0.594178 -0.0840499
v 0.0705052 0.659329 -0.0807351
v 0.0869134 0.673182 0.0759965
v 0.0812137 0.701199 0.0760852
v 0.0606186 0.700121 0.0900196
v 0.0556384 0.813743 -0.00443407
v 0.0753962 0.80422 -0.00890589
v 0.104202 0.572964 -0.0273851
v 0.07152 0.595637 -0.0653827
v 0.103972 0.599755 -0.0277232
v 0.0718814 0.568009 -0.0668053
v 0.102027 0.603652 0.0404241
v 0.106887 0.634221 0.0480297
v 0.0909053 0.610229 0.0689947
v 0.059961 0.635143 0.0818187
v 0.0590122 0.611237 0.0789908
v 0.0898125 0.637718 0.0718365
v 0.00567574 0.633933 0.0838864
v 0.00580143 0.611065 0.0816986
v 0.107365 0.668946 0.0525146
v 0.0386901 0.677944 -0.0856937
v 0.0706183 0.678809 -0.0809738
v 0.071973 0.659856 -0.0665045
v 0.1061 0.65913 -0.0342839
v 0.0701609 0.568006 -0.0801506
v 0.03793 0.566806 -0.0842387
v -0.0467538 0.771706 -0.0440839
v -0.0639042 0.783341 -0.0383798
v -0.0466863 0.805971 -0.0230847
v -0.065265 0.761195 -0.0437785
v -0.0554623 0.681052 -0.0693814
v -0.0726903 0.730375 -0.0520867
v -0.0532377 0.730818 -0.0643361
v -0.0801603 0.671339 -0.0436496
v -0.044094 0.794045 0.0594412
v -0.0435681 0.817578 0.0255138
v -0.0603699 0.808961 0.0169315
v -0.027121 0.795923 0.0647582
v -0.0666228 0.65349 -0.0734974
v -0.0945738 0.598839 -0.0412705
v -0.0949034 0.653953 -0.0482044
v -0.0664277 0.595496 -0.0719244
v -0.0542839 0.658172 -0.0853439
v -0.0203811 0.593689 -0.0872051
v -0.0543724 0.593198 -0.0838549
v -0.0194036 0.658012 -0.0887103
v -0.0452194 0.812766 -0.00676741
v -0.0278227 0.775959 0.0711802
v -0.064635 0.80276 -0.0120286
v -0.089004 0.571877 -0.0306512
v -0.0549205 0.594837 -0.0677385
v -0.0554657 0.567323 -0.0690638
v -0.0887936 0.598614 -0.0314593
v -0.0887716 0.602133 0.0361256
v -0.0939339 0.632099 0.0432674
v -0.0778712 0.635781 0.0678335
v -0.0787388 0.608684 0.0650168
v -0.0473038 0.610389 0.0770277
v -0.0485056 0.63391 0.0796425
v -0.0948625 0.666666 0.0476368
v -0.0755169 0.671246 0.0722947
v -0.0704435 0.699265 0.0720013
v -0.019105 0.677282 -0.0890434
v -0.0544427 0.677408 -0.085637
v -0.0547927 0.658714 -0.0691518
v -0.0904575 0.657353 -0.0382319
v -0.0546273 0.567262 -0.0843982
v -0.0201494 0.566469 -0.0873323
v 0.0381652 0.697446 0.0256602
v 0.00599366 0.723127 0.0231481
v 0.00410282 0.763167 0.0799264
v -0.0429638 0.696327 0.0241282
v -0.0147178 0.679681 -0.0739617
v 0.0329116 0.680177 -0.0728738
v -0.0504582 0.698828 0.0876949
v -0.049617 0.722204 0.0842805
v -0.03305 0.735192 0.0855854
v -0.0235092 0.722516 0.089284
v 0.0358524 0.776883 0.0725643
v 0.0180541 0.752507 0.0833585
v 0.0591634 0.723397 0.0867801
v 0.0418748 0.736108 0.0874049
v 0.0328386 0.723246 0.0904884
v 0.0043836 0.740912 0.0873757
v -0.0097643 0.752062 0.0825005
v 0.0266837 0.593719 -0.0867526
v -0.00886419 0.657684 -0.088739
v 0.0275116 0.658037 -0.0879951
v -0.00974875 0.593377 -0.0873561
v -0.00915803 0.676994 -0.089029
v 0.0278447 0.677282 -0.0882419
v 0.0270958 0.566316 -0.08687
v -0.0101582 0.56612 -0.0874742
v 0.0328386 0.659763 -0.0704414
v 0.0319026 0.594839 -0.0691107
v 0.0320926 0.567152 -0.0717032
v -0.0147791 0.659227 -0.0714161
v -0.0158118 0.594456 -0.0699201
v -0.0157337 0.566891 -0.0725411
v 0.00672744 0.65869 0.0198851
v 0.00642019 0.605732 0.0418763
# 187 texture vertices
vt 0.55243 -0.307783
vt 0.59375 -0.3125
vt 0.59375 -0.296875
vt 0.561908 -0.286017
vt 0.560277 -0.407558
vt 0.597773 -0.407913
vt 0.59375 -0.339844
vt 0.550554 -0.347412
vt 0.718868 -0.280312
vt 0.755751 -0.279609
vt 0.736796 -0.254377
vt 0.694433 -0.255048
vt 0.566705 -0.430024
vt 0.558559 -0.497703
vt 0.59803 -0.498684
vt 0.597243 -0.42794
vt 0.525244 -0.430694
vt 0.522586 -0.495347
vt 0.555438 -0.496907
vt 0.562471 -0.429292
vt 0.683594 -0.421875
vt 0.727174 -0.394004
vt 0.6875 -0.398438
vt 0.730199 -0.235663
vt 0.6875 -0.234375
vt 0.600809 -0.525919
vt 0.600035 -0.498707
vt 0.557047 -0.497038
vt 0.557295 -0.527215
vt 0.649958 -0.496773
vt 0.652344 -0.460938
vt 0.677357 -0.487712
vt 0.730469 -0.492188
vt 0.730469 -0.457031
vt 0.675781 -0.457031
vt 0.796875 -0.457031
vt 0.796875 -0.492188
vt 0.58692 -0.256432
vt 0.591409 -0.277337
vt 0.657463 -0.420299
vt 0.526051 -0.408344
vt 0.557871 -0.409185
vt 0.564297 -0.428467
vt 0.601776 -0.423103
vt 0.555374 -0.52605
vt 0.523553 -0.5263
vt 0.4437 -0.308379
vt 0.444988 -0.287385
vt 0.40625 -0.296875
vt 0.40625 -0.3125
vt 0.438417 -0.407941
vt 0.446375 -0.348406
vt 0.40625 -0.339844
vt 0.402485 -0.407654
vt 0.283258 -0.278246
vt 0.303842 -0.260202
vt 0.264668 -0.252143
vt 0.246469 -0.283112
vt 0.435796 -0.431704
vt 0.408267 -0.4266
vt 0.402049 -0.496435
vt 0.439537 -0.496852
vt 0.437931 -0.430138
vt 0.441472 -0.496828
vt 0.47741 -0.494823
vt 0.474998 -0.429334
vt 0.270187 -0.234311
vt 0.244654 -0.306449
vt 0.3125 -0.234375
vt 0.401094 -0.529947
vt 0.442943 -0.527398
vt 0.44046 -0.496932
vt 0.40123 -0.496385
vt 0.34788 -0.497136
vt 0.346775 -0.460284
vt 0.323753 -0.461545
vt 0.325755 -0.491698
vt 0.207031 -0.457031
vt 0.207031 -0.492188
vt 0.273438 -0.492188
vt 0.273575 -0.456777
vt 0.410678 -0.256636
vt 0.408449 -0.274003
vt 0.342881 -0.421875
vt 0.3125 -0.386719
vt 0.3185 -0.42139
vt 0.4775 -0.409958
vt 0.439427 -0.410025
vt 0.402344 -0.421875
vt 0.436784 -0.429487
vt 0.443988 -0.525931
vt 0.47676 -0.525224
vt 0.670222 -0.377194
vt 0.631847 -0.393567
vt 0.621317 -0.390279
vt 0.613281 -0.367188
vt 0.605469 -0.328125
vt 0.605469 -0.304688
vt 0.607366 -0.281317
vt 0.675325 -0.248938
vt 0.693571 -0.279009
vt 0.751747 -0.262807
vt 0.74367 -0.240675
vt 0.554688 -0.269531
vt 0.539752 -0.296629
vt 0.5 -0.375
vt 0.469525 -0.323685
vt 0.465897 -0.303565
vt 0.443889 -0.267093
vt 0.253477 -0.242337
vt 0.244314 -0.263681
vt 0.217505 -0.286678
vt 0.206911 -0.31863
vt 0.796875 -0.320313
vt 0.787889 -0.295538
vt 0.327798 -0.383458
vt 0.371739 -0.395172
vt 0.387041 -0.400054
vt 0.39424 -0.374358
vt 0.391601 -0.328611
vt 0.393738 -0.306798
vt 0.392557 -0.281074
vt 0.321778 -0.254434
vt 0.304685 -0.279516
vt 0.477676 -0.405915
vt 0.524944 -0.405329
vt 0.275839 -0.393587
vt 0.273822 -0.366301
vt 0.252531 -0.352865
vt 0.24017 -0.368851
vt 0.759283 -0.306874
vt 0.778588 -0.334628
vt 0.727556 -0.366349
vt 0.765572 -0.372445
vt 0.74881 -0.352883
vt 0.796875 -0.347656
vt 0.206879 -0.348385
vt 0.224448 -0.334129
vt 0.730499 -0.305036
vt 0.751919 -0.326899
vt 0.750088 -0.334495
vt 0.727523 -0.34833
vt 0.70112 -0.364748
vt 0.27517 -0.304196
vt 0.247361 -0.325504
vt 0.247684 -0.333958
vt 0.27013 -0.351688
vt 0.299406 -0.362908
vt 0.519354 -0.495408
vt 0.521742 -0.43099
vt 0.47774 -0.4299
vt 0.480116 -0.495083
vt 0.521981 -0.409143
vt 0.479397 -0.409822
vt 0.519156 -0.52598
vt 0.480368 -0.52534
vt 0.523873 -0.429759
vt 0.521215 -0.495356
vt 0.521525 -0.527285
vt 0.475708 -0.428347
vt 0.47819 -0.4949
vt 0.477671 -0.52646
vt 0.238717 -0.445857
vt 0.298314 -0.451983
vt 0.31321 -0.44044
vt 0.288933 -0.413808
vt 0.248051 -0.394977
vt 0.216896 -0.372601
vt 0.790867 -0.376406
vt 0.752912 -0.395235
vt 0.712474 -0.415431
vt 0.708951 -0.449684
vt 0.760119 -0.448778
vt 0.771119 -0.505913
vt 0.706299 -0.503381
vt 0.673099 -0.504733
vt 0.634413 -0.519452
vt 0.575492 -0.53763
vt 0.242023 -0.501914
vt 0.29969 -0.503781
vt 0.333539 -0.503781
vt 0.363626 -0.520079
vt 0.428816 -0.53951
vt 0.460784 -0.538883
vt 0.498393 -0.535749
vt 0.542897 -0.535749
vt 0.703475 -0.433318
# 265 normals
vn 0.142711 0.419727 -0.893499
vn 0.299274 0.39877 -0.862709
vn 0.122294 0.510872 -0.847946
vn 0.331978 0.782949 -0.519336
vn 0.649717 0.370411 -0.652408
vn 0.720957 0.154509 -0.662498
vn 0.602268 0.222391 -0.759433
vn 0.52021 0.271227 -0.803061
vn 0.284658 0.670193 0.682832
vn 0.213772 0.476038 0.851738
vn 0.469539 0.820665 0.31551
vn 0.458463 0.879641 0.0889825
vn 0.579194 0.600505 -0.538644
vn 0.75381 -0.0165186 -0.642359
vn 0.732725 -0.0434132 -0.664154
vn 0.634582 0.469746 -0.600698
vn 0.142201 -0.0366739 -0.978145
vn 0.126034 -0.0337858 -0.981433
vn 0.133194 -0.0286604 -0.980403
vn 0.143693 -0.0367573 -0.978002
vn 0.731588 0.0827757 0.666409
vn 0.448098 0.131229 0.87729
vn 0.599674 0.13499 0.781564
vn 0.378041 0.903546 -0.180623
vn 0.418557 0.843274 -0.324218
vn 0.917754 -0.00624424 -0.377967
vn 0.966439 -0.0354005 -0.218095
vn 0.760755 -0.0048023 -0.634472
vn 0.582346 -0.650399 -0.472919
vn 0.961033 -0.173729 0.168522
vn 0.946001 -0.0748674 0.287341
vn 0.654971 -0.10446 0.735457
vn 0.17043 -0.0932453 0.969492
vn 0.180524 -0.0652404 0.970156
vn 0.676349 -0.00585417 0.724553
vn -0.0170903 -0.0506146 0.987105
vn -0.0158163 -0.0673599 0.986256
vn 0.890825 -0.0143873 0.437837
vn 0.0782461 0.670095 -0.726453
vn 0.0962702 0.649935 -0.742297
vn 0.644617 0.495599 -0.569292
vn 0.813432 0.458005 -0.341954
vn 0.100098 -0.751636 -0.645096
vn 0.0990205 -0.797682 -0.588354
vn -0.119723 0.416923 -0.899298
vn -0.330121 0.777792 -0.53336
vn -0.102297 0.508347 -0.853705
vn -0.274841 0.389462 -0.876454
vn -0.589981 0.384058 -0.696729
vn -0.482543 0.259987 -0.829452
vn -0.558303 0.21338 -0.794379
vn -0.682373 0.0942253 -0.712966
vn -0.336115 0.659733 0.670961
vn -0.48624 0.870363 0.0685597
vn -0.50654 0.810013 0.293719
vn -0.267678 0.467282 0.84161
vn -0.556361 0.551428 -0.603691
vn -0.556773 0.553782 -0.601349
vn -0.707792 -0.0582444 -0.693455
vn -0.731364 -0.0316156 -0.670459
vn -0.0971468 -0.0382243 -0.983998
vn -0.0939132 -0.0292328 -0.985353
vn -0.0892894 -0.0342601 -0.985861
vn -0.0979779 -0.0383597 -0.983858
vn -0.393862 0.896867 -0.19806
vn -0.172968 0.302207 0.935717
vn -0.42568 0.836562 -0.342485
vn -0.905768 -0.0178626 -0.408916
vn -0.559627 -0.681646 -0.467748
vn -0.740396 -0.0123078 -0.660992
vn -0.959469 -0.0494251 -0.251399
vn -0.965739 -0.155944 0.168615
vn -0.942425 -0.130545 0.280136
vn -0.729461 -0.0591305 0.666264
vn -0.75114 -0.0403972 0.643194
vn -0.212407 -0.0974189 0.960287
vn -0.224774 -0.0729747 0.959686
vn -0.90924 -0.0321727 0.394687
vn -0.651649 0.133017 0.736575
vn -0.764603 0.0738914 0.625788
vn -0.0647067 0.669445 -0.727537
vn -0.0542594 0.650838 -0.744942
vn -0.808538 0.451933 -0.348869
vn -0.608668 0.453807 -0.634132
vn -0.086744 -0.731212 -0.671295
vn -0.0676539 -0.774941 -0.623377
vn 0.47528 0.745572 -0.458434
vn 0.869753 0.480618 0.0894559
vn 0.444933 0.853714 -0.257404
vn 0.589769 0.786196 0.175794
vn 0.737472 0.4518 0.494815
vn 0.797733 0.121273 0.583782
vn 0.842353 -0.0188546 0.529889
vn 0.914858 -0.194019 0.340222
vn 0.927567 -0.273593 0.235151
vn 0.923504 -0.266057 0.260467
vn 0.868429 -0.286137 0.396468
vn -0.84242 0.4817 -0.227525
vn 0.0109707 0.643545 -0.75979
vn -0.875886 0.451087 -0.146485
vn -0.869118 0.43016 -0.225974
vn -0.847722 0.34942 -0.388532
vn -0.8078 0.205075 -0.545035
vn -0.800594 0.06162 -0.588005
vn 0.831032 0.227758 -0.504917
vn 0.826384 0.0821834 -0.54827
vn 0.860858 0.367545 -0.350042
vn 0.873129 0.449584 -0.185702
vn 0.874668 0.471806 -0.107081
vn 0.842276 0.502717 -0.191375
vn 0.00266492 0.821437 -0.567241
vn -0.554853 0.737669 -0.365427
vn -0.541763 0.798585 -0.226623
vn -0.87036 0.47578 0.0519853
vn -0.674703 0.72134 0.0778171
vn -0.837006 0.436759 0.300462
vn -0.90111 0.11886 0.40409
vn -0.93717 0.0142689 0.342841
vn -0.974839 -0.120579 0.181701
vn -0.975672 -0.16395 0.140291
vn -0.961149 -0.144986 0.232161
vn -0.8743 -0.182209 0.447908
vn 0.82323 0.0418754 -0.551418
vn -0.00857017 0.916596 -0.384707
vn -0.00308821 0.916099 -0.386091
vn -0.000658523 0.905234 -0.418064
vn 0.00887342 0.915861 -0.38686
vn 0.0132676 0.916446 -0.385342
vn -0.79876 0.0319379 -0.588517
vn -0.503698 0.127574 0.845348
vn -0.326257 0.143935 0.928192
vn -0.118612 0.183838 0.971574
vn -0.120339 0.181078 0.970461
vn -0.0304208 0.325618 0.942942
vn 0.121004 0.310384 0.941448
vn 0.0369002 0.298076 0.951139
vn 0.273665 0.146381 0.945407
vn 0.0719252 0.174963 0.976641
vn 0.069305 0.1782 0.977513
vn -0.0290062 0.273705 0.957757
vn -0.0951707 0.29703 0.947271
vn 0.751573 -0.329085 0.566405
vn 0.963763 0.101652 0.238505
vn 0.516692 0.713843 -0.467859
vn 0.481567 0.735716 -0.469839
vn -0.728079 -0.245535 0.637728
vn -0.911952 0.150132 0.374698
vn -0.543558 0.74665 -0.372982
vn -0.529549 0.753764 -0.375429
vn 0.0155374 -0.0388088 -0.98951
vn 0.0191677 -0.0380511 -0.988324
vn 0.0185633 -0.0375768 -0.988279
vn 0.0152134 -0.0395847 -0.989454
vn 0.0118714 0.685481 -0.715831
vn 0.0113659 0.685191 -0.715965
vn 0.00876596 -0.798917 -0.595757
vn 0.00852735 -0.800073 -0.594214
vn 0.821956 -0.00321305 -0.553466
vn 0.873352 -0.0313721 -0.466755
vn 0.987062 0.00157399 -0.0981562
vn 0.9868 0.00698763 -0.104877
vn 0.986364 -0.00637664 -0.113298
vn 0.986776 -0.00213412 -0.108058
vn -0.00996962 0.97533 -0.198544
vn -0.912972 -0.0392357 -0.389976
vn -0.918735 -0.0370839 -0.374129
vn -0.916913 -0.0322958 -0.378623
vn -0.907661 -0.0294919 -0.402232
vn -0.915005 -0.0081431 -0.38617
vn -0.917338 -0.0118423 -0.380369
vn -0.90265 0.0103713 -0.416801
vn -0.907965 0.00301643 -0.405095
vn 0.0169001 -0.995785 0.0333759
vn 0.986472 0.0104385 -0.117123
vn 0.985631 0.00710803 -0.123283
vn 0.952076 0.00465993 -0.278944
vn 0.949293 -0.0190158 -0.285118
vn 0.950444 -0.0145934 -0.280975
vn 0.950907 0.0026585 -0.282825
vn 0.946047 -0.0272566 -0.298442
vn 0.948163 -0.0181397 -0.291267
vn -0.00133232 0.976465 -0.193313
vn -0.936868 -0.0366141 -0.328634
vn -0.939251 -0.0316014 -0.319578
vn -0.938227 -0.0269976 -0.322375
vn -0.93373 -0.0284848 -0.337083
vn -0.936971 -0.0045825 -0.329297
vn -0.938389 -0.00712898 -0.325202
vn -0.931724 0.00893985 -0.34706
vn -0.934617 0.00369082 -0.339223
vn -0.0120553 -0.995996 0.0334109
vn 0.947834 0.0127652 -0.297317
vn 0.944699 0.00629998 -0.306927
vn -0.991539 -0.0241969 -0.0327239
vn -0.992042 -0.00307695 -0.0378732
vn -0.992033 -0.00477007 -0.0344489
vn -0.991314 -0.0201183 -0.0377955
vn -0.992077 0.0118367 -0.0548649
vn -0.992369 0.0078748 -0.0481274
vn 0.956192 0.00995171 -0.269524
vn 0.96018 0.00329856 -0.249911
vn 0.958978 0.000559252 -0.254037
vn 0.953143 0.00337814 -0.279662
vn 0.958194 -0.0181535 -0.253867
vn 0.959084 -0.0139965 -0.250166
vn 0.95546 -0.0259306 -0.266959
vn 0.957282 -0.0177215 -0.259964
vn -0.991787 -0.0255431 -0.0480161
vn -0.991008 -0.0169724 -0.0601712
vn 0.856958 0.0421517 0.49927
vn 0.869816 0.0569686 0.475235
vn 0.868014 0.0560624 0.478249
vn 0.854759 0.0426651 0.503134
vn -0.348102 -0.0237366 -0.927694
vn -0.362805 -0.0749542 -0.918815
vn 0.0726497 -0.991436 0.0479711
vn 0.0811424 -0.990566 0.0447766
vn 0.0796278 -0.990718 0.0453416
vn 0.0703438 -0.991379 0.051915
vn -0.0928743 -0.991389 0.0322155
vn -0.0808783 -0.992432 0.0340661
vn -0.0826697 -0.992295 0.0336203
vn -0.0957018 -0.991258 0.0295877
vn 0.34305 -0.0242269 -0.928128
vn 0.367526 -0.067082 -0.915931
vn 0.364688 -0.0641608 -0.917025
vn 0.339598 -0.0255724 -0.92931
vn -0.905519 0.0519192 0.398839
vn -0.853514 0.0268723 0.502286
vn -0.860625 0.0273667 0.4902
vn -0.912014 0.05152 0.383644
vn -0.00757743 0.932676 0.349863
vn -0.0492423 0.939769 0.325794
vn 0.200822 0.655977 0.722848
vn -0.0639839 0.943699 0.311306
vn -0.0181363 -0.13968 0.981728
vn 0.516043 -0.145738 0.83164
vn 0.515722 -0.128448 0.836149
vn 0.302447 -0.690654 0.642371
vn 0.363078 -0.628672 0.676306
vn 0.406455 -0.574175 0.702388
vn 0.395777 -0.574732 0.71059
vn -0.414257 -0.585387 0.692532
vn -0.425754 -0.584519 0.684312
vn -0.389762 -0.628015 0.664766
vn -0.382892 -0.636365 0.660987
vn -0.32368 -0.694611 0.631382
vn 0.0386465 0.943214 0.319457
vn 0.0275283 0.939846 0.330009
vn -0.00417168 -0.966823 0.232741
vn -0.00179559 -0.98798 0.117487
vn 0.000341723 -0.988046 0.116384
vn -0.0189654 -0.97834 0.178175
vn -0.0226642 -0.937558 0.328231
vn -0.101893 -0.944562 0.296843
vn -0.0825343 -0.953593 0.273508
vn -0.0036909 -0.98814 0.115819
vn 0.0129791 -0.978602 0.176315
vn 0.010184 -0.936836 0.330371
vn 0.0919933 -0.943228 0.301016
vn 0.0736995 -0.952786 0.275998
vn -0.0014431 -0.945639 0.310079
vn -0.00884118 -0.945735 0.309813
vn -0.549261 -0.133645 0.813424
vn -0.547966 -0.148662 0.810067
usemtl bb
g Bob_ChestRig
s off
f 1/1/1 2/3/3 3/2/2
f 2/3/3 1/1/1 4/4/4
f 5/5/5 6/7/7 7/6/6
f 6/7/7 5/5/5 8/8/8
f 9/9/9 10/11/11 11/10/10
f 10/11/11 9/9/9 12/12/12
f 13/13/13 14/15/15 15/14/14
f 14/15/15 13/13/13 16/16/16
f 17/17/17 18/19/19 19/18/18
f 18/19/19 17/17/17 20/20/20
f 21/21/21 22/23/23 23/22/22
f 12/12/12 24/24/24 10/11/11
f 24/24/24 12/12/12 25/25/25
f 26/26/26 27/28/28 28/27/27
f 27/28/28 26/26/26 29/29/29
f 30/30/30 28/27/27 31/31/31
f 28/27/27 30/30/30 26/26/26
f 32/32/32 33/34/34 34/33/33
f 33/34/34 32/32/32 35/35/35
f 36/36/36 34/33/33 33/34/34
f 34/33/33 36/36/36 37/37/37
f 24/38/24 25/39/25 4/4/4
f 4/4/4 25/39/25 2/3/3
f 21/21/21 38/40/38 22/23/23
f 39/41/39 20/20/20 17/17/17
f 20/20/20 39/41/39 40/42/40
f 7/6/6 41/43/41 5/5/5
f 41/43/41 7/6/6 42/44/42
f 3/2/2 8/8/8 1/1/1
f 8/8/8 3/2/2 6/7/7
f 43/45/43 19/18/18 18/19/19
f 19/18/18 43/45/43 44/46/44
f 45/47/45 46/49/47 47/48/46
f 46/49/47 45/47/45 48/50/48
f 49/51/49 50/53/51 51/52/50
f 50/53/51 49/51/49 52/54/52
f 53/55/53 54/57/55 55/56/54
f 54/57/55 53/55/53 56/58/56
f 57/59/57 58/61/59 59/60/58
f 58/61/59 57/59/57 60/62/60
f 61/63/61 62/65/63 63/64/62
f 62/65/63 61/63/61 64/66/64
f 55/56/54 54/57/55 65/67/65
f 53/55/53 66/68/66 56/58/56
f 65/67/65 67/69/67 55/56/54
f 68/70/68 69/72/70 70/71/69
f 69/72/70 68/70/68 71/73/71
f 72/74/72 71/73/71 68/70/68
f 71/73/71 72/74/72 73/75/73
f 72/74/72 74/76/74 73/75/73
f 74/76/74 72/74/72 75/77/75
f 36/78/36 76/80/76 37/79/37
f 76/80/76 36/78/36 77/81/77
f 65/82/65 47/48/46 67/83/67
f 47/48/46 46/49/47 67/83/67
f 78/84/78 79/86/80 80/85/79
f 61/63/61 81/87/81 64/66/64
f 81/87/81 61/63/61 82/88/82
f 52/54/52 83/90/84 84/89/83
f 83/90/84 52/54/52 49/51/49
f 48/50/48 51/52/50 50/53/51
f 51/52/50 48/50/48 45/47/45
f 62/65/63 85/91/85 63/64/62
f 85/91/85 62/65/63 86/92/86
f 31/31/31 32/32/32 30/30/30
f 32/32/32 31/31/31 35/35/35
f 77/81/77 75/77/75 76/80/76
f 75/77/75 77/81/77 74/76/74
f 22/23/87 38/40/89 87/93/88
f 87/94/88 38/40/89 42/44/90
f 7/6/91 87/95/88 42/44/90
f 6/7/92 87/96/88 7/6/91
f 3/2/93 87/97/88 6/7/92
f 2/3/94 87/98/88 3/2/93
f 2/3/94 25/39/95 87/99/88
f 25/25/95 12/12/96 87/100/88
f 12/12/96 9/9/97 87/101/88
f 11/10/98 10/11/100 88/102/99
f 10/11/100 24/24/101 88/103/99
f 24/38/101 4/4/102 88/104/99
f 4/4/102 1/1/103 88/105/99
f 1/1/103 8/8/104 88/106/99
f 45/47/105 88/107/99 51/52/106
f 47/48/107 88/108/99 45/47/105
f 47/48/107 65/82/108 88/109/99
f 65/67/108 54/57/109 88/110/99
f 54/57/109 56/58/110 88/111/99
f 56/58/110 89/113/111 88/112/99
f 89/114/111 11/10/98 88/115/99
f 80/85/112 90/116/114 78/84/113
f 78/84/113 90/117/114 84/89/115
f 90/118/114 52/54/116 84/89/115
f 90/119/114 50/53/117 52/54/116
f 90/120/114 48/50/118 50/53/117
f 46/49/119 48/50/118 90/121/114
f 67/83/120 46/49/119 90/122/114
f 55/56/121 67/69/120 90/123/114
f 55/56/121 90/124/114 53/55/122
f 42/44/42 31/31/31 28/27/27
f 31/31/31 42/44/42 38/40/38
f 73/75/73 84/89/83 71/73/71
f 84/89/83 73/75/73 78/84/78
f 78/84/78 73/75/73 79/86/80
f 88/106/99 49/51/123 51/52/106
f 49/51/124 88/106/126 91/125/125
f 88/106/126 5/5/128 92/126/127
f 88/106/99 8/8/104 5/5/129
f 79/86/80 93/127/130 80/85/79
f 80/85/79 93/127/130 94/128/131
f 93/127/130 95/129/132 94/128/131
f 95/129/132 93/127/130 96/130/133
f 89/114/134 97/131/135 11/10/10
f 97/131/135 89/114/134 98/132/136
f 97/131/135 9/9/9 11/10/10
f 22/23/23 99/133/137 23/22/22
f 23/22/22 100/135/139 101/134/138
f 100/135/139 23/22/22 99/133/137
f 101/134/138 98/132/136 102/136/140
f 98/132/136 101/134/138 100/135/139
f 98/132/136 89/114/134 102/136/140
f 89/113/134 103/138/141 102/137/140
f 89/113/134 66/68/66 103/138/141
f 66/68/66 89/113/134 56/58/56
f 96/130/133 103/138/141 95/129/132
f 103/138/141 96/130/133 102/137/140
f 79/86/80 73/75/73 74/76/74
f 21/21/21 31/31/31 38/40/38
f 9/9/97 97/131/142 87/139/88
f 97/131/142 98/132/143 87/140/88
f 98/132/143 100/135/144 87/141/88
f 100/135/144 99/133/145 87/142/88
f 99/133/145 22/23/87 87/143/88
f 90/144/114 66/68/146 53/55/122
f 90/145/114 103/138/147 66/68/146
f 90/146/114 95/129/148 103/138/147
f 90/147/114 94/128/149 95/129/148
f 90/148/114 80/85/112 94/128/149
f 88/106/126 92/126/127 91/125/125
f 104/149/150 105/151/152 106/150/151
f 105/151/152 104/149/150 107/152/153
f 106/150/151 108/154/155 109/153/154
f 108/154/155 106/150/151 105/151/152
f 110/155/156 107/152/153 104/149/150
f 107/152/153 110/155/156 111/156/157
f 27/28/158 20/20/160 41/43/159
f 20/20/160 27/28/158 18/19/161
f 41/43/159 40/42/163 5/5/162
f 40/42/163 41/43/159 20/20/160
f 5/5/5 39/41/39 92/126/164
f 39/41/39 5/5/5 40/42/40
f 92/126/165 17/17/167 112/157/166
f 17/17/167 92/126/165 39/41/168
f 112/157/166 19/18/170 113/158/169
f 19/18/170 112/157/166 17/17/167
f 113/158/169 44/46/172 114/159/171
f 44/46/172 113/158/169 19/18/170
f 114/159/173 43/45/43 29/29/29
f 43/45/43 114/159/173 44/46/44
f 29/29/174 18/19/161 27/28/158
f 18/19/161 29/29/174 43/45/175
f 113/158/176 106/150/178 112/157/177
f 106/150/178 113/158/176 104/149/179
f 112/157/177 109/153/181 92/126/180
f 109/153/181 112/157/177 106/150/178
f 92/126/164 108/154/155 91/125/182
f 108/154/155 92/126/164 109/153/154
f 91/125/183 105/151/185 115/160/184
f 105/151/185 91/125/183 108/154/186
f 115/160/184 107/152/188 116/161/187
f 107/152/188 115/160/184 105/151/185
f 116/161/187 111/156/190 117/162/189
f 111/156/190 116/161/187 107/152/188
f 117/162/191 110/155/156 114/159/173
f 110/155/156 117/162/191 111/156/157
f 114/159/192 104/149/179 113/158/176
f 104/149/179 114/159/192 110/155/193
f 83/90/194 63/64/196 69/72/195
f 63/64/196 83/90/194 61/63/197
f 69/72/195 85/91/199 70/71/198
f 85/91/199 69/72/195 63/64/196
f 70/71/69 86/92/86 117/162/191
f 86/92/86 70/71/69 85/91/85
f 117/162/200 62/65/202 116/161/201
f 62/65/202 117/162/200 86/92/203
f 116/161/201 64/66/205 115/160/204
f 64/66/205 116/161/201 62/65/202
f 115/160/204 81/87/207 91/125/206
f 81/87/207 115/160/204 64/66/205
f 91/125/182 82/88/82 49/51/49
f 82/88/82 91/125/182 81/87/81
f 49/51/208 61/63/197 83/90/194
f 61/63/197 49/51/208 82/88/209
f 28/27/210 16/16/212 42/44/211
f 16/16/212 28/27/210 14/15/213
f 42/44/42 13/13/13 41/43/41
f 13/13/13 42/44/42 16/16/16
f 41/43/159 15/14/214 27/28/158
f 15/14/214 41/43/159 13/13/215
f 27/28/216 14/15/218 28/27/217
f 14/15/218 27/28/216 15/14/219
f 71/73/220 60/62/222 69/72/221
f 60/62/222 71/73/220 58/61/223
f 69/72/224 57/59/226 83/90/225
f 57/59/226 69/72/224 60/62/227
f 83/90/84 59/60/58 84/89/83
f 59/60/58 83/90/84 57/59/57
f 84/89/228 58/61/230 71/73/229
f 58/61/230 84/89/228 59/60/231
f 36/78/232 118/163/234 77/81/233
f 118/164/234 74/76/235 77/81/233
f 118/165/236 79/86/238 74/76/237
f 118/166/234 93/127/240 79/86/239
f 118/167/234 96/130/241 93/127/240
f 102/137/242 96/130/241 118/168/234
f 102/136/243 118/169/245 101/134/244
f 101/134/244 118/170/245 23/22/246
f 23/22/246 118/171/245 21/21/247
f 118/172/234 33/34/249 35/35/248
f 118/173/234 36/36/232 33/34/249
f 119/174/250 34/33/252 37/37/251
f 32/32/253 34/33/252 119/175/250
f 32/32/253 119/176/250 30/30/254
f 30/30/254 119/177/250 26/26/255
f 26/26/255 119/178/250 29/29/256
f 37/79/251 76/80/257 119/179/250
f 76/80/257 75/77/258 119/180/250
f 75/77/258 72/74/259 119/181/250
f 68/70/260 119/182/250 72/74/259
f 70/71/261 119/183/250 68/70/260
f 117/162/262 119/184/250 70/71/261
f 114/159/263 119/185/250 117/162/262
f 29/29/256 119/186/250 114/159/263
f 21/21/21 35/35/35 31/31/31
f 21/21/264 118/187/236 35/35/265
