# Wavefront OBJ
# Created by fragMOTION 1.3.7
# http://www.fragmosoft.com

mtllib Bob_Jacket.mtl
# 168 vertices
v 0.0731174 0.773583 -0.0328453
v 0.0408306 0.767046 -0.0432211
v 0.0425241 0.798626 -0.0247943
v 0.0854553 0.751799 -0.036894
v 0.103571 0.723618 -0.0341755
v 0.0654068 0.699803 -0.0579886
v 0.0496961 0.734495 -0.0532752
v 0.105859 0.700701 -0.0211872
v 0.0371092 0.823281 0.0291172
v 0.0843429 0.794195 0.0574363
v 0.0782055 0.807348 0.0203559
v 0.051161 0.796933 0.0637194
v 0.10132 0.559977 0.0503994
v 0.0544855 0.57127 0.0839047
v 0.0502833 0.562091 0.0860847
v 0.0983848 0.568454 0.0461879
v 0.0944076 0.558552 -0.0178044
v 0.105251 0.533604 0.00352168
v 0.0593037 0.548417 -0.0572673
v 0.0873944 0.502994 -0.0294546
v 0.0534125 0.495652 -0.0486595
v 0.00820368 0.697882 -0.0675614
v 0.00732127 0.735513 -0.0571919
v 0.00798663 0.571249 0.0863774
v 0.00803966 0.560679 0.0904748
v 0.0598125 0.655567 0.0843949
v 0.00507822 0.695767 0.0907248
v 0.00561861 0.656037 0.0879983
v 0.064152 0.698229 0.0872859
v 0.111038 0.511394 0.0834942
v 0.0520081 0.515003 0.108893
v 0.111719 0.505435 0.0153193
v 0.0598722 0.611058 0.0835246
v 0.0951405 0.654039 0.0639746
v 0.109448 0.659948 0.0415829
v 0.0913174 0.611632 -0.0197733
v 0.103449 0.665375 -0.0181304
v 0.10076 0.608261 0.0389515
v 0.0640709 0.665384 -0.05345
v 0.0634843 0.6094 -0.0529056
v 0.00812935 0.664555 -0.0616448
v 0.00947197 0.604438 -0.0635231
v 0.137591 0.725077 -0.0253006
v 0.154045 0.680479 -0.00543349
v 0.0727328 0.725526 -0.0225259
v 0.0967932 0.623582 0.0151807
v 0.0825237 0.667814 -0.0053182
v 0.157315 0.634128 0.0153709
v 0.0678208 0.737154 0.0465534
v 0.078477 0.691432 0.0698565
v 0.0936412 0.637857 0.080497
v 0.0826147 0.737801 0.0583956
v 0.149829 0.704475 0.0696597
v 0.13348 0.749134 0.0513198
v 0.153793 0.648017 0.0807686
v 0.147093 0.737752 0.00933499
v 0.164325 0.615405 0.00784485
v 0.114267 0.541828 0.00402885
v 0.0954135 0.600833 0.00834142
v 0.162101 0.554087 0.00324159
v 0.115764 0.504933 -0.002358
v 0.166079 0.509687 -0.00270509
v 0.124613 0.540719 0.0736038
v 0.0955729 0.599005 0.0836995
v 0.127652 0.495185 0.0654414
v 0.162384 0.551147 0.0721819
v 0.16409 0.613878 0.0834667
v 0.167361 0.499076 0.061474
v 0.106068 0.799603 0.0257299
v 0.112097 0.800763 -0.00838261
v 0.0738982 0.798371 -0.00718546
v 0.105033 0.701869 0.0686084
v 0.0500026 0.815058 -0.00483552
v 0.106262 0.778393 -0.0342017
v 0.107628 0.744862 -0.0338743
v 0.105119 0.750797 0.0633013
v 0.0637473 0.740501 0.082759
v 0.105688 0.753226 0.0608839
v 0.00411489 0.73503 0.0849695
v 0.00380568 0.792121 0.0616209
v 0.109657 0.715238 0.00322005
v 0.10679 0.737719 0.0465661
v 0.114352 0.701248 0.0281753
v 0.109361 0.697633 -0.00431787
v 0.115522 0.7022 0.0471372
v 0.0100863 0.54878 -0.0624456
v 0.00799857 0.483316 -0.0579416
v 0.00568221 0.517318 0.109599
v 0.00681574 0.610925 0.0852013
v 0.00390668 0.823745 0.0389636
v 0.107802 0.721071 0.0179563
v -0.0606562 0.772926 -0.0359165
v -0.0276945 0.766041 -0.0447701
v -0.072706 0.750659 -0.0405158
v -0.0311611 0.79752 -0.0264517
v -0.0896466 0.721098 -0.0381954
v -0.049348 0.698438 -0.060388
v -0.0912317 0.698356 -0.0253081
v -0.0351392 0.733251 -0.0551929
v -0.0289041 0.822278 0.027636
v -0.0764932 0.792216 0.0539072
v -0.0437167 0.795542 0.0615747
v -0.0676839 0.801434 0.0187536
v -0.0842194 0.56646 0.0463527
v -0.0384762 0.574293 0.0819133
v -0.0806583 0.57452 0.0423067
v -0.033863 0.565644 0.0841862
v -0.0747796 0.564432 -0.0215515
v -0.0868659 0.542642 -0.000968549
v -0.038034 0.552489 -0.0597517
v -0.0709325 0.5098 -0.034985
v -0.0368289 0.499722 -0.0534064
v -0.0484185 0.654654 0.0823654
v -0.0538335 0.696826 0.084819
v -0.0984329 0.521248 0.0785983
v -0.0403667 0.51959 0.108266
v -0.0964915 0.515229 0.0104529
v -0.0461356 0.611741 0.0815164
v -0.0830353 0.652535 0.0606334
v -0.0965911 0.658209 0.0377192
v -0.0739658 0.612639 -0.0228951
v -0.0834572 0.611402 0.0352383
v -0.0886004 0.663754 -0.0217317
v -0.0477194 0.664525 -0.0555854
v -0.0467885 0.609138 -0.0548943
v -0.125692 0.725264 -0.0308912
v -0.0609665 0.725523 -0.0258904
v -0.142969 0.680823 -0.0113749
v -0.0871801 0.620547 0.0118899
v -0.147535 0.631805 0.00973883
v -0.0715361 0.667933 -0.00873603
v -0.0583924 0.737495 0.0432568
v -0.0699963 0.691928 0.0664121
v -0.0851233 0.641239 0.0754611
v -0.0735823 0.738249 0.0545799
v -0.141255 0.705196 0.0636957
v -0.124136 0.749707 0.0457018
v -0.145108 0.65216 0.0734188
v -0.136337 0.73815 0.00333218
v -0.155536 0.608895 0.00665968
v -0.107362 0.534873 0.0182331
v -0.154865 0.54788 0.0145816
v -0.0870215 0.593051 0.0106705
v -0.108431 0.495647 0.0199406
v -0.159406 0.501789 0.0187892
v -0.117959 0.548132 0.0865036
v -0.0874931 0.606237 0.0846733
v -0.125045 0.505214 0.0849661
v -0.155446 0.558974 0.082685
v -0.155619 0.62238 0.0809131
v -0.160338 0.508353 0.0806997
v -0.0957637 0.799803 0.0210184
v -0.100165 0.800976 -0.0133694
v -0.0625717 0.797984 -0.0103281
v -0.0939822 0.699502 0.0644472
v -0.0400302 0.81368 -0.00685216
v -0.0931647 0.778179 -0.038968
v -0.0950812 0.745328 -0.0381564
v -0.096364 0.748566 0.0587089
v -0.0968842 0.751041 0.0561413
v -0.0554915 0.738753 0.0800637
v -0.0978464 0.713087 -0.00125909
v -0.0990827 0.728841 0.0436869
v -0.101548 0.69868 0.023661
v -0.0955363 0.695195 -0.00860205
v -0.103613 0.699593 0.0425553
v -0.0982631 0.717694 0.0139439
v 0.00564606 0.755327 0.00447102
# 243 texture vertices
vt 0.603976 -0.300641
vt 0.534528 -0.296685
vt 0.535689 -0.312112
vt 0.607193 -0.314765
vt 0.610871 -0.355999
vt 0.542763 -0.342918
vt 0.557679 -0.388221
vt 0.608641 -0.390579
vt 0.752331 -0.240096
vt 0.695102 -0.256256
vt 0.69064 -0.291937
vt 0.741758 -0.289667
vt 0.654361 -0.548598
vt 0.743856 -0.546954
vt 0.741535 -0.533852
vt 0.651573 -0.534998
vt 0.57922 -0.533981
vt 0.617274 -0.557917
vt 0.542595 -0.531789
vt 0.538974 -0.574682
vt 0.576694 -0.571959
vt 0.5 -0.345979
vt 0.5 -0.388388
vt 0.792669 -0.545963
vt 0.792636 -0.531741
vt 0.737049 -0.443036
vt 0.792721 -0.437319
vt 0.792944 -0.388496
vt 0.733702 -0.387537
vt 0.678379 -0.58535
vt 0.743906 -0.578772
vt 0.621698 -0.580619
vt 0.741282 -0.490468
vt 0.670075 -0.445485
vt 0.64863 -0.437634
vt 0.60213 -0.430189
vt 0.585056 -0.484302
vt 0.652465 -0.490356
vt 0.55797 -0.421974
vt 0.551735 -0.483643
vt 0.5 -0.421841
vt 0.499977 -0.485786
vt 0.86076 -0.111948
vt 0.843231 -0.111031
vt 0.86655 -0.170343
vt 0.841544 -0.177954
vt 0.842416 -0.253649
vt 0.864913 -0.245066
vt 0.925985 -0.112119
vt 0.927103 -0.159317
vt 0.954276 -0.147803
vt 0.926386 -0.225606
vt 0.948863 -0.233503
vt 0.912585 -0.119896
vt 0.899126 -0.115994
vt 0.891727 -0.16141
vt 0.893098 -0.233857
vt 0.885675 -0.117033
vt 0.864821 -0.288259
vt 0.844277 -0.292554
vt 0.847931 -0.39456
vt 0.866639 -0.393311
vt 0.848023 -0.457371
vt 0.863941 -0.456587
vt 0.949963 -0.277245
vt 0.92342 -0.27387
vt 0.913602 -0.368504
vt 0.953838 -0.381233
vt 0.906609 -0.451595
vt 0.949085 -0.455732
vt 0.8935 -0.278527
vt 0.890682 -0.381986
vt 0.885541 -0.453016
vt 0.897534 -0.059442
vt 0.886667 -0.065151
vt 0.899981 -0.024266
vt 0.88451 -0.024361
vt 0.696239 -0.383487
vt 0.725719 -0.226605
vt 0.86566 -0.066431
vt 0.867962 -0.024353
vt 0.856743 -0.024579
vt 0.854629 -0.084885
vt 0.701421 -0.329308
vt 0.732649 -0.332749
vt 0.692811 -0.310135
vt 0.792513 -0.341719
vt 0.791697 -0.285986
vt 0.911263 -0.059194
vt 0.910251 -0.082896
vt 0.935548 -0.047255
vt 0.924806 -0.080877
vt 0.953871 -0.104738
vt 0.647809 -0.384287
vt 0.621985 -0.395149
vt 0.964045 -0.046156
vt 0.660687 -0.378998
vt 0.681759 -0.232972
vt 0.5 -0.531429
vt 0.5 -0.577819
vt 0.792668 -0.57476
vt 0.79329 -0.492605
vt 0.581168 -0.257534
vt 0.585163 -0.277191
vt 0.6743 -0.332125
vt 0.791822 -0.254309
vt 0.642272 -0.359523
vt 0.630401 -0.361163
vt 0.841925 -0.054975
vt 0.912097 -0.056494
vt 0.396024 -0.300641
vt 0.392807 -0.314765
vt 0.464455 -0.312301
vt 0.467204 -0.296949
vt 0.389115 -0.356135
vt 0.391359 -0.390579
vt 0.442321 -0.388221
vt 0.457237 -0.342918
vt 0.247669 -0.240096
vt 0.258242 -0.289667
vt 0.30936 -0.291937
vt 0.304898 -0.256256
vt 0.345639 -0.548598
vt 0.348427 -0.534998
vt 0.258447 -0.533843
vt 0.256425 -0.546689
vt 0.42078 -0.533981
vt 0.382726 -0.557917
vt 0.457405 -0.531789
vt 0.423306 -0.571959
vt 0.461026 -0.574682
vt 0.207439 -0.531753
vt 0.207432 -0.545928
vt 0.262951 -0.443036
vt 0.266298 -0.387537
vt 0.207056 -0.388496
vt 0.207279 -0.437319
vt 0.256094 -0.578772
vt 0.321621 -0.58535
vt 0.378302 -0.580619
vt 0.258354 -0.490774
vt 0.329925 -0.445485
vt 0.35137 -0.437634
vt 0.347535 -0.490356
vt 0.414944 -0.484302
vt 0.39787 -0.430189
vt 0.448265 -0.483643
vt 0.44203 -0.421974
vt 0.13924 -0.111948
vt 0.13345 -0.170343
vt 0.156769 -0.111031
vt 0.135087 -0.245066
vt 0.157584 -0.253649
vt 0.158456 -0.177954
vt 0.074015 -0.112119
vt 0.045724 -0.147803
vt 0.072897 -0.159317
vt 0.051136 -0.233503
vt 0.073614 -0.225606
vt 0.087415 -0.119896
vt 0.108273 -0.16141
vt 0.100874 -0.115994
vt 0.106902 -0.233857
vt 0.114325 -0.117033
vt 0.135179 -0.288259
vt 0.133361 -0.393311
vt 0.152069 -0.39456
vt 0.155723 -0.292554
vt 0.136059 -0.456587
vt 0.151977 -0.457371
vt 0.050037 -0.277245
vt 0.046162 -0.381233
vt 0.086398 -0.368504
vt 0.07658 -0.27387
vt 0.050915 -0.455732
vt 0.093391 -0.451595
vt 0.109318 -0.381986
vt 0.1065 -0.278527
vt 0.114459 -0.453016
vt 0.102466 -0.059442
vt 0.113333 -0.065151
vt 0.11549 -0.024361
vt 0.100019 -0.024266
vt 0.303761 -0.383487
vt 0.274281 -0.226605
vt 0.13434 -0.066431
vt 0.145371 -0.084885
vt 0.143257 -0.024579
vt 0.132038 -0.024353
vt 0.298579 -0.329308
vt 0.307189 -0.310135
vt 0.267351 -0.332749
vt 0.207487 -0.341719
vt 0.208268 -0.286002
vt 0.088737 -0.059194
vt 0.089749 -0.082896
vt 0.068429 -0.05131
vt 0.046129 -0.104738
vt 0.076572 -0.08411
vt 0.378015 -0.395149
vt 0.352191 -0.384287
vt 0.046536 -0.049862
vt 0.339313 -0.378998
vt 0.318241 -0.232972
vt 0.207332 -0.57476
vt 0.206678 -0.492615
vt 0.418832 -0.257534
vt 0.414837 -0.277191
vt 0.321146 -0.348261
vt 0.207822 -0.25435
vt 0.356211 -0.361408
vt 0.373278 -0.363389
vt 0.157879 -0.035985
vt 0.070969 -0.061759
vt 0.091627 -0.350187
vt 0.150214 -0.355963
vt 0.134295 -0.355179
vt 0.112695 -0.351607
vt 0.862178 -0.355179
vt 0.846259 -0.355963
vt 0.904846 -0.350187
vt 0.883778 -0.351607
vt 0.319858 -0.483941
vt 0.254331 -0.477364
vt 0.205568 -0.473352
vt 0.376539 -0.479211
vt 0.421542 -0.470551
vt 0.459263 -0.473274
vt 0.498236 -0.47641
vt 0.790904 -0.473352
vt 0.742142 -0.477364
vt 0.676615 -0.483941
vt 0.619934 -0.479211
vt 0.574931 -0.470551
vt 0.53721 -0.473274
vt 0.229282 -0.259954
vt 0.263552 -0.246097
vt 0.430369 -0.284292
vt 0.470382 -0.329998
vt 0.764449 -0.263675
vt 0.728158 -0.255045
vt 0.565196 -0.285703
vt 0.526955 -0.326692
# 196 normals
vn 0.07782 0.460065 -0.882997
vn 0.190016 0.618497 -0.761606
vn 0.045392 0.430173 -0.901605
vn 0.167592 0.11093 -0.979359
vn 0.57684 -0.200085 -0.771232
vn 0.204301 0.283326 -0.93701
vn 0.389616 0.0521628 -0.910852
vn 0.868167 -0.122655 -0.466142
vn 0.262084 0.893785 0.361465
vn 0.328917 0.894811 0.0946594
vn 0.221827 0.585705 0.773952
vn 0.101326 0.575379 0.811586
vn 0.853269 0.40969 0.31783
vn 0.26619 0.354488 0.895758
vn 0.371988 0.0800629 0.921993
vn 0.920072 0.215482 0.321322
vn 0.910168 0.0240159 -0.406009
vn 0.959496 0.138853 -0.245125
vn 0.424721 -0.0862418 -0.895654
vn 0.306539 -0.0627068 -0.90922
vn 0.739298 0.00648438 -0.641964
vn 0.0165538 0.32747 -0.944717
vn 0.0191399 0.0724017 -0.989124
vn -0.00207067 0.422635 0.905894
vn -0.0113244 0.267684 0.961056
vn 0.28626 -0.0389917 0.94609
vn -0.0165599 -0.036926 0.987642
vn -0.0197819 0.0166134 0.991846
vn 0.252648 -0.021406 0.959545
vn 0.759302 0.427168 0.490904
vn 0.219734 0.414931 0.862001
vn 0.970729 0.121805 -0.207
vn 0.383515 0.000306771 0.914938
vn 0.694538 -0.180387 0.681773
vn 0.955018 -0.204667 0.164426
vn 0.864465 -0.15906 -0.45473
vn 0.896969 -0.116414 -0.407747
vn 0.947179 -0.152318 0.259156
vn 0.436404 -0.0921926 -0.882383
vn 0.504814 -0.0440479 -0.850581
vn 0.0167007 -0.07473 -0.986033
vn 0.0169513 -0.0425075 -0.991382
vn 0.555699 -0.170471 -0.813719
vn -0.591137 -0.549678 -0.590265
vn 0.740268 -0.153203 -0.654623
vn -0.644873 -0.39305 -0.655478
vn -0.68682 -0.149954 -0.705756
vn 0.714845 0.101411 -0.688262
vn -0.901008 0.073536 0.427525
vn -0.708701 -0.0123092 0.705402
vn -0.708681 -0.0422827 0.700484
vn -0.320685 0.207431 0.924194
vn 0.619891 0.284798 0.731182
vn 0.663842 0.279122 0.693835
vn 0.663302 0.187479 0.718904
vn 0.994164 0.10163 -0.0361896
vn 0.691657 0.215802 -0.689231
vn -0.73764 -0.0446907 -0.673715
vn -0.755001 -0.0464493 -0.654078
vn 0.683719 0.106064 -0.721997
vn -0.747479 0.0775759 -0.657782
vn 0.675328 0.272976 -0.675423
vn -0.699122 -0.212756 0.682044
vn -0.544478 -0.285315 0.788757
vn -0.589889 -0.293983 0.743334
vn 0.720728 0.0627119 0.689554
vn 0.71714 -0.102591 0.689338
vn 0.789075 -0.0397257 0.610658
vn 0.227085 0.943206 0.237175
vn 0.225434 0.905177 -0.35199
vn 0.170012 0.825643 -0.53194
vn 0.696406 -0.0807059 0.703697
vn 0.36743 0.845818 -0.383932
vn 0.0565758 0.488805 -0.844382
vn 0.178305 -0.221343 -0.931165
vn 0.65727 0.0757646 0.716277
vn 0.195155 0.208243 0.95841
vn 0.496479 0.0460731 0.845809
vn -0.0253486 0.228485 0.973217
vn -0.0268552 0.478867 0.877477
vn 0.764821 -0.595731 0.0434062
vn 0.460823 -0.538839 0.629252
vn 0.989648 -0.0340615 -0.0863337
vn 0.976028 -0.083814 -0.166437
vn 0.974662 -0.0355081 0.19291
vn 0.0178416 -0.0885366 -0.99277
vn 0.0191401 -0.0880367 -0.995933
vn -0.00264051 0.399387 0.916779
vn -0.0168793 0.0573761 0.989743
vn -0.0258334 0.703834 0.708411
vn 0.945738 -0.0630946 0.0117999
vn -0.0392349 0.461918 -0.88583
vn -0.124198 0.11008 -0.986112
vn -0.0171993 0.429255 -0.90302
vn -0.174437 0.613025 -0.769803
vn -0.534847 -0.21871 -0.808889
vn -0.845616 -0.142792 -0.504751
vn -0.35384 0.0434307 -0.926377
vn -0.170093 0.27779 -0.945464
vn -0.355523 0.872003 0.333871
vn -0.154701 0.571626 0.805799
vn -0.266952 0.595763 0.739323
vn -0.33328 0.880006 0.0587514
vn -0.835007 0.468627 0.281004
vn -0.915964 0.277694 0.281522
vn -0.404624 0.105319 0.905357
vn -0.275439 0.377345 0.883542
vn -0.888618 0.082778 -0.445504
vn -0.929785 0.227628 -0.289284
vn -0.391003 -0.0552968 -0.917406
vn -0.711882 0.0559479 -0.697363
vn -0.274522 -0.0444453 -0.956052
vn -0.317786 -0.04409 0.934763
vn -0.290161 -0.0278619 0.948196
vn -0.219374 0.440533 0.867259
vn -0.73795 0.497537 0.455946
vn -0.944312 0.211845 -0.251786
vn -0.415553 0.00545476 0.8998
vn -0.716682 -0.192298 0.65531
vn -0.959798 -0.22011 0.128075
vn -0.961911 -0.119762 0.220674
vn -0.884362 -0.105556 -0.441392
vn -0.848293 -0.174006 -0.486808
vn -0.477097 -0.0463806 -0.868289
vn -0.405618 -0.0986623 -0.898467
vn -0.527974 -0.17294 -0.831466
vn -0.717843 -0.154259 -0.678901
vn 0.608467 -0.556011 -0.566232
vn -0.698992 0.0432463 -0.710277
vn 0.69899 -0.225817 -0.672799
vn 0.665699 -0.398496 -0.630908
vn 0.853711 -0.124253 0.505706
vn 0.683995 -0.0108853 0.729406
vn 0.694267 0.0218316 0.715661
vn 0.25909 0.182058 0.948539
vn -0.686356 0.284829 0.669169
vn -0.643696 0.290561 0.707976
vn -0.674158 0.270239 0.681438
vn -0.991987 0.10459 -0.0708681
vn -0.683682 0.0885092 -0.724393
vn -0.680296 -0.0360813 -0.732049
vn 0.757343 -0.202576 -0.620802
vn 0.738434 -0.198189 -0.644544
vn -0.67817 0.0863267 -0.702645
vn 0.777955 -0.106463 -0.609252
vn 0.533496 -0.166904 0.829172
vn 0.690516 -0.0921486 0.716878
vn 0.542909 -0.137132 0.800469
vn -0.722525 0.0458227 0.689825
vn -0.722091 0.212684 0.657425
vn -0.791446 0.127234 0.588493
vn -0.162929 0.962614 0.205331
vn -0.181513 0.915732 -0.347633
vn -0.165636 0.868164 -0.466295
vn -0.710499 -0.114788 0.68406
vn -0.436527 0.832065 -0.339708
vn -0.00780301 0.47839 -0.85236
vn -0.127145 -0.227857 -0.953255
vn -0.650971 0.0850106 0.684686
vn -0.499422 0.104977 0.808022
vn -0.24427 0.201801 0.948477
vn -0.779823 -0.576732 -0.0779919
vn -0.617414 -0.494293 0.48977
vn -0.965302 -0.112246 -0.213917
vn -0.981946 -0.106376 -0.120221
vn -0.978604 -0.104958 0.14322
vn -0.930745 0.0787554 -0.168494
vn -0.107614 -0.9603 0.104693
vn -0.121212 -0.957861 0.110797
vn -0.109567 -0.96036 0.10867
vn -0.0951835 -0.96257 0.100845
vn 0.0858683 -0.976325 -0.154844
vn 0.0964158 -0.974793 -0.156772
vn 0.0849882 -0.975057 -0.161848
vn 0.0745384 -0.975918 -0.162709
vn -0.0675125 -0.992605 0.10088
vn -0.0965332 -0.967892 0.217825
vn -0.0501091 -0.985913 0.159576
vn -0.0942445 -0.988538 0.117945
vn -0.13589 -0.978684 0.0704062
vn -0.188698 -0.966978 0.119594
vn -0.0506763 -0.978899 0.197961
vn 0.00190707 -0.956891 0.216995
vn -0.0306933 -0.994337 0.101741
vn -0.00452222 -0.992758 0.120042
vn 0.0644322 -0.939719 0.0661723
vn 0.109668 -0.941768 0.118636
vn 0.0132485 0.452444 -0.890594
vn 0.546688 0.51281 -0.660711
vn -0.000728823 0.848046 -0.5293
vn 0.781374 0.557982 -0.277304
vn 0.795182 0.588982 -0.14201
vn -0.00704514 0.952067 -0.305809
vn -0.532306 0.496423 -0.68492
vn -0.785223 0.534001 -0.312393
vn -0.805452 0.564953 -0.178013
usemtl _17_-_Default
g Bob_Jacket
s off
f 1/1/1 2/3/3 3/2/2
f 2/3/3 1/1/1 4/4/4
f 5/5/5 6/7/7 7/6/6
f 6/7/7 5/5/5 8/8/8
f 9/9/9 10/11/11 11/10/10
f 10/11/11 9/9/9 12/12/12
f 13/13/13 14/15/15 15/14/14
f 14/15/15 13/13/13 16/16/16
f 17/17/17 13/13/13 18/18/18
f 13/13/13 17/17/17 16/16/16
f 19/19/19 20/21/21 21/20/20
f 20/21/21 19/19/19 17/17/17
f 7/6/6 22/23/23 23/22/22
f 22/23/23 7/6/6 6/7/7
f 15/14/14 24/25/25 25/24/24
f 24/25/25 15/14/14 14/15/15
f 26/26/26 27/28/28 28/27/27
f 27/28/28 26/26/26 29/29/29
f 15/14/14 30/30/30 13/13/13
f 30/30/30 15/14/14 31/31/31
f 13/13/13 32/32/32 18/18/18
f 32/32/32 13/13/13 30/30/30
f 33/33/33 34/34/34 26/26/26
f 35/35/35 36/37/37 37/36/36
f 36/37/37 35/35/35 38/38/38
f 36/37/37 39/39/39 37/36/36
f 39/39/39 36/37/37 40/40/40
f 41/41/41 40/40/40 42/42/42
f 40/40/40 41/41/41 39/39/39
f 43/43/43 44/45/45 45/44/44
f 44/45/45 46/47/47 47/46/46
f 46/47/47 44/45/45 48/48/48
f 49/49/49 47/51/46 50/50/50
f 47/51/46 51/52/51 50/50/50
f 51/52/51 47/51/46 46/53/47
f 52/54/52 53/56/54 54/55/53
f 52/54/52 50/50/50 53/56/54
f 52/54/52 49/49/49 50/50/50
f 50/50/50 55/57/55 53/56/54
f 55/57/55 50/50/50 51/52/51
f 56/58/56 53/56/54 44/45/45
f 53/56/54 48/48/48 44/45/45
f 48/48/48 53/56/54 55/57/55
f 57/59/57 58/61/59 59/60/58
f 58/61/59 57/59/57 60/62/60
f 60/62/60 61/63/61 58/61/59
f 61/63/61 60/62/60 62/64/62
f 59/65/58 63/67/64 64/66/63
f 63/67/64 59/65/58 58/68/59
f 58/68/59 65/69/65 63/67/64
f 65/69/65 58/68/59 61/70/61
f 64/66/63 66/72/67 67/71/66
f 66/72/67 64/66/63 63/67/64
f 63/67/64 68/73/68 66/72/67
f 68/73/68 63/67/64 65/69/65
f 67/71/66 60/62/60 57/59/57
f 60/62/60 67/71/66 66/72/67
f 66/72/67 62/64/62 60/62/60
f 62/64/62 66/72/67 68/73/68
f 55/57/55 57/59/57 48/48/48
f 57/59/57 55/57/55 67/71/66
f 48/48/48 59/60/58 46/47/47
f 59/60/58 48/48/48 57/59/57
f 51/52/51 59/65/58 64/66/63
f 59/65/58 51/52/51 46/53/47
f 64/66/63 55/57/55 51/52/51
f 55/57/55 64/66/63 67/71/66
f 69/74/69 56/58/56 70/75/70
f 56/58/56 69/74/69 54/55/53
f 70/75/70 11/76/10 69/74/69
f 11/76/10 70/75/70 71/77/71
f 34/34/34 29/29/29 26/26/26
f 29/29/29 34/34/34 72/78/72
f 11/10/10 73/79/73 9/9/9
f 74/80/74 4/82/4 1/81/1
f 4/82/4 74/80/74 75/83/75
f 43/43/43 75/83/75 74/80/74
f 76/84/76 12/12/12 77/85/77
f 76/84/76 10/11/11 12/12/12
f 76/84/76 78/86/78 10/11/11
f 79/87/79 12/12/12 80/88/80
f 12/12/12 79/87/79 77/85/77
f 69/74/69 11/76/10 10/89/11
f 54/55/53 78/90/78 52/54/52
f 54/55/53 10/89/11 78/90/78
f 54/55/53 69/74/69 10/89/11
f 81/91/81 49/49/49 82/92/82
f 49/49/49 81/91/81 45/93/44
f 37/36/36 83/94/83 35/35/35
f 83/94/83 37/36/36 84/95/84
f 5/96/5 45/93/44 81/91/81
f 8/8/8 84/95/84 37/36/36
f 83/94/83 85/97/85 35/35/35
f 17/17/17 18/18/18 20/21/21
f 18/18/18 32/32/32 20/21/21
f 73/79/73 11/10/10 71/98/71
f 2/3/3 23/22/22 3/2/2
f 21/20/20 86/99/86 19/19/19
f 86/99/86 21/20/20 87/100/87
f 25/24/24 31/31/31 15/14/14
f 31/31/31 25/24/24 88/101/88
f 47/51/46 49/49/49 45/93/44
f 45/44/44 44/45/45 47/46/46
f 40/40/40 17/17/17 19/19/19
f 17/17/17 40/40/40 36/37/37
f 36/37/37 16/16/16 17/17/17
f 16/16/16 36/37/37 38/38/38
f 16/16/16 33/33/33 14/15/15
f 33/33/33 16/16/16 38/38/38
f 14/15/15 89/102/89 24/25/25
f 89/102/89 14/15/15 33/33/33
f 73/103/73 71/104/71 3/2/2
f 3/2/2 71/104/71 1/1/1
f 1/81/1 70/75/70 74/80/74
f 70/75/70 1/81/1 71/77/71
f 74/80/74 56/58/56 43/43/43
f 56/58/56 74/80/74 70/75/70
f 56/58/56 44/45/45 43/43/43
f 53/56/54 56/58/56 54/55/53
f 38/38/38 35/35/35 34/34/34
f 76/84/76 82/105/82 78/86/78
f 35/35/35 72/78/72 34/34/34
f 72/78/72 35/35/35 85/97/85
f 34/34/34 33/33/33 38/38/38
f 90/106/90 12/12/12 9/9/9
f 29/29/29 79/87/79 27/28/28
f 79/87/79 29/29/29 77/85/77
f 77/85/77 72/78/72 76/84/76
f 72/78/72 77/85/77 29/29/29
f 72/78/72 82/105/82 76/84/76
f 82/105/82 72/78/72 85/97/85
f 82/105/82 83/94/83 91/107/91
f 83/94/83 82/105/82 85/97/85
f 91/107/91 84/95/84 81/108/81
f 84/95/84 91/107/91 83/94/83
f 8/8/8 81/108/81 84/95/84
f 81/108/81 8/8/8 5/5/5
f 6/7/7 41/41/41 22/23/23
f 41/41/41 6/7/7 39/39/39
f 39/39/39 8/8/8 37/36/36
f 8/8/8 39/39/39 6/7/7
f 7/6/6 4/4/4 5/5/5
f 4/4/4 7/6/6 2/3/3
f 5/109/5 75/83/75 45/44/44
f 75/83/75 5/109/5 4/82/4
f 75/83/75 43/43/43 45/44/44
f 52/54/52 82/92/82 49/49/49
f 82/92/82 52/54/52 78/90/78
f 7/6/6 23/22/22 2/3/3
f 28/27/27 33/33/33 26/26/26
f 33/33/33 28/27/27 89/102/89
f 90/106/90 80/88/80 12/12/12
f 19/19/19 42/42/42 40/40/40
f 42/42/42 19/19/19 86/99/86
f 81/91/81 82/92/82 91/110/91
f 92/111/92 93/113/94 94/112/93
f 93/113/94 92/111/92 95/114/95
f 96/115/96 97/117/98 98/116/97
f 97/117/98 96/115/96 99/118/99
f 100/119/100 101/121/102 102/120/101
f 101/121/102 100/119/100 103/122/103
f 104/123/104 105/125/106 106/124/105
f 105/125/106 104/123/104 107/126/107
f 108/127/108 104/123/104 106/124/105
f 104/123/104 108/127/108 109/128/109
f 110/129/110 111/130/111 108/127/108
f 111/130/111 110/129/110 112/131/112
f 99/118/99 22/23/23 97/117/98
f 22/23/23 99/118/99 23/22/22
f 107/126/107 24/132/25 105/125/106
f 24/132/25 107/126/107 25/133/24
f 113/134/113 27/136/28 114/135/114
f 27/136/28 113/134/113 28/137/27
f 107/126/107 115/139/116 116/138/115
f 115/139/116 107/126/107 104/123/104
f 104/123/104 117/140/117 115/139/116
f 117/140/117 104/123/104 109/128/109
f 118/141/118 113/134/113 119/142/119
f 120/143/120 121/145/122 122/144/121
f 121/145/122 120/143/120 123/146/123
f 121/145/122 124/148/125 125/147/124
f 124/148/125 121/145/122 123/146/123
f 41/41/41 125/147/124 124/148/125
f 125/147/124 41/41/41 42/42/42
f 126/149/126 127/151/128 128/150/127
f 128/150/127 129/153/130 130/152/129
f 129/153/130 128/150/127 131/154/131
f 132/155/132 133/157/133 131/156/131
f 131/156/131 134/159/134 129/158/130
f 134/159/134 131/156/131 133/157/133
f 135/160/135 133/157/133 132/155/132
f 135/160/135 136/161/136 133/157/133
f 135/160/135 137/162/137 136/161/136
f 133/157/133 138/163/138 134/159/134
f 138/163/138 133/157/133 136/161/136
f 139/164/139 128/150/127 136/161/136
f 136/161/136 130/152/129 138/163/138
f 130/152/129 136/161/136 128/150/127
f 140/165/140 141/167/142 142/166/141
f 141/167/142 140/165/140 143/168/143
f 142/166/141 144/170/145 145/169/144
f 144/170/145 142/166/141 141/167/142
f 143/171/143 146/173/146 141/172/142
f 146/173/146 143/171/143 147/174/147
f 141/172/142 148/176/148 144/175/145
f 148/176/148 141/172/142 146/173/146
f 147/174/147 149/177/149 146/173/146
f 149/177/149 147/174/147 150/178/150
f 146/173/146 151/179/151 148/176/148
f 151/179/151 146/173/146 149/177/149
f 150/178/150 142/166/141 149/177/149
f 142/166/141 150/178/150 140/165/140
f 149/177/149 145/169/144 151/179/151
f 145/169/144 149/177/149 142/166/141
f 138/163/138 140/165/140 150/178/150
f 140/165/140 138/163/138 130/152/129
f 130/152/129 143/168/143 140/165/140
f 143/168/143 130/152/129 129/153/130
f 134/159/134 143/171/143 129/158/130
f 143/171/143 134/159/134 147/174/147
f 147/174/147 138/163/138 150/178/150
f 138/163/138 147/174/147 134/159/134
f 152/180/152 139/164/139 137/162/137
f 139/164/139 152/180/152 153/181/153
f 153/181/153 103/183/103 154/182/154
f 103/183/103 153/181/153 152/180/152
f 119/142/119 114/135/114 155/184/155
f 114/135/114 119/142/119 113/134/113
f 103/122/103 100/119/100 156/185/156
f 157/186/157 94/188/93 158/187/158
f 94/188/93 157/186/157 92/189/92
f 126/149/126 157/186/157 158/187/158
f 159/190/159 101/121/102 160/191/160
f 159/190/159 102/120/101 101/121/102
f 159/190/159 161/192/161 102/120/101
f 79/193/79 102/120/101 161/192/161
f 102/120/101 79/193/79 80/194/80
f 152/180/152 101/195/102 103/183/103
f 137/162/137 101/195/102 152/180/152
f 137/162/137 160/196/160 101/195/102
f 137/162/137 135/160/135 160/196/160
f 162/197/162 132/155/132 127/198/128
f 132/155/132 162/197/162 163/199/163
f 123/146/123 164/201/165 165/200/164
f 164/201/165 123/146/123 120/143/120
f 96/202/96 162/197/162 127/198/128
f 98/116/97 123/146/123 165/200/164
f 164/201/165 120/143/120 166/203/166
f 108/127/108 111/130/111 109/128/109
f 109/128/109 111/130/111 117/140/117
f 156/185/156 154/204/154 103/122/103
f 93/113/94 95/114/95 23/22/22
f 112/131/112 86/99/86 87/100/87
f 86/99/86 112/131/112 110/129/110
f 25/133/24 116/138/115 88/205/88
f 116/138/115 25/133/24 107/126/107
f 131/156/131 127/198/128 132/155/132
f 127/151/128 131/154/131 128/150/127
f 125/147/124 108/127/108 121/145/122
f 108/127/108 125/147/124 110/129/110
f 121/145/122 106/124/105 122/144/121
f 106/124/105 121/145/122 108/127/108
f 106/124/105 118/141/118 122/144/121
f 118/141/118 106/124/105 105/125/106
f 105/125/106 89/206/89 118/141/118
f 89/206/89 105/125/106 24/132/25
f 156/207/156 95/114/95 154/208/154
f 95/114/95 92/111/92 154/208/154
f 92/189/92 153/181/153 154/182/154
f 153/181/153 92/189/92 157/186/157
f 157/186/157 139/164/139 153/181/153
f 139/164/139 157/186/157 126/149/126
f 139/164/139 126/149/126 128/150/127
f 136/161/136 137/162/137 139/164/139
f 122/144/121 119/142/119 120/143/120
f 159/190/159 160/191/160 163/209/163
f 120/143/120 155/184/155 166/203/166
f 155/184/155 120/143/120 119/142/119
f 119/142/119 122/144/121 118/141/118
f 90/210/90 100/119/100 102/120/101
f 114/135/114 79/193/79 161/192/161
f 79/193/79 114/135/114 27/136/28
f 161/192/161 155/184/155 114/135/114
f 155/184/155 161/192/161 159/190/159
f 155/184/155 163/209/163 166/203/166
f 163/209/163 155/184/155 159/190/159
f 163/209/163 164/201/165 166/203/166
f 164/201/165 163/209/163 167/211/167
f 167/211/167 165/200/164 164/201/165
f 165/200/164 167/211/167 162/212/162
f 98/116/97 162/212/162 96/115/96
f 162/212/162 98/116/97 165/200/164
f 97/117/98 41/41/41 124/148/125
f 41/41/41 97/117/98 22/23/23
f 124/148/125 98/116/97 97/117/98
f 98/116/97 124/148/125 123/146/123
f 99/118/99 94/112/93 93/113/94
f 94/112/93 99/118/99 96/115/96
f 96/213/96 158/187/158 94/188/93
f 158/187/158 96/213/96 127/151/128
f 158/187/158 127/151/128 126/149/126
f 135/160/135 163/199/163 160/196/160
f 163/199/163 135/160/135 132/155/132
f 23/22/22 99/118/99 93/113/94
f 28/137/27 118/141/118 89/206/89
f 118/141/118 28/137/27 113/134/113
f 90/210/90 102/120/101 80/194/80
f 42/42/42 110/129/110 125/147/124
f 110/129/110 42/42/42 86/99/86
f 162/197/162 167/214/167 163/199/163
f 148/215/168 145/217/170 144/216/169
f 145/217/170 148/215/168 151/218/171
f 62/219/172 65/221/174 61/220/173
f 65/221/174 62/219/172 68/222/175
f 115/223/176 88/225/178 116/224/177
f 117/226/179 88/225/178 115/223/176
f 111/227/180 88/225/178 117/226/179
f 112/228/181 88/225/178 111/227/180
f 87/229/182 88/225/178 112/228/181
f 88/230/178 30/232/184 31/231/183
f 88/230/178 32/233/185 30/232/184
f 88/230/178 20/234/186 32/233/185
f 88/230/178 21/235/187 20/234/186
f 87/229/182 21/235/187 88/230/178
f 90/210/188 168/236/190 100/119/189
f 100/119/189 168/237/190 156/185/191
f 156/207/191 168/238/190 95/114/192
f 95/114/192 168/239/190 23/22/193
f 9/9/194 168/240/190 90/106/188
f 73/79/195 168/241/190 9/9/194
f 3/2/196 168/242/190 73/103/195
f 23/22/193 168/243/190 3/2/196
