# Wavefront OBJ
# Created by fragMOTION 1.3.7
# http://www.fragmosoft.com

mtllib HoodieDOWN.mtl
# 249 vertices
v 0.0751443 0.773056 -0.0274141
v 0.0402532 0.761498 -0.0394018
v 0.0350965 0.790726 -0.0227134
v 0.0857309 0.751908 -0.032933
v 0.0911797 0.734631 -0.0334822
v 0.0605822 0.702352 -0.0557065
v 0.0487078 0.732752 -0.0470763
v 0.0945725 0.703926 -0.0219475
v 0.0408647 0.814555 0.0300512
v 0.0833434 0.785866 0.0518601
v 0.0680736 0.803265 0.0198499
v 0.0542578 0.79187 0.057067
v 0.100278 0.556559 0.0487752
v 0.0548563 0.568696 0.074532
v 0.0538695 0.558232 0.0800974
v 0.0995002 0.565898 0.0436802
v 0.0889344 0.558251 -0.0193074
v 0.102425 0.53256 0.0057565
v 0.0585033 0.549446 -0.0543321
v 0.0850988 0.502612 -0.0257488
v 0.0541035 0.499746 -0.0389709
v 0.00811047 0.696776 -0.0619913
v 0.00741321 0.731005 -0.0536316
v 0.00826241 0.56834 0.0734202
v 0.00806159 0.556107 0.0792751
v 0.0591397 0.656871 0.0731813
v 0.00424495 0.696455 0.0819084
v 0.00568326 0.657758 0.0757731
v 0.0620038 0.69895 0.0790803
v 0.108513 0.513074 0.0746306
v 0.0518063 0.521753 0.101305
v 0.10911 0.510024 0.0146612
v 0.0558875 0.610878 0.0675684
v 0.0919218 0.656315 0.0556602
v 0.100335 0.665103 0.0362072
v 0.0834641 0.612155 -0.019658
v 0.0942551 0.669963 -0.0198554
v 0.0932395 0.609796 0.0363033
v 0.0641299 0.664258 -0.054984
v 0.0601638 0.609563 -0.0565271
v 0.00817507 0.663353 -0.0620568
v 0.00994227 0.604372 -0.0631142
v 0.137004 0.728282 -0.0244059
v 0.149869 0.681577 -0.0023682
v 0.0776498 0.72663 -0.022395
v 0.100568 0.624923 0.0187498
v 0.0862044 0.670045 -0.00218414
v 0.1529 0.633904 0.0187763
v 0.0828161 0.73618 0.0452282
v 0.0825162 0.690636 0.0636763
v 0.0977157 0.637834 0.0743802
v 0.0886707 0.744261 0.0564535
v 0.146078 0.701847 0.0660691
v 0.132095 0.749803 0.0472928
v 0.149879 0.646598 0.0745222
v 0.143057 0.754003 0.00513579
v 0.16018 0.614178 0.0112667
v 0.116643 0.542261 0.00931602
v 0.0993908 0.600279 0.0121882
v 0.156255 0.554136 0.00953213
v 0.126415 0.503614 0.00656006
v 0.158837 0.506391 0.00647634
v 0.125204 0.539456 0.0690719
v 0.0989095 0.601361 0.0793617
v 0.134982 0.497905 0.0510541
v 0.155 0.549878 0.0690962
v 0.159237 0.615219 0.0788439
v 0.159992 0.499962 0.0488545
v 0.109684 0.790539 0.0247512
v 0.118522 0.7887 -0.00498884
v 0.0695283 0.798249 -0.0053162
v 0.0942275 0.708311 0.0594998
v 0.0577346 0.803612 -0.00120916
v 0.107624 0.7758 -0.0292854
v 0.107177 0.748639 -0.0285363
v 0.105282 0.750618 0.0568283
v 0.0602448 0.746189 0.0711559
v 0.105536 0.754765 0.05304
v 0.00353691 0.733018 0.0781899
v 0.00426016 0.788726 0.0561096
v 0.086262 0.739034 -0.00471483
v 0.10225 0.744563 0.0415522
v 0.103395 0.702875 0.0256384
v 0.0915808 0.704455 -0.00806126
v 0.102676 0.706432 0.0416536
v 0.0535509 0.807485 -0.00180932
v 0.0481151 0.806225 0.0406889
v 0.00402082 0.81546 0.0373209
v 0.00384975 0.812058 0.0467412
v 0.0476144 0.810515 -0.0194283
v 0.0415986 0.804459 -0.0247228
v 0.0343769 0.800944 -0.0360243
v 0.0537376 0.808818 -0.0126156
v 0.0576937 0.802494 -0.00296797
v 0.048593 0.79817 0.0091035
v 0.0278226 0.790082 0.101702
v 0.00296423 0.816387 0.0946589
v 0.00309375 0.788047 0.10731
v 0.0587119 0.819722 0.00308249
v 0.0617432 0.810865 0.00350689
v 0.0583042 0.806534 -0.00723943
v 0.0616778 0.805615 0.00608727
v 0.0691025 0.82443 0.0365467
v 0.06374 0.823237 0.0726145
v 0.0713075 0.816676 0.0634711
v 0.0670812 0.829964 0.0343969
v 0.0713334 0.788286 0.06472
v 0.0601651 0.749657 0.0837191
v 0.00449564 0.725572 0.085766
v 0.0515898 0.744441 0.098529
v 0.00412777 0.728095 0.100447
v 0.0612364 0.838047 0.0525953
v 0.0431914 0.840512 0.066685
v 0.0632381 0.825202 0.0113193
v 0.047983 0.821474 -0.0157141
v 0.0625229 0.828667 0.00783066
v 0.0306183 0.801089 -0.0421716
v 0.00647208 0.791659 -0.056039
v 0.0367971 0.825668 0.0818414
v 0.0528102 0.795491 0.0896296
v 0.0633237 0.787254 0.0780376
v 0.0536611 0.779089 0.0938681
v 0.0287316 0.759901 0.106023
v 0.00354719 0.754524 0.108991
v 0.00484609 0.787485 0.018601
v 0.0647354 0.812783 0.0139417
v 0.063899 0.814693 0.0143455
v 0.0660229 0.834007 0.0350003
v 0.00634997 0.761567 -0.0435154
v 0.00598582 0.778245 -0.0391066
v 0.00999976 0.549219 -0.0589298
v 0.00827013 0.493216 -0.0513206
v 0.00618944 0.522407 0.10108
v 0.00606694 0.794553 -0.0399927
v 0.00294346 0.833362 0.0845681
v 0.00299934 0.845413 0.0742803
v 0.00761973 0.610965 0.0685966
v 0.0916319 0.738384 0.011491
v -0.0630613 0.77221 -0.0298778
v -0.0271494 0.760222 -0.039897
v -0.0736564 0.751556 -0.0347504
v -0.0268572 0.790042 -0.0236145
v -0.0781199 0.733296 -0.0361851
v -0.045201 0.702002 -0.0556176
v -0.0807588 0.70278 -0.0242285
v -0.0340847 0.731632 -0.0488922
v -0.0379471 0.809984 0.030503
v -0.0750669 0.784893 0.0487124
v -0.0436745 0.790892 0.0553361
v -0.0588084 0.801405 0.0169817
v -0.0836162 0.562636 0.0448505
v -0.0387026 0.571703 0.0725201
v -0.0823727 0.571353 0.0398173
v -0.0377513 0.5619 0.0780507
v -0.069509 0.563335 -0.0227333
v -0.0847869 0.540786 0.00156582
v -0.0375826 0.553144 -0.0566409
v -0.0684939 0.509685 -0.0297948
v -0.0372677 0.503925 -0.0413303
v -0.0467127 0.656253 0.0711219
v -0.0512613 0.697862 0.0772124
v -0.0951593 0.522267 0.072392
v -0.0394006 0.5259 0.10016
v -0.093548 0.519198 0.0103472
v -0.0410544 0.611788 0.0656747
v -0.0795735 0.654678 0.0522935
v -0.0876181 0.663729 0.0338023
v -0.0654026 0.613529 -0.0225597
v -0.0757957 0.612661 0.0328633
v -0.0790434 0.668809 -0.0208397
v -0.047227 0.663546 -0.057159
v -0.0409704 0.610649 -0.0584201
v -0.124808 0.728223 -0.0311582
v -0.0658822 0.72664 -0.0259346
v -0.138946 0.682021 -0.0081476
v -0.0910694 0.621902 0.0152889
v -0.143248 0.631527 0.0132826
v -0.0753149 0.670192 -0.00574173
v -0.0733685 0.736672 0.0402765
v -0.0738162 0.691108 0.0600951
v -0.0890684 0.640676 0.0692681
v -0.0789839 0.744296 0.0512778
v -0.137665 0.70348 0.0608147
v -0.123419 0.750934 0.0419543
v -0.141097 0.650581 0.0696957
v -0.131336 0.75376 -0.00644786
v -0.151435 0.608286 0.0102935
v -0.109789 0.534773 0.0217877
v -0.148995 0.548086 0.0193289
v -0.0909431 0.593616 0.0141451
v -0.120553 0.497061 0.0282496
v -0.152888 0.500885 0.0276697
v -0.118072 0.546604 0.0791355
v -0.0907715 0.606609 0.0787698
v -0.128845 0.503553 0.071754
v -0.147624 0.557714 0.0791548
v -0.150804 0.621719 0.077605
v -0.153838 0.505722 0.0693617
v -0.0993968 0.790102 0.0214755
v -0.106333 0.787302 -0.0116717
v -0.0589771 0.796364 -0.0082208
v -0.0841635 0.706948 0.0568465
v -0.0475432 0.802068 -0.00358895
v -0.0949577 0.774964 -0.0342622
v -0.0948042 0.748368 -0.0332615
v -0.0961043 0.74778 0.0522603
v -0.0966317 0.752839 0.0480327
v -0.0515753 0.746317 0.0723218
v -0.0746859 0.739796 -0.00632197
v -0.0924924 0.742901 0.0373464
v -0.090991 0.701351 0.022532
v -0.0783755 0.704455 -0.00893787
v -0.0915389 0.704882 0.0384709
v -0.0446384 0.805873 -0.00463063
v -0.039907 0.804935 0.0386992
v -0.029524 0.802649 -0.0259478
v -0.0356293 0.809924 -0.0244239
v -0.022627 0.800294 -0.0373641
v -0.0430657 0.807851 -0.0124244
v -0.0487795 0.803862 -0.00586809
v -0.0387214 0.79689 0.00712954
v -0.0214045 0.78936 0.10059
v -0.0491556 0.816734 0.000740925
v -0.0526365 0.81009 0.00202596
v -0.0446836 0.80486 -0.0103848
v -0.0500111 0.806083 0.00362857
v -0.0638455 0.787001 0.0639931
v -0.0633646 0.82372 0.0326713
v -0.0524709 0.804808 0.0262249
v -0.0651363 0.814711 0.0590041
v -0.0599787 0.769308 0.0656737
v -0.05222 0.748575 0.0813831
v -0.0438859 0.743188 0.0962917
v -0.0360677 0.839571 0.0646551
v -0.0543394 0.836207 0.0493129
v -0.0530781 0.824202 0.00975492
v -0.0532381 0.827362 0.00655005
v -0.0374381 0.820162 -0.0178251
v -0.0185683 0.800379 -0.0432695
v -0.0298501 0.824733 0.0805923
v -0.0454998 0.793982 0.08779
v -0.0587128 0.772149 0.0785498
v -0.0471177 0.777376 0.091181
v -0.0216241 0.759163 0.104885
v -0.0529315 0.801214 0.00720172
v -0.0527241 0.812268 0.00824787
v -0.0604319 0.832717 0.0319379
v -0.0803922 0.73819 0.00944675
v 0.00465059 0.817031 0.00813142
# 316 texture vertices
vt 0.603976 -0.300641
vt 0.528277 -0.296614
vt 0.536069 -0.310339
vt 0.607193 -0.314765
vt 0.606713 -0.341151
vt 0.542763 -0.342918
vt 0.557679 -0.388221
vt 0.608641 -0.390579
vt 0.761118 -0.241532
vt 0.696687 -0.255233
vt 0.69064 -0.291937
vt 0.741758 -0.289667
vt 0.652775 -0.55223
vt 0.740265 -0.549194
vt 0.739628 -0.535481
vt 0.646967 -0.539123
vt 0.578819 -0.534678
vt 0.617683 -0.559458
vt 0.542914 -0.531736
vt 0.536329 -0.574616
vt 0.577528 -0.571998
vt 0.5 -0.343245
vt 0.5 -0.388388
vt 0.79192 -0.548275
vt 0.792193 -0.532945
vt 0.736401 -0.442861
vt 0.792773 -0.437167
vt 0.792944 -0.388496
vt 0.733702 -0.387537
vt 0.67967 -0.587404
vt 0.742434 -0.580465
vt 0.623081 -0.58236
vt 0.739175 -0.490359
vt 0.668904 -0.444906
vt 0.648368 -0.436368
vt 0.602752 -0.429306
vt 0.582349 -0.484039
vt 0.652559 -0.489351
vt 0.558621 -0.421925
vt 0.549253 -0.483355
vt 0.5 -0.421841
vt 0.499985 -0.485745
vt 0.86076 -0.111948
vt 0.843231 -0.111031
vt 0.86655 -0.170343
vt 0.841544 -0.177954
vt 0.842416 -0.253649
vt 0.864913 -0.245066
vt 0.925985 -0.112119
vt 0.927103 -0.159317
vt 0.954276 -0.147803
vt 0.926386 -0.225606
vt 0.948863 -0.233503
vt 0.912585 -0.119896
vt 0.899126 -0.115994
vt 0.891727 -0.16141
vt 0.893098 -0.233857
vt 0.885675 -0.117033
vt 0.864821 -0.288259
vt 0.844277 -0.292554
vt 0.847931 -0.39456
vt 0.866639 -0.393311
vt 0.848023 -0.457371
vt 0.863941 -0.456587
vt 0.949963 -0.277245
vt 0.92342 -0.27387
vt 0.913602 -0.368504
vt 0.953838 -0.381233
vt 0.906609 -0.451595
vt 0.949085 -0.455732
vt 0.8935 -0.278527
vt 0.890682 -0.381986
vt 0.885541 -0.453016
vt 0.897534 -0.059442
vt 0.886667 -0.065151
vt 0.899503 -0.0244
vt 0.884726 -0.024935
vt 0.696239 -0.383487
vt 0.731929 -0.225839
vt 0.86566 -0.066431
vt 0.867962 -0.024353
vt 0.856743 -0.024579
vt 0.854629 -0.084885
vt 0.701421 -0.329308
vt 0.732649 -0.332749
vt 0.692811 -0.310135
vt 0.792513 -0.341719
vt 0.792045 -0.285057
vt 0.911263 -0.059194
vt 0.910251 -0.082896
vt 0.935782 -0.047049
vt 0.924806 -0.080877
vt 0.953871 -0.104738
vt 0.647809 -0.384287
vt 0.621985 -0.395149
vt 0.950466 -0.024372
vt 0.660687 -0.378998
vt 0.765971 -0.189244
vt 0.726108 -0.194011
vt 0.792344 -0.256322
vt 0.791984 -0.189923
vt 0.545616 -0.210826
vt 0.520696 -0.236828
vt 0.531592 -0.253689
vt 0.562316 -0.205683
vt 0.725623 -0.15368
vt 0.759677 -0.150022
vt 0.537733 -0.033434
vt 0.519697 -0.023833
vt 0.5 -0.037517
vt 0.559992 -0.186451
vt 0.548576 -0.183445
vt 0.572061 -0.201585
vt 0.590829 -0.158701
vt 0.56276 -0.136973
vt 0.572128 -0.085045
vt 0.546765 -0.089712
vt 0.549752 -0.133815
vt 0.760532 -0.105126
vt 0.721514 -0.111688
vt 0.792172 -0.104548
vt 0.792194 -0.057251
vt 0.757852 -0.056807
vt 0.529614 -0.090341
vt 0.543496 -0.127414
vt 0.550992 -0.15746
vt 0.547806 -0.157741
vt 0.535448 -0.201306
vt 0.520031 -0.222171
vt 0.5 -0.219855
vt 0.523229 -0.064009
vt 0.555768 -0.043035
vt 0.608457 -0.101011
vt 0.572103 -0.039586
vt 0.79218 -0.027225
vt 0.763413 -0.02564
vt 0.793384 -0.145991
vt 0.731781 -0.052008
vt 0.738515 -0.024055
vt 0.569872 -0.158262
vt 0.560077 -0.161113
vt 0.545705 -0.140414
vt 0.57423 -0.258246
vt 0.583748 -0.233467
vt 0.684646 -0.23125
vt 0.598864 -0.200099
vt 0.499998 -0.296377
vt 0.500007 -0.315292
vt 0.499989 -0.53135
vt 0.500469 -0.577015
vt 0.797264 -0.575825
vt 0.5 -0.268146
vt 0.560427 -0.03053
vt 0.548751 -0.021474
vt 0.5 -0.06668
vt 0.5 -0.090003
vt 0.793018 -0.492276
vt 0.58624 -0.27562
vt 0.6743 -0.332125
vt 0.641807 -0.349591
vt 0.625855 -0.35017
vt 0.847256 -0.024642
vt 0.607849 -0.159156
vt 0.922098 -0.058954
vt 0.396024 -0.300641
vt 0.392807 -0.314765
vt 0.463931 -0.310339
vt 0.47222 -0.296386
vt 0.393287 -0.341151
vt 0.391359 -0.390579
vt 0.442321 -0.388221
vt 0.457237 -0.342918
vt 0.237658 -0.24494
vt 0.258242 -0.289667
vt 0.30936 -0.291937
vt 0.303115 -0.254785
vt 0.347308 -0.551662
vt 0.354091 -0.537728
vt 0.261228 -0.535067
vt 0.259663 -0.549316
vt 0.421559 -0.53443
vt 0.38185 -0.559464
vt 0.457094 -0.531757
vt 0.423651 -0.570465
vt 0.460559 -0.576426
vt 0.208074 -0.532926
vt 0.208043 -0.548321
vt 0.263604 -0.442769
vt 0.266298 -0.387537
vt 0.207056 -0.388496
vt 0.207246 -0.437169
vt 0.242674 -0.579941
vt 0.322535 -0.588154
vt 0.378116 -0.582265
vt 0.260445 -0.4906
vt 0.331126 -0.444795
vt 0.351678 -0.436156
vt 0.347318 -0.489487
vt 0.417582 -0.483893
vt 0.397256 -0.429472
vt 0.45074 -0.483332
vt 0.441378 -0.421912
vt 0.13924 -0.111948
vt 0.13345 -0.170343
vt 0.156769 -0.111031
vt 0.135087 -0.245066
vt 0.157584 -0.253649
vt 0.158456 -0.177954
vt 0.074015 -0.112119
vt 0.045724 -0.147803
vt 0.072897 -0.159317
vt 0.051136 -0.233503
vt 0.073614 -0.225606
vt 0.087415 -0.119896
vt 0.107758 -0.161496
vt 0.100473 -0.116091
vt 0.106251 -0.233978
vt 0.114325 -0.117033
vt 0.135179 -0.288259
vt 0.133361 -0.393311
vt 0.152069 -0.39456
vt 0.155723 -0.292554
vt 0.136059 -0.456587
vt 0.151977 -0.457371
vt 0.050037 -0.277245
vt 0.046162 -0.381233
vt 0.086398 -0.368504
vt 0.07658 -0.27387
vt 0.050915 -0.455732
vt 0.093391 -0.451595
vt 0.108875 -0.381425
vt 0.105964 -0.278391
vt 0.114459 -0.453016
vt 0.10174 -0.059886
vt 0.113333 -0.065151
vt 0.115258 -0.024868
vt 0.100564 -0.023726
vt 0.303761 -0.383487
vt 0.269412 -0.224362
vt 0.13434 -0.066431
vt 0.145371 -0.084885
vt 0.143257 -0.024579
vt 0.132038 -0.024353
vt 0.298579 -0.329308
vt 0.307189 -0.310135
vt 0.267351 -0.332749
vt 0.207487 -0.341719
vt 0.207955 -0.285057
vt 0.088737 -0.059194
vt 0.089749 -0.082896
vt 0.064218 -0.047049
vt 0.046129 -0.104738
vt 0.075194 -0.080877
vt 0.378015 -0.395149
vt 0.352191 -0.384287
vt 0.049534 -0.024372
vt 0.339313 -0.378998
vt 0.273892 -0.194011
vt 0.234501 -0.190022
vt 0.207793 -0.190401
vt 0.207426 -0.256406
vt 0.469199 -0.253636
vt 0.478952 -0.236499
vt 0.454384 -0.210826
vt 0.437684 -0.205683
vt 0.274377 -0.15368
vt 0.240296 -0.149943
vt 0.462267 -0.033434
vt 0.480303 -0.023833
vt 0.444849 -0.183422
vt 0.431857 -0.185743
vt 0.427939 -0.201585
vt 0.418358 -0.158733
vt 0.427872 -0.085045
vt 0.434747 -0.140446
vt 0.444648 -0.127691
vt 0.453235 -0.089712
vt 0.278272 -0.111462
vt 0.239468 -0.105126
vt 0.207828 -0.104548
vt 0.242148 -0.056807
vt 0.207806 -0.057251
vt 0.451312 -0.122593
vt 0.470386 -0.090341
vt 0.442691 -0.157399
vt 0.45071 -0.182667
vt 0.448115 -0.157741
vt 0.48009 -0.217514
vt 0.476772 -0.064009
vt 0.444232 -0.043035
vt 0.427897 -0.039586
vt 0.39028 -0.101645
vt 0.236587 -0.02564
vt 0.20782 -0.027225
vt 0.207541 -0.146289
vt 0.268226 -0.051861
vt 0.261485 -0.024055
vt 0.42655 -0.152309
vt 0.436445 -0.16112
vt 0.449103 -0.135593
vt 0.424325 -0.256581
vt 0.416252 -0.233467
vt 0.315124 -0.231969
vt 0.401136 -0.200099
vt 0.207239 -0.57711
vt 0.439573 -0.03053
vt 0.451249 -0.021474
vt 0.206955 -0.492282
vt 0.415707 -0.275661
vt 0.3257 -0.332125
vt 0.358193 -0.349591
vt 0.374145 -0.35017
vt 0.152744 -0.024642
vt 0.39241 -0.159157
vt 0.077902 -0.058954
vt 0.5 -0.154458
# 288 normals
vn 0.0927077 0.458526 -0.860418
vn 0.377833 0.23539 -0.888953
vn 0.175062 0.375373 -0.897745
vn 0.197476 0.101206 -0.947715
vn 0.455511 -0.142958 -0.846561
vn 0.199164 0.305842 -0.927126
vn 0.388551 0.0879158 -0.88662
vn 0.829921 -0.110003 -0.417471
vn -0.842924 0.487143 0.228408
vn 0.2123 0.975442 0.0586631
vn 0.246396 0.552195 0.787402
vn 0.142512 0.545651 0.820407
vn 0.857255 0.377084 0.344271
vn 0.224209 0.51226 0.827945
vn 0.295677 0.347657 0.887101
vn 0.93312 0.177807 0.304192
vn 0.894242 0.0337235 -0.43947
vn 0.94082 0.1708 -0.286155
vn 0.417604 -0.172284 -0.887225
vn 0.261995 -0.194892 -0.940108
vn 0.712674 -0.100146 -0.684471
vn 0.0148002 0.300581 -0.951335
vn 0.0180546 0.148222 -0.979272
vn 0.002689 0.512309 0.858256
vn -0.00751949 0.350407 0.934483
vn 0.273964 -0.129869 0.9412
vn -0.000653923 -0.129639 0.977906
vn 0.0444626 -0.0420816 0.985481
vn 0.239636 -0.0575568 0.959081
vn 0.755413 0.395894 0.485615
vn 0.178734 0.500668 0.831733
vn 0.957474 0.143641 -0.242853
vn 0.328044 0.048601 0.935048
vn 0.668956 -0.199301 0.7021
vn 0.916446 -0.238731 0.184871
vn 0.846054 -0.219036 -0.385957
vn 0.906598 -0.107705 -0.388191
vn 0.934797 -0.0644932 0.330352
vn 0.467492 -0.0513825 -0.869868
vn 0.510974 -0.0613425 -0.850432
vn 0.0172984 -0.0213361 -0.988535
vn 0.0168476 -0.0807447 -0.989938
vn 0.561137 -0.0986624 -0.801348
vn -0.660139 -0.378522 -0.648798
vn 0.752192 -0.167296 -0.637353
vn -0.651349 -0.401886 -0.64361
vn -0.691162 -0.129356 -0.705582
vn 0.708547 0.116586 -0.692287
vn -0.835608 -0.144847 0.311755
vn -0.719239 -0.0469102 0.693176
vn -0.708414 -0.0405233 0.700853
vn -0.372626 0.215226 0.876026
vn 0.605887 0.37695 0.673824
vn 0.680906 0.225483 0.69452
vn 0.666987 0.186546 0.715778
vn 0.719635 0.475139 -0.0791961
vn 0.693572 0.212004 -0.688485
vn -0.736611 -0.0562864 -0.673033
vn -0.716953 -0.158355 -0.677076
vn 0.683393 0.0690549 -0.721602
vn -0.715401 -0.126964 -0.684744
vn 0.704694 0.138856 -0.686866
vn -0.701377 -0.17933 0.686519
vn -0.50524 -0.437087 0.737252
vn -0.558209 -0.466273 0.676599
vn 0.713189 0.101213 0.689875
vn 0.71422 -0.169439 0.677715
vn 0.817019 -0.145952 0.555025
vn 0.313937 0.840777 0.273082
vn 0.388731 0.768001 -0.261056
vn 0.0513699 0.866401 -0.4967
vn 0.62582 -0.109926 0.73665
vn 0.473703 0.815745 -0.331913
vn 0.0561669 0.471909 -0.831253
vn 0.128174 -0.186145 -0.949497
vn 0.584464 0.00619248 0.811396
vn 0.16478 0.161819 0.964181
vn 0.090157 -0.10566 0.966697
vn 0.0503811 0.184164 0.971505
vn -0.00883327 0.442053 0.891091
vn 0.0396683 -0.795009 0.0978995
vn 0.410248 -0.655001 0.481466
vn 0.9455 -0.052208 -0.0972799
vn 0.865171 -0.167691 -0.0768587
vn 0.907175 -0.123414 0.234152
vn -0.584697 0.1484 -0.797563
vn 0.175299 -0.270965 -0.946493
vn -0.0125147 -0.63852 0.769504
vn 0.0247955 -0.162433 -0.986408
vn 0.778449 0.0585317 -0.624973
vn 0.617436 -0.756203 -0.216631
vn 0.739504 -0.44503 -0.505056
vn 0.77002 0.160514 -0.617499
vn 0.060888 -0.835665 -0.545853
vn -0.289903 -0.13918 -0.946882
vn 0.266949 0.283685 0.921011
vn -0.0255087 0.246123 0.968903
vn -0.0259595 0.460591 0.887233
vn 0.934052 0.0633219 -0.351478
vn 0.838978 0.160441 -0.519976
vn 0.710837 -0.415991 -0.567152
vn 0.938045 -0.255468 -0.23411
vn 0.988062 0.143286 -0.0565971
vn 0.939086 0.262643 0.221665
vn 0.65675 0.454863 0.60148
vn 0.953754 0.296069 -0.0519246
vn 0.809619 -0.584618 -0.0523306
vn 0.979008 -0.196956 0.052458
vn 0.0183091 -0.96369 -0.266395
vn -0.00332409 -0.781029 0.624486
vn 0.592906 -0.542513 0.595099
vn 0.326477 0.670061 0.666656
vn 0.81448 0.5067 0.282626
vn 0.958931 0.020393 -0.282906
vn 0.919124 -0.168591 -0.356073
vn 0.842693 0.121798 -0.524437
vn 0.592014 -0.70267 -0.394683
vn 0.0101046 -0.991851 0.127003
vn 0.26218 0.528066 0.807718
vn 0.555378 0.265702 0.788009
vn 0.828494 0.0614519 0.556617
vn 0.629429 0.130318 0.766053
vn -0.0201354 -0.150525 0.988401
vn 0.223852 -0.0391226 0.973838
vn 0.022573 -0.169819 -0.985217
vn 0.984801 -0.0174665 -0.172805
vn 0.927203 0.229722 -0.295842
vn 0.970573 0.23587 0.0485071
vn 0.0294531 0.169145 -0.981936
vn 0.00734075 0.338411 -0.937254
vn 0.0147308 -0.173924 -0.978969
vn 0.0077246 -0.315379 -0.945349
vn 0.00556641 0.538687 0.830308
vn 0.0316583 -0.828832 -0.558601
vn -0.0270203 0.592098 0.805413
vn -0.0295485 0.649059 0.760164
vn -0.0175511 0.0684233 0.989365
vn 0.520826 -0.65241 0.12527
vn -0.0519127 0.444819 -0.875631
vn -0.141775 0.0932641 -0.970852
vn -0.133144 0.380434 -0.914031
vn -0.357169 0.283789 -0.884898
vn -0.410344 -0.153562 -0.890608
vn -0.806042 -0.139946 -0.495928
vn -0.352522 0.0764286 -0.918727
vn -0.16382 0.309919 -0.932717
vn 0.750614 0.598663 0.279608
vn -0.171002 0.557406 0.811051
vn -0.256156 0.540053 0.775416
vn -0.216037 0.975419 0.0434156
vn -0.843912 0.433011 0.308116
vn -0.932246 0.233762 0.264571
vn -0.309515 0.367106 0.874087
vn -0.218986 0.530002 0.818045
vn -0.871135 0.0885639 -0.477477
vn -0.910321 0.247498 -0.328326
vn -0.390564 -0.143442 -0.907309
vn -0.68773 -0.0397695 -0.723983
vn -0.235596 -0.172934 -0.955586
vn -0.307449 -0.133261 0.929889
vn -0.276291 -0.0633658 0.947683
vn -0.17266 0.520042 0.833583
vn -0.739419 0.467943 0.47431
vn -0.930496 0.225303 -0.285738
vn -0.360761 0.0550666 0.921593
vn -0.692666 -0.212303 0.675399
vn -0.920862 -0.259503 0.132318
vn -0.948893 -0.0325519 0.292014
vn -0.894399 -0.0910846 -0.42329
vn -0.832671 -0.228385 -0.438929
vn -0.48239 -0.0516124 -0.869059
vn -0.436161 -0.0572089 -0.887546
vn -0.511366 -0.114334 -0.838683
vn -0.725714 -0.179815 -0.664083
vn 0.680847 -0.38379 -0.623821
vn -0.692921 0.0483665 -0.715793
vn 0.702114 -0.214 -0.673395
vn 0.671516 -0.40722 -0.619061
vn 0.818686 -0.126998 0.373552
vn 0.707088 -0.0478149 0.705508
vn 0.710862 0.0186258 0.699487
vn 0.372152 0.213876 0.890009
vn -0.689395 0.239809 0.681131
vn -0.602091 0.377278 0.646749
vn -0.660963 0.267964 0.694961
vn -0.670923 0.418325 -0.199736
vn -0.685585 0.0850994 -0.723002
vn -0.682456 -0.0729106 -0.712689
vn 0.709724 -0.332537 -0.611815
vn 0.738067 -0.20333 -0.642208
vn -0.706283 -0.0196757 -0.682265
vn 0.706583 -0.319769 -0.619032
vn 0.521114 -0.272106 0.78589
vn 0.705022 -0.0812647 0.699852
vn 0.553113 -0.281135 0.755287
vn -0.691179 0.000410341 0.71281
vn -0.705466 0.226482 0.666698
vn -0.818135 0.0241366 0.565267
vn -0.269596 0.822209 0.220775
vn -0.319699 0.735799 -0.335489
vn -0.0582987 0.865893 -0.49682
vn -0.652748 -0.12933 0.680359
vn -0.534742 0.768287 -0.351832
vn 0.00284768 0.452478 -0.844343
vn -0.0788637 -0.192118 -0.961413
vn -0.612721 -0.0110172 0.790223
vn -0.104049 -0.110694 0.957151
vn -0.209216 0.158019 0.938556
vn -0.0326761 -0.787553 0.0629041
vn -0.413486 -0.662473 0.435985
vn -0.854192 -0.200728 -0.185554
vn -0.93756 -0.0794323 -0.171769
vn -0.910973 -0.152708 0.14761
vn -0.507883 -0.77171 -0.382778
vn 0.575662 0.171991 -0.799395
vn -0.705986 -0.43531 -0.558649
vn -0.574703 -0.773265 -0.267912
vn -0.767295 -0.0396062 -0.64007
vn -0.808004 0.0310239 -0.588359
vn -0.441129 -0.146792 -0.885357
vn 0.426731 -0.143 -0.893002
vn -0.316959 0.273371 0.908188
vn -0.810155 0.231888 -0.538402
vn -0.916818 -0.0746168 -0.392271
vn -0.598389 -0.718325 -0.35488
vn -0.759755 -0.398077 -0.514109
vn -0.98903 -0.0615212 0.134294
vn -0.980482 -0.032267 -0.193944
vn -0.981325 0.0765686 -0.176459
vn -0.900213 0.265915 0.344827
vn -0.879151 -0.425932 -0.213719
vn -0.73736 -0.666141 -0.112053
vn -0.583015 -0.577731 0.571245
vn -0.759545 0.52294 0.386814
vn -0.462482 0.56985 0.67925
vn -0.929111 -0.100008 -0.356022
vn -0.818143 0.180857 -0.545832
vn -0.86117 -0.382759 -0.334489
vn -0.541219 -0.736405 -0.405943
vn -0.381461 0.516996 0.766291
vn -0.585495 0.29433 0.755358
vn -0.604828 0.142773 0.783454
vn -0.904075 -0.0236559 0.426718
vn -0.267915 -0.0462205 0.962333
vn -0.249423 -0.950139 -0.187146
vn -0.993575 -0.0627971 -0.0941507
vn -0.958565 0.281952 -0.0406881
vn -0.509485 -0.666056 0.0429699
vn -0.0399906 0.917883 -0.394831
vn -0.0424545 0.936659 -0.34766
vn 0.0377349 0.918667 -0.393227
vn -0.00177603 0.949766 -0.312955
vn -0.12832 0.949725 -0.285581
vn -0.166693 0.959834 -0.22568
vn -0.195144 0.966213 -0.168378
vn -0.259363 0.917909 -0.300291
vn -0.214251 0.893842 -0.393881
vn -0.00528539 0.929885 -0.367812
vn 0.206582 0.899604 -0.384754
vn 0.249677 0.922759 -0.293561
vn 0.177662 0.970924 -0.160446
vn 0.0888201 0.945565 -0.313078
vn 0.11481 0.953274 -0.279441
vn 0.155387 0.965041 -0.211069
vn -0.112015 -0.981293 0.137079
vn -0.24475 -0.962523 0.0595592
vn -0.0638484 -0.986967 0.0945093
vn -0.0709601 -0.984314 0.14334
vn -0.140665 -0.973454 0.174246
vn -0.0461406 -0.976702 0.15131
vn -0.0477765 -0.976623 0.192723
vn -0.0170462 -0.958126 0.0919955
vn 0.162575 -0.954449 0.0659347
vn 0.0196978 -0.973536 0.138547
vn -0.0161515 -0.976265 0.143497
vn 0.0453558 -0.977478 0.177927
vn 0.084695 -0.980953 -0.127716
vn 0.0919808 -0.978585 -0.136652
vn 0.097206 -0.976864 -0.143061
vn 0.0647432 -0.976796 -0.160599
vn 0.0622596 -0.977588 -0.157551
vn 0.0521941 -0.980759 -0.145199
vn -0.126123 -0.955963 0.122129
vn -0.120461 -0.957554 0.123641
vn -0.112609 -0.960024 0.125774
vn -0.0802313 -0.965297 0.108968
vn -0.0911249 -0.962287 0.106035
vn -0.093828 -0.96163 0.105321
usemtl _15_-_Default
g Bob_HoodieDOWN
s off
f 1/1/1 2/3/3 3/2/2
f 2/3/3 1/1/1 4/4/4
f 5/5/5 6/7/7 7/6/6
f 6/7/7 5/5/5 8/8/8
f 9/9/9 10/11/11 11/10/10
f 10/11/11 9/9/9 12/12/12
f 13/13/13 14/15/15 15/14/14
f 14/15/15 13/13/13 16/16/16
f 17/17/17 13/13/13 18/18/18
f 13/13/13 17/17/17 16/16/16
f 19/19/19 20/21/21 21/20/20
f 20/21/21 19/19/19 17/17/17
f 7/6/6 22/23/23 23/22/22
f 22/23/23 7/6/6 6/7/7
f 15/14/14 24/25/25 25/24/24
f 24/25/25 15/14/14 14/15/15
f 26/26/26 27/28/28 28/27/27
f 27/28/28 26/26/26 29/29/29
f 15/14/14 30/30/30 13/13/13
f 30/30/30 15/14/14 31/31/31
f 13/13/13 32/32/32 18/18/18
f 32/32/32 13/13/13 30/30/30
f 33/33/33 34/34/34 26/26/26
f 35/35/35 36/37/37 37/36/36
f 36/37/37 35/35/35 38/38/38
f 36/37/37 39/39/39 37/36/36
f 39/39/39 36/37/37 40/40/40
f 41/41/41 40/40/40 42/42/42
f 40/40/40 41/41/41 39/39/39
f 43/43/43 44/45/45 45/44/44
f 44/45/45 46/47/47 47/46/46
f 46/47/47 44/45/45 48/48/48
f 49/49/49 47/51/46 50/50/50
f 47/51/46 51/52/51 50/50/50
f 51/52/51 47/51/46 46/53/47
f 52/54/52 53/56/54 54/55/53
f 52/54/52 50/50/50 53/56/54
f 52/54/52 49/49/49 50/50/50
f 50/50/50 55/57/55 53/56/54
f 55/57/55 50/50/50 51/52/51
f 56/58/56 53/56/54 44/45/45
f 53/56/54 48/48/48 44/45/45
f 48/48/48 53/56/54 55/57/55
f 57/59/57 58/61/59 59/60/58
f 58/61/59 57/59/57 60/62/60
f 60/62/60 61/63/61 58/61/59
f 61/63/61 60/62/60 62/64/62
f 59/65/58 63/67/64 64/66/63
f 63/67/64 59/65/58 58/68/59
f 58/68/59 65/69/65 63/67/64
f 65/69/65 58/68/59 61/70/61
f 64/66/63 66/72/67 67/71/66
f 66/72/67 64/66/63 63/67/64
f 63/67/64 68/73/68 66/72/67
f 68/73/68 63/67/64 65/69/65
f 67/71/66 60/62/60 57/59/57
f 60/62/60 67/71/66 66/72/67
f 66/72/67 62/64/62 60/62/60
f 62/64/62 66/72/67 68/73/68
f 55/57/55 57/59/57 48/48/48
f 57/59/57 55/57/55 67/71/66
f 48/48/48 59/60/58 46/47/47
f 59/60/58 48/48/48 57/59/57
f 51/52/51 59/65/58 64/66/63
f 59/65/58 51/52/51 46/53/47
f 64/66/63 55/57/55 51/52/51
f 55/57/55 64/66/63 67/71/66
f 69/74/69 56/58/56 70/75/70
f 56/58/56 69/74/69 54/55/53
f 70/75/70 11/76/10 69/74/69
f 11/76/10 70/75/70 71/77/71
f 34/34/34 29/29/29 26/26/26
f 29/29/29 34/34/34 72/78/72
f 11/10/10 73/79/73 9/9/9
f 74/80/74 4/82/4 1/81/1
f 4/82/4 74/80/74 75/83/75
f 43/43/43 75/83/75 74/80/74
f 76/84/76 12/12/12 77/85/77
f 76/84/76 10/11/11 12/12/12
f 76/84/76 78/86/78 10/11/11
f 79/87/79 12/12/12 80/88/80
f 12/12/12 79/87/79 77/85/77
f 69/74/69 11/76/10 10/89/11
f 54/55/53 78/90/78 52/54/52
f 54/55/53 10/89/11 78/90/78
f 54/55/53 69/74/69 10/89/11
f 81/91/81 49/49/49 82/92/82
f 49/49/49 81/91/81 45/93/44
f 37/36/36 83/94/83 35/35/35
f 83/94/83 37/36/36 84/95/84
f 5/96/5 45/93/44 81/91/81
f 8/8/8 84/95/84 37/36/36
f 83/94/83 85/97/85 35/35/35
f 9/9/9 86/99/87 87/98/86
f 86/99/87 9/9/9 73/79/73
f 87/98/86 88/100/88 9/9/9
f 88/100/88 87/98/86 89/101/89
f 17/17/17 18/18/18 20/21/21
f 18/18/18 32/32/32 20/21/21
f 90/102/90 91/104/92 92/103/91
f 91/104/92 90/102/90 93/105/93
f 94/106/94 87/98/86 86/99/87
f 87/98/86 94/106/94 95/107/95
f 96/108/96 97/110/98 98/109/97
f 93/105/93 99/112/100 100/111/99
f 99/112/100 93/105/93 90/102/90
f 101/113/101 100/111/99 102/114/102
f 100/111/99 101/113/101 93/105/93
f 103/115/103 104/117/105 105/116/104
f 104/117/105 103/115/103 106/118/106
f 103/115/103 105/116/104 102/114/102
f 95/107/95 107/120/108 108/119/107
f 107/120/108 95/107/95 94/106/94
f 109/121/109 110/123/111 111/122/110
f 110/123/111 109/121/109 108/119/107
f 101/113/101 91/104/92 93/105/93
f 104/117/105 112/125/113 113/124/112
f 114/126/114 115/128/116 116/127/115
f 90/102/90 92/103/91 117/129/117
f 92/103/91 118/130/118 117/129/117
f 119/131/119 104/117/105 113/124/112
f 120/132/120 121/133/121 105/116/104
f 121/133/121 120/132/120 122/134/122
f 111/122/110 123/136/124 124/135/123
f 104/117/105 120/132/120 105/116/104
f 89/101/89 95/107/95 125/137/125
f 95/107/95 89/101/89 87/98/86
f 125/137/125 108/119/107 109/121/109
f 108/119/107 125/137/125 95/107/95
f 110/123/111 108/119/107 121/138/121
f 122/139/122 110/123/111 121/138/121
f 126/140/126 102/114/102 100/111/99
f 126/140/126 103/115/103 102/114/102
f 126/140/126 127/141/127 103/115/103
f 100/111/99 127/141/127 126/140/126
f 128/142/128 114/126/114 116/127/115
f 114/126/114 128/142/128 106/118/106
f 114/126/114 103/115/103 127/141/127
f 103/115/103 114/126/114 106/118/106
f 91/104/92 73/143/73 3/2/2
f 73/143/73 91/104/92 86/144/87
f 73/79/73 11/10/10 71/145/71
f 86/144/87 101/113/101 94/146/94
f 101/113/101 86/144/87 91/104/92
f 101/113/101 102/114/102 94/146/94
f 3/2/2 129/148/130 130/147/129
f 129/148/130 3/2/2 2/3/3
f 21/20/20 131/149/131 19/19/19
f 131/149/131 21/20/20 132/150/132
f 25/24/24 31/31/31 15/14/14
f 31/31/31 25/24/24 133/151/133
f 134/152/134 3/2/2 130/147/129
f 3/2/2 134/152/134 91/104/92
f 123/153/124 98/109/97 124/154/123
f 98/109/97 123/153/124 96/108/96
f 92/103/91 134/152/134 118/130/118
f 134/152/134 92/103/91 91/104/92
f 135/155/135 97/110/98 119/131/119
f 135/155/135 113/124/112 136/156/136
f 113/124/112 135/155/135 119/131/119
f 47/51/46 49/49/49 45/93/44
f 45/44/44 44/45/45 47/46/46
f 40/40/40 17/17/17 19/19/19
f 17/17/17 40/40/40 36/37/37
f 36/37/37 16/16/16 17/17/17
f 16/16/16 36/37/37 38/38/38
f 16/16/16 33/33/33 14/15/15
f 33/33/33 16/16/16 38/38/38
f 14/15/15 137/157/137 24/25/25
f 137/157/137 14/15/15 33/33/33
f 73/143/73 71/158/71 3/2/2
f 3/2/2 71/158/71 1/1/1
f 1/81/1 70/75/70 74/80/74
f 70/75/70 1/81/1 71/77/71
f 74/80/74 56/58/56 43/43/43
f 56/58/56 74/80/74 70/75/70
f 56/58/56 44/45/45 43/43/43
f 53/56/54 56/58/56 54/55/53
f 112/125/113 106/118/106 128/142/128
f 112/125/113 104/117/105 106/118/106
f 115/128/116 114/126/114 99/112/100
f 117/129/117 115/128/116 90/102/90
f 115/128/116 99/112/100 90/102/90
f 100/111/99 114/126/114 127/141/127
f 114/126/114 100/111/99 99/112/100
f 38/38/38 35/35/35 34/34/34
f 76/84/76 82/159/82 78/86/78
f 35/35/35 72/78/72 34/34/34
f 72/78/72 35/35/35 85/97/85
f 34/34/34 33/33/33 38/38/38
f 88/100/88 12/12/12 9/9/9
f 29/29/29 79/87/79 27/28/28
f 79/87/79 29/29/29 77/85/77
f 77/85/77 72/78/72 76/84/76
f 72/78/72 77/85/77 29/29/29
f 72/78/72 82/159/82 76/84/76
f 82/159/82 72/78/72 85/97/85
f 82/159/82 83/94/83 138/160/138
f 83/94/83 82/159/82 85/97/85
f 138/160/138 84/95/84 81/161/81
f 84/95/84 138/160/138 83/94/83
f 8/8/8 81/161/81 84/95/84
f 81/161/81 8/8/8 5/5/5
f 6/7/7 41/41/41 22/23/23
f 41/41/41 6/7/7 39/39/39
f 39/39/39 8/8/8 37/36/36
f 8/8/8 39/39/39 6/7/7
f 7/6/6 4/4/4 5/5/5
f 4/4/4 7/6/6 2/3/3
f 5/162/5 75/83/75 45/44/44
f 75/83/75 5/162/5 4/82/4
f 75/83/75 43/43/43 45/44/44
f 52/54/52 82/92/82 49/49/49
f 82/92/82 52/54/52 78/90/78
f 2/3/3 23/22/22 129/148/130
f 23/22/22 2/3/3 7/6/6
f 107/163/108 105/116/104 121/133/121
f 94/146/94 102/114/102 107/163/108
f 105/116/104 107/163/108 102/114/102
f 121/138/121 108/119/107 107/120/108
f 119/131/119 96/108/96 120/132/120
f 96/108/96 122/134/122 120/132/120
f 122/134/122 96/108/96 123/153/124
f 123/136/124 110/123/111 122/139/122
f 120/132/120 104/117/105 119/131/119
f 28/27/27 33/33/33 26/26/26
f 33/33/33 28/27/27 137/157/137
f 88/100/88 80/88/80 12/12/12
f 19/19/19 42/42/42 40/40/40
f 42/42/42 19/19/19 131/149/131
f 96/108/96 119/131/119 97/110/98
f 123/136/124 111/122/110 110/123/111
f 81/91/81 82/92/82 138/164/138
f 139/165/139 140/167/141 141/166/140
f 140/167/141 139/165/139 142/168/142
f 143/169/143 144/171/145 145/170/144
f 144/171/145 143/169/143 146/172/146
f 147/173/147 148/175/149 149/174/148
f 148/175/149 147/173/147 150/176/150
f 151/177/151 152/179/153 153/178/152
f 152/179/153 151/177/151 154/180/154
f 155/181/155 151/177/151 153/178/152
f 151/177/151 155/181/155 156/182/156
f 157/183/157 158/184/158 155/181/155
f 158/184/158 157/183/157 159/185/159
f 146/172/146 22/23/23 144/171/145
f 22/23/23 146/172/146 23/22/22
f 154/180/154 24/186/25 152/179/153
f 24/186/25 154/180/154 25/187/24
f 160/188/160 27/190/28 161/189/161
f 27/190/28 160/188/160 28/191/27
f 154/180/154 162/193/163 163/192/162
f 162/193/163 154/180/154 151/177/151
f 151/177/151 164/194/164 162/193/163
f 164/194/164 151/177/151 156/182/156
f 165/195/165 160/188/160 166/196/166
f 167/197/167 168/199/169 169/198/168
f 168/199/169 167/197/167 170/200/170
f 168/199/169 171/202/172 172/201/171
f 171/202/172 168/199/169 170/200/170
f 41/41/41 172/201/171 171/202/172
f 172/201/171 41/41/41 42/42/42
f 173/203/173 174/205/175 175/204/174
f 175/204/174 176/207/177 177/206/176
f 176/207/177 175/204/174 178/208/178
f 179/209/179 180/211/180 178/210/178
f 178/210/178 181/213/181 176/212/177
f 181/213/181 178/210/178 180/211/180
f 182/214/182 180/211/180 179/209/179
f 182/214/182 183/215/183 180/211/180
f 182/214/182 184/216/184 183/215/183
f 180/211/180 185/217/185 181/213/181
f 185/217/185 180/211/180 183/215/183
f 186/218/186 175/204/174 183/215/183
f 183/215/183 177/206/176 185/217/185
f 177/206/176 183/215/183 175/204/174
f 187/219/187 188/221/189 189/220/188
f 188/221/189 187/219/187 190/222/190
f 189/220/188 191/224/192 192/223/191
f 191/224/192 189/220/188 188/221/189
f 190/225/190 193/227/193 188/226/189
f 193/227/193 190/225/190 194/228/194
f 188/226/189 195/230/195 191/229/192
f 195/230/195 188/226/189 193/227/193
f 194/228/194 196/231/196 193/227/193
f 196/231/196 194/228/194 197/232/197
f 193/227/193 198/233/198 195/230/195
f 198/233/198 193/227/193 196/231/196
f 197/232/197 189/220/188 196/231/196
f 189/220/188 197/232/197 187/219/187
f 196/231/196 192/223/191 198/233/198
f 192/223/191 196/231/196 189/220/188
f 185/217/185 187/219/187 197/232/197
f 187/219/187 185/217/185 177/206/176
f 177/206/176 190/222/190 187/219/187
f 190/222/190 177/206/176 176/207/177
f 181/213/181 190/225/190 176/212/177
f 190/225/190 181/213/181 194/228/194
f 194/228/194 185/217/185 197/232/197
f 185/217/185 194/228/194 181/213/181
f 199/234/199 186/218/186 184/216/184
f 186/218/186 199/234/199 200/235/200
f 200/235/200 150/237/150 201/236/201
f 150/237/150 200/235/200 199/234/199
f 166/196/166 161/189/161 202/238/202
f 161/189/161 166/196/166 160/188/160
f 150/176/150 147/173/147 203/239/203
f 204/240/204 141/242/140 205/241/205
f 141/242/140 204/240/204 139/243/139
f 173/203/173 204/240/204 205/241/205
f 206/244/206 148/175/149 207/245/207
f 206/244/206 149/174/148 148/175/149
f 206/244/206 208/246/208 149/174/148
f 79/247/79 149/174/148 208/246/208
f 149/174/148 79/247/79 80/248/80
f 199/234/199 148/249/149 150/237/150
f 184/216/184 148/249/149 199/234/199
f 184/216/184 207/250/207 148/249/149
f 184/216/184 182/214/182 207/250/207
f 209/251/209 179/209/179 174/252/175
f 179/209/179 209/251/209 210/253/210
f 170/200/170 211/255/212 212/254/211
f 211/255/212 170/200/170 167/197/167
f 143/256/143 209/251/209 174/252/175
f 145/170/144 170/200/170 212/254/211
f 211/255/212 167/197/167 213/257/213
f 147/173/147 214/258/214 203/239/203
f 214/258/214 147/173/147 215/259/215
f 215/259/215 88/261/88 89/260/89
f 88/261/88 215/259/215 147/173/147
f 155/181/155 158/184/158 156/182/156
f 156/182/156 158/184/158 164/194/164
f 216/262/216 217/264/218 218/263/217
f 217/264/218 216/262/216 219/265/219
f 220/266/220 215/259/215 221/267/221
f 215/259/215 220/266/220 214/258/214
f 222/268/222 98/269/97 97/110/98
f 219/265/219 223/270/223 217/264/218
f 223/270/223 219/265/219 224/271/224
f 225/272/225 224/271/224 219/265/219
f 224/271/224 225/272/225 226/273/226
f 227/274/227 228/276/229 229/275/228
f 228/276/229 227/274/227 230/277/230
f 229/275/228 226/273/226 227/274/227
f 221/267/221 231/278/231 220/266/220
f 231/278/231 221/267/221 232/279/232
f 109/280/109 233/281/233 232/279/232
f 233/281/233 109/280/109 111/282/110
f 225/272/225 219/265/219 216/262/216
f 230/277/230 234/284/235 235/283/234
f 236/285/236 237/287/238 238/286/237
f 217/264/218 239/288/239 218/263/217
f 118/130/118 218/263/217 239/288/239
f 240/289/240 234/284/235 230/277/230
f 241/290/241 242/292/243 243/291/242
f 242/292/243 241/290/241 227/274/227
f 111/282/110 124/294/123 244/293/244
f 230/277/230 227/274/227 241/290/241
f 89/260/89 221/267/221 215/259/215
f 221/267/221 89/260/89 125/295/125
f 125/295/125 232/279/232 221/267/221
f 232/279/232 125/295/125 109/280/109
f 233/281/233 242/296/243 232/279/232
f 243/297/242 242/296/243 233/281/233
f 226/273/226 245/298/245 224/271/224
f 245/298/245 226/273/226 229/275/228
f 245/298/245 229/275/228 246/299/246
f 224/271/224 245/298/245 246/299/246
f 247/300/247 236/285/236 228/276/229
f 236/285/236 247/300/247 237/287/238
f 228/276/229 246/299/246 229/275/228
f 246/299/246 228/276/229 236/285/236
f 203/301/203 216/262/216 142/168/142
f 216/262/216 203/301/203 214/302/214
f 203/239/203 201/303/201 150/176/150
f 214/302/214 225/272/225 216/262/216
f 225/272/225 214/302/214 220/304/220
f 225/272/225 220/304/220 226/273/226
f 129/148/130 142/168/142 130/147/129
f 142/168/142 129/148/130 140/167/141
f 159/185/159 131/149/131 132/150/132
f 131/149/131 159/185/159 157/183/157
f 25/187/24 163/192/162 133/305/133
f 163/192/162 25/187/24 154/180/154
f 134/152/134 142/168/142 216/262/216
f 142/168/142 134/152/134 130/147/129
f 244/306/244 98/269/97 222/268/222
f 98/269/97 244/306/244 124/307/123
f 218/263/217 134/152/134 216/262/216
f 134/152/134 218/263/217 118/130/118
f 135/155/135 240/289/240 97/110/98
f 135/155/135 234/284/235 240/289/240
f 234/284/235 135/155/135 136/156/136
f 178/210/178 174/252/175 179/209/179
f 174/205/175 178/208/178 175/204/174
f 172/201/171 155/181/155 168/199/169
f 155/181/155 172/201/171 157/183/157
f 168/199/169 153/178/152 169/198/168
f 153/178/152 168/199/169 155/181/155
f 153/178/152 165/195/165 169/198/168
f 165/195/165 153/178/152 152/179/153
f 152/179/153 137/308/137 165/195/165
f 137/308/137 152/179/153 24/186/25
f 203/301/203 142/168/142 201/309/201
f 142/168/142 139/165/139 201/309/201
f 139/243/139 200/235/200 201/236/201
f 200/235/200 139/243/139 204/240/204
f 204/240/204 186/218/186 200/235/200
f 186/218/186 204/240/204 173/203/173
f 186/218/186 173/203/173 175/204/174
f 183/215/183 184/216/184 186/218/186
f 235/283/234 247/300/247 228/276/229
f 235/283/234 228/276/229 230/277/230
f 238/286/237 223/270/223 236/285/236
f 239/288/239 217/264/218 238/286/237
f 238/286/237 217/264/218 223/270/223
f 224/271/224 236/285/236 223/270/223
f 236/285/236 224/271/224 246/299/246
f 169/198/168 166/196/166 167/197/167
f 206/244/206 207/245/207 210/310/210
f 167/197/167 202/238/202 213/257/213
f 202/238/202 167/197/167 166/196/166
f 166/196/166 169/198/168 165/195/165
f 88/261/88 147/173/147 149/174/148
f 161/189/161 79/247/79 208/246/208
f 79/247/79 161/189/161 27/190/28
f 208/246/208 202/238/202 161/189/161
f 202/238/202 208/246/208 206/244/206
f 202/238/202 210/310/210 213/257/213
f 210/310/210 202/238/202 206/244/206
f 210/310/210 211/255/212 213/257/213
f 211/255/212 210/310/210 248/311/248
f 248/311/248 212/254/211 211/255/212
f 212/254/211 248/311/248 209/312/209
f 145/170/144 209/312/209 143/169/143
f 209/312/209 145/170/144 212/254/211
f 144/171/145 41/41/41 171/202/172
f 41/41/41 144/171/145 22/23/23
f 171/202/172 145/170/144 144/171/145
f 145/170/144 171/202/172 170/200/170
f 146/172/146 141/166/140 140/167/141
f 141/166/140 146/172/146 143/169/143
f 143/313/143 205/241/205 141/242/140
f 205/241/205 143/313/143 174/205/175
f 205/241/205 174/205/175 173/203/173
f 182/214/182 210/253/210 207/250/207
f 210/253/210 182/214/182 179/209/179
f 140/167/141 23/22/22 146/172/146
f 23/22/22 140/167/141 129/148/130
f 231/314/231 242/292/243 227/274/227
f 220/304/220 231/314/231 226/273/226
f 227/274/227 226/273/226 231/314/231
f 242/296/243 231/278/231 232/279/232
f 240/289/240 241/290/241 222/268/222
f 222/268/222 243/291/242 244/306/244
f 243/291/242 222/268/222 241/290/241
f 244/293/244 243/297/242 233/281/233
f 241/290/241 240/289/240 230/277/230
f 28/191/27 165/195/165 137/308/137
f 165/195/165 28/191/27 160/188/160
f 88/261/88 149/174/148 80/248/80
f 42/42/42 157/183/157 172/201/171
f 157/183/157 42/42/42 131/149/131
f 222/268/222 97/110/98 240/289/240
f 244/293/244 233/281/233 111/282/110
f 209/251/209 248/315/248 210/253/210
f 136/156/249 249/316/249 234/284/249
f 113/124/250 249/316/252 136/156/251
f 112/125/253 249/316/252 113/124/250
f 128/142/254 249/316/252 112/125/253
f 116/127/255 249/316/252 128/142/254
f 249/316/252 116/127/255 115/128/256
f 115/128/256 117/129/257 249/316/252
f 117/129/257 118/130/258 249/316/252
f 118/130/258 239/288/259 249/316/252
f 249/316/252 239/288/259 238/286/260
f 249/316/252 238/286/260 237/287/261
f 249/316/252 235/283/263 234/284/262
f 249/316/252 247/300/264 235/283/263
f 249/316/252 237/287/261 247/300/264
f 158/184/265 162/193/267 164/194/266
f 158/184/265 163/192/268 162/193/267
f 159/185/269 163/192/268 158/184/265
f 159/185/269 133/305/270 163/192/268
f 132/150/271 133/305/270 159/185/269
f 30/30/272 20/21/274 32/32/273
f 31/31/275 20/21/274 30/30/272
f 31/31/275 21/20/276 20/21/274
f 133/151/270 21/20/276 31/31/275
f 132/150/271 21/20/276 133/151/270
f 62/63/277 65/69/279 61/70/278
f 65/69/280 62/63/282 68/73/281
f 195/230/283 192/223/285 191/229/284
f 192/223/286 195/230/288 198/233/287
