# Wavefront OBJ
# Created by fragMOTION 1.3.7
# http://www.fragmosoft.com

mtllib Kate_Shirt_Football.mtl
# 130 vertices
v 0.0851098 0.778798 -0.0247796
v 0.042484 0.768377 -0.0340143
v 0.0362394 0.796372 -0.0256621
v 0.0944738 0.757147 -0.0268939
v 0.0892956 0.742152 -0.029304
v 0.052635 0.696613 -0.0631304
v 0.0513575 0.73656 -0.046978
v 0.08606 0.70202 -0.0335392
v 0.0359779 0.817914 0.0184508
v 0.0907572 0.78988 0.0381777
v 0.0781046 0.801598 0.0119634
v 0.0556987 0.797726 0.0487216
v 0.105754 0.524817 0.0719131
v 0.0553078 0.565156 0.0831226
v 0.0549108 0.531468 0.0964213
v 0.095107 0.561128 0.0497774
v 0.0917496 0.556631 -0.00293637
v 0.10671 0.516509 0.0218961
v 0.090581 0.512667 -0.00944916
v 0.0508375 0.549134 -0.034379
v 0.0510774 0.511512 -0.0304904
v 0.00801751 0.696974 -0.062515
v 0.00710643 0.738396 -0.0495573
v 0.00786124 0.565801 0.0890334
v 0.00641469 0.534457 0.102447
v 0.0475505 0.655163 0.0642835
v 0.00509429 0.69996 0.0761666
v 0.00576914 0.65922 0.0731409
v 0.0526452 0.69999 0.0717987
v 0.0472531 0.609351 0.0669899
v 0.0730664 0.65569 0.05471
v 0.0859536 0.661699 0.0382784
v 0.0789375 0.616211 -0.00457619
v 0.0791194 0.664746 -0.0189313
v 0.0844951 0.610922 0.0444405
v 0.0519184 0.661139 -0.0571534
v 0.0492867 0.612531 -0.0365036
v 0.00844201 0.659628 -0.060671
v 0.0083466 0.612542 -0.0417039
v 0.128172 0.720192 -0.0134506
v 0.139518 0.666873 0.00186165
v 0.0820932 0.712794 -0.0116287
v 0.0886335 0.72092 0.0410858
v 0.0829166 0.669054 0.00325738
v 0.0809711 0.678337 0.0591893
v 0.0906423 0.728597 0.0440825
v 0.141126 0.685551 0.0557385
v 0.130726 0.727313 0.0402613
v 0.138061 0.721276 0.0108809
v 0.121602 0.780351 0.0208197
v 0.128333 0.775025 -0.00140454
v 0.0811231 0.800148 -0.008593
v 0.0846092 0.705061 0.0550637
v 0.0471895 0.810299 -0.00664288
v 0.119848 0.764294 -0.0198463
v 0.110725 0.740101 -0.0188061
v 0.084812 0.752351 0.0429144
v 0.0594824 0.740907 0.0671158
v 0.0892124 0.747369 0.041342
v 0.00444775 0.737171 0.0688553
v 0.00404928 0.794833 0.0490852
v 0.0907135 0.729412 -0.00379833
v 0.0895888 0.743456 0.0344524
v 0.0983687 0.701707 0.0239958
v 0.0914394 0.698862 -0.0104192
v 0.0970875 0.704746 0.0394783
v 0.00662857 0.760391 -0.0426825
v 0.00983242 0.547308 -0.0375181
v 0.00901352 0.510861 -0.0343045
v 0.00703365 0.609416 0.0742039
v 0.00435381 0.813475 0.023523
v 0.0813225 0.731948 0.0144953
v -0.0729377 0.777736 -0.0283031
v -0.0298535 0.767494 -0.0356565
v -0.0821996 0.756796 -0.0308043
v -0.0247625 0.795478 -0.0270411
v -0.075802 0.738535 -0.031655
v -0.036514 0.695308 -0.0651438
v -0.0742539 0.697109 -0.0362134
v -0.0372282 0.735287 -0.0489815
v -0.0271253 0.816989 0.0170243
v -0.0815339 0.788462 0.0335806
v -0.0474475 0.796683 0.0463714
v -0.0679195 0.800553 0.00857944
v -0.0898639 0.533569 0.0670753
v -0.0393011 0.56868 0.0809294
v -0.0781777 0.566607 0.0460428
v -0.041782 0.535831 0.0939517
v -0.0759963 0.561219 -0.00655094
v -0.0892361 0.524662 0.0170812
v -0.0310905 0.551206 -0.0361637
v -0.0783536 0.519466 -0.013832
v -0.0330167 0.514809 -0.0328479
v -0.0356956 0.65469 0.064883
v -0.0422729 0.698711 0.0697223
v -0.032542 0.610072 0.0655301
v -0.060832 0.654206 0.0519784
v -0.073164 0.659866 0.0349888
v -0.0633376 0.616206 -0.00715045
v -0.0692299 0.612114 0.0417056
v -0.0640686 0.663016 -0.0219415
v -0.0352894 0.659702 -0.0590884
v -0.0327094 0.612503 -0.0379962
v -0.11572 0.71986 -0.0211535
v -0.0682833 0.712626 -0.0157734
v -0.128978 0.668088 -0.00357903
v -0.0765226 0.720699 0.0339643
v -0.0717754 0.679606 0.0556496
v -0.0718224 0.670059 -0.00022933
v -0.078951 0.727774 0.0372728
v -0.132384 0.687051 0.0501222
v -0.120209 0.72712 0.0318744
v -0.126333 0.720899 0.00234709
v -0.109635 0.778245 0.0108585
v -0.114902 0.772633 -0.0122973
v -0.0698751 0.799095 -0.0121606
v -0.0738233 0.702825 0.0515358
v -0.0369639 0.809065 -0.00854515
v -0.106215 0.762608 -0.0289014
v -0.0979532 0.739603 -0.0264661
v -0.0755545 0.751847 0.0391525
v -0.079224 0.746793 0.0348583
v -0.050668 0.739363 0.064623
v -0.0789417 0.728785 -0.00821534
v -0.0766314 0.740347 0.028405
v -0.0860331 0.699156 0.0199202
v -0.0785801 0.695731 -0.0138849
v -0.0855191 0.702208 0.0354359
v -0.0696355 0.731555 0.0107169
v 0.00553719 0.773643 -0.0029949
# 175 texture vertices
vt 0.5887 -0.30303
vt 0.531614 -0.294714
vt 0.536069 -0.317973
vt 0.607193 -0.314765
vt 0.606713 -0.341151
vt 0.542763 -0.342918
vt 0.557679 -0.388221
vt 0.608641 -0.390579
vt 0.75 -0.25
vt 0.695102 -0.256256
vt 0.69064 -0.291937
vt 0.741758 -0.289667
vt 0.662034 -0.594069
vt 0.732384 -0.593757
vt 0.741995 -0.551818
vt 0.656486 -0.556383
vt 0.60156 -0.557695
vt 0.622469 -0.593974
vt 0.59121 -0.593333
vt 0.54217 -0.564672
vt 0.543564 -0.593953
vt 0.5 -0.343245
vt 0.5 -0.388388
vt 0.792966 -0.59375
vt 0.792958 -0.549491
vt 0.739078 -0.441098
vt 0.792969 -0.4375
vt 0.792969 -0.386719
vt 0.730251 -0.387537
vt 0.74805 -0.486792
vt 0.684021 -0.442633
vt 0.652139 -0.436352
vt 0.602492 -0.430055
vt 0.601563 -0.484375
vt 0.664965 -0.484709
vt 0.558594 -0.421875
vt 0.550044 -0.484298
vt 0.5 -0.421875
vt 0.500003 -0.48046
vt 0.859758 -0.100631
vt 0.840066 -0.111743
vt 0.863084 -0.17033
vt 0.927714 -0.110956
vt 0.928064 -0.151174
vt 0.955121 -0.14247
vt 0.910156 -0.113281
vt 0.899273 -0.115624
vt 0.891784 -0.16139
vt 0.88529 -0.116338
vt 0.897534 -0.059442
vt 0.886178 -0.065363
vt 0.899981 -0.024266
vt 0.88451 -0.024361
vt 0.683594 -0.382813
vt 0.71875 -0.230469
vt 0.863857 -0.066522
vt 0.867188 -0.023438
vt 0.856743 -0.024579
vt 0.854629 -0.084885
vt 0.685586 -0.347222
vt 0.720378 -0.337139
vt 0.697777 -0.321904
vt 0.792969 -0.339844
vt 0.792969 -0.289063
vt 0.911263 -0.059194
vt 0.911691 -0.087007
vt 0.942622 -0.057626
vt 0.925549 -0.082183
vt 0.957031 -0.094498
vt 0.648763 -0.383772
vt 0.622359 -0.394454
vt 0.950466 -0.024372
vt 0.660687 -0.378998
vt 0.671875 -0.230469
vt 0.5 -0.311153
vt 0.50001 -0.56664
vt 0.497185 -0.59387
vt 0.834869 -0.171917
vt 0.792969 -0.488281
vt 0.580785 -0.253774
vt 0.578991 -0.287884
vt 0.674173 -0.340781
vt 0.792969 -0.257813
vt 0.651212 -0.361826
vt 0.626755 -0.362802
vt 0.847256 -0.024642
vt 0.928913 -0.062212
vt 0.396024 -0.300641
vt 0.392807 -0.314765
vt 0.463931 -0.317973
vt 0.47278 -0.295681
vt 0.393196 -0.347303
vt 0.391359 -0.390579
vt 0.442321 -0.388221
vt 0.457237 -0.342918
vt 0.246094 -0.246094
vt 0.258242 -0.289667
vt 0.30936 -0.291937
vt 0.304898 -0.256256
vt 0.327935 -0.594442
vt 0.344284 -0.554048
vt 0.258635 -0.551568
vt 0.252494 -0.593871
vt 0.398344 -0.557692
vt 0.378423 -0.593365
vt 0.457762 -0.564479
vt 0.405505 -0.593359
vt 0.461848 -0.593872
vt 0.207021 -0.549489
vt 0.207028 -0.59375
vt 0.259789 -0.440552
vt 0.269749 -0.387537
vt 0.207031 -0.386719
vt 0.207031 -0.4375
vt 0.250579 -0.487096
vt 0.315956 -0.441869
vt 0.347846 -0.436535
vt 0.335132 -0.487107
vt 0.398438 -0.484375
vt 0.397533 -0.430101
vt 0.449947 -0.484305
vt 0.441406 -0.421875
vt 0.140974 -0.101172
vt 0.136673 -0.170671
vt 0.160156 -0.109375
vt 0.071528 -0.111727
vt 0.046875 -0.14693
vt 0.07032 -0.149829
vt 0.082031 -0.113281
vt 0.108264 -0.161447
vt 0.100866 -0.115209
vt 0.114581 -0.116373
vt 0.102466 -0.059442
vt 0.113674 -0.065298
vt 0.11549 -0.024361
vt 0.100019 -0.024266
vt 0.316406 -0.382813
vt 0.273438 -0.230469
vt 0.136116 -0.067004
vt 0.145371 -0.084885
vt 0.143257 -0.024579
vt 0.132038 -0.024353
vt 0.317223 -0.344785
vt 0.305681 -0.317361
vt 0.279622 -0.337139
vt 0.207031 -0.339844
vt 0.207031 -0.289063
vt 0.088737 -0.059194
vt 0.087763 -0.086132
vt 0.058823 -0.057925
vt 0.046875 -0.095021
vt 0.07783 -0.080473
vt 0.37747 -0.394509
vt 0.351397 -0.383865
vt 0.04924 -0.030881
vt 0.339313 -0.378998
vt 0.320313 -0.230469
vt 0.164063 -0.175781
vt 0.207031 -0.488281
vt 0.419414 -0.253546
vt 0.410156 -0.28125
vt 0.324191 -0.347651
vt 0.207031 -0.257813
vt 0.347944 -0.361234
vt 0.370733 -0.366344
vt 0.156138 -0.025072
vt 0.077514 -0.05783
vt 0.224333 -0.248088
vt 0.253054 -0.237815
vt 0.438316 -0.28854
vt 0.481225 -0.305953
vt 0.520075 -0.305234
vt 0.559995 -0.28908
vt 0.768567 -0.248211
vt 0.734091 -0.23412
# 158 normals
vn 0.148279 0.347689 -0.887422
vn 0.126248 0.486054 -0.864762
vn 0.1328 0.332587 -0.933106
vn 0.263362 -0.015506 -0.91112
vn 0.380229 -0.294755 -0.799387
vn 0.160526 0.356928 -0.920034
vn 0.299732 0.0808491 -0.95047
vn 0.774797 -0.281629 -0.504497
vn 0.139939 0.934373 0.327663
vn 0.251407 0.930757 0.119562
vn 0.306477 0.522041 0.772445
vn 0.191859 0.615445 0.762422
vn 0.806997 0.421536 0.406341
vn 0.286706 0.3514 0.883902
vn 0.357654 0.398731 0.839045
vn 0.882497 0.342487 0.31639
vn 0.878293 0.128559 -0.452219
vn 0.951479 0.235786 -0.180183
vn 0.725184 0.0429333 -0.674895
vn 0.353739 -0.0594288 -0.921678
vn 0.296495 -0.0785085 -0.93395
vn 0.0166694 0.322269 -0.946502
vn 0.0199721 0.153432 -0.98721
vn -0.0048334 0.392175 0.911959
vn -0.00653647 0.382294 0.918641
vn 0.271323 0.00728742 0.952665
vn 0.00268663 0.018073 0.989509
vn -0.0152369 0.0321945 0.995007
vn 0.25249 -0.0464123 0.962528
vn 0.350752 0.227339 0.9031
vn 0.597965 -0.0227816 0.791334
vn 0.951704 -0.150782 0.240031
vn 0.887512 -0.270086 -0.354818
vn 0.915356 -0.0200519 -0.381934
vn 0.882445 0.106443 0.448177
vn 0.422728 -0.297073 -0.84969
vn 0.443157 -0.203849 -0.862415
vn 0.0237995 -0.273598 -0.95851
vn 0.0150316 -0.238874 -0.961893
vn 0.497201 -0.0936483 -0.835256
vn -0.553805 -0.479392 -0.659866
vn 0.708148 -0.115716 -0.696516
vn -0.826306 -0.154412 0.323521
vn -0.688517 0.182557 0.701792
vn -0.710494 -0.289876 -0.641228
vn -0.359521 0.131813 0.891187
vn 0.576969 0.368787 0.703158
vn 0.701549 0.377241 0.604583
vn 0.926045 0.184717 -0.113917
vn 0.497777 0.654878 0.331355
vn 0.582588 0.544053 -0.254536
vn 0.184102 0.845531 -0.42396
vn 0.617312 -0.104056 0.777586
vn 0.179086 0.913277 -0.365861
vn 0.328507 0.233287 -0.81628
vn 0.146195 -0.239235 -0.938438
vn 0.253012 -0.0238635 0.936687
vn 0.261646 0.178915 0.948303
vn -0.217449 -0.216909 0.882099
vn -0.0253516 0.22891 0.973117
vn -0.0269034 0.582366 0.812481
vn 0.101108 -0.812771 -0.135457
vn -0.349775 -0.546679 0.53721
vn 0.932666 -0.353367 0.0146982
vn 0.888994 -0.40426 -0.133875
vn 0.874476 -0.271729 0.395941
vn 0.0170695 0.304175 -0.952463
vn 0.0221407 -0.0909199 -0.98038
vn 0.0256354 -0.0808678 -0.977524
vn -0.0140446 0.240428 0.964639
vn -0.0249428 0.820245 0.571468
vn 0.332537 -0.704404 0.209102
vn -0.101819 0.336097 -0.907391
vn -0.203694 -0.0549072 -0.952105
vn -0.0972156 0.331532 -0.938374
vn -0.10124 0.482716 -0.869906
vn -0.334219 -0.349059 -0.852558
vn -0.778774 -0.274942 -0.563692
vn -0.26097 0.0760577 -0.962229
vn -0.144767 0.345489 -0.927172
vn -0.181908 0.929657 0.320386
vn -0.239765 0.612863 0.75276
vn -0.336567 0.503346 0.715456
vn -0.260294 0.923869 0.0922063
vn -0.793999 0.457878 0.390042
vn -0.868834 0.388283 0.299704
vn -0.368519 0.422672 0.822436
vn -0.304081 0.37665 0.867234
vn -0.859017 0.194138 -0.464363
vn -0.949232 0.25385 -0.161844
vn -0.29401 -0.0416116 -0.941486
vn -0.719532 0.120852 -0.670594
vn -0.224649 -0.0620664 -0.954529
vn -0.321528 -0.0112472 0.935955
vn -0.299965 -0.0380551 0.948999
vn -0.377181 0.222801 0.892271
vn -0.644075 -0.0365496 0.752394
vn -0.958597 -0.17235 0.200066
vn -0.894488 0.119777 0.416614
vn -0.903421 -0.00436857 -0.412812
vn -0.868653 -0.2913 -0.391641
vn -0.412796 -0.200057 -0.880647
vn -0.381807 -0.311833 -0.866149
vn -0.458655 -0.105242 -0.863371
vn -0.686401 -0.11132 -0.718652
vn 0.570909 -0.492061 -0.616311
vn 0.77489 -0.179854 0.427626
vn 0.714231 -0.336595 -0.61366
vn 0.649479 0.157032 0.743933
vn 0.277105 0.137802 0.9331
vn -0.718424 0.394213 0.573116
vn -0.588487 0.364597 0.664959
vn -0.905486 0.170614 -0.174077
vn -0.477813 0.603382 0.236262
vn -0.530401 0.485202 -0.355101
vn -0.164882 0.837934 -0.446122
vn -0.644254 -0.124162 0.75233
vn -0.18906 0.907878 -0.374183
vn -0.26907 0.19484 -0.861202
vn -0.0993686 -0.244334 -0.950657
vn -0.276477 -0.0227415 0.873891
vn 0.0884145 -0.0486032 0.943658
vn -0.311136 0.172244 0.934615
vn -0.0668514 -0.79261 -0.152031
vn 0.182927 -0.480552 0.656268
vn -0.883081 -0.432322 -0.17762
vn -0.916659 -0.395681 -0.0279007
vn -0.874808 -0.32126 0.358122
vn -0.305991 -0.721892 0.066137
vn 0.126917 -0.977824 0.166589
vn 0.127025 -0.977718 0.166595
vn -0.0282942 -0.944194 0.328172
vn -0.135301 -0.976658 0.166832
vn -0.135421 -0.976541 0.166753
vn 0.0129527 -0.942607 0.333653
vn -0.0621745 -0.984056 0.11244
vn -0.0963091 -0.988269 -0.00512141
vn -0.0594133 -0.985418 0.126432
vn 0.0172452 -0.984415 0.156536
vn -0.0482004 -0.982359 0.167347
vn -0.0535011 -0.981057 0.168931
vn -0.0619868 -0.980751 0.167224
vn -0.0468656 -0.981789 0.166557
vn -0.0588851 -0.98241 0.163473
vn -0.0434343 -0.984544 0.151288
vn -0.0498121 -0.98586 0.126537
vn -0.00258787 -0.990383 0.0658992
vn -0.0299877 -0.985158 0.114471
vn -0.0419138 -0.981672 0.167761
vn 0.0106847 0.554348 -0.832216
vn 0.457764 0.633189 -0.624118
vn -0.00147784 0.867594 -0.49727
vn 0.63074 0.70647 -0.321041
vn 0.656936 0.737116 -0.158411
vn -0.00674241 0.94845 -0.316854
vn -0.670422 0.717659 -0.188414
vn -0.636019 0.687901 -0.349675
vn -0.447455 0.619918 -0.644582
usemtl _20_-_Defaultaaaaa
g Kate_Shirt_Football
s off
f 1/1/1 2/3/3 3/2/2
f 2/3/3 1/1/1 4/4/4
f 5/5/5 6/7/7 7/6/6
f 6/7/7 5/5/5 8/8/8
f 9/9/9 10/11/11 11/10/10
f 10/11/11 9/9/9 12/12/12
f 13/13/13 14/15/15 15/14/14
f 14/15/15 13/13/13 16/16/16
f 17/17/17 13/13/13 18/18/18
f 13/13/13 17/17/17 16/16/16
f 19/19/19 20/20/20 17/17/17
f 20/20/20 19/19/19 21/21/21
f 7/6/6 22/23/23 23/22/22
f 22/23/23 7/6/6 6/7/7
f 15/14/14 24/25/25 25/24/24
f 24/25/25 15/14/14 14/15/15
f 26/26/26 27/28/28 28/27/27
f 27/28/28 26/26/26 29/29/29
f 30/30/30 31/31/31 26/26/26
f 32/32/32 33/34/34 34/33/33
f 33/34/34 32/32/32 35/35/35
f 33/34/34 36/36/36 34/33/33
f 36/36/36 33/34/34 37/37/37
f 38/38/38 37/37/37 39/39/39
f 37/37/37 38/38/38 36/36/36
f 40/40/40 41/42/42 42/41/41
f 43/43/43 44/45/45 45/44/44
f 46/46/46 47/48/48 48/47/47
f 46/46/46 45/44/44 47/48/48
f 46/46/46 43/43/43 45/44/44
f 49/49/49 47/48/48 41/42/42
f 50/50/50 49/49/49 51/51/51
f 49/49/49 50/50/50 48/47/47
f 51/51/51 11/52/10 50/50/50
f 11/52/10 51/51/51 52/53/52
f 31/31/31 29/29/29 26/26/26
f 29/29/29 31/31/31 53/54/53
f 11/10/10 54/55/54 9/9/9
f 55/56/55 4/58/4 1/57/1
f 4/58/4 55/56/55 56/59/56
f 40/40/40 56/59/56 55/56/55
f 57/60/57 12/12/12 58/61/58
f 57/60/57 10/11/11 12/12/12
f 57/60/57 59/62/59 10/11/11
f 60/63/60 12/12/12 61/64/61
f 12/12/12 60/63/60 58/61/58
f 50/50/50 11/52/10 10/65/11
f 48/47/47 59/66/59 46/46/46
f 48/47/47 10/65/11 59/66/59
f 48/47/47 50/50/50 10/65/11
f 62/67/62 43/43/43 63/68/63
f 43/43/43 62/67/62 42/69/41
f 34/33/33 64/70/64 32/32/32
f 64/70/64 34/33/33 65/71/65
f 5/72/5 42/69/41 62/67/62
f 8/8/8 65/71/65 34/33/33
f 64/70/64 66/73/66 32/32/32
f 17/17/17 18/18/18 19/19/19
f 54/55/54 11/10/10 52/74/52
f 2/3/3 67/75/67 3/2/2
f 68/76/68 21/21/21 69/77/69
f 21/21/21 68/76/68 20/20/20
f 44/45/45 43/43/43 42/69/41
f 42/41/41 41/42/42 44/78/45
f 37/37/37 17/17/17 20/20/20
f 17/17/17 37/37/37 33/34/34
f 33/34/34 16/16/16 17/17/17
f 16/16/16 33/34/34 35/35/35
f 16/16/16 30/30/30 14/15/15
f 30/30/30 16/16/16 35/35/35
f 14/15/15 70/79/70 24/25/25
f 70/79/70 14/15/15 30/30/30
f 54/80/54 52/81/52 3/2/2
f 3/2/2 52/81/52 1/1/1
f 1/57/1 51/51/51 55/56/55
f 51/51/51 1/57/1 52/53/52
f 55/56/55 49/49/49 40/40/40
f 49/49/49 55/56/55 51/51/51
f 49/49/49 41/42/42 40/40/40
f 47/48/48 49/49/49 48/47/47
f 35/35/35 32/32/32 31/31/31
f 57/60/57 63/82/63 59/62/59
f 32/32/32 53/54/53 31/31/31
f 53/54/53 32/32/32 66/73/66
f 31/31/31 30/30/30 35/35/35
f 71/83/71 12/12/12 9/9/9
f 29/29/29 60/63/60 27/28/28
f 60/63/60 29/29/29 58/61/58
f 58/61/58 53/54/53 57/60/57
f 53/54/53 58/61/58 29/29/29
f 53/54/53 63/82/63 57/60/57
f 63/82/63 53/54/53 66/73/66
f 63/82/63 64/70/64 72/84/72
f 64/70/64 63/82/63 66/73/66
f 72/84/72 65/71/65 62/85/62
f 65/71/65 72/84/72 64/70/64
f 8/8/8 62/85/62 65/71/65
f 62/85/62 8/8/8 5/5/5
f 6/7/7 38/38/38 22/23/23
f 38/38/38 6/7/7 36/36/36
f 36/36/36 8/8/8 34/33/33
f 8/8/8 36/36/36 6/7/7
f 7/6/6 4/4/4 5/5/5
f 4/4/4 7/6/6 2/3/3
f 5/86/5 56/59/56 42/41/41
f 56/59/56 5/86/5 4/58/4
f 56/59/56 40/40/40 42/41/41
f 46/46/46 63/68/63 43/43/43
f 63/68/63 46/46/46 59/66/59
f 2/3/3 23/22/22 67/75/67
f 23/22/22 2/3/3 7/6/6
f 28/27/27 30/30/30 26/26/26
f 30/30/30 28/27/27 70/79/70
f 71/83/71 61/64/61 12/12/12
f 20/20/20 39/39/39 37/37/37
f 39/39/39 20/20/20 68/76/68
f 62/67/62 63/68/63 72/87/72
f 73/88/73 74/90/75 75/89/74
f 74/90/75 73/88/73 76/91/76
f 77/92/77 78/94/79 79/93/78
f 78/94/79 77/92/77 80/95/80
f 81/96/81 82/98/83 83/97/82
f 82/98/83 81/96/81 84/99/84
f 85/100/85 86/102/87 87/101/86
f 86/102/87 85/100/85 88/103/88
f 89/104/89 85/100/85 87/101/86
f 85/100/85 89/104/89 90/105/90
f 91/106/91 92/107/92 89/104/89
f 92/107/92 91/106/91 93/108/93
f 80/95/80 22/23/23 78/94/79
f 22/23/23 80/95/80 23/22/22
f 88/103/88 24/109/25 86/102/87
f 24/109/25 88/103/88 25/110/24
f 94/111/94 27/113/28 95/112/95
f 27/113/28 94/111/94 28/114/27
f 96/115/96 94/111/94 97/116/97
f 98/117/98 99/119/100 100/118/99
f 99/119/100 98/117/98 101/120/101
f 99/119/100 102/122/103 103/121/102
f 102/122/103 99/119/100 101/120/101
f 38/38/38 103/121/102 102/122/103
f 103/121/102 38/38/38 39/39/39
f 104/123/104 105/125/106 106/124/105
f 107/126/107 108/128/109 109/127/108
f 110/129/110 108/128/109 107/126/107
f 110/129/110 111/130/111 108/128/109
f 110/129/110 112/131/112 111/130/111
f 113/132/113 106/124/105 111/130/111
f 114/133/114 113/132/113 112/131/112
f 113/132/113 114/133/114 115/134/115
f 115/134/115 84/136/84 116/135/116
f 84/136/84 115/134/115 114/133/114
f 97/116/97 95/112/95 117/137/117
f 95/112/95 97/116/97 94/111/94
f 84/99/84 81/96/81 118/138/118
f 119/139/119 75/141/74 120/140/120
f 75/141/74 119/139/119 73/142/73
f 104/123/104 119/139/119 120/140/120
f 121/143/121 82/98/83 122/144/122
f 121/143/121 83/97/82 82/98/83
f 121/143/121 123/145/123 83/97/82
f 60/146/60 83/97/82 123/145/123
f 83/97/82 60/146/60 61/147/61
f 114/133/114 82/148/83 84/136/84
f 112/131/112 82/148/83 114/133/114
f 112/131/112 122/149/122 82/148/83
f 112/131/112 110/129/110 122/149/122
f 124/150/124 107/126/107 105/151/106
f 107/126/107 124/150/124 125/152/125
f 101/120/101 126/154/127 127/153/126
f 126/154/127 101/120/101 98/117/98
f 77/155/77 124/150/124 105/151/106
f 79/93/78 101/120/101 127/153/126
f 126/154/127 98/117/98 128/156/128
f 89/104/89 92/107/92 90/105/90
f 118/138/118 116/157/116 84/99/84
f 74/90/75 76/91/76 67/75/67
f 68/76/68 93/108/93 91/106/91
f 93/108/93 68/76/68 69/77/69
f 109/127/108 105/151/106 107/126/107
f 105/125/106 109/158/108 106/124/105
f 103/121/102 89/104/89 99/119/100
f 89/104/89 103/121/102 91/106/91
f 99/119/100 87/101/86 100/118/99
f 87/101/86 99/119/100 89/104/89
f 87/101/86 96/115/96 100/118/99
f 96/115/96 87/101/86 86/102/87
f 86/102/87 70/159/70 96/115/96
f 70/159/70 86/102/87 24/109/25
f 118/160/118 76/91/76 116/161/116
f 76/91/76 73/88/73 116/161/116
f 73/142/73 115/134/115 116/135/116
f 115/134/115 73/142/73 119/139/119
f 119/139/119 113/132/113 115/134/115
f 113/132/113 119/139/119 104/123/104
f 113/132/113 104/123/104 106/124/105
f 111/130/111 112/131/112 113/132/113
f 100/118/99 97/116/97 98/117/98
f 121/143/121 122/144/122 125/162/125
f 98/117/98 117/137/117 128/156/128
f 117/137/117 98/117/98 97/116/97
f 97/116/97 100/118/99 96/115/96
f 71/163/71 81/96/81 83/97/82
f 95/112/95 60/146/60 123/145/123
f 60/146/60 95/112/95 27/113/28
f 123/145/123 117/137/117 95/112/95
f 117/137/117 123/145/123 121/143/121
f 117/137/117 125/162/125 128/156/128
f 125/162/125 117/137/117 121/143/121
f 125/162/125 126/154/127 128/156/128
f 126/154/127 125/162/125 129/164/129
f 129/164/129 127/153/126 126/154/127
f 127/153/126 129/164/129 124/165/124
f 79/93/78 124/165/124 77/92/77
f 124/165/124 79/93/78 127/153/126
f 78/94/79 38/38/38 102/122/103
f 38/38/38 78/94/79 22/23/23
f 102/122/103 79/93/78 78/94/79
f 79/93/78 102/122/103 101/120/101
f 80/95/80 75/89/74 74/90/75
f 75/89/74 80/95/80 77/92/77
f 77/166/77 120/140/120 75/141/74
f 120/140/120 77/166/77 105/125/106
f 120/140/120 105/125/106 104/123/104
f 110/129/110 125/152/125 122/149/122
f 125/152/125 110/129/110 107/126/107
f 74/90/75 23/22/22 80/95/80
f 23/22/22 74/90/75 67/75/67
f 28/114/27 96/115/96 70/159/70
f 96/115/96 28/114/27 94/111/94
f 71/163/71 83/97/82 61/147/61
f 39/39/39 91/106/91 103/121/102
f 91/106/91 39/39/39 68/76/68
f 124/150/124 129/167/129 125/152/125
f 44/45/130 47/48/130 45/44/131
f 47/48/132 44/45/132 41/42/132
f 111/130/133 109/127/133 108/128/134
f 109/127/135 111/130/135 106/124/135
f 69/77/136 92/107/138 93/108/137
f 92/107/138 85/100/140 90/105/139
f 69/77/136 85/100/140 92/107/138
f 69/77/136 88/103/141 85/100/140
f 25/24/142 88/103/141 69/77/136
f 15/14/143 18/18/145 13/13/144
f 18/18/145 21/21/147 19/19/146
f 18/18/145 69/77/148 21/21/147
f 15/14/143 69/77/148 18/18/145
f 25/24/149 69/77/148 15/14/143
f 71/163/150 130/168/152 81/96/151
f 81/96/151 130/169/152 118/138/153
f 130/170/152 76/91/154 118/160/153
f 76/91/154 130/171/152 67/75/155
f 3/2/156 67/75/155 130/172/152
f 54/80/157 3/2/156 130/173/152
f 71/83/150 9/9/158 130/174/152
f 9/9/158 54/55/157 130/175/152
