# Wavefront OBJ
# Created by fragMOTION 1.3.7
# http://www.fragmosoft.com

mtllib Kate_HoodieDown.mtl
# 280 vertices
v 0.0703583 0.760495 -0.0350581
v 0.0401307 0.764283 -0.0342211
v 0.0745784 0.780674 -0.0259013
v 0.072073 0.717394 -0.0418232
v 0.0564187 0.685751 -0.0661912
v 0.0505342 0.71883 -0.0546598
v 0.0775573 0.684964 -0.0485958
v 0.0398271 0.809703 0.0199339
v 0.0801875 0.791237 0.0385199
v 0.0716181 0.801148 0.0108194
v 0.0503199 0.788796 0.0445959
v 0.0897248 0.56393 0.0482821
v 0.045919 0.597787 0.0629065
v 0.0521373 0.578488 0.0749736
v 0.0788283 0.591821 0.0355578
v 0.0890325 0.573892 -0.00610897
v 0.0999461 0.541786 0.0048045
v 0.0663536 0.55318 -0.0348671
v 0.0851734 0.501292 -0.0113696
v 0.0515422 0.497037 -0.0293691
v 0.0286595 0.68446 -0.0660569
v 0.0248331 0.708869 -0.0558207
v 0.00727889 0.587723 0.0659435
v 0.00804353 0.567978 0.0803381
v 0.0480502 0.655232 0.0533945
v 0.005816 0.681871 0.0526385
v 0.00607562 0.656044 0.0564783
v 0.0518269 0.693697 0.0531529
v 0.0952146 0.527557 0.0754078
v 0.0540168 0.541802 0.101985
v 0.108854 0.509734 0.0201375
v 0.0443595 0.611168 0.0601547
v 0.0691123 0.654439 0.0438699
v 0.0766135 0.659373 0.0241147
v 0.0741449 0.650123 -0.0136937
v 0.083421 0.690937 0.0194216
v 0.0749769 0.66 -0.0161785
v 0.0509878 0.644339 -0.0432037
v 0.0521718 0.647007 -0.0430879
v 0.0277631 0.65014 -0.046213
v 0.0240885 0.648867 -0.045119
v 0.129218 0.725726 -0.0128766
v 0.0876234 0.665723 0.00648375
v 0.0836333 0.707642 -0.00651062
v 0.139735 0.670301 0.00755652
v 0.0963047 0.617956 0.026354
v 0.142676 0.622589 0.0337672
v 0.0829747 0.730025 0.0417862
v 0.0898791 0.685951 0.0626859
v 0.10115 0.63206 0.0801385
v 0.0969879 0.759388 0.0379806
v 0.107425 0.737273 0.0444519
v 0.0908643 0.746953 0.0295544
v 0.140091 0.634411 0.0703824
v 0.137179 0.687798 0.0542659
v 0.133721 0.727476 0.0206047
v 0.148185 0.601621 0.0260058
v 0.106722 0.53373 0.0173132
v 0.0921182 0.593256 0.0206651
v 0.144755 0.542733 0.0166123
v 0.115111 0.494688 0.0106072
v 0.144882 0.494657 0.0101731
v 0.114692 0.533357 0.0661038
v 0.101184 0.596763 0.0844938
v 0.128138 0.486693 0.0526027
v 0.144702 0.54096 0.0652835
v 0.147674 0.604055 0.0739299
v 0.146635 0.489004 0.0500881
v 0.1058 0.80078 0.0168882
v 0.110837 0.794859 -0.00561346
v 0.0740592 0.798128 -0.00719921
v 0.0756493 0.702076 0.0504731
v 0.0598758 0.805012 -0.00534667
v 0.105448 0.778271 -0.0307121
v 0.100875 0.754241 -0.0318401
v 0.0535351 0.749743 0.0552277
v 0.00440304 0.786401 0.0446087
v 0.00223527 0.731377 0.0561026
v 0.0868996 0.757306 0.0453985
v 0.0842062 0.72797 -0.00280321
v 0.0954873 0.735649 -0.0198114
v 0.0875289 0.744543 0.0366297
v 0.0747982 0.738075 -0.0344819
v 0.082954 0.679441 -0.0186235
v 0.0830321 0.691085 -0.00330076
v 0.0827962 0.694501 0.0371376
v 0.0358679 0.789476 -0.0155082
v 0.0328502 0.785982 -0.00400867
v 0.00432638 0.810221 0.0268467
v 0.00534475 0.782466 -0.00020426
v 0.0475621 0.79974 -0.0192838
v 0.0312923 0.79307 -0.0355414
v 0.0422246 0.810981 -0.0353129
v 0.0342329 0.789815 -0.0296947
v 0.0584771 0.774775 0.0149166
v 0.038118 0.761869 0.0328788
v 0.0438285 0.795827 0.0816888
v 0.00278064 0.823335 0.074642
v 0.00278704 0.821978 0.0752391
v 0.031561 0.828422 0.0645334
v 0.05289 0.844669 0.0407064
v 0.0259586 0.851849 0.0500181
v 0.0379021 0.846078 0.0542823
v 0.0599469 0.817193 -0.0184943
v 0.0664943 0.796026 0.00771557
v 0.0482815 0.796787 -0.00950135
v 0.0710684 0.789419 0.0413205
v 0.0741492 0.806439 0.0436177
v 0.0548289 0.820523 0.0599451
v 0.0599178 0.79625 0.0675857
v 0.0675003 0.83642 0.0258766
v 0.0592199 0.768496 0.074374
v 0.0701869 0.778088 0.0502728
v 0.0466222 0.745868 0.0552423
v 0.00483234 0.734858 0.0566602
v 0.0410286 0.745998 0.0751433
v 0.00406847 0.731657 0.0771285
v 0.0269126 0.804799 -0.0463756
v 0.00620906 0.786332 -0.0409479
v 0.00618923 0.799571 -0.049144
v 0.0424204 0.764708 0.0891504
v 0.00342374 0.748531 0.0947076
v 0.00502587 0.751816 0.0371005
v 0.0743157 0.803861 0.0391636
v 0.0691824 0.817321 0.0200082
v 0.0655437 0.826994 0.00220147
v 0.034333 0.790331 -0.0184377
v 0.00615625 0.775352 -0.0314906
v 0.00912822 0.55246 -0.043608
v 0.00805973 0.494672 -0.037717
v 0.00718631 0.545609 0.102059
v 0.00273582 0.847802 0.0607567
v 0.00278073 0.851707 0.0562374
v 0.00776747 0.609678 -0.0412943
v 0.0504038 0.611953 -0.0353017
v 0.0754649 0.616547 -0.00447979
v 0.0726013 0.612345 0.0310962
v 0.00625691 0.608138 0.0620283
v 0.12249 0.731947 0.0363204
v 0.00284639 0.854187 0.0517241
v 0.0828932 0.749102 0.0483597
v 0.0798477 0.721576 0.0115521
v 0.081015 0.709038 -0.0264317
v 0.0287554 0.657006 -0.0571488
v 0.057179 0.654333 -0.0556503
v 0.0752964 0.660134 -0.0354085
v 0.0475914 0.733587 -0.0499474
v 0.00738367 0.724907 -0.0538709
v 0.0064754 0.760331 -0.0372558
v 0.0170027 0.686129 -0.0605622
v 0.0171964 0.659425 -0.0519901
v 0.00291417 0.794489 0.0874432
v 0.00623566 0.780603 -0.0384094
v 0.00827749 0.661673 -0.0516044
v 0.0080923 0.686688 -0.0596355
v -0.0577401 0.759467 -0.0377051
v -0.0624245 0.780004 -0.0289063
v -0.0273807 0.76339 -0.035751
v -0.0575 0.715495 -0.0447522
v -0.0398404 0.68434 -0.0683671
v -0.0617202 0.682922 -0.0517442
v -0.0354546 0.717569 -0.0566036
v -0.0307953 0.808668 0.0183375
v -0.0711313 0.790453 0.0350645
v -0.0416347 0.787993 0.0424958
v -0.0610919 0.800534 0.0078845
v -0.0726578 0.56956 0.0453096
v -0.0312728 0.59851 0.0615358
v -0.0632513 0.59323 0.0330272
v -0.0368075 0.580357 0.0732323
v -0.0705572 0.577322 -0.0091519
v -0.082208 0.549051 0.000941123
v -0.0469396 0.557201 -0.0376981
v -0.0694137 0.507995 -0.0154172
v -0.0354823 0.500765 -0.0319792
v -0.0120897 0.683862 -0.066978
v -0.00944646 0.708367 -0.0565956
v -0.035773 0.654319 0.0516942
v -0.0405514 0.692443 0.0511262
v -0.0808583 0.535734 0.073023
v -0.0398331 0.546389 0.100685
v -0.0936173 0.518459 0.0161935
v -0.0317254 0.610885 0.0588733
v -0.0564479 0.653081 0.0413283
v -0.0632694 0.657679 0.021171
v -0.0708231 0.688675 0.0159349
v -0.0590069 0.648324 -0.0166102
v -0.0599389 0.658158 -0.0191454
v -0.0344602 0.643173 -0.0450822
v -0.0357059 0.645807 -0.0450204
v -0.011146 0.649583 -0.0470846
v -0.0074941 0.648415 -0.0458261
v -0.11603 0.725093 -0.0226081
v -0.0724671 0.707692 -0.00999442
v -0.0770416 0.665854 0.00306828
v -0.129144 0.670602 0.00232529
v -0.0869374 0.615784 0.0230622
v -0.133341 0.621895 0.02891
v -0.0733281 0.730354 0.0374735
v -0.0811597 0.686381 0.0590559
v -0.0924907 0.63593 0.0745554
v -0.0873969 0.75903 0.0318546
v -0.0810718 0.746998 0.0246045
v -0.0974305 0.737283 0.0373204
v -0.131251 0.637514 0.0639597
v -0.128136 0.688335 0.0490053
v -0.123391 0.727825 0.0152813
v -0.139715 0.598017 0.0261317
v -0.0999828 0.528295 0.0312333
v -0.137778 0.537914 0.0284881
v -0.0838634 0.58738 0.0230628
v -0.109477 0.488576 0.0331395
v -0.139297 0.489186 0.032943
v -0.108 0.538564 0.0787273
v -0.0931749 0.602361 0.0840023
v -0.122426 0.491796 0.0750622
v -0.137813 0.546552 0.0761951
v -0.139383 0.608806 0.0717895
v -0.140886 0.493959 0.072204
v -0.0949534 0.799858 0.0110454
v -0.098498 0.793882 -0.0120795
v -0.0626562 0.797536 -0.0102684
v -0.0647918 0.700017 0.0472984
v -0.049098 0.804707 -0.00761871
v -0.0924155 0.777554 -0.0362006
v -0.0882497 0.753618 -0.0366126
v -0.0447539 0.749055 0.0546573
v -0.0779315 0.756264 0.041966
v -0.0723459 0.726742 -0.0053994
v -0.0779138 0.743533 0.0334273
v -0.0836504 0.735209 -0.0237298
v -0.0617145 0.736747 -0.0368768
v -0.0683012 0.677224 -0.0220426
v -0.0694126 0.68885 -0.00674674
v -0.071104 0.692245 0.0336587
v -0.0246482 0.788589 -0.0168762
v -0.0220889 0.785177 -0.00525055
v -0.0364555 0.798508 -0.021183
v -0.0192794 0.792329 -0.0366846
v -0.0223846 0.788985 -0.0309746
v -0.0312338 0.809904 -0.0369734
v -0.0480183 0.773214 0.0125092
v -0.028171 0.760897 0.0313804
v -0.03772 0.794631 0.0798454
v -0.0256503 0.827584 0.0632401
v -0.046348 0.843215 0.038463
v -0.0320365 0.845053 0.0527013
v -0.0200867 0.851174 0.0489773
v -0.0498723 0.815583 -0.0209767
v -0.057017 0.794215 0.00492363
v -0.0375293 0.795529 -0.0114411
v -0.0630153 0.78737 0.0383134
v -0.0665878 0.804375 0.0404363
v -0.0484457 0.819009 0.0576106
v -0.0600255 0.834551 0.0229937
v -0.0531612 0.794592 0.0650296
v -0.0519578 0.766866 0.0718608
v -0.0621022 0.776149 0.0472824
v -0.0370994 0.74464 0.0533498
v -0.0331275 0.744911 0.0734671
v -0.0147823 0.804188 -0.0473181
v -0.0357393 0.763562 0.0873836
v -0.0664773 0.801796 0.035981
v -0.0608805 0.815414 0.0170682
v -0.056726 0.825201 -0.000562412
v -0.0230082 0.78949 -0.0197339
v -0.0350773 0.611337 -0.0368373
v -0.0611114 0.615574 -0.00692645
v -0.0588268 0.612004 0.0288513
v -0.112692 0.732343 0.0313509
v -0.0739248 0.748169 0.045617
v -0.067978 0.719865 0.0088681
v -0.0668794 0.706869 -0.0297748
v -0.0118273 0.656422 -0.0580592
v -0.0403007 0.652985 -0.0578046
v -0.0593308 0.65816 -0.0384517
v -0.0331613 0.732403 -0.0517728
v -0.000746892 0.685868 -0.0609634
v -0.000545176 0.659165 -0.0523911
v 0.00462855 0.832102 -0.000711748
# 349 texture vertices
vt 0.607614 -0.312408
vt 0.582162 -0.298697
vt 0.536203 -0.308075
vt 0.598888 -0.366323
vt 0.553399 -0.364957
vt 0.558381 -0.387525
vt 0.590889 -0.393838
vt 0.753223 -0.238464
vt 0.697029 -0.253208
vt 0.707887 -0.288817
vt 0.742296 -0.290918
vt 0.666807 -0.543352
vt 0.741089 -0.536865
vt 0.739087 -0.51379
vt 0.653144 -0.514953
vt 0.578098 -0.527914
vt 0.617924 -0.550505
vt 0.54273 -0.531953
vt 0.537394 -0.574456
vt 0.574219 -0.574219
vt 0.514568 -0.368008
vt 0.514535 -0.389885
vt 0.793744 -0.552131
vt 0.793744 -0.514646
vt 0.737968 -0.441999
vt 0.792064 -0.43616
vt 0.793174 -0.387587
vt 0.73407 -0.385779
vt 0.666137 -0.575067
vt 0.740697 -0.574348
vt 0.621094 -0.574219
vt 0.738607 -0.490838
vt 0.673709 -0.444527
vt 0.649137 -0.43725
vt 0.647918 -0.382986
vt 0.595351 -0.44696
vt 0.59899 -0.43392
vt 0.553619 -0.440935
vt 0.552789 -0.445853
vt 0.521327 -0.436501
vt 0.521517 -0.440953
vt 0.863281 -0.105114
vt 0.844238 -0.124655
vt 0.84375 -0.177734
vt 0.868164 -0.168945
vt 0.845703 -0.250977
vt 0.868164 -0.243164
vt 0.928711 -0.116179
vt 0.929687 -0.157227
vt 0.957031 -0.144531
vt 0.956055 -0.11335
vt 0.928711 -0.224609
vt 0.951172 -0.231445
vt 0.906456 -0.0956
vt 0.914062 -0.124617
vt 0.927734 -0.092535
vt 0.893555 -0.15918
vt 0.895508 -0.232422
vt 0.885742 -0.114258
vt 0.868164 -0.286133
vt 0.84668 -0.293945
vt 0.850586 -0.393555
vt 0.869141 -0.390625
vt 0.847656 -0.457031
vt 0.871094 -0.457031
vt 0.950195 -0.274414
vt 0.925781 -0.271484
vt 0.916992 -0.369141
vt 0.955078 -0.381836
vt 0.910156 -0.453125
vt 0.951172 -0.455078
vt 0.896484 -0.276367
vt 0.893555 -0.381836
vt 0.890625 -0.454102
vt 0.895508 -0.072111
vt 0.888192 -0.072625
vt 0.902344 -0.020508
vt 0.885742 -0.021484
vt 0.695272 -0.381792
vt 0.726718 -0.226231
vt 0.871505 -0.084971
vt 0.869141 -0.021484
vt 0.858398 -0.022461
vt 0.861688 -0.081055
vt 0.733278 -0.326631
vt 0.792899 -0.341328
vt 0.793014 -0.282949
vt 0.913086 -0.056641
vt 0.913086 -0.081055
vt 0.955078 -0.076703
vt 0.940892 -0.043945
vt 0.927734 -0.077148
vt 0.953125 -0.023438
vt 0.607545 -0.396968
vt 0.62239 -0.3902
vt 0.661548 -0.377262
vt 0.758526 -0.186493
vt 0.72686 -0.191233
vt 0.793006 -0.254356
vt 0.79324 -0.186535
vt 0.563085 -0.203902
vt 0.544542 -0.20837
vt 0.52307 -0.232737
vt 0.531435 -0.246499
vt 0.726746 -0.151283
vt 0.757848 -0.147641
vt 0.555962 -0.041281
vt 0.509675 -0.028865
vt 0.500792 -0.032691
vt 0.523537 -0.05979
vt 0.526724 -0.093154
vt 0.520256 -0.082019
vt 0.509149 -0.092542
vt 0.568974 -0.180502
vt 0.547326 -0.179047
vt 0.572632 -0.200221
vt 0.591329 -0.156932
vt 0.565146 -0.138087
vt 0.572186 -0.08121
vt 0.546042 -0.082161
vt 0.546968 -0.124741
vt 0.605421 -0.097838
vt 0.760558 -0.102984
vt 0.724327 -0.108862
vt 0.793382 -0.100766
vt 0.793292 -0.055537
vt 0.75822 -0.054455
vt 0.520081 -0.222136
vt 0.500681 -0.222541
vt 0.500329 -0.237164
vt 0.56925 -0.03502
vt 0.793508 -0.023666
vt 0.739859 -0.021107
vt 0.793284 -0.136015
vt 0.732667 -0.050358
vt 0.577236 -0.15939
vt 0.561929 -0.156725
vt 0.547192 -0.159908
vt 0.531449 -0.292771
vt 0.580535 -0.25633
vt 0.582762 -0.231558
vt 0.680526 -0.231021
vt 0.599326 -0.198814
vt 0.609249 -0.156211
vt 0.50002 -0.295864
vt 0.500012 -0.531342
vt 0.500229 -0.574069
vt 0.793744 -0.574527
vt 0.500901 -0.061525
vt 0.500449 -0.085729
vt 0.50002 -0.484167
vt 0.552714 -0.483658
vt 0.584023 -0.483752
vt 0.651274 -0.491041
vt 0.794728 -0.493006
vt 0.585563 -0.275971
vt 0.895426 -0.108398
vt 0.500344 -0.093569
vt 0.70944 -0.328637
vt 0.701476 -0.3178
vt 0.675659 -0.331774
vt 0.643146 -0.34861
vt 0.627257 -0.348128
vt 0.608309 -0.382333
vt 0.607674 -0.338801
vt 0.518633 -0.419471
vt 0.559431 -0.417882
vt 0.58743 -0.417648
vt 0.544195 -0.339759
vt 0.848633 -0.022461
vt 0.850277 -0.092406
vt 0.50002 -0.343077
vt 0.50002 -0.311917
vt 0.507818 -0.390665
vt 0.508277 -0.422408
vt 0.520434 -0.020993
vt 0.608931 -0.155128
vt 0.500416 -0.264859
vt 0.547829 -0.017623
vt 0.50002 -0.391445
vt 0.50002 -0.43001
vt 0.924805 -0.056641
vt 0.392425 -0.312408
vt 0.463836 -0.308075
vt 0.417878 -0.298697
vt 0.401152 -0.366323
vt 0.40915 -0.393838
vt 0.441659 -0.387525
vt 0.446641 -0.364957
vt 0.246816 -0.238464
vt 0.257743 -0.290918
vt 0.292152 -0.288817
vt 0.303011 -0.253208
vt 0.333233 -0.543352
vt 0.346896 -0.514953
vt 0.260624 -0.513342
vt 0.258951 -0.536865
vt 0.421942 -0.527914
vt 0.382116 -0.550505
vt 0.457381 -0.52937
vt 0.425781 -0.574219
vt 0.461685 -0.576408
vt 0.485505 -0.389885
vt 0.485472 -0.368008
vt 0.206296 -0.514646
vt 0.206296 -0.552131
vt 0.262072 -0.441999
vt 0.265969 -0.385779
vt 0.206866 -0.387587
vt 0.207975 -0.43616
vt 0.259428 -0.574215
vt 0.333768 -0.57486
vt 0.378906 -0.574219
vt 0.261748 -0.491809
vt 0.326331 -0.444527
vt 0.350902 -0.43725
vt 0.404689 -0.44696
vt 0.352122 -0.382986
vt 0.401049 -0.43392
vt 0.447251 -0.445853
vt 0.446421 -0.440935
vt 0.478523 -0.440953
vt 0.478713 -0.436501
vt 0.136758 -0.105114
vt 0.15629 -0.177734
vt 0.155801 -0.124655
vt 0.131876 -0.168945
vt 0.131876 -0.243164
vt 0.154337 -0.250977
vt 0.071329 -0.116179
vt 0.043985 -0.11335
vt 0.043008 -0.144531
vt 0.070352 -0.157227
vt 0.048868 -0.231445
vt 0.071329 -0.224609
vt 0.093584 -0.0956
vt 0.072305 -0.092535
vt 0.085977 -0.124617
vt 0.104532 -0.232422
vt 0.106485 -0.15918
vt 0.114298 -0.114258
vt 0.131876 -0.286133
vt 0.130899 -0.390625
vt 0.149454 -0.393555
vt 0.15336 -0.293945
vt 0.128906 -0.457031
vt 0.152344 -0.457031
vt 0.049844 -0.274414
vt 0.044962 -0.381836
vt 0.083048 -0.369141
vt 0.074258 -0.271484
vt 0.048868 -0.455078
vt 0.089883 -0.453125
vt 0.106485 -0.381836
vt 0.103555 -0.276367
vt 0.109415 -0.454102
vt 0.104532 -0.072111
vt 0.111847 -0.072625
vt 0.114298 -0.021484
vt 0.097696 -0.020508
vt 0.304767 -0.381792
vt 0.273321 -0.226231
vt 0.128535 -0.084971
vt 0.138352 -0.081055
vt 0.141641 -0.022461
vt 0.130899 -0.021484
vt 0.266762 -0.326631
vt 0.207026 -0.282949
vt 0.20714 -0.341328
vt 0.086954 -0.056641
vt 0.086954 -0.081055
vt 0.072305 -0.077148
vt 0.059148 -0.043945
vt 0.044962 -0.076703
vt 0.046915 -0.023438
vt 0.392495 -0.396968
vt 0.377649 -0.3902
vt 0.338492 -0.377262
vt 0.273208 -0.191031
vt 0.242673 -0.187834
vt 0.207033 -0.254356
vt 0.207044 -0.186621
vt 0.437639 -0.204054
vt 0.46869 -0.246929
vt 0.476236 -0.233671
vt 0.455481 -0.208167
vt 0.273629 -0.151694
vt 0.242368 -0.147833
vt 0.443994 -0.040597
vt 0.47624 -0.059639
vt 0.490403 -0.027041
vt 0.47229 -0.093985
vt 0.491921 -0.093533
vt 0.479253 -0.082126
vt 0.448042 -0.178923
vt 0.428242 -0.172401
vt 0.427025 -0.200329
vt 0.421682 -0.156664
vt 0.436108 -0.138575
vt 0.4479 -0.124425
vt 0.453281 -0.083354
vt 0.428071 -0.081347
vt 0.393697 -0.098011
vt 0.275451 -0.108111
vt 0.238813 -0.102859
vt 0.207285 -0.100975
vt 0.241825 -0.054797
vt 0.206896 -0.055036
vt 0.481381 -0.221627
vt 0.430478 -0.034119
vt 0.259778 -0.021643
vt 0.206821 -0.024407
vt 0.206824 -0.134934
vt 0.26763 -0.050376
vt 0.431149 -0.153622
vt 0.438482 -0.157297
vt 0.447424 -0.159191
vt 0.469157 -0.292391
vt 0.417447 -0.230523
vt 0.418622 -0.257235
vt 0.319514 -0.231021
vt 0.401995 -0.198811
vt 0.391128 -0.155135
vt 0.206296 -0.574527
vt 0.447223 -0.482969
vt 0.415766 -0.48402
vt 0.348867 -0.490639
vt 0.206105 -0.492971
vt 0.415926 -0.275971
vt 0.104614 -0.108398
vt 0.290599 -0.328637
vt 0.324381 -0.331774
vt 0.298564 -0.3178
vt 0.356894 -0.34861
vt 0.372782 -0.348128
vt 0.39173 -0.382333
vt 0.392366 -0.338801
vt 0.481407 -0.419471
vt 0.440608 -0.417882
vt 0.41261 -0.417648
vt 0.455844 -0.339759
vt 0.151407 -0.022461
vt 0.149762 -0.092406
vt 0.492222 -0.390665
vt 0.491763 -0.422408
vt 0.478731 -0.021217
vt 0.450867 -0.018473
vt 0.075235 -0.056641
vt 0.498886 -0.143721
# 314 normals
vn 0.0905362 0.215874 -0.965437
vn -0.0679345 0.569512 -0.801975
vn 0.0128659 0.458017 -0.888087
vn 0.71295 0.206816 -0.670022
vn 0.214692 0.337829 -0.916395
vn 0.318119 0.0289977 -0.947607
vn 0.840995 -0.028836 -0.540274
vn -0.0674608 0.996182 0.0554156
vn 0.168347 0.958756 0.107406
vn 0.242134 0.590085 0.763505
vn 0.0658929 0.52109 0.849472
vn 0.835175 0.424651 0.337383
vn 0.311811 0.584402 0.746175
vn 0.30543 0.457807 0.831784
vn 0.832534 0.404391 0.373777
vn 0.924225 0.197956 -0.324811
vn 0.927667 0.158731 -0.329548
vn 0.501137 -0.035326 -0.853332
vn 0.171272 -0.150424 -0.957764
vn 0.680835 -0.0907701 -0.707168
vn -0.0473213 0.250386 -0.966989
vn -0.213867 0.00151456 -0.976862
vn 0.0042397 0.617287 0.785004
vn -0.00951832 0.465166 0.881756
vn 0.237094 0.122594 0.954997
vn -0.0186357 0.191734 0.971837
vn -0.0209872 0.0214422 0.994272
vn 0.0925923 -0.0803731 0.988747
vn 0.79706 0.398404 0.42828
vn 0.285279 0.587137 0.743048
vn 0.968771 0.12802 -0.204119
vn 0.356829 0.235264 0.897916
vn 0.72713 -0.0709598 0.670987
vn 0.97612 -0.137797 0.127765
vn 0.991091 -0.132403 -0.0144376
vn 0.917115 -0.149302 -0.360567
vn 0.917889 -0.326965 -0.21098
vn 0.471001 -0.620686 -0.622581
vn 0.406227 -0.233899 -0.879649
vn -0.100953 -0.677995 -0.727319
vn 0.0509899 -0.401968 -0.913159
vn 0.511147 -0.145344 -0.791312
vn -0.696784 -0.361542 -0.619501
vn -0.698929 -0.355688 -0.620472
vn 0.746497 -0.187246 -0.638498
vn -0.686051 -0.11107 -0.713599
vn 0.790466 0.036502 -0.60851
vn -0.727063 0.0267022 0.659198
vn -0.619416 0.120522 0.775756
vn -0.552661 0.0557967 0.827069
vn 0.0955067 0.05282 0.976126
vn 0.113667 0.41444 0.891836
vn -0.131865 -0.634173 0.519889
vn 0.738711 0.273523 0.61603
vn 0.746563 0.173351 0.637524
vn 0.987611 0.0886072 0.129514
vn 0.730488 0.197169 -0.653843
vn -0.748509 0.0246454 -0.662668
vn -0.766292 -0.0997248 -0.634001
vn 0.678614 0.114507 -0.723128
vn -0.736455 -0.0565403 -0.672419
vn 0.687885 0.181001 -0.694019
vn -0.569919 -0.0708921 0.815338
vn -0.569001 -0.372426 0.730944
vn -0.465258 -0.4097 0.777522
vn 0.777087 0.101722 0.617612
vn 0.730745 -0.17334 0.659817
vn 0.804197 -0.120314 0.579702
vn 0.238226 0.863065 0.369869
vn 0.266118 0.822852 -0.353245
vn 0.114896 0.838463 -0.490352
vn 0.51382 -0.154455 0.843879
vn 0.0659785 0.860478 -0.486883
vn 0.134895 0.445952 -0.842389
vn 0.22011 -0.281635 -0.919393
vn 0.0626108 0.104762 0.987501
vn 0.0523341 0.00927459 0.992917
vn -0.024348 0.412837 0.910177
vn 0.408158 0.00451098 0.887901
vn 0.302668 -0.786912 -0.480952
vn 0.777904 -0.516146 -0.00376343
vn 0.647323 -0.457845 0.456392
vn 0.565945 -0.136565 -0.78931
vn 0.983229 -0.182222 0.00743593
vn 0.994616 -0.103618 -0.00172309
vn 0.924799 -0.205445 0.320219
vn -0.526244 -0.390624 -0.755301
vn -0.706746 -0.65108 -0.276776
vn -0.0172772 0.992679 0.119537
vn 0.0244408 -0.152414 -0.988015
vn 0.680633 -0.577878 -0.450329
vn 0.689493 -0.429392 -0.583285
vn 0.527422 -0.535881 -0.659285
vn 0.550765 -0.759704 -0.345699
vn 0.629211 -0.624547 -0.462639
vn 0.280526 -0.795854 -0.536583
vn 0.390173 0.323711 0.86196
vn -0.0265904 0.403747 0.914484
vn -0.0268451 0.47465 0.879765
vn 0.247014 0.472486 0.846015
vn 0.654569 0.551653 0.516931
vn 0.3581 0.686985 0.632309
vn 0.194266 0.818675 0.540399
vn 0.721694 -0.614385 -0.318887
vn 0.821087 -0.324542 -0.469562
vn 0.516496 -0.7479 -0.416985
vn 0.949457 -0.245982 -0.195
vn 0.943807 0.180276 0.277
vn 0.727848 0.229143 0.646321
vn 0.587431 0.453472 0.67029
vn 0.933339 0.309394 0.182083
vn 0.813896 -0.251463 0.523775
vn 0.54093 -0.807362 -0.235714
vn 0.923382 -0.382665 0.0305416
vn 0.023952 -0.929899 -0.367034
vn 0.00544875 -0.956466 0.291792
vn 0.501246 -0.766237 0.402035
vn 0.442872 -0.493604 -0.748478
vn 0.0268146 -0.526156 -0.849965
vn 0.0269003 -0.478485 -0.877684
vn 0.433843 -0.160073 0.886655
vn -0.0155352 -0.375126 0.926844
vn 0.0257639 -0.768447 -0.639395
vn 0.997296 -0.0413848 -0.0607205
vn 0.980932 0.0733241 -0.179989
vn 0.978268 0.0275583 -0.205505
vn -0.584455 -0.297376 -0.75497
vn 0.0233142 -0.0508326 -0.998435
vn 0.0169237 -0.0836367 -0.992599
vn 0.0135379 -0.188073 -0.981494
vn 0.0138398 0.66514 0.74659
vn -0.0268134 0.620363 0.783856
vn -0.0250399 0.814676 0.579374
vn 0.0159202 -0.122907 -0.981749
vn 0.467602 -0.0841039 -0.86749
vn 0.943875 0.0620779 -0.297462
vn 0.905315 0.14283 0.388045
vn -0.0144608 0.242445 0.962975
vn 0.565979 0.328727 0.756048
vn -0.0237254 0.876237 0.481295
vn 0.482243 -0.0707686 0.837914
vn 0.935218 -0.256789 0.0178587
vn 0.956636 0.0481254 -0.287281
vn -0.224356 -0.575224 -0.785979
vn 0.354837 -0.6196 -0.697135
vn 0.793354 -0.566562 -0.222702
vn 0.162128 0.345046 -0.924477
vn 0.0175863 0.287554 -0.957594
vn 0.0193026 0.393348 -0.918861
vn -0.259092 -0.0071907 -0.965826
vn -0.274207 -0.498751 -0.822227
vn -0.0259009 0.29326 0.955682
vn 0.0264286 -0.695304 -0.71823
vn 0.0231948 -0.0420554 -0.998846
vn 0.0263129 -0.352502 -0.935441
vn -0.0477123 0.214072 -0.97135
vn 0.0166484 0.459315 -0.888051
vn 0.105618 0.56776 -0.800486
vn -0.687706 0.186282 -0.701683
vn -0.814522 -0.0531066 -0.577696
vn -0.275698 0.0202921 -0.96103
vn -0.18288 0.332 -0.925381
vn 0.035718 0.997695 0.0576911
vn -0.112584 0.522097 0.845294
vn -0.278708 0.587583 0.742206
vn -0.170038 0.954516 0.0895942
vn -0.820559 0.477866 0.308332
vn -0.835402 0.420932 0.34407
vn -0.323624 0.463698 0.820614
vn -0.314114 0.597557 0.733921
vn -0.901822 0.237202 -0.359629
vn -0.901129 0.220877 -0.370005
vn -0.468595 -0.00866601 -0.88097
vn -0.655987 -0.0405987 -0.751719
vn -0.141195 -0.140869 -0.97752
vn 0.257643 0.00842713 -0.966203
vn 0.0836011 0.252305 -0.96403
vn -0.274006 0.11703 0.944629
vn -0.133183 -0.0834366 0.983794
vn -0.265969 0.616089 0.738691
vn -0.778538 0.470705 0.407484
vn -0.946398 0.204374 -0.245256
vn -0.383544 0.232503 0.885447
vn -0.751131 -0.0869519 0.641064
vn -0.978284 -0.161469 0.0866381
vn -0.897262 -0.173816 -0.400308
vn -0.985121 -0.161375 -0.0591086
vn -0.900193 -0.351788 -0.25096
vn -0.36248 -0.244386 -0.896548
vn -0.429426 -0.632981 -0.642381
vn 0.000500955 -0.40269 -0.91429
vn 0.151504 -0.674379 -0.721664
vn -0.463262 -0.167347 -0.839834
vn 0.718645 -0.361123 -0.594255
vn 0.716449 -0.366965 -0.593328
vn -0.724737 -0.188199 -0.662826
vn -0.775464 -0.00295529 -0.628549
vn 0.699255 -0.185876 -0.684585
vn 0.700107 0.0340489 0.691936
vn 0.592791 0.122593 0.795971
vn 0.541329 0.156504 0.821586
vn -0.135169 0.0548071 0.934507
vn 0.104464 -0.60155 0.524401
vn -0.145187 0.413775 0.883684
vn -0.753073 0.265999 0.59659
vn -0.758526 0.279063 0.588866
vn -0.991176 0.0924085 0.095027
vn -0.723092 0.078381 -0.686291
vn -0.675051 -0.0251553 -0.730179
vn 0.763989 -0.252366 -0.590793
vn 0.751035 -0.128339 -0.64767
vn -0.688666 0.0189655 -0.69933
vn 0.731223 -0.239232 -0.629812
vn 0.558749 -0.221106 0.792217
vn 0.559427 0.0473396 0.824239
vn 0.460369 -0.207479 0.837394
vn -0.735711 -0.00946476 0.674455
vn -0.781349 0.212833 0.582939
vn -0.803067 0.0585526 0.584356
vn -0.243142 0.849032 0.334545
vn -0.228968 0.798894 -0.394294
vn -0.0885209 0.834361 -0.50261
vn -0.546672 -0.170002 0.819908
vn -0.0489262 0.866467 -0.491755
vn -0.0849091 0.431548 -0.861281
vn -0.174128 -0.283224 -0.937506
vn -0.110041 0.103336 0.979891
vn -0.444999 -0.0052504 0.830107
vn -0.656033 -0.469979 0.380597
vn -0.763912 -0.534273 -0.0722564
vn -0.280375 -0.78152 -0.496679
vn -0.5256 -0.150699 -0.829469
vn -0.9768 -0.210957 -0.0368692
vn -0.990059 -0.132715 -0.0465853
vn -0.931904 -0.232665 0.278249
vn 0.737325 -0.630605 -0.242256
vn 0.572253 -0.375993 -0.728804
vn -0.636635 -0.606147 -0.47674
vn -0.512091 -0.775285 -0.369725
vn -0.47805 -0.554674 -0.681032
vn -0.644436 -0.465049 -0.606986
vn -0.578698 -0.649511 -0.493198
vn -0.229942 -0.803785 -0.548686
vn -0.438032 0.311569 0.843239
vn -0.298719 0.464485 0.833679
vn -0.693135 0.531894 0.48647
vn -0.242383 0.812273 0.53053
vn -0.406272 0.675778 0.615034
vn -0.784276 -0.357789 -0.506851
vn -0.686863 -0.634816 -0.353875
vn -0.471455 -0.76455 -0.439536
vn -0.930814 -0.279024 -0.236072
vn -0.95991 0.153801 0.234345
vn -0.949276 0.281792 0.139527
vn -0.630146 0.435621 0.642768
vn -0.762705 0.20729 0.612627
vn -0.829698 -0.280832 0.482425
vn -0.909385 -0.415737 -0.0134513
vn -0.497618 -0.825147 -0.267411
vn -0.499884 -0.782355 0.371532
vn -0.388553 -0.509258 -0.767908
vn -0.468683 -0.173656 0.866129
vn -0.991977 -0.0663989 -0.107577
vn -0.973526 0.0446695 -0.22417
vn -0.968179 -0.00111371 -0.250257
vn 0.626432 -0.279618 -0.727597
vn -0.439657 -0.0906339 -0.883788
vn -0.933867 0.0487112 -0.3311
vn -0.916255 0.138104 0.356931
vn -0.590523 0.334447 0.734457
vn -0.515475 -0.0828872 0.776009
vn -0.925639 -0.285386 -0.0444939
vn -0.943681 0.0202658 -0.330237
vn 0.274868 -0.568044 -0.77478
vn -0.309272 -0.628786 -0.711812
vn -0.765542 -0.589416 -0.25794
vn -0.130238 0.34076 -0.931086
vn 0.302559 0.00104336 -0.95313
vn 0.325567 -0.489958 -0.80867
vn -0.00491948 0.921517 -0.388307
vn -0.0953477 0.912549 -0.397697
vn -0.0026898 0.897498 -0.44101
vn -0.113982 0.906911 -0.40561
vn -0.109802 0.912625 -0.393776
vn -0.102833 0.905479 -0.411745
vn -0.103316 0.888768 -0.446562
vn -0.0639705 0.878069 -0.474238
vn 0.0606035 0.844993 -0.531332
vn 0.000446096 0.830137 -0.55756
vn -0.0615172 0.843152 -0.534144
vn 0.0597422 0.879583 -0.471979
vn 0.0980837 0.891509 -0.442258
vn 0.0956337 0.908266 -0.407316
vn 0.101492 0.915738 -0.388746
vn 0.106138 0.910378 -0.399934
vn 0.0865676 0.915544 -0.392791
vn -0.0232184 -0.971758 0.0706412
vn -0.0103325 -0.975322 0.0741553
vn -0.131254 -0.959057 0.112467
vn -0.00504876 -0.975363 -0.184825
vn -0.0169851 -0.978928 -0.170185
vn 0.103253 -0.977152 -0.141828
vn -0.0318629 -0.949814 0.29303
vn -0.0530989 -0.954637 0.268752
vn -0.0160392 -0.949661 0.297425
vn -0.0473188 -0.942265 0.324693
vn -0.0470051 -0.944917 0.313491
vn -0.0521583 -0.936589 0.346526
vn -0.0474627 -0.940085 0.335658
vn -0.0722595 -0.92678 0.290073
vn -0.0287371 -0.924989 0.259656
vn -0.0545092 -0.924595 0.284995
vn -0.0477756 -0.933357 0.322054
vn -0.0414338 -0.932474 0.309796
usemtl _01_-_Default
g Kate_HoodieDown
s off
f 1/1/1 2/3/3 3/2/2
f 4/4/4 5/6/6 6/5/5
f 5/6/6 4/4/4 7/7/7
f 8/8/8 9/10/10 10/9/9
f 9/10/10 8/8/8 11/11/11
f 12/12/12 13/14/14 14/13/13
f 13/14/14 12/12/12 15/15/15
f 16/16/16 12/12/12 17/17/17
f 12/12/12 16/16/16 15/15/15
f 18/18/18 19/20/20 20/19/19
f 19/20/20 18/18/18 16/16/16
f 6/5/5 21/22/22 22/21/21
f 21/22/22 6/5/5 5/6/6
f 14/13/13 23/24/24 24/23/23
f 23/24/24 14/13/13 13/14/14
f 25/25/25 26/27/27 27/26/26
f 26/27/27 25/25/25 28/28/28
f 14/13/13 29/29/29 12/12/12
f 29/29/29 14/13/13 30/30/30
f 12/12/12 31/31/31 17/17/17
f 31/31/31 12/12/12 29/29/29
f 32/32/32 33/33/33 25/25/25
f 34/34/34 35/36/36 36/35/35
f 37/37/37 38/39/39 39/38/38
f 38/39/39 37/37/37 35/36/36
f 38/39/39 40/40/40 39/38/38
f 40/40/40 38/39/39 41/41/41
f 42/42/42 43/44/44 44/43/43
f 45/45/45 46/46/46 43/44/44
f 46/46/46 45/45/45 47/47/47
f 48/48/48 43/50/44 49/49/49
f 43/50/44 48/48/48 44/51/43
f 43/50/44 50/52/50 49/49/49
f 50/52/50 43/50/44 46/53/46
f 51/54/51 48/48/48 52/55/52
f 48/48/48 51/54/51 53/56/53
f 49/49/49 54/58/55 55/57/54
f 54/58/55 49/49/49 50/52/50
f 56/59/56 55/57/54 45/45/45
f 55/57/54 47/47/47 45/45/45
f 47/47/47 55/57/54 54/58/55
f 57/60/57 58/62/59 59/61/58
f 58/62/59 57/60/57 60/63/60
f 60/63/60 61/64/61 58/62/59
f 61/64/61 60/63/60 62/65/62
f 59/66/58 63/68/64 64/67/63
f 63/68/64 59/66/58 58/69/59
f 58/69/59 65/70/65 63/68/64
f 65/70/65 58/69/59 61/71/61
f 64/67/63 66/73/67 67/72/66
f 66/73/67 64/67/63 63/68/64
f 63/68/64 68/74/68 66/73/67
f 68/74/68 63/68/64 65/70/65
f 67/72/66 60/63/60 57/60/57
f 60/63/60 67/72/66 66/73/67
f 66/73/67 62/65/62 60/63/60
f 62/65/62 66/73/67 68/74/68
f 54/58/55 57/60/57 47/47/47
f 57/60/57 54/58/55 67/72/66
f 47/47/47 59/61/58 46/46/46
f 59/61/58 47/47/47 57/60/57
f 50/52/50 59/66/58 64/67/63
f 59/66/58 50/52/50 46/53/46
f 64/67/63 54/58/55 50/52/50
f 54/58/55 64/67/63 67/72/66
f 69/75/69 56/59/56 70/76/70
f 70/76/70 10/77/9 69/75/69
f 10/77/9 70/76/70 71/78/71
f 33/33/33 28/28/28 25/25/25
f 28/28/28 33/33/33 72/79/72
f 10/9/9 73/80/73 8/8/8
f 74/81/74 1/83/1 3/82/2
f 1/83/1 74/81/74 75/84/75
f 42/42/42 75/84/75 74/81/74
f 9/10/10 11/11/11 76/85/76
f 76/85/76 77/87/78 78/86/77
f 77/87/78 76/85/76 11/11/11
f 69/75/69 10/77/9 9/88/10
f 51/54/51 9/88/10 79/89/79
f 53/56/53 80/91/81 81/90/80
f 80/91/81 53/56/53 82/92/82
f 83/93/83 81/90/80 80/91/81
f 84/94/84 85/95/85 37/37/37
f 36/35/35 86/96/86 34/34/34
f 8/8/8 87/98/88 88/97/87
f 87/98/88 8/8/8 73/80/73
f 89/99/89 88/97/87 90/100/90
f 88/97/87 89/99/89 8/8/8
f 16/16/16 17/17/17 19/20/20
f 17/17/17 31/31/31 19/20/20
f 91/101/91 92/103/93 93/102/92
f 92/103/93 91/101/91 94/104/94
f 95/105/95 88/97/87 87/98/88
f 88/97/87 95/105/95 96/106/96
f 97/107/97 98/109/99 99/108/98
f 98/109/99 97/107/97 100/110/100
f 101/111/101 102/113/103 103/112/102
f 91/101/91 104/115/105 105/114/104
f 104/115/105 91/101/91 93/102/92
f 106/116/106 105/114/104 107/117/107
f 105/114/104 106/116/106 91/101/91
f 108/118/108 109/120/110 110/119/109
f 109/120/110 108/118/108 111/121/111
f 108/118/108 110/119/109 112/122/112
f 96/106/96 113/124/114 114/123/113
f 113/124/114 96/106/96 95/105/95
f 115/125/115 116/127/117 117/126/116
f 116/127/117 115/125/115 114/123/113
f 106/116/106 94/104/94 91/101/91
f 109/120/110 101/111/101 103/112/102
f 93/102/92 92/103/93 118/128/118
f 118/128/118 119/130/120 120/129/119
f 119/130/120 118/128/118 92/103/93
f 100/110/100 109/120/110 103/112/102
f 97/107/97 112/122/112 110/119/109
f 112/122/112 97/107/97 121/131/121
f 116/127/117 122/132/122 117/126/116
f 122/132/122 116/127/117 121/133/121
f 109/120/110 97/107/97 110/119/109
f 90/100/90 96/106/96 123/134/123
f 96/106/96 90/100/90 88/97/87
f 123/134/123 114/123/113 115/125/115
f 114/123/113 123/134/123 96/106/96
f 114/123/113 112/135/112 116/127/117
f 112/135/112 114/123/113 113/124/114
f 121/133/121 116/127/117 112/135/112
f 105/114/104 124/136/124 107/117/107
f 107/117/107 124/136/124 108/118/108
f 108/118/108 124/136/124 125/137/125
f 125/137/125 124/136/124 105/114/104
f 125/137/125 111/121/111 108/118/108
f 111/121/111 125/137/125 126/138/126
f 127/139/127 87/141/88 73/140/73
f 87/141/88 127/139/127 94/104/94
f 73/80/73 10/9/9 71/142/71
f 87/141/88 106/116/106 95/143/95
f 106/116/106 87/141/88 94/104/94
f 95/143/95 107/117/107 113/144/114
f 107/117/107 95/143/95 106/116/106
f 2/3/3 128/145/128 127/139/127
f 20/19/19 129/146/129 18/18/18
f 129/146/129 20/19/19 130/147/130
f 24/23/23 30/30/30 14/13/13
f 30/30/30 24/23/23 131/148/131
f 89/99/89 77/87/78 11/11/11
f 103/112/102 132/149/132 100/110/100
f 132/149/132 103/112/102 133/150/133
f 134/151/134 18/18/18 129/146/129
f 18/18/18 134/151/134 135/152/135
f 135/152/135 16/16/16 18/18/18
f 16/16/16 135/152/135 136/153/136
f 136/153/136 15/15/15 16/16/16
f 15/15/15 136/153/136 137/154/137
f 15/15/15 32/32/32 13/14/14
f 32/32/32 15/15/15 137/154/137
f 13/14/14 138/155/138 23/24/24
f 138/155/138 13/14/14 32/32/32
f 73/140/73 71/156/71 127/139/127
f 127/139/127 71/156/71 3/2/2
f 3/82/2 70/76/70 74/81/74
f 70/76/70 3/82/2 71/78/71
f 70/76/70 42/42/42 74/81/74
f 42/42/42 70/76/70 56/59/56
f 56/59/56 45/45/45 42/42/42
f 55/57/54 56/59/56 139/157/139
f 101/111/101 109/120/110 111/121/111
f 105/114/104 126/138/126 125/137/125
f 126/138/126 105/114/104 104/115/105
f 133/150/133 102/113/103 140/158/140
f 102/113/103 133/150/133 103/112/102
f 137/154/137 34/34/34 33/33/33
f 141/159/141 82/161/82 79/160/79
f 86/96/86 33/33/33 34/34/34
f 33/33/33 86/96/86 72/79/72
f 33/33/33 32/32/32 137/154/137
f 89/99/89 11/11/11 8/8/8
f 76/85/76 72/79/72 141/159/141
f 72/79/72 76/85/76 28/28/28
f 72/79/72 82/161/82 141/159/141
f 82/161/82 72/79/72 86/96/86
f 82/161/82 36/35/35 142/162/142
f 36/35/35 82/161/82 86/96/86
f 142/162/142 85/95/85 80/163/81
f 85/95/85 142/162/142 36/35/35
f 143/164/143 80/163/81 85/95/85
f 80/163/81 143/164/143 83/165/83
f 144/166/144 5/6/6 145/167/145
f 5/6/6 144/166/144 21/22/22
f 145/167/145 7/7/7 146/168/146
f 7/7/7 145/167/145 5/6/6
f 147/169/147 1/1/1 83/165/83
f 1/1/1 147/169/147 2/3/3
f 83/170/83 75/84/75 81/171/80
f 75/84/75 83/170/83 1/83/1
f 75/84/75 42/42/42 81/171/80
f 51/54/51 82/92/82 53/56/53
f 82/92/82 51/54/51 79/89/79
f 148/172/148 2/3/3 147/169/147
f 2/3/3 148/172/148 149/173/149
f 39/38/38 146/168/146 37/37/37
f 146/168/146 39/38/38 145/167/145
f 84/94/84 7/7/7 143/164/143
f 143/164/143 4/4/4 83/165/83
f 83/165/83 6/5/5 147/169/147
f 6/5/5 83/165/83 4/4/4
f 147/169/147 22/21/21 148/172/148
f 150/174/150 22/21/21 21/22/22
f 151/175/151 21/22/22 144/166/144
f 21/22/22 151/175/151 150/174/150
f 39/38/38 144/166/144 145/167/145
f 7/7/7 84/94/84 146/168/146
f 85/95/85 84/94/84 143/164/143
f 146/168/146 84/94/84 37/37/37
f 97/107/97 99/108/98 152/176/152
f 97/107/97 109/120/110 100/110/100
f 108/118/108 113/177/114 107/117/107
f 113/177/114 108/118/108 112/122/112
f 27/26/26 32/32/32 25/25/25
f 32/32/32 27/26/26 138/155/138
f 127/139/127 153/178/153 94/104/94
f 153/178/153 127/139/127 128/145/128
f 152/176/152 121/131/121 97/107/97
f 121/131/121 152/176/152 122/179/122
f 153/178/153 92/103/93 94/104/94
f 92/103/93 153/178/153 119/130/120
f 132/149/132 98/109/99 100/110/100
f 78/86/77 28/28/28 76/85/76
f 28/28/28 78/86/77 26/27/27
f 9/88/10 51/54/51 69/75/69
f 43/44/44 42/42/42 45/45/45
f 69/75/69 51/54/51 139/157/139
f 56/59/56 69/75/69 139/157/139
f 144/166/144 39/38/38 40/40/40
f 150/174/150 154/181/155 155/180/154
f 154/181/155 150/174/150 151/175/151
f 22/21/21 150/174/150 155/180/154
f 144/166/144 40/40/40 151/175/151
f 22/21/21 155/180/154 148/172/148
f 22/21/21 147/169/147 6/5/5
f 4/4/4 143/164/143 7/7/7
f 80/91/81 82/92/82 142/182/142
f 42/42/42 44/43/43 81/171/80
f 44/51/43 53/56/53 81/90/80
f 53/56/53 44/51/43 48/48/48
f 49/49/49 52/55/52 48/48/48
f 51/54/51 52/55/52 139/157/139
f 52/55/52 55/57/54 139/157/139
f 55/57/54 52/55/52 49/49/49
f 79/160/79 76/85/76 141/159/141
f 76/85/76 79/160/79 9/10/10
f 3/2/2 2/3/3 127/139/127
f 128/145/128 2/3/3 149/173/149
f 41/41/41 38/39/39 135/152/135
f 135/152/135 35/36/36 136/153/136
f 35/36/36 135/152/135 38/39/39
f 34/34/34 136/153/136 35/36/36
f 136/153/136 34/34/34 137/154/137
f 134/151/134 41/41/41 135/152/135
f 41/41/41 134/151/134 154/181/155
f 151/175/151 41/41/41 154/181/155
f 41/41/41 151/175/151 40/40/40
f 85/95/85 35/36/36 37/37/37
f 35/36/36 85/95/85 36/35/35
f 156/183/156 157/185/158 158/184/157
f 159/186/159 160/188/161 161/187/160
f 160/188/161 159/186/159 162/189/162
f 163/190/163 164/192/165 165/191/164
f 164/192/165 163/190/163 166/193/166
f 167/194/167 168/196/169 169/195/168
f 168/196/169 167/194/167 170/197/170
f 171/198/171 167/194/167 169/195/168
f 167/194/167 171/198/171 172/199/172
f 173/200/173 174/201/174 171/198/171
f 174/201/174 173/200/173 175/202/175
f 162/189/162 176/203/176 160/188/161
f 176/203/176 162/189/162 177/204/177
f 170/197/170 23/205/24 168/196/169
f 23/205/24 170/197/170 24/206/23
f 178/207/178 26/209/27 179/208/179
f 26/209/27 178/207/178 27/210/26
f 170/197/170 180/212/181 181/211/180
f 180/212/181 170/197/170 167/194/167
f 167/194/167 182/213/182 180/212/181
f 182/213/182 167/194/167 172/199/172
f 183/214/183 178/207/178 184/215/184
f 185/216/185 186/218/187 187/217/186
f 188/219/188 189/220/189 187/217/186
f 189/220/189 188/219/188 190/221/190
f 189/220/189 191/223/192 192/222/191
f 191/223/192 189/220/189 190/221/190
f 193/224/193 194/226/195 195/225/194
f 196/227/196 197/229/198 198/228/197
f 197/229/198 196/227/196 195/225/194
f 199/230/199 195/232/194 194/231/195
f 195/232/194 199/230/199 200/233/200
f 195/232/194 201/235/201 197/234/198
f 201/235/201 195/232/194 200/233/200
f 202/236/202 199/230/199 203/237/203
f 199/230/199 202/236/202 204/238/204
f 200/233/200 205/239/205 201/235/201
f 205/239/205 200/233/200 206/240/206
f 207/241/207 196/227/196 206/240/206
f 206/240/206 198/228/197 205/239/205
f 198/228/197 206/240/206 196/227/196
f 208/242/208 209/244/210 210/243/209
f 209/244/210 208/242/208 211/245/211
f 210/243/209 212/247/213 213/246/212
f 212/247/213 210/243/209 209/244/210
f 211/248/211 214/250/214 209/249/210
f 214/250/214 211/248/211 215/251/215
f 209/249/210 216/253/216 212/252/213
f 216/253/216 209/249/210 214/250/214
f 215/251/215 217/254/217 214/250/214
f 217/254/217 215/251/215 218/255/218
f 214/250/214 219/256/219 216/253/216
f 219/256/219 214/250/214 217/254/217
f 218/255/218 210/243/209 217/254/217
f 210/243/209 218/255/218 208/242/208
f 217/254/217 213/246/212 219/256/219
f 213/246/212 217/254/217 210/243/209
f 205/239/205 208/242/208 218/255/218
f 208/242/208 205/239/205 198/228/197
f 198/228/197 211/245/211 208/242/208
f 211/245/211 198/228/197 197/229/198
f 201/235/201 211/248/211 197/234/198
f 211/248/211 201/235/201 215/251/215
f 215/251/215 205/239/205 218/255/218
f 205/239/205 215/251/215 201/235/201
f 220/257/220 221/258/221 207/241/207
f 221/258/221 166/260/166 222/259/222
f 166/260/166 221/258/221 220/257/220
f 184/215/184 179/208/179 223/261/223
f 179/208/179 184/215/184 178/207/178
f 166/193/166 163/190/163 224/262/224
f 225/263/225 156/265/156 226/264/226
f 156/265/156 225/263/225 157/266/158
f 193/224/193 225/263/225 226/264/226
f 164/192/165 227/267/227 165/191/164
f 227/267/227 77/268/78 165/191/164
f 77/268/78 227/267/227 78/269/77
f 220/257/220 164/270/165 166/260/166
f 202/236/202 228/271/228 164/270/165
f 203/237/203 229/273/230 230/272/229
f 229/273/230 203/237/203 231/274/231
f 232/275/232 229/273/230 231/274/231
f 233/276/233 188/219/188 234/277/234
f 186/218/187 185/216/185 235/278/235
f 163/190/163 236/279/236 224/262/224
f 236/279/236 163/190/163 237/280/237
f 89/281/89 237/280/237 163/190/163
f 237/280/237 89/281/89 90/282/90
f 171/198/171 174/201/174 172/199/172
f 172/199/172 174/201/174 182/213/182
f 238/283/238 239/285/240 240/284/239
f 239/285/240 238/283/238 241/286/241
f 242/287/242 237/280/237 243/288/243
f 237/280/237 242/287/242 236/279/236
f 244/289/244 98/109/99 245/290/245
f 98/109/99 244/289/244 99/291/98
f 246/292/246 247/294/248 248/293/247
f 238/283/238 249/295/249 241/286/241
f 249/295/249 238/283/238 250/296/250
f 251/297/251 250/296/250 238/283/238
f 250/296/250 251/297/251 252/298/252
f 253/299/253 254/301/255 255/300/254
f 254/301/255 253/299/253 256/302/256
f 253/299/253 257/303/257 256/302/256
f 243/288/243 258/304/258 242/287/242
f 258/304/258 243/288/243 259/305/259
f 115/306/115 260/307/260 259/305/259
f 260/307/260 115/306/115 117/308/116
f 251/297/251 238/283/238 240/284/239
f 254/301/255 247/294/248 246/292/246
f 241/286/241 261/309/261 239/285/240
f 261/309/261 119/130/120 239/285/240
f 119/130/120 261/309/261 120/129/119
f 245/290/245 247/294/248 254/301/255
f 244/289/244 257/303/257 262/310/262
f 257/303/257 244/289/244 256/302/256
f 260/307/260 122/312/122 262/311/262
f 122/312/122 260/307/260 117/308/116
f 254/301/255 256/302/256 244/289/244
f 90/282/90 243/288/243 237/280/237
f 243/288/243 90/282/90 123/313/123
f 123/313/123 259/305/259 243/288/243
f 259/305/259 123/313/123 115/306/115
f 257/314/257 259/305/259 260/307/260
f 259/305/259 257/314/257 258/304/258
f 262/311/262 257/314/257 260/307/260
f 250/296/250 252/298/252 263/315/263
f 252/298/252 253/299/253 263/315/263
f 253/299/253 264/316/264 263/315/263
f 264/316/264 250/296/250 263/315/263
f 264/316/264 255/300/254 265/317/265
f 255/300/254 264/316/264 253/299/253
f 266/318/266 236/319/236 240/284/239
f 236/319/236 266/318/266 224/320/224
f 224/262/224 222/321/222 166/193/166
f 236/319/236 251/297/251 240/284/239
f 251/297/251 236/319/236 242/322/242
f 242/322/242 252/298/252 251/297/251
f 252/298/252 242/322/242 258/323/258
f 158/184/157 266/318/266 128/145/128
f 175/202/175 129/146/129 130/147/130
f 129/146/129 175/202/175 173/200/173
f 24/206/23 181/211/180 131/324/131
f 181/211/180 24/206/23 170/197/170
f 89/281/89 165/191/164 77/268/78
f 247/294/248 132/149/132 133/150/133
f 132/149/132 247/294/248 245/290/245
f 134/151/134 173/200/173 267/325/267
f 173/200/173 134/151/134 129/146/129
f 267/325/267 171/198/171 268/326/268
f 171/198/171 267/325/267 173/200/173
f 268/326/268 169/195/168 269/327/269
f 169/195/168 268/326/268 171/198/171
f 169/195/168 183/214/183 269/327/269
f 183/214/183 169/195/168 168/196/169
f 168/196/169 138/328/138 183/214/183
f 138/328/138 168/196/169 23/205/24
f 224/320/224 266/318/266 222/329/222
f 266/318/266 157/185/158 222/329/222
f 157/266/158 221/258/221 222/259/222
f 221/258/221 157/266/158 225/263/225
f 193/224/193 221/258/221 225/263/225
f 221/258/221 193/224/193 207/241/207
f 207/241/207 193/224/193 196/227/196
f 206/240/206 270/330/270 207/241/207
f 246/292/246 255/300/254 254/301/255
f 250/296/250 265/317/265 249/295/249
f 265/317/265 250/296/250 264/316/264
f 133/150/133 248/293/247 247/294/248
f 248/293/247 133/150/133 140/158/140
f 269/327/269 184/215/184 185/216/185
f 271/331/271 228/333/228 230/332/229
f 235/278/235 184/215/184 223/261/223
f 184/215/184 235/278/235 185/216/185
f 184/215/184 269/327/269 183/214/183
f 89/281/89 163/190/163 165/191/164
f 227/267/227 223/261/223 179/208/179
f 223/261/223 227/267/227 271/331/271
f 223/261/223 230/332/229 235/278/235
f 230/332/229 223/261/223 271/331/271
f 230/332/229 186/218/187 235/278/235
f 186/218/187 230/332/229 272/334/272
f 272/334/272 234/277/234 186/218/187
f 234/277/234 272/334/272 229/335/230
f 273/336/273 229/335/230 232/337/232
f 229/335/230 273/336/273 234/277/234
f 274/338/274 160/188/161 176/203/176
f 160/188/161 274/338/274 275/339/275
f 275/339/275 161/187/160 160/188/161
f 161/187/160 275/339/275 276/340/276
f 277/341/277 156/183/156 158/184/157
f 156/183/156 277/341/277 232/337/232
f 232/342/232 226/264/226 156/265/156
f 226/264/226 232/342/232 231/343/231
f 226/264/226 231/343/231 193/224/193
f 202/236/202 230/272/229 228/271/228
f 230/272/229 202/236/202 203/237/203
f 148/172/148 158/184/157 149/173/149
f 158/184/157 148/172/148 277/341/277
f 190/221/190 276/340/276 275/339/275
f 276/340/276 190/221/190 188/219/188
f 233/276/233 273/336/273 161/187/160
f 273/336/273 232/337/232 159/186/159
f 232/337/232 162/189/162 159/186/159
f 162/189/162 232/337/232 277/341/277
f 277/341/277 148/172/148 177/204/177
f 278/344/278 176/203/176 177/204/177
f 279/345/279 176/203/176 278/344/278
f 176/203/176 279/345/279 274/338/274
f 190/221/190 275/339/275 274/338/274
f 161/187/160 276/340/276 233/276/233
f 234/277/234 273/336/273 233/276/233
f 276/340/276 188/219/188 233/276/233
f 244/289/244 152/346/152 99/291/98
f 244/289/244 245/290/245 254/301/255
f 253/299/253 258/323/258 257/303/257
f 258/323/258 253/299/253 252/298/252
f 27/210/26 183/214/183 138/328/138
f 183/214/183 27/210/26 178/207/178
f 266/318/266 153/178/153 128/145/128
f 153/178/153 266/318/266 240/284/239
f 152/346/152 262/310/262 122/347/122
f 262/310/262 152/346/152 244/289/244
f 153/178/153 239/285/240 119/130/120
f 239/285/240 153/178/153 240/284/239
f 132/149/132 245/290/245 98/109/99
f 78/269/77 179/208/179 26/209/27
f 179/208/179 78/269/77 227/267/227
f 164/270/165 220/257/220 202/236/202
f 195/225/194 196/227/196 193/224/193
f 220/257/220 270/330/270 202/236/202
f 207/241/207 270/330/270 220/257/220
f 274/338/274 191/223/192 190/221/190
f 278/344/278 154/181/155 279/345/279
f 154/181/155 278/344/278 155/180/154
f 177/204/177 155/180/154 278/344/278
f 274/338/274 279/345/279 191/223/192
f 177/204/177 148/172/148 155/180/154
f 177/204/177 162/189/162 277/341/277
f 159/186/159 161/187/160 273/336/273
f 229/273/230 272/348/272 230/272/229
f 193/224/193 231/343/231 194/226/195
f 194/231/195 203/237/203 199/230/199
f 203/237/203 194/231/195 231/274/231
f 200/233/200 199/230/199 204/238/204
f 202/236/202 270/330/270 204/238/204
f 204/238/204 206/240/206 200/233/200
f 206/240/206 204/238/204 270/330/270
f 228/333/228 227/267/227 164/192/165
f 227/267/227 228/333/228 271/331/271
f 157/185/158 266/318/266 158/184/157
f 128/145/128 149/173/149 158/184/157
f 192/222/191 267/325/267 189/220/189
f 267/325/267 187/217/186 189/220/189
f 187/217/186 267/325/267 268/326/268
f 185/216/185 268/326/268 269/327/269
f 268/326/268 185/216/185 187/217/186
f 134/151/134 267/325/267 192/222/191
f 192/222/191 154/181/155 134/151/134
f 279/345/279 192/222/191 191/223/192
f 192/222/191 279/345/279 154/181/155
f 234/277/234 187/217/186 186/218/187
f 187/217/186 234/277/234 188/219/188
f 140/158/280 280/349/282 248/293/281
f 248/293/281 280/349/282 246/292/283
f 280/349/282 255/300/284 246/292/283
f 255/300/284 280/349/282 265/317/285
f 265/317/285 280/349/282 249/295/286
f 249/295/286 280/349/282 241/286/287
f 280/349/282 261/309/288 241/286/287
f 280/349/282 120/129/289 261/309/288
f 280/349/282 118/128/290 120/129/289
f 280/349/282 93/102/291 118/128/290
f 280/349/282 104/115/292 93/102/291
f 280/349/282 126/138/293 104/115/292
f 280/349/282 111/121/294 126/138/293
f 101/111/295 111/121/294 280/349/282
f 102/113/296 101/111/295 280/349/282
f 140/158/280 102/113/296 280/349/282
f 216/253/297 213/246/297 212/247/298
f 213/246/299 216/253/299 219/256/299
f 62/65/300 65/70/300 61/64/301
f 65/70/302 62/65/302 68/74/302
f 174/201/303 180/212/305 182/213/304
f 174/201/303 181/211/306 180/212/305
f 175/202/307 181/211/306 174/201/303
f 175/202/307 131/324/308 181/211/306
f 130/147/309 131/324/308 175/202/307
f 29/29/310 19/20/312 31/31/311
f 30/30/313 19/20/312 29/29/310
f 30/30/313 20/19/314 19/20/312
f 131/324/308 20/19/314 30/30/313
f 131/324/308 130/147/309 20/19/314
