# Wavefront OBJ
# Created by fragMOTION 1.3.7
# http://www.fragmosoft.com

mtllib Kate_Jumper.mtl
# 214 vertices
v 0.0698754 0.760579 -0.034932
v 0.0400826 0.764223 -0.0342129
v 0.0735513 0.780526 -0.0259108
v 0.072073 0.717394 -0.0418232
v 0.0564187 0.685751 -0.0661912
v 0.0505342 0.71883 -0.0546598
v 0.0775573 0.684964 -0.0485958
v 0.0330944 0.81246 0.0149261
v 0.0792303 0.791269 0.0385843
v 0.0692554 0.801503 0.0109497
v 0.0499513 0.789677 0.0443629
v 0.0870923 0.57069 0.0565395
v 0.0481429 0.59593 0.0611881
v 0.0554814 0.582955 0.0792708
v 0.0813634 0.591229 0.035026
v 0.0895241 0.574338 -0.00594941
v 0.100664 0.534055 0.0107898
v 0.0558718 0.554074 -0.03706
v 0.0889235 0.504745 -0.00990802
v 0.0537216 0.498603 -0.0307315
v 0.0286595 0.68446 -0.0660569
v 0.0248331 0.708869 -0.0558207
v 0.00659631 0.590849 0.0703468
v 0.00953321 0.586022 0.0829874
v 0.0480584 0.65415 0.0531311
v 0.00561465 0.683003 0.0523641
v 0.00615336 0.654527 0.0562408
v 0.0517774 0.694488 0.0528393
v 0.096936 0.526286 0.075664
v 0.054835 0.545306 0.102174
v 0.106774 0.508271 0.0207322
v 0.045247 0.611449 0.0560609
v 0.0690916 0.653987 0.043722
v 0.0764919 0.658802 0.0239094
v 0.0737407 0.650708 -0.0141377
v 0.083421 0.690937 0.0194216
v 0.0751732 0.659765 -0.0161771
v 0.0505803 0.64595 -0.043586
v 0.0523833 0.646374 -0.043001
v 0.0278131 0.649911 -0.0462137
v 0.0239684 0.649481 -0.0451453
v 0.124773 0.715077 -0.0123073
v 0.0876234 0.665723 0.00648375
v 0.0836333 0.707642 -0.00651062
v 0.139735 0.670301 0.00755652
v 0.0960684 0.619618 0.02634
v 0.142529 0.623542 0.0336337
v 0.0809765 0.729237 0.0417069
v 0.0898791 0.685951 0.0626859
v 0.100937 0.633188 0.0795614
v 0.0977564 0.758744 0.0378144
v 0.103662 0.732627 0.0446414
v 0.0933919 0.746604 0.0297262
v 0.139903 0.635412 0.0698864
v 0.137179 0.687798 0.0542659
v 0.133721 0.727476 0.0206047
v 0.148185 0.601621 0.0260058
v 0.1072 0.533988 0.0167163
v 0.0921182 0.593256 0.0206651
v 0.145347 0.542533 0.0158602
v 0.115126 0.494721 0.0106004
v 0.144882 0.494657 0.0101731
v 0.115154 0.534218 0.0655913
v 0.101363 0.594448 0.082889
v 0.128138 0.486693 0.0526027
v 0.145262 0.54146 0.0646358
v 0.14779 0.602231 0.0723955
v 0.146635 0.489004 0.0500881
v 0.108465 0.795808 0.0181854
v 0.111831 0.791726 -0.00474828
v 0.0721 0.796797 -0.00686691
v 0.0756493 0.702076 0.0504731
v 0.0406911 0.807009 -0.00676112
v 0.106313 0.77683 -0.0304125
v 0.100829 0.753317 -0.0318844
v 0.0543779 0.746581 0.0572206
v 0.00451336 0.786736 0.0444297
v 0.00484002 0.73053 0.0558087
v 0.0876506 0.755273 0.0458367
v 0.0848323 0.728949 -0.00282968
v 0.0922753 0.737017 -0.0202524
v 0.0899277 0.744977 0.0371542
v 0.0759937 0.738068 -0.0339563
v 0.082954 0.679441 -0.0186235
v 0.0830321 0.691085 -0.00330076
v 0.0827962 0.694501 0.0371376
v 0.0435113 0.833538 -0.00367864
v 0.0303021 0.840395 0.0160919
v 0.00442868 0.812906 0.0205798
v 0.00441674 0.843246 0.0214727
v 0.0333953 0.820237 -0.0232899
v 0.0294226 0.791857 -0.0186025
v 0.00636408 0.777827 -0.0318829
v 0.0096066 0.552253 -0.0450867
v 0.00824686 0.49915 -0.0368252
v 0.00725801 0.548114 0.104033
v 0.00772698 0.610745 -0.0425295
v 0.0498551 0.612609 -0.0362419
v 0.0755049 0.616628 -0.00526049
v 0.0785205 0.612891 0.0321669
v 0.00607868 0.609023 0.0647567
v 0.12249 0.731947 0.0363204
v 0.084786 0.74938 0.0489212
v 0.0795255 0.721876 0.0113981
v 0.081015 0.709038 -0.0264317
v 0.0287959 0.656777 -0.0571884
v 0.05736 0.653683 -0.0557019
v 0.0752964 0.660134 -0.0354085
v 0.0475914 0.733587 -0.0499474
v 0.00731778 0.725658 -0.0506458
v 0.00655202 0.759738 -0.0392193
v 0.0170027 0.686129 -0.0605622
v 0.0171964 0.659425 -0.0519901
v 0.00507292 0.805736 -0.0450056
v 0.00827749 0.661673 -0.0516044
v 0.0080923 0.686688 -0.0596355
v -0.0571958 0.759368 -0.0378302
v -0.0613994 0.779985 -0.0290182
v -0.0273434 0.763354 -0.0357417
v -0.0575 0.715495 -0.0447522
v -0.0398404 0.68434 -0.0683671
v -0.0617202 0.682922 -0.0517442
v -0.0354546 0.717569 -0.0566036
v -0.023927 0.811624 0.0136372
v -0.0702035 0.790587 0.0351466
v -0.0413457 0.788702 0.0422848
v -0.0588527 0.801051 0.00799745
v -0.0691278 0.576486 0.05315
v -0.0346151 0.596123 0.0598772
v -0.0661703 0.592306 0.0325657
v -0.0377097 0.586412 0.0772489
v -0.0716939 0.577116 -0.0089076
v -0.083364 0.540883 0.00679694
v -0.0367944 0.556315 -0.0388688
v -0.0730176 0.511927 -0.0144515
v -0.0373129 0.502886 -0.0328592
v -0.0120897 0.683862 -0.066978
v -0.00944646 0.708367 -0.0565956
v -0.035675 0.653362 0.05151
v -0.0408391 0.69313 0.0507457
v -0.082564 0.535241 0.074227
v -0.0402339 0.549779 0.0999523
v -0.091649 0.517147 0.016965
v -0.0328008 0.610977 0.0547162
v -0.0563888 0.652723 0.0412404
v -0.063099 0.657358 0.021125
v -0.0708231 0.688675 0.0159349
v -0.0588557 0.649268 -0.016825
v -0.0600657 0.657782 -0.0192341
v -0.034516 0.644999 -0.045327
v -0.0357048 0.645083 -0.0449922
v -0.0111287 0.649341 -0.047094
v -0.00754957 0.649059 -0.0458335
v -0.113359 0.715227 -0.01724
v -0.0724671 0.707692 -0.00999442
v -0.0770416 0.665854 0.00306828
v -0.129144 0.670602 0.00232529
v -0.0868401 0.616386 0.0229827
v -0.133281 0.622239 0.0288325
v -0.0713965 0.729529 0.0381754
v -0.0811597 0.686381 0.0590559
v -0.0924019 0.636308 0.0742886
v -0.0882414 0.758673 0.0319165
v -0.0836519 0.746493 0.0247918
v -0.0941576 0.733006 0.0403108
v -0.131173 0.637854 0.063734
v -0.128136 0.688335 0.0490053
v -0.123391 0.727825 0.0152813
v -0.139715 0.598017 0.0261317
v -0.100442 0.528926 0.0310665
v -0.138356 0.538048 0.0281802
v -0.0838634 0.58738 0.0230628
v -0.109527 0.48838 0.0331592
v -0.139297 0.489186 0.032943
v -0.108545 0.539246 0.078815
v -0.0932759 0.601376 0.083678
v -0.122426 0.491796 0.0750622
v -0.138455 0.546875 0.0761623
v -0.139455 0.608001 0.0714393
v -0.140886 0.493959 0.072204
v -0.097003 0.794722 0.0115788
v -0.0992494 0.790647 -0.0115641
v -0.0608012 0.796391 -0.00993213
v -0.0647918 0.700017 0.0472984
v -0.0303732 0.805967 -0.00836751
v -0.0930156 0.776227 -0.0360675
v -0.0881729 0.753002 -0.0365877
v -0.04516 0.745122 0.0549706
v -0.0788394 0.754363 0.0423247
v -0.0726497 0.727504 -0.00545666
v -0.0798943 0.743206 0.0336329
v -0.0805515 0.737176 -0.023752
v -0.0623761 0.736039 -0.0370842
v -0.0683012 0.677224 -0.0220426
v -0.0694126 0.68885 -0.00674674
v -0.071104 0.692245 0.0336587
v -0.0342346 0.833103 -0.00416922
v -0.0213609 0.840105 0.015766
v -0.0237035 0.819916 -0.0236502
v -0.0181422 0.79116 -0.0196776
v -0.0345712 0.612099 -0.0376966
v -0.0611571 0.615802 -0.00761517
v -0.0653223 0.612021 0.0296885
v -0.112692 0.732343 0.0313509
v -0.0754294 0.747764 0.0458292
v -0.0676906 0.720256 0.00884546
v -0.0668794 0.706869 -0.0297748
v -0.0118154 0.656182 -0.0581064
v -0.0403146 0.652251 -0.0579098
v -0.0593308 0.65816 -0.0384517
v -0.0331613 0.732403 -0.0517728
v -0.000746892 0.685868 -0.0609634
v -0.000545176 0.659165 -0.0523911
v 0.00471038 0.830941 -0.000820713
# 265 texture vertices
vt 0.607614 -0.312408
vt 0.582162 -0.298697
vt 0.536203 -0.308075
vt 0.598888 -0.366323
vt 0.553399 -0.364957
vt 0.558381 -0.387525
vt 0.590889 -0.393838
vt 0.753223 -0.238464
vt 0.697029 -0.253208
vt 0.707887 -0.288817
vt 0.742296 -0.290918
vt 0.669845 -0.538259
vt 0.741089 -0.536865
vt 0.73816 -0.512665
vt 0.653144 -0.514953
vt 0.578098 -0.527914
vt 0.612469 -0.561684
vt 0.543474 -0.530875
vt 0.538448 -0.574256
vt 0.575741 -0.570488
vt 0.514568 -0.368008
vt 0.514535 -0.389885
vt 0.788402 -0.530156
vt 0.794122 -0.516412
vt 0.737968 -0.441999
vt 0.792064 -0.43616
vt 0.793174 -0.387587
vt 0.73407 -0.385779
vt 0.668417 -0.571828
vt 0.743742 -0.571489
vt 0.620563 -0.57943
vt 0.736979 -0.490554
vt 0.673709 -0.444527
vt 0.649137 -0.43725
vt 0.647918 -0.382986
vt 0.595351 -0.44696
vt 0.59899 -0.43392
vt 0.553619 -0.440935
vt 0.552789 -0.445853
vt 0.521327 -0.436501
vt 0.521517 -0.440953
vt 0.863281 -0.105114
vt 0.844238 -0.124655
vt 0.84375 -0.177734
vt 0.868164 -0.168945
vt 0.845703 -0.250977
vt 0.868164 -0.243164
vt 0.928711 -0.116179
vt 0.929687 -0.157227
vt 0.957031 -0.144531
vt 0.956055 -0.11335
vt 0.928711 -0.224609
vt 0.951172 -0.231445
vt 0.906456 -0.0956
vt 0.914062 -0.124617
vt 0.927734 -0.092535
vt 0.893555 -0.15918
vt 0.895508 -0.232422
vt 0.885742 -0.114258
vt 0.868164 -0.286133
vt 0.84668 -0.293945
vt 0.850586 -0.393555
vt 0.869141 -0.390625
vt 0.849609 -0.458984
vt 0.871094 -0.458008
vt 0.950195 -0.274414
vt 0.925781 -0.271484
vt 0.916992 -0.369141
vt 0.955078 -0.381836
vt 0.910156 -0.453125
vt 0.951172 -0.455078
vt 0.896484 -0.276367
vt 0.893555 -0.381836
vt 0.890625 -0.454102
vt 0.895508 -0.072111
vt 0.888192 -0.072625
vt 0.902344 -0.020508
vt 0.885742 -0.021484
vt 0.695272 -0.381792
vt 0.726718 -0.226231
vt 0.871505 -0.084971
vt 0.869141 -0.021484
vt 0.858398 -0.022461
vt 0.861688 -0.081055
vt 0.733278 -0.326631
vt 0.792899 -0.341328
vt 0.793014 -0.282949
vt 0.913086 -0.056641
vt 0.913086 -0.081055
vt 0.955078 -0.076703
vt 0.940892 -0.043945
vt 0.927734 -0.077148
vt 0.953125 -0.023438
vt 0.607545 -0.396968
vt 0.62239 -0.3902
vt 0.661548 -0.377262
vt 0.758326 -0.187471
vt 0.727508 -0.191477
vt 0.791699 -0.254356
vt 0.791746 -0.186818
vt 0.531685 -0.246963
vt 0.530339 -0.293115
vt 0.581136 -0.256965
vt 0.583387 -0.230322
vt 0.680526 -0.231021
vt 0.50002 -0.295864
vt 0.50002 -0.531394
vt 0.50002 -0.577425
vt 0.794104 -0.576936
vt 0.50002 -0.484167
vt 0.551288 -0.483273
vt 0.583744 -0.482629
vt 0.650006 -0.491659
vt 0.794819 -0.492993
vt 0.584114 -0.276551
vt 0.895426 -0.108398
vt 0.70944 -0.328637
vt 0.701476 -0.3178
vt 0.675659 -0.331774
vt 0.643146 -0.34861
vt 0.627257 -0.348128
vt 0.608309 -0.382333
vt 0.607674 -0.338801
vt 0.518633 -0.419471
vt 0.559431 -0.417882
vt 0.58743 -0.417648
vt 0.544195 -0.339759
vt 0.848633 -0.022461
vt 0.850277 -0.092406
vt 0.50002 -0.343077
vt 0.50002 -0.311917
vt 0.507818 -0.390665
vt 0.508277 -0.422408
vt 0.50002 -0.26557
vt 0.50002 -0.391445
vt 0.50002 -0.43001
vt 0.924805 -0.056641
vt 0.392425 -0.312408
vt 0.463836 -0.308075
vt 0.417878 -0.298697
vt 0.401152 -0.366323
vt 0.40915 -0.393838
vt 0.441659 -0.387525
vt 0.446641 -0.364957
vt 0.246816 -0.238464
vt 0.257743 -0.290918
vt 0.292152 -0.288817
vt 0.303011 -0.253208
vt 0.327839 -0.540205
vt 0.346896 -0.514953
vt 0.26188 -0.512665
vt 0.258951 -0.536865
vt 0.421942 -0.527914
vt 0.385366 -0.560032
vt 0.456566 -0.530875
vt 0.424299 -0.570488
vt 0.461591 -0.574256
vt 0.485505 -0.389885
vt 0.485472 -0.368008
vt 0.204834 -0.516516
vt 0.208836 -0.529967
vt 0.262072 -0.441999
vt 0.265969 -0.385779
vt 0.206866 -0.387587
vt 0.207975 -0.43616
vt 0.256298 -0.571489
vt 0.331623 -0.571828
vt 0.379477 -0.57943
vt 0.26306 -0.490554
vt 0.326331 -0.444527
vt 0.350902 -0.43725
vt 0.404689 -0.44696
vt 0.352122 -0.382986
vt 0.401049 -0.43392
vt 0.447251 -0.445853
vt 0.446421 -0.440935
vt 0.478523 -0.440953
vt 0.478713 -0.436501
vt 0.136758 -0.105114
vt 0.15629 -0.177734
vt 0.155801 -0.124655
vt 0.131876 -0.168945
vt 0.131876 -0.243164
vt 0.154337 -0.250977
vt 0.071329 -0.116179
vt 0.043985 -0.11335
vt 0.043008 -0.144531
vt 0.070352 -0.157227
vt 0.048868 -0.231445
vt 0.071329 -0.224609
vt 0.093584 -0.0956
vt 0.072305 -0.092535
vt 0.085977 -0.124617
vt 0.104532 -0.232422
vt 0.106485 -0.15918
vt 0.114298 -0.114258
vt 0.131876 -0.286133
vt 0.130899 -0.390625
vt 0.149454 -0.393555
vt 0.15336 -0.293945
vt 0.128946 -0.458008
vt 0.15043 -0.458984
vt 0.049844 -0.274414
vt 0.044962 -0.381836
vt 0.083048 -0.369141
vt 0.074258 -0.271484
vt 0.048868 -0.455078
vt 0.089883 -0.453125
vt 0.106485 -0.381836
vt 0.103555 -0.276367
vt 0.109415 -0.454102
vt 0.104532 -0.072111
vt 0.111847 -0.072625
vt 0.114298 -0.021484
vt 0.097696 -0.020508
vt 0.304767 -0.381792
vt 0.273321 -0.226231
vt 0.128535 -0.084971
vt 0.138352 -0.081055
vt 0.141641 -0.022461
vt 0.130899 -0.021484
vt 0.266762 -0.326631
vt 0.207026 -0.282949
vt 0.20714 -0.341328
vt 0.086954 -0.056641
vt 0.086954 -0.081055
vt 0.072305 -0.077148
vt 0.059148 -0.043945
vt 0.044962 -0.076703
vt 0.046915 -0.023438
vt 0.392495 -0.396968
vt 0.377649 -0.3902
vt 0.338492 -0.377262
vt 0.272532 -0.191477
vt 0.241714 -0.187471
vt 0.207033 -0.254356
vt 0.206987 -0.186818
vt 0.468355 -0.246963
vt 0.416653 -0.230322
vt 0.418904 -0.256965
vt 0.469701 -0.293115
vt 0.319514 -0.231021
vt 0.206861 -0.575291
vt 0.448752 -0.483273
vt 0.416295 -0.482629
vt 0.350366 -0.490544
vt 0.205898 -0.492987
vt 0.415926 -0.276551
vt 0.104614 -0.108398
vt 0.290599 -0.328637
vt 0.324381 -0.331774
vt 0.298564 -0.3178
vt 0.356894 -0.34861
vt 0.372782 -0.348128
vt 0.39173 -0.382333
vt 0.392366 -0.338801
vt 0.481407 -0.419471
vt 0.440608 -0.417882
vt 0.41261 -0.417648
vt 0.455844 -0.339759
vt 0.151407 -0.022461
vt 0.149762 -0.092406
vt 0.492222 -0.390665
vt 0.491763 -0.422408
vt 0.075235 -0.056641
# 241 normals
vn 0.0770547 0.224406 -0.97107
vn -0.077429 0.596694 -0.796502
vn 0.0244717 0.437243 -0.898191
vn 0.71295 0.206816 -0.670022
vn 0.214692 0.337829 -0.916395
vn 0.318119 0.0289977 -0.947607
vn 0.840995 -0.028836 -0.540274
vn 0.405951 0.685896 0.603945
vn 0.138583 0.985407 0.0332447
vn 0.238202 0.612349 0.751187
vn 0.0493902 0.539278 0.839403
vn 0.808676 0.463634 0.360537
vn 0.355915 0.639331 0.680114
vn 0.345609 0.642525 0.68307
vn 0.860306 0.366707 0.352874
vn 0.914052 0.173633 -0.365031
vn 0.965417 0.155933 -0.207548
vn 0.419925 -0.0386769 -0.905154
vn 0.318489 -0.142762 -0.937115
vn 0.718914 0.0155802 -0.66415
vn -0.0968805 0.288115 -0.952683
vn -0.213867 0.00151456 -0.976862
vn 0.0141551 0.669775 0.742429
vn -0.0104526 0.653109 0.756365
vn 0.234403 0.0457059 0.960552
vn -0.0165646 0.143837 0.978763
vn -0.0232246 0.0442328 0.998751
vn 0.091766 -0.0658062 0.993604
vn 0.847808 0.315307 0.390282
vn 0.32801 0.470736 0.819034
vn 0.969483 0.147031 -0.184714
vn 0.370938 0.317632 0.865707
vn 0.698544 -0.0481291 0.701723
vn 0.980432 -0.103766 0.108909
vn 0.991091 -0.132403 -0.0144376
vn 0.910555 -0.139606 -0.366814
vn 0.92137 -0.329542 -0.206105
vn 0.474751 -0.629518 -0.615076
vn 0.402384 -0.206404 -0.881936
vn -0.100049 -0.681581 -0.724871
vn 0.0489198 -0.39051 -0.915741
vn 0.564799 -0.250514 -0.786285
vn -0.696784 -0.361542 -0.619501
vn -0.698929 -0.355688 -0.620472
vn 0.746497 -0.187246 -0.638498
vn -0.69267 -0.0640766 -0.713336
vn 0.78559 0.0688166 -0.611838
vn -0.751009 0.0541909 0.658064
vn -0.619416 0.120522 0.775756
vn -0.557969 0.0888371 0.820174
vn 0.112292 0.0583113 0.974279
vn 0.15002 0.40875 0.900233
vn -0.0474804 -0.656991 0.528774
vn 0.738711 0.273523 0.61603
vn 0.741241 0.208062 0.633035
vn 0.986541 0.10915 0.12175
vn 0.730488 0.197169 -0.653843
vn -0.748509 0.0246454 -0.662668
vn -0.768845 -0.100536 -0.631484
vn 0.680384 0.0958843 -0.726556
vn -0.734574 -0.0549303 -0.674324
vn 0.687885 0.181001 -0.694019
vn -0.561845 -0.126583 0.8175
vn -0.573605 -0.355799 0.737823
vn -0.465258 -0.4097 0.777522
vn 0.784151 0.0522559 0.618368
vn 0.729897 -0.172343 0.661475
vn 0.804197 -0.120314 0.579702
vn 0.314061 0.810077 0.393299
vn 0.297415 0.80491 -0.330719
vn 0.0545326 0.868288 -0.48667
vn 0.51382 -0.154455 0.843879
vn 0.770311 0.445762 -0.455979
vn 0.162657 0.455462 -0.82355
vn 0.218726 -0.283332 -0.920361
vn 0.0779477 0.107512 0.991144
vn -0.0230876 0.0342815 0.999146
vn -0.0217196 0.456661 0.888993
vn 0.439409 0.0161647 0.880481
vn 0.174703 -0.775268 -0.483118
vn 0.781879 -0.505749 -0.00264142
vn 0.712626 -0.420644 0.447846
vn 0.583469 -0.0935004 -0.806735
vn 0.983229 -0.182222 0.00743593
vn 0.994616 -0.103618 -0.00172309
vn 0.924799 -0.205445 0.320219
vn 0.529077 0.165558 0.82923
vn 0.987207 -0.0317377 0.144218
vn -0.0269095 0.508817 0.860454
vn -0.00704366 0.149177 0.9859
vn 0.812624 -0.273005 -0.511317
vn 0.456562 0.165524 -0.874158
vn 0.0233728 0.110112 -0.993587
vn 0.017571 -0.0767826 -0.995241
vn 0.0155573 -0.159696 -0.987044
vn 0.00239299 0.485287 0.874352
vn 0.0151113 -0.103691 -0.985434
vn 0.46486 -0.0889502 -0.870003
vn 0.927375 0.0726734 -0.345833
vn 0.92276 0.0952359 0.357195
vn -0.0139402 0.388309 0.913612
vn 0.569425 0.336412 0.750056
vn 0.513575 -0.0408137 0.831472
vn 0.927827 -0.262676 0.0207602
vn 0.956636 0.0481254 -0.287281
vn -0.223758 -0.578422 -0.784449
vn 0.35779 -0.627774 -0.691293
vn 0.793354 -0.566562 -0.222702
vn 0.138332 0.34947 -0.92668
vn 0.0169991 0.307433 -0.951418
vn 0.0170113 0.345994 -0.93802
vn -0.259092 -0.0071907 -0.965826
vn -0.274207 -0.498751 -0.822227
vn 0.00868023 -0.524937 -0.848543
vn 0.0229716 -0.0259757 -0.999399
vn 0.0263129 -0.352502 -0.935441
vn -0.0361972 0.224759 -0.97371
vn 0.00661482 0.438465 -0.898653
vn 0.112999 0.599459 -0.792196
vn -0.687706 0.186282 -0.701683
vn -0.814522 -0.0531066 -0.577696
vn -0.275698 0.0202921 -0.96103
vn -0.18288 0.332 -0.925381
vn -0.452743 0.673307 0.584535
vn -0.0984807 0.539715 0.835957
vn -0.277083 0.613576 0.739191
vn -0.143084 0.988975 0.0265721
vn -0.786997 0.522817 0.325881
vn -0.866148 0.379314 0.324083
vn -0.36406 0.644186 0.671828
vn -0.336711 0.665027 0.665086
vn -0.893572 0.204688 -0.398143
vn -0.941279 0.226785 -0.248965
vn -0.38568 -0.019196 -0.920879
vn -0.689541 0.0660582 -0.718542
vn -0.286445 -0.114304 -0.951254
vn 0.257643 0.00842713 -0.966203
vn 0.131337 0.291461 -0.947524
vn -0.268143 0.0409788 0.950823
vn -0.134592 -0.0691247 0.988487
vn -0.320219 0.50123 0.803884
vn -0.833643 0.393929 0.375322
vn -0.946057 0.22631 -0.225497
vn -0.397178 0.312987 0.852472
vn -0.723156 -0.0624485 0.673606
vn -0.982935 -0.124075 0.0697467
vn -0.894731 -0.159209 -0.403402
vn -0.985121 -0.161375 -0.0591086
vn -0.901067 -0.35626 -0.2473
vn -0.366226 -0.214986 -0.897661
vn -0.427831 -0.642751 -0.635478
vn -0.00153372 -0.391186 -0.916843
vn 0.152621 -0.677876 -0.719159
vn -0.538279 -0.25281 -0.803954
vn 0.718645 -0.361123 -0.594255
vn 0.716449 -0.366965 -0.593328
vn -0.724737 -0.188199 -0.662826
vn -0.773494 0.00872437 -0.630743
vn 0.701982 -0.168806 -0.686597
vn 0.728128 0.0552334 0.683212
vn 0.592791 0.122593 0.795971
vn 0.543543 0.168107 0.817401
vn -0.152057 0.0620178 0.933513
vn 0.0201311 -0.626854 0.530007
vn -0.179499 0.4139 0.89245
vn -0.750871 0.278386 0.593384
vn -0.758526 0.279063 0.588866
vn -0.989772 0.112907 0.0871995
vn -0.723092 0.0783811 -0.68629
vn -0.675357 -0.0367231 -0.736576
vn 0.768065 -0.245067 -0.591624
vn 0.751035 -0.128339 -0.64767
vn -0.688666 0.0189655 -0.69933
vn 0.727854 -0.246344 -0.629455
vn 0.561936 -0.212841 0.799329
vn 0.555779 0.0279803 0.830859
vn 0.460369 -0.207479 0.837394
vn -0.736199 -0.0169468 0.676553
vn -0.784557 0.195519 0.588425
vn -0.803067 0.0585526 0.584356
vn -0.306775 0.783101 0.337855
vn -0.255298 0.773466 -0.38003
vn -0.0329586 0.871449 -0.488824
vn -0.546672 -0.170002 0.819908
vn -0.761655 0.423303 -0.490608
vn -0.108852 0.436262 -0.84701
vn -0.173244 -0.28375 -0.93783
vn -0.12576 0.104525 0.986539
vn -0.477942 0.0101597 0.834194
vn -0.718655 -0.440549 0.382487
vn -0.764787 -0.527968 -0.0729762
vn -0.154646 -0.755815 -0.496685
vn -0.543438 -0.110021 -0.832208
vn -0.9768 -0.210957 -0.0368692
vn -0.990059 -0.132715 -0.0465853
vn -0.931904 -0.232665 0.278249
vn -0.98841 -0.042811 0.131753
vn -0.541374 0.159558 0.822475
vn -0.802612 -0.282059 -0.521508
vn -0.421259 0.152654 -0.894001
vn -0.437939 -0.0944102 -0.885559
vn -0.916231 0.0615237 -0.377598
vn -0.933199 0.0840115 0.325217
vn -0.593736 0.342111 0.728311
vn -0.54703 -0.0576902 0.778482
vn -0.917961 -0.291287 -0.0448864
vn -0.943681 0.0202658 -0.330237
vn 0.275819 -0.571098 -0.773156
vn -0.307647 -0.63753 -0.706334
vn -0.765542 -0.589416 -0.25794
vn -0.106507 0.345881 -0.932214
vn 0.302559 0.00104336 -0.95313
vn 0.325567 -0.489958 -0.80867
vn 0.0611614 -0.978043 -0.158836
vn 0.103253 -0.977152 -0.141828
vn 0.0231525 -0.977112 -0.173869
vn -0.00504876 -0.975363 -0.184825
vn -0.0893115 -0.965573 0.0963301
vn -0.0232184 -0.971758 0.0706412
vn -0.0513874 -0.969729 0.0816283
vn -0.131254 -0.959057 0.112467
vn 0.0331865 -0.960566 0.24232
vn 0.164574 -0.943948 0.258009
vn 0.0331062 -0.957916 0.258882
vn -0.0466394 -0.942916 0.329749
vn -0.0472422 -0.942916 0.329664
vn -0.0520562 -0.942344 0.330572
vn -0.0520353 -0.943394 0.327568
vn -0.0581544 -0.943213 0.32706
vn -0.0583611 -0.941684 0.331398
vn -0.109687 -0.917624 0.251046
vn -0.103232 -0.916264 0.219656
vn -0.244638 -0.891465 0.238987
vn -0.0847943 0.857598 -0.502192
vn -0.0986168 0.879839 -0.459581
vn -0.00221886 0.873671 -0.477795
vn -0.00273696 0.869458 -0.48866
vn 0.0796309 0.85852 -0.501155
vn 0.0926339 0.880911 -0.458374
vn -0.0619344 0.90375 -0.417785
vn 0.0551277 0.904406 -0.417046
usemtl jumper
g Kate_Jumper
s off
f 1/1/1 2/3/3 3/2/2
f 4/4/4 5/6/6 6/5/5
f 5/6/6 4/4/4 7/7/7
f 8/8/8 9/10/10 10/9/9
f 9/10/10 8/8/8 11/11/11
f 12/12/12 13/14/14 14/13/13
f 13/14/14 12/12/12 15/15/15
f 16/16/16 12/12/12 17/17/17
f 12/12/12 16/16/16 15/15/15
f 18/18/18 19/20/20 20/19/19
f 19/20/20 18/18/18 16/16/16
f 6/5/5 21/22/22 22/21/21
f 21/22/22 6/5/5 5/6/6
f 14/13/13 23/24/24 24/23/23
f 23/24/24 14/13/13 13/14/14
f 25/25/25 26/27/27 27/26/26
f 26/27/27 25/25/25 28/28/28
f 14/13/13 29/29/29 12/12/12
f 29/29/29 14/13/13 30/30/30
f 12/12/12 31/31/31 17/17/17
f 31/31/31 12/12/12 29/29/29
f 32/32/32 33/33/33 25/25/25
f 34/34/34 35/36/36 36/35/35
f 37/37/37 38/39/39 39/38/38
f 38/39/39 37/37/37 35/36/36
f 38/39/39 40/40/40 39/38/38
f 40/40/40 38/39/39 41/41/41
f 42/42/42 43/44/44 44/43/43
f 45/45/45 46/46/46 43/44/44
f 46/46/46 45/45/45 47/47/47
f 48/48/48 43/50/44 49/49/49
f 43/50/44 48/48/48 44/51/43
f 43/50/44 50/52/50 49/49/49
f 50/52/50 43/50/44 46/53/46
f 51/54/51 48/48/48 52/55/52
f 48/48/48 51/54/51 53/56/53
f 49/49/49 54/58/55 55/57/54
f 54/58/55 49/49/49 50/52/50
f 56/59/56 55/57/54 45/45/45
f 55/57/54 47/47/47 45/45/45
f 47/47/47 55/57/54 54/58/55
f 57/60/57 58/62/59 59/61/58
f 58/62/59 57/60/57 60/63/60
f 60/63/60 61/64/61 58/62/59
f 61/64/61 60/63/60 62/65/62
f 59/66/58 63/68/64 64/67/63
f 63/68/64 59/66/58 58/69/59
f 58/69/59 65/70/65 63/68/64
f 65/70/65 58/69/59 61/71/61
f 64/67/63 66/73/67 67/72/66
f 66/73/67 64/67/63 63/68/64
f 63/68/64 68/74/68 66/73/67
f 68/74/68 63/68/64 65/70/65
f 67/72/66 60/63/60 57/60/57
f 60/63/60 67/72/66 66/73/67
f 66/73/67 62/65/62 60/63/60
f 62/65/62 66/73/67 68/74/68
f 54/58/55 57/60/57 47/47/47
f 57/60/57 54/58/55 67/72/66
f 47/47/47 59/61/58 46/46/46
f 59/61/58 47/47/47 57/60/57
f 50/52/50 59/66/58 64/67/63
f 59/66/58 50/52/50 46/53/46
f 64/67/63 54/58/55 50/52/50
f 54/58/55 64/67/63 67/72/66
f 69/75/69 56/59/56 70/76/70
f 70/76/70 10/77/9 69/75/69
f 10/77/9 70/76/70 71/78/71
f 33/33/33 28/28/28 25/25/25
f 28/28/28 33/33/33 72/79/72
f 10/9/9 73/80/73 8/8/8
f 74/81/74 1/83/1 3/82/2
f 1/83/1 74/81/74 75/84/75
f 42/42/42 75/84/75 74/81/74
f 9/10/10 11/11/11 76/85/76
f 76/85/76 77/87/78 78/86/77
f 77/87/78 76/85/76 11/11/11
f 69/75/69 10/77/9 9/88/10
f 51/54/51 9/88/10 79/89/79
f 53/56/53 80/91/81 81/90/80
f 80/91/81 53/56/53 82/92/82
f 83/93/83 81/90/80 80/91/81
f 84/94/84 85/95/85 37/37/37
f 36/35/35 86/96/86 34/34/34
f 8/8/8 87/98/88 88/97/87
f 87/98/88 8/8/8 73/80/73
f 89/99/89 88/97/87 90/100/90
f 88/97/87 89/99/89 8/8/8
f 16/16/16 17/17/17 19/20/20
f 17/17/17 31/31/31 19/20/20
f 91/101/91 73/103/73 92/102/92
f 73/103/73 91/101/91 87/104/88
f 73/80/73 10/9/9 71/105/71
f 2/3/3 93/106/93 92/102/92
f 20/19/19 94/107/94 18/18/18
f 94/107/94 20/19/19 95/108/95
f 24/23/23 30/30/30 14/13/13
f 30/30/30 24/23/23 96/109/96
f 89/99/89 77/87/78 11/11/11
f 97/110/97 18/18/18 94/107/94
f 18/18/18 97/110/97 98/111/98
f 98/111/98 16/16/16 18/18/18
f 16/16/16 98/111/98 99/112/99
f 99/112/99 15/15/15 16/16/16
f 15/15/15 99/112/99 100/113/100
f 15/15/15 32/32/32 13/14/14
f 32/32/32 15/15/15 100/113/100
f 13/14/14 101/114/101 23/24/24
f 101/114/101 13/14/14 32/32/32
f 73/103/73 71/115/71 92/102/92
f 92/102/92 71/115/71 3/2/2
f 3/82/2 70/76/70 74/81/74
f 70/76/70 3/82/2 71/78/71
f 70/76/70 42/42/42 74/81/74
f 42/42/42 70/76/70 56/59/56
f 56/59/56 45/45/45 42/42/42
f 55/57/54 56/59/56 102/116/102
f 100/113/100 34/34/34 33/33/33
f 103/117/103 82/119/82 79/118/79
f 86/96/86 33/33/33 34/34/34
f 33/33/33 86/96/86 72/79/72
f 33/33/33 32/32/32 100/113/100
f 89/99/89 11/11/11 8/8/8
f 76/85/76 72/79/72 103/117/103
f 72/79/72 76/85/76 28/28/28
f 72/79/72 82/119/82 103/117/103
f 82/119/82 72/79/72 86/96/86
f 82/119/82 36/35/35 104/120/104
f 36/35/35 82/119/82 86/96/86
f 104/120/104 85/95/85 80/121/81
f 85/95/85 104/120/104 36/35/35
f 105/122/105 80/121/81 85/95/85
f 80/121/81 105/122/105 83/123/83
f 106/124/106 5/6/6 107/125/107
f 5/6/6 106/124/106 21/22/22
f 107/125/107 7/7/7 108/126/108
f 7/7/7 107/125/107 5/6/6
f 109/127/109 1/1/1 83/123/83
f 1/1/1 109/127/109 2/3/3
f 83/128/83 75/84/75 81/129/80
f 75/84/75 83/128/83 1/83/1
f 75/84/75 42/42/42 81/129/80
f 51/54/51 82/92/82 53/56/53
f 82/92/82 51/54/51 79/89/79
f 110/130/110 2/3/3 109/127/109
f 2/3/3 110/130/110 111/131/111
f 39/38/38 108/126/108 37/37/37
f 108/126/108 39/38/38 107/125/107
f 84/94/84 7/7/7 105/122/105
f 105/122/105 4/4/4 83/123/83
f 83/123/83 6/5/5 109/127/109
f 6/5/5 83/123/83 4/4/4
f 109/127/109 22/21/21 110/130/110
f 112/132/112 22/21/21 21/22/22
f 113/133/113 21/22/22 106/124/106
f 21/22/22 113/133/113 112/132/112
f 39/38/38 106/124/106 107/125/107
f 7/7/7 84/94/84 108/126/108
f 85/95/85 84/94/84 105/122/105
f 108/126/108 84/94/84 37/37/37
f 27/26/26 32/32/32 25/25/25
f 32/32/32 27/26/26 101/114/101
f 92/102/92 114/134/114 91/101/91
f 114/134/114 92/102/92 93/106/93
f 78/86/77 28/28/28 76/85/76
f 28/28/28 78/86/77 26/27/27
f 9/88/10 51/54/51 69/75/69
f 43/44/44 42/42/42 45/45/45
f 69/75/69 51/54/51 102/116/102
f 56/59/56 69/75/69 102/116/102
f 106/124/106 39/38/38 40/40/40
f 112/132/112 115/136/116 116/135/115
f 115/136/116 112/132/112 113/133/113
f 22/21/21 112/132/112 116/135/115
f 106/124/106 40/40/40 113/133/113
f 22/21/21 116/135/115 110/130/110
f 22/21/21 109/127/109 6/5/5
f 4/4/4 105/122/105 7/7/7
f 80/91/81 82/92/82 104/137/104
f 42/42/42 44/43/43 81/129/80
f 44/51/43 53/56/53 81/90/80
f 53/56/53 44/51/43 48/48/48
f 49/49/49 52/55/52 48/48/48
f 51/54/51 52/55/52 102/116/102
f 52/55/52 55/57/54 102/116/102
f 55/57/54 52/55/52 49/49/49
f 79/118/79 76/85/76 103/117/103
f 76/85/76 79/118/79 9/10/10
f 3/2/2 2/3/3 92/102/92
f 93/106/93 2/3/3 111/131/111
f 41/41/41 38/39/39 98/111/98
f 98/111/98 35/36/36 99/112/99
f 35/36/36 98/111/98 38/39/39
f 34/34/34 99/112/99 35/36/36
f 99/112/99 34/34/34 100/113/100
f 97/110/97 41/41/41 98/111/98
f 41/41/41 97/110/97 115/136/116
f 113/133/113 41/41/41 115/136/116
f 41/41/41 113/133/113 40/40/40
f 85/95/85 35/36/36 37/37/37
f 35/36/36 85/95/85 36/35/35
f 117/138/117 118/140/119 119/139/118
f 120/141/120 121/143/122 122/142/121
f 121/143/122 120/141/120 123/144/123
f 124/145/124 125/147/126 126/146/125
f 125/147/126 124/145/124 127/148/127
f 128/149/128 129/151/130 130/150/129
f 129/151/130 128/149/128 131/152/131
f 132/153/132 128/149/128 130/150/129
f 128/149/128 132/153/132 133/154/133
f 134/155/134 135/156/135 132/153/132
f 135/156/135 134/155/134 136/157/136
f 123/144/123 137/158/137 121/143/122
f 137/158/137 123/144/123 138/159/138
f 131/152/131 23/160/24 129/151/130
f 23/160/24 131/152/131 24/161/23
f 139/162/139 26/164/27 140/163/140
f 26/164/27 139/162/139 27/165/26
f 131/152/131 141/167/142 142/166/141
f 141/167/142 131/152/131 128/149/128
f 128/149/128 143/168/143 141/167/142
f 143/168/143 128/149/128 133/154/133
f 144/169/144 139/162/139 145/170/145
f 146/171/146 147/173/148 148/172/147
f 149/174/149 150/175/150 148/172/147
f 150/175/150 149/174/149 151/176/151
f 150/175/150 152/178/153 153/177/152
f 152/178/153 150/175/150 151/176/151
f 154/179/154 155/181/156 156/180/155
f 157/182/157 158/184/159 159/183/158
f 158/184/159 157/182/157 156/180/155
f 160/185/160 156/187/155 155/186/156
f 156/187/155 160/185/160 161/188/161
f 156/187/155 162/190/162 158/189/159
f 162/190/162 156/187/155 161/188/161
f 163/191/163 160/185/160 164/192/164
f 160/185/160 163/191/163 165/193/165
f 161/188/161 166/194/166 162/190/162
f 166/194/166 161/188/161 167/195/167
f 168/196/168 157/182/157 167/195/167
f 167/195/167 159/183/158 166/194/166
f 159/183/158 167/195/167 157/182/157
f 169/197/169 170/199/171 171/198/170
f 170/199/171 169/197/169 172/200/172
f 171/198/170 173/202/174 174/201/173
f 173/202/174 171/198/170 170/199/171
f 172/203/172 175/205/175 170/204/171
f 175/205/175 172/203/172 176/206/176
f 170/204/171 177/208/177 173/207/174
f 177/208/177 170/204/171 175/205/175
f 176/206/176 178/209/178 175/205/175
f 178/209/178 176/206/176 179/210/179
f 175/205/175 180/211/180 177/208/177
f 180/211/180 175/205/175 178/209/178
f 179/210/179 171/198/170 178/209/178
f 171/198/170 179/210/179 169/197/169
f 178/209/178 174/201/173 180/211/180
f 174/201/173 178/209/178 171/198/170
f 166/194/166 169/197/169 179/210/179
f 169/197/169 166/194/166 159/183/158
f 159/183/158 172/200/172 169/197/169
f 172/200/172 159/183/158 158/184/159
f 162/190/162 172/203/172 158/189/159
f 172/203/172 162/190/162 176/206/176
f 176/206/176 166/194/166 179/210/179
f 166/194/166 176/206/176 162/190/162
f 181/212/181 182/213/182 168/196/168
f 182/213/182 127/215/127 183/214/183
f 127/215/127 182/213/182 181/212/181
f 145/170/145 140/163/140 184/216/184
f 140/163/140 145/170/145 139/162/139
f 127/148/127 124/145/124 185/217/185
f 186/218/186 117/220/117 187/219/187
f 117/220/117 186/218/186 118/221/119
f 154/179/154 186/218/186 187/219/187
f 125/147/126 188/222/188 126/146/125
f 188/222/188 77/223/78 126/146/125
f 77/223/78 188/222/188 78/224/77
f 181/212/181 125/225/126 127/215/127
f 163/191/163 189/226/189 125/225/126
f 164/192/164 190/228/191 191/227/190
f 190/228/191 164/192/164 192/229/192
f 193/230/193 190/228/191 192/229/192
f 194/231/194 149/174/149 195/232/195
f 147/173/148 146/171/146 196/233/196
f 124/145/124 197/234/197 185/217/185
f 197/234/197 124/145/124 198/235/198
f 89/236/89 198/235/198 124/145/124
f 198/235/198 89/236/89 90/237/90
f 132/153/132 135/156/135 133/154/133
f 133/154/133 135/156/135 143/168/143
f 199/238/199 185/240/185 197/239/197
f 185/240/185 199/238/199 200/241/200
f 185/217/185 183/242/183 127/148/127
f 119/139/118 200/241/200 93/106/93
f 136/157/136 94/107/94 95/108/95
f 94/107/94 136/157/136 134/155/134
f 24/161/23 142/166/141 96/243/96
f 142/166/141 24/161/23 131/152/131
f 89/236/89 126/146/125 77/223/78
f 97/110/97 134/155/134 201/244/201
f 134/155/134 97/110/97 94/107/94
f 201/244/201 132/153/132 202/245/202
f 132/153/132 201/244/201 134/155/134
f 202/245/202 130/150/129 203/246/203
f 130/150/129 202/245/202 132/153/132
f 130/150/129 144/169/144 203/246/203
f 144/169/144 130/150/129 129/151/130
f 129/151/130 101/247/101 144/169/144
f 101/247/101 129/151/130 23/160/24
f 185/240/185 200/241/200 183/248/183
f 200/241/200 118/140/119 183/248/183
f 118/221/119 182/213/182 183/214/183
f 182/213/182 118/221/119 186/218/186
f 154/179/154 182/213/182 186/218/186
f 182/213/182 154/179/154 168/196/168
f 168/196/168 154/179/154 157/182/157
f 167/195/167 204/249/204 168/196/168
f 203/246/203 145/170/145 146/171/146
f 205/250/205 189/252/189 191/251/190
f 196/233/196 145/170/145 184/216/184
f 145/170/145 196/233/196 146/171/146
f 145/170/145 203/246/203 144/169/144
f 89/236/89 124/145/124 126/146/125
f 188/222/188 184/216/184 140/163/140
f 184/216/184 188/222/188 205/250/205
f 184/216/184 191/251/190 196/233/196
f 191/251/190 184/216/184 205/250/205
f 191/251/190 147/173/148 196/233/196
f 147/173/148 191/251/190 206/253/206
f 206/253/206 195/232/195 147/173/148
f 195/232/195 206/253/206 190/254/191
f 207/255/207 190/254/191 193/256/193
f 190/254/191 207/255/207 195/232/195
f 208/257/208 121/143/122 137/158/137
f 121/143/122 208/257/208 209/258/209
f 209/258/209 122/142/121 121/143/122
f 122/142/121 209/258/209 210/259/210
f 211/260/211 117/138/117 119/139/118
f 117/138/117 211/260/211 193/256/193
f 193/261/193 187/219/187 117/220/117
f 187/219/187 193/261/193 192/262/192
f 187/219/187 192/262/192 154/179/154
f 163/191/163 191/227/190 189/226/189
f 191/227/190 163/191/163 164/192/164
f 110/130/110 119/139/118 111/131/111
f 119/139/118 110/130/110 211/260/211
f 151/176/151 210/259/210 209/258/209
f 210/259/210 151/176/151 149/174/149
f 194/231/194 207/255/207 122/142/121
f 207/255/207 193/256/193 120/141/120
f 193/256/193 123/144/123 120/141/120
f 123/144/123 193/256/193 211/260/211
f 211/260/211 110/130/110 138/159/138
f 212/263/212 137/158/137 138/159/138
f 213/264/213 137/158/137 212/263/212
f 137/158/137 213/264/213 208/257/208
f 151/176/151 209/258/209 208/257/208
f 122/142/121 210/259/210 194/231/194
f 195/232/195 207/255/207 194/231/194
f 210/259/210 149/174/149 194/231/194
f 27/165/26 144/169/144 101/247/101
f 144/169/144 27/165/26 139/162/139
f 200/241/200 114/134/114 93/106/93
f 114/134/114 200/241/200 199/238/199
f 78/224/77 140/163/140 26/164/27
f 140/163/140 78/224/77 188/222/188
f 125/225/126 181/212/181 163/191/163
f 156/180/155 157/182/157 154/179/154
f 181/212/181 204/249/204 163/191/163
f 168/196/168 204/249/204 181/212/181
f 208/257/208 152/178/153 151/176/151
f 212/263/212 115/136/116 213/264/213
f 115/136/116 212/263/212 116/135/115
f 138/159/138 116/135/115 212/263/212
f 208/257/208 213/264/213 152/178/153
f 138/159/138 110/130/110 116/135/115
f 138/159/138 123/144/123 211/260/211
f 120/141/120 122/142/121 207/255/207
f 190/228/191 206/265/206 191/227/190
f 154/179/154 192/262/192 155/181/156
f 155/186/156 164/192/164 160/185/160
f 164/192/164 155/186/156 192/229/192
f 161/188/161 160/185/160 165/193/165
f 163/191/163 204/249/204 165/193/165
f 165/193/165 167/195/167 161/188/161
f 167/195/167 165/193/165 204/249/204
f 189/252/189 188/222/188 125/147/126
f 188/222/188 189/252/189 205/250/205
f 118/140/119 200/241/200 119/139/118
f 93/106/93 111/131/111 119/139/118
f 153/177/152 201/244/201 150/175/150
f 201/244/201 148/172/147 150/175/150
f 148/172/147 201/244/201 202/245/202
f 146/171/146 202/245/202 203/246/203
f 202/245/202 146/171/146 148/172/147
f 97/110/97 201/244/201 153/177/152
f 153/177/152 115/136/116 97/110/97
f 213/264/213 153/177/152 152/178/153
f 153/177/152 213/264/213 115/136/116
f 195/232/195 148/172/147 147/173/148
f 148/172/147 195/232/195 149/174/149
f 65/70/214 62/65/216 68/74/215
f 62/65/216 65/70/214 61/64/217
f 177/208/218 174/201/220 173/202/219
f 174/201/220 177/208/218 180/211/221
f 135/156/222 141/167/224 143/168/223
f 135/156/222 142/166/225 141/167/224
f 136/157/226 142/166/225 135/156/222
f 136/157/226 96/243/227 142/166/225
f 95/108/228 96/243/227 136/157/226
f 20/19/229 96/243/227 95/108/228
f 20/19/229 30/30/230 96/243/227
f 20/19/229 29/29/231 30/30/230
f 19/20/232 29/29/231 20/19/229
f 31/31/233 29/29/231 19/20/232
f 91/101/234 214/101/236 87/104/235
f 214/101/236 91/101/234 114/134/237
f 199/238/238 214/238/236 114/134/237
f 214/238/236 199/238/238 197/239/239
f 88/97/240 214/97/236 90/100/237
f 214/97/236 88/97/240 87/98/235
f 214/235/236 198/235/241 90/237/237
f 198/235/241 214/235/236 197/234/239
