<svg xmlns="http://www.w3.org/2000/svg" id="canvas" viewBox="205.659 90.013 363.039 143.667"><path d="M 241.62,105.95 C 241.42 106.55, 241.38 107.20, 241.20 108.95 C 241.01 110.71, 240.97 111.92, 240.69 114.74 C 240.42 117.56, 240.30 119.40, 239.84 123.04 C 239.38 126.68, 239.15 128.83, 238.41 132.95 C 237.68 137.07, 237.23 139.37, 236.15 143.63 C 235.07 147.89, 234.28 150.17, 233.02 154.27 C 231.76 158.36, 231.09 160.57, 229.86 164.10 C 228.63 167.63, 227.76 169.38, 226.87 171.92 C 225.97 174.46, 225.79 175.54, 225.37 176.80 C 224.95 178.07, 224.83 177.93, 224.75 178.25 C 224.66 178.56, 224.68 178.60, 224.94 178.37 C 225.20 178.14, 225.43 178.30, 226.06 177.10 C 226.70 175.90, 227.14 174.91, 228.11 172.38 C 229.07 169.85, 229.72 168.01, 230.89 164.45 C 232.07 160.88, 232.73 158.67, 233.97 154.56 C 235.21 150.44, 236.00 148.16, 237.10 143.87 C 238.21 139.59, 238.67 137.28, 239.48 133.15 C 240.29 129.02, 240.57 126.87, 241.14 123.22 C 241.71 119.57, 242.08 117.74, 242.34 114.90 C 242.61 112.05, 242.49 110.79, 242.45 109.01 C 242.42 107.22, 242.33 106.57, 242.16 105.96 C 242.00 105.35, 241.81 105.35, 241.62 105.95" style="stroke: black; fill: black;"/><path d="M 232.36,100.64 C 232.92 100.34, 233.44 99.56, 234.74 98.73 C 236.03 97.89, 236.80 97.23, 238.85 96.45 C 240.89 95.68, 242.30 95.21, 244.95 94.85 C 247.60 94.49, 249.07 94.47, 252.11 94.65 C 255.14 94.83, 256.88 94.98, 260.14 95.75 C 263.40 96.53, 265.20 97.05, 268.41 98.53 C 271.63 100.00, 273.34 100.95, 276.21 103.13 C 279.09 105.31, 280.60 106.59, 282.77 109.41 C 284.94 112.22, 285.95 113.82, 287.06 117.21 C 288.18 120.59, 288.45 122.44, 288.35 126.31 C 288.25 130.18, 287.96 132.29, 286.55 136.55 C 285.15 140.81, 283.98 143.16, 281.33 147.62 C 278.67 152.08, 276.95 154.41, 273.28 158.85 C 269.61 163.29, 267.42 165.60, 262.99 169.83 C 258.56 174.06, 255.92 176.22, 251.14 180.00 C 246.37 183.78, 243.73 185.62, 239.12 188.72 C 234.51 191.81, 232.12 193.38, 228.07 195.49 C 224.03 197.59, 221.94 198.36, 218.91 199.26 C 215.88 200.16, 214.71 200.07, 212.93 199.98 C 211.15 199.90, 210.78 199.43, 210.01 198.81 C 209.24 198.19, 209.33 197.24, 209.07 196.88 C 208.80 196.53, 208.59 196.55, 208.68 197.05 C 208.78 197.54, 208.72 198.56, 209.55 199.34 C 210.39 200.12, 210.92 200.75, 212.86 200.94 C 214.79 201.12, 216.09 201.21, 219.21 200.27 C 222.34 199.33, 224.41 198.42, 228.47 196.23 C 232.53 194.04, 234.91 192.46, 239.53 189.32 C 244.15 186.19, 246.79 184.34, 251.57 180.54 C 256.36 176.75, 259.01 174.58, 263.47 170.33 C 267.93 166.09, 270.14 163.78, 273.85 159.33 C 277.57 154.87, 279.32 152.54, 282.03 148.05 C 284.75 143.55, 285.95 141.18, 287.42 136.84 C 288.88 132.50, 289.22 130.33, 289.35 126.34 C 289.48 122.35, 289.21 120.40, 288.07 116.88 C 286.93 113.36, 285.87 111.67, 283.64 108.74 C 281.40 105.81, 279.84 104.49, 276.90 102.23 C 273.95 99.98, 272.20 99.00, 268.91 97.46 C 265.61 95.92, 263.78 95.38, 260.44 94.53 C 257.10 93.69, 255.34 93.51, 252.21 93.25 C 249.07 92.99, 247.53 92.89, 244.74 93.23 C 241.95 93.57, 240.40 94.05, 238.25 94.95 C 236.09 95.84, 235.23 96.63, 233.97 97.69 C 232.71 98.74, 232.25 99.62, 231.93 100.22 C 231.61 100.81, 231.80 100.94, 232.36 100.64" style="stroke: black; fill: black;"/><path d="M 319.75,145.25 C 319.70 144.93, 319.55 144.64, 319.06 144.06 C 318.58 143.48, 318.26 142.92, 317.33 142.36 C 316.39 141.79, 315.77 141.45, 314.39 141.25 C 313.02 141.05, 312.28 140.97, 310.46 141.36 C 308.64 141.75, 307.55 141.96, 305.30 143.21 C 303.04 144.45, 301.71 145.50, 299.18 147.58 C 296.65 149.66, 295.07 151.02, 292.64 153.60 C 290.21 156.18, 288.86 157.80, 287.05 160.49 C 285.24 163.17, 284.52 164.71, 283.59 167.02 C 282.66 169.33, 282.37 170.38, 282.41 172.03 C 282.44 173.67, 282.72 174.39, 283.76 175.24 C 284.80 176.09, 285.74 176.35, 287.60 176.29 C 289.47 176.24, 290.67 176.01, 293.09 174.98 C 295.50 173.94, 296.87 172.97, 299.68 171.12 C 302.50 169.28, 304.27 168.05, 307.17 165.76 C 310.08 163.48, 311.67 162.07, 314.21 159.69 C 316.75 157.31, 318.17 155.72, 319.86 153.86 C 321.56 151.99, 322.26 151.08, 322.68 150.38 C 323.10 149.68, 322.77 149.73, 321.97 150.36 C 321.17 150.99, 320.07 151.75, 318.68 153.53 C 317.29 155.31, 316.24 156.87, 315.02 159.24 C 313.81 161.60, 313.22 163.15, 312.61 165.36 C 311.99 167.56, 311.63 168.66, 311.95 170.28 C 312.26 171.90, 312.80 172.65, 314.18 173.45 C 315.56 174.25, 316.58 174.44, 318.87 174.29 C 321.15 174.14, 322.59 173.81, 325.60 172.70 C 328.61 171.59, 330.48 170.64, 333.92 168.73 C 337.36 166.82, 339.29 165.53, 342.80 163.15 C 346.32 160.76, 348.18 159.23, 351.49 156.79 C 354.80 154.36, 356.55 153.06, 359.35 150.97 C 362.14 148.89, 363.58 147.89, 365.47 146.37 C 367.36 144.85, 368.09 144.05, 368.78 143.37 C 369.48 142.69, 369.45 142.56, 368.96 142.97 C 368.46 143.37, 367.68 143.84, 366.30 145.41 C 364.93 146.97, 363.85 148.30, 362.10 150.80 C 360.35 153.30, 359.22 155.07, 357.55 157.92 C 355.89 160.76, 354.86 162.40, 353.76 165.01 C 352.65 167.61, 352.22 168.99, 352.03 170.92 C 351.84 172.85, 351.97 173.69, 352.81 174.65 C 353.65 175.61, 354.44 175.86, 356.24 175.74 C 358.05 175.61, 359.32 175.26, 361.83 174.03 C 364.35 172.79, 365.83 171.65, 368.82 169.56 C 371.80 167.46, 373.61 166.02, 376.78 163.56 C 379.96 161.10, 381.74 159.68, 384.69 157.25 C 387.64 154.82, 389.19 153.52, 391.54 151.41 C 393.88 149.30, 394.95 148.07, 396.40 146.70 C 397.84 145.33, 398.30 144.78, 398.76 144.55 C 399.23 144.32, 399.17 144.43, 398.73 145.55 C 398.29 146.66, 397.68 147.64, 396.58 150.12 C 395.48 152.60, 394.89 154.38, 393.24 157.96 C 391.60 161.54, 390.50 163.71, 388.35 168.02 C 386.19 172.33, 384.91 174.84, 382.47 179.52 C 380.02 184.21, 378.74 186.75, 376.10 191.45 C 373.47 196.16, 372.01 198.61, 369.29 203.04 C 366.56 207.46, 365.14 209.80, 362.50 213.58 C 359.86 217.36, 358.51 219.16, 356.09 221.93 C 353.68 224.70, 352.41 225.85, 350.42 227.42 C 348.44 228.98, 347.55 229.49, 346.17 229.76 C 344.79 230.03, 344.25 229.76, 343.52 228.76 C 342.80 227.76, 342.57 226.90, 342.54 224.77 C 342.51 222.63, 342.56 221.18, 343.36 218.08 C 344.15 214.97, 344.68 213.11, 346.51 209.23 C 348.35 205.35, 349.69 203.15, 352.55 198.68 C 355.41 194.21, 357.02 191.72, 360.82 186.88 C 364.62 182.05, 366.96 179.46, 371.54 174.52 C 376.13 169.58, 378.74 167.04, 383.77 162.18 C 388.80 157.33, 391.56 154.91, 396.71 150.23 C 401.86 145.56, 404.58 143.15, 409.51 138.81 C 414.45 134.47, 416.90 132.37, 421.37 128.52 C 425.84 124.67, 428.11 122.79, 431.87 119.56 C 435.62 116.33, 437.30 114.80, 440.14 112.36 C 442.98 109.93, 444.27 108.90, 446.06 107.39 C 447.85 105.87, 448.54 105.17, 449.09 104.80 C 449.64 104.43, 449.41 104.51, 448.80 105.54 C 448.19 106.56, 447.53 107.51, 446.04 109.92 C 444.55 112.34, 443.63 114.05, 441.35 117.63 C 439.06 121.22, 437.45 123.51, 434.63 127.85 C 431.81 132.18, 430.17 134.79, 427.25 139.29 C 424.33 143.79, 422.73 146.28, 420.02 150.34 C 417.31 154.40, 415.79 156.49, 413.71 159.59 C 411.62 162.69, 410.67 164.16, 409.60 165.84 C 408.53 167.52, 408.44 167.92, 408.36 168.00 C 408.27 168.08, 408.58 167.46, 409.18 166.26 C 409.77 165.06, 410.42 163.89, 411.33 162.02 C 412.25 160.15, 412.69 158.71, 413.75 156.92 C 414.81 155.12, 415.34 154.32, 416.61 153.07 C 417.88 151.82, 418.55 151.45, 420.10 150.67 C 421.66 149.89, 422.42 149.66, 424.39 149.16 C 426.36 148.66, 427.39 148.61, 429.93 148.18 C 432.47 147.74, 433.89 147.59, 437.09 146.97 C 440.29 146.34, 442.25 145.88, 445.94 145.06 C 449.62 144.25, 451.73 143.80, 455.53 142.89 C 459.32 141.99, 461.37 141.42, 464.92 140.55 C 468.47 139.68, 470.36 139.23, 473.27 138.52 C 476.18 137.82, 477.70 137.45, 479.46 137.02 C 481.22 136.60, 481.75 136.39, 482.09 136.40 C 482.44 136.42, 482.16 136.52, 481.18 137.10 C 480.21 137.67, 479.19 138.11, 477.23 139.28 C 475.28 140.46, 473.84 141.28, 471.40 142.97 C 468.97 144.67, 467.49 145.76, 465.07 147.75 C 462.65 149.74, 461.29 150.89, 459.30 152.92 C 457.31 154.95, 456.39 156.05, 455.12 157.88 C 453.85 159.72, 453.32 160.63, 452.95 162.11 C 452.57 163.58, 452.64 164.27, 453.23 165.24 C 453.83 166.21, 454.49 166.66, 455.91 166.96 C 457.34 167.26, 458.31 167.17, 460.37 166.74 C 462.42 166.31, 463.74 165.93, 466.19 164.82 C 468.63 163.71, 470.14 162.87, 472.61 161.19 C 475.08 159.51, 476.40 158.37, 478.54 156.42 C 480.67 154.47, 481.72 153.37, 483.29 151.43 C 484.86 149.49, 485.51 148.56, 486.37 146.72 C 487.23 144.88, 487.49 143.82, 487.60 142.25 C 487.71 140.68, 487.40 139.94, 486.93 138.87 C 486.45 137.80, 485.92 137.39, 485.22 136.91 C 484.51 136.43, 483.95 136.31, 483.42 136.46 C 482.89 136.61, 482.45 137.11, 482.55 137.67 C 482.64 138.23, 482.92 138.77, 483.90 139.28 C 484.88 139.78, 485.66 139.96, 487.45 140.21 C 489.25 140.46, 490.32 140.57, 492.89 140.52 C 495.46 140.46, 497.14 140.29, 500.31 139.93 C 503.48 139.58, 505.36 139.17, 508.73 138.74 C 512.11 138.31, 514.03 138.00, 517.19 137.78 C 520.36 137.56, 522.04 137.47, 524.55 137.63 C 527.06 137.79, 528.27 137.91, 529.73 138.60 C 531.18 139.29, 531.63 139.78, 531.82 141.08 C 532.01 142.38, 531.59 143.30, 530.67 145.11 C 529.76 146.92, 528.85 148.04, 527.25 150.12 C 525.66 152.19, 524.43 153.47, 522.69 155.49 C 520.95 157.50, 519.67 158.67, 518.53 160.21 C 517.40 161.75, 516.88 162.51, 517.02 163.18 C 517.16 163.85, 517.69 164.00, 519.24 163.56 C 520.79 163.13, 522.08 162.39, 524.77 161.00 C 527.45 159.61, 529.23 158.35, 532.68 156.59 C 536.13 154.83, 538.35 153.72, 542.00 152.19 C 545.65 150.66, 547.87 149.86, 550.92 148.94 C 553.98 148.03, 555.34 147.71, 557.30 147.63 C 559.26 147.54, 559.91 147.77, 560.72 148.51 C 561.53 149.26, 561.46 149.97, 561.35 151.35 C 561.24 152.74, 560.75 153.65, 560.17 155.44 C 559.58 157.23, 558.93 158.35, 558.43 160.29 C 557.94 162.24, 557.53 163.48, 557.71 165.17 C 557.88 166.85, 558.39 167.62, 559.31 168.70 C 560.23 169.79, 561.13 170.19, 562.32 170.60 C 563.51 171.01, 564.64 170.84, 565.24 170.74 C 565.84 170.64, 565.83 170.37, 565.33 170.12 C 564.83 169.87, 563.77 169.92, 562.75 169.49 C 561.73 169.05, 560.97 168.81, 560.22 167.93 C 559.48 167.05, 559.07 166.52, 559.04 165.08 C 559.00 163.64, 559.52 162.57, 560.05 160.73 C 560.58 158.89, 561.21 157.77, 561.70 155.89 C 562.19 154.02, 562.58 152.96, 562.49 151.36 C 562.41 149.77, 562.31 148.88, 561.27 147.91 C 560.23 146.95, 559.43 146.57, 557.29 146.54 C 555.15 146.50, 553.72 146.82, 550.57 147.72 C 547.42 148.63, 545.24 149.55, 541.54 151.08 C 537.84 152.61, 535.58 153.68, 532.07 155.37 C 528.56 157.06, 526.64 158.10, 523.99 159.54 C 521.35 160.99, 520.16 161.86, 518.84 162.58 C 517.52 163.31, 517.23 163.48, 517.37 163.18 C 517.52 162.89, 518.24 162.41, 519.57 161.10 C 520.90 159.80, 522.20 158.65, 524.01 156.65 C 525.82 154.66, 527.04 153.34, 528.63 151.14 C 530.22 148.95, 531.12 147.74, 531.95 145.69 C 532.78 143.64, 533.12 142.51, 532.77 140.90 C 532.42 139.30, 531.84 138.60, 530.22 137.67 C 528.59 136.74, 527.28 136.51, 524.66 136.26 C 522.04 136.02, 520.32 136.21, 517.10 136.44 C 513.88 136.67, 511.96 137.01, 508.57 137.40 C 505.18 137.80, 503.30 138.15, 500.16 138.43 C 497.02 138.71, 495.36 138.77, 492.86 138.79 C 490.36 138.81, 489.34 138.71, 487.65 138.55 C 485.96 138.38, 485.30 138.20, 484.41 137.98 C 483.52 137.75, 483.38 137.57, 483.20 137.42 C 483.01 137.27, 483.23 137.14, 483.50 137.21 C 483.77 137.28, 484.08 137.34, 484.56 137.77 C 485.04 138.19, 485.53 138.44, 485.90 139.32 C 486.27 140.20, 486.54 140.78, 486.41 142.15 C 486.27 143.52, 486.06 144.48, 485.22 146.16 C 484.38 147.84, 483.75 148.72, 482.21 150.54 C 480.67 152.37, 479.61 153.42, 477.52 155.29 C 475.42 157.15, 474.13 158.28, 471.72 159.87 C 469.32 161.47, 467.82 162.20, 465.48 163.27 C 463.14 164.33, 461.88 164.70, 460.00 165.21 C 458.12 165.71, 457.29 165.88, 456.08 165.79 C 454.87 165.71, 454.38 165.47, 453.95 164.80 C 453.52 164.12, 453.50 163.64, 453.95 162.41 C 454.40 161.19, 454.92 160.35, 456.20 158.67 C 457.48 156.98, 458.40 155.93, 460.36 153.98 C 462.33 152.03, 463.61 150.83, 466.01 148.92 C 468.42 147.01, 469.97 146.07, 472.40 144.43 C 474.84 142.80, 476.31 142.07, 478.18 140.75 C 480.06 139.42, 480.99 138.75, 481.80 137.82 C 482.61 136.89, 482.75 136.47, 482.24 136.08 C 481.73 135.70, 481.11 135.67, 479.26 135.90 C 477.40 136.13, 475.88 136.51, 472.95 137.22 C 470.03 137.92, 468.17 138.52, 464.63 139.43 C 461.10 140.35, 459.06 140.90, 455.27 141.79 C 451.48 142.68, 449.37 143.11, 445.68 143.88 C 442.00 144.64, 440.04 145.05, 436.84 145.61 C 433.64 146.18, 432.24 146.26, 429.68 146.70 C 427.12 147.15, 426.07 147.27, 424.04 147.83 C 422.01 148.40, 421.20 148.69, 419.53 149.54 C 417.86 150.39, 417.14 150.79, 415.69 152.08 C 414.24 153.37, 413.49 154.16, 412.27 155.99 C 411.06 157.82, 410.44 159.26, 409.62 161.25 C 408.79 163.24, 408.41 164.54, 408.16 165.93 C 407.91 167.31, 407.90 168.08, 408.36 168.17 C 408.81 168.27, 409.17 168.01, 410.41 166.41 C 411.65 164.81, 412.51 163.29, 414.58 160.17 C 416.64 157.05, 418.07 154.91, 420.75 150.82 C 423.42 146.74, 425.02 144.25, 427.96 139.76 C 430.89 135.26, 432.53 132.66, 435.42 128.36 C 438.30 124.07, 439.97 121.83, 442.36 118.30 C 444.76 114.77, 445.96 113.23, 447.40 110.74 C 448.84 108.24, 449.25 107.11, 449.56 105.84 C 449.87 104.57, 449.78 104.24, 448.94 104.37 C 448.10 104.51, 447.24 105.06, 445.36 106.51 C 443.47 107.97, 442.31 109.15, 439.51 111.64 C 436.71 114.14, 435.08 115.71, 431.36 118.98 C 427.65 122.26, 425.38 124.14, 420.93 128.01 C 416.48 131.89, 414.03 133.99, 409.11 138.35 C 404.18 142.71, 401.46 145.11, 396.31 149.79 C 391.15 154.47, 388.40 156.89, 383.35 161.75 C 378.30 166.60, 375.69 169.14, 371.07 174.08 C 366.46 179.02, 364.10 181.61, 360.26 186.44 C 356.41 191.27, 354.78 193.76, 351.84 198.22 C 348.91 202.69, 347.53 204.87, 345.57 208.77 C 343.60 212.67, 342.90 214.51, 342.02 217.72 C 341.15 220.93, 341.02 222.51, 341.18 224.83 C 341.34 227.15, 341.80 228.16, 342.83 229.32 C 343.85 230.48, 344.64 230.82, 346.30 230.63 C 347.96 230.43, 349.03 229.96, 351.14 228.35 C 353.25 226.74, 354.45 225.44, 356.86 222.59 C 359.27 219.73, 360.59 217.90, 363.21 214.07 C 365.83 210.24, 367.25 207.90, 369.96 203.45 C 372.68 199.01, 374.14 196.55, 376.79 191.84 C 379.44 187.13, 380.73 184.59, 383.21 179.91 C 385.70 175.24, 386.98 172.74, 389.22 168.46 C 391.45 164.18, 392.62 162.05, 394.40 158.51 C 396.17 154.97, 397.06 153.32, 398.10 150.77 C 399.14 148.22, 399.49 147.08, 399.60 145.75 C 399.72 144.41, 399.47 144.09, 398.68 144.11 C 397.88 144.12, 397.22 144.54, 395.62 145.81 C 394.02 147.08, 393.01 148.35, 390.68 150.46 C 388.34 152.57, 386.88 153.93, 383.96 156.37 C 381.04 158.80, 379.25 160.22, 376.07 162.63 C 372.89 165.05, 371.04 166.45, 368.05 168.44 C 365.06 170.43, 363.50 171.35, 361.11 172.58 C 358.71 173.81, 357.64 174.28, 356.09 174.60 C 354.55 174.91, 353.97 174.86, 353.38 174.16 C 352.79 173.46, 352.80 172.80, 353.15 171.09 C 353.51 169.38, 354.01 168.10, 355.16 165.62 C 356.30 163.15, 357.18 161.46, 358.87 158.71 C 360.56 155.95, 361.88 154.32, 363.61 151.85 C 365.34 149.38, 366.39 148.09, 367.54 146.36 C 368.70 144.63, 369.22 143.94, 369.39 143.23 C 369.56 142.51, 369.35 142.38, 368.41 142.80 C 367.46 143.22, 366.62 143.88, 364.67 145.33 C 362.72 146.78, 361.41 147.92, 358.64 150.04 C 355.88 152.17, 354.15 153.50, 350.86 155.95 C 347.57 158.39, 345.71 159.91, 342.20 162.26 C 338.70 164.60, 336.76 165.86, 333.34 167.67 C 329.92 169.48, 328.01 170.27, 325.09 171.32 C 322.17 172.37, 320.83 172.66, 318.74 172.91 C 316.65 173.16, 315.81 173.12, 314.65 172.57 C 313.50 172.01, 313.10 171.47, 312.98 170.13 C 312.87 168.78, 313.30 167.83, 314.07 165.84 C 314.84 163.86, 315.64 162.46, 316.85 160.20 C 318.06 157.94, 319.00 156.41, 320.14 154.54 C 321.27 152.66, 322.11 151.72, 322.54 150.81 C 322.98 149.90, 323.05 149.58, 322.31 149.99 C 321.56 150.40, 320.63 151.11, 318.83 152.86 C 317.03 154.61, 315.80 156.36, 313.31 158.74 C 310.82 161.12, 309.27 162.53, 306.39 164.76 C 303.51 166.99, 301.70 168.16, 298.91 169.91 C 296.12 171.66, 294.73 172.49, 292.45 173.51 C 290.17 174.53, 289.14 174.81, 287.51 175.02 C 285.88 175.22, 285.12 175.15, 284.30 174.55 C 283.48 173.96, 283.29 173.45, 283.40 172.05 C 283.50 170.65, 283.86 169.70, 284.81 167.54 C 285.76 165.37, 286.41 163.85, 288.17 161.24 C 289.93 158.64, 291.22 157.02, 293.61 154.52 C 296.00 152.02, 297.62 150.71, 300.11 148.73 C 302.60 146.75, 303.94 145.80, 306.08 144.62 C 308.21 143.43, 309.16 143.18, 310.78 142.80 C 312.40 142.42, 313.02 142.54, 314.17 142.72 C 315.32 142.91, 315.72 143.26, 316.52 143.72 C 317.32 144.18, 317.60 144.65, 318.17 145.04 C 318.73 145.42, 319.04 145.62, 319.35 145.66 C 319.67 145.70, 319.81 145.57, 319.75 145.25" style="stroke: black; fill: black;"/></svg>