# Wavefront OBJ
# Created by fragMOTION 1.3.7
# http://www.fragmosoft.com

mtllib Bob_Hair_Baldspot.mtl
# 86 vertices
v 0.0480506 0.867423 0.00788436
v 0.0321207 0.850513 0.019713
v 0.0356586 0.844505 0.000959551
v 0.0378207 0.870691 0.0238272
v 0.0329755 0.959404 -0.0448818
v 0.00257445 0.954067 -0.0732719
v 0.00257449 0.964387 -0.045244
v 0.0603615 0.894091 -0.0326273
v 0.0528825 0.926754 -0.0526475
v 0.0561975 0.931743 -0.0388305
v 0.0561285 0.892392 -0.048257
v 0.0634066 0.898014 -0.0166456
v 0.0541496 0.944368 -0.0130278
v 0.0603396 0.896801 0.00336544
v 0.0448416 0.900609 0.0288164
v 0.00257467 0.902642 0.0409057
v 0.0263546 0.940236 0.0219212
v 0.00257463 0.936036 0.028221
v 0.0348044 0.939541 -0.079321
v 0.0375745 0.931115 -0.0768638
v 0.0475595 0.947136 -0.0432947
v 0.0461135 0.959235 -0.0159889
v 0.0279706 0.949844 0.0115343
v 0.0305285 0.965884 -0.0141012
v 0.0219676 0.96182 -0.0037713
v 0.0408496 0.950453 0.00868589
v 0.00257467 0.849044 0.0287609
v 0.00257467 0.873237 0.0378735
v 0.0541935 0.877357 -0.0452484
v 0.0584585 0.880096 -0.0362753
v 0.0449976 0.851805 -0.00466977
v 0.0277256 0.817833 -0.012126
v 0.00257443 0.935236 -0.0910353
v 0.00257443 0.92419 -0.089615
v 0.00257456 0.96537 -0.00516127
v 0.00257453 0.967572 -0.0195242
v 0.0339956 0.854686 -0.0018403
v 0.0312966 0.859247 0.0108227
v 0.0467625 0.921385 -0.0565726
v 0.0517435 0.892755 -0.0490502
v 0.0553485 0.894938 -0.0313614
v 0.0579426 0.898279 -0.01775
v 0.0359415 0.927931 -0.0686947
v 0.00257465 0.86291 0.0198554
v 0.0497375 0.874017 -0.0451512
v 0.0533706 0.877031 -0.0334612
v 0.0272386 0.830195 -0.0126866
v 0.0419496 0.859128 -0.00633708
v 0.00257445 0.922032 -0.079555
v -0.0429014 0.867423 0.00788447
v -0.0269713 0.850513 0.0197131
v -0.0326713 0.87069 0.0238273
v -0.0305094 0.844505 0.000959635
v -0.0278265 0.959404 -0.0448817
v -0.0552125 0.89409 -0.0326272
v -0.0477335 0.926754 -0.0526474
v -0.0509795 0.892391 -0.0482568
v -0.0510485 0.931743 -0.0388304
v -0.0490004 0.944368 -0.0130277
v -0.0582574 0.898014 -0.0166455
v -0.0551904 0.896801 0.00336559
v -0.0396924 0.900609 0.0288165
v -0.0212054 0.940236 0.0219213
v -0.0296556 0.939541 -0.079321
v -0.0324255 0.931115 -0.0768638
v -0.0424105 0.947136 -0.0432946
v -0.0409645 0.959235 -0.0159888
v -0.0228214 0.949844 0.0115344
v -0.0253795 0.965884 -0.0141012
v -0.0357004 0.950453 0.00868598
v -0.0168184 0.96182 -0.00377125
v -0.0490445 0.877357 -0.0452483
v -0.0533095 0.880096 -0.0362752
v -0.0398484 0.851805 -0.00466966
v -0.0225764 0.817833 -0.0121259
v -0.0288464 0.854686 -0.00184022
v -0.0261474 0.859247 0.0108228
v -0.0416135 0.921385 -0.0565725
v -0.0465945 0.892755 -0.0490501
v -0.0501995 0.894938 -0.0313612
v -0.0527934 0.898279 -0.0177498
v -0.0307925 0.927931 -0.0686946
v -0.0445885 0.874017 -0.0451511
v -0.0482214 0.877031 -0.0334611
v -0.0220894 0.830195 -0.0126865
v -0.0368004 0.859128 -0.00633699
# 86 texture vertices
vt 0.170233 -0.263028
vt 0.169023 -0.302508
vt 0.251718 -0.296585
vt 0.23902 -0.270098
vt 0.293615 -0.115767
vt 0.373408 -0.113707
vt 0.376259 -0.081142
vt 0.092607 -0.166939
vt 0.176774 -0.133244
vt 0.172036 -0.107371
vt 0.081934 -0.138216
vt 0.116725 -0.200141
vt 0.168995 -0.217025
vt 0.22369 -0.160972
vt 0.251742 -0.233991
vt 0.378715 -0.239619
vt 0.377417 -0.198577
vt 0.320062 -0.193494
vt 0.268172 -0.073236
vt 0.250071 -0.071887
vt 0.235338 -0.120087
vt 0.266559 -0.150252
vt 0.311961 -0.181878
vt 0.332951 -0.161283
vt 0.309341 -0.149138
vt 0.278496 -0.17695
vt 0.375949 -0.299378
vt 0.375776 -0.270323
vt 0.031571 -0.144164
vt 0.042118 -0.157511
vt 0.117657 -0.276818
vt 0.093999 -0.329784
vt 0.374543 -0.056445
vt 0.374463 -0.050644
vt 0.374908 -0.159423
vt 0.373035 -0.142534
vt 0.200602 -0.314426
vt 0.248947 -0.313393
vt 0.160028 -0.09676
vt 0.081267 -0.130343
vt 0.076637 -0.174899
vt 0.090793 -0.198832
vt 0.231302 -0.068687
vt 0.376658 -0.31947
vt 0.013904 -0.141562
vt 0.021873 -0.160621
vt 0.102415 -0.321462
vt 0.093844 -0.267251
vt 0.374303 -0.043291
vt 0.579807 -0.260463
vt 0.510796 -0.265092
vt 0.498703 -0.293328
vt 0.578859 -0.300473
vt 0.474908 -0.113501
vt 0.688917 -0.170304
vt 0.711088 -0.142573
vt 0.601007 -0.104753
vt 0.584937 -0.132047
vt 0.526102 -0.158985
vt 0.595223 -0.216267
vt 0.652855 -0.201388
vt 0.505597 -0.230802
vt 0.437009 -0.18982
vt 0.504891 -0.068794
vt 0.522984 -0.068694
vt 0.532133 -0.117913
vt 0.491844 -0.147589
vt 0.424404 -0.175222
vt 0.46053 -0.173788
vt 0.456169 -0.144292
vt 0.432014 -0.154177
vt 0.758151 -0.151983
vt 0.742465 -0.164496
vt 0.649321 -0.329865
vt 0.631123 -0.276587
vt 0.501365 -0.310346
vt 0.546527 -0.311821
vt 0.71435 -0.134675
vt 0.613387 -0.095392
vt 0.677218 -0.201018
vt 0.701165 -0.179095
vt 0.54126 -0.065999
vt 0.776561 -0.150585
vt 0.761164 -0.168929
vt 0.641878 -0.321432
vt 0.656785 -0.268005
# 86 normals
vn 0.851241 -0.355304 0.386196
vn -0.138634 -0.613077 0.777764
vn 0.232891 -0.90021 0.367945
vn 0.581334 -0.289721 0.760337
vn 0.420578 0.807222 -0.414135
vn -9.08885e-007 0.967603 -0.252477
vn -1.33354e-006 0.840956 -0.541104
vn 0.920727 -0.343929 0.18432
vn 0.941096 0.26868 -0.205303
vn 0.859696 0.118689 -0.496825
vn 0.695059 -0.150348 -0.703057
vn 0.93726 -0.311454 -0.156652
vn 0.938847 -0.0669357 0.337766
vn 0.917166 0.36644 0.156614
vn 0.620918 0.037203 0.782992
vn 1.62272e-006 0.113152 0.993578
vn 1.40284e-006 0.355114 0.934823
vn 0.329216 0.403214 0.853835
vn 0.54257 0.432664 -0.720015
vn 0.611921 -0.453512 -0.647981
vn 0.75086 0.569025 -0.335292
vn 0.666005 0.742839 0.0680256
vn 0.119659 0.778046 0.616705
vn 0.194609 0.847028 0.494642
vn 0.245292 0.956887 0.155561
vn 0.522003 0.613627 0.592431
vn 9.73047e-007 -0.955832 0.293915
vn 1.76067e-006 -0.246657 0.969103
vn 0.627484 -0.495915 -0.600276
vn 0.895415 -0.417741 0.15403
vn 0.848784 -0.44177 -0.290523
vn -0.228447 -0.953401 -0.197074
vn -1.76113e-006 0.254249 -0.967139
vn -9.49305e-007 -0.655639 -0.755075
vn -9.47636e-008 0.972989 0.230851
vn -5.02105e-007 0.999997 -0.00222021
vn -0.985773 -0.143234 0.0879542
vn -0.755873 -0.475843 -0.4497
vn 0.609607 -0.151715 -0.77805
vn 0.154858 -0.220193 -0.963086
vn 0.0631755 -0.695252 0.715985
vn 0.0373307 -0.891346 -0.451784
vn 0.289632 -0.888515 -0.355885
vn -1.15269e-006 -0.540366 -0.84143
vn 0.494902 -0.713666 -0.495734
vn 0.595181 -0.682162 0.424754
vn -0.752604 -0.055873 -0.656099
vn 0.0728424 -0.192438 -0.978602
vn 1.06749e-007 -0.974539 -0.224217
vn -0.85124 -0.355305 0.386199
vn -0.581331 -0.289722 0.760339
vn -0.232889 -0.90021 0.367946
vn 0.138639 -0.613077 0.777764
vn -0.42058 0.807221 -0.414134
vn -0.920726 -0.34393 0.184323
vn -0.695061 -0.150349 -0.703054
vn -0.859698 0.118689 -0.496822
vn -0.941097 0.268679 -0.2053
vn -0.917166 0.366439 0.156617
vn -0.938846 -0.0669367 0.337769
vn -0.93726 -0.311455 -0.156649
vn -0.620916 0.0372024 0.782994
vn -0.329214 0.403214 0.853837
vn -0.542572 0.432663 -0.720013
vn -0.611923 -0.453513 -0.647978
vn -0.750862 0.569024 -0.335289
vn -0.666005 0.742838 0.0680279
vn -0.119657 0.778046 0.616705
vn -0.522001 0.613626 0.592433
vn -0.245292 0.956887 0.155562
vn -0.194609 0.847028 0.494643
vn -0.627486 -0.495916 -0.600274
vn -0.895414 -0.417742 0.154033
vn 0.228445 -0.953401 -0.197077
vn -0.848785 -0.441771 -0.29052
vn 0.755872 -0.475842 -0.449702
vn 0.985773 -0.143233 0.0879509
vn -0.154861 -0.220194 -0.963085
vn -0.609609 -0.151715 -0.778048
vn -0.0373313 -0.891346 -0.451784
vn -0.0631724 -0.695252 0.715985
vn -0.289632 -0.888515 -0.355884
vn -0.494902 -0.713667 -0.495733
vn -0.595178 -0.682162 0.424756
vn 0.752602 -0.0558722 -0.656101
vn -0.0728455 -0.192439 -0.978601
usemtl _09_-_Defaultaaa
g Bob_Hair_Baldspot
s off
f 1/1/1 2/3/3 3/2/2
f 2/3/3 1/1/1 4/4/4
f 5/5/5 6/7/7 7/6/6
f 8/8/8 9/10/10 10/9/9
f 9/10/10 8/8/8 11/11/11
f 12/12/12 13/14/14 14/13/13
f 12/12/12 10/9/9 13/14/14
f 8/8/8 10/9/9 12/12/12
f 4/4/4 14/13/13 15/15/15
f 14/13/13 4/4/4 1/1/1
f 16/16/16 17/18/18 18/17/17
f 19/19/19 9/10/10 20/20/20
f 21/21/21 13/14/14 10/9/9
f 13/14/14 21/21/21 22/22/22
f 23/23/23 24/25/25 25/24/24
f 24/25/25 23/23/23 26/26/26
f 19/19/19 10/9/9 9/10/10
f 10/9/9 19/19/19 21/21/21
f 27/27/27 4/4/4 28/28/28
f 4/4/4 27/27/27 2/3/3
f 28/28/28 15/15/15 16/16/16
f 15/15/15 28/28/28 4/4/4
f 26/26/26 14/13/13 13/14/14
f 14/13/13 26/26/26 15/15/15
f 22/22/22 26/26/26 13/14/14
f 29/29/29 8/8/8 30/30/30
f 8/8/8 29/29/29 11/11/11
f 3/2/2 31/31/31 1/1/1
f 31/31/31 3/2/2 32/32/32
f 1/1/1 12/12/12 14/13/13
f 12/12/12 1/1/1 31/31/31
f 5/5/5 22/22/22 21/21/21
f 22/22/22 5/5/5 24/25/25
f 33/33/33 6/7/7 19/19/19
f 20/20/20 33/33/33 19/19/19
f 33/33/33 20/20/20 34/34/34
f 35/35/35 24/25/25 36/36/36
f 24/25/25 7/6/6 36/36/36
f 7/6/6 24/25/25 5/5/5
f 21/21/21 6/7/7 5/5/5
f 6/7/7 21/21/21 19/19/19
f 24/25/25 26/26/26 22/22/22
f 2/3/3 37/37/37 3/2/2
f 37/37/37 2/3/3 38/38/38
f 11/11/11 39/39/39 9/10/10
f 39/39/39 11/11/11 40/40/40
f 12/12/12 41/41/41 8/8/8
f 41/41/41 12/12/12 42/42/42
f 9/10/10 43/43/43 20/20/20
f 43/43/43 9/10/10 39/39/39
f 27/27/27 38/38/38 2/3/3
f 38/38/38 27/27/27 44/44/44
f 29/29/29 40/40/40 11/11/11
f 40/40/40 29/29/29 45/45/45
f 30/30/30 45/45/45 29/29/29
f 45/45/45 30/30/30 46/46/46
f 8/8/8 46/46/46 30/30/30
f 46/46/46 8/8/8 41/41/41
f 3/2/2 47/47/47 32/32/32
f 47/47/47 3/2/2 37/37/37
f 32/32/32 48/48/48 31/31/31
f 48/48/48 32/32/32 47/47/47
f 31/31/31 42/42/42 12/12/12
f 42/42/42 31/31/31 48/48/48
f 20/20/20 49/49/49 34/34/34
f 49/49/49 20/20/20 43/43/43
f 17/18/18 26/26/26 23/23/23
f 26/26/26 17/18/18 15/15/15
f 17/18/18 16/16/16 15/15/15
f 25/24/24 24/25/25 35/35/35
f 50/50/50 51/52/52 52/51/51
f 51/52/52 50/50/50 53/53/53
f 54/54/54 7/6/6 6/7/7
f 55/55/55 56/57/57 57/56/56
f 56/57/57 55/55/55 58/58/58
f 59/59/59 60/61/61 61/60/60
f 58/58/58 60/61/61 59/59/59
f 55/55/55 60/61/61 58/58/58
f 52/51/51 61/60/60 50/50/50
f 61/60/60 52/51/51 62/62/62
f 16/16/16 18/17/17 63/63/63
f 64/64/64 65/65/65 56/57/57
f 66/66/66 59/59/59 67/67/67
f 59/59/59 66/66/66 58/58/58
f 68/68/68 69/70/70 70/69/69
f 69/70/70 68/68/68 71/71/71
f 64/64/64 58/58/58 66/66/66
f 58/58/58 64/64/64 56/57/57
f 27/27/27 52/51/51 51/52/52
f 52/51/51 27/27/27 28/28/28
f 28/28/28 62/62/62 52/51/51
f 62/62/62 28/28/28 16/16/16
f 70/69/69 61/60/60 62/62/62
f 61/60/60 70/69/69 59/59/59
f 67/67/67 59/59/59 70/69/69
f 72/72/72 55/55/55 57/56/56
f 55/55/55 72/72/72 73/73/73
f 53/53/53 74/75/75 75/74/74
f 74/75/75 53/53/53 50/50/50
f 50/50/50 60/61/61 74/75/75
f 60/61/61 50/50/50 61/60/60
f 54/54/54 67/67/67 69/70/70
f 67/67/67 54/54/54 66/66/66
f 33/33/33 64/64/64 6/7/7
f 65/65/65 33/33/33 34/34/34
f 33/33/33 65/65/65 64/64/64
f 35/35/35 36/36/36 69/70/70
f 69/70/70 7/6/6 54/54/54
f 7/6/6 69/70/70 36/36/36
f 66/66/66 6/7/7 64/64/64
f 6/7/7 66/66/66 54/54/54
f 69/70/70 67/67/67 70/69/69
f 51/52/52 76/77/77 77/76/76
f 76/77/77 51/52/52 53/53/53
f 57/56/56 78/79/79 79/78/78
f 78/79/79 57/56/56 56/57/57
f 60/61/61 80/81/81 81/80/80
f 80/81/81 60/61/61 55/55/55
f 56/57/57 82/82/82 78/79/79
f 82/82/82 56/57/57 65/65/65
f 27/27/27 77/76/76 44/44/44
f 77/76/76 27/27/27 51/52/52
f 72/72/72 79/78/78 83/83/83
f 79/78/78 72/72/72 57/56/56
f 73/73/73 83/83/83 84/84/84
f 83/83/83 73/73/73 72/72/72
f 55/55/55 84/84/84 80/81/81
f 84/84/84 55/55/55 73/73/73
f 53/53/53 85/85/85 76/77/77
f 85/85/85 53/53/53 75/74/74
f 75/74/74 86/86/86 85/85/85
f 86/86/86 75/74/74 74/75/75
f 74/75/75 81/80/80 86/86/86
f 81/80/80 74/75/75 60/61/61
f 65/65/65 49/49/49 82/82/82
f 49/49/49 65/65/65 34/34/34
f 63/63/63 68/68/68 70/69/69
f 70/69/69 62/62/62 63/63/63
f 63/63/63 62/62/62 16/16/16
f 71/71/71 35/35/35 69/70/70
