# Wavefront OBJ
# Created by fragMOTION 1.3.7
# http://www.fragmosoft.com

mtllib Kate_Hair_Back.mtl
# 78 vertices
v 0.00257457 0.941606 0.0465873
v -0.0247994 0.90712 0.0361471
v 0.00112357 0.901116 0.042394
v -0.0346115 0.936943 0.0261791
v -0.0270335 0.960714 0.00482898
v 0.00257448 0.965578 -0.00821112
v 0.0321825 0.960714 0.00482888
v 0.0424385 0.936943 0.026179
v 0.0299486 0.907121 0.0361275
v -0.0374745 0.871747 0.0243166
v 0.00257457 0.867633 0.0369931
v -0.0568465 0.914827 -0.00487985
v -0.0434376 0.94506 -0.0529939
v 0.00257439 0.952483 -0.0732989
v 0.0485864 0.94506 -0.052994
v 0.0619955 0.914827 -0.00488005
v 0.0426236 0.871747 0.0243164
v -0.0348105 0.850591 0.0165044
v 0.00257456 0.838292 0.0247357
v -0.0527795 0.896549 -0.0101226
v -0.0410456 0.918865 -0.0673421
v 0.00257437 0.922959 -0.0852072
v 0.0461944 0.918865 -0.0673422
v 0.0579285 0.896549 -0.0101228
v 0.0399595 0.850591 0.0165043
v 0.00257452 0.841367 -0.000209553
v 0.00118156 0.943439 0.0408469
v 0.0160016 0.948971 0.0589725
v 0.00842256 0.94238 0.0392493
v 0.00563159 0.950082 0.0635426
v 0.0323596 0.945832 0.0782416
v 0.0267536 0.947402 0.08183
v 0.0440827 0.932564 0.0963179
v 0.0152146 0.937874 0.0600474
v 0.00669656 0.935378 0.0413445
v 0.0310046 0.939264 0.0791909
v 0.0048436 0.938986 0.0646184
v -0.000544436 0.937427 0.0427754
v 0.0253986 0.940833 0.0827795
v 0.00521856 0.941904 0.0393516
v 0.000667585 0.951962 0.0589056
v 0.00693257 0.938029 0.0441851
v -0.00533743 0.958441 0.0521894
v -0.0104384 0.955112 0.0813166
v -0.0138764 0.959975 0.0782346
v -0.0288344 0.95114 0.0987668
v -0.00770142 0.944171 0.0581885
v 0.00109157 0.934741 0.0434217
v -0.0159124 0.950937 0.0802764
v -0.0137054 0.95065 0.0514723
v -0.000621442 0.938616 0.0385883
v -0.0193504 0.955802 0.0771942
v 0.00175156 0.935354 0.0427113
v -0.00260041 0.953966 0.0613188
v -0.00105244 0.939954 0.0389901
v 0.0042486 0.94887 0.0693185
v -0.0035984 0.978849 0.0755255
v -0.000285386 0.976398 0.0815473
v 0.00570861 1.00369 0.0840906
v 0.00690058 0.95847 0.0565347
v 0.00520456 0.942398 0.0379027
v 0.0026626 0.981068 0.0732439
v 0.0137486 0.953374 0.0645344
v 0.00800856 0.937798 0.0416239
v 0.00597561 0.978617 0.0792667
v 0.00555456 0.941889 0.0413387
v 0.0095736 0.94394 0.0688962
v 0.00983457 0.936858 0.0427657
v -0.000535401 0.950913 0.0676496
v 0.00241265 0.932562 0.0961632
v -0.00475735 0.935577 0.0969177
v -0.0108013 0.910865 0.110457
v 0.0029596 0.934474 0.0665015
v 0.00448557 0.932562 0.0427995
v -0.00037436 0.927416 0.0921865
v -0.0071494 0.941449 0.0652547
v 0.000205561 0.937465 0.0406102
v -0.00754436 0.93043 0.092941
# 75 texture vertices
vt 0.182507 -0.047601
vt 0.11854 -0.075537
vt 0.235828 -0.073716
vt 0.289149 -0.029143
vt 0.338483 -0.074639
vt 0.387817 -0.049447
vt 0.429677 -0.080176
vt 0.471536 -0.040218
vt 0.514039 -0.080104
vt 0.556541 -0.049303
vt 0.602408 -0.077612
vt 0.648274 -0.035232
vt 0.689211 -0.069162
vt 0.730148 -0.032405
vt 0.76689 -0.067748
vt 0.054573 -0.032785
vt 0.017831 -0.068129
vt 0.235828 -0.311129
vt 0.11854 -0.31295
vt 0.338483 -0.312052
vt 0.429677 -0.317589
vt 0.514039 -0.317517
vt 0.602408 -0.315024
vt 0.689211 -0.306575
vt 0.76689 -0.305161
vt 0.017831 -0.305542
vt 0.235828 -0.341742
vt 0.11854 -0.343563
vt 0.338483 -0.342665
vt 0.429677 -0.348202
vt 0.514039 -0.34813
vt 0.602408 -0.345638
vt 0.689211 -0.337188
vt 0.76689 -0.335774
vt 0.017831 -0.336155
vt 0.191802 -0.828831
vt 0.132033 -0.810909
vt 0.191802 -0.804861
vt 0.103305 -0.829455
vt 0.122065 -0.88192
vt 0.191802 -0.898774
vt 0.26154 -0.88192
vt 0.2803 -0.829455
vt 0.251572 -0.810909
vt 0.160306 -0.61153
vt 0.248819 -0.61153
vt 0.248819 -0.556089
vt 0.160306 -0.556089
vt 0.248819 -0.500648
vt 0.160306 -0.500648
vt 0.202175 -0.449113
vt 0.163637 -0.675356
vt 0.237544 -0.675356
vt 0.237544 -0.585465
vt 0.163637 -0.585465
vt 0.237544 -0.495574
vt 0.163637 -0.495574
vt 0.199526 -0.411787
vt 0.199678 -0.412342
vt 0.171104 -0.670745
vt 0.235164 -0.670745
vt 0.235164 -0.586137
vt 0.171104 -0.586137
vt 0.235164 -0.50153
vt 0.171104 -0.50153
vt 0.203793 -0.422667
vt 0.203925 -0.422667
vt 0.158616 -0.67173
vt 0.243293 -0.67173
vt 0.243293 -0.585257
vt 0.158616 -0.585257
vt 0.243293 -0.498784
vt 0.158616 -0.498784
vt 0.200954 -0.419783
vt 0.201303 -0.419783
# 78 normals
vn -0.00677476 0.456283 0.889809
vn -0.0274655 -0.141977 0.989489
vn -0.519949 -0.0505435 0.852701
vn -0.699018 0.35811 0.618976
vn -0.461351 0.85667 0.230805
vn -0.000474165 0.999586 0.0287826
vn 0.452846 0.864115 0.219627
vn 0.702436 0.379824 0.601928
vn 0.448905 -0.0576324 0.891719
vn -0.69445 -0.21681 0.6861
vn -0.0036205 -0.283592 0.958938
vn -0.980413 0.102575 0.168133
vn -0.707409 0.590207 -0.388881
vn -0.00946517 0.736861 -0.675978
vn 0.721446 0.580798 -0.37708
vn 0.989235 0.0961209 0.11034
vn 0.685279 -0.234526 0.689485
vn -0.684199 -0.712445 0.155867
vn 0.000268944 -0.860848 0.508862
vn -0.891301 -0.422688 -0.164065
vn -0.660008 -0.195338 -0.725419
vn -0.00928646 -0.155223 -0.987836
vn 0.675801 -0.204567 -0.708128
vn 0.893845 -0.404701 -0.193021
vn 0.681219 -0.715094 0.156785
vn -5.05048e-007 -0.888619 -0.458646
vn -0.574815 0.805107 -0.146252
vn 0.707356 0.49626 -0.503362
vn 0.587648 0.707882 -0.391883
vn -0.587478 0.755561 0.289824
vn 0.763998 0.553907 -0.330898
vn -0.161765 0.820905 0.547675
vn 0.622054 -0.432035 0.652989
vn 0.432611 -0.891544 -0.134154
vn 0.545147 -0.810574 -0.213972
vn 0.371125 -0.807682 -0.458165
vn -0.87378 -0.449961 0.184506
vn -0.681322 -0.552412 0.48025
vn -0.593345 -0.458567 0.661557
vn 0.494856 0.663998 -0.560556
vn 0.861078 -0.193479 0.470224
vn 0.90653 0.158288 0.391343
vn 0.0946162 0.916347 -0.389045
vn 0.810054 0.00840138 0.586295
vn 0.075098 0.987198 0.140716
vn -0.569048 -0.167522 0.80506
vn -0.320213 -0.895168 0.31006
vn -0.185462 -0.911672 0.366686
vn -0.0689826 -0.992406 0.101838
vn -0.677673 -0.0339787 -0.734578
vn -0.888486 0.0402269 -0.457137
vn -0.936895 0.194879 -0.290259
vn -0.410281 -0.820532 0.397991
vn -0.930775 0.242794 -0.273329
vn -0.997448 0.0214336 -0.0680982
vn -0.112491 -0.667486 0.736076
vn -0.960227 0.213931 -0.179435
vn -0.36433 -0.251924 0.896548
vn 0.165501 0.95145 0.259525
vn 0.287677 0.687087 -0.667199
vn 0.233173 0.685954 -0.689273
vn 0.257686 0.494439 -0.830137
vn 0.905334 -0.424402 0.0158882
vn 0.970181 -0.130258 0.204404
vn 0.902339 -0.0285044 0.430084
vn 0.124965 0.927059 -0.353475
vn 0.992012 -0.124953 -0.017302
vn 0.944815 0.284388 0.162632
vn -0.168052 0.984124 0.0570814
vn 0.829074 0.172587 0.531837
vn -0.337024 0.710921 0.617257
vn -0.298251 -0.752093 0.58771
vn -0.100403 -0.994853 0.0136806
vn 0.207974 -0.976256 -0.0605938
vn 0.424147 -0.85717 -0.292163
vn -0.940707 0.0301789 -0.337876
vn -0.985662 -0.0440472 -0.162882
vn -0.958843 -0.202752 -0.198775
usemtl _08_-_Default
g Kate_Hair_Back
s off
f 1/1/1 2/3/3 3/2/2
f 1/4/1 4/5/4 2/3/3
f 1/6/1 5/7/5 4/5/4
f 1/8/1 6/9/6 5/7/5
f 1/10/1 7/11/7 6/9/6
f 1/12/1 8/13/8 7/11/7
f 1/14/1 9/15/9 8/13/8
f 1/16/1 3/2/2 9/17/9
f 10/18/10 3/2/2 2/3/3
f 3/2/2 10/18/10 11/19/11
f 12/20/12 2/3/3 4/5/4
f 2/3/3 12/20/12 10/18/10
f 12/20/12 5/7/5 13/21/13
f 5/7/5 12/20/12 4/5/4
f 14/22/14 5/7/5 6/9/6
f 5/7/5 14/22/14 13/21/13
f 15/23/15 6/9/6 7/11/7
f 6/9/6 15/23/15 14/22/14
f 16/24/16 7/11/7 8/13/8
f 7/11/7 16/24/16 15/23/15
f 17/25/17 8/13/8 9/15/9
f 8/13/8 17/25/17 16/24/16
f 11/19/11 9/17/9 3/2/2
f 9/17/9 11/19/11 17/26/17
f 18/27/18 11/19/11 10/18/10
f 11/19/11 18/27/18 19/28/19
f 20/29/20 10/18/10 12/20/12
f 10/18/10 20/29/20 18/27/18
f 21/30/21 12/20/12 13/21/13
f 12/20/12 21/30/21 20/29/20
f 22/31/22 13/21/13 14/22/14
f 13/21/13 22/31/22 21/30/21
f 23/32/23 14/22/14 15/23/15
f 14/22/14 23/32/23 22/31/22
f 24/33/24 15/23/15 16/24/16
f 15/23/15 24/33/24 23/32/23
f 25/34/25 16/24/16 17/25/17
f 16/24/16 25/34/25 24/33/24
f 19/28/19 17/26/17 11/19/11
f 17/26/17 19/28/19 25/35/25
f 26/36/26 19/38/19 18/37/18
f 26/36/26 18/37/18 20/39/20
f 26/36/26 20/39/20 21/40/21
f 26/36/26 21/40/21 22/41/22
f 26/36/26 22/41/22 23/42/23
f 26/36/26 23/42/23 24/43/24
f 26/36/26 24/43/24 25/44/25
f 26/36/26 25/44/25 19/38/19
f 27/45/27 28/47/29 29/46/28
f 28/47/29 27/45/27 30/48/30
f 30/48/30 31/49/31 28/47/29
f 31/49/31 30/48/30 32/50/32
f 32/50/32 33/51/33 31/49/31
f 29/45/28 34/47/35 35/46/34
f 34/47/35 29/45/28 28/48/29
f 28/48/29 36/49/36 34/47/35
f 36/49/36 28/48/29 31/50/31
f 31/50/31 33/51/33 36/49/36
f 35/45/34 37/47/38 38/46/37
f 37/47/38 35/45/34 34/48/35
f 34/48/35 39/49/39 37/47/38
f 39/49/39 34/48/35 36/50/36
f 36/50/36 33/51/33 39/49/39
f 38/45/37 30/47/30 27/46/27
f 30/47/30 38/45/37 37/48/38
f 37/48/38 32/49/32 30/47/30
f 32/49/32 37/48/38 39/50/39
f 39/50/39 33/51/33 32/49/32
f 40/52/40 41/54/42 42/53/41
f 41/54/42 40/52/40 43/55/43
f 43/55/43 44/56/44 41/54/42
f 44/56/44 43/55/43 45/57/45
f 45/57/45 46/58/46 44/56/44
f 42/52/41 47/54/48 48/53/47
f 47/54/48 42/52/41 41/55/42
f 41/55/42 49/56/49 47/54/48
f 49/56/49 41/55/42 44/57/44
f 44/57/44 46/59/46 49/56/49
f 48/52/47 50/54/51 51/53/50
f 50/54/51 48/52/47 47/55/48
f 47/55/48 52/56/52 50/54/51
f 52/56/52 47/55/48 49/57/49
f 49/57/49 46/59/46 52/56/52
f 51/52/50 43/54/43 40/53/40
f 43/54/43 51/52/50 50/55/51
f 50/55/51 45/56/45 43/54/43
f 45/56/45 50/55/51 52/57/52
f 52/57/52 46/59/46 45/56/45
f 53/60/53 54/62/55 55/61/54
f 54/62/55 53/60/53 56/63/56
f 56/63/56 57/64/57 54/62/55
f 57/64/57 56/63/56 58/65/58
f 58/65/58 59/66/59 57/64/57
f 55/60/54 60/62/61 61/61/60
f 60/62/61 55/60/54 54/63/55
f 54/63/55 62/64/62 60/62/61
f 62/64/62 54/63/55 57/65/57
f 57/65/57 59/67/59 62/64/62
f 61/60/60 63/62/64 64/61/63
f 63/62/64 61/60/60 60/63/61
f 60/63/61 65/64/65 63/62/64
f 65/64/65 60/63/61 62/65/62
f 62/65/62 59/67/59 65/64/65
f 64/60/63 56/62/56 53/61/53
f 56/62/56 64/60/63 63/63/64
f 63/63/64 58/64/58 56/62/56
f 58/64/58 63/63/64 65/65/65
f 65/65/65 59/67/59 58/64/58
f 66/68/66 67/70/68 68/69/67
f 67/70/68 66/68/66 69/71/69
f 69/71/69 70/72/70 67/70/68
f 70/72/70 69/71/69 71/73/71
f 71/73/71 72/74/72 70/72/70
f 68/68/67 73/70/74 74/69/73
f 73/70/74 68/68/67 67/71/68
f 67/71/68 75/72/75 73/70/74
f 75/72/75 67/71/68 70/73/70
f 70/73/70 72/75/72 75/72/75
f 74/68/73 76/70/77 77/69/76
f 76/70/77 74/68/73 73/71/74
f 73/71/74 78/72/78 76/70/77
f 78/72/78 73/71/74 75/73/75
f 75/73/75 72/75/72 78/72/78
f 77/68/76 69/70/69 66/69/66
f 69/70/69 77/68/76 76/71/77
f 76/71/77 71/72/71 69/70/69
f 71/72/71 76/71/77 78/73/78
f 78/73/78 72/75/72 71/72/71
