# Wavefront OBJ
# Created by fragMOTION 1.3.7
# http://www.fragmosoft.com

mtllib Kate_Hair_Buffont.mtl
# 119 vertices
v 0.00257442 0.953751 -0.0900283
v -0.0163266 0.934438 -0.106821
v -0.0150856 0.95392 -0.08842
v 0.00257439 0.934496 -0.11146
v 0.0025744 0.918398 -0.108347
v -0.0122796 0.912015 -0.0846322
v -0.0163236 0.92062 -0.104099
v 0.00257444 0.909442 -0.0905678
v -0.0317806 0.92424 -0.0884786
v -0.0263205 0.915057 -0.0778508
v -0.0316156 0.955443 -0.0815911
v -0.0348896 0.935536 -0.0934474
v -0.0495055 0.931453 -0.0674231
v -0.0375825 0.921171 -0.0641437
v -0.0521865 0.956676 -0.0576318
v -0.0476645 0.888238 -0.0363007
v -0.0484215 0.921716 -0.060376
v -0.0615974 0.914997 -0.0192608
v -0.0682385 0.95381 -0.0189684
v 0.0025745 0.979177 -0.0322729
v -0.0265465 0.979899 -0.0148524
v 0.00257453 0.980265 -0.0149139
v -0.0194625 0.97881 -0.0322112
v -0.0574135 0.969247 -0.015639
v -0.0486285 0.969246 -0.0362887
v 0.00257445 0.972969 -0.0629846
v -0.0146425 0.972718 -0.0619334
v -0.0278812 0.818509 0.0758031
v 0.00257476 0.806916 0.0701055
v 0.00257477 0.81924 0.077979
v -0.0224702 0.807363 0.069413
v -0.0417282 0.814461 0.0720059
v -0.0316925 0.971981 -0.0530847
v -0.0450272 0.807862 0.0640509
v -0.0216313 0.794002 0.0471582
v -0.0473493 0.796416 0.0461592
v -0.0696304 0.95308 0.00637951
v -0.0735674 0.895093 0.0109082
v -0.0680394 0.903478 0.0286991
v -0.0518684 0.966019 0.00424446
v 0.00257457 0.974081 0.00420603
v -0.0456554 0.95454 0.0262546
v -0.0618194 0.941248 0.0234608
v 0.00257462 0.955593 0.0278621
v -0.0400713 0.91647 0.045401
v -0.0618663 0.910235 0.0380876
v 0.00257467 0.917442 0.0470628
v -0.0620283 0.860865 0.0383434
v -0.0639063 0.853294 0.0220401
v -0.0563863 0.867623 0.0477319
v -0.0348033 0.873928 0.0554715
v 0.00257471 0.875699 0.056995
v -0.0648853 0.824975 0.0574399
v -0.0671573 0.812488 0.0397191
v -0.0528113 0.835023 0.0675214
v -0.0375963 0.84144 0.0735132
v 0.00257475 0.84216 0.0754425
v -0.0556213 0.802547 0.0232637
v -0.0193484 0.839071 0.00561317
v -0.0182883 0.800629 0.0199883
v -0.0522674 0.843956 0.00566686
v -0.0581044 0.897698 -0.012733
v -0.0394943 0.790432 0.0339555
v -0.0185393 0.786972 0.0287086
v 0.00257471 0.786372 0.032389
v 0.00257468 0.802427 0.0197113
v 0.00257473 0.79333 0.0468443
v -0.0444314 0.895315 -0.0134934
v 0.0214754 0.934438 -0.106821
v 0.0202344 0.95392 -0.0884201
v 0.0174284 0.912015 -0.0846322
v 0.0214724 0.92062 -0.104099
v 0.0369294 0.92424 -0.0884786
v 0.0314695 0.915057 -0.0778509
v 0.0367644 0.955443 -0.0815912
v 0.0400384 0.935537 -0.0934475
v 0.0546545 0.931453 -0.0674232
v 0.0428325 0.921171 -0.0641438
v 0.0573355 0.956676 -0.057632
v 0.0529685 0.888238 -0.0363008
v 0.0535705 0.921716 -0.0603761
v 0.0733875 0.95381 -0.0189686
v 0.0667466 0.914997 -0.0192609
v 0.0316955 0.979899 -0.0148524
v 0.0246115 0.97881 -0.0322112
v 0.0625625 0.969247 -0.0156391
v 0.0537775 0.969246 -0.0362888
v 0.0197915 0.972718 -0.0619334
v 0.0330308 0.818509 0.0758031
v 0.0276198 0.807363 0.0694129
v 0.0468778 0.814461 0.0720058
v 0.0368415 0.971981 -0.0530848
v 0.0501768 0.807862 0.0640508
v 0.0267807 0.794002 0.0471581
v 0.0524987 0.796416 0.046159
v 0.0747796 0.95308 0.00637933
v 0.0787156 0.895093 0.010908
v 0.0731886 0.903478 0.028699
v 0.0570176 0.966019 0.00424432
v 0.0508046 0.95454 0.0262544
v 0.0669686 0.941248 0.0234596
v 0.0452207 0.91647 0.0454009
v 0.0670157 0.910236 0.0380875
v 0.0671777 0.860866 0.0383433
v 0.0690557 0.853294 0.02204
v 0.0615357 0.867623 0.0477318
v 0.0399527 0.873928 0.0554714
v 0.0700347 0.824975 0.0574397
v 0.0723067 0.812488 0.039719
v 0.0579607 0.835023 0.0675212
v 0.0427458 0.84144 0.0735131
v 0.0607707 0.802547 0.0232636
v 0.0244976 0.839071 0.00561312
v 0.0574166 0.843956 0.00566673
v 0.0234377 0.800629 0.0199882
v 0.0632536 0.897698 -0.0127332
v 0.0446437 0.790432 0.0339554
v 0.0236887 0.786972 0.0287085
v 0.0494246 0.895315 -0.0134935
# 127 texture vertices
vt 0.694562 -0.452226
vt 0.728095 -0.455172
vt 0.733066 -0.412018
vt 0.695003 -0.405795
vt 0.695228 -0.3865
vt 0.739273 -0.397015
vt 0.75758 -0.372635
vt 0.695473 -0.363553
vt 0.787547 -0.420396
vt 0.805714 -0.410047
vt 0.758609 -0.468207
vt 0.774649 -0.433509
vt 0.828964 -0.473823
vt 0.847481 -0.470525
vt 0.798527 -0.510618
vt 0.919823 -0.559592
vt 0.852786 -0.501151
vt 0.820559 -0.588616
vt 0.881112 -0.604368
vt 0.69321 -0.566923
vt 0.693312 -0.599311
vt 0.741961 -0.596816
vt 0.728628 -0.566154
vt 0.795332 -0.591525
vt 0.783142 -0.555642
vt 0.694013 -0.510009
vt 0.722854 -0.511867
vt 0.783852 -0.93258
vt 0.690784 -0.95163
vt 0.757297 -0.995606
vt 0.810212 -0.957544
vt 0.834414 -0.929433
vt 0.753003 -0.529133
vt 0.877477 -0.925493
vt 0.917306 -0.968309
vt 0.931551 -0.916147
vt 0.813149 -0.629964
vt 0.851185 -0.718298
vt 0.885869 -0.68919
vt 0.78436 -0.621851
vt 0.692678 -0.63557
vt 0.776471 -0.664862
vt 0.807239 -0.670418
vt 0.692126 -0.68005
vt 0.77318 -0.740516
vt 0.82197 -0.730843
vt 0.691332 -0.750574
vt 0.880063 -0.786728
vt 0.917679 -0.76922
vt 0.83876 -0.800543
vt 0.772368 -0.814135
vt 0.690729 -0.822616
vt 0.874943 -0.868039
vt 0.921858 -0.8617
vt 0.827364 -0.874123
vt 0.781685 -0.880509
vt 0.689559 -0.896018
vt 0.975479 -0.861455
vt 1.10711 -0.887929
vt 1.06863 -0.753955
vt 0.966164 -0.758867
vt 0.913316 -0.628778
vt 0.949458 -0.978332
vt 0.965213 -0.912585
vt 1.12687 -0.932499
vt 1.1342 -0.937349
vt 1.12738 -0.875373
vt 0.926079 -0.990731
vt 0.941173 -0.991692
vt 0.939799 -0.606899
vt 0.656848 -0.411258
vt 0.660995 -0.454529
vt 0.633199 -0.371352
vt 0.650988 -0.396108
vt 0.602278 -0.418493
vt 0.584333 -0.407762
vt 0.63022 -0.466931
vt 0.614897 -0.4319
vt 0.559812 -0.471044
vt 0.541386 -0.467326
vt 0.589464 -0.508513
vt 0.467183 -0.554755
vt 0.535466 -0.49781
vt 0.505379 -0.600375
vt 0.566776 -0.585998
vt 0.657957 -0.565592
vt 0.645225 -0.596274
vt 0.604075 -0.553171
vt 0.592063 -0.588989
vt 0.66514 -0.511348
vt 0.593563 -0.929746
vt 0.571672 -0.952394
vt 0.646409 -1.00946
vt 0.541151 -0.925193
vt 0.634514 -0.527785
vt 0.50124 -0.921919
vt 0.447096 -0.909131
vt 0.445248 -0.96105
vt 0.572684 -0.626404
vt 0.497604 -0.685234
vt 0.532551 -0.714653
vt 0.601489 -0.619987
vt 0.60879 -0.662743
vt 0.57706 -0.666796
vt 0.609816 -0.738645
vt 0.561499 -0.727571
vt 0.500985 -0.783528
vt 0.464906 -0.76475
vt 0.543073 -0.797993
vt 0.60954 -0.812792
vt 0.504763 -0.864014
vt 0.45947 -0.854479
vt 0.551483 -0.872338
vt 0.597933 -0.878583
vt 0.410641 -0.852673
vt 0.417562 -0.75344
vt 0.322565 -0.774316
vt 0.320437 -0.910258
vt 0.472258 -0.624045
vt 0.412478 -0.909488
vt 0.423912 -0.965034
vt 0.328829 -0.954994
vt 0.295225 -0.952673
vt 0.296463 -0.890561
vt 0.49054 -0.996873
vt 0.434667 -0.991245
vt 0.42754 -0.593174
# 119 normals
vn -1.46648e-006 0.767076 -0.641556
vn -0.196937 0.736625 -0.646993
vn -0.383601 0.222961 -0.89618
vn -1.76191e-006 0.282784 -0.959184
vn -1.0293e-006 -0.613229 -0.789905
vn -0.428915 -0.579705 -0.692802
vn -0.356155 -0.858431 -0.369118
vn -2.26827e-007 -0.914769 -0.403978
vn -0.644401 -0.601273 -0.47246
vn -0.542075 -0.786134 -0.296896
vn -0.500843 0.626859 -0.596829
vn -0.69792 0.0840304 -0.711229
vn -0.844284 -0.200015 -0.497171
vn -0.492266 -0.69201 -0.528012
vn -0.791748 0.42852 -0.435323
vn -0.811898 -0.513698 -0.277374
vn -0.679051 -0.404556 -0.612556
vn -0.934168 0.317592 -0.162683
vn -0.893772 -0.216306 -0.392917
vn -7.19695e-007 0.991033 -0.133619
vn -2.86918e-007 0.992422 0.122879
vn -0.184996 0.974346 0.128161
vn -0.132991 0.980601 -0.143998
vn -0.555205 0.831501 0.0187936
vn -0.508526 0.820519 -0.261057
vn -1.13924e-006 0.91457 -0.404427
vn -0.126153 0.907286 -0.401145
vn -0.127164 -0.222285 0.966654
vn 1.75834e-006 -0.221229 0.975222
vn 1.53978e-006 -0.713398 0.700759
vn -0.0719764 -0.715179 0.695226
vn -0.35995 -0.361147 0.860238
vn -0.325325 0.884433 -0.334577
vn -0.418106 -0.646483 0.63816
vn -0.0706538 -0.891473 0.447531
vn -0.443456 -0.829328 0.339945
vn -0.838876 0.450054 0.306166
vn -0.933597 0.042697 0.355772
vn -0.977642 -0.149469 -0.147903
vn -0.390205 0.81761 0.423385
vn 3.12071e-007 0.8939 0.448265
vn -0.260433 0.632264 0.729669
vn -0.643824 0.394962 0.655359
vn 9.40417e-007 0.66014 0.751143
vn -0.218715 0.316184 0.923142
vn -0.649341 0.20442 0.732509
vn 1.41935e-006 0.340438 0.940267
vn -0.937431 0.0741156 0.340192
vn -0.968903 -0.128195 -0.211645
vn -0.667407 0.225088 0.709862
vn -0.225862 0.337173 0.913948
vn 1.39975e-006 0.357816 0.933792
vn -0.870416 -0.131389 0.47446
vn -0.919867 -0.392131 0.00886394
vn -0.597237 0.129048 0.791615
vn -0.250104 0.279676 0.926946
vn 1.46724e-006 0.295483 0.955348
vn -0.565649 -0.585273 -0.580944
vn -0.0525641 -0.54684 -0.835585
vn -0.0757654 -0.357713 -0.930753
vn -0.482988 -0.319489 -0.81526
vn -0.70344 -0.490099 -0.514757
vn -0.0648511 -0.947373 -0.313494
vn -0.284303 -0.9461 -0.155134
vn 1.43353e-007 -0.978997 -0.203872
vn -1.0793e-006 -0.584866 -0.811129
vn 1.20285e-006 -0.893962 0.448144
vn -0.139818 -0.813497 -0.564512
vn 0.383597 0.222962 -0.896182
vn 0.196934 0.736625 -0.646994
vn 0.356155 -0.858431 -0.36912
vn 0.428913 -0.579704 -0.692803
vn 0.644367 -0.600891 -0.472992
vn 0.54217 -0.785577 -0.298195
vn 0.500841 0.626859 -0.596831
vn 0.697918 0.0840311 -0.711231
vn 0.844494 -0.199562 -0.496996
vn 0.493401 -0.690468 -0.52897
vn 0.791746 0.428521 -0.435325
vn 0.813471 -0.513041 -0.27396
vn 0.680143 -0.403505 -0.612037
vn 0.894248 -0.215183 -0.392451
vn 0.934167 0.317593 -0.162685
vn 0.132989 0.980601 -0.143999
vn 0.184996 0.974347 0.128161
vn 0.508524 0.820519 -0.261059
vn 0.555204 0.831502 0.0187917
vn 0.126151 0.907286 -0.401146
vn 0.127168 -0.222285 0.966653
vn 0.0719795 -0.715178 0.695226
vn 0.359954 -0.361148 0.860236
vn 0.325323 0.884433 -0.334578
vn 0.418108 -0.646484 0.638157
vn 0.443458 -0.829327 0.339943
vn 0.0706572 -0.891473 0.447531
vn 0.838876 0.450055 0.306165
vn 0.977642 -0.149468 -0.147905
vn 0.933598 0.0426979 0.355768
vn 0.390205 0.81761 0.423383
vn 0.260435 0.632264 0.729668
vn 0.643826 0.394963 0.655357
vn 0.218717 0.316185 0.923141
vn 0.649343 0.204421 0.732506
vn 0.937432 0.0741165 0.340188
vn 0.968902 -0.128194 -0.211648
vn 0.667409 0.225089 0.709859
vn 0.225864 0.337173 0.913947
vn 0.870418 -0.131388 0.474458
vn 0.919867 -0.39213 0.00886083
vn 0.597239 0.129049 0.791613
vn 0.250107 0.279676 0.926946
vn 0.565647 -0.585273 -0.580946
vn 0.482922 -0.319454 -0.815313
vn 0.0756636 -0.357646 -0.930787
vn 0.0525619 -0.54684 -0.835585
vn 0.703787 -0.490258 -0.514132
vn 0.284303 -0.9461 -0.155134
vn 0.0648509 -0.947373 -0.313494
vn 0.138459 -0.812099 -0.566854
usemtl _09_-_Defaultaaaw
g Kate_Hair_Buffont
s off
f 1/1/1 2/3/3 3/2/2
f 2/3/3 1/1/1 4/4/4
f 5/5/5 6/7/7 7/6/6
f 6/7/7 5/5/5 8/8/8
f 9/9/9 6/7/7 10/10/10
f 6/7/7 9/9/9 7/6/6
f 11/11/11 2/3/3 12/12/12
f 2/3/3 11/11/11 3/2/2
f 13/13/13 10/10/10 14/14/14
f 10/10/10 13/13/13 9/9/9
f 15/15/15 12/12/12 13/13/13
f 12/12/12 15/15/15 11/11/11
f 16/16/16 17/17/17 14/14/14
f 17/17/17 18/19/19 19/18/18
f 19/18/18 13/13/13 17/17/17
f 13/13/13 19/18/18 15/15/15
f 13/13/13 14/14/14 17/17/17
f 20/20/20 21/22/22 22/21/21
f 21/22/22 20/20/20 23/23/23
f 23/23/23 24/24/24 21/22/22
f 24/24/24 23/23/23 25/25/25
f 26/26/26 3/2/2 27/27/27
f 3/2/2 26/26/26 1/1/1
f 28/28/28 29/30/30 30/29/29
f 29/30/30 28/28/28 31/31/31
f 31/31/31 28/28/28 32/32/32
f 15/15/15 24/24/24 25/25/25
f 24/24/24 15/15/15 19/18/18
f 33/33/33 15/15/15 25/25/25
f 15/15/15 33/33/33 11/11/11
f 27/27/27 11/11/11 33/33/33
f 11/11/11 27/27/27 3/2/2
f 34/34/34 35/35/35 31/31/31
f 35/35/35 34/34/34 36/36/36
f 37/37/37 38/39/39 39/38/38
f 38/39/39 37/37/37 19/18/18
f 24/24/24 37/37/37 40/40/40
f 37/37/37 24/24/24 19/18/18
f 21/22/22 40/40/40 41/41/41
f 40/40/40 21/22/22 24/24/24
f 21/22/22 41/41/41 22/21/21
f 42/42/42 37/37/37 43/43/43
f 37/37/37 42/42/42 40/40/40
f 44/44/44 40/40/40 42/42/42
f 40/40/40 44/44/44 41/41/41
f 45/45/45 43/43/43 46/46/46
f 43/43/43 45/45/45 42/42/42
f 47/47/47 42/42/42 45/45/45
f 42/42/42 47/47/47 44/44/44
f 39/38/38 43/43/43 37/37/37
f 43/43/43 39/38/38 46/46/46
f 31/31/31 32/32/32 34/34/34
f 48/48/48 38/39/39 49/49/49
f 38/39/39 48/48/48 39/38/38
f 50/50/50 39/38/38 48/48/48
f 39/38/38 50/50/50 46/46/46
f 51/51/51 46/46/46 50/50/50
f 46/46/46 51/51/51 45/45/45
f 52/52/52 45/45/45 51/51/51
f 45/45/45 52/52/52 47/47/47
f 53/53/53 49/49/49 54/54/54
f 49/49/49 53/53/53 48/48/48
f 55/55/55 48/48/48 53/53/53
f 48/48/48 55/55/55 50/50/50
f 56/56/56 50/50/50 55/55/55
f 50/50/50 56/56/56 51/51/51
f 57/57/57 51/51/51 56/56/56
f 51/51/51 57/57/57 52/52/52
f 58/58/58 59/60/60 60/59/59
f 59/60/60 58/58/58 61/61/61
f 19/18/18 18/19/19 38/39/39
f 49/49/49 62/62/62 61/61/61
f 62/62/62 49/49/49 38/39/39
f 54/54/54 61/61/61 58/58/58
f 61/61/61 54/54/54 49/49/49
f 35/35/35 63/64/64 64/63/63
f 63/64/64 35/35/35 36/36/36
f 38/39/39 18/19/19 62/62/62
f 16/16/16 18/19/19 17/17/17
f 18/19/19 16/16/16 62/62/62
f 34/34/34 54/54/54 36/36/36
f 54/54/54 34/34/34 53/53/53
f 32/32/32 53/53/53 34/34/34
f 53/53/53 32/32/32 55/55/55
f 28/28/28 55/55/55 32/32/32
f 55/55/55 28/28/28 56/56/56
f 30/29/29 56/56/56 28/28/28
f 56/56/56 30/29/29 57/57/57
f 58/58/58 64/65/63 63/64/64
f 64/65/63 58/58/58 60/59/59
f 36/36/36 58/58/58 63/64/64
f 58/58/58 36/36/36 54/54/54
f 65/66/65 60/59/59 66/67/66
f 60/59/59 65/66/65 64/65/63
f 67/68/67 64/63/63 65/69/65
f 64/63/63 67/68/67 35/35/35
f 29/30/30 35/35/35 67/68/67
f 35/35/35 29/30/30 31/31/31
f 5/5/5 2/3/3 4/4/4
f 2/3/3 5/5/5 7/6/6
f 12/12/12 7/6/6 9/9/9
f 7/6/6 12/12/12 2/3/3
f 9/9/9 13/13/13 12/12/12
f 61/61/61 68/70/68 59/60/60
f 68/70/68 61/61/61 62/62/62
f 16/16/16 68/70/68 62/62/62
f 20/20/20 27/27/27 23/23/23
f 27/27/27 20/20/20 26/26/26
f 23/23/23 33/33/33 25/25/25
f 33/33/33 23/23/23 27/27/27
f 1/1/1 69/71/69 4/4/4
f 69/71/69 1/1/1 70/72/70
f 5/5/5 71/73/71 8/8/8
f 71/73/71 5/5/5 72/74/72
f 73/75/73 71/73/71 72/74/72
f 71/73/71 73/75/73 74/76/74
f 75/77/75 69/71/69 70/72/70
f 69/71/69 75/77/75 76/78/76
f 77/79/77 74/76/74 73/75/73
f 74/76/74 77/79/77 78/80/78
f 79/81/79 76/78/76 75/77/75
f 76/78/76 79/81/79 77/79/77
f 80/82/80 78/80/78 81/83/81
f 81/83/81 82/85/83 83/84/82
f 77/79/77 82/85/83 81/83/81
f 82/85/83 77/79/77 79/81/79
f 77/79/77 81/83/81 78/80/78
f 20/20/20 84/87/85 85/86/84
f 84/87/85 20/20/20 22/21/21
f 85/86/84 86/89/87 87/88/86
f 86/89/87 85/86/84 84/87/85
f 26/26/26 70/72/70 1/1/1
f 70/72/70 26/26/26 88/90/88
f 89/91/89 29/93/30 90/92/90
f 29/93/30 89/91/89 30/29/29
f 90/92/90 91/94/91 89/91/89
f 86/89/87 79/81/79 87/88/86
f 79/81/79 86/89/87 82/85/83
f 92/95/92 79/81/79 75/77/75
f 79/81/79 92/95/92 87/88/86
f 88/90/88 75/77/75 70/72/70
f 75/77/75 88/90/88 92/95/92
f 93/96/93 94/98/95 95/97/94
f 94/98/95 93/96/93 90/92/90
f 96/99/96 97/100/97 82/85/83
f 97/100/97 96/99/96 98/101/98
f 86/89/87 96/99/96 82/85/83
f 96/99/96 86/89/87 99/102/99
f 84/87/85 99/102/99 86/89/87
f 99/102/99 84/87/85 41/41/41
f 84/87/85 22/21/21 41/41/41
f 100/103/100 96/99/96 99/102/99
f 96/99/96 100/103/100 101/104/101
f 44/44/44 99/102/99 41/41/41
f 99/102/99 44/44/44 100/103/100
f 102/105/102 101/104/101 100/103/100
f 101/104/101 102/105/102 103/106/103
f 47/47/47 100/103/100 44/44/44
f 100/103/100 47/47/47 102/105/102
f 98/101/98 101/104/101 103/106/103
f 101/104/101 98/101/98 96/99/96
f 90/92/90 93/96/93 91/94/91
f 104/107/104 97/100/97 98/101/98
f 97/100/97 104/107/104 105/108/105
f 106/109/106 98/101/98 103/106/103
f 98/101/98 106/109/106 104/107/104
f 107/110/107 103/106/103 102/105/102
f 103/106/103 107/110/107 106/109/106
f 52/52/52 102/105/102 47/47/47
f 102/105/102 52/52/52 107/110/107
f 108/111/108 105/108/105 104/107/104
f 105/108/105 108/111/108 109/112/109
f 110/113/110 104/107/104 106/109/106
f 104/107/104 110/113/110 108/111/108
f 111/114/111 106/109/106 107/110/107
f 106/109/106 111/114/111 110/113/110
f 57/57/57 107/110/107 52/52/52
f 107/110/107 57/57/57 111/114/111
f 112/115/112 113/117/114 114/116/113
f 113/117/114 112/115/112 115/118/115
f 82/85/83 97/100/97 83/84/82
f 105/108/105 116/119/116 97/100/97
f 116/119/116 105/108/105 114/116/113
f 109/112/109 114/116/113 105/108/105
f 114/116/113 109/112/109 112/115/112
f 94/98/95 117/120/117 95/97/94
f 117/120/117 94/98/95 118/121/118
f 97/100/97 116/119/116 83/84/82
f 80/82/80 83/84/82 116/119/116
f 83/84/82 80/82/80 81/83/81
f 93/96/93 109/112/109 108/111/108
f 109/112/109 93/96/93 95/97/94
f 91/94/91 108/111/108 110/113/110
f 108/111/108 91/94/91 93/96/93
f 89/91/89 110/113/110 111/114/111
f 110/113/110 89/91/89 91/94/91
f 30/29/29 111/114/111 57/57/57
f 111/114/111 30/29/29 89/91/89
f 112/115/112 118/122/118 115/118/115
f 118/122/118 112/115/112 117/120/117
f 95/97/94 112/115/112 109/112/109
f 112/115/112 95/97/94 117/120/117
f 65/123/65 115/118/115 118/122/118
f 115/118/115 65/123/65 66/124/66
f 67/125/67 118/121/118 94/98/95
f 118/121/118 67/125/67 65/126/65
f 29/93/30 94/98/95 90/92/90
f 94/98/95 29/93/30 67/125/67
f 5/5/5 69/71/69 72/74/72
f 69/71/69 5/5/5 4/4/4
f 76/78/76 72/74/72 69/71/69
f 72/74/72 76/78/76 73/75/73
f 73/75/73 76/78/76 77/79/77
f 114/116/113 119/127/119 116/119/116
f 119/127/119 114/116/113 113/117/114
f 80/82/80 116/119/116 119/127/119
f 20/20/20 88/90/88 26/26/26
f 88/90/88 20/20/20 85/86/84
f 85/86/84 92/95/92 88/90/88
f 92/95/92 85/86/84 87/88/86
