# Wavefront OBJ
# Created by fragMOTION 1.3.7
# http://www.fragmosoft.com

mtllib Kate_Hair_BobCurly.mtl
# 76 vertices
v 0.0025745 0.956359 -0.0416724
v 0.0183325 0.954785 -0.0694043
v 0.00257445 0.956417 -0.0731133
v 0.0254225 0.949695 -0.0530682
v 0.0340905 0.959363 -0.0421775
v 0.0298685 0.962431 -0.0239287
v 0.0183325 0.963942 -0.0149418
v 0.00257456 0.95473 -0.00699632
v 0.0298684 0.927405 -0.0931015
v 0.00257441 0.925981 -0.101572
v 0.0385125 0.93237 -0.0635769
v 0.0557875 0.93546 -0.0451999
v 0.0532956 0.944711 -0.00721102
v 0.0347286 0.947538 0.009602
v 0.00257461 0.946177 0.0185394
v 0.0340904 0.898187 -0.0968983
v 0.00257442 0.895617 -0.106522
v 0.0504225 0.903286 -0.0761951
v 0.0766425 0.893877 -0.0418923
v 0.0760536 0.91129 0.00112294
v 0.0480436 0.915097 0.0237651
v 0.00257465 0.916742 0.0335459
v 0.0298684 0.892646 -0.0943532
v 0.00257443 0.890296 -0.102668
v 0.0431085 0.89758 -0.0746233
v 0.0535575 0.854698 -0.0709227
v 0.0701566 0.864932 -0.00149749
v 0.0455257 0.869603 0.0262826
v 0.00257467 0.871222 0.0359115
v 0.0509655 0.829184 -0.0556861
v 0.0827456 0.834209 -0.0115321
v 0.0513937 0.841869 0.0365564
v 0.00257471 0.844208 0.0504672
v 0.0352365 0.809207 -0.0588505
v 0.0594126 0.804837 -0.0233128
v 0.0425547 0.8159 0.0285902
v 0.0025747 0.817324 0.0370604
v 0.0384715 0.894751 -0.0719004
v 0.0464145 0.85725 -0.0557447
v 0.0392756 0.830575 -0.0474132
v 0.0280935 0.809207 -0.0588505
v 0.0331716 0.804837 -0.0233128
v 0.0272077 0.813369 0.0135385
v 0.00257467 0.813912 0.0167662
v -0.0131835 0.954785 -0.0694043
v -0.0202735 0.949695 -0.0530682
v -0.0289415 0.959363 -0.0421774
v -0.0247195 0.962431 -0.0239286
v -0.0131835 0.963942 -0.0149418
v -0.0247196 0.927405 -0.0931014
v -0.0333635 0.93237 -0.0635768
v -0.0506385 0.935459 -0.0451998
v -0.0481464 0.944711 -0.00721089
v -0.0295794 0.947538 0.00960208
v -0.0289416 0.898187 -0.0968982
v -0.0452735 0.903286 -0.076195
v -0.0714935 0.893877 -0.0418921
v -0.0709044 0.91129 0.00112313
v -0.0428944 0.915097 0.0237653
v -0.0247196 0.892646 -0.0943531
v -0.0379595 0.89758 -0.0746232
v -0.0484085 0.854698 -0.0709225
v -0.0650074 0.864932 -0.00149732
v -0.0403763 0.869603 0.0262827
v -0.0458165 0.829184 -0.0556859
v -0.0775964 0.834208 -0.0115319
v -0.0462443 0.841869 0.0365565
v -0.0300875 0.809207 -0.0588504
v -0.0542634 0.804836 -0.0233127
v -0.0374053 0.8159 0.0285903
v -0.0333225 0.894751 -0.0719003
v -0.0412655 0.85725 -0.0557446
v -0.0341264 0.830575 -0.0474131
v -0.0229445 0.809207 -0.0588504
v -0.0280224 0.804836 -0.0233127
v -0.0220583 0.813369 0.0135386
# 86 texture vertices
vt 0.49563 -0.436523
vt 0.494136 -0.346458
vt 0.537494 -0.35021
vt 0.575975 -0.384209
vt 0.384444 -0.391748
vt 0.286306 -0.41651
vt 0.31593 -0.438433
vt 0.369404 -0.450122
vt 0.41913 -0.447261
vt 0.494128 -0.446948
vt 0.565623 -0.244482
vt 0.49217 -0.227854
vt 0.624769 -0.310074
vt 0.243301 -0.482023
vt 0.19604 -0.44938
vt 0.34493 -0.505351
vt 0.409518 -0.505491
vt 0.493189 -0.505072
vt 0.587493 -0.162951
vt 0.49073 -0.140778
vt 0.655287 -0.205269
vt 0.189486 -0.565792
vt 0.101187 -0.515585
vt 0.301145 -0.567951
vt 0.381203 -0.570474
vt 0.492146 -0.569555
vt 0.585027 -0.142209
vt 0.490445 -0.123553
vt 0.6548 -0.175378
vt 0.065271 -0.628017
vt 0.068616 -0.541596
vt 0.266905 -0.642648
vt 0.373018 -0.651047
vt 0.490784 -0.653727
vt 0.084889 -0.691278
vt 0.227992 -0.686868
vt 0.367725 -0.703062
vt 0.489884 -0.709047
vt 0.077767 -0.746493
vt 0.200534 -0.746016
vt 0.363444 -0.752745
vt 0.489002 -0.763432
vt 0.051024 -0.550621
vt 0.025505 -0.635193
vt 0.044795 -0.699819
vt 0.071393 -0.756632
vt 0.198298 -0.789002
vt 0.362266 -0.788196
vt 0.488412 -0.799985
vt 0.450925 -0.351647
vt 0.413591 -0.386903
vt 0.605572 -0.393285
vt 0.672574 -0.44092
vt 0.702903 -0.419418
vt 0.61873 -0.451856
vt 0.569102 -0.448301
vt 0.419306 -0.246911
vt 0.362356 -0.314419
vt 0.743788 -0.485524
vt 0.7921 -0.453559
vt 0.641419 -0.507413
vt 0.576832 -0.506651
vt 0.394757 -0.166157
vt 0.328375 -0.210655
vt 0.794882 -0.570043
vt 0.884801 -0.521109
vt 0.683174 -0.570605
vt 0.603039 -0.572008
vt 0.396548 -0.14535
vt 0.327885 -0.180746
vt 0.917051 -0.634061
vt 0.916527 -0.547599
vt 0.714993 -0.645743
vt 0.608616 -0.652666
vt 0.752409 -0.690512
vt 0.895332 -0.697029
vt 0.6122 -0.704742
vt 0.777939 -0.750059
vt 0.900648 -0.752318
vt 0.614866 -0.754485
vt 0.93382 -0.556878
vt 0.956566 -0.641796
vt 0.935144 -0.706132
vt 0.906693 -0.762546
vt 0.778765 -0.793075
vt 0.614894 -0.789952
# 75 normals
vn -7.42233e-007 0.989056 -0.147538
vn -1.16755e-006 0.905769 -0.423772
vn 0.425075 0.859776 -0.283012
vn 0.419146 0.817069 -0.395873
vn 0.341738 0.842011 -0.417412
vn 0.285335 0.958294 0.0160189
vn -0.0570402 0.98496 0.163093
vn -9.79781e-008 0.973409 0.229073
vn 0.544124 0.461647 -0.700579
vn -1.74422e-006 0.415577 -0.909558
vn 0.705066 0.560266 -0.434723
vn 0.739019 0.523989 -0.423422
vn 0.681419 0.68992 0.24429
vn 0.354834 0.696325 0.623879
vn 9.03881e-007 0.678223 0.734856
vn 0.603722 -0.271091 -0.749686
vn -1.52738e-006 -0.232941 -0.972491
vn 0.755784 0.0825619 -0.649595
vn 0.954779 0.0388192 -0.294771
vn 0.896083 0.253103 0.364655
vn 0.449901 0.276449 0.849214
vn 1.50169e-006 0.260603 0.965446
vn 0.467022 -0.636842 -0.613451
vn -1.07616e-006 -0.586697 -0.809806
vn 0.0957417 -0.481306 -0.871308
vn 0.10257 -0.504132 -0.857514
vn 0.95301 -0.0216626 0.302162
vn 0.512695 0.170953 0.841379
vn 1.50788e-006 0.254081 0.967183
vn 0.356142 -0.184945 -0.915947
vn 0.99322 -0.115731 -0.010999
vn 0.610071 -0.0205627 0.79208
vn 1.66811e-006 0.0409955 0.999159
vn 0.185728 -0.480269 -0.857232
vn 0.542929 -0.834718 -0.0920501
vn 0.40921 -0.723701 0.555702
vn 1.45961e-006 -0.771547 0.636173
vn -0.522219 -0.216826 -0.824787
vn -0.861557 -0.227753 -0.453705
vn -0.503646 0.239389 -0.830081
vn -1.05435e-006 -0.599209 -0.800592
vn -0.00511743 -0.998954 0.0454485
vn -0.0259822 -0.981155 0.191466
vn 7.71674e-007 -0.986157 0.165814
vn -0.425077 0.859776 -0.283011
vn -0.419148 0.817068 -0.395872
vn -0.34174 0.842011 -0.417411
vn -0.285336 0.958293 0.0160198
vn 0.0570398 0.98496 0.163092
vn -0.544126 0.461647 -0.700578
vn -0.705068 0.560266 -0.43472
vn -0.739021 0.523988 -0.42342
vn -0.681419 0.68992 0.244292
vn -0.354832 0.696324 0.62388
vn -0.603724 -0.271092 -0.749685
vn -0.755786 0.0825611 -0.649593
vn -0.954781 0.0388184 -0.294767
vn -0.896082 0.253102 0.364658
vn -0.449899 0.276449 0.849216
vn -0.467024 -0.636842 -0.61345
vn -0.0957442 -0.481306 -0.871308
vn -0.102573 -0.504132 -0.857513
vn -0.953009 -0.0216635 0.302165
vn -0.512693 0.170952 0.841381
vn -0.99322 -0.115732 -0.0109957
vn -0.356145 -0.184945 -0.915946
vn -0.610068 -0.0205633 0.792082
vn -0.542929 -0.834719 -0.0920483
vn -0.18573 -0.480269 -0.857231
vn -0.409207 -0.723701 0.555704
vn 0.522217 -0.216825 -0.824789
vn 0.861556 -0.227752 -0.453708
vn 0.503642 0.239389 -0.830083
vn 0.00511857 -0.998954 0.0454485
vn 0.0259838 -0.981155 0.191466
usemtl _02_-_Default
g Kate_Hair_BobCurly
s off
f 1/1/1 2/3/3 3/2/2
f 1/1/1 4/4/4 2/3/3
f 1/5/1 5/7/5 4/6/4
f 1/5/1 6/8/6 5/7/5
f 1/5/1 7/9/7 6/8/6
f 1/5/1 8/10/8 7/9/7
f 9/11/9 3/2/2 2/3/3
f 3/2/2 9/11/9 10/12/10
f 11/13/11 2/3/3 4/4/4
f 2/3/3 11/13/11 9/11/9
f 12/14/12 4/6/4 5/7/5
f 4/6/4 12/14/12 11/15/11
f 13/16/13 5/7/5 6/8/6
f 5/7/5 13/16/13 12/14/12
f 14/17/14 6/8/6 7/9/7
f 6/8/6 14/17/14 13/16/13
f 15/18/15 7/9/7 8/10/8
f 7/9/7 15/18/15 14/17/14
f 16/19/16 10/12/10 9/11/9
f 10/12/10 16/19/16 17/20/17
f 18/21/18 9/11/9 11/13/11
f 9/11/9 18/21/18 16/19/16
f 19/22/19 11/15/11 12/14/12
f 11/15/11 19/22/19 18/23/18
f 20/24/20 12/14/12 13/16/13
f 12/14/12 20/24/20 19/22/19
f 21/25/21 13/16/13 14/17/14
f 13/16/13 21/25/21 20/24/20
f 22/26/22 14/17/14 15/18/15
f 14/17/14 22/26/22 21/25/21
f 23/27/23 17/20/17 16/19/16
f 17/20/17 23/27/23 24/28/24
f 25/29/25 16/19/16 18/21/18
f 16/19/16 25/29/25 23/27/23
f 26/30/26 18/23/18 19/22/19
f 18/23/18 26/30/26 25/31/25
f 27/32/27 19/22/19 20/24/20
f 19/22/19 27/32/27 26/30/26
f 28/33/28 20/24/20 21/25/21
f 20/24/20 28/33/28 27/32/27
f 29/34/29 21/25/21 22/26/22
f 21/25/21 29/34/29 28/33/28
f 27/32/27 30/35/30 26/30/26
f 30/35/30 27/32/27 31/36/31
f 28/33/28 31/36/31 27/32/27
f 31/36/31 28/33/28 32/37/32
f 29/34/29 32/37/32 28/33/28
f 32/37/32 29/34/29 33/38/33
f 31/36/31 34/39/34 30/35/30
f 34/39/34 31/36/31 35/40/35
f 32/37/32 35/40/35 31/36/31
f 35/40/35 32/37/32 36/41/36
f 33/38/33 36/41/36 32/37/32
f 36/41/36 33/38/33 37/42/37
f 38/43/38 26/30/26 39/44/39
f 26/30/26 38/43/38 25/31/25
f 30/35/30 39/44/39 26/30/26
f 39/44/39 30/35/30 40/45/40
f 34/39/34 40/45/40 30/35/30
f 40/45/40 34/39/34 41/46/41
f 35/40/35 41/46/41 34/39/34
f 41/46/41 35/40/35 42/47/42
f 36/41/36 42/47/42 35/40/35
f 42/47/42 36/41/36 43/48/43
f 37/42/37 43/48/43 36/41/36
f 43/48/43 37/42/37 44/49/44
f 1/1/1 3/2/2 45/50/45
f 1/1/1 45/50/45 46/51/46
f 1/52/1 46/54/46 47/53/47
f 1/52/1 47/53/47 48/55/48
f 1/52/1 48/55/48 49/56/49
f 1/52/1 49/56/49 8/10/8
f 50/57/50 3/2/2 10/12/10
f 3/2/2 50/57/50 45/50/45
f 51/58/51 45/50/45 50/57/50
f 45/50/45 51/58/51 46/51/46
f 52/59/52 46/54/46 51/60/51
f 46/54/46 52/59/52 47/53/47
f 53/61/53 47/53/47 52/59/52
f 47/53/47 53/61/53 48/55/48
f 54/62/54 48/55/48 53/61/53
f 48/55/48 54/62/54 49/56/49
f 15/18/15 49/56/49 54/62/54
f 49/56/49 15/18/15 8/10/8
f 55/63/55 10/12/10 17/20/17
f 10/12/10 55/63/55 50/57/50
f 56/64/56 50/57/50 55/63/55
f 50/57/50 56/64/56 51/58/51
f 57/65/57 51/60/51 56/66/56
f 51/60/51 57/65/57 52/59/52
f 58/67/58 52/59/52 57/65/57
f 52/59/52 58/67/58 53/61/53
f 59/68/59 53/61/53 58/67/58
f 53/61/53 59/68/59 54/62/54
f 22/26/22 54/62/54 59/68/59
f 54/62/54 22/26/22 15/18/15
f 60/69/60 17/20/17 24/28/24
f 17/20/17 60/69/60 55/63/55
f 61/70/61 55/63/55 60/69/60
f 55/63/55 61/70/61 56/64/56
f 62/71/62 56/66/56 61/72/61
f 56/66/56 62/71/62 57/65/57
f 63/73/63 57/65/57 62/71/62
f 57/65/57 63/73/63 58/67/58
f 64/74/64 58/67/58 63/73/63
f 58/67/58 64/74/64 59/68/59
f 29/34/29 59/68/59 64/74/64
f 59/68/59 29/34/29 22/26/22
f 63/73/63 65/76/66 66/75/65
f 65/76/66 63/73/63 62/71/62
f 64/74/64 66/75/65 67/77/67
f 66/75/65 64/74/64 63/73/63
f 29/34/29 67/77/67 33/38/33
f 67/77/67 29/34/29 64/74/64
f 66/75/65 68/79/69 69/78/68
f 68/79/69 66/75/65 65/76/66
f 67/77/67 69/78/68 70/80/70
f 69/78/68 67/77/67 66/75/65
f 33/38/33 70/80/70 37/42/37
f 70/80/70 33/38/33 67/77/67
f 71/81/71 62/71/62 61/72/61
f 62/71/62 71/81/71 72/82/72
f 65/76/66 72/82/72 73/83/73
f 72/82/72 65/76/66 62/71/62
f 68/79/69 73/83/73 74/84/41
f 73/83/73 68/79/69 65/76/66
f 69/78/68 74/84/41 75/85/74
f 74/84/41 69/78/68 68/79/69
f 70/80/70 75/85/74 76/86/75
f 75/85/74 70/80/70 69/78/68
f 37/42/37 76/86/75 44/49/44
f 76/86/75 37/42/37 70/80/70
