# Wavefront OBJ
# Created by fragMOTION 1.3.7
# http://www.fragmosoft.com

mtllib Kate_Hair_Bun.mtl
# 52 vertices
v 0.00257451 0.948732 0.00817996
v -0.0256455 0.92926 0.029939
v 0.00257457 0.924396 0.0429791
v -0.0373355 0.940619 0.00478021
v -0.0256455 0.951947 -0.0274624
v 0.00257444 0.956811 -0.0405025
v 0.0307945 0.951947 -0.0274625
v 0.0424845 0.940619 0.00478008
v 0.0307955 0.92926 0.029939
v -0.0412824 0.895169 0.0324556
v 0.00257459 0.887745 0.0527606
v -0.0594485 0.90818 -0.00464541
v -0.0412826 0.927935 -0.059617
v 0.00257438 0.935358 -0.079922
v 0.0464314 0.927935 -0.0596171
v 0.0645975 0.90818 -0.00464562
v 0.0464316 0.895169 0.0324555
v -0.0330595 0.843943 0.016739
v 0.00257456 0.832138 0.02791
v -0.0540035 0.889901 -0.00988902
v -0.0390016 0.912217 -0.0671085
v 0.00257438 0.916311 -0.0849726
v 0.0441504 0.912217 -0.0671086
v 0.0591525 0.889901 -0.00988921
v 0.0382085 0.843943 0.0167389
v 0.00257452 0.834719 2.50475e-005
v 0.00257455 0.966243 0.0375997
v -0.0153834 0.952177 0.050161
v 0.00257458 0.948407 0.0565728
v -0.0228215 0.961279 0.0346804
v -0.0153835 0.970381 0.0192008
v 0.00257451 0.974151 0.0127889
v 0.0205325 0.970381 0.0192008
v 0.0279706 0.961279 0.0346803
v 0.0205326 0.952177 0.0501609
v -0.0228214 0.936422 0.0495256
v 0.00257459 0.93109 0.0585931
v -0.0333405 0.949295 0.0276341
v -0.0228215 0.962167 0.0057416
v 0.00257449 0.967498 -0.00332596
v 0.0279705 0.962167 0.00574152
v 0.0384895 0.949295 0.0276339
v 0.0279706 0.936422 0.0495256
v -0.0153834 0.928207 0.0360664
v 0.00257457 0.924437 0.0424782
v -0.0228215 0.937309 0.0205868
v -0.0153835 0.946412 0.00510725
v 0.0025745 0.950182 -0.00130466
v 0.0205325 0.946412 0.00510719
v 0.0279705 0.937309 0.0205867
v 0.0205326 0.928207 0.0360663
v 0.00257453 0.932346 0.0176674
# 86 texture vertices
vt 0.15446 -0.009317
vt 0.106816 -0.070633
vt 0.201529 -0.070633
vt 0.248599 -0.009317
vt 0.298539 -0.070633
vt 0.348479 -0.009317
vt 0.397844 -0.070633
vt 0.44721 -0.009317
vt 0.493781 -0.070633
vt 0.540352 -0.009317
vt 0.587336 -0.070633
vt 0.63432 -0.009317
vt 0.682924 -0.070633
vt 0.731528 -0.009317
vt 0.775117 -0.070633
vt 0.059172 -0.009317
vt 0.015582 -0.070633
vt 0.201529 -0.221266
vt 0.106816 -0.221266
vt 0.298539 -0.221266
vt 0.397844 -0.221266
vt 0.493781 -0.221266
vt 0.587336 -0.221266
vt 0.682924 -0.221266
vt 0.775117 -0.221266
vt 0.015582 -0.221266
vt 0.201529 -0.329206
vt 0.106816 -0.329206
vt 0.298539 -0.329206
vt 0.397844 -0.329206
vt 0.493781 -0.329206
vt 0.587336 -0.329206
vt 0.682924 -0.329206
vt 0.775117 -0.329206
vt 0.015582 -0.329206
vt 0.15446 -0.351482
vt 0.248599 -0.351482
vt 0.348479 -0.351482
vt 0.44721 -0.351482
vt 0.540352 -0.351482
vt 0.63432 -0.351482
vt 0.731528 -0.351482
vt 0.059172 -0.351482
vt 0.33511 -0.379826
vt 0.304393 -0.437445
vt 0.377017 -0.437445
vt 0.408868 -0.379826
vt 0.448556 -0.437445
vt 0.478188 -0.379826
vt 0.519293 -0.437445
vt 0.550342 -0.379826
vt 0.587228 -0.437445
vt 0.049461 -0.379826
vt 0.02263 -0.437445
vt 0.090459 -0.437445
vt 0.121402 -0.379826
vt 0.162515 -0.437445
vt 0.193573 -0.379826
vt 0.233624 -0.437445
vt 0.26362 -0.379826
vt 0.377017 -0.506259
vt 0.304393 -0.506259
vt 0.448556 -0.506259
vt 0.519293 -0.506259
vt 0.587228 -0.506259
vt 0.090459 -0.506259
vt 0.02263 -0.506259
vt 0.162515 -0.506259
vt 0.233624 -0.506259
vt 0.377017 -0.575073
vt 0.304393 -0.575073
vt 0.448556 -0.575073
vt 0.519293 -0.575073
vt 0.587228 -0.575073
vt 0.090459 -0.575073
vt 0.02263 -0.575073
vt 0.162515 -0.575073
vt 0.233624 -0.575073
vt 0.339988 -0.625447
vt 0.413746 -0.625447
vt 0.483066 -0.625447
vt 0.55522 -0.625447
vt 0.054339 -0.625447
vt 0.12628 -0.625447
vt 0.198452 -0.625447
vt 0.268498 -0.625447
# 52 normals
vn 3.8252e-007 0.924121 0.382101
vn -0.000330813 0.510464 0.859899
vn -0.445855 0.568629 0.691285
vn -0.611593 0.72773 0.310426
vn -0.45158 0.889086 -0.0748459
vn -0.000439563 0.970773 -0.24
vn 0.459778 0.885044 -0.0728088
vn 0.613823 0.72979 0.301044
vn 0.442162 0.569786 0.692702
vn -0.716905 -0.00786606 0.697127
vn 0.00624052 -0.0954087 0.995419
vn -0.986343 0.116766 0.116164
vn -0.729722 0.473046 -0.493694
vn -0.00908633 0.598855 -0.800806
vn 0.747042 0.463176 -0.476861
vn 0.987056 0.133328 0.0891339
vn 0.704256 -0.0106607 0.709866
vn -0.691623 -0.707458 0.145469
vn 0.00761597 -0.845068 0.534605
vn -0.878683 -0.453185 -0.150132
vn -0.639999 -0.229156 -0.733409
vn -0.0101534 -0.212443 -0.977121
vn 0.657982 -0.238396 -0.714302
vn 0.871293 -0.441725 -0.21384
vn 0.684757 -0.710458 0.162351
vn -4.83104e-007 -0.895524 -0.445013
vn 5.83118e-007 0.862024 0.506868
vn 1.3048e-006 0.389035 0.921223
vn -0.42209 0.477653 0.770511
vn -0.596926 0.691598 0.406659
vn -0.422091 0.905542 0.0428081
vn -3.69135e-007 0.994161 -0.107905
vn 0.422091 0.905542 0.0428068
vn 0.596927 0.691598 0.406657
vn 0.422092 0.477653 0.77051
vn -0.707106 -0.358411 0.609543
vn 1.40213e-006 -0.506868 0.862023
vn -1 -2.08035e-007 1.50424e-006
vn -0.707108 0.358411 -0.609541
vn -1.40213e-006 0.506869 -0.862023
vn 0.707106 0.358411 -0.609543
vn 1 4.22214e-008 -2.49039e-006
vn 0.707108 -0.358411 0.609541
vn -0.422091 -0.905542 -0.0428068
vn 3.69135e-007 -0.994161 0.107905
vn -0.596927 -0.691598 -0.406658
vn -0.422092 -0.477653 -0.77051
vn -1.3048e-006 -0.389035 -0.921223
vn 0.42209 -0.477652 -0.770512
vn 0.596925 -0.691598 -0.40666
vn 0.422091 -0.905542 -0.0428081
vn -5.8312e-007 -0.862023 -0.50687
usemtl _08_-_Default
g Kate_Hair_Bun
s off
f 1/1/1 2/3/3 3/2/2
f 1/4/1 4/5/4 2/3/3
f 1/6/1 5/7/5 4/5/4
f 1/8/1 6/9/6 5/7/5
f 1/10/1 7/11/7 6/9/6
f 1/12/1 8/13/8 7/11/7
f 1/14/1 9/15/9 8/13/8
f 1/16/1 3/2/2 9/17/9
f 10/18/10 3/2/2 2/3/3
f 3/2/2 10/18/10 11/19/11
f 12/20/12 2/3/3 4/5/4
f 2/3/3 12/20/12 10/18/10
f 13/21/13 4/5/4 5/7/5
f 4/5/4 13/21/13 12/20/12
f 14/22/14 5/7/5 6/9/6
f 5/7/5 14/22/14 13/21/13
f 15/23/15 6/9/6 7/11/7
f 6/9/6 15/23/15 14/22/14
f 16/24/16 7/11/7 8/13/8
f 7/11/7 16/24/16 15/23/15
f 17/25/17 8/13/8 9/15/9
f 8/13/8 17/25/17 16/24/16
f 11/19/11 9/17/9 3/2/2
f 9/17/9 11/19/11 17/26/17
f 18/27/18 11/19/11 10/18/10
f 11/19/11 18/27/18 19/28/19
f 20/29/20 10/18/10 12/20/12
f 10/18/10 20/29/20 18/27/18
f 21/30/21 12/20/12 13/21/13
f 12/20/12 21/30/21 20/29/20
f 22/31/22 13/21/13 14/22/14
f 13/21/13 22/31/22 21/30/21
f 23/32/23 14/22/14 15/23/15
f 14/22/14 23/32/23 22/31/22
f 24/33/24 15/23/15 16/24/16
f 15/23/15 24/33/24 23/32/23
f 25/34/25 16/24/16 17/25/17
f 16/24/16 25/34/25 24/33/24
f 19/28/19 17/26/17 11/19/11
f 17/26/17 19/28/19 25/35/25
f 26/36/26 19/28/19 18/27/18
f 26/37/26 18/27/18 20/29/20
f 26/38/26 20/29/20 21/30/21
f 26/39/26 21/30/21 22/31/22
f 26/40/26 22/31/22 23/32/23
f 26/41/26 23/32/23 24/33/24
f 26/42/26 24/33/24 25/34/25
f 26/43/26 25/35/25 19/28/19
f 27/44/27 28/46/29 29/45/28
f 27/47/27 30/48/30 28/46/29
f 27/49/27 31/50/31 30/48/30
f 27/51/27 32/52/32 31/50/31
f 27/53/27 33/55/33 32/54/32
f 27/56/27 34/57/34 33/55/33
f 27/58/27 35/59/35 34/57/34
f 27/60/27 29/45/28 35/59/35
f 36/61/36 29/45/28 28/46/29
f 29/45/28 36/61/36 37/62/37
f 38/63/38 28/46/29 30/48/30
f 28/46/29 38/63/38 36/61/36
f 39/64/39 30/48/30 31/50/31
f 30/48/30 39/64/39 38/63/38
f 40/65/40 31/50/31 32/52/32
f 31/50/31 40/65/40 39/64/39
f 41/66/41 32/54/32 33/55/33
f 32/54/32 41/66/41 40/67/40
f 42/68/42 33/55/33 34/57/34
f 33/55/33 42/68/42 41/66/41
f 43/69/43 34/57/34 35/59/35
f 34/57/34 43/69/43 42/68/42
f 37/62/37 35/59/35 29/45/28
f 35/59/35 37/62/37 43/69/43
f 44/70/44 37/62/37 36/61/36
f 37/62/37 44/70/44 45/71/45
f 46/72/46 36/61/36 38/63/38
f 36/61/36 46/72/46 44/70/44
f 47/73/47 38/63/38 39/64/39
f 38/63/38 47/73/47 46/72/46
f 48/74/48 39/64/39 40/65/40
f 39/64/39 48/74/48 47/73/47
f 49/75/49 40/67/40 41/66/41
f 40/67/40 49/75/49 48/76/48
f 50/77/50 41/66/41 42/68/42
f 41/66/41 50/77/50 49/75/49
f 51/78/51 42/68/42 43/69/43
f 42/68/42 51/78/51 50/77/50
f 45/71/45 43/69/43 37/62/37
f 43/69/43 45/71/45 51/78/51
f 52/79/52 45/71/45 44/70/44
f 52/80/52 44/70/44 46/72/46
f 52/81/52 46/72/46 47/73/47
f 52/82/52 47/73/47 48/74/48
f 52/83/52 48/76/48 49/75/49
f 52/84/52 49/75/49 50/77/50
f 52/85/52 50/77/50 51/78/51
f 52/86/52 51/78/51 45/71/45
