# Wavefront OBJ
# Created by fragMOTION 1.3.7
# http://www.fragmosoft.com

mtllib Kate_Hair_Bob.mtl
# 76 vertices
v 0.00257445 0.957811 -0.0330208
v 0.0183324 0.956237 -0.0607527
v 0.0025744 0.95787 -0.0644618
v 0.0254224 0.951147 -0.0444167
v 0.0340904 0.960815 -0.0335259
v 0.0298685 0.963884 -0.0152771
v 0.0183325 0.965395 -0.00629022
v 0.0025745 0.956183 0.00165529
v 0.0298684 0.928858 -0.0844499
v 0.00257436 0.927434 -0.09292
v 0.0385124 0.933822 -0.0549254
v 0.0557875 0.936912 -0.0365484
v 0.0532955 0.946163 0.00144057
v 0.0347285 0.94899 0.0182536
v 0.00257454 0.947629 0.027191
v 0.0340904 0.89964 -0.0882468
v 0.00257436 0.89707 -0.0978707
v 0.0504224 0.904738 -0.0675436
v 0.0766425 0.89533 -0.0332407
v 0.0760535 0.912743 0.0097745
v 0.0480436 0.91655 0.0324167
v 0.00257457 0.918194 0.0421975
v 0.0298684 0.894098 -0.0857016
v 0.00257437 0.891749 -0.0940162
v 0.0431084 0.899033 -0.0659718
v 0.0535574 0.856151 -0.0622712
v 0.0701565 0.866384 0.00715406
v 0.0455256 0.871055 0.0349342
v 0.00257458 0.872674 0.0445631
v 0.0509655 0.830636 -0.0470345
v 0.0827455 0.835661 -0.00288056
v 0.0513936 0.843322 0.0452079
v 0.00257461 0.845661 0.0591188
v 0.0352365 0.81066 -0.050199
v 0.0594125 0.806289 -0.0146613
v 0.0425546 0.817352 0.0372418
v 0.00257459 0.818777 0.0457119
v 0.0384714 0.896203 -0.0632489
v 0.0464144 0.858703 -0.0470932
v 0.0392755 0.832027 -0.0387616
v 0.0280935 0.81066 -0.050199
v 0.0331715 0.806289 -0.0146613
v 0.0272076 0.814822 0.0221901
v 0.00257456 0.815364 0.0254178
v -0.0131836 0.956237 -0.0607527
v -0.0202736 0.951147 -0.0444166
v -0.0289416 0.960815 -0.0335258
v -0.0247195 0.963884 -0.015277
v -0.0131835 0.965395 -0.00629016
v -0.0247196 0.928858 -0.0844498
v -0.0333636 0.933822 -0.0549253
v -0.0506386 0.936912 -0.0365482
v -0.0481465 0.946163 0.00144074
v -0.0295795 0.94899 0.0182537
v -0.0289416 0.89964 -0.0882467
v -0.0452736 0.904738 -0.0675434
v -0.0714936 0.89533 -0.0332405
v -0.0709045 0.912742 0.00977475
v -0.0428945 0.91655 0.0324169
v -0.0247196 0.894098 -0.0857015
v -0.0379596 0.899033 -0.0659717
v -0.0484086 0.856151 -0.062271
v -0.0650075 0.866384 0.00715428
v -0.0403764 0.871055 0.0349343
v -0.0458166 0.830636 -0.0470344
v -0.0775965 0.835661 -0.00288029
v -0.0462444 0.843322 0.0452081
v -0.0300876 0.81066 -0.0501989
v -0.0542635 0.806289 -0.0146611
v -0.0374054 0.817352 0.0372419
v -0.0333226 0.896203 -0.0632488
v -0.0412656 0.858703 -0.047093
v -0.0341265 0.832027 -0.0387615
v -0.0229446 0.81066 -0.0501989
v -0.0280225 0.806289 -0.0146612
v -0.0220584 0.814822 0.0221901
# 86 texture vertices
vt 0.201452 -0.376537
vt 0.200026 -0.462503
vt 0.24141 -0.458921
vt 0.278139 -0.42647
vt 0.306841 -0.024427
vt 0.229321 -0.043986
vt 0.252722 -0.061303
vt 0.294961 -0.070536
vt 0.334239 -0.068276
vt 0.393481 -0.068029
vt 0.268258 -0.559837
vt 0.198149 -0.575708
vt 0.324713 -0.497231
vt 0.195352 -0.095734
vt 0.15802 -0.06995
vt 0.275628 -0.114161
vt 0.326647 -0.114273
vt 0.392739 -0.113941
vt 0.289133 -0.637657
vt 0.196775 -0.658821
vt 0.353842 -0.597265
vt 0.152843 -0.161904
vt 0.083095 -0.122246
vt 0.241043 -0.163609
vt 0.30428 -0.165602
vt 0.391915 -0.164877
vt 0.286779 -0.657455
vt 0.196503 -0.675262
vt 0.353377 -0.625795
vt 0.054725 -0.211056
vt 0.057368 -0.142792
vt 0.213997 -0.222613
vt 0.297816 -0.229248
vt 0.390839 -0.231365
vt 0.070222 -0.261026
vt 0.183259 -0.257543
vt 0.293634 -0.270335
vt 0.390128 -0.275062
vt 0.064596 -0.30464
vt 0.16157 -0.304264
vt 0.290253 -0.309579
vt 0.389432 -0.31802
vt 0.043471 -0.149921
vt 0.023314 -0.216724
vt 0.038551 -0.267773
vt 0.059561 -0.312649
vt 0.159804 -0.338218
vt 0.289322 -0.337582
vt 0.388965 -0.346894
vt 0.158782 -0.45755
vt 0.123147 -0.423899
vt 0.481511 -0.025641
vt 0.534436 -0.063267
vt 0.558393 -0.046283
vt 0.491904 -0.071905
vt 0.452703 -0.069098
vt 0.128602 -0.557519
vt 0.074244 -0.493083
vt 0.590688 -0.0985
vt 0.62885 -0.073251
vt 0.509827 -0.11579
vt 0.458809 -0.115188
vt 0.10517 -0.634597
vt 0.04181 -0.592124
vt 0.631047 -0.165262
vt 0.702074 -0.126609
vt 0.542809 -0.165706
vt 0.47951 -0.166814
vt 0.10688 -0.654457
vt 0.041342 -0.620672
vt 0.727549 -0.21583
vt 0.727135 -0.147533
vt 0.567943 -0.225058
vt 0.483915 -0.230526
vt 0.597498 -0.260421
vt 0.710393 -0.265569
vt 0.486747 -0.271661
vt 0.617664 -0.307457
vt 0.714592 -0.309241
vt 0.488852 -0.310954
vt 0.740795 -0.154863
vt 0.758762 -0.22194
vt 0.74184 -0.272759
vt 0.719368 -0.317321
vt 0.618317 -0.341436
vt 0.488874 -0.338969
# 75 normals
vn -4.27689e-007 0.989057 -0.147537
vn -8.25884e-007 0.905769 -0.423772
vn 0.425076 0.859776 -0.283012
vn 0.419146 0.817069 -0.395873
vn 0.341738 0.842011 -0.417411
vn 0.285336 0.958294 0.0160193
vn -0.0570399 0.984961 0.163093
vn 1.42077e-007 0.973409 0.229074
vn 0.544124 0.461647 -0.700579
vn -1.45464e-006 0.415577 -0.909558
vn 0.705066 0.560266 -0.434722
vn 0.739019 0.523989 -0.423422
vn 0.681419 0.68992 0.244291
vn 0.354834 0.696325 0.623879
vn 9.64303e-007 0.678223 0.734856
vn 0.603722 -0.271092 -0.749686
vn -1.4144e-006 -0.232941 -0.972491
vn 0.755784 0.0825615 -0.649595
vn 0.954779 0.0388188 -0.29477
vn 0.896083 0.253103 0.364656
vn 0.449901 0.276449 0.849214
vn 1.39804e-006 0.260604 0.965446
vn 0.467022 -0.636842 -0.613451
vn -1.09609e-006 -0.586697 -0.809806
vn 0.0957418 -0.481306 -0.871308
vn 0.10257 -0.504132 -0.857514
vn 0.95301 -0.0216628 0.302162
vn 0.512695 0.170953 0.841379
vn 1.40201e-006 0.254081 0.967183
vn 0.356142 -0.184946 -0.915947
vn 0.99322 -0.115731 -0.0109989
vn 0.610071 -0.0205626 0.79208
vn 1.49444e-006 0.0409959 0.999159
vn 0.185728 -0.480269 -0.857232
vn 0.542929 -0.834719 -0.0920503
vn 0.40921 -0.723701 0.555701
vn 1.11746e-006 -0.771547 0.636172
vn -0.522219 -0.216826 -0.824787
vn -0.861557 -0.227753 -0.453705
vn -0.503646 0.239389 -0.83008
vn -1.07962e-006 -0.59921 -0.800592
vn -0.00511772 -0.998954 0.0454481
vn -0.0259825 -0.981155 0.191465
vn 4.54578e-007 -0.986157 0.165813
vn -0.425077 0.859776 -0.283011
vn -0.419148 0.817069 -0.395871
vn -0.34174 0.842011 -0.41741
vn -0.285336 0.958294 0.0160201
vn 0.05704 0.984961 0.163093
vn -0.544126 0.461647 -0.700577
vn -0.705068 0.560266 -0.43472
vn -0.739021 0.523988 -0.42342
vn -0.681419 0.68992 0.244293
vn -0.354832 0.696325 0.62388
vn -0.603724 -0.271092 -0.749685
vn -0.755786 0.0825612 -0.649593
vn -0.95478 0.0388186 -0.294767
vn -0.896082 0.253103 0.364658
vn -0.449899 0.276449 0.849215
vn -0.467024 -0.636842 -0.61345
vn -0.0957442 -0.481306 -0.871308
vn -0.102573 -0.504132 -0.857514
vn -0.953009 -0.0216632 0.302165
vn -0.512693 0.170953 0.841381
vn -0.99322 -0.115732 -0.0109959
vn -0.356144 -0.184946 -0.915946
vn -0.610069 -0.0205628 0.792082
vn -0.542929 -0.834719 -0.0920487
vn -0.18573 -0.480269 -0.857231
vn -0.409208 -0.723701 0.555703
vn 0.522217 -0.216826 -0.824789
vn 0.861556 -0.227752 -0.453708
vn 0.503643 0.239389 -0.830082
vn 0.00511828 -0.998954 0.0454481
vn 0.0259835 -0.981155 0.191465
usemtl _08_-_Default
g Kate_Hair_Bob
s off
f 1/1/1 2/3/3 3/2/2
f 1/1/1 4/4/4 2/3/3
f 1/5/1 5/7/5 4/6/4
f 1/5/1 6/8/6 5/7/5
f 1/5/1 7/9/7 6/8/6
f 1/5/1 8/10/8 7/9/7
f 9/11/9 3/2/2 2/3/3
f 3/2/2 9/11/9 10/12/10
f 11/13/11 2/3/3 4/4/4
f 2/3/3 11/13/11 9/11/9
f 12/14/12 4/6/4 5/7/5
f 4/6/4 12/14/12 11/15/11
f 13/16/13 5/7/5 6/8/6
f 5/7/5 13/16/13 12/14/12
f 14/17/14 6/8/6 7/9/7
f 6/8/6 14/17/14 13/16/13
f 15/18/15 7/9/7 8/10/8
f 7/9/7 15/18/15 14/17/14
f 16/19/16 10/12/10 9/11/9
f 10/12/10 16/19/16 17/20/17
f 18/21/18 9/11/9 11/13/11
f 9/11/9 18/21/18 16/19/16
f 19/22/19 11/15/11 12/14/12
f 11/15/11 19/22/19 18/23/18
f 20/24/20 12/14/12 13/16/13
f 12/14/12 20/24/20 19/22/19
f 21/25/21 13/16/13 14/17/14
f 13/16/13 21/25/21 20/24/20
f 22/26/22 14/17/14 15/18/15
f 14/17/14 22/26/22 21/25/21
f 23/27/23 17/20/17 16/19/16
f 17/20/17 23/27/23 24/28/24
f 25/29/25 16/19/16 18/21/18
f 16/19/16 25/29/25 23/27/23
f 26/30/26 18/23/18 19/22/19
f 18/23/18 26/30/26 25/31/25
f 27/32/27 19/22/19 20/24/20
f 19/22/19 27/32/27 26/30/26
f 28/33/28 20/24/20 21/25/21
f 20/24/20 28/33/28 27/32/27
f 29/34/29 21/25/21 22/26/22
f 21/25/21 29/34/29 28/33/28
f 27/32/27 30/35/30 26/30/26
f 30/35/30 27/32/27 31/36/31
f 28/33/28 31/36/31 27/32/27
f 31/36/31 28/33/28 32/37/32
f 29/34/29 32/37/32 28/33/28
f 32/37/32 29/34/29 33/38/33
f 31/36/31 34/39/34 30/35/30
f 34/39/34 31/36/31 35/40/35
f 32/37/32 35/40/35 31/36/31
f 35/40/35 32/37/32 36/41/36
f 33/38/33 36/41/36 32/37/32
f 36/41/36 33/38/33 37/42/37
f 38/43/38 26/30/26 39/44/39
f 26/30/26 38/43/38 25/31/25
f 30/35/30 39/44/39 26/30/26
f 39/44/39 30/35/30 40/45/40
f 34/39/34 40/45/40 30/35/30
f 40/45/40 34/39/34 41/46/41
f 35/40/35 41/46/41 34/39/34
f 41/46/41 35/40/35 42/47/42
f 36/41/36 42/47/42 35/40/35
f 42/47/42 36/41/36 43/48/43
f 37/42/37 43/48/43 36/41/36
f 43/48/43 37/42/37 44/49/44
f 1/1/1 3/2/2 45/50/45
f 1/1/1 45/50/45 46/51/46
f 1/52/1 46/54/46 47/53/47
f 1/52/1 47/53/47 48/55/48
f 1/52/1 48/55/48 49/56/49
f 1/52/1 49/56/49 8/10/8
f 50/57/50 3/2/2 10/12/10
f 3/2/2 50/57/50 45/50/45
f 51/58/51 45/50/45 50/57/50
f 45/50/45 51/58/51 46/51/46
f 52/59/52 46/54/46 51/60/51
f 46/54/46 52/59/52 47/53/47
f 53/61/53 47/53/47 52/59/52
f 47/53/47 53/61/53 48/55/48
f 54/62/54 48/55/48 53/61/53
f 48/55/48 54/62/54 49/56/49
f 15/18/15 49/56/49 54/62/54
f 49/56/49 15/18/15 8/10/8
f 55/63/55 10/12/10 17/20/17
f 10/12/10 55/63/55 50/57/50
f 56/64/56 50/57/50 55/63/55
f 50/57/50 56/64/56 51/58/51
f 57/65/57 51/60/51 56/66/56
f 51/60/51 57/65/57 52/59/52
f 58/67/58 52/59/52 57/65/57
f 52/59/52 58/67/58 53/61/53
f 59/68/59 53/61/53 58/67/58
f 53/61/53 59/68/59 54/62/54
f 22/26/22 54/62/54 59/68/59
f 54/62/54 22/26/22 15/18/15
f 60/69/60 17/20/17 24/28/24
f 17/20/17 60/69/60 55/63/55
f 61/70/61 55/63/55 60/69/60
f 55/63/55 61/70/61 56/64/56
f 62/71/62 56/66/56 61/72/61
f 56/66/56 62/71/62 57/65/57
f 63/73/63 57/65/57 62/71/62
f 57/65/57 63/73/63 58/67/58
f 64/74/64 58/67/58 63/73/63
f 58/67/58 64/74/64 59/68/59
f 29/34/29 59/68/59 64/74/64
f 59/68/59 29/34/29 22/26/22
f 63/73/63 65/76/66 66/75/65
f 65/76/66 63/73/63 62/71/62
f 64/74/64 66/75/65 67/77/67
f 66/75/65 64/74/64 63/73/63
f 29/34/29 67/77/67 33/38/33
f 67/77/67 29/34/29 64/74/64
f 66/75/65 68/79/69 69/78/68
f 68/79/69 66/75/65 65/76/66
f 67/77/67 69/78/68 70/80/70
f 69/78/68 67/77/67 66/75/65
f 33/38/33 70/80/70 37/42/37
f 70/80/70 33/38/33 67/77/67
f 71/81/71 62/71/62 61/72/61
f 62/71/62 71/81/71 72/82/72
f 65/76/66 72/82/72 73/83/73
f 72/82/72 65/76/66 62/71/62
f 68/79/69 73/83/73 74/84/41
f 73/83/73 68/79/69 65/76/66
f 69/78/68 74/84/41 75/85/74
f 74/84/41 69/78/68 68/79/69
f 70/80/70 75/85/74 76/86/75
f 75/85/74 70/80/70 69/78/68
f 37/42/37 76/86/75 44/49/44
f 76/86/75 37/42/37 70/80/70
