# Wavefront OBJ
# Created by fragMOTION 1.3.7
# http://www.fragmosoft.com

mtllib Kate_Hair_Braided01.mtl
# 111 vertices
v -0.0286824 0.94856 -0.00184091
v -0.0502935 0.923135 -0.022433
v -0.0383774 0.927688 0.00621649
v -0.0310835 0.946427 -0.033402
v 0.00318557 0.954605 -0.00274264
v 0.00318551 0.955529 -0.0350441
v 0.0129395 0.950123 -0.0350214
v 0.0278666 0.951282 -0.00260375
v 0.0330965 0.951385 -0.0346596
v 0.0431336 0.94434 -0.00178447
v 0.0501105 0.938293 -0.0319452
v -0.0214875 0.789814 -0.0616231
v -0.0418384 0.78949 -0.0479612
v -0.0302105 0.783774 -0.0729666
v -0.0266024 0.793835 -0.0485753
v -0.0142345 0.790015 -0.0714728
v -0.0155655 0.784364 -0.0846218
v 0.0224214 0.927381 -0.0863895
v 0.00123945 0.908734 -0.0852001
v 0.00123942 0.924702 -0.099082
v 0.0261165 0.914108 -0.0734546
v 0.0401295 0.909025 -0.0656458
v 0.0374635 0.931668 -0.0739502
v 0.0493125 0.924896 -0.0627533
v 0.0592615 0.904021 -0.0530101
v 0.0622255 0.90843 -0.0270782
v 0.0552806 0.913038 0.000329052
v -0.0471854 0.804083 -0.00530038
v -0.0287383 0.82105 0.0176448
v -0.0398953 0.817469 0.0209747
v -0.0335804 0.809999 0.000644823
v 0.0364645 0.943934 -0.0630947
v 0.0176675 0.943234 -0.0606986
v 0.00318543 0.944596 -0.0843204
v -0.0327246 0.936243 -0.081637
v -0.0487865 0.913365 -0.0725103
v -0.0292936 0.920838 -0.0955027
v -0.0239164 0.934715 0.0153274
v 0.00318561 0.938555 0.0189286
v 0.0248136 0.934847 0.0167796
v 0.0428966 0.915935 0.0175594
v -0.0220163 0.830101 0.0368772
v -0.0152123 0.827008 0.0258545
v 0.00296868 0.83072 0.0305286
v 0.0017877 0.834201 0.0409022
v 0.00183464 0.920536 0.0293973
v 0.0256686 0.917185 0.0250497
v 0.0488605 0.900131 -0.0573491
v -0.0437524 0.908773 0.011351
v -0.0581094 0.903871 -0.0193704
v -0.0546395 0.894366 -0.0678758
v -0.0378316 0.891222 -0.0928442
v -0.0188296 0.895921 -0.104146
v -0.0146246 0.89057 -0.0930124
v -0.0236474 0.916653 0.0255357
v -0.0569865 0.85019 -0.0613729
v -0.0424645 0.843036 -0.0849013
v -0.0355685 0.879956 -0.0654529
v -0.0330445 0.846099 -0.0744374
v -0.0267625 0.88473 -0.0839922
v -0.0376185 0.850201 -0.061258
v -0.0250385 0.839857 -0.0948398
v -0.0250385 0.845465 -0.0751988
v -0.0500974 0.874378 0.0179444
v -0.0603534 0.864248 -0.0139798
v -0.0407275 0.875036 -0.0428927
v -0.0416514 0.85749 -0.0369451
v -0.0248083 0.879587 0.0325681
v 0.00139367 0.88087 0.0360009
v -0.0525325 0.815234 -0.0546059
v -0.0356975 0.801886 -0.0783281
v -0.0299065 0.805873 -0.0666405
v -0.0344804 0.81099 -0.0537758
v -0.0219005 0.798427 -0.0854643
v -0.0197805 0.804101 -0.0727228
v -0.0457533 0.844456 0.0219757
v -0.0559004 0.832291 -0.00817655
v -0.0426514 0.863702 -0.0174737
v -0.0391024 0.871056 0.00987654
v -0.0395134 0.827478 -0.0109549
v -0.0262473 0.8513 0.0376783
v 0.000212689 0.852748 0.0405467
v -0.0168044 0.876503 0.0214019
v 0.00213665 0.877821 0.0254586
v 0.0256137 0.882386 0.0317628
v 0.0448246 0.882309 0.0228472
v 0.0567996 0.87966 0.00361822
v 0.0647346 0.875475 -0.0219032
v 0.0604125 0.870963 -0.0473787
v 0.0518735 0.870056 -0.0501831
v 0.0258107 0.851797 0.0357044
v 0.0434127 0.850346 0.0270188
v 0.0546116 0.84713 0.00788616
v 0.0625496 0.842842 -0.0176188
v 0.0582196 0.838744 -0.041579
v 0.0496706 0.838192 -0.0452858
v 0.0248417 0.832834 0.0344716
v 0.0408247 0.831644 0.0273373
v 0.0502396 0.823734 0.00854363
v 0.0552716 0.811467 -0.0167646
v 0.0532506 0.801735 -0.0417842
v 0.0424176 0.801395 -0.0440675
v 0.0233747 0.830108 0.027485
v 0.0349137 0.828141 0.0209153
v 0.0417806 0.82124 0.00488555
v 0.0449506 0.809813 -0.0173768
v 0.0238536 0.87692 0.023589
v 0.0350576 0.875947 0.0177474
v 0.0437486 0.869081 -0.000285694
v 0.0488806 0.856802 -0.0202186
v 0.0483396 0.848035 -0.039079
# 98 texture vertices
vt 0.54658 -0.279154
vt 0.548526 -0.351695
vt 0.646032 -0.36144
vt 0.646447 -0.269746
vt 0.461494 -0.194902
vt 0.636144 -0.166394
vt 0.643133 -0.13652
vt 0.339989 -0.239347
vt 0.252081 -0.159357
vt 0.225093 -0.220613
vt 0.293102 -0.280215
vt 0.186328 -0.288807
vt 0.906706 -0.765592
vt 0.874901 -0.733803
vt 0.779296 -0.733241
vt 0.776944 -0.754823
vt 0.971546 -0.709995
vt 0.933214 -0.727958
vt 0.903594 -0.181992
vt 0.901966 -0.25909
vt 0.959097 -0.272753
vt 0.966683 -0.177447
vt 0.040628 -0.324443
vt 0.065528 -0.251773
vt 0.018204 -0.217702
vt 0.010283 -0.278496
vt 0.089232 -0.297515
vt 0.095632 -0.37364
vt 0.173955 -0.38239
vt 0.256888 -0.382204
vt 0.629089 -0.705363
vt 0.551621 -0.692056
vt 0.553942 -0.714177
vt 0.624375 -0.731523
vt 0.110621 -0.233383
vt 0.113753 -0.178796
vt 0.8364 -0.213337
vt 0.793439 -0.147499
vt 0.806933 -0.304728
vt 0.789586 -0.378309
vt 0.855467 -0.325519
vt 0.502904 -0.324475
vt 0.430302 -0.295025
vt 0.367489 -0.308715
vt 0.316487 -0.376901
vt 0.477859 -0.666717
vt 0.474471 -0.690837
vt 0.409687 -0.654974
vt 0.40996 -0.678544
vt 0.361469 -0.372345
vt 0.422517 -0.366359
vt 0.06034 -0.375185
vt 0.547801 -0.408121
vt 0.64546 -0.414393
vt 0.785894 -0.426402
vt 0.870051 -0.408717
vt 0.923044 -0.369729
vt 0.958317 -0.374054
vt 0.48454 -0.384349
vt 0.785087 -0.548702
vt 0.867436 -0.551754
vt 0.925873 -0.547162
vt 0.985352 -0.537909
vt 0.551681 -0.513583
vt 0.6428 -0.525585
vt 0.478668 -0.504437
vt 0.414728 -0.49927
vt 0.780702 -0.649859
vt 0.874081 -0.675645
vt 0.923571 -0.680576
vt 0.965317 -0.665895
vt 0.54431 -0.604858
vt 0.633559 -0.618503
vt 0.482543 -0.596767
vt 0.417086 -0.593827
vt 0.356691 -0.488838
vt 0.308074 -0.482681
vt 0.252041 -0.480193
vt 0.171117 -0.47994
vt 0.091669 -0.477222
vt 0.064162 -0.477643
vt 0.352465 -0.589424
vt 0.308771 -0.584
vt 0.254576 -0.578027
vt 0.170298 -0.57757
vt 0.094072 -0.579081
vt 0.065504 -0.580166
vt 0.345318 -0.651107
vt 0.304315 -0.643809
vt 0.253313 -0.649858
vt 0.163326 -0.674233
vt 0.081719 -0.693331
vt 0.047959 -0.694293
vt 0.352239 -0.66964
vt 0.302513 -0.662729
vt 0.257751 -0.666401
vt 0.171903 -0.693016
vt 0.082252 -0.708155
# 111 normals
vn -0.489792 0.816136 0.306636
vn -0.761846 0.428941 0.485387
vn -0.872153 0.484339 0.0690267
vn -0.544678 0.833914 -0.0889571
vn -0.011764 0.959392 0.281829
vn 0.119709 0.988679 -0.0904612
vn 0.227755 0.965431 -0.126767
vn 0.234168 0.917462 0.321604
vn 0.275973 0.954992 -0.108758
vn 0.640764 0.672626 0.370129
vn 0.815505 0.575885 -0.0575173
vn 0.775156 -0.396449 0.491896
vn -0.370036 -0.898385 -0.236597
vn -0.474401 -0.875055 0.0960384
vn 0.860306 -0.374659 0.345696
vn 0.921403 -0.227033 0.315394
vn 0.485278 -0.589852 -0.645429
vn 0.569004 0.123297 -0.813039
vn 0.3037 0.131575 -0.943639
vn 0.625023 -0.507204 -0.593371
vn 0.266823 -0.633475 -0.726302
vn 0.527087 -0.257805 -0.809763
vn 0.547724 0.373879 -0.748474
vn 0.809624 0.206483 -0.549431
vn 0.845087 0.0300399 -0.533784
vn 0.975696 0.21832 0.0188225
vn 0.897447 0.227928 0.377673
vn -0.510514 -0.781415 0.35884
vn -0.365753 -0.700587 0.612701
vn 0.757598 -0.639043 -0.132925
vn 0.793391 -0.554211 0.251757
vn 0.345462 0.801637 -0.487889
vn 0.220489 0.916367 -0.33415
vn 0.152238 0.837905 -0.524155
vn -0.556423 0.703257 -0.44252
vn -0.876455 0.315646 -0.363586
vn -0.479293 0.358733 -0.800992
vn -0.398043 0.561596 0.725377
vn -0.00213105 0.656136 0.754639
vn 0.298943 0.567542 0.767156
vn 0.623219 0.279161 0.730525
vn -0.188994 -0.562175 0.805134
vn 0.431765 -0.805188 -0.406512
vn 0.0897977 -0.509144 0.855984
vn 0.11 -0.867239 -0.485588
vn 0.307274 0.293886 0.905104
vn -0.000193582 0.341507 0.939879
vn 0.451123 -0.250747 -0.856513
vn -0.766643 0.293066 0.571288
vn -0.962294 0.242903 0.122423
vn -0.935266 0.10514 -0.33797
vn -0.687244 0.0273819 -0.72591
vn 0.164224 -0.141927 -0.976159
vn 0.940339 -0.246577 -0.234442
vn -0.40223 0.310178 0.861395
vn -0.954458 -0.0800397 -0.287407
vn -0.715272 -0.134901 -0.685703
vn 0.942705 -0.0378785 0.33147
vn 0.651932 0.135386 0.746093
vn 0.663165 0.122431 0.738392
vn 0.970117 0.0489528 0.237649
vn 0.433913 -0.212635 -0.875503
vn 0.689374 0.0681883 0.721189
vn -0.797609 0.111177 0.59284
vn -0.991836 -0.0224448 0.125531
vn 0.981408 -0.0184261 0.191047
vn 0.99227 0.0941972 0.0807866
vn -0.343256 0.194731 0.918833
vn 0.0140416 0.161618 0.986754
vn -0.934089 -0.281825 -0.219208
vn -0.706284 -0.321715 -0.630605
vn 0.799006 0.33339 0.500439
vn 0.951214 0.282825 0.123297
vn 0.298706 -0.0618063 -0.952342
vn 0.885784 0.279338 0.370618
vn -0.791864 -0.107867 0.601096
vn -0.964935 -0.182769 0.188404
vn 0.994311 0.0899883 -0.0569868
vn 0.979722 0.179577 -0.0888662
vn 0.789019 0.0269205 -0.613778
vn -0.379546 0.0295314 0.924701
vn 0.0407166 0.0845481 0.995587
vn 0.343982 -0.0640696 -0.936788
vn 0.0703604 -0.0976726 -0.992728
vn 0.297522 0.144612 0.943699
vn 0.667794 0.10883 0.736347
vn 0.909731 0.0442806 0.412831
vn 0.998179 0.00572485 0.0600484
vn 0.774355 -0.109088 -0.623277
vn 0.334748 -0.159077 -0.928783
vn 0.311359 0.0316018 0.949767
vn 0.680247 -0.00747379 0.732945
vn 0.906702 -0.0836973 0.413384
vn 0.987179 -0.12439 0.100023
vn 0.796811 -0.145103 -0.586547
vn -0.20982 -0.0193245 -0.977549
vn 0.223089 -0.573318 0.788377
vn 0.516687 -0.511196 0.686814
vn 0.631094 -0.606642 0.483431
vn 0.67228 -0.675341 0.30324
vn 0.53612 -0.73883 -0.408295
vn -0.56427 -0.64102 -0.52028
vn -0.227242 -0.872324 -0.43291
vn -0.511386 -0.851989 -0.112246
vn -0.690265 -0.708103 0.148746
vn -0.65118 -0.707021 0.275835
vn -0.287702 -0.0866622 -0.953791
vn -0.69992 -0.050689 -0.71242
vn -0.934279 -0.00802534 -0.356452
vn -0.987127 0.0488054 -0.152313
vn -0.990859 0.108469 -0.0802114
usemtl _08_-_Defaulthhh
g Kate_Hair_Braided01
s off
f 1/1/1 2/3/3 3/2/2
f 2/3/3 1/1/1 4/4/4
f 5/5/5 4/4/4 1/1/1
f 4/4/4 5/5/5 6/6/6
f 6/6/6 5/5/5 7/7/7
f 8/8/8 7/9/7 5/5/5
f 7/9/7 8/8/8 9/10/9
f 10/11/10 9/10/9 8/8/8
f 9/10/9 10/11/10 11/12/11
f 12/13/12 13/15/14 14/14/13
f 13/15/14 12/13/12 15/16/15
f 16/17/16 14/14/13 17/18/17
f 14/14/13 16/17/16 12/13/12
f 18/19/18 19/21/20 20/20/19
f 19/21/20 18/19/18 21/22/21
f 22/23/22 18/25/18 23/24/23
f 18/25/18 22/23/22 21/26/21
f 24/27/24 22/23/22 23/24/23
f 22/23/22 24/27/24 25/28/25
f 10/11/10 26/29/26 11/12/11
f 26/29/26 10/11/10 27/30/27
f 28/31/28 29/33/30 30/32/29
f 29/33/30 28/31/28 31/34/31
f 11/12/11 25/28/25 24/27/24
f 25/28/25 11/12/11 26/29/26
f 32/35/32 11/12/11 24/27/24
f 11/12/11 32/35/32 9/10/9
f 33/36/33 9/10/9 32/35/32
f 9/10/9 33/36/33 7/9/7
f 34/37/34 7/7/7 33/38/33
f 7/7/7 34/37/34 6/6/6
f 35/39/35 6/6/6 34/37/34
f 6/6/6 35/39/35 4/4/4
f 36/40/36 4/4/4 35/39/35
f 4/4/4 36/40/36 2/3/3
f 15/16/15 28/31/28 13/15/14
f 28/31/28 15/16/15 31/34/31
f 24/27/24 23/24/23 32/35/32
f 33/36/33 23/24/23 18/25/18
f 23/24/23 33/36/33 32/35/32
f 33/38/33 18/19/18 34/37/34
f 18/19/18 20/20/19 34/37/34
f 37/41/37 34/37/34 20/20/19
f 34/37/34 37/41/37 35/39/35
f 35/39/35 37/41/37 36/40/36
f 3/2/2 38/42/38 1/1/1
f 39/43/39 1/1/1 38/42/38
f 1/1/1 39/43/39 5/5/5
f 8/8/8 39/43/39 40/44/40
f 39/43/39 8/8/8 5/5/5
f 10/11/10 40/44/40 41/45/41
f 40/44/40 10/11/10 8/8/8
f 10/11/10 41/45/41 27/30/27
f 42/46/42 29/33/30 43/47/43
f 29/33/30 42/46/42 30/32/29
f 42/46/42 44/49/45 45/48/44
f 44/49/45 42/46/42 43/47/43
f 40/44/40 46/51/47 47/50/46
f 46/51/47 40/44/40 39/43/39
f 47/50/46 41/45/41 40/44/40
f 25/28/25 48/52/48 22/23/22
f 2/3/3 49/53/49 3/2/2
f 49/53/49 2/3/3 50/54/50
f 37/41/37 51/55/51 36/40/36
f 51/55/51 37/41/37 52/56/52
f 19/21/20 53/57/53 20/20/19
f 53/57/53 19/21/20 54/58/54
f 53/57/53 37/41/37 20/20/19
f 37/41/37 53/57/53 52/56/52
f 36/40/36 50/54/50 2/3/3
f 50/54/50 36/40/36 51/55/51
f 3/2/2 55/59/55 38/42/38
f 55/59/55 3/2/2 49/53/49
f 38/42/38 46/51/47 39/43/39
f 46/51/47 38/42/38 55/59/55
f 52/56/52 56/60/56 51/55/51
f 56/60/56 52/56/52 57/61/57
f 58/56/58 59/62/60 60/57/59
f 59/62/60 58/56/58 61/61/61
f 54/58/54 62/62/62 53/57/53
f 62/62/62 54/58/54 63/63/63
f 53/57/53 57/61/57 52/56/52
f 57/61/57 53/57/53 62/62/62
f 60/57/59 63/63/63 54/58/54
f 63/63/63 60/57/59 59/62/60
f 50/54/50 64/64/64 49/53/49
f 64/64/64 50/54/50 65/65/65
f 51/55/51 65/65/65 50/54/50
f 65/65/65 51/55/51 56/60/56
f 66/55/66 61/61/61 58/56/58
f 61/61/61 66/55/66 67/60/67
f 49/53/49 68/66/68 55/59/55
f 68/66/68 49/53/49 64/64/64
f 55/59/55 69/67/69 46/51/47
f 69/67/69 55/59/55 68/66/68
f 57/61/57 70/68/70 56/60/56
f 70/68/70 57/61/57 71/69/71
f 61/61/61 72/70/72 59/62/60
f 72/70/72 61/61/61 73/68/73
f 63/63/63 74/70/74 62/62/62
f 74/70/74 63/63/63 75/71/75
f 62/62/62 71/69/71 57/61/57
f 71/69/71 62/62/62 74/70/74
f 59/62/60 75/71/75 63/63/63
f 75/71/75 59/62/60 72/70/72
f 65/65/65 76/72/76 64/64/64
f 76/72/76 65/65/65 77/73/77
f 78/65/78 79/64/80 80/73/79
f 56/60/56 77/73/77 65/65/65
f 77/73/77 56/60/56 70/68/70
f 78/65/78 73/68/73 67/60/67
f 73/68/73 78/65/78 80/73/79
f 73/68/73 61/61/61 67/60/67
f 64/64/64 81/74/81 68/66/68
f 81/74/81 64/64/64 76/72/76
f 68/66/68 82/75/82 69/67/69
f 82/75/82 68/66/68 81/74/81
f 71/69/71 13/15/14 70/68/70
f 13/15/14 71/69/71 14/14/13
f 73/68/73 12/13/12 72/70/72
f 12/13/12 73/68/73 15/16/15
f 75/71/75 17/18/17 74/70/74
f 17/18/17 75/71/75 16/17/16
f 74/70/74 14/14/13 71/69/71
f 14/14/13 74/70/74 17/18/17
f 72/70/72 16/17/16 75/71/75
f 16/17/16 72/70/72 12/13/12
f 77/73/77 30/32/29 76/72/76
f 30/32/29 77/73/77 28/31/28
f 79/64/80 31/34/31 80/73/79
f 31/34/31 79/64/80 29/33/30
f 70/68/70 28/31/28 77/73/77
f 28/31/28 70/68/70 13/15/14
f 80/73/79 15/16/15 73/68/73
f 15/16/15 80/73/79 31/34/31
f 83/66/83 29/33/30 79/64/80
f 29/33/30 83/66/83 43/47/43
f 76/72/76 42/46/42 81/74/81
f 42/46/42 76/72/76 30/32/29
f 81/74/81 45/48/44 82/75/82
f 45/48/44 81/74/81 42/46/42
f 84/67/84 43/47/43 83/66/83
f 43/47/43 84/67/84 44/49/45
f 46/51/47 85/76/85 47/50/46
f 85/76/85 46/51/47 69/67/69
f 47/50/46 86/77/86 41/45/41
f 86/77/86 47/50/46 85/76/85
f 41/45/41 87/78/87 27/30/27
f 87/78/87 41/45/41 86/77/86
f 27/30/27 88/79/88 26/29/26
f 88/79/88 27/30/27 87/78/87
f 26/29/26 89/80/89 25/28/25
f 89/80/89 26/29/26 88/79/88
f 25/28/25 90/81/90 48/52/48
f 90/81/90 25/28/25 89/80/89
f 69/67/69 91/82/91 85/76/85
f 91/82/91 69/67/69 82/75/82
f 85/76/85 92/83/92 86/77/86
f 92/83/92 85/76/85 91/82/91
f 86/77/86 93/84/93 87/78/87
f 93/84/93 86/77/86 92/83/92
f 87/78/87 94/85/94 88/79/88
f 94/85/94 87/78/87 93/84/93
f 88/79/88 95/86/95 89/80/89
f 95/86/95 88/79/88 94/85/94
f 89/80/89 96/87/96 90/81/90
f 96/87/96 89/80/89 95/86/95
f 82/75/82 97/88/97 91/82/91
f 97/88/97 82/75/82 45/48/44
f 91/82/91 98/89/98 92/83/92
f 98/89/98 91/82/91 97/88/97
f 92/83/92 99/90/99 93/84/93
f 99/90/99 92/83/92 98/89/98
f 93/84/93 100/91/100 94/85/94
f 100/91/100 93/84/93 99/90/99
f 94/85/94 101/92/101 95/86/95
f 101/92/101 94/85/94 100/91/100
f 95/86/95 102/93/102 96/87/96
f 102/93/102 95/86/95 101/92/101
f 103/94/103 45/48/44 44/49/45
f 45/48/44 103/94/103 97/88/97
f 104/95/104 97/88/97 103/94/103
f 97/88/97 104/95/104 98/89/98
f 105/96/105 98/89/98 104/95/104
f 98/89/98 105/96/105 99/90/99
f 106/97/106 99/90/99 105/96/105
f 99/90/99 106/97/106 100/91/100
f 102/98/102 100/91/100 106/97/106
f 100/91/100 102/98/102 101/92/101
f 44/49/45 107/76/107 103/94/103
f 107/76/107 44/49/45 84/67/84
f 103/94/103 108/77/108 104/95/104
f 108/77/108 103/94/103 107/76/107
f 104/95/104 109/78/109 105/96/105
f 109/78/109 104/95/104 108/77/108
f 105/96/105 110/79/110 106/97/106
f 110/79/110 105/96/105 109/78/109
f 106/97/106 111/80/111 102/93/102
f 111/80/111 106/97/106 110/79/110
f 102/93/102 111/80/111 96/87/96
