# Wavefront OBJ
# Created by fragMOTION 1.3.7
# http://www.fragmosoft.com

mtllib Bob_Hair_MohawkSpike.mtl
# 63 vertices
v -0.00842524 0.941989 -0.088929
v 0.0105638 0.989365 -0.113433
v 0.0185177 0.941995 -0.0888739
v -6.18059e-006 0.989369 -0.11346
v 0.00538312 1.04518 -0.146827
v 0.0105468 0.997761 -0.105411
v 0.0167092 0.95678 -0.0684959
v -2.31395e-005 0.997765 -0.105438
v -0.00847395 0.957809 -0.0671205
v -0.00846598 0.961294 -0.0697841
v 0.0104889 1.01368 -0.079891
v 0.018477 0.961304 -0.0697236
v -8.11036e-005 1.01368 -0.0799175
v 0.00526795 1.07666 -0.0961418
v 0.0104658 1.01946 -0.0698223
v 0.0166577 0.969723 -0.0459972
v -0.000104157 1.01947 -0.0698487
v -0.00852619 0.970304 -0.0443924
v -0.00852386 0.971835 -0.0450974
v 0.0103981 1.0251 -0.041941
v 0.0184191 0.971845 -0.0450327
v -0.000171853 1.02511 -0.0419675
v 0.00513774 1.09014 -0.0421239
v 0.0103713 1.02822 -0.0307548
v 0.0165942 0.974138 -0.0199606
v -0.000198696 1.02822 -0.0307812
v -0.00859011 0.974289 -0.0182668
v -0.00858254 0.975004 -0.021183
v 0.0102722 1.01997 0.0075974
v 0.0183604 0.975013 -0.0211079
v -0.00029777 1.01997 0.00757094
v 0.00492921 1.0768 0.0391993
v 0.0102429 1.01723 0.0188813
v 0.0165318 0.962924 0.00330482
v -0.000327036 1.01723 0.0188548
v -0.00865246 0.962199 0.00484383
v -0.00864674 0.962164 0.0025551
v 0.010152 0.985624 0.0505315
v 0.0182961 0.962167 0.0026391
v -0.000418017 0.985628 0.050505
v 0.00473732 1.01773 0.10708
v 0.0101283 0.977412 0.0587425
v 0.0164896 0.941453 0.0169512
v -0.000441625 0.977416 0.058716
v -0.00869333 0.940001 0.0178745
v -0.00869657 0.940678 0.0192704
v 0.0100858 0.950614 0.0717484
v 0.0182463 0.940676 0.0193566
v -0.000484149 0.950618 0.0717219
v 0.00464897 0.966601 0.134777
v 0.0100677 0.940523 0.0774931
v 0.0173299 0.915453 0.0273376
v -0.000502282 0.940527 0.0774666
v -0.00872833 0.915251 0.0281768
v -0.00872653 0.91555 0.0275022
v 0.0100496 0.900527 0.0787593
v 0.0182163 0.915537 0.0275898
v -0.000520325 0.900531 0.0787328
v 0.00460056 0.886064 0.142153
v 0.010044 0.888927 0.0792812
v 0.0164526 0.890589 0.0241786
v -0.000525946 0.888931 0.0792548
v -0.00872733 0.888854 0.0238574
# 5 texture vertices
vt 0.563385 -0.914356
vt 0.729248 -0.914356
vt 0.729248 -0.640134
vt 0.563385 -0.640134
vt 0.646316 -0.365912
# 126 normals
vn 0.00194956 -0.460031 -0.887901
vn 0.00199081 -0.48497 -0.874529
vn 0.00195749 -0.513261 -0.85823
vn 0.990648 0.134057 -0.0254145
vn 0.990366 0.137935 -0.0122034
vn 0.993873 0.085889 -0.0695682
vn 0.992101 0.0876998 -0.0896929
vn 0.996636 0.0576605 -0.0582426
vn 0.0589808 0.681545 0.729395
vn 0.0676109 0.683089 0.727199
vn 0.00802159 0.666033 0.745879
vn -0.00162532 0.663808 0.747901
vn -0.00164106 0.657696 0.753282
vn -0.987662 0.12337 -0.096456
vn -0.987462 0.126719 -0.0941376
vn -0.992104 0.0886744 -0.0886976
vn -0.993097 0.0799768 -0.0858062
vn -0.996289 0.0584016 -0.0632314
vn 0.00228479 -0.190226 -0.981738
vn 0.00234403 -0.217928 -0.975962
vn 0.00233112 -0.249673 -0.968327
vn 0.990551 0.136458 0.013729
vn 0.990266 0.136443 0.0274984
vn 0.993811 0.102742 -0.0422408
vn 0.992037 0.110167 -0.0610334
vn 0.996594 0.0724652 -0.0393583
vn 0.0584849 0.447558 0.89234
vn 0.0671139 0.449666 0.890672
vn 0.00753787 0.427984 0.903755
vn -0.00210745 0.42527 0.905064
vn -0.00211879 0.417887 0.908496
vn -0.987751 0.144923 -0.0578454
vn -0.987553 0.147481 -0.0546739
vn -0.992167 0.109446 -0.0602143
vn -0.993154 0.100285 -0.0598997
vn -0.99633 0.0732064 -0.0443471
vn 0.00241867 0.0583069 -0.998296
vn 0.00249529 0.0300367 -0.999546
vn 0.00250227 -0.00261149 -0.999994
vn 0.990464 0.129434 0.047196
vn 0.99018 0.126016 0.0605334
vn 0.993746 0.110598 -0.0153697
vn 0.991969 0.122436 -0.0317447
vn 0.996549 0.0805496 -0.0200584
vn 0.0581911 0.213174 0.97528
vn 0.0668188 0.215633 0.974186
vn 0.00725527 0.191355 0.981494
vn -0.00238836 0.188397 0.98209
vn -0.00239509 0.180394 0.983592
vn -0.987841 0.154123 -0.0204011
vn -0.987644 0.155819 -0.016696
vn -0.992235 0.120331 -0.0314654
vn -0.993216 0.111375 -0.0334252
vn -0.996376 0.0812908 -0.0250472
vn 0.00220663 0.538446 -0.842658
vn 0.00231997 0.514387 -0.857555
vn 0.00236835 0.486118 -0.87389
vn 0.990304 0.0909792 0.10498
vn 0.990035 0.0817774 0.11464
vn 0.993594 0.104969 0.0418504
vn 0.991808 0.12351 0.0325939
vn 0.996443 0.0812559 0.0223352
vn 0.0579481 -0.258147 0.964366
vn 0.0663128 -0.25559 0.964509
vn 0.00688062 -0.29521 0.955408
vn -0.00250028 -0.298132 0.954521
vn -0.0024892 -0.32297 0.946406
vn -0.988261 0.140028 0.061085
vn -0.987978 0.139751 0.0661012
vn -0.992622 0.117095 0.0314851
vn -0.993531 0.11091 0.0243816
vn -0.996482 0.0819971 0.0173464
vn 0.00133267 0.898148 -0.43969
vn 0.00147509 0.885348 -0.464928
vn 0.00155899 0.869698 -0.493582
vn 0.990199 0.0244574 0.137505
vn 0.989935 0.0111605 0.14108
vn 0.993466 0.0697029 0.0903647
vn 0.991645 0.0897773 0.0926275
vn 0.996336 0.059029 0.0618933
vn 0.0586098 -0.744601 0.664932
vn 0.0672306 -0.742422 0.666551
vn 0.00773272 -0.760834 0.6489
vn -0.0019023 -0.762826 0.646602
vn -0.00188864 -0.768065 0.640369
vn -0.988222 0.0915254 0.122637
vn -0.988026 0.0891317 0.125934
vn -0.992547 0.0845494 0.0877612
vn -0.993509 0.0818546 0.0789976
vn -0.996589 0.0597701 0.0569045
vn 0.000727677 0.982497 -0.186275
vn 0.000880975 0.976833 -0.214
vn 0.000975722 0.969326 -0.245775
vn 0.990098 0.0171324 0.139326
vn 0.990214 0.00811093 0.139318
vn 0.993187 0.0484493 0.105978
vn 0.991583 0.0627016 0.113274
vn 0.996295 0.0411888 0.0754978
vn 0.0186047 -0.891545 0.45255
vn 0.0215078 -0.891074 0.453348
vn 0.00184541 -0.901501 0.432773
vn -0.00141618 -0.902002 0.43173
vn -0.0013754 -0.910172 0.414228
vn -0.988285 0.0551579 0.142303
vn -0.988088 0.0519766 0.14485
vn -0.992605 0.0576599 0.106824
vn -0.993564 0.0573801 0.0976597
vn -0.996629 0.0419299 0.070509
vn -0.000449547 0.959591 0.281399
vn -0.000294477 0.967169 0.254134
vn -0.000194203 0.97495 0.222423
vn 0.990209 -0.0731397 0.118894
vn 0.989971 -0.0853673 0.112563
vn 0.993377 -0.00793465 0.114627
vn 0.991521 0.0053537 0.129839
vn 0.996254 0.00340006 0.0864131
vn 0.0602098 -0.998119 -0.0114922
vn 0.0688263 -0.99759 -0.00881923
vn 0.0093553 -0.999367 -0.0343244
vn -0.000278078 -0.999301 -0.0373734
vn -0.000257588 -0.998964 -0.0455088
vn -0.988334 -0.016754 0.151375
vn -0.988133 -0.020745 0.152193
vn -0.992661 0.00161999 0.120922
vn -0.993621 0.00554185 0.112634
vn -0.996671 0.00414122 0.0814243
usemtl _09_-_Defaultaaa
g Bob_Hair_MohawkSpike
s off
f 1/1/1 2/3/2 3/2/1
f 2/3/2 1/1/1 4/4/2
f 4/4/2 5/5/3 2/3/2
f 3/1/4 6/3/6 7/2/5
f 6/3/6 3/1/4 2/4/7
f 2/4/7 5/5/8 6/3/6
f 7/1/9 8/3/11 9/2/10
f 8/3/11 7/1/9 6/4/12
f 6/4/12 5/5/13 8/3/11
f 9/1/14 4/3/16 1/2/15
f 4/3/16 9/1/14 8/4/17
f 8/4/17 5/5/18 4/3/16
f 10/1/19 11/3/20 12/2/19
f 11/3/20 10/1/19 13/4/20
f 13/4/20 14/5/21 11/3/20
f 12/1/22 15/3/24 16/2/23
f 15/3/24 12/1/22 11/4/25
f 11/4/25 14/5/26 15/3/24
f 16/1/27 17/3/29 18/2/28
f 17/3/29 16/1/27 15/4/30
f 15/4/30 14/5/31 17/3/29
f 18/1/32 13/3/34 10/2/33
f 13/3/34 18/1/32 17/4/35
f 17/4/35 14/5/36 13/3/34
f 19/1/37 20/3/38 21/2/37
f 20/3/38 19/1/37 22/4/38
f 22/4/38 23/5/39 20/3/38
f 21/1/40 24/3/42 25/2/41
f 24/3/42 21/1/40 20/4/43
f 20/4/43 23/5/44 24/3/42
f 25/1/45 26/3/47 27/2/46
f 26/3/47 25/1/45 24/4/48
f 24/4/48 23/5/49 26/3/47
f 27/1/50 22/3/52 19/2/51
f 22/3/52 27/1/50 26/4/53
f 26/4/53 23/5/54 22/3/52
f 28/1/55 29/3/56 30/2/55
f 29/3/56 28/1/55 31/4/56
f 31/4/56 32/5/57 29/3/56
f 30/1/58 33/3/60 34/2/59
f 33/3/60 30/1/58 29/4/61
f 29/4/61 32/5/62 33/3/60
f 34/1/63 35/3/65 36/2/64
f 35/3/65 34/1/63 33/4/66
f 33/4/66 32/5/67 35/3/65
f 36/1/68 31/3/70 28/2/69
f 31/3/70 36/1/68 35/4/71
f 35/4/71 32/5/72 31/3/70
f 37/1/73 38/3/74 39/2/73
f 38/3/74 37/1/73 40/4/74
f 40/4/74 41/5/75 38/3/74
f 39/1/76 42/3/78 43/2/77
f 42/3/78 39/1/76 38/4/79
f 38/4/79 41/5/80 42/3/78
f 43/1/81 44/3/83 45/2/82
f 44/3/83 43/1/81 42/4/84
f 42/4/84 41/5/85 44/3/83
f 45/1/86 40/3/88 37/2/87
f 40/3/88 45/1/86 44/4/89
f 44/4/89 41/5/90 40/3/88
f 46/1/91 47/3/92 48/2/91
f 47/3/92 46/1/91 49/4/92
f 49/4/92 50/5/93 47/3/92
f 48/1/94 51/3/96 52/2/95
f 51/3/96 48/1/94 47/4/97
f 47/4/97 50/5/98 51/3/96
f 52/1/99 53/3/101 54/2/100
f 53/3/101 52/1/99 51/4/102
f 51/4/102 50/5/103 53/3/101
f 54/1/104 49/3/106 46/2/105
f 49/3/106 54/1/104 53/4/107
f 53/4/107 50/5/108 49/3/106
f 55/1/109 56/3/110 57/2/109
f 56/3/110 55/1/109 58/4/110
f 58/4/110 59/5/111 56/3/110
f 57/1/112 60/3/114 61/2/113
f 60/3/114 57/1/112 56/4/115
f 56/4/115 59/5/116 60/3/114
f 61/1/117 62/3/119 63/2/118
f 62/3/119 61/1/117 60/4/120
f 60/4/120 59/5/121 62/3/119
f 63/1/122 58/3/124 55/2/123
f 58/3/124 63/1/122 62/4/125
f 62/4/125 59/5/126 58/3/124
