# Wavefront OBJ
# Created by fragMOTION 1.3.7
# http://www.fragmosoft.com

mtllib Bob_Hair_Recede.mtl
# 80 vertices
v 0.050389 0.882431 0.0055947
v 0.0343445 0.863977 0.0261483
v 0.0317004 0.859073 0.000335186
v 0.0400482 0.884136 0.0276967
v 0.0354285 0.968889 -0.0495071
v 0.0051055 0.962703 -0.0815995
v 0.00503217 0.97476 -0.0505374
v 0.0627446 0.907475 -0.0307714
v 0.0557931 0.94682 -0.0502232
v 0.0610768 0.945354 -0.0399355
v 0.0585601 0.903535 -0.0507013
v 0.0657523 0.912567 -0.0151155
v 0.0612804 0.951008 -0.00620797
v 0.0667111 0.911926 0.00122779
v 0.047079 0.918254 0.0289041
v 0.00477242 0.922305 0.0452515
v 0.0431384 0.960201 0.0146863
v 0.00483387 0.962939 0.0268092
v 0.0245245 0.961685 -0.0749386
v 0.0272702 0.945091 -0.0677107
v 0.0524594 0.960378 -0.0455459
v 0.052099 0.96399 -0.0169232
v 0.00487782 0.977149 0.0114021
v 0.00476613 0.860288 0.0384848
v 0.00476058 0.888585 0.0449291
v 0.0590143 0.881295 -0.0461509
v 0.0632447 0.886103 -0.031622
v 0.041069 0.877712 -0.00868415
v 0.0237965 0.843289 -0.0136535
v 0.0329076 0.977994 -0.0186649
v 0.00513889 0.942612 -0.0979237
v 0.00511567 0.923328 -0.0915439
v 0.00494367 0.981761 -0.0141827
v 0.030049 0.86902 -0.00321402
v 0.0335415 0.872624 0.0190578
v 0.0522828 0.941178 -0.0537501
v 0.0541772 0.90384 -0.0515312
v 0.057729 0.908416 -0.029584
v 0.0602912 0.912752 -0.0162501
v 0.0256152 0.942519 -0.0593338
v 0.00479935 0.876955 0.0277231
v 0.0545572 0.877973 -0.0458185
v 0.0581481 0.883256 -0.0286019
v 0.0233178 0.855577 -0.0151279
v 0.0463856 0.87258 -0.0100712
v 0.00508959 0.921919 -0.081352
v -0.0406747 0.882465 0.00536647
v -0.0247473 0.863999 0.0260002
v -0.0304436 0.884162 0.02752
v -0.0219775 0.859093 0.000200658
v -0.0253733 0.968912 -0.0496595
v -0.0528291 0.907518 -0.031061
v -0.0457506 0.946858 -0.0504777
v -0.0485476 0.903575 -0.0509697
v -0.0510869 0.945396 -0.0402166
v -0.0514553 0.95105 -0.00649052
v -0.0559114 0.912612 -0.0154204
v -0.0569526 0.911972 0.00091786
v -0.0374547 0.918286 0.0286922
v -0.0334114 0.96023 0.0144944
v -0.0143474 0.961699 -0.0750361
v -0.0171417 0.945108 -0.067822
v -0.0424303 0.960414 -0.0457837
v -0.0422107 0.964026 -0.0171596
v -0.0490414 0.881335 -0.0464217
v -0.0533409 0.886146 -0.0319142
v -0.0312868 0.877739 -0.00886549
v -0.0140154 0.843304 -0.0137482
v -0.0230002 0.978015 -0.018805
v -0.0203009 0.869038 -0.00334021
v -0.0239023 0.872645 0.0189138
v -0.0422269 0.941213 -0.0539869
v -0.0441605 0.903877 -0.0517776
v -0.0478187 0.908455 -0.0298485
v -0.0504445 0.912794 -0.0165276
v -0.0155307 0.942534 -0.0594369
v -0.0445885 0.87801 -0.046067
v -0.0482616 0.883296 -0.0288686
v -0.0135201 0.855591 -0.0152202
v -0.0366002 0.872611 -0.0102791
# 85 texture vertices
vt 0.211924 -0.267669
vt 0.21832 -0.311261
vt 0.296103 -0.300425
vt 0.281424 -0.271959
vt 0.220724 -0.097702
vt 0.276667 -0.063441
vt 0.17168 -0.041521
vt 0.109139 -0.198401
vt 0.155208 -0.146026
vt 0.140785 -0.131478
vt 0.062653 -0.178823
vt 0.149571 -0.214486
vt 0.189028 -0.221015
vt 0.229295 -0.169338
vt 0.277117 -0.226956
vt 0.391964 -0.22808
vt 0.391433 -0.170779
vt 0.296727 -0.170914
vt 0.156343 -0.070939
vt 0.112032 -0.085494
vt 0.186738 -0.121832
vt 0.241908 -0.143207
vt 0.391192 -0.143241
vt 0.392677 -0.301903
vt 0.392356 -0.267615
vt 0.021066 -0.201836
vt 0.055294 -0.214006
vt 0.169895 -0.278938
vt 0.1736 -0.329975
vt 0.295691 -0.119078
vt 0.098941 -0.031106
vt 0.044168 -0.040678
vt 0.390861 -0.103884
vt 0.234566 -0.325918
vt 0.29374 -0.316467
vt 0.12288 -0.129866
vt 0.05498 -0.173768
vt 0.111237 -0.20543
vt 0.145015 -0.219036
vt 0.095595 -0.094004
vt 0.392893 -0.326053
vt 0.006977 -0.203844
vt 0.050479 -0.222052
vt 0.178015 -0.326892
vt 0.161589 -0.280765
vt 0.033909 -0.054068
vt 0.572906 -0.266911
vt 0.503388 -0.271496
vt 0.489234 -0.300018
vt 0.567231 -0.310521
vt 0.560898 -0.097
vt 0.60904 -0.040629
vt 0.504392 -0.062967
vt 0.674041 -0.197249
vt 0.720244 -0.177519
vt 0.641397 -0.130457
vt 0.627198 -0.145047
vt 0.553493 -0.168638
vt 0.594634 -0.220146
vt 0.633781 -0.213413
vt 0.50676 -0.226476
vt 0.486124 -0.170513
vt 0.624862 -0.069983
vt 0.669413 -0.084367
vt 0.595278 -0.120987
vt 0.540456 -0.142576
vt 0.76214 -0.2004
vt 0.72808 -0.212683
vt 0.612236 -0.329054
vt 0.61536 -0.278013
vt 0.486277 -0.118676
vt 0.681617 -0.029929
vt 0.73655 -0.039288
vt 0.491882 -0.316049
vt 0.551229 -0.325244
vt 0.727845 -0.172439
vt 0.659277 -0.128781
vt 0.638291 -0.21796
vt 0.672013 -0.204291
vt 0.685988 -0.092814
vt 0.776254 -0.202362
vt 0.733003 -0.220714
vt 0.607818 -0.325992
vt 0.623856 -0.279794
vt 0.747027 -0.052639
# 80 normals
vn 0.851836 -0.520659 0.0573633
vn -0.0870622 -0.905409 0.415518
vn 0.31503 -0.888698 0.333124
vn 0.658569 -0.229548 0.716655
vn 0.391528 0.84122 -0.3729
vn 0.00110136 0.955009 -0.296575
vn 0.00181892 0.794836 -0.606821
vn 0.934967 -0.257603 0.243879
vn 0.933865 0.213736 -0.286729
vn 0.725192 0.444139 -0.526153
vn 0.68948 -0.0653451 -0.721351
vn 0.90506 -0.368216 -0.212797
vn 0.959678 -0.127604 0.250469
vn 0.88755 0.393225 0.24006
vn 0.629135 0.0914477 0.771898
vn -0.00238703 0.192891 0.981217
vn -0.0018376 0.573815 0.818983
vn 0.549072 0.581319 0.600489
vn 0.513449 0.664873 -0.542507
vn 0.678852 -0.53839 -0.499296
vn 0.717139 0.576245 -0.391987
vn 0.688062 0.723944 0.0497592
vn -0.000828432 0.886311 0.46309
vn -0.00126484 -0.930845 0.365413
vn -0.00253396 -0.131884 0.991262
vn 0.672762 -0.480515 -0.56258
vn 0.892666 -0.316668 0.320733
vn 0.762913 -0.467592 0.446454
vn -0.285845 -0.938107 -0.195569
vn 0.375877 0.926525 0.0163741
vn 0.00251633 0.029331 -0.999566
vn 0.00137309 -0.751112 -0.660173
vn 0.000343806 0.999923 0.012388
vn -0.955476 -0.0354638 0.292928
vn -0.896144 -0.309474 -0.318043
vn 0.458365 0.235494 -0.856997
vn 0.171868 -0.117456 -0.978093
vn 0.0673005 -0.623692 0.778768
vn 0.083937 -0.912624 -0.400089
vn 0.482522 -0.841838 -0.24183
vn 0.00190228 -0.542436 -0.840095
vn 0.495043 -0.733957 -0.465016
vn 0.612417 -0.558151 0.559832
vn -0.806745 -0.101237 -0.582163
vn 0.217204 -0.109763 0.969935
vn -4.15298e-005 -0.99129 -0.131698
vn -0.852503 -0.52002 0.0530916
vn -0.662325 -0.229053 0.713345
vn -0.317362 -0.888461 0.331539
vn 0.0842993 -0.905473 0.415948
vn -0.389022 0.841513 -0.374857
vn -0.936371 -0.256902 0.239189
vn -0.685904 -0.0648294 -0.724799
vn -0.722213 0.444681 -0.52978
vn -0.932255 0.214436 -0.291406
vn -0.888447 0.39389 0.235609
vn -0.961017 -0.126884 0.245655
vn -0.904258 -0.367538 -0.217332
vn -0.632927 0.0919209 0.768735
vn -0.551639 0.581732 0.597731
vn -0.510225 0.665257 -0.545073
vn -0.676744 -0.537882 -0.502693
vn -0.714733 0.576782 -0.395576
vn -0.68776 0.72446 0.0463108
vn -0.670293 -0.480012 -0.565947
vn -0.894499 -0.315998 0.316254
vn 0.286119 -0.938322 -0.194136
vn -0.765492 -0.467019 0.442624
vn -0.375259 0.926807 0.0144915
vn 0.897495 -0.310147 -0.313546
vn 0.953969 -0.0361796 0.297714
vn -0.167051 -0.117329 -0.978942
vn -0.453886 0.235836 -0.859284
vn -0.0826145 -0.912562 -0.400507
vn -0.0716711 -0.62364 0.778419
vn -0.481935 -0.841476 -0.244247
vn -0.493256 -0.733587 -0.467493
vn -0.615634 -0.557691 0.556754
vn 0.809577 -0.101843 -0.578112
vn -0.222146 -0.109598 0.968834
usemtl _09_-_Defaultaaa
g Bob_Hair_Recede
s off
f 1/1/1 2/3/3 3/2/2
f 2/3/3 1/1/1 4/4/4
f 5/5/5 6/7/7 7/6/6
f 8/8/8 9/10/10 10/9/9
f 9/10/10 8/8/8 11/11/11
f 12/12/12 13/14/14 14/13/13
f 12/12/12 10/9/9 13/14/14
f 8/8/8 10/9/9 12/12/12
f 4/4/4 14/13/13 15/15/15
f 14/13/13 4/4/4 1/1/1
f 16/16/16 17/18/18 18/17/17
f 17/18/18 16/16/16 15/15/15
f 19/19/19 9/10/10 20/20/20
f 21/21/21 13/14/14 10/9/9
f 13/14/14 21/21/21 22/22/22
f 17/18/18 23/23/23 18/17/17
f 19/19/19 10/9/9 9/10/10
f 10/9/9 19/19/19 21/21/21
f 24/24/24 4/4/4 25/25/25
f 4/4/4 24/24/24 2/3/3
f 25/25/25 15/15/15 16/16/16
f 15/15/15 25/25/25 4/4/4
f 17/18/18 14/13/13 13/14/14
f 14/13/13 17/18/18 15/15/15
f 22/22/22 17/18/18 13/14/14
f 26/26/26 8/8/8 27/27/27
f 8/8/8 26/26/26 11/11/11
f 3/2/2 28/28/28 1/1/1
f 28/28/28 3/2/2 29/29/29
f 1/1/1 12/12/12 14/13/13
f 12/12/12 1/1/1 28/28/28
f 5/5/5 22/22/22 21/21/21
f 22/22/22 5/5/5 30/30/30
f 31/31/31 6/7/7 19/19/19
f 20/20/20 31/31/31 19/19/19
f 31/31/31 20/20/20 32/32/32
f 23/23/23 30/30/30 33/33/33
f 30/30/30 7/6/6 33/33/33
f 7/6/6 30/30/30 5/5/5
f 21/21/21 6/7/7 5/5/5
f 6/7/7 21/21/21 19/19/19
f 30/30/30 17/18/18 22/22/22
f 23/23/23 17/18/18 30/30/30
f 2/3/3 34/34/34 3/2/2
f 34/34/34 2/3/3 35/35/35
f 11/11/11 36/36/36 9/10/10
f 36/36/36 11/11/11 37/37/37
f 12/12/12 38/38/38 8/8/8
f 38/38/38 12/12/12 39/39/39
f 9/10/10 40/40/40 20/20/20
f 40/40/40 9/10/10 36/36/36
f 24/24/24 35/35/35 2/3/3
f 35/35/35 24/24/24 41/41/41
f 26/26/26 37/37/37 11/11/11
f 37/37/37 26/26/26 42/42/42
f 27/27/27 42/42/42 26/26/26
f 42/42/42 27/27/27 43/43/43
f 8/8/8 43/43/43 27/27/27
f 43/43/43 8/8/8 38/38/38
f 3/2/2 44/44/44 29/29/29
f 44/44/44 3/2/2 34/34/34
f 45/45/45 29/29/29 44/44/44
f 29/29/29 45/45/45 28/28/28
f 39/39/39 28/28/28 45/45/45
f 28/28/28 39/39/39 12/12/12
f 20/20/20 46/46/46 32/32/32
f 46/46/46 20/20/20 40/40/40
f 47/47/47 48/49/49 49/48/48
f 48/49/49 47/47/47 50/50/50
f 51/51/51 7/53/6 6/52/7
f 52/54/52 53/56/54 54/55/53
f 53/56/54 52/54/52 55/57/55
f 56/58/56 57/60/58 58/59/57
f 55/57/55 57/60/58 56/58/56
f 52/54/52 57/60/58 55/57/55
f 49/48/48 58/59/57 47/47/47
f 58/59/57 49/48/48 59/61/59
f 16/16/16 60/62/60 59/61/59
f 60/62/60 16/16/16 18/17/17
f 61/63/61 62/64/62 53/56/54
f 63/65/63 56/58/56 64/66/64
f 56/58/56 63/65/63 55/57/55
f 60/62/60 18/17/17 23/23/23
f 61/63/61 55/57/55 63/65/63
f 55/57/55 61/63/61 53/56/54
f 24/24/24 49/48/48 48/49/49
f 49/48/48 24/24/24 25/25/25
f 25/25/25 59/61/59 49/48/48
f 59/61/59 25/25/25 16/16/16
f 60/62/60 58/59/57 59/61/59
f 58/59/57 60/62/60 56/58/56
f 64/66/64 56/58/56 60/62/60
f 65/67/65 52/54/52 54/55/53
f 52/54/52 65/67/65 66/68/66
f 50/50/50 67/70/68 68/69/67
f 67/70/68 50/50/50 47/47/47
f 47/47/47 57/60/58 67/70/68
f 57/60/58 47/47/47 58/59/57
f 51/51/51 64/66/64 69/71/69
f 64/66/64 51/51/51 63/65/63
f 31/72/31 61/63/61 6/52/7
f 62/64/62 31/72/31 32/73/32
f 31/72/31 62/64/62 61/63/61
f 23/23/23 33/33/33 69/71/69
f 69/71/69 7/53/6 51/51/51
f 7/53/6 69/71/69 33/33/33
f 63/65/63 6/52/7 61/63/61
f 6/52/7 63/65/63 51/51/51
f 69/71/69 64/66/64 60/62/60
f 23/23/23 69/71/69 60/62/60
f 48/49/49 70/75/71 71/74/70
f 70/75/71 48/49/49 50/50/50
f 54/55/53 72/77/73 73/76/72
f 72/77/73 54/55/53 53/56/54
f 57/60/58 74/79/75 75/78/74
f 74/79/75 57/60/58 52/54/52
f 53/56/54 76/80/76 72/77/73
f 76/80/76 53/56/54 62/64/62
f 24/24/24 71/74/70 41/41/41
f 71/74/70 24/24/24 48/49/49
f 65/67/65 73/76/72 77/81/77
f 73/76/72 65/67/65 54/55/53
f 66/68/66 77/81/77 78/82/78
f 77/81/77 66/68/66 65/67/65
f 52/54/52 78/82/78 74/79/75
f 78/82/78 52/54/52 66/68/66
f 50/50/50 79/83/79 70/75/71
f 79/83/79 50/50/50 68/69/67
f 80/84/80 68/69/67 67/70/68
f 68/69/67 80/84/80 79/83/79
f 75/78/74 67/70/68 57/60/58
f 67/70/68 75/78/74 80/84/80
f 62/64/62 46/85/46 76/80/76
f 46/85/46 62/64/62 32/73/32
