# Wavefront OBJ
# Created by fragMOTION 1.3.7
# http://www.fragmosoft.com

mtllib Bob_Hair_MohawkShort.mtl
# 28 vertices
v -0.00426174 0.957164 -0.0776797
v -0.00330058 0.953372 -0.0990803
v -0.0042384 0.945441 -0.0887461
v -0.00332825 0.965792 -0.0861813
v 0.0133634 0.953366 -0.0990385
v 0.0142436 0.945434 -0.0886998
v 0.0133357 0.965786 -0.0861396
v 0.0142202 0.957157 -0.0776335
v 0.0132741 0.978513 -0.0596259
v 0.0141723 0.970849 -0.0564675
v 0.0133858 0.986459 -0.0196014
v 0.0140851 0.977776 -0.0206054
v 0.013285 0.970541 0.0182975
v 0.013999 0.962462 0.01151
v 0.013007 0.919775 0.0403186
v 0.0139324 0.917853 0.0315174
v 0.0132144 0.880535 0.0327553
v 0.0139374 0.876291 0.0233161
v -0.00386557 0.880542 0.0327125
v -0.00454451 0.876298 0.0232698
v -0.00366691 0.919781 0.0402769
v -0.00454959 0.917859 0.0314711
v -0.00379691 0.970547 0.0182547
v -0.00448291 0.962469 0.0114637
v -0.00369612 0.986466 -0.0196441
v -0.00439683 0.977783 -0.0206517
v -0.00338988 0.978519 -0.0596677
v -0.00430963 0.970856 -0.0565138
# 32 texture vertices
vt 0.640625 -0.328125
vt 0.734375 -0.328125
vt 0.734375 -0.21875
vt 0.640625 -0.21875
vt 0.78125 -0.21875
vt 0.78125 -0.132813
vt 0.734375 -0.132813
vt 0.734375 -0.023438
vt 0.640625 -0.023438
vt 0.640625 -0.132813
vt 0.570313 -0.023438
vt 0.570313 -0.132813
vt 0.453125 -0.023438
vt 0.453125 -0.132813
vt 0.296875 -0.023438
vt 0.296875 -0.132813
vt 0.140625 -0.023438
vt 0.140625 -0.132813
vt 0.046875 -0.023438
vt 0.046875 -0.132813
vt 0 -0.132813
vt 0 -0.21875
vt 0.046875 -0.21875
vt 0.046875 -0.328125
vt 0.140625 -0.328125
vt 0.140625 -0.21875
vt 0.296875 -0.328125
vt 0.296875 -0.21875
vt 0.453125 -0.328125
vt 0.453125 -0.21875
vt 0.570313 -0.328125
vt 0.570313 -0.21875
# 28 normals
vn -0.997093 0.0585495 -0.0487549
vn -0.744113 -0.495636 -0.447929
vn -0.546031 -0.037761 -0.836914
vn -0.645095 0.6254 -0.439007
vn 0.746724 -0.49456 -0.444762
vn 0.550856 -0.0380865 -0.833731
vn 0.997033 0.0634086 -0.0436435
vn 0.648997 0.624785 -0.434104
vn 0.99435 0.098265 -0.0401511
vn 0.643936 0.724731 -0.245176
vn 0.9969 0.0779551 0.0106069
vn 0.621041 0.779643 0.0804045
vn 0.997546 0.043652 0.0547334
vn 0.610076 0.562032 0.558505
vn 0.994867 0.0113155 0.10056
vn 0.611376 0.0882885 0.7864
vn 0.522028 -0.762267 0.38267
vn 0.583943 -0.49197 0.645737
vn -0.525012 -0.760639 0.381826
vn -0.589885 -0.489756 0.642008
vn -0.995269 0.00638859 0.0969511
vn -0.615125 0.0865994 0.783659
vn -0.997828 0.0471596 0.0459847
vn -0.612388 0.563553 0.554426
vn -0.996677 0.0812995 0.00503273
vn -0.62191 0.779308 0.0768575
vn -0.994307 0.100303 -0.0359513
vn -0.641101 0.727468 -0.244498
usemtl _09_-_Defaultaaa
g Bob_Hair_MohawkShort
s off
f 1/1/1 2/3/3 3/2/2
f 2/3/3 1/1/1 4/4/4
f 3/5/2 5/7/6 6/6/5
f 5/7/6 3/5/2 2/3/3
f 6/8/5 7/10/8 8/9/7
f 7/10/8 6/8/5 5/7/6
f 8/9/7 9/12/10 10/11/9
f 9/12/10 8/9/7 7/10/8
f 10/11/9 11/14/12 12/13/11
f 11/14/12 10/11/9 9/12/10
f 12/13/11 13/16/14 14/15/13
f 13/16/14 12/13/11 11/14/12
f 14/15/13 15/18/16 16/17/15
f 15/18/16 14/15/13 13/16/14
f 16/17/15 17/20/18 18/19/17
f 17/20/18 16/17/15 15/18/16
f 18/21/17 19/23/20 20/22/19
f 19/23/20 18/21/17 17/20/18
f 20/24/19 21/26/22 22/25/21
f 21/26/22 20/24/19 19/23/20
f 22/25/21 23/28/24 24/27/23
f 23/28/24 22/25/21 21/26/22
f 24/27/23 25/30/26 26/29/25
f 25/30/26 24/27/23 23/28/24
f 26/29/25 27/32/28 28/31/27
f 27/32/28 26/29/25 25/30/26
f 28/31/27 4/4/4 1/1/1
f 4/4/4 28/31/27 27/32/28
f 5/7/6 4/4/4 7/10/8
f 4/4/4 5/7/6 2/3/3
f 7/10/8 27/32/28 9/12/10
f 27/32/28 7/10/8 4/4/4
f 9/12/10 25/30/26 11/14/12
f 25/30/26 9/12/10 27/32/28
f 11/14/12 23/28/24 13/16/14
f 23/28/24 11/14/12 25/30/26
f 13/16/14 21/26/22 15/18/16
f 21/26/22 13/16/14 23/28/24
f 15/18/16 19/23/20 17/20/18
f 19/23/20 15/18/16 21/26/22
