# Wavefront OBJ
# Created by fragMOTION 1.3.7
# http://www.fragmosoft.com

mtllib Bob_Hair_MohawkFlat.mtl
# 146 vertices
v 0.0113893 0.918267 0.0148233
v 0.0176688 0.885699 0.0413637
v -0.00490798 0.914624 0.0199605
v -0.00197181 0.92284 0.0350992
v 0.0143255 0.926483 0.029961
v 0.00584283 0.936404 0.0212918
v 0.00448665 0.928187 0.00615703
v -0.00179947 0.932758 0.0264507
v -0.00315665 0.924541 0.0113169
v 0.0080361 0.930397 0.0266847
v -0.00542793 0.897367 0.03735
v -0.00827504 0.931847 0.0249349
v -0.00994928 0.939255 0.0369144
v 0.00635424 0.934705 0.04125
v 0.0136017 0.945323 0.0262884
v 0.00483707 0.932104 0.0189583
v -0.000611904 0.956401 0.0221484
v -0.00937762 0.943553 0.0153196
v 0.014506 0.946351 0.0171014
v 0.0165118 0.917534 0.0400746
v -0.000944891 0.952259 0.0227258
v 0.00685532 0.958948 0.035232
v 0.0217766 0.954026 0.0268108
v 0.0186335 0.96301 0.0054356
v 0.00523725 0.945441 0.0108813
v 0.00568203 0.970075 0.0126296
v -0.00672653 0.957058 0.0160975
v 0.00842484 0.973829 -0.00311218
v 0.00295285 0.956124 0.0014389
v 0.00234532 0.97401 0.00270598
v -0.00573353 0.964559 0.00522653
v 0.00245708 0.95477 0.0187195
v -0.0239129 0.931565 0.0308073
v -0.00643403 0.955657 0.00370431
v -0.0168748 0.967849 0.0106077
v -0.0079827 0.966962 0.0256219
v 0.0135548 0.963342 0.0089487
v 0.00582501 0.94929 0.00955062
v 0.00659624 0.971718 -0.000789874
v -0.00112153 0.956549 -0.00474298
v 0.0085083 0.969733 -0.010293
v -0.00225731 0.954938 0.0468582
v -0.00895323 0.969782 -0.010899
v -0.00914523 0.984905 -0.00385998
v 0.00831726 0.985827 -0.00349193
v 0.00191025 0.982505 -0.0147777
v 0.00513274 0.972599 -0.0124477
v -0.0076775 0.983447 -0.0107587
v -0.00754519 0.972635 -0.0128875
v 0.0078232 0.967656 -0.00976492
v 0.0031055 0.989026 -0.0175014
v 0.0146857 0.979087 -0.0210583
v -0.00375447 0.979202 -0.00660188
v 0.0182606 0.969691 -0.00759772
v 0.0264234 0.952738 0.0231254
v 0.00460804 0.977995 0.000618014
v 0.0149881 0.990188 0.00760852
v 0.0286412 0.983502 -0.00100303
v -0.00645238 0.972375 -0.0312257
v -0.026926 0.974226 -0.0491062
v 0.0086179 0.974699 -0.0397566
v 0.00712237 0.994234 -0.0382423
v -0.00795012 0.98966 -0.0291608
v 0.000857795 0.969451 -0.0177361
v 7.9393e-006 0.963731 -0.0342244
v 0.0172696 0.974805 -0.0204395
v 0.0164188 0.969085 -0.0369278
v 0.00883939 0.974237 -0.0188513
v -0.0230076 0.971628 0.00588009
v -0.00720645 0.972605 -0.0255716
v -0.0093996 0.989908 -0.0245393
v 0.00664724 0.991541 -0.017819
v 0.00588773 0.984685 -0.030221
v 0.00723337 0.974061 -0.0308547
v -0.00396335 0.983683 -0.0343462
v -0.00261771 0.973059 -0.0349799
v 0.012647 0.97171 -0.0390571
v -0.00208741 0.982906 -0.0288432
v 0.0126236 0.979259 -0.0393341
v -1.44829e-005 0.97557 -0.0131217
v 0.0209326 0.97157 -0.0236901
v 0.0454351 0.968834 0.00409576
v 0.0096545 0.977923 -0.0119538
v 0.0166551 0.993821 -0.013832
v 0.0279332 0.987468 -0.0255693
v 0.00781882 0.963292 -0.0510094
v 0.0443867 0.977918 -0.038352
v 0.0046454 0.967225 -0.0342834
v 0.00198869 0.983917 -0.0387146
v 0.00750326 0.979966 -0.0554986
v -0.000962393 0.962881 -0.0466032
v -0.0246397 0.960715 -0.0895685
v 0.0132891 0.963233 -0.0567065
v 0.010808 0.979629 -0.0594503
v -0.00344279 0.979931 -0.0495085
v -0.00194571 0.973645 -0.0416828
v -0.0322355 0.976198 -0.0649967
v 0.00223993 0.971425 -0.0534498
v 0.00173388 0.981421 -0.0567384
v -0.00135077 0.98612 -0.0461963
v 0.00623692 0.981195 -0.0447964
v 0.00255831 0.972705 -0.0438219
v 0.00664829 0.97913 -0.0552382
v 0.0067364 0.968927 -0.0528017
v -0.000754245 0.962552 -0.061492
v 0.0310797 0.972862 -0.0826724
v 0.0124868 0.965005 -0.0503589
v 0.0106193 0.982305 -0.0519503
v -0.00262183 0.979851 -0.0630834
v -0.00366869 0.977089 -0.058359
v -0.0018011 0.95979 -0.0567675
v 0.0095724 0.979543 -0.0472259
v 0.01144 0.962243 -0.0456345
v -0.00259234 0.95206 -0.0730027
v -0.0106161 0.949795 -0.11578
v 0.0141474 0.950852 -0.0778626
v 0.0110388 0.965663 -0.0870014
v -0.00416708 0.965017 -0.0859655
v 0.00115003 0.969607 -0.0713382
v -0.00401772 0.957146 -0.0661058
v 0.0146869 0.965242 -0.0747212
v 0.0122192 0.951998 -0.0699999
v 0.00480943 0.975406 -0.0953992
v 0.0145814 0.958274 -0.0803457
v 0.0347247 0.956794 -0.0826412
v 0.0182649 0.958157 -0.072169
v 0.0207746 0.966709 -0.0731769
v 0.0170911 0.966825 -0.0813536
v 0.0127416 0.964465 -0.0790853
v 0.0126193 0.95743 -0.0784437
v 0.0134006 0.965868 -0.0712884
v 0.0163028 0.957314 -0.070267
v -0.00413134 0.958378 -0.0664721
v 0.0122646 0.977636 -0.0607879
v -0.00299005 0.972741 -0.0692472
v 0.0116029 0.960172 -0.0590912
v 0.0291331 0.936546 -0.111393
v -0.00018578 0.946937 -0.0879655
v 0.00220498 0.940269 -0.112824
v 0.0109273 0.945618 -0.0901584
v 0.0110773 0.95571 -0.0954665
v -3.57389e-005 0.957029 -0.0932735
v 0.00172823 0.95639 -0.0901585
v 0.00157819 0.946297 -0.0848502
v 0.0129051 0.957124 -0.0839783
v 0.0126912 0.944978 -0.0870441
# 187 texture vertices
vt 0.825157 -0.788336
vt 0.937213 -0.71941
vt 0.676543 -0.482306
vt 0.477444 -0.772706
vt 0.598239 -0.802588
vt 0.709938 -0.808269
vt 0.71388 -0.921171
vt 0.874325 -0.89488
vt 0.604316 -0.895801
vt 0.451104 -0.886814
vt 0.936575 -0.832778
vt 0.77988 -0.760118
vt 0.900749 -0.712266
vt 0.740933 -0.4029
vt 0.50078 -0.660687
vt 0.566633 -0.722342
vt 0.676554 -0.744305
vt 0.692416 -0.886733
vt 0.826631 -0.80648
vt 0.516191 -0.897357
vt 0.427014 -0.778599
vt 0.973007 -0.806381
vt 0.445426 -0.654382
vt 0.554748 -0.736763
vt 0.644192 -0.386556
vt 0.646651 -0.707882
vt 0.753421 -0.681619
vt 0.847456 -0.654972
vt 0.812669 -0.844565
vt 0.938841 -0.71512
vt 0.690571 -0.884291
vt 0.561346 -0.817461
vt 0.436355 -0.766298
vt 0.812217 -0.971867
vt 0.931997 -0.845413
vt 0.699634 -0.970637
vt 0.572618 -0.920105
vt 0.458293 -0.893706
vt 0.768279 -0.741408
vt 0.888503 -0.688326
vt 0.672169 -0.453015
vt 0.477112 -0.733681
vt 0.57592 -0.741859
vt 0.664643 -0.730109
vt 0.724031 -0.907924
vt 0.833916 -0.800771
vt 0.565991 -0.92106
vt 0.442615 -0.8245
vt 0.949569 -0.729147
vt 0.811815 -0.856559
vt 0.94872 -0.807844
vt 0.701 -0.373037
vt 0.426873 -0.820414
vt 0.560816 -0.850153
vt 0.68627 -0.852835
vt 0.686199 -0.947993
vt 0.816881 -0.889421
vt 0.5501 -0.905575
vt 0.440188 -0.861352
vt 0.943648 -0.847546
vt 1.65063 0.596693
vt 1.73836 0.544784
vt 1.58967 0.581534
vt 1.50194 0.633443
vt 0.457177 -0.669622
vt 0.570753 -0.759918
vt 0.646856 -0.412943
vt 0.670231 -0.735984
vt 0.759215 -0.70256
vt 0.875125 -0.661981
vt 0.869594 -0.851973
vt 0.962211 -0.708362
vt 0.704114 -0.935754
vt 0.553733 -0.859645
vt 0.448732 -0.761432
vt 0.504722 -0.617919
vt 0.545652 -0.760091
vt 0.712921 -0.402542
vt 0.654058 -0.770706
vt 0.743427 -0.7274
vt 0.865379 -0.704875
vt 0.856639 -0.896409
vt 0.960802 -0.746676
vt 0.650911 -0.970154
vt 0.501118 -0.845716
vt 0.438882 -0.696888
vt 0.43533 -0.790958
vt 0.5733 -0.804316
vt 0.632355 -0.406603
vt 0.696481 -0.806638
vt 0.803019 -0.791751
vt 0.903911 -0.742973
vt 0.814019 -0.879921
vt 0.924232 -0.865273
vt 0.683804 -0.89763
vt 0.571096 -0.894271
vt 0.47944 -0.883295
vt 0.734884 -0.927482
vt 0.747862 -0.889302
vt 0.617259 -0.854595
vt 0.547501 -0.779144
vt 0.514855 -0.796041
vt 0.574766 -0.738824
vt 0.702332 -0.408704
vt 0.685692 -0.712873
vt 0.778339 -0.723339
vt 0.878824 -0.748611
vt 0.459361 -0.788731
vt 0.566323 -0.86164
vt 0.681751 -0.577833
vt 0.691412 -0.894938
vt 0.816901 -0.847595
vt 0.919545 -0.771196
vt 0.426553 -0.820124
vt 0.565707 -0.899796
vt 0.680321 -0.455549
vt 0.72282 -0.932405
vt 0.835271 -0.842386
vt 0.976977 -0.785947
vt 0.822789 -0.932059
vt 0.878256 -0.903943
vt 0.929095 -0.924481
vt 0.467738 -0.873428
vt 0.583525 -0.906806
vt 0.7 -0.526577
vt 0.678808 -0.89559
vt 0.774692 -0.882998
vt 0.882285 -0.853934
vt 0.795039 -0.951215
vt 0.888205 -0.910123
vt 0.673788 -0.946811
vt 0.573683 -0.956206
vt 0.488968 -0.913015
vt 0.521981 -0.760212
vt 0.573576 -0.85419
vt 0.648091 -0.479466
vt 0.686736 -0.866192
vt 0.76826 -0.747025
vt 0.917141 -0.720757
vt 0.704763 -0.87368
vt 0.498305 -0.867474
vt 0.686967 -0.923639
vt 0.525892 -0.903085
vt 0.461633 -0.797757
vt 0.560619 -0.864145
vt 0.698941 -0.422302
vt 0.675085 -0.836692
vt 0.781403 -0.792776
vt 0.909311 -0.797905
vt 0.81662 -0.924758
vt 0.917939 -0.864751
vt 0.644434 -0.939589
vt 0.52782 -0.904355
vt 0.408532 -0.836093
vt 0.72365 -0.829056
vt 0.435409 -0.761307
vt 0.566787 -0.838026
vt 0.680403 -0.433916
vt 0.7026 -0.838488
vt 0.823945 -0.82193
vt 0.944276 -0.762564
vt 0.866569 -0.881746
vt 0.984413 -0.803459
vt 0.709564 -0.953019
vt 0.551994 -0.888152
vt 0.425477 -0.808218
vt -0.562112 -1.23653
vt -0.495717 -1.27523
vt -0.29951 -1.21651
vt -0.359757 -1.18903
vt 0.43755 -0.846072
vt 0.57473 -0.896045
vt 0.67594 -0.404937
vt 0.703193 -0.966913
vt 0.844963 -0.913833
vt 0.937125 -0.83297
vt 0.508576 -0.807329
vt 0.596691 -0.857297
vt 0.698877 -0.504649
vt 0.689642 -0.857246
vt 0.775035 -0.846497
vt 0.850479 -0.792187
vt 0.784531 -0.867951
vt 0.87938 -0.80917
vt 0.686804 -0.952958
vt 0.586583 -0.890428
vt 0.502258 -0.838403
# 146 normals
vn 0.64685 -0.271818 -0.712531
vn -0.829779 -0.45572 -0.32216
vn 0.318877 -0.857581 0.403574
vn -0.583682 0.232297 0.778044
vn 0.772095 0.493561 0.400334
vn 0.698091 0.69646 0.166167
vn 0.574089 -0.237786 -0.783505
vn -0.541346 0.581532 0.60726
vn -0.658897 -0.44462 -0.606768
vn 0.770324 -0.567464 -0.290836
vn -0.742937 -0.439793 -0.504606
vn -0.131179 -0.981395 0.140202
vn -0.728693 0.314724 0.60824
vn 0.505175 0.100562 0.857138
vn 0.804789 0.332578 0.491636
vn 0.197446 -0.845624 -0.495919
vn -0.351343 0.767487 0.536211
vn -0.966977 0.0379186 -0.252027
vn 0.441362 -0.722293 -0.532439
vn -0.805931 -0.50238 0.313194
vn 0.145008 -0.911369 0.385201
vn -0.196801 0.501699 0.842359
vn 0.935565 0.245255 0.254103
vn 0.854398 0.188933 -0.484054
vn -0.151028 -0.922448 -0.355358
vn -0.000800801 0.921612 0.388112
vn -0.987586 -0.0622443 0.144222
vn 0.799635 0.597944 -0.0552083
vn 0.112675 -0.644395 -0.756346
vn 0.0660143 0.894925 0.441306
vn -0.952968 0.275452 0.126401
vn 0.604463 -0.494647 0.624459
vn -0.525043 -0.694274 -0.492253
vn -0.454788 -0.784452 0.421667
vn -0.781151 0.573956 -0.245719
vn -0.0243934 0.608461 0.793209
vn 0.666647 0.428588 0.609832
vn 0.00930511 -0.92724 0.374353
vn -0.0428592 0.981434 -0.186952
vn -0.623289 -0.25812 -0.738163
vn 0.705718 -0.531107 -0.468921
vn -0.672128 -0.571231 -0.471104
vn -0.0337298 -0.386759 0.921564
vn -0.693699 0.713587 0.0978535
vn 0.667046 0.743075 0.0537539
vn 0.440575 0.740577 -0.507385
vn 0.304879 -0.316154 -0.898385
vn -0.644403 0.70198 -0.303265
vn -0.629551 -0.24497 -0.73733
vn -0.291408 -0.949021 -0.12017
vn 0.273635 -0.058522 -0.960052
vn -0.451471 0.623714 -0.638087
vn -0.992345 -0.0984237 0.0745918
vn 0.381165 -0.839054 -0.388203
vn -0.679633 -0.321112 0.659535
vn 0.256842 -0.726962 0.636835
vn -0.0618468 0.804485 0.590743
vn 0.910688 0.398935 -0.107227
vn -0.752224 -0.627733 0.200273
vn 0.171309 -0.194298 -0.965868
vn -0.838247 -0.241743 -0.488776
vn 0.385592 0.86717 -0.315176
vn -0.514275 0.68722 0.513079
vn -0.530856 0.10505 0.840926
vn -0.625891 -0.440502 -0.643598
vn 0.579619 0.632576 0.513702
vn 0.655369 0.0193284 -0.755062
vn 0.795051 -0.533489 0.288588
vn -0.55993 -0.769449 -0.30729
vn -0.597442 -0.26991 0.755124
vn -0.614318 0.73344 -0.290997
vn 0.583992 0.766837 0.266297
vn 0.696252 0.609295 -0.379464
vn 0.66685 -0.741056 -0.0784
vn -0.638813 0.438312 -0.632298
vn -0.533087 -0.79173 -0.298298
vn 0.109304 -0.671768 -0.732653
vn 0.128625 0.327783 -0.935956
vn -0.883403 0.299407 -0.360492
vn -0.654986 -0.426806 0.623563
vn 0.255711 -0.926971 -0.274475
vn -0.233828 -0.475411 0.848121
vn 0.703312 -0.356891 0.614802
vn -0.106895 0.933837 0.341352
vn 0.65717 0.513158 -0.552084
vn 0.457441 -0.789487 -0.409216
vn -0.356092 -0.335392 0.872187
vn 0.979698 0.1099 0.167674
vn -0.43157 0.747504 0.50496
vn 0.0776439 0.900975 -0.426868
vn -0.764429 -0.49344 0.414929
vn 0.496583 -0.695071 -0.519886
vn -0.61068 -0.221929 -0.760143
vn 0.277736 0.659652 -0.698371
vn -0.750201 0.651966 0.110177
vn -0.211575 -0.440658 0.872386
vn -0.154986 -0.821264 -0.549094
vn -0.900599 -0.0559244 -0.431037
vn 0.297505 0.507607 -0.808595
vn -0.0447302 0.909724 0.412797
vn 0.442755 0.678152 0.586581
vn 0.0665535 -0.787819 0.612301
vn 0.44777 0.348768 -0.823324
vn -0.324907 -0.789631 -0.520498
vn -0.464011 -0.66838 -0.581345
vn 0.870194 -0.483581 0.0944051
vn 0.705342 0.010896 -0.708784
vn 0.339941 0.872046 0.352101
vn -0.682442 0.603672 -0.412133
vn -0.917698 0.396268 0.0283243
vn -0.0329246 -0.859656 -0.50981
vn 0.66259 0.573327 0.481944
vn 0.862202 -0.496727 -0.0993425
vn -0.622224 -0.691011 0.367887
vn 0.712071 -0.701239 -0.0349162
vn -0.381651 -0.240991 -0.892337
vn 0.803991 0.133401 -0.579485
vn -0.863065 0.484655 -0.14223
vn -0.618681 0.757701 0.207661
vn -0.944479 -0.320718 -0.0714148
vn 0.905283 0.424785 -0.00462122
vn 0.309881 -0.927031 0.211158
vn 0.0129277 0.569165 -0.822122
vn -0.294487 -0.607144 -0.738006
vn 0.528986 -0.708974 0.466401
vn 0.899337 -0.30134 -0.316839
vn 0.435944 0.721439 0.538032
vn -0.128887 0.715617 -0.686499
vn -0.625318 0.491324 -0.606283
vn -0.131865 -0.848597 -0.512342
vn -0.022276 0.778421 0.627348
vn 0.560737 -0.595081 0.575719
vn -0.843504 -0.438461 0.310246
vn -0.744151 0.664658 -0.0668474
vn 0.312444 0.818465 0.482175
vn 0.31094 -0.377484 0.872251
vn 0.404167 -0.490249 -0.772208
vn -0.835355 -0.466791 0.290324
vn 0.518036 -0.809237 -0.277082
vn -0.140969 -0.459211 -0.877071
vn 0.64923 0.593828 -0.475257
vn -0.670764 0.732303 -0.117509
vn -0.554846 0.695229 0.456949
vn -0.551885 -0.821403 0.143941
vn 0.785987 0.595634 -0.165663
vn 0.652806 -0.679731 -0.33438
usemtl _09_-_Defaultaaa
g Bob_Hair_MohawkFlat
s off
f 1/1/1 2/3/3 3/2/2
f 3/4/2 2/3/3 4/5/4
f 4/5/4 2/3/3 5/6/5
f 5/6/5 2/3/3 1/1/1
f 1/1/1 6/7/6 5/6/5
f 6/7/6 1/1/1 7/8/7
f 5/6/5 8/9/8 4/5/4
f 8/9/8 5/6/5 6/7/6
f 4/5/4 9/10/9 3/4/2
f 9/10/9 4/5/4 8/9/8
f 3/2/2 7/8/7 1/1/1
f 7/8/7 3/2/2 9/11/9
f 10/12/10 11/14/12 12/13/11
f 12/15/11 11/14/12 13/16/13
f 13/16/13 11/14/12 14/17/14
f 14/17/14 11/14/12 10/12/10
f 10/12/10 15/18/15 14/17/14
f 15/18/15 10/12/10 16/19/16
f 14/17/14 17/20/17 13/16/13
f 17/20/17 14/17/14 15/18/15
f 13/16/13 18/21/18 12/15/11
f 18/21/18 13/16/13 17/20/17
f 12/13/11 16/19/16 10/12/10
f 16/19/16 12/13/11 18/22/18
f 19/23/19 20/25/21 21/24/20
f 21/24/20 20/25/21 22/26/22
f 22/26/22 20/25/21 23/27/23
f 23/27/23 20/25/21 19/28/19
f 19/28/19 24/29/24 23/27/23
f 24/29/24 19/28/19 25/30/25
f 23/27/23 26/31/26 22/26/22
f 26/31/26 23/27/23 24/29/24
f 22/26/22 27/32/27 21/24/20
f 27/32/27 22/26/22 26/31/26
f 21/24/20 25/33/25 19/23/19
f 25/33/25 21/24/20 27/32/27
f 25/30/25 28/34/28 24/29/24
f 28/34/28 25/30/25 29/35/29
f 24/29/24 30/36/30 26/31/26
f 30/36/30 24/29/24 28/34/28
f 26/31/26 31/37/31 27/32/27
f 31/37/31 26/31/26 30/36/30
f 27/32/27 29/38/29 25/33/25
f 29/38/29 27/32/27 31/37/31
f 32/39/32 33/41/34 34/40/33
f 34/42/33 33/41/34 35/43/35
f 35/43/35 33/41/34 36/44/36
f 36/44/36 33/41/34 32/39/32
f 32/39/32 37/45/37 36/44/36
f 37/45/37 32/39/32 38/46/38
f 36/44/36 39/47/39 35/43/35
f 39/47/39 36/44/36 37/45/37
f 35/43/35 40/48/40 34/42/33
f 40/48/40 35/43/35 39/47/39
f 34/40/33 38/46/38 32/39/32
f 38/46/38 34/40/33 40/49/40
f 41/50/41 42/52/43 43/51/42
f 43/53/42 42/52/43 44/54/44
f 44/54/44 42/52/43 45/55/45
f 45/55/45 42/52/43 41/50/41
f 41/50/41 46/56/46 45/55/45
f 46/56/46 41/50/41 47/57/47
f 45/55/45 48/58/48 44/54/44
f 48/58/48 45/55/45 46/56/46
f 44/54/44 49/59/49 43/53/42
f 49/59/49 44/54/44 48/58/48
f 43/51/42 47/57/47 41/50/41
f 47/57/47 43/51/42 49/60/49
f 50/61/50 51/63/52 52/62/51
f 51/63/52 50/61/50 53/64/53
f 54/65/54 55/67/56 56/66/55
f 56/66/55 55/67/56 57/68/57
f 57/68/57 55/67/56 58/69/58
f 58/69/58 55/67/56 54/70/54
f 54/70/54 52/71/51 58/69/58
f 52/71/51 54/70/54 50/72/50
f 58/69/58 51/73/52 57/68/57
f 51/73/52 58/69/58 52/71/51
f 57/68/57 53/74/53 56/66/55
f 53/74/53 57/68/57 51/73/52
f 56/66/55 50/75/50 54/65/54
f 50/75/50 56/66/55 53/74/53
f 59/76/59 60/78/61 61/77/60
f 61/77/60 60/78/61 62/79/62
f 62/79/62 60/78/61 63/80/63
f 63/80/63 60/78/61 59/81/59
f 59/81/59 64/82/64 63/80/63
f 64/82/64 59/81/59 65/83/65
f 63/80/63 66/84/66 62/79/62
f 66/84/66 63/80/63 64/82/64
f 62/79/62 67/85/67 61/77/60
f 67/85/67 62/79/62 66/84/66
f 61/77/60 65/86/65 59/76/59
f 65/86/65 61/77/60 67/85/67
f 68/87/68 69/89/70 70/88/69
f 70/88/69 69/89/70 71/90/71
f 71/90/71 69/89/70 72/91/72
f 72/91/72 69/89/70 68/92/68
f 68/92/68 73/93/73 72/91/72
f 73/93/73 68/92/68 74/94/74
f 73/93/73 71/90/71 72/91/72
f 71/90/71 73/93/73 75/95/75
f 71/90/71 76/96/76 70/88/69
f 76/96/76 71/90/71 75/95/75
f 70/88/69 74/97/74 68/87/68
f 74/97/74 70/88/69 76/96/76
f 77/98/77 78/100/79 79/99/78
f 78/100/79 77/98/77 80/101/80
f 81/102/81 82/104/83 83/103/82
f 83/103/82 82/104/83 84/105/84
f 84/105/84 82/104/83 85/106/85
f 85/106/85 82/104/83 81/107/81
f 81/107/81 79/99/78 85/106/85
f 79/99/78 81/107/81 77/98/77
f 85/106/85 78/100/79 84/105/84
f 78/100/79 85/106/85 79/99/78
f 84/105/84 80/101/80 83/103/82
f 80/101/80 84/105/84 78/100/79
f 83/103/82 77/98/77 81/102/81
f 77/98/77 83/103/82 80/101/80
f 86/108/86 87/110/88 88/109/87
f 88/109/87 87/110/88 89/111/89
f 89/111/89 87/110/88 90/112/90
f 90/112/90 87/110/88 86/113/86
f 91/114/91 92/116/93 93/115/92
f 93/115/92 92/116/93 94/117/94
f 94/117/94 92/116/93 95/118/95
f 95/118/95 92/116/93 91/119/91
f 90/120/90 95/118/95 89/121/89
f 95/118/95 90/120/90 94/117/94
f 95/118/95 88/122/87 89/121/89
f 88/122/87 95/118/95 91/119/91
f 96/123/96 97/125/98 98/124/97
f 98/124/97 97/125/98 99/126/99
f 99/126/99 97/125/98 100/127/100
f 100/127/100 97/125/98 96/128/96
f 96/128/96 101/129/101 100/127/100
f 101/129/101 96/128/96 102/130/102
f 100/127/100 103/131/103 99/126/99
f 103/131/103 100/127/100 101/129/101
f 99/126/99 104/132/104 98/124/97
f 104/132/104 99/126/99 103/131/103
f 98/124/97 102/133/102 96/123/96
f 102/133/102 98/124/97 104/132/104
f 105/134/105 106/136/107 107/135/106
f 107/135/106 106/136/107 108/137/108
f 108/137/108 106/136/107 109/138/109
f 109/138/109 106/136/107 105/139/105
f 105/134/105 110/140/110 109/138/109
f 110/140/110 105/134/105 111/141/111
f 109/138/109 112/142/112 108/137/108
f 112/142/112 109/138/109 110/140/110
f 108/137/108 113/143/113 107/135/106
f 113/143/113 108/137/108 112/142/112
f 107/135/106 111/141/111 105/134/105
f 111/141/111 107/135/106 113/143/113
f 114/144/114 115/146/116 116/145/115
f 116/145/115 115/146/116 117/147/117
f 117/147/117 115/146/116 118/148/118
f 118/148/118 115/146/116 114/149/114
f 114/149/114 119/150/119 118/148/118
f 119/150/119 114/149/114 120/151/120
f 121/152/121 116/145/115 117/147/117
f 116/145/115 121/152/121 122/153/122
f 116/145/115 120/154/120 114/144/114
f 120/154/120 116/145/115 122/153/122
f 118/148/118 123/155/123 117/147/117
f 117/147/117 123/155/123 121/152/121
f 121/152/121 123/155/123 119/150/119
f 119/150/119 123/155/123 118/148/118
f 124/156/124 125/158/126 126/157/125
f 126/157/125 125/158/126 127/159/127
f 127/159/127 125/158/126 128/160/128
f 128/160/128 125/158/126 124/161/124
f 124/161/124 129/162/129 128/160/128
f 129/162/129 124/161/124 130/163/130
f 128/160/128 131/164/131 127/159/127
f 131/164/131 128/160/128 129/162/129
f 127/159/127 132/165/132 126/157/125
f 132/165/132 127/159/127 131/164/131
f 126/157/125 130/166/130 124/156/124
f 130/166/130 126/157/125 132/165/132
f 133/167/133 134/169/135 135/168/134
f 134/169/135 133/167/133 136/170/136
f 133/171/133 137/173/137 136/172/136
f 136/172/136 137/173/137 134/174/135
f 134/174/135 137/173/137 135/175/134
f 135/175/134 137/173/137 133/176/133
f 138/177/138 139/179/140 140/178/139
f 140/178/139 139/179/140 141/180/141
f 141/180/141 139/179/140 142/181/142
f 142/181/142 139/179/140 138/182/138
f 138/182/138 143/183/143 142/181/142
f 143/183/143 138/182/138 144/184/144
f 142/181/142 145/185/145 141/180/141
f 145/185/145 142/181/142 143/183/143
f 141/180/141 146/186/146 140/178/139
f 146/186/146 141/180/141 145/185/145
f 140/178/139 144/187/144 138/177/138
f 144/187/144 140/178/139 146/186/146
