# Wavefront OBJ
# Created by fragMOTION 1.3.7
# http://www.fragmosoft.com

mtllib Bob_Hair_CrewCut.mtl
# 40 vertices
v 0.0354262 0.974683 -0.0477453
v 0.00511126 0.959636 -0.0843541
v 0.00502902 0.979637 -0.0485508
v 0.0288317 0.944929 -0.0882959
v 0.044926 0.941954 -0.0652934
v 0.0315736 0.933028 -0.0788612
v 0.0449362 0.965336 -0.045913
v 0.053188 0.960926 -0.0145556
v 0.0535052 0.954029 -0.0412145
v 0.0478036 0.973673 -0.014889
v 0.0352964 0.971761 0.00840359
v 0.00489561 0.979337 0.00463101
v 0.00486598 0.973921 0.0156429
v 0.0329066 0.979935 -0.0179662
v 0.00513437 0.940587 -0.0964263
v 0.00511533 0.925189 -0.0911332
v 0.00494362 0.984685 -0.013726
v 0.0299186 0.930455 -0.0704831
v 0.0420134 0.938325 -0.0564339
v 0.00864725 0.923778 -0.0809324
v 0.048363 0.94673 -0.0394366
v 0.0490603 0.960368 -0.00359186
v 0.0326738 0.964804 0.0120103
v 0.00484928 0.966824 0.0212448
v -0.0253756 0.974705 -0.0478977
v -0.0186002 0.944947 -0.0884148
v -0.0213982 0.933048 -0.078994
v -0.0348118 0.941983 -0.0654932
v -0.0349016 0.965366 -0.046113
v -0.0433138 0.960962 -0.0147975
v -0.0379182 0.973705 -0.0151038
v -0.0435025 0.954066 -0.0414576
v -0.0255294 0.971784 0.00825114
v -0.0230013 0.979956 -0.0181063
v -0.0197872 0.930474 -0.0706076
v -0.0319464 0.938353 -0.0566193
v 0.00153127 0.923781 -0.0809503
v -0.0383748 0.946762 -0.039654
v -0.0392415 0.960401 -0.00381316
v -0.0229301 0.964825 0.0118709
# 40 texture vertices
vt 0.50285 -0.193759
vt 0.392144 -0.192577
vt 0.392144 -0.292267
vt 0.478509 -0.313382
vt 0.488595 -0.294952
vt 0.53733 -0.256445
vt 0.537512 -0.194942
vt 0.568772 -0.190278
vt 0.567852 -0.120851
vt 0.548225 -0.113979
vt 0.502894 -0.058012
vt 0.392144 -0.038807
vt 0.392144 -0.062522
vt 0.493938 -0.117665
vt 0.392144 -0.344308
vt 0.392144 -0.329555
vt 0.392144 -0.104263
vt 0.482647 -0.275972
vt 0.526807 -0.236912
vt 0.405101 -0.305443
vt 0.550075 -0.190278
vt 0.552921 -0.094312
vt 0.493387 -0.053343
vt 0.392144 -0.029353
vt 0.281439 -0.193759
vt 0.30578 -0.313382
vt 0.246958 -0.256445
vt 0.295693 -0.294952
vt 0.246776 -0.194942
vt 0.236064 -0.113979
vt 0.216436 -0.120851
vt 0.215516 -0.190278
vt 0.281394 -0.058012
vt 0.29035 -0.117665
vt 0.257482 -0.236912
vt 0.301641 -0.275972
vt 0.379188 -0.305443
vt 0.234214 -0.190278
vt 0.231367 -0.094312
vt 0.290901 -0.053343
# 40 normals
vn 0.437788 0.821176 -0.366076
vn 0.00116204 0.946731 -0.322025
vn 0.00199195 0.727693 -0.6859
vn 0.553479 0.126382 -0.823219
vn 0.600975 -0.645068 -0.471928
vn 0.903812 -0.230628 -0.360466
vn 0.759623 0.53978 -0.362782
vn 0.98929 -0.0103533 -0.145596
vn 0.979337 -0.0654605 0.191347
vn 0.722603 0.680659 0.120619
vn 0.492077 0.604236 0.626705
vn -0.00137151 0.751602 0.659615
vn -0.000530221 0.936163 0.351567
vn 0.272313 0.961288 0.0420819
vn 0.00251648 0.029828 -0.999552
vn 0.00168232 -0.641465 -0.767151
vn 0.000153507 0.996143 0.0877473
vn 0.53262 -0.83295 -0.150035
vn 0.743174 -0.668207 -0.0345227
vn 0.381653 -0.890847 -0.246441
vn 0.816683 -0.573945 0.06014
vn 0.844984 0.363635 0.392139
vn 0.437859 0.305065 0.845704
vn -0.00173527 0.619507 0.784989
vn -0.435332 0.821503 -0.368265
vn -0.54925 0.126796 -0.825983
vn -0.902166 -0.229951 -0.364992
vn -0.599085 -0.644619 -0.474936
vn -0.75739 0.540348 -0.366585
vn -0.722688 0.681201 0.116997
vn -0.980333 -0.0647259 0.186435
vn -0.988555 -0.00961183 -0.150553
vn -0.49476 0.604606 0.624231
vn -0.271799 0.961492 0.0407181
vn -0.743493 -0.667649 -0.0382489
vn -0.532486 -0.83255 -0.152705
vn -0.381081 -0.890561 -0.248353
vn -0.817404 -0.573332 0.0560443
vn -0.846666 0.364269 0.387899
vn -0.441864 0.305394 0.843499
usemtl _09_-_Defaultaaa
g Bob_Hair_CrewCut
s off
f 1/1/1 2/3/3 3/2/2
f 4/4/4 5/6/6 6/5/5
f 7/7/7 8/9/9 9/8/8
f 8/9/9 7/7/7 10/10/10
f 11/11/11 12/13/13 13/12/12
f 4/4/4 9/8/8 5/6/6
f 9/8/8 4/4/4 7/7/7
f 10/10/10 11/11/11 8/9/9
f 1/1/1 10/10/10 7/7/7
f 10/10/10 1/1/1 14/14/14
f 15/15/15 2/3/3 4/4/4
f 6/5/5 15/15/15 4/4/4
f 15/15/15 6/5/5 16/16/16
f 12/13/13 14/14/14 17/17/17
f 14/14/14 3/2/2 17/17/17
f 3/2/2 14/14/14 1/1/1
f 4/4/4 1/1/1 7/7/7
f 1/1/1 4/4/4 2/3/3
f 14/14/14 11/11/11 10/10/10
f 12/13/13 11/11/11 14/14/14
f 5/6/6 18/18/18 6/5/5
f 18/18/18 5/6/6 19/19/19
f 6/5/5 20/20/20 16/16/16
f 20/20/20 6/5/5 18/18/18
f 9/8/8 19/19/19 5/6/6
f 19/19/19 9/8/8 21/21/21
f 8/9/9 21/21/21 9/8/8
f 21/21/21 8/9/9 22/22/22
f 13/12/12 23/23/23 11/11/11
f 23/23/23 13/12/12 24/24/24
f 11/11/11 22/22/22 8/9/9
f 22/22/22 11/11/11 23/23/23
f 25/25/25 3/2/2 2/3/3
f 26/26/26 27/28/28 28/27/27
f 29/29/29 30/31/31 31/30/30
f 30/31/31 29/29/29 32/32/32
f 33/33/33 13/12/12 12/13/13
f 26/26/26 32/32/32 29/29/29
f 32/32/32 26/26/26 28/27/27
f 31/30/30 30/31/31 33/33/33
f 25/25/25 31/30/30 34/34/34
f 31/30/30 25/25/25 29/29/29
f 15/15/15 26/26/26 2/3/3
f 27/28/28 15/15/15 16/16/16
f 15/15/15 27/28/28 26/26/26
f 12/13/13 17/17/17 34/34/34
f 34/34/34 3/2/2 25/25/25
f 3/2/2 34/34/34 17/17/17
f 25/25/25 26/26/26 29/29/29
f 26/26/26 25/25/25 2/3/3
f 34/34/34 31/30/30 33/33/33
f 12/13/13 34/34/34 33/33/33
f 28/27/27 35/36/36 36/35/35
f 35/36/36 28/27/27 27/28/28
f 27/28/28 37/37/37 35/36/36
f 37/37/37 27/28/28 16/16/16
f 32/32/32 36/35/35 38/38/38
f 36/35/35 32/32/32 28/27/27
f 30/31/31 38/38/38 39/39/39
f 38/38/38 30/31/31 32/32/32
f 13/12/12 40/40/40 24/24/24
f 40/40/40 13/12/12 33/33/33
f 33/33/33 39/39/39 40/40/40
f 39/39/39 33/33/33 30/31/31
