# Wavefront OBJ
# Created by fragMOTION 1.3.7
# http://www.fragmosoft.com

mtllib Bob_Hair_Spike.mtl
# 42 vertices
v 0.00494904 0.976606 -0.0627058
v -0.0165321 0.980344 -0.0209868
v 0.00482872 0.982079 -0.0138259
v -0.0297105 0.977754 -0.0351999
v -0.029644 0.971723 -0.062672
v -0.0163341 0.968506 -0.101828
v 0.00507427 0.974723 -0.113014
v 0.0264218 0.96849 -0.10172
v 0.0395365 0.971744 -0.0623742
v 0.0394705 0.976896 -0.0348226
v 0.0262238 0.980328 -0.0208798
v -0.0308164 0.962444 0.00881458
v 0.00474377 0.964965 0.0175654
v -0.0492035 0.96256 -0.0175333
v -0.04559 0.960639 -0.0587238
v -0.0271987 0.958247 -0.0923405
v 0.00505211 0.950122 -0.107814
v 0.0372311 0.958223 -0.0921792
v 0.0554557 0.960601 -0.0584705
v 0.0588632 0.962486 -0.0172513
v 0.0403464 0.96242 0.00899445
v 0.00467559 0.920047 0.0381304
v -0.0316297 0.920191 0.0258176
v -0.0511889 0.92777 -0.00257021
v -0.0510597 0.938312 -0.0526007
v -0.0386932 0.934104 -0.0737749
v 0.00501792 0.935385 -0.096344
v 0.0486145 0.934072 -0.0735563
v 0.060878 0.93827 -0.0523202
v 0.0607488 0.927728 -0.00228996
v 0.0410421 0.920164 0.0259996
v 0.00468218 0.880124 0.0295664
v -0.0318444 0.885987 0.0186462
v -0.0492144 0.907523 0.00263326
v -0.0507156 0.909344 -0.0413807
v -0.0327182 0.929006 -0.0697385
v 0.00499273 0.931799 -0.0868149
v 0.0426156 0.928978 -0.0695499
v 0.0604561 0.909303 -0.0411024
v 0.0587333 0.907483 0.00290352
v 0.0412674 0.88596 0.0188302
v 0.00474682 0.877286 0.00332231
# 53 texture vertices
vt 0.392309 -0.09144
vt 0.393045 -0.163849
vt 0.469353 -0.151444
vt 0.518458 -0.133325
vt 0.523327 -0.091117
vt 0.472418 -0.030888
vt 0.396755 -0.029497
vt 0.315713 -0.03184
vt 0.262295 -0.090879
vt 0.265071 -0.133578
vt 0.315499 -0.151754
vt 0.522595 -0.199839
vt 0.392075 -0.210101
vt 0.599728 -0.161753
vt 0.589589 -0.094766
vt 0.524567 -0.034079
vt 0.392065 -0.010855
vt 0.260276 -0.034026
vt 0.195887 -0.094607
vt 0.185278 -0.161714
vt 0.262004 -0.199055
vt 0.389647 -0.272789
vt 0.560629 -0.258789
vt 0.684075 -0.203262
vt 0.660234 -0.096648
vt 0.621934 -0.035176
vt 0.384104 -0.001134
vt 0.154886 0.006999
vt 0.124515 -0.096477
vt 0.102742 -0.203166
vt 0.221925 -0.256981
vt 0.392387 -0.330104
vt 0.641971 -0.295195
vt 0.739615 -0.235708
vt 0.776741 -0.113523
vt 0.639418 -0.013686
vt 0.502691 0.003538
vt 0.347094 0.031676
vt 0.056287 0.09778
vt 0.007993 -0.118182
vt 0.062512 -0.225783
vt 0.142879 -0.295134
vt 0.393642 -0.261294
vt 0.324213 -0.291455
vt 0.394074 -0.313382
vt 0.280248 -0.248521
vt 0.286768 -0.160268
vt 0.318712 -0.092096
vt 0.392153 -0.05766
vt 0.465475 -0.090803
vt 0.498785 -0.158457
vt 0.507154 -0.246909
vt 0.463561 -0.290299
# 43 normals
vn 0.00333544 0.991811 -0.127669
vn -0.000233366 0.972498 0.23291
vn -0.220633 0.962551 0.157533
vn -0.390325 0.920018 -0.0348368
vn -0.402647 0.891011 -0.209703
vn -0.566864 0.484808 -0.666053
vn 0.000466292 0.9993 -0.0374152
vn 0.570498 0.484327 -0.663294
vn 0.403211 0.89428 -0.194126
vn 0.397639 0.916653 -0.0403646
vn 0.229302 0.962165 0.14717
vn -0.49577 0.595687 0.631956
vn -0.00165007 0.666596 0.745418
vn -0.828782 0.517973 0.211717
vn -0.845007 0.448496 -0.291231
vn -0.716247 -0.0232975 -0.697458
vn 0.00208659 -0.438552 -0.898704
vn 0.00237224 -0.206781 -0.978384
vn 0.719717 -0.0238202 -0.693859
vn 0.856946 0.442221 -0.264734
vn 0.845494 0.498685 0.190929
vn 0.493164 0.595382 0.634278
vn -0.00246477 0.0914165 0.99581
vn -0.55398 0.0868527 0.827987
vn -0.937383 0.107566 0.331275
vn -0.947358 -0.0438341 -0.317162
vn -0.672604 -0.497074 -0.548198
vn 0.00140208 -0.742048 -0.670345
vn 0.674964 -0.497568 -0.544839
vn 0.960568 -0.0132558 -0.277729
vn 0.943538 0.100915 0.315518
vn 0.549902 0.0864305 0.830745
vn -0.00200845 -0.718423 0.695604
vn -0.613495 -0.723862 0.315671
vn -0.876316 -0.413095 0.247837
vn -0.703719 -0.607539 -0.368341
vn -0.336584 -0.770378 -0.541505
vn 0.000742759 -0.902274 -0.431163
vn 0.338703 -0.770636 -0.539815
vn 0.715539 -0.601229 -0.355707
vn 0.87903 -0.409196 0.244674
vn 0.611368 -0.724317 0.318739
vn 0.000171484 -0.976913 -0.213638
usemtl Material__215
g Bob_Hair_Spike
s off
f 1/1/1 2/3/3 3/2/2
f 1/1/1 4/4/4 2/3/3
f 1/1/1 5/5/5 4/4/4
f 1/1/1 6/6/6 5/5/5
f 1/1/1 7/7/7 6/6/6
f 1/1/1 8/8/8 7/7/7
f 1/1/1 9/9/9 8/8/8
f 1/1/1 10/10/10 9/9/9
f 1/1/1 11/11/11 10/10/10
f 1/1/1 3/2/2 11/11/11
f 12/12/12 3/2/2 2/3/3
f 3/2/2 12/12/12 13/13/13
f 14/14/14 2/3/3 4/4/4
f 2/3/3 14/14/14 12/12/12
f 4/4/4 15/15/15 14/14/14
f 15/15/15 4/4/4 5/5/5
f 15/15/15 6/6/6 16/16/16
f 6/6/6 15/15/15 5/5/5
f 17/17/17 6/6/6 7/7/18
f 6/6/6 17/17/17 16/16/16
f 17/17/17 8/8/8 18/18/19
f 8/8/8 17/17/17 7/7/18
f 19/19/20 8/8/8 9/9/9
f 8/8/8 19/19/20 18/18/19
f 19/19/20 10/10/10 20/20/21
f 10/10/10 19/19/20 9/9/9
f 20/20/21 11/11/11 21/21/22
f 11/11/11 20/20/21 10/10/10
f 21/21/22 3/2/2 13/13/13
f 3/2/2 21/21/22 11/11/11
f 22/22/23 12/12/12 23/23/24
f 12/12/12 22/22/23 13/13/13
f 23/23/24 14/14/14 24/24/25
f 14/14/14 23/23/24 12/12/12
f 25/25/26 14/14/14 15/15/15
f 14/14/14 25/25/26 24/24/25
f 26/26/27 15/15/15 16/16/16
f 15/15/15 26/26/27 25/25/26
f 27/27/28 16/16/16 17/17/17
f 16/16/16 27/27/28 26/26/27
f 27/27/28 18/18/19 28/28/29
f 18/18/19 27/27/28 17/17/17
f 28/28/29 19/19/20 29/29/30
f 19/19/20 28/28/29 18/18/19
f 30/30/31 19/19/20 20/20/21
f 19/19/20 30/30/31 29/29/30
f 31/31/32 20/20/21 21/21/22
f 20/20/21 31/31/32 30/30/31
f 22/22/23 21/21/22 13/13/13
f 21/21/22 22/22/23 31/31/32
f 32/32/33 23/23/24 33/33/34
f 23/23/24 32/32/33 22/22/23
f 34/34/35 23/23/24 24/24/25
f 23/23/24 34/34/35 33/33/34
f 35/35/36 24/24/25 25/25/26
f 24/24/25 35/35/36 34/34/35
f 25/25/26 36/36/37 35/35/36
f 36/36/37 25/25/26 26/26/27
f 37/37/38 26/26/27 27/27/28
f 26/26/27 37/37/38 36/36/37
f 37/38/38 28/28/29 38/39/39
f 28/28/29 37/38/38 27/27/28
f 29/29/30 38/39/39 28/28/29
f 38/39/39 29/29/30 39/40/40
f 40/41/41 29/29/30 30/30/31
f 29/29/30 40/41/41 39/40/40
f 40/41/41 31/31/32 41/42/42
f 31/31/32 40/41/41 30/30/31
f 32/32/33 31/31/32 22/22/23
f 31/31/32 32/32/33 41/42/42
f 42/43/43 32/45/33 33/44/34
f 42/43/43 33/44/34 34/46/35
f 42/43/43 34/46/35 35/47/36
f 42/43/43 35/47/36 36/48/37
f 42/43/43 36/48/37 37/49/38
f 42/43/43 37/49/38 38/50/39
f 42/43/43 38/50/39 39/51/40
f 42/43/43 39/51/40 40/52/41
f 42/43/43 40/52/41 41/53/42
f 42/43/43 41/53/42 32/45/33
