# Wavefront OBJ
# Created by fragMOTION 1.3.7
# http://www.fragmosoft.com

mtllib Bob_Hair_PartingCentre.mtl
# 65 vertices
v 0.00504784 0.943213 -0.107135
v 0.0160232 0.971786 -0.0878238
v 0.0189915 0.95153 -0.113726
v 0.00498873 0.963203 -0.0805523
v 0.0159535 0.98441 -0.0581084
v 0.00493136 0.975133 -0.05586
v 0.00485154 0.989946 -0.0217732
v 0.0407917 0.937666 -0.0930652
v 0.0433931 0.95684 -0.0787837
v 0.0407664 0.973531 -0.0492553
v 0.0278622 0.979987 -0.00510781
v 0.0583018 0.920422 -0.0804788
v 0.0628091 0.936251 -0.065844
v 0.0580264 0.956223 -0.0366356
v 0.0474908 0.956105 0.00590203
v 0.0624737 0.893194 -0.0692727
v 0.0657367 0.901438 -0.0520642
v 0.0666399 0.912022 -0.0230324
v 0.0553223 0.921365 0.0149439
v 0.0278416 0.958473 0.019898
v 0.00478403 0.982151 0.00403486
v 0.0346825 0.924817 0.0289453
v 0.00467906 0.927 0.0377773
v 0.00472064 0.95896 0.0259159
v 0.0518149 0.881042 -0.08716
v 0.0506933 0.894406 -0.0745642
v 0.0489105 0.90636 -0.0932431
v 0.00501653 0.936964 -0.0955555
v 0.0138607 0.93747 -0.0919495
v 0.0387427 0.930146 -0.100193
v 0.0346504 0.926408 -0.0882486
v 0.0522812 0.891628 -0.0705492
v 0.0569 0.899587 -0.0516894
v 0.0568595 0.911058 -0.0229987
v 0.0494829 0.918919 0.0103537
v 0.0310419 0.921768 0.021926
v 0.00469826 0.923671 0.0296111
v -0.00600277 0.971794 -0.087879
v -0.00885644 0.951541 -0.113796
v -0.00607246 0.984418 -0.0581635
v -0.0307701 0.937693 -0.0932444
v -0.0334287 0.956868 -0.0789761
v -0.0309374 0.973557 -0.0494348
v -0.0182497 0.980004 -0.00522326
v -0.0483559 0.920462 -0.0807459
v -0.0529246 0.936294 -0.0661338
v -0.0482733 0.956263 -0.0369018
v -0.0379509 0.956137 0.00568811
v -0.052604 0.893237 -0.0695608
v -0.055947 0.901483 -0.0523688
v -0.0569877 0.912068 -0.0233419
v -0.0458534 0.921402 0.0146906
v -0.0183703 0.95849 0.0197823
v -0.0252814 0.924839 0.0287952
v -0.0418649 0.881076 -0.0873946
v -0.0389112 0.906393 -0.0934629
v -0.0407964 0.89444 -0.0747933
v -0.00384523 0.937477 -0.0919938
v -0.0286911 0.930171 -0.100362
v -0.0246614 0.92643 -0.0883971
v -0.0424065 0.891663 -0.0707863
v -0.0471137 0.899626 -0.0519498
v -0.0472083 0.911097 -0.0232592
v -0.0399929 0.918952 0.0101297
v -0.021608 0.921787 0.0217942
# 68 texture vertices
vt 0.05084 -0.05954
vt 0.056952 -0.101025
vt 0.128975 -0.079001
vt 0.129376 -0.044107
vt 0.202001 -0.072666
vt 0.199129 -0.040243
vt 0.383406 -0.062809
vt 0.088338 -0.170792
vt 0.139644 -0.149658
vt 0.214517 -0.134339
vt 0.33642 -0.12952
vt 0.107647 -0.232342
vt 0.153886 -0.216052
vt 0.229039 -0.192069
vt 0.301087 -0.205378
vt 0.10871 -0.300759
vt 0.155289 -0.300249
vt 0.226808 -0.298067
vt 0.294908 -0.29551
vt 0.348981 -0.21378
vt 0.379811 -0.144305
vt 0.340022 -0.296799
vt 0.385867 -0.298131
vt 0.38272 -0.218186
vt 0.055229 -0.306835
vt 0.054479 -0.243807
vt 0.09218 -0.325565
vt 0.100074 -0.049865
vt 0.100088 -0.087834
vt 0.063754 -0.177846
vt 0.099801 -0.321568
vt 0.153016 -0.320563
vt 0.228683 -0.319946
vt 0.293003 -0.313737
vt 0.340497 -0.316791
vt 0.386628 -0.317469
vt 0.755416 -0.046153
vt 0.676038 -0.035349
vt 0.678531 -0.070171
vt 0.751784 -0.087965
vt 0.606028 -0.035603
vt 0.605138 -0.068112
vt 0.723226 -0.159638
vt 0.672165 -0.141386
vt 0.59644 -0.13025
vt 0.437275 -0.128852
vt 0.707552 -0.222331
vt 0.661956 -0.208675
vt 0.586031 -0.189019
vt 0.4824 -0.202355
vt 0.710275 -0.290801
vt 0.665064 -0.292978
vt 0.593314 -0.295127
vt 0.489693 -0.290857
vt 0.428555 -0.209489
vt 0.439786 -0.290996
vt 0.752121 -0.293721
vt 0.728205 -0.31463
vt 0.75784 -0.231119
vt 0.70387 -0.076326
vt 0.7052 -0.039318
vt 0.746789 -0.165343
vt 0.70862 -0.154417
vt 0.72035 -0.311082
vt 0.668458 -0.313136
vt 0.592612 -0.317011
vt 0.49284 -0.309062
vt 0.440885 -0.310963
# 91 normals
vn -0.637154 0.584373 -0.502536
vn 0.146826 0.76096 -0.631966
vn -0.0782162 0.843466 -0.531458
vn -0.700528 0.618714 -0.355603
vn -0.0613973 0.950097 -0.305852
vn -0.647443 0.691648 -0.320064
vn 0.0002748 0.999252 0.0386756
vn 0.718389 0.392556 -0.574297
vn 0.653409 0.566097 -0.502583
vn 0.606082 0.779307 -0.159199
vn 0.465683 0.828793 0.310229
vn 0.850135 0.114504 -0.513964
vn 0.922531 0.282355 -0.263081
vn 0.875111 0.483539 0.0192195
vn 0.743827 0.483456 0.461511
vn 0.923999 -0.0209071 -0.381823
vn 0.991407 0.076152 -0.106362
vn 0.974504 0.214432 0.0660294
vn 0.812012 0.311504 0.49356
vn 0.390582 0.511103 0.76565
vn -0.00101873 0.846308 0.532693
vn 0.450306 0.31798 0.834334
vn -0.00224175 0.328831 0.944386
vn -0.00195332 0.515488 0.856895
vn -0.88781 -0.399733 0.228052
vn -0.880379 -0.421187 -0.218022
vn -0.952176 -0.260203 0.16017
vn -0.106322 -0.826402 -0.552951
vn 0.288253 -0.843026 -0.454112
vn 0.258396 -0.840958 -0.475417
vn -0.11133 -0.840746 -0.52986
vn -0.557847 -0.687269 -0.465262
vn -0.696657 -0.642568 -0.319023
vn -0.605836 -0.650612 0.457893
vn 0.10358 -0.897975 0.427683
vn 0.814117 0.00989559 -0.580617
vn 0.865124 -0.021163 -0.501111
vn 0.749401 0.289932 -0.595263
vn -0.907665 -0.282581 0.310308
vn 0.188678 -0.907552 0.375167
vn 0.193541 -0.907137 0.373691
vn 0.104501 -0.950081 0.293983
vn 0.0998122 -0.948917 0.299321
vn 0.129748 -0.93685 0.324772
vn 0.129011 -0.934927 0.330555
vn 0.0660415 -0.926699 0.369956
vn 0.0658728 -0.927262 0.368572
vn -0.00128939 -0.926003 0.377515
vn 0.640096 0.583898 -0.499339
vn 0.702759 0.618192 -0.35209
vn 0.0815033 0.843407 -0.531058
vn -0.143095 0.761068 -0.632692
vn 0.649551 0.691166 -0.316817
vn 0.0636344 0.950051 -0.305539
vn -0.715212 0.393089 -0.577886
vn -0.650464 0.566582 -0.505847
vn -0.604698 0.779758 -0.16223
vn -0.466614 0.829139 0.307895
vn -0.847466 0.115135 -0.518213
vn -0.920992 0.28304 -0.267696
vn -0.874837 0.48419 0.0148389
vn -0.745768 0.48401 0.457782
vn -0.922091 -0.0202206 -0.386444
vn -0.990805 0.0768892 -0.111324
vn -0.974663 0.215157 0.0611502
vn -0.814241 0.312109 0.489489
vn -0.39403 0.511395 0.763686
vn -0.454241 0.318316 0.83207
vn 0.886359 -0.400393 0.232493
vn 0.951169 -0.260911 0.164935
vn 0.881146 -0.421842 -0.213612
vn 0.108474 -0.826482 -0.552413
vn 0.113356 -0.84083 -0.529297
vn -0.256638 -0.840766 -0.476706
vn -0.286603 -0.842812 -0.455551
vn 0.559658 -0.687685 -0.462464
vn 0.697767 -0.643087 -0.315532
vn -0.106388 -0.897897 0.427157
vn 0.603052 -0.651062 0.460919
vn -0.811192 0.0105 -0.584686
vn -0.86262 -0.0205205 -0.505436
vn -0.746196 0.290488 -0.599007
vn 0.90589 -0.283256 0.314848
vn -0.196084 -0.906992 0.372716
vn -0.191229 -0.907411 0.374216
vn -0.102015 -0.948842 0.298816
vn -0.106678 -0.950002 0.293454
vn -0.13136 -0.934831 0.329904
vn -0.132069 -0.936753 0.324116
vn -0.0684069 -0.927212 0.368236
vn -0.0685821 -0.926649 0.369619
usemtl _09_-_Defaultaaa
g Bob_Hair_PartingCentre
s off
f 1/1/1 2/3/3 3/2/2
f 2/3/3 1/1/1 4/4/4
f 4/4/4 5/5/5 2/3/3
f 5/5/5 4/4/4 6/6/6
f 6/6/6 7/7/7 5/5/5
f 8/8/8 2/3/3 9/9/9
f 2/3/3 8/8/8 3/2/2
f 9/9/9 5/5/5 10/10/10
f 5/5/5 9/9/9 2/3/3
f 10/10/10 7/7/7 11/11/11
f 7/7/7 10/10/10 5/5/5
f 12/12/12 9/9/9 13/13/13
f 9/9/9 12/12/12 8/8/8
f 13/13/13 10/10/10 14/14/14
f 10/10/10 13/13/13 9/9/9
f 14/14/14 11/11/11 15/15/15
f 11/11/11 14/14/14 10/10/10
f 16/16/16 13/13/13 17/17/17
f 13/13/13 16/16/16 12/12/12
f 17/17/17 14/14/14 18/18/18
f 14/14/14 17/17/17 13/13/13
f 18/18/18 15/15/15 19/19/19
f 15/15/15 18/18/18 14/14/14
f 20/20/20 11/11/11 21/21/21
f 11/11/11 20/20/20 15/15/15
f 22/22/22 15/15/15 20/20/20
f 15/15/15 22/22/22 19/19/19
f 23/23/23 20/20/20 24/24/24
f 20/20/20 23/23/23 22/22/22
f 20/20/20 21/21/21 24/24/24
f 11/11/11 7/7/7 21/21/21
f 25/25/25 26/27/27 27/26/26
f 3/2/28 28/28/30 1/1/29
f 28/28/30 3/2/28 29/29/31
f 30/30/32 29/29/31 3/2/28
f 29/29/31 30/30/32 31/8/33
f 27/26/26 31/8/33 30/30/32
f 31/8/33 27/26/26 26/27/27
f 25/25/25 32/31/34 26/27/27
f 32/31/34 25/25/25 16/16/35
f 27/26/36 16/16/16 25/25/37
f 16/16/16 27/26/36 12/12/12
f 30/30/38 12/12/12 27/26/36
f 12/12/12 30/30/38 8/8/8
f 8/8/8 30/30/38 3/2/2
f 31/8/33 26/27/27 33/32/39
f 33/32/39 26/27/27 32/31/34
f 16/16/35 33/32/40 32/31/34
f 33/32/40 16/16/35 17/17/41
f 17/17/41 34/33/42 33/32/40
f 34/33/42 17/17/41 18/18/43
f 18/18/43 35/34/44 34/33/42
f 35/34/44 18/18/43 19/19/45
f 19/19/45 36/35/46 35/34/44
f 36/35/46 19/19/45 22/22/47
f 36/35/46 23/23/48 37/36/48
f 23/23/48 36/35/46 22/22/47
f 1/37/49 38/39/51 4/38/50
f 38/39/51 1/37/49 39/40/52
f 4/38/50 40/42/54 6/41/53
f 40/42/54 4/38/50 38/39/51
f 6/41/53 40/42/54 7/7/7
f 41/43/55 38/39/51 39/40/52
f 38/39/51 41/43/55 42/44/56
f 42/44/56 40/42/54 38/39/51
f 40/42/54 42/44/56 43/45/57
f 43/45/57 7/7/7 40/42/54
f 7/7/7 43/45/57 44/46/58
f 45/47/59 42/44/56 41/43/55
f 42/44/56 45/47/59 46/48/60
f 46/48/60 43/45/57 42/44/56
f 43/45/57 46/48/60 47/49/61
f 47/49/61 44/46/58 43/45/57
f 44/46/58 47/49/61 48/50/62
f 49/51/63 46/48/60 45/47/59
f 46/48/60 49/51/63 50/52/64
f 50/52/64 47/49/61 46/48/60
f 47/49/61 50/52/64 51/53/65
f 51/53/65 48/50/62 47/49/61
f 48/50/62 51/53/65 52/54/66
f 53/55/67 44/46/58 48/50/62
f 44/46/58 53/55/67 21/21/21
f 54/56/68 48/50/62 52/54/66
f 48/50/62 54/56/68 53/55/67
f 23/23/23 53/55/67 54/56/68
f 53/55/67 23/23/23 24/24/24
f 53/55/67 24/24/24 21/21/21
f 44/46/58 21/21/21 7/7/7
f 55/57/69 56/59/71 57/58/70
f 39/40/72 28/61/74 58/60/73
f 28/61/74 39/40/72 1/37/75
f 59/62/76 58/60/73 60/63/77
f 58/60/73 59/62/76 39/40/72
f 56/59/71 60/63/77 57/58/70
f 60/63/77 56/59/71 59/62/76
f 55/57/69 61/64/79 49/51/78
f 61/64/79 55/57/69 57/58/70
f 56/59/80 49/51/63 45/47/59
f 49/51/63 56/59/80 55/57/81
f 59/62/82 45/47/59 41/43/55
f 45/47/59 59/62/82 56/59/80
f 41/43/55 39/40/52 59/62/82
f 60/63/77 62/65/83 57/58/70
f 62/65/83 61/64/79 57/58/70
f 49/51/78 62/65/85 50/52/84
f 62/65/85 49/51/78 61/64/79
f 50/52/84 63/66/87 51/53/86
f 63/66/87 50/52/84 62/65/85
f 51/53/86 64/67/89 52/54/88
f 64/67/89 51/53/86 63/66/87
f 52/54/88 65/68/91 54/56/90
f 65/68/91 52/54/88 64/67/89
f 65/68/91 23/23/48 54/56/90
f 23/23/48 65/68/91 37/36/48
