# Wavefront OBJ
# Created by fragMOTION 1.3.7
# http://www.fragmosoft.com

mtllib Bob_Hair_FlatTop.mtl
# 27 vertices
v 0.00473908 0.952296 0.0175577
v -0.027868 0.983128 -0.0058353
v -0.0298481 0.949035 0.00711062
v 0.00478485 0.985485 0.0042046
v -0.0220576 0.962987 -0.0928881
v -0.0386932 0.934104 -0.0737749
v -0.0380316 0.966047 -0.0796432
v -0.0207696 0.945243 -0.0831445
v 0.00501379 0.942466 -0.093645
v 0.00504802 0.960656 -0.104615
v -0.0479293 0.935443 -0.0467868
v -0.0413397 0.97939 -0.0229048
v -0.0447846 0.971045 -0.0569379
v -0.0441676 0.944621 -0.010552
v 0.00497099 0.970278 -0.0724161
v 0.0049355 0.973888 -0.0577016
v 0.00484506 0.98188 -0.0203843
v 0.0374858 0.983103 -0.00567168
v 0.0394088 0.949096 0.00763948
v 0.0320963 0.962967 -0.0927525
v 0.0486145 0.934072 -0.0735563
v 0.0307463 0.945224 -0.0830155
v 0.0478997 0.96606 -0.0792444
v 0.0576494 0.935404 -0.0465224
v 0.051039 0.979355 -0.0226735
v 0.05381 0.944599 -0.0102484
v 0.0546491 0.971008 -0.056689
# 43 texture vertices
vt 0.0625 -0.03125
vt 0.171875 -0.03125
vt 0.171875 -0.171875
vt 0.0625 -0.171875
vt 0.648438 -0.140625
vt 0.570313 -0.179688
vt 0.570313 -0.046875
vt 0.648438 -0.0625
vt 0.726563 -0.0625
vt 0.726563 -0.140625
vt 0.445313 -0.03125
vt 0.453125 -0.171875
vt 0.296875 -0.171875
vt 0.273438 -0.03125
vt 0.679688 -0.820313
vt 0.484375 -0.851563
vt 0.554688 -0.90625
vt 0.679688 -0.953125
vt 0.679688 -0.757813
vt 0.453125 -0.757813
vt 0.46875 -0.617188
vt 0.679688 -0.601563
vt 0.53125 -0.539063
vt 0.679688 -0.5
vt 0.171875 -0.195313
vt 0.171875 -0.34375
vt 0.0625 -0.34375
vt 0.0625 -0.195313
vt 0.648438 -0.234375
vt 0.648438 -0.3125
vt 0.570313 -0.320313
vt 0.570313 -0.1875
vt 0.726563 -0.3125
vt 0.726563 -0.234375
vt 0.445313 -0.34375
vt 0.273438 -0.34375
vt 0.296875 -0.195313
vt 0.453125 -0.195313
vt 0.796875 -0.90625
vt 0.875 -0.851563
vt 0.90625 -0.757813
vt 0.890625 -0.617188
vt 0.828125 -0.539063
# 39 normals
vn -0.00465622 0.37419 0.927341
vn -0.563268 0.32171 0.761073
vn -0.571919 0.322056 0.754446
vn -0.00218353 0.373248 0.927729
vn -0.439808 -0.37343 -0.816773
vn -0.84118 -0.0807919 -0.534685
vn -0.830669 -0.12844 -0.541749
vn -0.245126 -0.480231 -0.842194
vn 0.00196016 -0.511831 -0.859084
vn 0.00195157 -0.516417 -0.856335
vn -0.992484 0.0562072 -0.108701
vn -0.991702 0.0423069 -0.121396
vn -0.928512 0.189455 0.319332
vn -0.91883 0.195106 0.343052
vn 0.00107117 0.96603 -0.258429
vn -0.0546289 0.96703 -0.248734
vn -0.0452017 0.958456 -0.281635
vn 0.001073 0.95814 -0.286299
vn 0.000954852 0.973756 -0.227592
vn -0.059086 0.970984 -0.231728
vn -0.0489185 0.976669 -0.209102
vn 0.00082032 0.983371 -0.181608
vn -0.0384532 0.98454 -0.170885
vn 0.000731118 0.98942 -0.145075
vn 0.568064 0.325718 0.755785
vn 0.557666 0.3297 0.761779
vn 0.44666 -0.371647 -0.813863
vn 0.248983 -0.480414 -0.840957
vn 0.833764 -0.126919 -0.537335
vn 0.844838 -0.0753118 -0.529695
vn 0.993147 0.0544801 -0.103396
vn 0.918434 0.196327 0.343416
vn 0.92733 0.189063 0.322977
vn 0.992176 0.0414829 -0.117756
vn 0.0475583 0.958494 -0.281117
vn 0.0567456 0.966992 -0.248408
vn 0.0609679 0.970916 -0.231528
vn 0.0506912 0.976632 -0.208853
vn 0.0400405 0.984511 -0.170689
usemtl _09_-_Defaultaaa
g Bob_Hair_FlatTop
s off
f 1/1/1 2/3/3 3/2/2
f 2/3/3 1/1/1 4/4/4
f 5/5/5 6/7/7 7/6/6
f 6/7/7 5/5/5 8/8/8
f 5/5/5 9/9/9 8/8/8
f 9/9/9 5/5/5 10/10/10
f 11/11/11 12/13/13 13/12/12
f 12/13/13 11/11/11 14/14/14
f 14/14/14 2/3/3 12/13/13
f 2/3/3 14/14/14 3/2/2
f 13/12/12 6/7/7 11/11/11
f 6/7/7 13/12/12 7/6/6
f 15/15/15 5/17/17 7/16/16
f 5/17/17 15/15/15 10/18/18
f 7/16/16 16/19/19 15/15/15
f 16/19/19 7/16/16 13/20/20
f 12/21/21 16/19/19 13/20/20
f 16/19/19 12/21/21 17/22/22
f 2/23/23 17/22/22 12/21/21
f 17/22/22 2/23/23 4/24/24
f 18/25/25 1/27/1 19/26/26
f 1/27/1 18/25/25 4/28/4
f 20/29/27 21/31/29 22/30/28
f 21/31/29 20/29/27 23/32/30
f 9/33/9 20/29/27 22/30/28
f 20/29/27 9/33/9 10/34/10
f 24/35/31 25/37/33 26/36/32
f 25/37/33 24/35/31 27/38/34
f 26/36/32 18/25/25 19/26/26
f 18/25/25 26/36/32 25/37/33
f 27/38/34 21/31/29 23/32/30
f 21/31/29 27/38/34 24/35/31
f 15/15/15 20/39/35 10/18/18
f 20/39/35 15/15/15 23/40/36
f 23/40/36 16/19/19 27/41/37
f 16/19/19 23/40/36 15/15/15
f 25/42/38 16/19/19 17/22/22
f 16/19/19 25/42/38 27/41/37
f 18/43/39 17/22/22 4/24/24
f 17/22/22 18/43/39 25/42/38
