# Wavefront OBJ
# Created by fragMOTION 1.3.7
# http://www.fragmosoft.com

mtllib Bob_Hair_Metal.mtl
# 94 vertices
v 0.00511875 0.931574 -0.0935373
v -0.00590101 0.958433 -0.0892299
v 0.00510871 0.949081 -0.0869097
v -0.00663452 0.933306 -0.0967768
v -0.00599026 0.985913 -0.0495122
v 0.00501952 0.976628 -0.0472084
v -0.00608379 0.986936 -0.0120436
v 0.00493034 0.982041 -0.0108165
v -0.0354082 0.928232 -0.0825553
v -0.0354182 0.94574 -0.0759277
v -0.0329334 0.976931 -0.0412492
v -0.0181666 0.9815 0.00342813
v -0.0502461 0.903826 -0.0658982
v -0.0636398 0.916669 -0.0581589
v -0.0637163 0.940518 -0.0240593
v -0.0437206 0.943652 0.0216499
v -0.0512922 0.836043 -0.0476686
v -0.0641928 0.848269 -0.034854
v -0.0711541 0.871035 -0.00599586
v -0.0526364 0.878954 0.0323747
v -0.0183177 0.938208 0.0372852
v 0.00485769 0.975318 0.0171621
v -0.0263679 0.88154 0.0517604
v 0.00456332 0.882978 0.0562525
v 0.00477126 0.931714 0.0451258
v -0.045429 0.734545 -0.0445647
v -0.0696143 0.780342 -0.0363205
v -0.0726716 0.813455 -0.0147267
v -0.0591914 0.820218 0.0375233
v -0.0310714 0.816685 0.0608015
v 0.00336791 0.809754 0.0693302
v 0.0051015 0.921679 -0.088134
v -0.00678524 0.927621 -0.0841741
v -0.0320156 0.923811 -0.07386
v -0.0428199 0.901039 -0.0588131
v -0.03686 0.793439 -0.0445219
v -0.0327196 0.726761 -0.0472538
v -0.0539419 0.774891 0.0676027
v -0.0316118 0.768564 0.0788738
v 0.00373816 0.760039 0.0851939
v -0.0761533 0.788856 -0.00715853
v -0.0683454 0.791757 0.0391027
v -0.0673114 0.776302 0.0491886
v -0.0208463 0.787481 -0.00945307
v -0.0211718 0.742271 -0.0313599
v 0.00502203 0.940401 -0.0536273
v -0.00959492 0.93098 -0.0419112
v -0.0269817 0.908703 -0.0270028
v -0.059697 0.746495 -0.0415246
v -0.0685105 0.768039 -0.0297284
v -0.061117 0.729615 0.0698134
v -0.0346838 0.707721 0.0766839
v 0.00476299 0.692856 0.0834291
v 0.0161359 0.958425 -0.0891747
v 0.0168894 0.933298 -0.0967178
v 0.0160467 0.985904 -0.049457
v 0.0159531 0.986928 -0.0119884
v 0.0455876 0.928202 -0.0823523
v 0.0455776 0.94571 -0.0757247
v 0.0429423 0.976903 -0.0410591
v 0.0279552 0.981483 0.00354371
v 0.0603226 0.903784 -0.0656211
v 0.0736879 0.916617 -0.0578147
v 0.0736113 0.940467 -0.0237152
v 0.0533891 0.943615 0.0218933
v 0.0612275 0.836001 -0.0473866
v 0.0726428 0.848217 -0.0345111
v 0.0817103 0.8713 -0.00524986
v 0.0627606 0.879382 0.0332029
v 0.0279041 0.938191 0.0374011
v 0.0355488 0.88177 0.0522048
v 0.059442 0.736083 -0.0421941
v 0.0818788 0.782563 -0.032896
v 0.082986 0.815737 -0.0112081
v 0.0669658 0.822068 0.040375
v 0.0379395 0.817697 0.0623615
v 0.0169727 0.927612 -0.0841146
v 0.0421482 0.923783 -0.0736741
v 0.0528588 0.901003 -0.0585733
v 0.0491588 0.794701 -0.0425774
v 0.0471015 0.727931 -0.0454494
v 0.0616931 0.776586 0.0702166
v 0.0390726 0.7696 0.0804716
v 0.0868416 0.791246 -0.00347406
v 0.07687 0.793886 0.0423852
v 0.0758337 0.778401 0.0524244
v 0.0317577 0.788252 -0.00826397
v 0.034398 0.743086 -0.0301038
v 0.019572 0.930969 -0.0418381
v 0.0368681 0.908679 -0.0268428
v 0.0732028 0.748443 -0.0385205
v 0.0808394 0.770229 -0.0263524
v 0.0700855 0.731539 0.0727792
v 0.0440217 0.708875 0.078463
# 103 texture vertices
vt 0.680763 -0.025211
vt 0.648845 -0.018721
vt 0.640132 -0.027161
vt 0.67699 -0.03602
vt 0.551938 -0.007226
vt 0.552308 -0.017489
vt 0.469466 -0.018247
vt 0.476454 -0.027035
vt 0.665722 -0.061607
vt 0.640048 -0.053173
vt 0.554865 -0.037871
vt 0.466235 -0.04191
vt 0.669071 -0.090003
vt 0.640821 -0.086643
vt 0.564642 -0.076782
vt 0.481654 -0.085138
vt 0.682319 -0.147761
vt 0.649342 -0.143123
vt 0.5786 -0.137731
vt 0.502662 -0.145584
vt 0.432551 -0.090256
vt 0.395271 -0.041327
vt 0.447001 -0.148692
vt 0.394456 -0.148463
vt 0.394849 -0.097811
vt 0.654727 -0.194515
vt 0.708928 -0.226484
vt 0.598193 -0.183842
vt 0.513183 -0.201234
vt 0.45258 -0.211984
vt 0.393759 -0.22138
vt 0.690473 -0.04552
vt 0.705983 -0.039378
vt 0.693514 -0.033238
vt 0.679793 -0.066842
vt 0.685404 -0.092281
vt 0.716023 -0.179003
vt 0.722524 -0.232212
vt 0.448692 -0.262367
vt 0.487562 -0.253658
vt 0.393336 -0.272359
vt 0.533363 -0.228329
vt 0.60657 -0.207425
vt 0.521614 -0.247765
vt 0.749789 -0.221549
vt 0.775042 -0.187189
vt 0.720364 -0.070103
vt 0.739964 -0.06921
vt 0.741884 -0.053635
vt 0.740756 -0.093243
vt 0.654213 -0.204857
vt 0.684745 -0.21917
vt 0.499371 -0.298286
vt 0.457286 -0.322496
vt 0.392662 -0.339321
vt 0.110768 -0.030264
vt 0.11438 -0.041019
vt 0.151447 -0.031999
vt 0.142933 -0.023626
vt 0.238804 -0.020506
vt 0.239335 -0.010223
vt 0.314356 -0.028614
vt 0.32146 -0.019691
vt 0.124292 -0.066313
vt 0.150583 -0.057934
vt 0.235817 -0.040946
vt 0.324314 -0.043304
vt 0.120692 -0.094736
vt 0.148971 -0.091284
vt 0.225232 -0.080022
vt 0.308171 -0.086791
vt 0.106331 -0.15246
vt 0.138029 -0.147683
vt 0.209723 -0.141108
vt 0.285528 -0.147584
vt 0.357254 -0.090954
vt 0.341933 -0.149637
vt 0.076993 -0.231055
vt 0.132251 -0.19908
vt 0.189293 -0.187398
vt 0.274417 -0.203249
vt 0.335043 -0.21298
vt 0.102835 -0.036183
vt 0.089571 -0.039789
vt 0.097421 -0.049758
vt 0.109887 -0.071443
vt 0.104464 -0.09712
vt 0.071678 -0.183777
vt 0.063335 -0.236862
vt 0.299584 -0.255181
vt 0.338171 -0.263274
vt 0.180531 -0.211151
vt 0.253952 -0.23065
vt 0.265767 -0.249659
vt 0.012269 -0.192149
vt 0.036436 -0.22631
vt 0.045428 -0.061334
vt 0.049475 -0.075503
vt 0.04905 -0.098692
vt 0.101437 -0.223722
vt 0.132487 -0.209382
vt 0.286221 -0.299882
vt 0.32818 -0.323511
# 110 normals
vn 0.00250362 0.299537 -0.954081
vn 0.00231208 0.539929 -0.841708
vn 0.0316313 0.633519 -0.773081
vn -0.0950173 0.288881 -0.952638
vn 0.00119235 0.942296 -0.334779
vn 0.130949 0.932783 -0.335811
vn 0.000225502 0.998238 0.0593364
vn 0.0588228 0.995431 0.0752103
vn -0.717889 0.23764 -0.654341
vn -0.642506 0.446543 -0.622724
vn -0.597045 0.771167 -0.220994
vn -0.383661 0.829191 0.406504
vn -0.619467 -0.100519 -0.77856
vn -0.863212 0.102984 -0.494225
vn -0.914567 0.402981 0.0342535
vn -0.671135 0.455864 0.584608
vn -0.14835 -0.24702 -0.957587
vn -0.901496 -0.0781725 -0.425669
vn -0.9906 0.0875368 0.0931522
vn -0.787753 0.225982 0.568564
vn -0.291125 0.44201 0.848454
vn -0.00139213 0.745162 0.666882
vn -0.372446 0.310725 0.872182
vn -0.00606014 0.320962 0.945692
vn -0.00217004 0.384181 0.923255
vn -0.842971 -0.108627 -0.526877
vn -0.190036 -0.00155843 -0.981776
vn -0.995112 0.0987352 0.00202555
vn -0.811619 0.29292 0.505442
vn -0.355733 0.343866 0.869028
vn -0.026049 0.312968 0.949406
vn -0.155949 -0.822327 -0.547228
vn -0.249296 -0.880233 -0.403783
vn 0.00141918 -0.736548 -0.676383
vn 0.00202003 -0.479321 -0.877637
vn 0.156235 -0.857172 -0.490761
vn 0.288891 -0.793469 -0.535677
vn 0.516241 -0.485656 -0.705432
vn 0.686691 -0.296559 -0.663708
vn 0.804858 -0.0532136 -0.591077
vn 0.344997 0.132367 -0.929223
vn -0.243268 0.185332 0.952089
vn -0.59092 0.248652 0.767454
vn -0.0242712 0.126549 0.991663
vn -0.860769 0.306266 0.406544
vn -0.992372 0.12088 -0.02421
vn -0.770175 0.266264 0.579598
vn 0.551242 0.3606 -0.752397
vn 0.894288 0.0320948 -0.44634
vn -0.000661683 -0.993316 0.115426
vn -0.00152482 -0.878956 0.4769
vn -0.0140901 -0.92046 0.390583
vn 0.579377 -0.803073 -0.139268
vn 0.596974 -0.776762 -0.200656
vn 0.718115 -0.630068 -0.295508
vn 0.7087 -0.6797 -0.189082
vn 0.898716 -0.081879 -0.430818
vn -0.949071 -0.210654 -0.234283
vn -0.221405 0.0844897 -0.971515
vn -0.407263 0.0391561 0.912471
vn -0.209791 -0.0255868 0.977412
vn -0.0222008 -0.0265981 0.9994
vn 0.100008 0.288808 -0.952149
vn -0.0272806 0.633541 -0.773228
vn -0.128564 0.93288 -0.336462
vn -0.0584528 0.995475 0.0749164
vn 0.721338 0.237101 -0.650734
vn 0.645954 0.44606 -0.619495
vn 0.598723 0.770719 -0.217997
vn 0.38224 0.828904 0.408425
vn 0.623287 -0.100985 -0.775445
vn 0.869605 0.0972558 -0.484074
vn 0.915092 0.401634 0.0360166
vn 0.666508 0.458173 0.588086
vn 0.181412 -0.250001 -0.951099
vn 0.90575 -0.0814351 -0.415915
vn 0.992575 0.0849555 0.0762524
vn 0.777469 0.231503 0.58368
vn 0.287199 0.441793 0.849903
vn 0.357105 0.31329 0.879161
vn 0.234412 0.00614771 -0.972118
vn 0.864938 -0.0775377 -0.495854
vn 0.991284 0.127176 0.0343917
vn 0.778696 0.313267 0.543596
vn 0.305883 0.353566 0.883983
vn 0.158074 -0.822444 -0.546441
vn 0.250657 -0.880421 -0.40253
vn -0.154416 -0.857056 -0.491539
vn -0.286797 -0.793253 -0.53712
vn -0.513062 -0.48527 -0.708011
vn -0.683577 -0.296045 -0.667143
vn -0.775429 -0.0763814 -0.626798
vn -0.306397 0.122817 -0.943948
vn 0.548107 0.265351 0.793201
vn 0.194473 0.191749 0.961984
vn 0.988484 0.14992 0.0205659
vn 0.832181 0.331084 0.444812
vn 0.735073 0.288331 0.613623
vn -0.873767 0.00617433 -0.486306
vn -0.527017 0.344792 -0.77677
vn 0.0114418 -0.92047 0.390647
vn -0.579274 -0.802639 -0.142172
vn -0.596543 -0.776314 -0.203647
vn -0.717097 -0.62953 -0.299105
vn -0.708253 -0.679169 -0.192632
vn -0.896607 -0.081206 -0.435318
vn 0.262497 0.091584 -0.960577
vn 0.96445 -0.182602 -0.191029
vn 0.364303 0.0504676 0.929912
vn 0.166081 -0.0200764 0.985908
usemtl _09_-_Defaultaaa
g Bob_Hair_Metal
s off
f 1/1/1 2/3/3 3/2/2
f 2/3/3 1/1/1 4/4/4
f 3/2/2 5/6/6 6/5/5
f 5/6/6 3/2/2 2/3/3
f 6/5/5 7/8/8 8/7/7
f 7/8/8 6/5/5 5/6/6
f 9/9/9 2/3/3 4/4/4
f 2/3/3 9/9/9 10/10/10
f 10/10/10 5/6/6 2/3/3
f 5/6/6 10/10/10 11/11/11
f 11/11/11 7/8/8 5/6/6
f 7/8/8 11/11/11 12/12/12
f 13/13/13 10/10/10 9/9/9
f 10/10/10 13/13/13 14/14/14
f 14/14/14 11/11/11 10/10/10
f 11/11/11 14/14/14 15/15/15
f 15/15/15 12/12/12 11/11/11
f 12/12/12 15/15/15 16/16/16
f 17/17/17 14/14/14 13/13/13
f 14/14/14 17/17/17 18/18/18
f 18/18/18 15/15/15 14/14/14
f 15/15/15 18/18/18 19/19/19
f 19/19/19 16/16/16 15/15/15
f 16/16/16 19/19/19 20/20/20
f 21/21/21 12/12/12 16/16/16
f 12/12/12 21/21/21 22/22/22
f 23/23/23 16/16/16 20/20/20
f 16/16/16 23/23/23 21/21/21
f 24/24/24 21/21/21 23/23/23
f 21/21/21 24/24/24 25/25/25
f 21/21/21 25/25/25 22/22/22
f 18/18/18 26/27/27 27/26/26
f 26/27/27 18/18/18 17/17/17
f 28/28/28 18/18/18 27/26/26
f 18/18/18 28/28/28 19/19/19
f 20/20/20 28/28/28 29/29/29
f 28/28/28 20/20/20 19/19/19
f 29/29/29 23/23/23 20/20/20
f 23/23/23 29/29/29 30/30/30
f 24/24/24 30/30/30 31/31/31
f 30/30/30 24/24/24 23/23/23
f 4/4/32 32/33/34 33/32/33
f 32/33/34 4/4/32 1/34/35
f 9/9/36 33/32/33 34/35/37
f 33/32/33 9/9/36 4/4/32
f 13/13/38 34/35/37 35/36/39
f 34/35/37 13/13/38 9/9/36
f 17/17/17 35/36/39 36/37/40
f 35/36/39 17/17/17 13/13/38
f 26/27/27 36/37/40 37/38/41
f 36/37/40 26/27/27 17/17/17
f 30/30/30 38/40/43 39/39/42
f 38/40/43 30/30/30 29/29/29
f 30/30/30 40/41/44 31/31/31
f 40/41/44 30/30/30 39/39/42
f 29/29/29 41/43/46 42/42/45
f 41/43/46 29/29/29 28/28/28
f 38/40/43 42/42/45 43/44/47
f 42/42/45 38/40/43 29/29/29
f 37/38/41 44/46/49 45/45/48
f 44/46/49 37/38/41 36/37/40
f 46/47/50 33/32/52 32/33/51
f 34/35/53 46/49/50 47/48/54
f 46/49/50 34/35/53 33/32/52
f 35/36/55 47/48/54 48/50/56
f 47/48/54 35/36/55 34/35/53
f 36/37/40 48/50/57 44/46/49
f 48/50/57 36/37/40 35/36/39
f 12/12/12 22/22/22 7/8/8
f 22/22/22 8/7/7 7/8/8
f 27/26/26 41/43/46 28/28/28
f 27/26/26 49/52/59 50/51/58
f 49/52/59 27/26/26 26/27/27
f 51/53/60 39/39/42 38/40/43
f 39/39/42 51/53/60 52/54/61
f 52/54/61 40/41/44 39/39/42
f 40/41/44 52/54/61 53/55/62
f 51/53/60 38/40/43 43/44/47
f 27/26/26 50/51/58 41/43/46
f 1/56/1 54/58/64 55/57/63
f 54/58/64 1/56/1 3/59/2
f 3/59/2 56/60/65 54/58/64
f 56/60/65 3/59/2 6/61/5
f 6/61/5 57/62/66 56/60/65
f 57/62/66 6/61/5 8/63/7
f 58/64/67 54/58/64 59/65/68
f 54/58/64 58/64/67 55/57/63
f 59/65/68 56/60/65 60/66/69
f 56/60/65 59/65/68 54/58/64
f 60/66/69 57/62/66 61/67/70
f 57/62/66 60/66/69 56/60/65
f 62/68/71 59/65/68 63/69/72
f 59/65/68 62/68/71 58/64/67
f 63/69/72 60/66/69 64/70/73
f 60/66/69 63/69/72 59/65/68
f 64/70/73 61/67/70 65/71/74
f 61/67/70 64/70/73 60/66/69
f 66/72/75 63/69/72 67/73/76
f 63/69/72 66/72/75 62/68/71
f 67/73/76 64/70/73 68/74/77
f 64/70/73 67/73/76 63/69/72
f 68/74/77 65/71/74 69/75/78
f 65/71/74 68/74/77 64/70/73
f 70/76/79 61/67/70 22/22/22
f 61/67/70 70/76/79 65/71/74
f 71/77/80 65/71/74 70/76/79
f 65/71/74 71/77/80 69/75/78
f 24/24/24 70/76/79 25/25/25
f 70/76/79 24/24/24 71/77/80
f 70/76/79 22/22/22 25/25/25
f 67/73/76 72/78/81 66/72/75
f 72/78/81 67/73/76 73/79/82
f 74/80/83 67/73/76 68/74/77
f 67/73/76 74/80/83 73/79/82
f 69/75/78 74/80/83 68/74/77
f 74/80/83 69/75/78 75/81/84
f 75/81/84 71/77/80 76/82/85
f 71/77/80 75/81/84 69/75/78
f 24/24/24 76/82/85 71/77/80
f 76/82/85 24/24/24 31/31/31
f 55/57/86 32/84/34 1/83/35
f 32/84/34 55/57/86 77/85/87
f 58/64/88 77/85/87 55/57/86
f 77/85/87 58/64/88 78/86/89
f 62/68/90 78/86/89 58/64/88
f 78/86/89 62/68/90 79/87/91
f 66/72/75 79/87/91 62/68/90
f 79/87/91 66/72/75 80/88/92
f 72/78/81 80/88/92 66/72/75
f 80/88/92 72/78/81 81/89/93
f 76/82/85 82/90/94 75/81/84
f 82/90/94 76/82/85 83/91/95
f 40/41/44 76/82/85 31/31/31
f 76/82/85 40/41/44 83/91/95
f 75/81/84 84/92/96 74/80/83
f 84/92/96 75/81/84 85/93/97
f 82/90/94 85/93/97 75/81/84
f 85/93/97 82/90/94 86/94/98
f 81/89/93 87/95/99 80/88/92
f 87/95/99 81/89/93 88/96/100
f 46/97/50 32/84/51 77/85/101
f 78/86/102 46/97/50 77/85/101
f 46/97/50 78/86/102 89/98/103
f 79/87/104 89/98/103 78/86/102
f 89/98/103 79/87/104 90/99/105
f 80/88/92 90/99/106 79/87/91
f 90/99/106 80/88/92 87/95/99
f 61/67/70 57/62/66 22/22/22
f 22/22/22 57/62/66 8/63/7
f 73/79/82 74/80/83 84/92/96
f 91/100/107 73/79/82 92/101/108
f 73/79/82 91/100/107 72/78/81
f 93/102/109 83/91/95 94/103/110
f 83/91/95 93/102/109 82/90/94
f 94/103/110 40/41/44 53/55/62
f 40/41/44 94/103/110 83/91/95
f 86/94/98 82/90/94 93/102/109
f 73/79/82 84/92/96 92/101/108
