# Wavefront OBJ
# Created by fragMOTION 1.3.7
# http://www.fragmosoft.com

mtllib Bob_Hair_Fabian.mtl
# 77 vertices
v 0.0183632 0.931031 -0.110275
v 0.0385286 0.954485 -0.114498
v 0.0280931 0.934997 -0.101632
v 0.0255062 0.952049 -0.0979471
v 0.0531024 0.88597 -0.0830413
v 0.0548773 0.938205 -0.109578
v 0.063146 0.890218 -0.0646698
v 0.0429644 0.927633 -0.088461
v 0.0469018 0.842102 -0.0523381
v 0.0495479 0.80862 -0.0590647
v 0.0433586 0.987505 -0.0508772
v 0.025401 0.98428 -0.0511492
v 0.0808528 0.904902 -0.028827
v 0.0616748 0.959568 -0.0446853
v 0.0744056 0.818126 -0.032734
v 0.0573156 0.821585 -0.0511995
v 0.0374507 0.989812 -0.018615
v 0.00482871 0.985208 -0.0133588
v 0.0572759 0.955951 0.019844
v 0.0557736 0.971004 0.00583599
v 0.0797175 0.85318 -0.0230721
v 0.00471149 0.966678 0.0307179
v 0.0499716 0.892541 0.0257309
v 0.00465765 0.895715 0.0416807
v 0.0511722 0.811821 0.0683471
v 0.00312786 0.799017 0.087135
v 0.0736866 0.850896 0.00196587
v 0.0616617 0.853819 0.0100865
v 0.0810874 0.809587 -0.00183593
v 0.0784442 0.797429 0.0502398
v 0.00496259 0.940317 -0.0735086
v 0.0279902 0.945458 -0.0589749
v 0.0295246 0.938099 -0.0458374
v 0.0384136 0.894456 -0.0399352
v 0.0262729 0.793204 -0.0217953
v 0.0153376 0.803151 0.0207143
v 0.0668188 0.886421 0.00918993
v 0.0615319 0.751012 0.0745102
v 0.00407573 0.727762 0.0914156
v -0.00994951 0.963396 -0.1168
v 0.000674412 0.917659 -0.124749
v -0.033891 0.863596 -0.0978915
v -0.0429943 0.950175 -0.101331
v -0.0248765 0.896589 -0.115184
v -0.0533301 0.893157 -0.0531562
v -0.0383022 0.807843 -0.0602586
v -0.0141839 0.786184 -0.0499005
v -0.0220904 0.716528 -0.0664306
v -0.021262 0.828044 -0.0743981
v -0.0150724 0.99642 -0.0532045
v -0.0655513 0.90715 -0.0202475
v -0.0500737 0.968901 -0.0472437
v -0.0638623 0.816903 -0.034613
v -0.0387296 0.742044 -0.051153
v -0.0610002 0.720552 -0.0481693
v -0.0464013 0.820668 -0.052609
v -0.0109698 1.00133 -0.0215576
v -0.0430898 0.955988 0.0195927
v -0.041155 0.972235 0.00530036
v -0.0698128 0.851857 -0.0251042
v -0.0737583 0.790428 -0.0289841
v -0.0334902 0.892572 0.025522
v -0.0443732 0.81042 0.0661874
v -0.0573469 0.886467 0.00887906
v -0.0703659 0.795248 0.046876
v -0.0525259 0.852809 0.00853472
v -0.071141 0.808241 -0.00390466
v -0.0181337 0.945475 -0.0590904
v -0.0197393 0.938117 -0.0459607
v -0.0286902 0.894481 -0.0401032
v -0.00618464 0.802835 0.0202278
v -0.0532146 0.74933 0.0719164
v -0.0643261 0.849676 9.03324e-005
v 0.0376639 0.717404 -0.0650798
v 0.0528412 0.743386 -0.049083
v 0.0755743 0.722554 -0.0450821
v 0.0854 0.792762 -0.0253863
# 90 texture vertices
vt 0.485407 -0.442324
vt 0.489868 -0.45376
vt 0.514561 -0.459973
vt 0.521933 -0.438716
vt 0.482517 -0.571379
vt 0.497858 -0.583379
vt 0.50101 -0.48625
vt 0.479138 -0.49688
vt 0.459341 -0.646566
vt 0.448615 -0.691638
vt 0.597935 -0.475743
vt 0.607531 -0.452877
vt 0.546581 -0.603508
vt 0.574527 -0.520604
vt 0.467879 -0.685623
vt 0.492313 -0.711783
vt 0.631631 -0.498399
vt 0.677794 -0.481886
vt 0.627829 -0.572879
vt 0.625263 -0.549052
vt 0.526127 -0.676094
vt 0.683763 -0.562227
vt 0.617601 -0.663392
vt 0.683934 -0.670127
vt 0.621843 -0.801061
vt 0.681775 -0.828285
vt 0.554328 -0.698065
vt 0.526724 -0.751897
vt 0.572818 -0.702851
vt 0.578654 -0.811269
vt 0.665043 -0.034096
vt 0.689407 -0.036508
vt 0.590162 -0.036175
vt 0.550186 -0.034096
vt 0.648516 -0.103696
vt 0.636269 -0.047843
vt 0.521412 -0.047843
vt 0.533659 -0.106424
vt 0.591981 -0.170053
vt 0.535446 -0.242926
vt 0.420589 -0.242926
vt 0.582822 -0.658725
vt 0.606266 -0.894758
vt 0.678342 -0.935471
vt 0.897303 -0.409918
vt 0.879907 -0.378119
vt 0.843511 -0.42353
vt 0.901356 -0.450432
vt 0.915018 -0.577687
vt 0.903896 -0.509218
vt 0.83989 -0.47841
vt 0.846835 -0.590709
vt 0.914082 -0.688756
vt 0.986078 -0.795404
vt 0.959717 -0.694541
vt 0.918065 -0.650041
vt 0.818975 -0.367437
vt 0.750391 -0.383536
vt 0.749488 -0.447877
vt 0.78183 -0.506131
vt 0.804041 -0.606804
vt 0.869475 -0.711218
vt 0.936777 -0.828896
vt 0.945909 -0.782345
vt 0.893432 -0.68401
vt 0.69814 -0.411491
vt 0.713587 -0.476808
vt 0.735563 -0.544549
vt 0.733559 -0.571424
vt 0.834931 -0.676676
vt 0.868782 -0.75689
vt 0.740554 -0.664935
vt 0.742063 -0.802852
vt 0.780145 -0.657383
vt 0.784845 -0.81349
vt 0.834453 -0.75205
vt 0.786862 -0.704035
vt 0.734387 -0.049295
vt 0.699636 -0.12815
vt 0.723061 -0.079754
vt 0.608487 -0.242926
vt 0.654061 -0.180915
vt 0.757556 -0.894893
vt 0.806327 -0.698865
vt 0.69187 -0.328436
vt 0.629677 -0.211604
vt 0.37595 -0.798722
vt 0.416099 -0.784384
vt 0.425215 -0.829868
vt 0.492674 -0.75697
# 77 normals
vn 0.608767 -0.609686 -0.507628
vn 0.104908 -0.971265 -0.213632
vn 0.0306859 0.468131 -0.883126
vn -0.140063 0.776477 -0.614382
vn -0.0451972 -0.572267 -0.818821
vn 0.86701 -0.224081 -0.445064
vn 0.552125 -0.0997652 -0.827771
vn -0.742246 -0.593818 -0.310565
vn -0.799298 -0.0178777 -0.5977
vn -0.0638295 -0.0355108 -0.99465
vn 0.381718 0.881472 -0.278027
vn 0.0623726 0.939518 -0.336771
vn 0.99636 0.0835216 -0.0170718
vn 0.900634 0.419399 -0.11386
vn 0.765164 -0.164877 -0.61592
vn 0.74929 -0.0281818 -0.655587
vn 0.236366 0.959272 0.154685
vn 0.333237 0.89553 0.294923
vn 0.66057 0.330159 0.674271
vn 0.696185 0.62084 0.360394
vn 0.995764 0.0420109 -0.0315543
vn -0.00182794 0.524651 0.851315
vn 0.576887 0.199682 0.792041
vn -0.0269434 0.351112 0.935946
vn 0.447977 0.33829 0.827573
vn -0.0256163 0.258286 0.965729
vn 0.822082 0.085377 0.560164
vn 0.95972 0.202366 0.185271
vn 0.848085 0.139893 0.508292
vn 0.760141 0.3222 0.564245
vn 0.0931676 -0.93798 0.333935
vn -0.649512 -0.760337 0.00466599
vn -0.918417 -0.328503 -0.220447
vn -0.938561 -0.125842 -0.321352
vn -0.909873 0.0725372 -0.408496
vn -0.963579 0.0571755 -0.261239
vn 0.839041 0.0468345 0.542049
vn 0.373389 0.121398 0.919697
vn -0.0234321 0.0596312 0.997945
vn -0.0361665 0.599374 -0.799652
vn 0.386345 -0.557816 -0.73456
vn 0.0368773 -0.387855 -0.920982
vn 0.15257 -0.572776 -0.805388
vn -0.753715 0.337991 -0.563628
vn -0.930692 -0.0727794 -0.358492
vn -0.462031 -0.296302 -0.834776
vn -0.348681 -0.0317618 -0.936703
vn 0.795575 0.0435417 -0.604289
vn 0.732043 -0.291764 -0.609201
vn -0.206224 0.932368 -0.296919
vn -0.836904 0.535591 -0.112847
vn -0.993323 0.11319 0.0223063
vn -0.724627 -0.0105849 -0.686493
vn -0.337346 0.0891267 -0.937152
vn -0.560451 -0.0261184 -0.827776
vn -0.733342 -0.106873 -0.669319
vn -0.0636222 0.979286 0.192226
vn -0.677602 0.627054 0.384265
vn -0.652029 0.323357 0.685783
vn -0.949279 0.106318 -0.28682
vn -0.85207 0.0563819 -0.520382
vn -0.533022 0.217589 0.817644
vn -0.503566 0.337412 0.795345
vn -0.797794 0.0545768 0.600455
vn -0.786415 0.319275 0.528786
vn -0.965964 0.185342 0.159103
vn -0.818264 0.201144 0.531039
vn 0.848779 -0.484708 0.211265
vn 0.997553 -0.0352964 -0.0603586
vn 0.981334 -0.189695 0.0316065
vn 0.979309 0.140986 -0.145175
vn -0.417952 0.109796 0.90181
vn -0.82954 0.081541 0.545258
vn -0.0265205 0.0408876 -0.998812
vn 0.5978 -0.00913789 -0.801594
vn 0.376582 0.0995932 -0.921015
vn 0.872691 0.0816677 -0.481395
usemtl _09_-_Defaulteee
g Bob_Hair_Fabian
s off
f 1/1/1 2/3/3 3/2/2
f 2/3/3 1/1/1 4/4/4
f 5/5/5 6/7/7 7/6/6
f 6/7/7 5/5/5 8/8/8
f 7/6/6 9/9/9 5/5/5
f 9/9/9 7/6/6 10/10/10
f 4/4/4 11/11/11 2/3/3
f 11/11/11 4/4/4 12/12/12
f 6/7/7 13/13/13 7/6/6
f 13/13/13 6/7/7 14/14/14
f 7/6/6 15/16/16 16/15/15
f 15/16/16 7/6/6 13/13/13
f 12/12/12 17/17/17 11/11/11
f 17/17/17 12/12/12 18/18/18
f 14/14/14 19/19/19 13/13/13
f 19/19/19 14/14/14 20/20/20
f 13/13/13 21/21/21 15/16/16
f 18/18/18 22/22/22 17/17/17
f 22/22/22 23/23/23 19/19/19
f 23/23/23 22/22/22 24/24/24
f 24/24/24 25/25/25 23/23/23
f 25/25/25 24/24/24 26/26/26
f 27/27/27 28/29/29 29/28/28
f 23/23/23 30/30/30 28/29/29
f 3/2/2 6/7/7 8/8/8
f 6/7/7 3/2/2 2/3/3
f 2/3/3 14/14/14 6/7/7
f 14/14/14 2/3/3 11/11/11
f 11/11/11 20/20/20 14/14/14
f 20/20/20 11/11/11 17/17/17
f 20/20/20 22/22/22 19/19/19
f 22/22/22 20/20/20 17/17/17
f 3/31/2 31/33/31 1/32/1
f 31/33/31 3/31/2 32/34/32
f 5/35/5 33/37/33 8/36/8
f 33/37/33 5/35/5 34/38/34
f 9/39/9 34/38/34 5/35/5
f 35/40/35 34/38/34 9/39/9
f 35/40/35 36/41/36 34/38/34
f 8/36/8 32/34/32 3/31/2
f 32/34/32 8/36/8 33/37/33
f 7/6/6 16/15/15 10/10/10
f 37/42/37 21/21/21 13/13/13
f 21/21/21 37/42/37 27/27/27
f 30/30/30 23/23/23 25/25/25
f 30/30/30 25/25/25 38/43/38
f 38/43/38 26/26/26 39/44/39
f 26/26/26 38/43/38 25/25/25
f 1/45/1 40/47/40 4/46/4
f 40/47/40 1/45/1 41/48/41
f 42/49/42 43/51/44 44/50/43
f 43/51/44 42/49/42 45/52/45
f 46/53/46 47/55/48 48/54/47
f 47/55/48 46/53/46 49/56/49
f 4/57/4 50/59/50 12/58/12
f 50/59/50 4/57/4 40/47/40
f 43/51/44 51/61/52 52/60/51
f 51/61/52 43/51/44 45/52/45
f 53/62/53 54/64/55 55/63/54
f 54/64/55 53/62/53 56/65/56
f 12/66/12 57/67/57 18/18/18
f 57/67/57 12/66/12 50/59/50
f 52/60/51 58/69/59 59/68/58
f 58/69/59 52/60/51 51/61/52
f 60/70/60 55/63/54 61/71/61
f 55/63/54 60/70/60 53/62/53
f 18/18/18 57/67/57 22/22/22
f 22/22/22 62/72/62 24/24/24
f 62/72/62 22/22/22 58/69/59
f 24/24/24 63/73/63 26/26/26
f 63/73/63 24/24/24 62/72/62
f 58/69/59 64/74/64 62/72/62
f 65/75/65 66/77/67 67/76/66
f 41/48/41 43/51/44 40/47/40
f 43/51/44 41/48/41 44/50/43
f 40/47/40 52/60/51 50/59/50
f 52/60/51 40/47/40 43/51/44
f 50/59/50 59/68/58 57/67/57
f 59/68/58 50/59/50 52/60/51
f 59/68/58 58/69/59 22/22/22
f 22/22/22 57/67/57 59/68/58
f 41/78/41 31/33/31 68/34/68
f 31/33/31 41/78/41 1/32/1
f 42/79/42 69/37/70 70/38/69
f 69/37/70 42/79/42 44/80/43
f 47/81/48 70/38/69 71/41/71
f 70/38/69 49/82/49 42/79/42
f 47/81/48 49/82/49 70/38/69
f 44/80/43 68/34/68 69/37/70
f 68/34/68 44/80/43 41/78/41
f 56/65/56 48/54/47 54/64/55
f 48/54/47 56/65/56 46/53/46
f 51/61/52 64/74/64 58/69/59
f 65/75/65 63/73/63 62/72/62
f 65/75/65 72/83/72 63/73/63
f 72/83/72 26/26/26 63/73/63
f 26/26/26 72/83/72 39/44/39
f 66/77/67 64/74/64 73/84/73
f 64/74/64 66/77/67 62/72/62
f 67/76/66 60/70/60 61/71/61
f 60/70/60 67/76/66 73/84/73
f 23/23/23 37/42/37 19/19/19
f 37/42/37 13/13/13 19/19/19
f 42/49/42 46/53/46 45/52/45
f 46/53/46 42/49/42 49/56/49
f 46/53/46 56/65/56 45/52/45
f 45/52/45 53/62/53 51/61/52
f 53/62/53 45/52/45 56/65/56
f 53/62/53 60/70/60 51/61/52
f 60/70/60 64/74/64 51/61/52
f 64/74/64 60/70/60 73/84/73
f 66/77/67 73/84/73 67/76/66
f 27/27/27 23/23/23 28/29/29
f 23/23/23 27/27/27 37/42/37
f 28/29/29 30/30/30 29/28/28
f 66/77/67 65/75/65 62/72/62
f 35/40/35 10/86/10 74/85/74
f 10/86/10 35/40/35 9/39/9
f 10/10/10 75/88/75 74/87/74
f 75/88/75 10/10/10 16/15/15
f 75/88/75 15/16/16 76/89/76
f 15/16/16 75/88/75 16/15/15
f 15/16/16 77/90/77 76/89/76
f 77/90/77 15/16/16 21/21/21
f 21/21/21 29/28/28 77/90/77
f 29/28/28 21/21/21 27/27/27
