# Wavefront OBJ
# Created by fragMOTION 1.3.7
# http://www.fragmosoft.com

mtllib Bob_Hair_PartingCentreLong.mtl
# 87 vertices
v 0.00504784 0.943213 -0.107135
v 0.0179212 0.966374 -0.0934421
v 0.0213996 0.944897 -0.124328
v 0.00498873 0.963203 -0.0805523
v 0.0178388 0.980298 -0.058428
v 0.00493136 0.975133 -0.05586
v 0.00483613 0.987329 -0.016007
v 0.0469351 0.931712 -0.10088
v 0.0499791 0.951637 -0.0835327
v 0.0469002 0.969659 -0.0485743
v 0.0317883 0.977929 0.00295671
v 0.0634399 0.906641 -0.0849533
v 0.065347 0.931361 -0.069336
v 0.067111 0.944525 -0.032602
v 0.0547819 0.945168 0.0130333
v 0.0671654 0.871864 -0.0711228
v 0.0731579 0.880867 -0.0508031
v 0.0716728 0.892705 -0.0166706
v 0.0573919 0.902993 0.025148
v 0.0317799 0.947008 0.0248667
v 0.00476331 0.978383 0.0117524
v 0.0359012 0.905928 0.0370378
v 0.00465377 0.90791 0.045044
v 0.00470155 0.947743 0.0318738
v 0.0577018 0.859686 -0.0891049
v 0.0523717 0.87852 -0.0706645
v 0.0564346 0.892579 -0.0977076
v 0.00501653 0.936964 -0.0955555
v 0.0138607 0.93747 -0.0919495
v 0.0445366 0.923837 -0.109456
v 0.0346504 0.926408 -0.0882486
v 0.0644586 0.832595 -0.0606816
v 0.0552808 0.836472 -0.0561985
v 0.0534426 0.818149 -0.0868151
v 0.0541704 0.883703 -0.0478006
v 0.0572023 0.847158 -0.0380149
v 0.0690375 0.841917 -0.0404449
v 0.0585465 0.86453 -0.0107682
v 0.0683169 0.855297 -0.0066887
v 0.047017 0.872394 0.0225736
v 0.0587948 0.871684 0.0325442
v 0.0319559 0.87633 0.0299696
v 0.0367165 0.877033 0.0465969
v 0.0046143 0.881207 0.0568434
v 0.00466124 0.878233 0.0376514
v -0.0078767 0.966384 -0.0935067
v -0.0112163 0.944909 -0.124409
v -0.00795918 0.980308 -0.0584926
v -0.0368787 0.931743 -0.101089
v -0.0399947 0.95167 -0.083758
v -0.0370775 0.969691 -0.0487846
v -0.0222176 0.977949 0.0028215
v -0.0534818 0.906684 -0.085246
v -0.0554486 0.931406 -0.0696384
v -0.0573867 0.944571 -0.0329137
v -0.0452858 0.945205 0.0127828
v -0.0600303 0.871912 -0.0714412
v -0.0651697 0.880919 -0.0511495
v -0.0620668 0.892754 -0.0170055
v -0.0479878 0.903033 0.0248841
v -0.0223419 0.947029 0.0247312
v -0.0265546 0.905951 0.0368814
v -0.0477579 0.859725 -0.089369
v -0.0464231 0.892617 -0.0979652
v -0.0425061 0.878556 -0.070902
v -0.00384523 0.937477 -0.0919938
v -0.0344432 0.923866 -0.109654
v -0.0246614 0.92643 -0.0883971
v -0.0455199 0.836509 -0.0564509
v -0.054677 0.832639 -0.0609799
v -0.0435411 0.818185 -0.0870579
v -0.0444394 0.88374 -0.0480475
v -0.0475464 0.847197 -0.0382772
v -0.0593732 0.841965 -0.0407664
v -0.0489912 0.86457 -0.0110374
v -0.0587897 0.855344 -0.00700693
v -0.0376228 0.872425 0.0223617
v -0.0494509 0.871724 0.0322732
v -0.022596 0.87635 0.0298331
v -0.0274393 0.877056 0.0464363
v 0.0528718 0.895174 -0.0191131
v 0.0445152 0.903036 0.0142366
v 0.0281186 0.905233 0.0231567
v 0.00468901 0.907134 0.0308494
v -0.0187032 0.90525 0.0230395
v -0.0350566 0.903066 0.0140373
v -0.0432519 0.89521 -0.0193538
# 83 texture vertices
vt 0.05084 -0.049895
vt 0.056952 -0.082461
vt 0.128975 -0.065172
vt 0.129376 -0.037781
vt 0.202001 -0.060199
vt 0.199129 -0.034747
vt 0.383406 -0.052462
vt 0.088338 -0.137229
vt 0.139644 -0.120638
vt 0.214517 -0.108613
vt 0.33642 -0.10483
vt 0.107647 -0.185545
vt 0.153886 -0.172757
vt 0.229039 -0.153931
vt 0.301087 -0.164378
vt 0.10871 -0.239253
vt 0.155289 -0.238852
vt 0.226808 -0.237139
vt 0.294908 -0.235132
vt 0.348981 -0.170974
vt 0.379811 -0.116436
vt 0.340022 -0.236144
vt 0.385867 -0.23719
vt 0.38272 -0.174433
vt 0.055229 -0.244022
vt 0.054479 -0.194545
vt 0.09218 -0.258725
vt 0.100074 -0.042301
vt 0.100088 -0.072106
vt 0.063754 -0.142766
vt 0.106833 -0.285267
vt 0.057651 -0.279315
vt 0.099725 -0.312409
vt 0.153016 -0.254799
vt 0.156495 -0.316992
vt 0.157113 -0.286244
vt 0.228386 -0.316293
vt 0.225732 -0.290898
vt 0.298224 -0.316561
vt 0.296536 -0.282149
vt 0.343958 -0.315437
vt 0.341419 -0.281924
vt 0.3863 -0.318305
vt 0.383465 -0.281653
vt 0.755416 -0.039387
vt 0.676038 -0.030905
vt 0.678531 -0.058241
vt 0.751784 -0.072209
vt 0.606028 -0.031105
vt 0.605138 -0.056625
vt 0.723226 -0.128472
vt 0.672165 -0.114145
vt 0.59644 -0.105403
vt 0.437275 -0.104305
vt 0.707552 -0.177687
vt 0.661956 -0.166967
vt 0.586031 -0.151536
vt 0.4824 -0.162005
vt 0.710275 -0.231436
vt 0.665064 -0.233145
vt 0.593314 -0.234831
vt 0.489693 -0.23148
vt 0.428555 -0.167605
vt 0.439786 -0.231588
vt 0.752121 -0.233727
vt 0.72035 -0.247356
vt 0.75784 -0.184585
vt 0.70387 -0.063073
vt 0.7052 -0.034021
vt 0.746789 -0.132951
vt 0.70862 -0.124374
vt 0.709388 -0.309787
vt 0.756634 -0.287851
vt 0.71176 -0.287539
vt 0.668458 -0.248968
vt 0.663333 -0.288043
vt 0.665249 -0.313206
vt 0.596175 -0.285905
vt 0.59587 -0.31795
vt 0.495884 -0.284481
vt 0.502605 -0.318525
vt 0.448879 -0.28507
vt 0.451273 -0.317288
# 123 normals
vn -0.601931 0.626938 -0.494599
vn 0.289925 0.772401 -0.565102
vn -0.0413304 0.852158 -0.521649
vn -0.539173 0.749159 -0.384777
vn 0.0297474 0.955842 -0.29237
vn -0.406695 0.850879 -0.332572
vn 0.000275286 0.999259 0.0384824
vn 0.760341 0.393372 -0.516856
vn 0.68055 0.570742 -0.459462
vn 0.61991 0.771287 -0.144321
vn 0.453644 0.799225 0.394266
vn 0.917554 0.0879318 -0.387765
vn 0.919308 0.274574 -0.281926
vn 0.918183 0.394291 0.0383967
vn 0.743894 0.403056 0.533074
vn 0.944842 -0.0725965 -0.31938
vn 0.993553 -0.0167729 -0.112122
vn 0.984643 0.0439483 0.168956
vn 0.779626 0.183356 0.598803
vn 0.341451 0.420485 0.840597
vn -0.00130081 0.77294 0.634478
vn 0.38542 0.284805 0.877689
vn 0.00879467 0.348689 0.937197
vn -0.00210194 0.428817 0.903389
vn -0.990485 -0.0515912 -0.127585
vn -0.884685 -0.348281 -0.30989
vn -0.9797 -0.193337 -0.0529917
vn -0.408741 -0.854789 -0.319791
vn -0.379064 -0.813948 -0.440226
vn -0.0077346 -0.96287 -0.269853
vn -0.216205 -0.950537 -0.22301
vn -0.684801 -0.669259 -0.288341
vn -0.705662 -0.682279 -0.191144
vn -0.136398 -0.851878 0.505667
vn -0.981904 -0.13064 0.137106
vn -0.745352 -0.564606 0.354501
vn 0.878425 -0.00642647 -0.477837
vn 0.906892 -0.100478 -0.409208
vn 0.790883 0.297562 -0.534754
vn -0.986109 -0.139671 0.0898989
vn -0.244318 -0.827156 0.506085
vn -0.331637 -0.824865 0.457837
vn -0.667256 -0.73526 0.119006
vn -0.668065 -0.730348 0.142407
vn -0.28362 -0.938968 0.194677
vn -0.243939 -0.947308 0.207608
vn -0.132931 -0.985641 0.104116
vn -0.138201 -0.987064 0.0812706
vn -0.000750868 -0.988203 0.153145
vn -0.000678179 -0.992345 0.123493
vn 0.604866 0.626489 -0.491578
vn 0.54165 0.748757 -0.382071
vn 0.0445753 0.852126 -0.521434
vn -0.286517 0.772616 -0.566545
vn 0.408988 0.850576 -0.33053
vn -0.0275724 0.955864 -0.292513
vn -0.757451 0.393937 -0.520656
vn -0.677816 0.571248 -0.462862
vn -0.618606 0.771747 -0.147422
vn -0.455017 0.799563 0.391992
vn -0.898634 0.113351 -0.423803
vn -0.911478 0.288848 -0.292872
vn -0.915533 0.400575 0.0365769
vn -0.746253 0.40361 0.529344
vn -0.935619 -0.0981973 -0.339077
vn -0.995981 -0.0136789 -0.0885158
vn -0.982846 0.0614571 0.173887
vn -0.77878 0.207985 0.591814
vn -0.345342 0.42074 0.838878
vn -0.390096 0.303565 0.869295
vn 0.95476 0.0243786 -0.296375
vn 0.984819 -0.167607 -0.0451499
vn 0.885966 -0.34894 -0.305459
vn 0.409701 -0.855093 -0.317742
vn 0.216612 -0.950698 -0.221927
vn 0.00836935 -0.962876 -0.269813
vn 0.380658 -0.814231 -0.438324
vn 0.685737 -0.669769 -0.28491
vn 0.706128 -0.682801 -0.187525
vn 0.716192 -0.57397 0.397024
vn 0.968761 -0.229179 0.0947609
vn 0.133208 -0.851946 0.506403
vn -0.85547 0.00917951 -0.517771
vn -0.882136 -0.155486 -0.44459
vn -0.787974 0.298149 -0.538706
vn 0.989996 -0.121154 0.0723212
vn 0.3287 -0.825098 0.459532
vn 0.241159 -0.827348 0.507285
vn 0.666768 -0.730914 0.145549
vn 0.666073 -0.735819 0.122135
vn 0.242191 -0.94749 0.208823
vn 0.28194 -0.93918 0.196091
vn 0.137058 -0.987166 0.0819596
vn 0.131675 -0.98574 0.104778
vn -0.993758 -0.045677 0.101776
vn -0.975629 -0.187435 -0.114089
vn -0.980682 -0.174282 -0.0888205
vn -0.789184 -0.21861 -0.573933
vn -0.790664 -0.243545 -0.561727
vn -0.389073 -0.248638 -0.887018
vn -0.394417 -0.262165 -0.880741
vn -0.00831543 -0.240141 -0.970702
vn -0.00736973 -0.239457 -0.970879
vn 0.402278 -0.262066 -0.877208
vn 0.404814 -0.251799 -0.879046
vn 0.776524 -0.247041 -0.57964
vn 0.781986 -0.221861 -0.582474
vn 0.982446 -0.174379 -0.0662694
vn 0.985008 -0.170476 -0.0264213
vn 0.991066 -0.0754244 0.110001
vn -0.94685 -0.16325 -0.277173
vn -0.934893 -0.113612 -0.336256
vn -0.986328 -0.156165 -0.0526249
vn -0.985413 -0.0614264 0.158705
vn -0.829584 0.134942 0.541831
vn -0.439577 0.276027 0.85474
vn 0.0177964 0.384998 0.922746
vn 0.434681 0.311667 0.844935
vn 0.838006 0.177412 0.516014
vn 0.987417 -0.0237883 0.15634
vn 0.991584 -0.11625 -0.0569834
vn 0.955771 -0.144351 -0.25625
vn 0.929561 -0.137548 -0.342049
usemtl _09_-_Defaultaaa
g Bob_Hair_PartingCentreLong
s off
f 1/1/1 2/3/3 3/2/2
f 2/3/3 1/1/1 4/4/4
f 4/4/4 5/5/5 2/3/3
f 5/5/5 4/4/4 6/6/6
f 6/6/6 7/7/7 5/5/5
f 8/8/8 2/3/3 9/9/9
f 2/3/3 8/8/8 3/2/2
f 9/9/9 5/5/5 10/10/10
f 5/5/5 9/9/9 2/3/3
f 10/10/10 7/7/7 11/11/11
f 7/7/7 10/10/10 5/5/5
f 12/12/12 9/9/9 13/13/13
f 9/9/9 12/12/12 8/8/8
f 13/13/13 10/10/10 14/14/14
f 10/10/10 13/13/13 9/9/9
f 14/14/14 11/11/11 15/15/15
f 11/11/11 14/14/14 10/10/10
f 16/16/16 13/13/13 17/17/17
f 13/13/13 16/16/16 12/12/12
f 17/17/17 14/14/14 18/18/18
f 14/14/14 17/17/17 13/13/13
f 18/18/18 15/15/15 19/19/19
f 15/15/15 18/18/18 14/14/14
f 20/20/20 11/11/11 21/21/21
f 11/11/11 20/20/20 15/15/15
f 22/22/22 15/15/15 20/20/20
f 15/15/15 22/22/22 19/19/19
f 23/23/23 20/20/20 24/24/24
f 20/20/20 23/23/23 22/22/22
f 20/20/20 21/21/21 24/24/24
f 11/11/11 7/7/7 21/21/21
f 25/25/25 26/27/27 27/26/26
f 3/2/28 28/28/30 1/1/29
f 28/28/30 3/2/28 29/29/31
f 30/30/32 29/29/31 3/2/28
f 29/29/31 30/30/32 31/8/33
f 27/26/26 31/8/33 30/30/32
f 31/8/33 27/26/26 26/27/27
f 32/31/34 33/33/36 34/32/35
f 27/26/37 16/16/16 25/25/38
f 16/16/16 27/26/37 12/12/12
f 30/30/39 12/12/12 27/26/37
f 12/12/12 30/30/39 8/8/8
f 8/8/8 30/30/39 3/2/2
f 31/8/33 26/27/27 35/34/40
f 32/31/34 36/35/41 33/33/36
f 36/35/41 32/31/34 37/36/42
f 37/36/42 38/37/43 36/35/41
f 38/37/43 37/36/42 39/38/44
f 39/38/44 40/39/45 38/37/43
f 40/39/45 39/38/44 41/40/46
f 41/40/46 42/41/47 40/39/45
f 42/41/47 41/40/46 43/42/48
f 42/41/47 44/44/50 45/43/49
f 44/44/50 42/41/47 43/42/48
f 1/45/51 46/47/53 4/46/52
f 46/47/53 1/45/51 47/48/54
f 4/46/52 48/50/56 6/49/55
f 48/50/56 4/46/52 46/47/53
f 6/49/55 48/50/56 7/7/7
f 49/51/57 46/47/53 47/48/54
f 46/47/53 49/51/57 50/52/58
f 50/52/58 48/50/56 46/47/53
f 48/50/56 50/52/58 51/53/59
f 51/53/59 7/7/7 48/50/56
f 7/7/7 51/53/59 52/54/60
f 53/55/61 50/52/58 49/51/57
f 50/52/58 53/55/61 54/56/62
f 54/56/62 51/53/59 50/52/58
f 51/53/59 54/56/62 55/57/63
f 55/57/63 52/54/60 51/53/59
f 52/54/60 55/57/63 56/58/64
f 57/59/65 54/56/62 53/55/61
f 54/56/62 57/59/65 58/60/66
f 58/60/66 55/57/63 54/56/62
f 55/57/63 58/60/66 59/61/67
f 59/61/67 56/58/64 55/57/63
f 56/58/64 59/61/67 60/62/68
f 61/63/69 52/54/60 56/58/64
f 52/54/60 61/63/69 21/21/21
f 62/64/70 56/58/64 60/62/68
f 56/58/64 62/64/70 61/63/69
f 23/23/23 61/63/69 62/64/70
f 61/63/69 23/23/23 24/24/24
f 61/63/69 24/24/24 21/21/21
f 52/54/60 21/21/21 7/7/7
f 63/65/71 64/67/73 65/66/72
f 47/48/74 28/69/76 66/68/75
f 28/69/76 47/48/74 1/45/77
f 67/70/78 66/68/75 68/71/79
f 66/68/75 67/70/78 47/48/74
f 64/67/73 68/71/79 65/66/72
f 68/71/79 64/67/73 67/70/78
f 69/72/80 70/74/82 71/73/81
f 64/67/83 57/59/65 53/55/61
f 57/59/65 64/67/83 63/65/84
f 67/70/85 53/55/61 49/51/57
f 53/55/61 67/70/85 64/67/83
f 49/51/57 47/48/54 67/70/85
f 68/71/79 72/75/86 65/66/72
f 70/74/82 73/77/88 74/76/87
f 73/77/88 70/74/82 69/72/80
f 74/76/87 75/79/90 76/78/89
f 75/79/90 74/76/87 73/77/88
f 76/78/89 77/81/92 78/80/91
f 77/81/92 76/78/89 75/79/90
f 78/80/91 79/83/94 80/82/93
f 79/83/94 78/80/91 77/81/92
f 79/83/94 44/44/50 80/82/93
f 44/44/50 79/83/94 45/43/49
f 25/25/25 33/33/36 26/27/27
f 33/33/36 25/25/25 34/32/35
f 26/27/27 36/35/95 35/34/40
f 36/35/95 26/27/27 33/33/36
f 35/34/40 38/37/97 81/18/96
f 38/37/97 35/34/40 36/35/95
f 81/18/96 40/39/99 82/19/98
f 40/39/99 81/18/96 38/37/97
f 82/19/98 42/41/101 83/22/100
f 42/41/101 82/19/98 40/39/99
f 83/22/100 45/43/103 84/23/102
f 45/43/103 83/22/100 42/41/101
f 84/23/102 79/83/105 85/64/104
f 79/83/105 84/23/102 45/43/103
f 85/64/104 77/81/107 86/62/106
f 77/81/107 85/64/104 79/83/105
f 86/62/106 75/79/109 87/61/108
f 75/79/109 86/62/106 77/81/107
f 87/61/108 73/77/110 72/75/86
f 73/77/110 87/61/108 75/79/109
f 72/75/86 69/72/80 65/66/72
f 69/72/80 72/75/86 73/77/110
f 65/66/72 71/73/81 63/65/71
f 71/73/81 65/66/72 69/72/80
f 63/65/84 70/74/111 57/59/65
f 70/74/111 63/65/84 71/73/112
f 57/59/65 74/76/113 58/60/66
f 74/76/113 57/59/65 70/74/111
f 58/60/66 76/78/114 59/61/67
f 76/78/114 58/60/66 74/76/113
f 59/61/67 78/80/115 60/62/68
f 78/80/115 59/61/67 76/78/114
f 60/62/68 80/82/116 62/64/70
f 80/82/116 60/62/68 78/80/115
f 62/64/70 44/44/117 23/23/23
f 44/44/117 62/64/70 80/82/116
f 23/23/23 43/42/118 22/22/22
f 43/42/118 23/23/23 44/44/117
f 22/22/22 41/40/119 19/19/19
f 41/40/119 22/22/22 43/42/118
f 19/19/19 39/38/120 18/18/18
f 39/38/120 19/19/19 41/40/119
f 18/18/18 37/36/121 17/17/17
f 37/36/121 18/18/18 39/38/120
f 17/17/17 32/31/122 16/16/16
f 32/31/122 17/17/17 37/36/121
f 16/16/16 34/32/123 25/25/38
f 34/32/123 16/16/16 32/31/122
