# Wavefront OBJ
# Created by fragMOTION 1.3.7
# http://www.fragmosoft.com

mtllib Bob_Hair_Messy.mtl
# 80 vertices
v 0.066277 0.882425 0.00563452
v 0.0343508 0.870277 0.0246032
v 0.0317004 0.859073 0.000335186
v 0.0512132 0.884131 0.0277246
v 0.0354346 0.975088 -0.0510272
v 0.0051055 0.962703 -0.0815995
v 0.00503217 0.97476 -0.0505374
v 0.0627446 0.907475 -0.0307714
v 0.0639064 0.94072 -0.0548493
v 0.0776976 0.925054 -0.0349168
v 0.0585617 0.920146 -0.0488547
v 0.0657523 0.912567 -0.0151155
v 0.0779012 0.930708 -0.00118928
v 0.0667111 0.911926 0.00122779
v 0.0470682 0.919353 0.0333853
v 0.00477852 0.921685 0.0427225
v 0.0468038 0.963205 0.0269484
v 0.00480305 0.96607 0.0395758
v 0.0245245 0.961685 -0.0749386
v 0.0272963 0.942434 -0.0785436
v 0.0643823 0.9512 -0.0432661
v 0.0640219 0.954812 -0.0146433
v 0.00488135 0.980717 0.010527
v 0.00477236 0.866588 0.0369397
v 0.00474046 0.880878 0.0518057
v 0.0590127 0.889999 -0.0442124
v 0.0632431 0.894807 -0.0296825
v 0.041069 0.877712 -0.00868415
v 0.0237965 0.843289 -0.0136535
v 0.0329137 0.984192 -0.020185
v 0.00513889 0.942612 -0.0979237
v 0.00511567 0.923328 -0.0915439
v 0.00494367 0.981761 -0.0141827
v 0.030049 0.86902 -0.00321402
v 0.0335415 0.872624 0.0190578
v 0.0522828 0.941178 -0.0537501
v 0.0541772 0.90384 -0.0515312
v 0.057729 0.908416 -0.029584
v 0.0602912 0.912752 -0.0162501
v 0.0256152 0.942519 -0.0593338
v 0.00479935 0.876955 0.0277231
v 0.0545556 0.886677 -0.04388
v 0.0581465 0.891959 -0.0266632
v 0.0233178 0.855577 -0.0151279
v 0.0463856 0.87258 -0.0100712
v 0.00508959 0.921919 -0.081352
v -0.0565627 0.882471 0.00532666
v -0.0247411 0.8703 0.0244551
v -0.0416085 0.884166 0.027492
v -0.0219775 0.859093 0.000200658
v -0.0253672 0.97511 -0.0511796
v -0.0528291 0.907518 -0.031061
v -0.0538452 0.940764 -0.0551444
v -0.048546 0.920186 -0.0491231
v -0.0677479 0.925109 -0.0352814
v -0.0681164 0.930763 -0.00155524
v -0.0559114 0.912612 -0.0154204
v -0.0569526 0.911972 0.00091786
v -0.0374656 0.919385 0.0331734
v -0.037136 0.963236 0.026738
v -0.0143474 0.961699 -0.0750361
v -0.0171155 0.942451 -0.0786549
v -0.0543713 0.951244 -0.0435637
v -0.0541517 0.954856 -0.0149395
v -0.049043 0.89004 -0.0444832
v -0.0533425 0.894851 -0.0299747
v -0.0312868 0.877739 -0.00886549
v -0.0140154 0.843304 -0.0137482
v -0.0229941 0.984213 -0.0203251
v -0.0203009 0.869038 -0.00334021
v -0.0239023 0.872645 0.0189138
v -0.0422269 0.941213 -0.0539869
v -0.0441605 0.903877 -0.0517776
v -0.0478187 0.908455 -0.0298485
v -0.0504445 0.912794 -0.0165276
v -0.0155307 0.942534 -0.0594369
v -0.0445901 0.886714 -0.0441284
v -0.0482632 0.891999 -0.0269299
v -0.0135201 0.855591 -0.0152202
v -0.0366002 0.872611 -0.0102791
# 86 texture vertices
vt 0.547159 -0.89258
vt 0.564655 -0.975056
vt 0.62347 -0.950548
vt 0.598623 -0.90831
vt 0.575388 -0.633992
vt 0.61492 -0.582588
vt 0.536594 -0.552174
vt 0.466116 -0.797485
vt 0.496257 -0.760087
vt 0.496449 -0.701074
vt 0.471265 -0.745385
vt 0.501565 -0.825399
vt 0.53725 -0.835762
vt 0.543418 -0.793292
vt 0.618746 -0.844867
vt 0.701747 -0.848196
vt 0.702113 -0.763076
vt 0.635069 -0.764032
vt 0.524048 -0.597317
vt 0.482524 -0.60581
vt 0.525842 -0.700515
vt 0.563949 -0.73116
vt 0.702381 -0.698305
vt 0.7018 -0.954852
vt 0.701799 -0.923744
vt 0.416602 -0.771685
vt 0.436929 -0.798637
vt 0.510908 -0.926572
vt 0.535815 -1.00169
vt 0.629576 -0.662782
vt 0.482804 -0.537524
vt 0.443269 -0.548184
vt 0.701249 -0.643195
vt 0.581928 -0.993405
vt 0.623659 -0.964628
vt 0.477443 -0.687122
vt 0.443236 -0.755834
vt 0.465987 -0.810808
vt 0.495903 -0.832556
vt 0.452951 -0.635303
vt 0.701832 -0.978794
vt 0.405967 -0.76943
vt 0.428571 -0.807706
vt 0.536336 -0.99738
vt 0.506121 -0.928981
vt 0.430468 -0.564295
vt 0.856059 -0.892019
vt 0.804905 -0.907872
vt 0.78006 -0.950193
vt 0.838787 -0.974663
vt 0.834346 -0.623041
vt 0.903346 -0.55472
vt 0.769071 -0.578867
vt 0.935509 -0.800552
vt 0.933769 -0.750178
vt 0.912905 -0.703617
vt 0.906023 -0.760453
vt 0.859231 -0.791542
vt 0.864674 -0.834962
vt 0.899889 -0.825468
vt 0.784199 -0.844098
vt 0.769288 -0.761849
vt 0.899871 -0.597337
vt 0.938205 -0.61437
vt 0.88001 -0.697548
vt 0.840429 -0.727449
vt 0.987073 -0.777398
vt 0.965136 -0.803327
vt 0.867557 -1.00142
vt 0.892303 -0.92632
vt 0.775618 -0.65842
vt 0.960445 -0.555581
vt 0.994813 -0.578773
vt 0.779891 -0.964271
vt 0.82152 -0.993003
vt 0.960436 -0.762238
vt 0.933595 -0.692208
vt 0.905081 -0.833117
vt 0.935525 -0.813561
vt 0.966791 -0.64361
vt 0.997792 -0.775248
vt 0.972985 -0.812639
vt 0.867009 -0.997119
vt 0.897174 -0.92888
vt 0.983117 -0.568921
vt 0.967749 -0.553938
# 80 normals
vn 0.878759 -0.477174 -0.00937416
vn -0.17114 -0.901837 0.396739
vn 0.195706 -0.916966 0.347668
vn 0.649599 -0.362493 0.668296
vn 0.395436 0.832847 -0.387295
vn 0.00111326 0.953447 -0.301558
vn 0.00191263 0.760489 -0.649348
vn 0.844607 -0.502917 0.183612
vn 0.911043 -0.229305 -0.342666
vn 0.618582 0.0108303 -0.785645
vn 0.728594 -0.171764 -0.66306
vn 0.719325 -0.671324 -0.178595
vn 0.936037 -0.228832 0.267339
vn 0.962149 0.00944972 0.27236
vn 0.555979 0.0450722 0.829973
vn -0.00241172 0.163085 0.986609
vn -0.00192849 0.529099 0.848558
vn 0.535208 0.554696 0.637076
vn 0.447035 0.568302 -0.690792
vn 0.715314 -0.386907 -0.581919
vn 0.767106 0.574291 -0.285899
vn 0.776711 0.628926 0.0342245
vn -0.000424079 0.950301 0.311334
vn -0.000774487 -0.98689 0.161393
vn -0.00249243 -0.324488 0.945887
vn 0.718651 -0.508878 -0.473902
vn 0.885214 -0.28323 0.369022
vn 0.76216 -0.591737 0.262602
vn -0.285845 -0.938107 -0.195569
vn 0.321437 0.94654 -0.0271993
vn 0.00253018 0.0914181 -0.995809
vn 0.001277 -0.779729 -0.626116
vn 0.000521154 0.998281 -0.0586152
vn -0.950843 -0.0425056 0.306742
vn -0.903741 -0.413719 -0.109949
vn -0.0243553 -0.896673 -0.442023
vn 0.684842 -0.113378 -0.719817
vn 0.0856277 -0.572362 0.815518
vn 0.083937 -0.912624 -0.400089
vn 0.234672 -0.971791 0.0234727
vn 0.0016241 -0.664425 -0.747353
vn 0.51964 -0.757626 -0.394939
vn 0.611224 -0.529676 0.58809
vn -0.806745 -0.101237 -0.582163
vn 0.217204 -0.109763 0.969935
vn -0.000174294 -0.99683 -0.0795567
vn -0.879058 -0.476515 -0.013779
vn -0.653213 -0.362005 0.66503
vn -0.198133 -0.916819 0.34668
vn 0.168473 -0.901964 0.39759
vn -0.392865 0.833142 -0.389271
vn -0.845894 -0.502283 0.179375
vn -0.72539 -0.171219 -0.666703
vn -0.614628 0.0112926 -0.788736
vn -0.909486 -0.228623 -0.347229
vn -0.963495 0.0101716 0.267534
vn -0.937537 -0.22813 0.262643
vn -0.718924 -0.670784 -0.1822
vn -0.560099 0.0454906 0.827176
vn -0.537978 0.555098 0.634386
vn -0.44314 0.568635 -0.693023
vn -0.712678 -0.386371 -0.585498
vn -0.765233 0.574865 -0.28974
vn -0.776401 0.629508 0.0303317
vn -0.716648 -0.50834 -0.477499
vn -0.887265 -0.282566 0.36458
vn 0.286119 -0.938322 -0.194136
vn -0.76391 -0.591164 0.258777
vn -0.320587 0.946781 -0.0288085
vn 0.903971 -0.414396 -0.105418
vn 0.949261 -0.043218 0.311505
vn -0.68131 -0.112866 -0.723241
vn 0.0258985 -0.896692 -0.441897
vn -0.0826145 -0.912562 -0.400507
vn -0.0901438 -0.572296 0.815078
vn -0.235515 -0.971615 0.0222942
vn -0.518222 -0.757236 -0.397541
vn -0.614561 -0.529216 0.585017
vn 0.809577 -0.101843 -0.578112
vn -0.222146 -0.109598 0.968834
usemtl _09_-_Defaultaaa
g Bob_Hair_Messy
s off
f 1/1/1 2/3/3 3/2/2
f 2/3/3 1/1/1 4/4/4
f 5/5/5 6/7/7 7/6/6
f 8/8/8 9/10/10 10/9/9
f 9/10/10 8/8/8 11/11/11
f 12/12/12 13/14/14 14/13/13
f 12/12/12 10/9/9 13/14/14
f 8/8/8 10/9/9 12/12/12
f 4/4/4 14/13/13 15/15/15
f 14/13/13 4/4/4 1/1/1
f 16/16/16 17/18/18 18/17/17
f 17/18/18 16/16/16 15/15/15
f 19/19/19 9/10/10 20/20/20
f 21/21/21 13/14/14 10/9/9
f 13/14/14 21/21/21 22/22/22
f 17/18/18 23/23/23 18/17/17
f 21/21/21 9/10/10 19/19/19
f 9/10/10 21/21/21 10/9/9
f 24/24/24 4/4/4 25/25/25
f 4/4/4 24/24/24 2/3/3
f 25/25/25 15/15/15 16/16/16
f 15/15/15 25/25/25 4/4/4
f 17/18/18 15/15/15 13/14/14
f 22/22/22 17/18/18 13/14/14
f 26/26/26 8/8/8 27/27/27
f 8/8/8 26/26/26 11/11/11
f 3/2/2 28/28/28 1/1/1
f 28/28/28 3/2/2 29/29/29
f 1/1/1 12/12/12 14/13/13
f 12/12/12 1/1/1 28/28/28
f 5/5/5 22/22/22 21/21/21
f 22/22/22 5/5/5 30/30/30
f 31/31/31 6/7/7 19/19/19
f 20/20/20 31/31/31 19/19/19
f 31/31/31 20/20/20 32/32/32
f 23/23/23 30/30/30 33/33/33
f 30/30/30 7/6/6 33/33/33
f 7/6/6 30/30/30 5/5/5
f 6/7/7 5/5/5 19/19/19
f 30/30/30 17/18/18 22/22/22
f 23/23/23 17/18/18 30/30/30
f 2/3/3 34/34/34 3/2/2
f 34/34/34 2/3/3 35/35/35
f 11/11/11 36/36/36 9/10/10
f 36/36/36 11/11/11 37/37/37
f 12/12/12 38/38/38 8/8/8
f 38/38/38 12/12/12 39/39/39
f 9/10/10 40/40/40 20/20/20
f 40/40/40 9/10/10 36/36/36
f 24/24/24 35/35/35 2/3/3
f 35/35/35 24/24/24 41/41/41
f 26/26/26 37/37/37 11/11/11
f 37/37/37 26/26/26 42/42/42
f 27/27/27 42/42/42 26/26/26
f 42/42/42 27/27/27 43/43/43
f 8/8/8 43/43/43 27/27/27
f 43/43/43 8/8/8 38/38/38
f 3/2/2 44/44/44 29/29/29
f 44/44/44 3/2/2 34/34/34
f 45/45/45 29/29/29 44/44/44
f 29/29/29 45/45/45 28/28/28
f 39/39/39 28/28/28 45/45/45
f 28/28/28 39/39/39 12/12/12
f 20/20/20 46/46/46 32/32/32
f 46/46/46 20/20/20 40/40/40
f 19/19/19 5/5/5 21/21/21
f 13/14/14 15/15/15 14/13/13
f 47/47/47 48/49/49 49/48/48
f 48/49/49 47/47/47 50/50/50
f 51/51/51 7/53/6 6/52/7
f 52/54/52 53/56/54 54/55/53
f 53/56/54 52/54/52 55/57/55
f 56/58/56 57/60/58 58/59/57
f 55/57/55 57/60/58 56/58/56
f 52/54/52 57/60/58 55/57/55
f 49/48/48 58/59/57 47/47/47
f 58/59/57 49/48/48 59/61/59
f 16/16/16 60/62/60 59/61/59
f 60/62/60 16/16/16 18/17/17
f 61/63/61 62/64/62 53/56/54
f 63/65/63 56/58/56 64/66/64
f 56/58/56 63/65/63 55/57/55
f 60/62/60 18/17/17 23/23/23
f 63/65/63 53/56/54 55/57/55
f 53/56/54 63/65/63 61/63/61
f 24/24/24 49/48/48 48/49/49
f 49/48/48 24/24/24 25/25/25
f 25/25/25 59/61/59 49/48/48
f 59/61/59 25/25/25 16/16/16
f 60/62/60 56/58/56 59/61/59
f 64/66/64 56/58/56 60/62/60
f 65/67/65 52/54/52 54/55/53
f 52/54/52 65/67/65 66/68/66
f 50/50/50 67/70/68 68/69/67
f 67/70/68 50/50/50 47/47/47
f 47/47/47 57/60/58 67/70/68
f 57/60/58 47/47/47 58/59/57
f 51/51/51 64/66/64 69/71/69
f 64/66/64 51/51/51 63/65/63
f 31/72/31 61/63/61 6/52/7
f 62/64/62 31/72/31 32/73/32
f 31/72/31 62/64/62 61/63/61
f 23/23/23 33/33/33 69/71/69
f 69/71/69 7/53/6 51/51/51
f 7/53/6 69/71/69 33/33/33
f 6/52/7 61/63/61 51/51/51
f 69/71/69 64/66/64 60/62/60
f 23/23/23 69/71/69 60/62/60
f 48/49/49 70/75/71 71/74/70
f 70/75/71 48/49/49 50/50/50
f 54/55/53 72/77/73 73/76/72
f 72/77/73 54/55/53 53/56/54
f 57/60/58 74/79/75 75/78/74
f 74/79/75 57/60/58 52/54/52
f 53/56/54 76/80/76 72/77/73
f 76/80/76 53/56/54 62/64/62
f 24/24/24 71/74/70 41/41/41
f 71/74/70 24/24/24 48/49/49
f 65/67/65 73/76/72 77/81/77
f 73/76/72 65/67/65 54/55/53
f 66/68/66 77/81/77 78/82/78
f 77/81/77 66/68/66 65/67/65
f 52/54/52 78/82/78 74/79/75
f 78/82/78 52/54/52 66/68/66
f 50/50/50 79/83/79 70/75/71
f 79/83/79 50/50/50 68/69/67
f 80/84/80 68/69/67 67/70/68
f 68/69/67 80/84/80 79/83/79
f 75/78/74 67/70/68 57/60/58
f 67/70/68 75/78/74 80/84/80
f 62/64/62 46/85/46 76/80/76
f 46/85/46 62/64/62 32/86/32
f 61/63/61 63/65/63 51/51/51
f 56/58/56 58/59/57 59/61/59
