# Wavefront OBJ
# Created by fragMOTION 1.3.7
# http://www.fragmosoft.com

mtllib Bob_Hair_GreasedBack.mtl
# 76 vertices
v -0.0274527 0.981046 -0.068984
v 0.00503701 0.970029 -0.0988237
v -0.0253069 0.968612 -0.0903287
v 0.00497082 0.984621 -0.070217
v -0.0207696 0.945243 -0.0831445
v 0.00503175 0.949593 -0.0997581
v 0.0050121 0.945496 -0.0925172
v -0.0225539 0.948947 -0.0880564
v -0.0386932 0.934104 -0.0737749
v -0.044455 0.963726 -0.0622581
v -0.0421382 0.955432 -0.0774186
v -0.0495084 0.931946 -0.0668346
v -0.0514074 0.912482 -0.0457896
v -0.0539413 0.939937 -0.0545094
v -0.048288 0.905649 -0.0597422
v 0.00504083 0.959394 -0.101932
v -0.0245008 0.957889 -0.0919538
v -0.0471165 0.902774 -0.0431885
v -0.0438853 0.896711 -0.0621174
v -0.0536233 0.918061 -0.0286153
v -0.0487805 0.907849 -0.0284344
v -0.0560724 0.947224 -0.0318436
v -0.0279878 0.988926 -0.0362086
v -0.0456872 0.97269 -0.0344948
v 0.00488986 0.992364 -0.0367244
v -0.0522344 0.910693 -0.0100929
v -0.0477648 0.898721 -0.0128987
v -0.0546789 0.942745 -0.00713443
v -0.0273831 0.985218 -0.00388802
v -0.0445581 0.969395 -0.00505527
v 0.00480606 0.9879 -0.003911
v -0.0500393 0.935599 0.00637316
v -0.0235519 0.964102 0.023241
v -0.0370697 0.952824 0.0175033
v 0.00472665 0.965518 0.0244889
v -0.0481264 0.896412 -0.00180538
v -0.0361614 0.913855 0.0239668
v -0.0194423 0.920783 0.0345711
v 0.0046791 0.923488 0.0372391
v -0.0354542 0.863022 -0.0028524
v -0.0257812 0.868823 0.0151982
v -0.0107067 0.871168 0.020969
v 0.00468839 0.870377 0.0256379
v 0.0373851 0.981022 -0.0688217
v 0.0353369 0.968589 -0.0901769
v 0.0307463 0.945224 -0.0830155
v 0.032558 0.948927 -0.0879184
v 0.0543407 0.963689 -0.0620107
v 0.0520936 0.955397 -0.0771827
v 0.0593933 0.931906 -0.0665619
v 0.0611723 0.912441 -0.0455077
v 0.0581177 0.905609 -0.0594758
v 0.0637703 0.939893 -0.0542147
v 0.034531 0.957867 -0.091806
v 0.0568612 0.902736 -0.0429282
v 0.0537204 0.896674 -0.0618731
v 0.0486145 0.934072 -0.0735563
v 0.0633064 0.918018 -0.0283225
v 0.0584552 0.907809 -0.0281659
v 0.0657933 0.947179 -0.0315385
v 0.037762 0.988901 -0.036044
v 0.0554405 0.972652 -0.0342416
v 0.0618193 0.91065 -0.00980732
v 0.0573549 0.898681 -0.0126356
v 0.0642728 0.942701 -0.00683661
v 0.0369927 0.985194 -0.00372685
v 0.0541616 0.969359 -0.00480811
v 0.0595604 0.935558 0.00664756
v 0.03301 0.964081 0.0233826
v 0.046548 0.952793 0.0177127
v 0.0576593 0.896372 -0.00154053
v 0.0455784 0.913825 0.0241714
v 0.0288115 0.920765 0.0346919
v 0.0449676 0.862992 -0.00265105
v 0.0352087 0.8688 0.0153509
v 0.0201072 0.871157 0.0210461
# 76 texture vertices
vt 0.76605 -0.451776
vt 0.76904 -0.406245
vt 0.697462 -0.38269
vt 0.697141 -0.443883
vt 0.788453 -0.371905
vt 0.697781 -0.351557
vt 0.697681 -0.363536
vt 0.783259 -0.382413
vt 0.862383 -0.4139
vt 0.816807 -0.470211
vt 0.821059 -0.434909
vt 0.881415 -0.459268
vt 0.870232 -0.498805
vt 0.926292 -0.539155
vt 0.938354 -0.495444
vt 0.775875 -0.394614
vt 0.697587 -0.372947
vt 0.950371 -0.547578
vt 0.958217 -0.487906
vt 0.90887 -0.592579
vt 0.932977 -0.603787
vt 0.852067 -0.555097
vt 0.759527 -0.51663
vt 0.801374 -0.529637
vt 0.696569 -0.510876
vt 0.900078 -0.656447
vt 0.924155 -0.677897
vt 0.840894 -0.615563
vt 0.753937 -0.577911
vt 0.790574 -0.590405
vt 0.696006 -0.575433
vt 0.830798 -0.652184
vt 0.747806 -0.645098
vt 0.779817 -0.65028
vt 0.695339 -0.64942
vt 0.898116 -0.708662
vt 0.815669 -0.726812
vt 0.758919 -0.739006
vt 0.694448 -0.743804
vt 0.921245 -0.795083
vt 0.852304 -0.827188
vt 0.777138 -0.8561
vt 0.693294 -0.868061
vt 0.628074 -0.450801
vt 0.625663 -0.405266
vt 0.606813 -0.370476
vt 0.611835 -0.38108
vt 0.573224 -0.432956
vt 0.576943 -0.468301
vt 0.512486 -0.456248
vt 0.454945 -0.491429
vt 0.4663 -0.535303
vt 0.523033 -0.495938
vt 0.619016 -0.393444
vt 0.442086 -0.543326
vt 0.435201 -0.483564
vt 0.532242 -0.411237
vt 0.458575 -0.599745
vt 0.482856 -0.588952
vt 0.540282 -0.552489
vt 0.59141 -0.527931
vt 0.633502 -0.515642
vt 0.466235 -0.673832
vt 0.490567 -0.652912
vt 0.550429 -0.613112
vt 0.60118 -0.588842
vt 0.638036 -0.576966
vt 0.55987 -0.649894
vt 0.610864 -0.648891
vt 0.642959 -0.644236
vt 0.491547 -0.705128
vt 0.573568 -0.724781
vt 0.630073 -0.737922
vt 0.466068 -0.790836
vt 0.534829 -0.824376
vt 0.609627 -0.854647
# 76 normals
vn -0.445107 0.823505 -0.351737
vn -0.466407 0.522926 -0.713451
vn 0.00226873 0.57002 -0.821628
vn 0.00124421 0.93359 -0.358341
vn -0.00262105 -0.8102 -0.586147
vn 0.000984217 -0.854125 -0.520067
vn 0.00179376 -0.593598 -0.80476
vn -0.312346 -0.548159 -0.775862
vn -0.50032 -0.269822 -0.822725
vn -0.839683 0.460981 -0.287105
vn -0.774522 0.140835 -0.61667
vn -0.828633 -0.0912108 -0.552312
vn -0.974427 0.09052 -0.205667
vn -0.961858 -0.264062 -0.0714153
vn -0.8647 -0.292827 -0.4081
vn -0.460672 -0.0815435 -0.883817
vn 0.00247535 -0.0620487 -0.99807
vn -0.908199 -0.418464 0.00784166
vn -0.843704 -0.358879 -0.399212
vn -0.977206 -0.210929 -0.0240127
vn -0.918202 -0.39324 -0.0476184
vn -0.985479 0.167418 -0.0283169
vn -0.413366 0.908727 -0.0578283
vn -0.824107 0.564415 -0.04779
vn 0.000507913 0.99851 -0.0545586
vn -0.967444 -0.216617 0.130877
vn -0.931274 -0.348711 -0.105495
vn -0.961074 0.141748 0.237158
vn -0.384304 0.846534 0.368361
vn -0.789577 0.525085 0.317573
vn -0.000610464 0.924486 0.381214
vn -0.871205 0.0604443 0.487184
vn -0.337482 0.509297 0.791658
vn -0.677889 0.293687 0.673954
vn -0.00187207 0.556883 0.830589
vn -0.922262 -0.289312 0.25638
vn -0.661288 -0.124588 0.739714
vn -0.307223 -0.0119023 0.951563
vn -0.00249211 0.0274042 0.999621
vn -0.834239 -0.317081 0.451116
vn -0.619202 -0.302789 0.724505
vn -0.268606 -0.267478 0.925368
vn -0.00251627 -0.251659 0.967813
vn 0.447474 0.823174 -0.349503
vn 0.470362 0.522578 -0.711106
vn 0.00495293 -0.810203 -0.586128
vn 0.315818 -0.548392 -0.77429
vn 0.777704 0.140258 -0.612785
vn 0.841452 0.460356 -0.282897
vn 0.83132 -0.0918281 -0.548156
vn 0.866515 -0.293471 -0.403766
vn 0.962007 -0.264777 -0.0665994
vn 0.975511 0.0897948 -0.200786
vn 0.46503 -0.0818878 -0.881499
vn 0.907837 -0.419139 0.0123876
vn 0.845425 -0.359507 -0.394983
vn 0.504232 -0.270196 -0.82021
vn 0.918136 -0.393923 -0.0430219
vn 0.977157 -0.211656 -0.0191205
vn 0.985733 0.166685 -0.0233825
vn 0.824755 0.563802 -0.0436625
vn 0.414326 0.908419 -0.0557564
vn 0.931531 -0.349404 -0.100832
vn 0.966615 -0.217337 0.135718
vn 0.95998 0.141034 0.241967
vn 0.788368 0.524498 0.321523
vn 0.383085 0.846249 0.370282
vn 0.8688 0.0597972 0.49154
vn 0.674725 0.293185 0.67734
vn 0.333893 0.509047 0.793339
vn 0.920752 -0.289998 0.260994
vn 0.657483 -0.125079 0.743015
vn 0.302447 -0.012129 0.953089
vn 0.831734 -0.3177 0.455286
vn 0.615342 -0.303248 0.727596
vn 0.263772 -0.267677 0.926701
usemtl _09_-_Defaultaaa
g Bob_Hair_GreasedBack
s off
f 1/1/1 2/3/3 3/2/2
f 2/3/3 1/1/1 4/4/4
f 5/5/5 6/7/7 7/6/6
f 6/7/7 5/5/5 8/8/8
f 5/5/5 9/9/9 8/8/8
f 3/2/2 10/10/10 1/1/1
f 10/10/10 3/2/2 11/11/11
f 12/12/12 13/14/14 14/13/13
f 13/14/14 12/12/12 15/15/15
f 3/2/2 16/17/17 17/16/16
f 16/17/17 3/2/2 2/3/3
f 18/18/18 15/15/15 19/19/19
f 15/15/15 18/18/18 13/14/14
f 19/19/19 12/12/12 9/9/9
f 12/12/12 19/19/19 15/15/15
f 11/11/11 3/2/2 17/16/16
f 18/18/18 20/20/20 13/14/14
f 20/20/20 18/18/18 21/21/21
f 13/14/14 22/22/22 14/13/13
f 22/22/22 13/14/14 20/20/20
f 10/10/10 23/23/23 1/1/1
f 23/23/23 10/10/10 24/24/24
f 1/1/1 25/25/25 4/4/4
f 25/25/25 1/1/1 23/23/23
f 21/21/21 26/26/26 20/20/20
f 26/26/26 21/21/21 27/27/27
f 20/20/20 28/28/28 22/22/22
f 28/28/28 20/20/20 26/26/26
f 24/24/24 29/29/29 23/23/23
f 29/29/29 24/24/24 30/30/30
f 23/23/23 31/31/31 25/25/25
f 31/31/31 23/23/23 29/29/29
f 26/26/26 32/32/32 28/28/28
f 30/30/30 33/33/33 29/29/29
f 33/33/33 30/30/30 34/34/34
f 29/29/29 35/35/35 31/31/31
f 35/35/35 29/29/29 33/33/33
f 26/26/26 27/27/27 36/36/36
f 36/36/36 32/32/32 26/26/26
f 32/32/32 36/36/36 37/37/37
f 34/34/34 38/38/38 33/33/33
f 38/38/38 34/34/34 37/37/37
f 33/33/33 39/39/39 35/35/35
f 39/39/39 33/33/33 38/38/38
f 27/27/27 40/40/40 36/36/36
f 36/36/36 41/41/41 37/37/37
f 41/41/41 36/36/36 40/40/40
f 38/38/38 41/41/41 42/42/42
f 41/41/41 38/38/38 37/37/37
f 43/43/43 38/38/38 42/42/42
f 38/38/38 43/43/43 39/39/39
f 14/13/13 11/11/11 12/12/12
f 11/11/11 14/13/13 10/10/10
f 9/9/9 12/12/12 11/11/11
f 14/13/13 24/24/24 10/10/10
f 24/24/24 14/13/13 22/22/22
f 22/22/22 30/30/30 24/24/24
f 30/30/30 22/22/22 28/28/28
f 32/32/32 30/30/30 28/28/28
f 30/30/30 32/32/32 34/34/34
f 32/32/32 37/37/37 34/34/34
f 17/16/16 6/7/7 8/8/8
f 6/7/7 17/16/16 16/17/17
f 44/44/44 2/3/3 4/4/4
f 2/3/3 44/44/44 45/45/45
f 46/46/46 6/7/7 47/47/47
f 6/7/7 46/46/46 7/6/6
f 45/45/45 48/49/49 49/48/48
f 48/49/49 45/45/45 44/44/44
f 50/50/50 51/52/52 52/51/51
f 51/52/52 50/50/50 53/53/53
f 45/45/45 16/17/17 2/3/3
f 16/17/17 45/45/45 54/54/54
f 55/55/55 52/51/51 51/52/52
f 52/51/51 55/55/55 56/56/56
f 56/56/56 50/50/50 52/51/51
f 50/50/50 56/56/56 57/57/57
f 49/48/48 54/54/54 45/45/45
f 55/55/55 58/59/59 59/58/58
f 58/59/59 55/55/55 51/52/52
f 51/52/52 60/60/60 58/59/59
f 60/60/60 51/52/52 53/53/53
f 48/49/49 61/62/62 62/61/61
f 61/62/62 48/49/49 44/44/44
f 44/44/44 25/25/25 61/62/62
f 25/25/25 44/44/44 4/4/4
f 59/58/58 63/64/64 64/63/63
f 63/64/64 59/58/58 58/59/59
f 58/59/59 65/65/65 63/64/64
f 65/65/65 58/59/59 60/60/60
f 62/61/61 66/67/67 67/66/66
f 66/67/67 62/61/61 61/62/62
f 61/62/62 31/31/31 66/67/67
f 31/31/31 61/62/62 25/25/25
f 63/64/64 65/65/65 68/68/68
f 67/66/66 69/70/70 70/69/69
f 69/70/70 67/66/66 66/67/67
f 66/67/67 35/35/35 69/70/70
f 35/35/35 66/67/67 31/31/31
f 63/64/64 71/71/71 64/63/63
f 68/68/68 71/71/71 63/64/64
f 71/71/71 68/68/68 72/72/72
f 70/69/69 73/73/73 72/72/72
f 73/73/73 70/69/69 69/70/70
f 69/70/70 39/39/39 73/73/73
f 39/39/39 69/70/70 35/35/35
f 64/63/63 71/71/71 74/74/74
f 71/71/71 75/75/75 74/74/74
f 75/75/75 71/71/71 72/72/72
f 73/73/73 75/75/75 72/72/72
f 75/75/75 73/73/73 76/76/76
f 43/43/43 73/73/73 39/39/39
f 73/73/73 43/43/43 76/76/76
f 49/48/48 53/53/53 50/50/50
f 53/53/53 49/48/48 48/49/49
f 57/57/57 49/48/48 50/50/50
f 53/53/53 62/61/61 60/60/60
f 62/61/61 53/53/53 48/49/49
f 60/60/60 67/66/66 65/65/65
f 67/66/66 60/60/60 62/61/61
f 67/66/66 68/68/68 65/65/65
f 68/68/68 67/66/66 70/69/69
f 68/68/68 70/69/69 72/72/72
f 54/54/54 6/7/7 16/17/17
f 6/7/7 54/54/54 47/47/47
f 47/47/47 57/57/57 46/46/46
f 17/16/16 9/9/9 11/11/11
f 9/9/9 17/16/16 8/8/8
f 54/54/54 57/57/57 47/47/47
f 57/57/57 54/54/54 49/48/48
