# Wavefront OBJ
# Created by fragMOTION 1.3.7
# http://www.fragmosoft.com

mtllib Bob_Donny.mtl
# 60 vertices
v 0.0631 0.903985 -0.0721627
v 0.0797694 0.93684 -0.0370435
v 0.07927 0.899039 -0.027774
v 0.0664302 0.917073 -0.0818388
v 0.0655507 0.94627 0.00134922
v 0.0732065 0.900935 0.00779097
v 0.0583632 0.964862 -0.044781
v 0.053815 0.953917 -0.0894246
v 0.0529316 0.974476 -0.0055988
v 0.0309291 0.992974 -0.0517418
v 0.0263616 0.978123 -0.0888666
v 0.0187757 0.995687 -0.0108834
v 0.00503307 0.983781 -0.0495496
v 0.0051259 0.974352 -0.0879933
v 0.00493844 0.993394 -0.0103543
v 0.038291 0.919022 0.0370142
v 0.0419196 0.894835 0.0335396
v 0.0411348 0.945268 0.0330243
v 0.031501 0.979832 0.0161534
v 0.00482508 0.894459 0.0511944
v 0.00475488 0.92281 0.052324
v 0.00477474 0.949057 0.0483261
v 0.00485616 0.980952 0.0206125
v -0.0519239 0.860808 -0.0540824
v -0.0698726 0.899107 -0.0281507
v -0.0529932 0.888241 -0.0694097
v -0.0592219 0.871523 -0.0149856
v -0.0641826 0.91234 0.00935724
v -0.0464314 0.882557 0.0188223
v -0.069783 0.928662 -0.0351343
v -0.0562528 0.917258 -0.0815791
v -0.0557508 0.938081 0.00332922
v -0.0483345 0.964902 -0.0450484
v -0.0435817 0.955069 -0.0851176
v -0.0430921 0.974512 -0.00583946
v -0.0208447 0.992994 -0.0518716
v -0.0161161 0.980944 -0.0830622
v -0.00889425 0.995698 -0.0109528
v -0.0321877 0.887293 0.0352106
v -0.0287069 0.919047 0.0368463
v -0.031511 0.945295 0.0328423
v -0.0217668 0.979852 0.0160199
v -0.0288378 0.878806 -0.0992733
v -0.0037197 0.935855 -0.121455
v 0.0107149 0.908618 -0.114182
v -0.0464188 0.909642 -0.10584
v 0.05291 0.929823 -0.0822566
v -0.0415241 0.944024 -0.0929842
v 0.0487656 0.916945 -0.0740764
v 0.052146 0.906538 -0.0617962
v 0.0557541 0.90062 -0.0308048
v 0.0475695 0.904414 -0.00768734
v 0.0285522 0.899355 0.00921252
v 0.0043063 0.893214 0.0221961
v -0.046916 0.873529 -0.0170149
v -0.0417769 0.863717 -0.0524333
v -0.0388353 0.881361 0.00305523
v -0.0198854 0.88445 0.012751
v -0.0294415 0.88182 -0.0869663
v 0.0091911 0.908545 -0.0995074
# 86 texture vertices
vt 0.768044 -0.162933
vt 0.706665 -0.103617
vt 0.683941 -0.166489
vt 0.764235 -0.195361
vt 0.646551 -0.071366
vt 0.619221 -0.147977
vt 0.659128 -0.2232
vt 0.729357 -0.261143
vt 0.596817 -0.196987
vt 0.624323 -0.283573
vt 0.689108 -0.314127
vt 0.552585 -0.251411
vt 0.611237 -0.329937
vt 0.67751 -0.349867
vt 0.537929 -0.270513
vt 0.590085 -0.318082
vt 0.575131 -0.041742
vt 0.561219 -0.081547
vt 0.559652 -0.127137
vt 0.546343 -0.193768
vt 0.497265 -0.034363
vt 0.498678 -0.082012
vt 0.499357 -0.126382
vt 0.499334 -0.203633
vt 0.527123 -0.258057
vt 0.227831 -0.063499
vt 0.222862 -0.122292
vt 0.299138 -0.103821
vt 0.300575 -0.047652
vt 0.363601 -0.094597
vt 0.372134 -0.034462
vt 0.234331 -0.185633
vt 0.311823 -0.153185
vt 0.378372 -0.137034
vt 0.27379 -0.253678
vt 0.338565 -0.222332
vt 0.402191 -0.198781
vt 0.317135 -0.308546
vt 0.372194 -0.28325
vt 0.445794 -0.252808
vt 0.317212 -0.348165
vt 0.384022 -0.329948
vt 0.405824 -0.31855
vt 0.459409 -0.272596
vt 0.437051 -0.082976
vt 0.418574 -0.031017
vt 0.439441 -0.128819
vt 0.452585 -0.195071
vt 0.471801 -0.258769
vt 0.128739 -0.275481
vt 0.13926 -0.173996
vt 0.080329 -0.161261
vt 0.060841 -0.263463
vt 0.180455 -0.092533
vt 0.147184 -0.059927
vt 0.02603 -0.218122
vt 0.052359 -0.110871
vt 0.076701 -0.073255
vt 0.135466 -0.346115
vt 0.044961 -0.276552
vt 0.092277 -0.310136
vt 0.015517 -0.137165
vt 0.011011 -0.210257
vt 0.232525 -0.110964
vt 0.216504 -0.087175
vt 0.194565 -0.116888
vt 0.217242 -0.127835
vt 0.777299 -0.137545
vt 0.746739 -0.09124
vt 0.72232 -0.064596
vt 0.688131 -0.037874
vt 0.648223 -0.017788
vt 0.605607 -0.002142
vt 0.573796 0.007731
vt 0.524858 0.009168
vt 0.2888 -0.028536
vt 0.225898 -0.044787
vt 0.344498 -0.016679
vt 0.305061 -0.02481
vt 0.397896 0.009377
vt 0.363158 -0.005125
vt 0.475293 0.012632
vt 0.427518 0.013762
vt 0.127942 -0.276374
vt 0.142084 -0.180735
vt 0.146302 -0.327407
# 71 normals
vn 0.235662 -0.82855 -0.507906
vn 0.999239 0.0386257 -0.00545207
vn 0.962992 0.254649 -0.0883161
vn 0.530105 -0.291618 -0.796208
vn 0.861239 0.172868 0.477896
vn 0.845727 0.309147 0.43494
vn 0.773118 0.615988 -0.151157
vn 0.723626 0.315496 -0.613863
vn 0.698912 0.681588 0.216703
vn 0.270599 0.945801 -0.179545
vn 0.197858 0.786981 -0.584392
vn 0.166539 0.975595 0.143103
vn 0.00430503 0.963971 -0.265974
vn -0.11357 0.807049 -0.57946
vn 6.94753e-005 0.992682 0.120756
vn 0.545796 -0.0384009 0.837037
vn 0.558124 0.0395451 0.828815
vn 0.608912 0.259402 0.749624
vn 0.411629 0.713037 0.567574
vn -0.0182453 -0.0371676 0.999142
vn -0.00279207 0.0509091 0.998699
vn -0.00218932 0.370366 0.928883
vn -0.00126088 0.784309 0.620369
vn -0.898491 -0.321075 -0.299375
vn -0.936575 -0.194584 -0.291487
vn -0.990827 -0.130777 -0.0340496
vn -0.925106 -0.347389 0.153294
vn -0.88474 0.0860769 0.458068
vn -0.768452 -0.274291 0.578139
vn -0.942378 0.0538148 -0.330193
vn -0.977404 0.204324 -0.0541561
vn -0.848071 0.318716 0.423316
vn -0.725467 0.473021 -0.499949
vn -0.801151 0.583204 -0.134275
vn -0.722974 0.658048 0.210432
vn -0.171661 0.769309 -0.615383
vn -0.273323 0.945116 -0.179028
vn -0.166522 0.97572 0.142268
vn -0.541938 0.0631113 0.838046
vn -0.560427 -0.0433706 0.827067
vn -0.609945 0.268266 0.745654
vn -0.413934 0.713346 0.565504
vn -0.472818 -0.439686 -0.763622
vn 0.211108 -0.189221 -0.958973
vn -0.0492033 0.232203 -0.971422
vn -0.664784 -0.0925364 -0.741282
vn 0.0523864 -0.327942 -0.943244
vn -0.615217 0.391436 -0.684314
vn -0.0844364 -0.624136 -0.77674
vn -0.352665 -0.911701 -0.210783
vn -0.0855072 -0.995807 -0.032499
vn -0.0830761 -0.994672 -0.0610453
vn -0.0633558 -0.994526 -0.0830861
vn -0.0796541 -0.994377 -0.0697821
vn -0.0167477 -0.982737 -0.184249
vn 0.062014 -0.985784 -0.156155
vn 0.133842 -0.99093 -0.0119981
vn 0.232417 -0.969633 0.0761156
vn 0.262227 -0.962437 0.0703691
vn 0.213497 -0.937383 0.275194
vn 0.201702 -0.935773 0.289216
vn 0.30869 -0.950443 0.0369904
vn 0.15573 -0.972937 0.17071
vn 0.195886 -0.963781 0.180987
vn 0.166403 -0.972205 0.164702
vn 0.176449 -0.962483 0.206138
vn 0.515867 -0.854245 0.0643984
vn 0.701101 -0.693149 0.167337
vn 0.835075 -0.526866 0.158311
vn 0.518367 -0.855149 -0.00407442
vn 0.530961 -0.657473 -0.534612
usemtl _09_-_Defaultaaa
g Bob_Hair_Donny
s off
f 1/1/1 2/3/3 3/2/2
f 2/3/3 1/1/1 4/4/4
f 3/2/2 5/6/6 6/5/5
f 5/6/6 3/2/2 2/3/3
f 4/4/4 7/7/7 2/3/3
f 7/7/7 4/4/4 8/8/8
f 2/3/3 9/9/9 5/6/6
f 9/9/9 2/3/3 7/7/7
f 8/8/8 10/10/10 7/7/7
f 10/10/10 8/8/8 11/11/11
f 7/7/7 12/12/12 9/9/9
f 12/12/12 7/7/7 10/10/10
f 11/11/11 13/13/13 10/10/10
f 13/13/13 11/11/11 14/14/14
f 10/10/10 15/15/15 12/12/12
f 15/15/15 10/10/10 13/16/13
f 6/5/5 16/18/17 17/17/16
f 5/6/6 16/18/17 6/5/5
f 16/18/17 5/6/6 18/19/18
f 9/9/9 18/19/18 5/6/6
f 18/19/18 9/9/9 19/20/19
f 16/18/17 20/21/20 17/17/16
f 20/21/20 16/18/17 21/22/21
f 18/19/18 21/22/21 16/18/17
f 21/22/21 18/19/18 22/23/22
f 19/20/19 22/23/22 18/19/18
f 22/23/22 19/20/19 23/24/23
f 12/12/12 19/20/19 9/9/9
f 12/12/12 23/24/23 19/20/19
f 23/24/23 12/12/12 15/25/15
f 24/26/24 25/28/26 26/27/25
f 25/28/26 24/26/24 27/29/27
f 27/29/27 28/30/28 25/28/26
f 28/30/28 27/29/27 29/31/29
f 26/27/25 30/33/31 31/32/30
f 30/33/31 26/27/25 25/28/26
f 25/28/26 32/34/32 30/33/31
f 32/34/32 25/28/26 28/30/28
f 31/32/30 33/36/34 34/35/33
f 33/36/34 31/32/30 30/33/31
f 30/33/31 35/37/35 33/36/34
f 35/37/35 30/33/31 32/34/32
f 34/35/33 36/39/37 37/38/36
f 36/39/37 34/35/33 33/36/34
f 33/36/34 38/40/38 36/39/37
f 38/40/38 33/36/34 35/37/35
f 37/38/36 13/42/13 14/41/14
f 13/42/13 37/38/36 36/39/37
f 36/39/37 15/44/15 13/43/13
f 15/44/15 36/39/37 38/40/38
f 28/30/28 39/46/40 40/45/39
f 39/46/40 28/30/28 29/31/29
f 32/34/32 40/45/39 41/47/41
f 40/45/39 32/34/32 28/30/28
f 35/37/35 41/47/41 42/48/42
f 41/47/41 35/37/35 32/34/32
f 40/45/39 20/21/20 21/22/21
f 20/21/20 40/45/39 39/46/40
f 41/47/41 21/22/21 22/23/22
f 21/22/21 41/47/41 40/45/39
f 42/48/42 22/23/22 23/24/23
f 22/23/22 42/48/42 41/47/41
f 38/40/38 35/37/35 42/48/42
f 38/40/38 42/48/42 23/24/23
f 23/24/23 15/49/15 38/40/38
f 43/50/43 44/52/45 45/51/44
f 44/52/45 43/50/43 46/53/46
f 45/51/44 8/55/8 47/54/47
f 8/55/8 45/51/44 44/52/45
f 48/56/48 14/57/14 44/52/45
f 44/52/45 11/58/11 8/55/8
f 11/58/11 44/52/45 14/57/14
f 43/50/43 24/59/24 46/53/46
f 46/53/46 31/60/30 48/56/48
f 31/60/30 46/53/46 26/61/25
f 48/56/48 44/52/45 46/53/46
f 46/53/46 24/59/24 26/61/25
f 37/62/36 48/56/48 34/63/33
f 48/56/48 37/62/36 14/57/14
f 48/56/48 31/60/30 34/63/33
f 1/64/1 49/66/49 4/65/4
f 49/66/49 1/64/1 50/67/50
f 4/65/4 47/54/47 8/55/8
f 47/54/47 4/65/4 49/66/49
f 3/2/51 50/68/50 1/1/1
f 50/68/50 3/2/51 51/69/52
f 6/5/53 51/70/52 3/2/51
f 51/70/52 6/5/53 52/71/54
f 17/17/55 52/72/54 6/5/53
f 52/72/54 17/17/55 53/73/56
f 20/21/57 53/74/56 17/17/55
f 53/74/56 20/21/57 54/75/58
f 24/26/59 55/76/61 27/29/60
f 55/76/61 24/26/59 56/77/62
f 27/29/60 57/78/64 29/31/63
f 57/78/64 27/29/60 55/79/61
f 29/31/63 58/80/66 39/46/65
f 58/80/66 29/31/63 57/81/64
f 39/46/65 54/82/58 20/21/57
f 54/82/58 39/46/65 58/83/66
f 45/51/67 59/84/69 43/50/68
f 59/84/69 45/51/67 60/85/70
f 47/54/71 60/85/70 45/51/67
f 60/85/70 47/54/71 49/66/49
f 43/50/68 56/86/62 24/59/59
f 56/86/62 43/50/68 59/84/69
