# Wavefront OBJ
# Created by fragMOTION 1.3.7
# http://www.fragmosoft.com

mtllib Bob_Hair_PonyTail.mtl
# 109 vertices
v 0.0353322 0.970041 -0.0564921
v 0.00500134 0.956893 -0.0865252
v 0.0049349 0.974994 -0.0572972
v 0.0626517 0.90598 -0.0394245
v 0.0526575 0.935125 -0.0698005
v 0.0557215 0.950673 -0.0502716
v 0.0584671 0.90204 -0.0593544
v 0.0656594 0.911072 -0.0237685
v 0.0529121 0.958005 -0.0166807
v 0.0626493 0.910432 -0.00743516
v 0.0399439 0.87416 0.0179723
v 0.0469828 0.917111 0.0216916
v 0.0521687 0.868623 -0.0022516
v 0.00468393 0.92038 0.0348487
v 0.0396614 0.959356 0.0049635
v 0.0047414 0.95957 0.0177126
v 0.0372095 0.937619 -0.0926216
v 0.0399938 0.926653 -0.0879458
v 0.0462459 0.959403 -0.05434
v 0.0483929 0.96608 -0.026181
v 0.00478525 0.97378 0.00230578
v 0.00467802 0.877571 0.0308494
v 0.0589215 0.8798 -0.0548045
v 0.0631519 0.884608 -0.0402755
v 0.0493337 0.863902 -0.0165146
v 0.0327983 0.978142 -0.020609
v 0.00503904 0.935391 -0.104781
v 0.0050274 0.921946 -0.102129
v 0.00483442 0.981909 -0.0161276
v 0.0491463 0.929482 -0.0733273
v 0.0540843 0.902345 -0.0601843
v 0.0576361 0.906921 -0.0382371
v 0.0601983 0.911257 -0.0249031
v 0.0383442 0.925685 -0.0814584
v 0.0544644 0.876478 -0.0544721
v 0.0580553 0.881761 -0.0372555
v 0.0462928 0.871084 -0.0187247
v 0.0050008 0.919013 -0.091937
v -0.0254697 0.970063 -0.0566444
v -0.052922 0.906023 -0.0397138
v -0.0427542 0.93516 -0.0700394
v -0.0486406 0.90208 -0.0596226
v -0.0475063 0.950712 -0.05053
v -0.0432576 0.958041 -0.0169215
v -0.0560042 0.911117 -0.0240731
v -0.0530764 0.910475 -0.0077249
v -0.0305447 0.874178 0.0177902
v -0.042653 0.868658 -0.002489
v -0.037551 0.917143 0.0214799
v -0.0301144 0.959382 0.0047888
v -0.0272513 0.937643 -0.092783
v -0.030006 0.926679 -0.088121
v -0.0395599 0.959435 -0.0545548
v -0.0386849 0.966113 -0.026399
v -0.0491342 0.87984 -0.055075
v -0.0534338 0.884651 -0.0405674
v -0.0397501 0.863936 -0.0167376
v -0.0231095 0.978163 -0.020749
v -0.0392295 0.929514 -0.0735485
v -0.0442534 0.902382 -0.0604305
v -0.0479116 0.90696 -0.0385013
v -0.0505374 0.911298 -0.0251803
v -0.0283896 0.92571 -0.0816254
v -0.0446814 0.876515 -0.0547203
v -0.0483544 0.881801 -0.0375219
v -0.0366929 0.871115 -0.0189327
v 0.00442841 0.86103 0.0366122
v 0.0107812 0.859584 0.0314639
v 0.0103752 0.857187 0.0252272
v 0.00450067 0.856629 0.0236919
v -0.00183897 0.859562 0.0314122
v -0.0012396 0.857161 0.0251833
v 0.0108176 0.853052 0.0350383
v 0.00445978 0.854488 0.0402478
v 0.010407 0.850612 0.0288584
v 0.00453255 0.850049 0.0273293
v -0.00120596 0.85059 0.028803
v -0.0017983 0.853046 0.0349536
v 0.0135403 0.847534 0.0441342
v 0.00450492 0.848772 0.0482106
v 0.0154759 0.844388 0.0389681
v 0.0138699 0.841434 0.0330692
v 0.00460832 0.839321 0.0298787
v -0.00445195 0.841399 0.0329649
v -0.00633426 0.844348 0.0388398
v -0.00446469 0.847506 0.04402
v 0.0156461 0.831931 0.0574201
v 0.00434561 0.834247 0.0627065
v 0.0180801 0.827851 0.0513652
v 0.0160969 0.823385 0.0435706
v 0.00452616 0.820679 0.0398344
v -0.00680861 0.823251 0.0433362
v -0.00918665 0.827694 0.0510858
v -0.00686534 0.831801 0.0571893
v 0.0133471 0.812422 0.0701943
v 0.00413538 0.814087 0.0752301
v 0.0153652 0.808956 0.0642007
v 0.0138064 0.805407 0.0566854
v 0.00443343 0.803058 0.0529635
v -0.0047981 0.805274 0.0564534
v -0.00678196 0.8088 0.0639252
v -0.00493734 0.812292 0.0699663
v 0.0084072 0.792935 0.0768544
v 0.00404958 0.794241 0.0788691
v 0.00861615 0.789644 0.0728023
v 0.00418263 0.788957 0.0719352
v -0.000167409 0.78956 0.0726671
v -0.00022678 0.792852 0.0767206
v 0.0040702 0.782226 0.0840986
# 121 texture vertices
vt 0.176538 -0.083352
vt 0.209895 -0.037122
vt 0.140029 -0.011507
vt 0.104459 -0.20834
vt 0.143187 -0.129799
vt 0.098559 -0.118531
vt 0.07362 -0.179977
vt 0.131843 -0.231605
vt 0.15889 -0.239993
vt 0.194645 -0.156036
vt 0.214368 -0.318442
vt 0.215889 -0.246042
vt 0.170498 -0.319619
vt 0.288326 -0.249966
vt 0.28838 -0.1756
vt 0.23082 -0.170797
vt 0.093168 -0.064877
vt 0.073386 -0.080745
vt 0.155992 -0.105625
vt 0.195233 -0.132467
vt 0.288344 -0.137737
vt 0.288029 -0.325008
vt 0.04658 -0.210723
vt 0.068499 -0.227333
vt 0.149927 -0.327319
vt 0.230845 -0.115401
vt 0.083586 -0.00424
vt 0.056986 -0.011764
vt 0.288299 -0.094326
vt 0.084757 -0.115482
vt 0.068043 -0.173425
vt 0.105312 -0.21745
vt 0.12233 -0.238625
vt 0.066487 -0.088932
vt 0.037365 -0.213334
vt 0.065047 -0.237922
vt 0.142789 -0.326167
vt 0.040903 -0.024741
vt 0.4 -0.082815
vt 0.436927 -0.010858
vt 0.366667 -0.036713
vt 0.472666 -0.208145
vt 0.503641 -0.179848
vt 0.478716 -0.118337
vt 0.433963 -0.130753
vt 0.381984 -0.156436
vt 0.417822 -0.240911
vt 0.444841 -0.231027
vt 0.361524 -0.319686
vt 0.405555 -0.321364
vt 0.360782 -0.246702
vt 0.345892 -0.171018
vt 0.483945 -0.064526
vt 0.503765 -0.080405
vt 0.422336 -0.108955
vt 0.381373 -0.132544
vt 0.530542 -0.210704
vt 0.508553 -0.227233
vt 0.427327 -0.33033
vt 0.345733 -0.1154
vt 0.493488 -0.003842
vt 0.520081 -0.011385
vt 0.509227 -0.173283
vt 0.492517 -0.115268
vt 0.454315 -0.236774
vt 0.471746 -0.217108
vt 0.510686 -0.088593
vt 0.539745 -0.21335
vt 0.511953 -0.237832
vt 0.440031 -0.316462
vt 0.53618 -0.024354
vt 0.253779 -0.369378
vt 0.290264 -0.372633
vt 0.226821 -0.371831
vt 0.218357 -0.378624
vt 0.327004 -0.367058
vt 0.352972 -0.369702
vt 0.431257 -0.343687
vt 0.359837 -0.376035
vt 0.256359 -0.397237
vt 0.290655 -0.400423
vt 0.231028 -0.396823
vt 0.210903 -0.393861
vt 0.350369 -0.395665
vt 0.370164 -0.391933
vt 0.324817 -0.396444
vt 0.260601 -0.433814
vt 0.290619 -0.436527
vt 0.242512 -0.433704
vt 0.222528 -0.43227
vt 0.191227 -0.425853
vt 0.358759 -0.431682
vt 0.389485 -0.425769
vt 0.338612 -0.433358
vt 0.320577 -0.433585
vt 0.254537 -0.499938
vt 0.289984 -0.503082
vt 0.235232 -0.501783
vt 0.210602 -0.501781
vt 0.172682 -0.503107
vt 0.369811 -0.502176
vt 0.406494 -0.504234
vt 0.345091 -0.501808
vt 0.325607 -0.500048
vt 0.260748 -0.573333
vt 0.288654 -0.574756
vt 0.243117 -0.575898
vt 0.219894 -0.577293
vt 0.190166 -0.587921
vt 0.357215 -0.577699
vt 0.386368 -0.58865
vt 0.333777 -0.575715
vt 0.316458 -0.573282
vt 0.271643 -0.650777
vt 0.288152 -0.651643
vt 0.254943 -0.651156
vt 0.24346 -0.659194
vt 0.321317 -0.651333
vt 0.332504 -0.659215
vt 0.304671 -0.650727
vt 0.28803 -0.690407
# 109 normals
vn 0.43679 0.815238 -0.380264
vn 0.00125038 0.932582 -0.360956
vn 0.00209642 0.746016 -0.665925
vn 0.944956 -0.21284 0.24851
vn 0.873112 0.435653 -0.21882
vn 0.870477 0.157486 -0.466335
vn 0.729739 -0.129242 -0.6714
vn 0.962925 -0.227193 -0.145462
vn 0.942757 0.016215 0.333085
vn 0.846714 0.475026 0.239635
vn 0.606882 -0.342649 0.717056
vn 0.642751 0.118404 0.75687
vn 0.777166 -0.558347 0.29028
vn -0.00240619 0.166745 0.985997
vn -0.00186533 0.560161 0.828382
vn 0.552431 0.556899 0.620228
vn 0.552348 0.24269 -0.797504
vn 0.602869 -0.620031 -0.502106
vn 0.712277 0.61691 -0.334789
vn 0.774683 0.63234 0.00341626
vn -0.00109519 0.828129 0.560535
vn -0.00244415 0.0250462 0.999683
vn 0.672762 -0.480501 -0.562592
vn 0.892667 -0.316672 0.320724
vn 0.280487 -0.784086 -0.553657
vn 0.390496 0.910179 0.138154
vn 0.00264915 0.206072 -0.978533
vn 0.00167957 -0.642376 -0.766388
vn -4.84817e-006 0.98886 0.148846
vn 0.642333 0.0519353 -0.764664
vn 0.150001 -0.319307 -0.935704
vn 0.0673048 -0.623707 0.778755
vn 0.0637599 -0.889533 -0.452401
vn 0.434983 -0.896733 -0.0816057
vn 0.495043 -0.733946 -0.465032
vn 0.612421 -0.558161 0.559819
vn -0.109232 -0.357372 -0.927552
vn 0.000285441 -0.966257 -0.257579
vn -0.394433 0.835932 -0.381629
vn -0.943725 -0.226608 0.240897
vn -0.726465 -0.128701 -0.675045
vn -0.866153 0.123996 -0.484153
vn -0.899019 0.383773 -0.210912
vn -0.84138 0.475992 0.255952
vn -0.944401 0.0169168 0.328361
vn -0.961907 -0.234591 -0.140364
vn -0.610704 -0.342402 0.713902
vn -0.778719 -0.558168 0.286435
vn -0.646444 0.118883 0.753642
vn -0.555115 0.557311 0.617456
vn -0.54409 0.237513 -0.804707
vn -0.600042 -0.620847 -0.504479
vn -0.6969 0.634896 -0.333523
vn -0.744091 0.667257 0.0331097
vn -0.670294 -0.480002 -0.565954
vn -0.894497 -0.316007 0.31625
vn -0.278771 -0.783843 -0.554866
vn -0.390505 0.91047 0.136199
vn -0.145552 -0.319198 -0.936444
vn -0.638458 0.0524116 -0.76787
vn -0.0621557 -0.889486 -0.452716
vn -0.0716667 -0.623656 0.778407
vn -0.435236 -0.896409 -0.0837841
vn -0.493255 -0.733579 -0.467506
vn -0.615631 -0.557704 0.556745
vn 0.113372 -0.356946 -0.92722
vn 0.784899 -0.040675 0.616363
vn -0.00518649 0.409338 0.910894
vn 0.513283 -0.827697 -0.223704
vn 0.00158863 -0.764627 -0.642955
vn -0.792475 -0.0518461 0.605461
vn -0.5051 -0.829317 -0.234132
vn 0.887126 0.412569 0.202067
vn -0.0502501 0.735443 0.674301
vn 0.765791 -0.18289 -0.614275
vn -0.0117547 -0.412144 -0.909639
vn -0.733606 -0.207979 -0.645272
vn -0.876104 0.42734 0.217923
vn 0.702541 0.606185 0.372122
vn -0.0101346 0.783503 0.620174
vn 0.962459 0.242226 -0.111615
vn 0.761379 -0.156003 -0.626181
vn -0.00544961 -0.417777 -0.907429
vn -0.73728 -0.19096 -0.64699
vn -0.967914 0.216434 -0.114551
vn -0.690632 0.629708 0.350481
vn 0.752325 0.423676 0.503709
vn -0.0015842 0.640939 0.766171
vn 0.996001 0.0420966 0.0415419
vn 0.766399 -0.362765 -0.523836
vn 0.0014474 -0.578422 -0.814289
vn -0.749115 -0.382287 -0.540159
vn -0.997227 0.0221135 0.00854966
vn -0.765625 0.413582 0.485966
vn 0.767228 0.208488 0.604813
vn -0.0102775 0.39622 0.916107
vn 0.977846 -0.137604 0.137582
vn 0.750885 -0.527964 -0.386947
vn 0.00531336 -0.727414 -0.684446
vn -0.737744 -0.536724 -0.408662
vn -0.97425 -0.188371 0.100803
vn -0.781464 0.185938 0.588928
vn 0.810974 0.0192011 0.581824
vn -0.0184781 0.312433 0.947651
vn 0.725083 -0.645513 -0.223921
vn 0.0231631 -0.839501 -0.540648
vn -0.73137 -0.638773 -0.236781
vn -0.843592 0.00558148 0.52996
vn -0.00549113 -0.719945 0.688603
usemtl _09_-_Defaulteee
g Bob_Hair_PonyTail
s off
f 1/1/1 2/3/3 3/2/2
f 4/4/4 5/6/6 6/5/5
f 5/6/6 4/4/4 7/7/7
f 8/8/8 9/10/10 10/9/9
f 8/8/8 6/5/5 9/10/10
f 4/4/4 6/5/5 8/8/8
f 11/11/11 10/9/9 12/12/12
f 10/9/9 11/11/11 13/13/13
f 14/14/14 15/16/16 16/15/15
f 15/16/16 14/14/14 12/12/12
f 17/17/17 5/6/6 18/18/18
f 19/19/19 9/10/10 6/5/5
f 9/10/10 19/19/19 20/20/20
f 15/16/16 21/21/21 16/15/15
f 17/17/17 6/5/5 5/6/6
f 6/5/5 17/17/17 19/19/19
f 22/22/22 12/12/12 14/14/14
f 12/12/12 22/22/22 11/11/11
f 15/16/16 10/9/9 9/10/10
f 10/9/9 15/16/16 12/12/12
f 20/20/20 15/16/16 9/10/10
f 23/23/23 4/4/4 24/24/24
f 4/4/4 23/23/23 7/7/7
f 13/13/13 8/8/8 10/9/9
f 8/8/8 13/13/13 25/25/25
f 1/1/1 20/20/20 19/19/19
f 20/20/20 1/1/1 26/26/26
f 27/27/27 2/3/3 17/17/17
f 18/18/18 27/27/27 17/17/17
f 27/27/27 18/18/18 28/28/28
f 21/21/21 26/26/26 29/29/29
f 26/26/26 3/2/2 29/29/29
f 3/2/2 26/26/26 1/1/1
f 17/17/17 1/1/1 19/19/19
f 1/1/1 17/17/17 2/3/3
f 26/26/26 15/16/16 20/20/20
f 21/21/21 15/16/16 26/26/26
f 7/7/7 30/30/30 5/6/6
f 30/30/30 7/7/7 31/31/31
f 8/8/8 32/32/32 4/4/4
f 32/32/32 8/8/8 33/33/33
f 5/6/6 34/34/34 18/18/18
f 34/34/34 5/6/6 30/30/30
f 23/23/23 31/31/31 7/7/7
f 31/31/31 23/23/23 35/35/35
f 24/24/24 35/35/35 23/23/23
f 35/35/35 24/24/24 36/36/36
f 4/4/4 36/36/36 24/24/24
f 36/36/36 4/4/4 32/32/32
f 25/25/25 33/33/33 8/8/8
f 33/33/33 25/25/25 37/37/37
f 18/18/18 38/38/38 28/28/28
f 38/38/38 18/18/18 34/34/34
f 39/39/39 3/41/2 2/40/3
f 40/42/40 41/44/42 42/43/41
f 41/44/42 40/42/40 43/45/43
f 44/46/44 45/48/46 46/47/45
f 43/45/43 45/48/46 44/46/44
f 40/42/40 45/48/46 43/45/43
f 47/49/47 46/47/45 48/50/48
f 46/47/45 47/49/47 49/51/49
f 14/14/14 50/52/50 49/51/49
f 50/52/50 14/14/14 16/15/15
f 51/53/51 52/54/52 41/44/42
f 53/55/53 44/46/44 54/56/54
f 44/46/44 53/55/53 43/45/43
f 50/52/50 16/15/15 21/21/21
f 51/53/51 43/45/43 53/55/53
f 43/45/43 51/53/51 41/44/42
f 22/22/22 49/51/49 47/49/47
f 49/51/49 22/22/22 14/14/14
f 50/52/50 46/47/45 49/51/49
f 46/47/45 50/52/50 44/46/44
f 54/56/54 44/46/44 50/52/50
f 55/57/55 40/42/40 42/43/41
f 40/42/40 55/57/55 56/58/56
f 48/50/48 45/48/46 57/59/57
f 45/48/46 48/50/48 46/47/45
f 39/39/39 54/56/54 58/60/58
f 54/56/54 39/39/39 53/55/53
f 27/61/27 51/53/51 2/40/3
f 52/54/52 27/61/27 28/62/28
f 27/61/27 52/54/52 51/53/51
f 21/21/21 29/29/29 58/60/58
f 58/60/58 3/41/2 39/39/39
f 3/41/2 58/60/58 29/29/29
f 39/39/39 51/53/51 53/55/53
f 51/53/51 39/39/39 2/40/3
f 58/60/58 54/56/54 50/52/50
f 21/21/21 58/60/58 50/52/50
f 42/43/41 59/64/60 60/63/59
f 59/64/60 42/43/41 41/44/42
f 45/48/46 61/66/62 62/65/61
f 61/66/62 45/48/46 40/42/40
f 41/44/42 63/67/63 59/64/60
f 63/67/63 41/44/42 52/54/52
f 55/57/55 60/63/59 64/68/64
f 60/63/59 55/57/55 42/43/41
f 56/58/56 64/68/64 65/69/65
f 64/68/64 56/58/56 55/57/55
f 40/42/40 65/69/65 61/66/62
f 65/69/65 40/42/40 56/58/56
f 57/59/57 62/65/61 66/70/66
f 62/65/61 57/59/57 45/48/46
f 52/54/52 38/71/38 63/67/63
f 38/71/38 52/54/52 28/62/28
f 22/22/22 67/73/68 68/72/67
f 22/22/22 68/72/67 11/11/11
f 13/13/13 69/74/69 25/25/25
f 69/74/69 13/13/13 68/72/67
f 11/11/11 68/72/67 13/13/13
f 69/74/69 37/37/37 25/25/25
f 69/74/69 70/75/70 37/37/37
f 22/22/22 71/76/71 67/73/68
f 22/22/22 47/49/47 71/76/71
f 48/50/48 72/77/72 71/76/71
f 72/77/72 48/50/48 57/59/57
f 47/49/47 48/50/48 71/76/71
f 72/77/72 57/59/57 66/78/66
f 72/77/72 66/78/66 70/79/70
f 67/73/68 73/80/73 68/72/67
f 73/80/73 67/73/68 74/81/74
f 68/72/67 75/82/75 69/74/69
f 75/82/75 68/72/67 73/80/73
f 69/74/69 76/83/76 70/75/70
f 76/83/76 69/74/69 75/82/75
f 70/79/70 77/84/77 72/77/72
f 77/84/77 70/79/70 76/85/76
f 72/77/72 78/86/78 71/76/71
f 78/86/78 72/77/72 77/84/77
f 71/76/71 74/81/74 67/73/68
f 74/81/74 71/76/71 78/86/78
f 74/81/74 79/87/79 73/80/73
f 79/87/79 74/81/74 80/88/80
f 73/80/73 79/87/79 81/89/81
f 73/80/73 82/90/82 75/82/75
f 82/90/82 73/80/73 81/89/81
f 75/82/75 83/91/83 76/83/76
f 83/91/83 75/82/75 82/90/82
f 76/85/76 84/92/84 77/84/77
f 84/92/84 76/85/76 83/93/83
f 77/84/77 85/94/85 78/86/78
f 85/94/85 77/84/77 84/92/84
f 78/86/78 85/94/85 86/95/86
f 78/86/78 80/88/80 74/81/74
f 80/88/80 78/86/78 86/95/86
f 80/88/80 87/96/87 79/87/79
f 87/96/87 80/88/80 88/97/88
f 79/87/79 89/98/89 81/89/81
f 89/98/89 79/87/79 87/96/87
f 81/89/81 90/99/90 82/90/82
f 90/99/90 81/89/81 89/98/89
f 82/90/82 91/100/91 83/91/83
f 91/100/91 82/90/82 90/99/90
f 83/93/83 92/101/92 84/92/84
f 92/101/92 83/93/83 91/102/91
f 84/92/84 93/103/93 85/94/85
f 93/103/93 84/92/84 92/101/92
f 85/94/85 94/104/94 86/95/86
f 94/104/94 85/94/85 93/103/93
f 86/95/86 88/97/88 80/88/80
f 88/97/88 86/95/86 94/104/94
f 88/97/88 95/105/95 87/96/87
f 95/105/95 88/97/88 96/106/96
f 87/96/87 97/107/97 89/98/89
f 97/107/97 87/96/87 95/105/95
f 89/98/89 98/108/98 90/99/90
f 98/108/98 89/98/89 97/107/97
f 90/99/90 99/109/99 91/100/91
f 99/109/99 90/99/90 98/108/98
f 91/102/91 100/110/100 92/101/92
f 100/110/100 91/102/91 99/111/99
f 92/101/92 101/112/101 93/103/93
f 101/112/101 92/101/92 100/110/100
f 93/103/93 102/113/102 94/104/94
f 102/113/102 93/103/93 101/112/101
f 94/104/94 96/106/96 88/97/88
f 96/106/96 94/104/94 102/113/102
f 96/106/96 103/114/103 95/105/95
f 103/114/103 96/106/96 104/115/104
f 95/105/95 103/114/103 97/107/97
f 97/107/97 105/116/105 98/108/98
f 105/116/105 97/107/97 103/114/103
f 98/108/98 106/117/106 99/109/99
f 106/117/106 98/108/98 105/116/105
f 99/111/99 107/118/107 100/110/100
f 107/118/107 99/111/99 106/119/106
f 100/110/100 108/120/108 101/112/101
f 108/120/108 100/110/100 107/118/107
f 101/112/101 108/120/108 102/113/102
f 102/113/102 104/115/104 96/106/96
f 104/115/104 102/113/102 108/120/108
f 104/115/104 109/121/109 103/114/103
f 103/114/103 109/121/109 105/116/105
f 105/116/105 109/121/109 106/117/106
f 106/119/106 109/121/109 107/118/107
f 107/118/107 109/121/109 108/120/108
f 108/120/108 109/121/109 104/115/104
