# Wavefront OBJ
# Created by fragMOTION 1.3.7
# http://www.fragmosoft.com

mtllib Bob_Hair_PartingRight.mtl
# 80 vertices
v 0.0441888 0.978353 -0.0107589
v 0.0676139 0.950473 -0.0380782
v 0.047087 0.973634 -0.0438876
v 0.058894 0.958105 -0.00583833
v 0.00483185 0.990782 -0.0137824
v 0.00491358 0.986009 -0.0471435
v -0.00902473 0.984411 -0.0133202
v -0.016336 0.975812 -0.0456467
v -0.0276568 0.985841 -0.0131002
v -0.0301793 0.981097 -0.0463593
v -0.0457917 0.976379 -0.0105877
v -0.0501531 0.967503 -0.0425229
v 0.0488587 0.924603 -0.107392
v 0.0640647 0.936685 -0.088407
v 0.058118 0.921672 -0.0847397
v 0.0457021 0.941369 -0.119054
v 0.00734955 0.930208 -0.116936
v 0.00738922 0.948147 -0.130118
v -0.0273353 0.951728 -0.0990605
v -0.0219109 0.938731 -0.0843622
v -0.0383733 0.933984 -0.0757669
v -0.0352103 0.957226 -0.0862898
v -0.0491445 0.95096 -0.0739809
v -0.0544305 0.938786 -0.0673849
v -0.0554394 0.945856 -0.0372272
v -0.05108 0.953743 -0.00504932
v 0.0606817 0.933125 0.000153694
v 0.0643974 0.925229 -0.0320322
v 0.053708 0.897891 -0.0503286
v 0.0591907 0.905274 -0.0375176
v 0.0572218 0.905256 -0.0375982
v 0.0576449 0.897892 -0.0503071
v -0.0479329 0.897938 -0.050119
v -0.0474223 0.905327 -0.0380677
v -0.0493066 0.905455 -0.0375528
v -0.0440287 0.89781 -0.0506289
v -0.0340604 0.971015 -0.0757902
v -0.021813 0.965831 -0.0751061
v 0.0049941 0.978163 -0.0804729
v 0.0483518 0.966565 -0.0740449
v 0.0678442 0.943689 -0.0627869
v 0.061126 0.919474 -0.0555161
v 0.00506258 0.967909 -0.109355
v 0.0491432 0.957235 -0.0991556
v 0.0375911 0.939295 -0.0818211
v 0.00501835 0.935736 -0.0964671
v 0.0476295 0.883403 -0.000368324
v 0.0508221 0.883342 -0.000602166
v 0.0352087 0.8688 0.0153509
v 0.0415293 0.967878 0.00986938
v 0.00474535 0.973429 0.0181926
v -0.0313722 0.967946 0.010346
v -0.0451183 0.960739 0.00572431
v -0.0413603 0.883438 -0.000591604
v -0.0381537 0.883382 -0.000805988
v -0.0257812 0.868823 0.0151982
v 0.0537276 0.919617 -0.0549655
v 0.0552365 0.936099 0.0122704
v 0.0440662 0.938151 0.0206537
v 0.00401748 0.941081 0.0325104
v -0.0339731 0.93835 0.0210819
v -0.0448023 0.936352 0.0128545
v -0.0506559 0.933167 -0.000168217
v -0.0525233 0.925279 -0.0323399
v -0.0493305 0.919613 -0.0554366
v -0.0439833 0.919483 -0.0559438
v 0.0571206 0.904601 0.00273325
v 0.0444781 0.915771 0.0221738
v 0.0039799 0.9212 0.0349816
v -0.0350077 0.915789 0.0227725
v -0.0476162 0.904725 0.00252233
v 0.00481419 0.868756 0.0262775
v -0.0448912 0.910397 -0.0229905
v -0.0494034 0.910526 -0.0224822
v -0.0464196 0.900299 -0.00993415
v -0.0491089 0.900427 -0.0094203
v 0.0591554 0.910584 -0.0226485
v 0.0544306 0.910568 -0.0227361
v 0.0587247 0.900138 -0.00954532
v 0.0559689 0.90012 -0.00962798
# 87 texture vertices
vt 0.32237 -0.155129
vt 0.268394 -0.161117
vt 0.271012 -0.205827
vt 0.324597 -0.189552
vt 0.315473 -0.097334
vt 0.257601 -0.098477
vt 0.317773 -0.076242
vt 0.251807 -0.064899
vt 0.520913 -0.121917
vt 0.576427 -0.104287
vt 0.569211 -0.085132
vt 0.500961 -0.105603
vt 0.536363 -0.143974
vt 0.587931 -0.136214
vt 0.15583 -0.207063
vt 0.180858 -0.229468
vt 0.195475 -0.212843
vt 0.157552 -0.184999
vt 0.111827 -0.161839
vt 0.130339 -0.145086
vt 0.114787 -0.086492
vt 0.06438 -0.114443
vt 0.674675 -0.14646
vt 0.695742 -0.124458
vt 0.682815 -0.098091
vt 0.660465 -0.108636
vt 0.645697 -0.133307
vt 0.645552 -0.153139
vt 0.543944 -0.175035
vt 0.597746 -0.166742
vt 0.273435 -0.241787
vt 0.329666 -0.226328
vt 0.237925 -0.28413
vt 0.264403 -0.274081
vt 0.263848 -0.271328
vt 0.239842 -0.280511
vt 0.650939 -0.218296
vt 0.625611 -0.219627
vt 0.626817 -0.222169
vt 0.654835 -0.220288
vt 0.630596 -0.101766
vt 0.632671 -0.08481
vt 0.200499 -0.107147
vt 0.183405 -0.067394
vt 0.223869 -0.168547
vt 0.233734 -0.212801
vt 0.225306 -0.250703
vt 0.157822 -0.122531
vt 0.190129 -0.177631
vt 0.132304 -0.24113
vt 0.085957 -0.173645
vt 0.348016 -0.302241
vt 0.389359 -0.312975
vt 0.345836 -0.297423
vt 0.362534 -0.163632
vt 0.438926 -0.147868
vt 0.501209 -0.160065
vt 0.522829 -0.170284
vt 0.554371 -0.275037
vt 0.514418 -0.301009
vt 0.553149 -0.280675
vt 0.21053 -0.257967
vt 0.351344 -0.218856
vt 0.372606 -0.211645
vt 0.440211 -0.202095
vt 0.505115 -0.203282
vt 0.526436 -0.203641
vt 0.549457 -0.203308
vt 0.605206 -0.196099
vt 0.646917 -0.186304
vt 0.65713 -0.1855
vt 0.339415 -0.266007
vt 0.375643 -0.24521
vt 0.443593 -0.231508
vt 0.510489 -0.233804
vt 0.552692 -0.243427
vt 0.4507 -0.30771
vt 0.600264 -0.231555
vt 0.595933 -0.22576
vt 0.577899 -0.249118
vt 0.574317 -0.246712
vt 0.559111 -0.276985
vt 0.291641 -0.270797
vt 0.292831 -0.263848
vt 0.317875 -0.279651
vt 0.319975 -0.276077
vt 0.342873 -0.301163
# 101 normals
vn 0.520763 0.831733 0.192423
vn 0.550471 0.824913 -0.128455
vn 0.958159 0.28622 0.00300761
vn 0.8568 0.405552 0.318465
vn -0.0644132 0.985275 0.158377
vn -0.0776498 0.979512 -0.185815
vn -0.169073 0.981037 0.0947696
vn -0.438004 0.880895 -0.179378
vn -0.187489 0.971122 0.147545
vn -0.102144 0.965729 -0.23861
vn 0.309667 0.911261 -0.271496
vn -0.71072 0.662735 0.235923
vn -0.83624 0.535492 -0.118114
vn 0.63951 -0.39783 -0.657843
vn 0.880754 -0.407712 -0.240922
vn 0.950566 0.0216318 -0.309769
vn 0.521726 0.0685152 -0.850358
vn -0.277715 -0.599133 -0.750942
vn -0.168343 0.100429 -0.980599
vn -0.777184 0.13097 -0.615493
vn -0.620893 -0.686686 -0.378093
vn -0.510898 -0.446471 -0.734607
vn -0.111118 -0.764482 -0.634996
vn -0.642612 0.0256929 -0.765761
vn -0.570104 0.430202 -0.699934
vn -0.799045 0.165765 -0.57797
vn -0.869708 -0.168808 -0.463801
vn -0.961425 0.135589 0.239328
vn -0.997802 0.0558232 0.0357159
vn 0.982057 -0.183796 0.0422239
vn 0.959453 -0.0108868 0.28166
vn 0.00236346 -0.86219 -0.506579
vn -0.00904049 -0.905155 0.424985
vn -0.00799523 -0.909196 0.416291
vn 0.487043 -0.801749 -0.346393
vn -0.546504 -0.789998 -0.277915
vn 0.0454053 -0.915933 0.398755
vn 0.0551585 -0.897572 0.437404
vn -0.0912475 -0.84659 -0.524366
vn -0.207219 0.804492 -0.556644
vn 0.263219 0.8046 -0.532292
vn -0.083337 0.954931 -0.284888
vn -0.464995 0.840838 -0.277076
vn 0.569991 0.788706 -0.230334
vn 0.978541 0.177423 -0.104782
vn 0.894284 -0.290181 -0.340662
vn -0.107473 0.839142 -0.533189
vn 0.603955 0.682021 -0.412414
vn -0.643058 -0.761898 0.0773817
vn -0.358944 -0.88366 0.300506
vn -0.400701 -0.88436 0.239469
vn -0.0685893 -0.953647 0.293007
vn -0.12798 -0.96106 0.244918
vn 0.0103279 -0.965079 0.261757
vn -0.0687193 -0.624647 -0.777878
vn -0.0649995 -0.704974 -0.706248
vn -0.06692 -0.540082 -0.838947
vn 0.467638 0.592918 0.655563
vn 0.0124357 0.671705 0.740714
vn -0.360321 0.576277 0.733535
vn -0.721563 0.349825 0.597469
vn -0.0641079 -0.585009 -0.808489
vn -0.0564076 -0.759854 -0.647642
vn -0.0653127 -0.670546 -0.738988
vn -0.339362 -0.871805 -0.353256
vn -0.0580861 -0.821603 -0.567093
vn 0.786212 0.119314 0.606329
vn 0.459177 0.20851 0.863527
vn -0.00218745 0.257137 0.966373
vn -0.447516 0.200597 0.871487
vn -0.791083 0.072904 0.607349
vn -0.968426 -0.0202014 0.248481
vn -0.989285 -0.142406 0.0321891
vn -0.729265 -0.434535 -0.528538
vn -0.0762971 -0.79435 -0.60265
vn -0.0675528 -0.220819 -0.972973
vn 0.975089 -0.221729 -0.00620458
vn 0.896762 -0.20349 0.392951
vn 0.555258 -0.10557 0.824951
vn -0.00128161 -0.0151963 0.999884
vn -0.565086 -0.100068 0.818941
vn -0.905757 -0.191909 0.377855
vn -0.991139 -0.125812 -0.0425887
vn -0.0972716 -0.236841 -0.966667
vn 0.813562 -0.2734 0.513196
vn 0.521543 -0.222563 0.823686
vn 0.00340716 -0.193747 0.981046
vn -0.816917 -0.275154 0.50689
vn -0.523751 -0.234942 0.818833
vn -0.0442382 -0.988117 -0.147198
vn -0.0541766 -0.978634 -0.198342
vn -0.166062 -0.663717 -0.729317
vn -0.16292 -0.67723 -0.717507
vn -0.986646 -0.0681963 0.147913
vn -0.990461 -0.119414 0.0687628
vn 0.00735023 -0.984659 -0.174331
vn 0.00647962 -0.986314 -0.164748
vn 0.0231213 -0.629836 -0.776383
vn 0.0257615 -0.664509 -0.746836
vn 0.975861 -0.187831 0.111424
vn 0.98503 -0.0741467 0.15562
usemtl _09_-_Defaultaaa
g Bob_Hair_PartingRight
s off
f 1/1/1 2/3/3 3/2/2
f 2/3/3 1/1/1 4/4/4
f 5/5/5 3/2/2 6/6/6
f 3/2/2 5/5/5 1/1/1
f 7/7/7 6/6/6 8/8/8
f 6/6/6 7/7/7 5/5/5
f 9/9/9 8/11/11 10/10/10
f 8/11/11 9/9/9 7/12/7
f 11/13/12 10/10/10 12/14/13
f 10/10/10 11/13/12 9/9/9
f 13/15/14 14/17/16 15/16/15
f 14/17/16 13/15/14 16/18/17
f 17/19/18 16/18/17 13/15/14
f 16/18/17 17/19/18 18/20/19
f 19/21/20 17/19/18 20/22/21
f 17/19/18 19/21/20 18/20/19
f 21/23/22 19/25/24 20/24/23
f 19/25/24 21/23/22 22/26/25
f 23/27/26 21/23/22 24/28/27
f 21/23/22 23/27/26 22/26/25
f 11/13/12 25/30/29 26/29/28
f 25/30/29 11/13/12 12/14/13
f 2/3/3 27/32/31 28/31/30
f 27/32/31 2/3/3 4/4/4
f 29/33/32 30/35/34 31/34/33
f 30/35/34 29/33/32 32/36/35
f 33/37/36 34/39/38 35/38/37
f 34/39/38 33/37/36 36/40/39
f 12/14/13 24/28/27 25/30/29
f 24/28/27 12/14/13 23/27/26
f 37/41/40 12/14/13 10/10/10
f 12/14/13 37/41/40 23/27/26
f 38/42/41 10/10/10 8/11/11
f 10/10/10 38/42/41 37/41/40
f 39/43/42 8/8/8 6/6/6
f 8/8/8 39/43/42 38/44/43
f 40/45/44 6/6/6 3/2/2
f 6/6/6 40/45/44 39/43/42
f 41/46/45 3/2/2 2/3/3
f 3/2/2 41/46/45 40/45/44
f 42/47/46 2/3/3 28/31/30
f 2/3/3 42/47/46 41/46/45
f 23/27/26 37/41/40 22/26/25
f 38/42/41 22/26/25 37/41/40
f 22/26/25 38/42/41 19/25/24
f 43/48/47 38/44/43 39/43/42
f 38/44/43 43/48/47 19/21/20
f 44/49/48 39/43/42 40/45/44
f 39/43/42 44/49/48 43/48/47
f 14/17/16 40/45/44 41/46/45
f 40/45/44 14/17/16 44/49/48
f 42/47/46 14/17/16 41/46/45
f 14/17/16 42/47/46 15/16/15
f 19/21/20 43/48/47 18/20/19
f 16/18/17 43/48/47 44/49/48
f 43/48/47 16/18/17 18/20/19
f 44/49/48 14/17/16 16/18/17
f 15/16/49 45/50/51 13/15/50
f 46/51/52 13/15/50 45/50/51
f 13/15/50 46/51/52 17/19/53
f 46/51/52 20/22/54 17/19/53
f 47/52/55 48/54/57 49/53/56
f 4/4/4 1/1/1 50/55/58
f 51/56/59 1/1/1 5/5/5
f 1/1/1 51/56/59 50/55/58
f 5/5/5 7/7/7 51/56/59
f 9/9/9 51/56/59 7/12/7
f 51/56/59 9/9/9 52/57/60
f 11/13/12 52/57/60 9/9/9
f 52/57/60 11/13/12 53/58/61
f 11/13/12 26/29/28 53/58/61
f 54/59/62 55/61/64 56/60/63
f 42/47/65 45/50/51 15/16/49
f 45/50/51 42/47/65 57/62/66
f 27/32/31 4/4/4 58/63/67
f 50/55/58 58/63/67 4/4/4
f 58/63/67 50/55/58 59/64/68
f 50/55/58 60/65/69 59/64/68
f 60/65/69 50/55/58 51/56/59
f 52/57/60 60/65/69 51/56/59
f 60/65/69 52/57/60 61/66/70
f 53/58/61 61/66/70 52/57/60
f 61/66/70 53/58/61 62/67/71
f 63/68/72 53/58/61 26/29/28
f 53/58/61 63/68/72 62/67/71
f 64/69/73 26/29/28 25/30/29
f 26/29/28 64/69/73 63/68/72
f 24/28/27 64/69/73 25/30/29
f 64/69/73 24/28/27 65/70/74
f 21/23/22 65/70/74 24/28/27
f 65/70/74 21/23/22 66/71/75
f 32/36/35 57/62/76 42/47/46
f 57/62/76 32/36/35 29/33/32
f 30/35/77 42/47/46 28/31/30
f 42/47/46 30/35/77 32/36/35
f 58/63/67 67/72/78 27/32/31
f 67/72/78 58/63/67 68/73/79
f 58/63/67 59/64/68 68/73/79
f 59/64/68 69/74/80 68/73/79
f 69/74/80 59/64/68 60/65/69
f 61/66/70 69/74/80 60/65/69
f 69/74/80 61/66/70 70/75/81
f 61/66/70 62/67/71 70/75/81
f 71/76/82 62/67/71 63/68/72
f 62/67/71 71/76/82 70/75/81
f 65/70/74 35/38/83 64/69/73
f 35/38/83 65/70/74 33/37/36
f 36/40/39 65/70/74 66/71/84
f 65/70/74 36/40/39 33/37/36
f 68/73/79 48/54/85 67/72/78
f 48/54/85 68/73/79 49/53/86
f 72/77/87 68/73/79 69/74/80
f 68/73/79 72/77/87 49/53/86
f 54/59/88 70/75/81 71/76/82
f 70/75/81 54/59/88 56/60/89
f 70/75/81 72/77/87 69/74/80
f 72/77/87 70/75/81 56/60/89
f 73/78/90 35/38/37 34/39/38
f 35/38/37 73/78/90 74/79/91
f 75/80/92 74/79/91 73/78/90
f 74/79/91 75/80/92 76/81/93
f 55/82/64 76/81/93 75/80/92
f 76/81/93 55/82/64 54/59/62
f 76/81/94 54/59/88 71/76/82
f 74/79/95 64/69/73 35/38/83
f 64/69/73 74/79/95 63/68/72
f 71/76/82 74/79/95 76/81/94
f 74/79/95 71/76/82 63/68/72
f 31/34/33 77/84/97 78/83/96
f 77/84/97 31/34/33 30/35/34
f 78/83/96 79/86/99 80/85/98
f 79/86/99 78/83/96 77/84/97
f 80/85/98 48/54/57 47/87/55
f 48/54/57 80/85/98 79/86/99
f 77/84/100 28/31/30 27/32/31
f 28/31/30 77/84/100 30/35/77
f 77/84/100 67/72/78 79/86/101
f 67/72/78 77/84/100 27/32/31
f 67/72/78 48/54/85 79/86/101
