# Wavefront OBJ
# Created by fragMOTION 1.3.7
# http://www.fragmosoft.com

mtllib Bob_Hair_Grungey.mtl
# 128 vertices
v 0.00504447 0.939794 -0.106297
v 0.0179161 0.961211 -0.092176
v 0.0213752 0.941693 -0.115072
v 0.00498536 0.959785 -0.0797139
v 0.0178337 0.975136 -0.0571619
v 0.00493007 0.973824 -0.0555389
v 0.00485139 0.985778 -0.0223316
v 0.0469336 0.929138 -0.100675
v 0.049974 0.946474 -0.0822666
v 0.0480191 0.964496 -0.0473054
v 0.038031 0.974317 -0.00504476
v 0.0606628 0.901479 -0.0836941
v 0.0663155 0.919707 -0.0664757
v 0.0660799 0.939362 -0.0313384
v 0.0537652 0.94829 0.00978895
v 0.0643839 0.867148 -0.0680484
v 0.0703718 0.876625 -0.0457951
v 0.0698071 0.89087 -0.0122509
v 0.0560839 0.905076 0.0230629
v 0.0317864 0.953555 0.0232614
v 0.00476825 0.977153 0.00959633
v 0.0327126 0.909694 0.0406256
v 0.00464334 0.909554 0.0494532
v 0.00470818 0.954468 0.0302247
v 0.0571176 0.855585 -0.0836093
v 0.0527645 0.874276 -0.0656484
v 0.0536565 0.887417 -0.0964485
v 0.0445261 0.919227 -0.105935
v 0.0138607 0.93747 -0.0919495
v 0.0346453 0.921245 -0.0869835
v 0.0649174 0.801519 -0.050009
v 0.0540279 0.803843 -0.0458864
v 0.0590652 0.792684 -0.064451
v 0.0513832 0.879461 -0.0427926
v 0.0552552 0.811992 -0.0216365
v 0.067808 0.808255 -0.0256887
v 0.0522576 0.817954 0.0034567
v 0.0654987 0.816515 0.00563205
v 0.0476238 0.82427 0.0290759
v 0.0587756 0.827718 0.0420719
v 0.0282359 0.829953 0.0418526
v 0.0344581 0.833902 0.0595212
v 0.00457698 0.836948 0.0651774
v 0.00462389 0.833976 0.0459953
v -0.00788179 0.961221 -0.0922406
v -0.0112407 0.941703 -0.115163
v -0.00796427 0.975145 -0.0572265
v -0.0436035 0.934525 -0.0939657
v -0.0443203 0.951445 -0.062374
v -0.0388682 0.970856 -0.0359674
v -0.0272998 0.974342 -0.00520833
v -0.0560756 0.925453 -0.047366
v -0.0525959 0.936021 -0.0284876
v -0.0465201 0.943353 0.00102786
v -0.0335884 0.946722 0.0164485
v -0.0536145 0.91251 -0.0153709
v -0.0493478 0.907471 -1.29243e-006
v -0.0435175 0.900968 0.0188691
v -0.0363021 0.904972 0.0333297
v -0.0169853 0.950956 0.0258794
v -0.0203033 0.90798 0.0438465
v -0.0488506 0.903529 -0.0190743
v -0.0464986 0.910087 -0.0652105
v -0.0396085 0.886132 -0.0176748
v 0.00501653 0.936964 -0.0955555
v -0.00385032 0.932314 -0.0907277
v -0.0246665 0.921267 -0.087132
v -0.0344666 0.918618 -0.101076
v -0.0424893 0.818425 -0.00823197
v -0.0556476 0.815899 -0.00730031
v -0.0537499 0.809283 -0.0265543
v -0.0341311 0.890634 0.00242923
v -0.0384928 0.821169 0.00914404
v -0.053435 0.818673 0.00922587
v -0.0312286 0.825578 0.0213318
v -0.0491242 0.822788 0.0271177
v -0.0237395 0.828907 0.0337755
v -0.0424771 0.828157 0.0434568
v -0.0150661 0.833078 0.0422205
v -0.0242822 0.833569 0.057926
v 0.0524935 0.832247 -0.0511186
v 0.0587177 0.81663 -0.0706835
v 0.054416 0.842933 -0.032934
v 0.0557592 0.860305 -0.00568723
v 0.0500937 0.890012 -0.0178539
v 0.0470119 0.867231 0.0238397
v 0.0445101 0.897873 0.0155027
v 0.0319508 0.871167 0.0312358
v 0.028113 0.905354 0.0254333
v 0.00465615 0.87307 0.0389175
v 0.00467827 0.908213 0.0353014
v -0.0109109 0.872683 0.0372462
v -0.0114684 0.907112 0.0313873
v -0.0241412 0.869215 0.031647
v -0.0233711 0.904571 0.0224905
v -0.0314794 0.863042 0.022405
v -0.0298327 0.89753 0.0124832
v -0.0386783 0.86275 0.00952621
v -0.0366606 0.857527 -0.00947499
v -0.0429134 0.855899 -0.0150051
v -0.0474217 0.862385 -0.00593954
v -0.0459557 0.868971 0.00819398
v -0.0452415 0.867994 0.0215579
v -0.037764 0.869876 0.0392403
v -0.0224124 0.872496 0.050179
v 0.00460921 0.876044 0.0581095
v 0.0332824 0.872584 0.0507633
v 0.0578166 0.86633 0.033028
v 0.0678835 0.85119 -0.00111724
v 0.0699381 0.837691 -0.0353547
v 0.064378 0.827996 -0.0571171
v 0.0221853 0.916159 -0.110119
v 0.0332842 0.918031 -0.11219
v 0.0221625 0.913845 -0.101332
v 0.0310133 0.920348 -0.0998733
v 0.0377613 0.886244 -0.104955
v 0.0445712 0.886853 -0.105998
v 0.037745 0.886975 -0.0983225
v 0.0424081 0.887853 -0.0966176
v 0.0418614 0.851907 -0.0961067
v 0.0483513 0.853288 -0.0954619
v 0.0418478 0.853421 -0.0904495
v 0.0453685 0.85459 -0.0889341
v 0.0425773 0.817774 -0.0843718
v 0.0472107 0.818244 -0.0848538
v 0.0425676 0.818663 -0.0803611
v 0.0458392 0.819436 -0.0792619
v 0.0433563 0.792454 -0.0797289
# 129 texture vertices
vt 0.493122 -0.446267
vt 0.494572 -0.488451
vt 0.545394 -0.464002
vt 0.558636 -0.426959
vt 0.606073 -0.470114
vt 0.611708 -0.44121
vt 0.671541 -0.475947
vt 0.505427 -0.564407
vt 0.544622 -0.548313
vt 0.603013 -0.543852
vt 0.669165 -0.562128
vt 0.506136 -0.643844
vt 0.543373 -0.628058
vt 0.600493 -0.623001
vt 0.661095 -0.6401
vt 0.504841 -0.735329
vt 0.540415 -0.738955
vt 0.595795 -0.74066
vt 0.655544 -0.738459
vt 0.693934 -0.634949
vt 0.725406 -0.544948
vt 0.698787 -0.736471
vt 0.739972 -0.738035
vt 0.732844 -0.631186
vt 0.462131 -0.736109
vt 0.475293 -0.651516
vt 0.485685 -0.564835
vt 0.491806 -0.928154
vt 0.451054 -0.924007
vt 0.497255 -0.956523
vt 0.484751 -0.649478
vt 0.537204 -0.957439
vt 0.527883 -0.929894
vt 0.589425 -0.956066
vt 0.585525 -0.928722
vt 0.646523 -0.953724
vt 0.646114 -0.920052
vt 0.685879 -0.958533
vt 0.697424 -0.919212
vt 0.742848 -0.953446
vt 0.742276 -0.909806
vt 0.928115 -0.373148
vt 0.863564 -0.371116
vt 0.881404 -0.400787
vt 0.925426 -0.406201
vt 0.814755 -0.405365
vt 0.825121 -0.431293
vt 0.763216 -0.461804
vt 0.916059 -0.486449
vt 0.869937 -0.511876
vt 0.825061 -0.517627
vt 0.782296 -0.545811
vt 0.88368 -0.584766
vt 0.853163 -0.597242
vt 0.812623 -0.621847
vt 0.786245 -0.63036
vt 0.875955 -0.664195
vt 0.854836 -0.692702
vt 0.828955 -0.725803
vt 0.803152 -0.730215
vt 0.762693 -0.633344
vt 0.775532 -0.7334
vt 0.897271 -0.674742
vt 0.936162 -0.68566
vt 0.921438 -0.565519
vt 0.963693 -0.409733
vt 0.952945 -0.377373
vt 0.956775 -0.490195
vt 0.939137 -0.481809
vt 0.900666 -0.925984
vt 0.933458 -0.904337
vt 0.902136 -0.899229
vt 0.957784 -0.72042
vt 0.87592 -0.904
vt 0.872052 -0.933639
vt 0.847379 -0.908014
vt 0.84589 -0.946471
vt 0.818958 -0.90994
vt 0.815555 -0.948989
vt 0.786001 -0.910055
vt 0.786092 -0.948647
vt 0.505051 -0.734421
vt 0.498622 -0.832847
vt 0.451586 -0.841176
vt 0.540941 -0.739059
vt 0.535145 -0.833456
vt 0.58951 -0.744978
vt 0.591606 -0.834513
vt 0.660279 -0.748167
vt 0.651505 -0.828625
vt 0.695021 -0.744187
vt 0.691253 -0.825638
vt 0.740095 -0.739502
vt 0.741797 -0.818001
vt 0.739837 -0.739568
vt 0.775651 -0.734472
vt 0.784056 -0.81667
vt 0.803058 -0.731236
vt 0.812412 -0.816048
vt 0.836292 -0.801353
vt 0.861083 -0.786259
vt 0.885295 -0.788688
vt 0.903793 -0.796228
vt 0.81196 -0.811853
vt 0.697713 -0.825392
vt 0.64908 -0.828433
vt 0.590942 -0.834184
vt 0.535183 -0.832321
vt 0.498434 -0.832275
vt 0.45446 -0.840938
vt 0.447158 -0.923412
vt 0.452107 -0.561889
vt 0.46245 -0.565856
vt 0.466595 -0.451089
vt 0.44305 -0.563329
vt 0.475076 -0.567484
vt 0.450851 -0.647112
vt 0.457478 -0.649234
vt 0.443951 -0.646496
vt 0.466824 -0.652033
vt 0.437751 -0.735695
vt 0.444798 -0.736725
vt 0.43162 -0.734429
vt 0.452115 -0.739028
vt 0.417045 -0.832991
vt 0.425847 -0.833684
vt 0.409419 -0.832181
vt 0.436014 -0.835776
vt 0.405425 -0.922152
# 176 normals
vn -0.745818 0.0649193 -0.662979
vn 0.0732697 0.352438 -0.932963
vn -0.00509526 0.845023 -0.534706
vn -0.431326 0.799598 -0.417852
vn 0.146262 0.928604 -0.34103
vn -0.143436 0.898769 -0.414295
vn 0.0219857 0.999692 -0.0115179
vn 0.736459 0.338963 -0.585433
vn 0.710302 0.561054 -0.425075
vn 0.650003 0.736171 -0.188542
vn 0.524032 0.81535 0.24616
vn 0.906104 0.0466904 -0.420471
vn 0.944004 0.195482 -0.265788
vn 0.936486 0.350485 0.0124143
vn 0.774584 0.424659 0.468706
vn 0.949168 -0.0599162 -0.309015
vn 0.99353 -0.00472093 -0.113473
vn 0.983251 0.0678668 0.169149
vn 0.812542 0.186159 0.552377
vn 0.393137 0.524653 0.755104
vn -0.0147081 0.844741 0.534973
vn 0.44773 0.285491 0.847368
vn 0.0229524 0.321034 0.94679
vn -0.0093885 0.537194 0.843406
vn -0.982836 -0.0986408 -0.155893
vn -0.911496 -0.349116 -0.217468
vn -0.97634 -0.204543 -0.0701611
vn -0.739391 -0.576592 -0.347625
vn -0.126079 -0.987135 -0.0983321
vn -0.760223 -0.599777 -0.249657
vn -0.0438384 -0.901863 0.429793
vn -0.908632 -0.417575 0.00442355
vn -0.761236 -0.626567 0.167134
vn 0.889164 -0.0188157 -0.457202
vn 0.923279 -0.0725819 -0.37721
vn 0.754971 0.153464 -0.637548
vn -0.98607 -0.165855 0.0125749
vn -0.196259 -0.951622 0.236429
vn -0.19036 -0.947428 0.257182
vn -0.150621 -0.963111 0.223003
vn -0.127047 -0.962688 0.238939
vn -0.06437 -0.955026 0.289451
vn -0.0599698 -0.956726 0.284743
vn -0.0781642 -0.968299 0.237251
vn -0.062785 -0.969071 0.238662
vn -0.0625491 -0.986298 0.152657
vn -0.0270819 -0.987311 0.156472
vn 0.461367 0.664194 -0.588206
vn 0.434007 0.799276 -0.415686
vn 0.0118002 0.853044 -0.521706
vn -0.183925 0.67137 -0.717938
vn 0.146177 0.898661 -0.41357
vn -0.131948 0.919126 -0.371209
vn -0.823428 0.213319 -0.525795
vn -0.770513 0.576631 -0.271674
vn -0.668944 0.735333 -0.10862
vn -0.514825 0.789962 0.33304
vn -0.993697 -0.0218568 -0.109952
vn -0.963001 0.256759 0.0818723
vn -0.879521 0.315717 0.356042
vn -0.653201 0.425524 0.626305
vn -0.994186 -0.0468748 0.0969402
vn -0.962146 0.041658 0.269333
vn -0.917683 0.118638 0.379188
vn -0.751577 0.218253 0.622493
vn -0.382965 0.516414 0.765933
vn -0.403998 0.289055 0.86789
vn -0.821059 -0.486185 -0.299142
vn 0.297649 -0.626386 -0.720448
vn -0.048657 -0.920186 -0.388446
vn 0.35118 -0.843945 -0.4055
vn 0.378302 -0.841712 -0.385237
vn 0.172489 -0.915211 -0.364192
vn 0.025352 -0.966703 -0.254643
vn 0.388959 -0.906642 -0.163432
vn 0.438026 -0.871427 -0.220787
vn 0.771189 -0.625821 -0.11669
vn 0.768943 -0.6026 -0.213544
vn 0.191925 -0.953802 0.23114
vn -0.926358 -0.24695 -0.284388
vn -0.879044 -0.303612 -0.36756
vn -0.760361 -0.124544 -0.637448
vn 0.961594 -0.204898 -0.182632
vn 0.174743 -0.97019 0.167915
vn 0.167544 -0.964744 0.202973
vn 0.192186 -0.963049 0.188684
vn 0.193394 -0.966817 0.166922
vn 0.172696 -0.959372 0.223118
vn 0.181865 -0.953196 0.241542
vn 0.140075 -0.983683 0.112903
vn 0.123068 -0.980327 0.154313
vn -0.997423 -0.0411627 -0.0587568
vn -0.969905 -0.095398 -0.224017
vn -0.999077 -0.00177828 0.0429121
vn -0.979866 -0.185816 -0.0730371
vn -0.990239 -0.0918852 -0.104808
vn -0.817248 -0.188027 -0.544749
vn -0.788232 -0.179144 -0.588726
vn -0.443568 -0.163129 -0.88127
vn -0.390274 -0.205516 -0.897468
vn -0.0961738 -0.124901 -0.987497
vn -0.0933765 -0.146347 -0.984816
vn 0.409366 -0.179946 -0.894449
vn 0.282209 -0.121946 -0.951571
vn 0.613731 -0.210449 -0.760951
vn 0.433433 -0.0979199 -0.895851
vn 0.865439 -0.168001 -0.472008
vn 0.897343 -0.185261 -0.400568
vn 0.836749 -0.0603761 -0.544247
vn 0.817421 -0.0950659 -0.568142
vn 0.971291 -0.104676 -0.213629
vn 0.936563 -0.0745541 -0.342478
vn 0.658203 0.0271608 -0.75235
vn -0.986083 0.00884244 -0.166016
vn -0.894353 0.0813211 -0.439909
vn -0.995904 0.00551961 0.0902518
vn -0.969499 0.0734552 0.233829
vn -0.77971 0.145901 0.608905
vn -0.445505 0.181192 0.876752
vn -0.0154166 0.213794 0.976757
vn 0.445514 0.224317 0.866717
vn 0.835803 0.147415 0.528869
vn 0.98241 -0.00342949 0.186706
vn 0.996368 -0.0521745 -0.067293
vn 0.958713 -0.0683295 -0.276043
vn 0.939609 -0.0783825 -0.333153
vn -0.998894 -0.044108 -0.0162782
vn -0.992346 0.0227117 -0.121379
vn -0.849881 -0.0482784 -0.524758
vn -0.385906 -0.178216 -0.905161
vn -0.0281921 -0.195756 -0.980247
vn 0.511989 -0.170996 -0.8418
vn 0.657632 -0.133959 -0.741333
vn 0.853948 0.00212458 -0.520354
vn 0.858827 -0.018473 -0.511932
vn 0.936235 0.00740963 -0.351296
vn -0.970333 0.222821 -0.0938303
vn -0.946225 0.265686 -0.184578
vn -0.977634 0.15868 0.138032
vn -0.959031 0.132171 0.250579
vn -0.833676 0.140095 0.534189
vn -0.469331 0.181608 0.864145
vn -0.0390739 0.186722 0.981635
vn 0.436273 0.197741 0.877818
vn 0.863972 0.134338 0.485289
vn 0.988214 -0.0140913 0.15243
vn 0.997222 -0.0744867 -0.000891883
vn 0.965004 -0.0739899 -0.251579
vn 0.939523 -0.0717978 -0.334874
vn -0.586856 -0.428862 -0.686788
vn 0.658039 0.160773 -0.73562
vn -0.811687 -0.564292 -0.150792
vn -0.833321 -0.534008 -0.142867
vn -0.268064 -0.61259 0.743556
vn 0.0117525 -0.234217 0.972114
vn 0.875241 0.454188 0.166329
vn -0.663904 -0.356932 -0.657139
vn 0.743906 0.0170458 -0.668066
vn -0.956874 -0.290118 0.0149476
vn -0.186243 0.0330543 0.981948
vn -0.327986 -0.0848065 0.940868
vn 0.944839 0.257475 0.202449
vn -0.628386 -0.283238 -0.724505
vn 0.88307 -0.129319 -0.451071
vn -0.997694 -0.0663563 0.01428
vn -0.36727 0.178202 0.912884
vn -0.433743 0.155215 0.887567
vn 0.915123 0.128715 0.382076
vn -0.745745 -0.173163 -0.643334
vn 0.785507 -0.205892 -0.583599
vn -0.999686 -0.024873 0.00314363
vn -0.448597 0.231493 0.863233
vn -0.361491 0.252971 0.897402
vn 0.970935 -0.00519486 0.239287
vn 0.285643 -0.423082 -0.859889
vn -0.321447 0.0131679 0.946836
usemtl _09_-_Defaultaaa
g Bob_Hair_Grungey
s off
f 1/1/1 2/3/3 3/2/2
f 2/3/3 1/1/1 4/4/4
f 4/4/4 5/5/5 2/3/3
f 5/5/5 4/4/4 6/6/6
f 6/6/6 7/7/7 5/5/5
f 8/8/8 2/3/3 9/9/9
f 2/3/3 8/8/8 3/2/2
f 9/9/9 5/5/5 10/10/10
f 5/5/5 9/9/9 2/3/3
f 10/10/10 7/7/7 11/11/11
f 7/7/7 10/10/10 5/5/5
f 12/12/12 9/9/9 13/13/13
f 9/9/9 12/12/12 8/8/8
f 13/13/13 10/10/10 14/14/14
f 10/10/10 13/13/13 9/9/9
f 14/14/14 11/11/11 15/15/15
f 11/11/11 14/14/14 10/10/10
f 16/16/16 13/13/13 17/17/17
f 13/13/13 16/16/16 12/12/12
f 17/17/17 14/14/14 18/18/18
f 14/14/14 17/17/17 13/13/13
f 18/18/18 15/15/15 19/19/19
f 15/15/15 18/18/18 14/14/14
f 20/20/20 11/11/11 21/21/21
f 11/11/11 20/20/20 15/15/15
f 22/22/22 15/15/15 20/20/20
f 15/15/15 22/22/22 19/19/19
f 23/23/23 20/20/20 24/24/24
f 20/20/20 23/23/23 22/22/22
f 20/20/20 21/21/21 24/24/24
f 11/11/11 7/7/7 21/21/21
f 25/25/25 26/26/27 27/26/26
f 28/27/28 29/2/29 3/2/2
f 29/2/29 28/27/28 30/27/30
f 27/26/26 30/27/30 28/27/28
f 30/27/30 27/26/26 26/26/27
f 31/28/31 32/30/33 33/29/32
f 27/26/34 16/16/16 25/25/35
f 16/16/16 27/26/34 12/12/12
f 28/27/36 12/12/12 27/26/34
f 12/12/12 28/27/36 8/8/8
f 8/8/8 28/27/36 3/2/2
f 30/27/30 26/26/27 34/31/37
f 31/28/31 35/32/38 32/30/33
f 35/32/38 31/28/31 36/33/39
f 36/33/39 37/34/40 35/32/38
f 37/34/40 36/33/39 38/35/41
f 38/35/41 39/36/42 37/34/40
f 39/36/42 38/35/41 40/37/43
f 40/37/43 41/38/44 39/36/42
f 41/38/44 40/37/43 42/39/45
f 41/38/44 43/41/47 44/40/46
f 43/41/47 41/38/44 42/39/45
f 1/42/48 45/44/50 4/43/49
f 45/44/50 1/42/48 46/45/51
f 4/43/49 47/47/53 6/46/52
f 47/47/53 4/43/49 45/44/50
f 6/46/52 47/47/53 7/48/7
f 48/49/54 45/44/50 46/45/51
f 45/44/50 48/49/54 49/50/55
f 49/50/55 47/47/53 45/44/50
f 47/47/53 49/50/55 50/51/56
f 50/51/56 7/48/7 47/47/53
f 7/48/7 50/51/56 51/52/57
f 52/53/58 49/50/55 48/49/54
f 49/50/55 52/53/58 53/54/59
f 53/54/59 50/51/56 49/50/55
f 50/51/56 53/54/59 54/55/60
f 54/55/60 51/52/57 50/51/56
f 51/52/57 54/55/60 55/56/61
f 56/57/62 53/54/59 52/53/58
f 53/54/59 56/57/62 57/58/63
f 57/58/63 54/55/60 53/54/59
f 54/55/60 57/58/63 58/59/64
f 58/59/64 55/56/61 54/55/60
f 55/56/61 58/59/64 59/60/65
f 60/61/66 51/52/57 55/56/61
f 51/52/57 60/61/66 21/21/21
f 61/62/67 55/56/61 59/60/65
f 55/56/61 61/62/67 60/61/66
f 23/23/23 60/61/66 61/62/67
f 60/61/66 23/23/23 24/24/24
f 60/61/66 24/24/24 21/21/21
f 51/52/57 21/21/21 7/48/7
f 62/63/68 63/65/70 64/64/69
f 46/45/71 65/67/73 66/66/72
f 65/67/73 46/45/71 1/42/74
f 63/65/70 67/68/75 64/64/69
f 67/68/75 63/65/70 68/69/76
f 69/70/77 70/72/79 71/71/78
f 63/65/80 56/57/62 52/53/58
f 56/57/62 63/65/80 62/63/81
f 68/69/82 52/53/58 48/49/54
f 52/53/58 68/69/82 63/65/80
f 48/49/54 46/45/51 68/69/82
f 67/68/75 72/73/83 64/64/69
f 70/72/79 73/75/85 74/74/84
f 73/75/85 70/72/79 69/70/77
f 74/74/84 75/77/87 76/76/86
f 75/77/87 74/74/84 73/75/85
f 76/76/86 77/79/89 78/78/88
f 77/79/89 76/76/86 75/77/87
f 78/78/88 79/81/91 80/80/90
f 79/81/91 78/78/88 77/79/89
f 79/81/91 43/41/47 80/80/90
f 43/41/47 79/81/91 44/40/46
f 25/25/25 81/83/92 26/82/27
f 81/83/92 25/25/25 82/84/93
f 26/82/27 83/86/94 34/85/37
f 83/86/94 26/82/27 81/83/92
f 34/85/37 84/88/96 85/87/95
f 84/88/96 34/85/37 83/86/94
f 85/87/95 86/90/98 87/89/97
f 86/90/98 85/87/95 84/88/96
f 87/89/97 88/92/100 89/91/99
f 88/92/100 87/89/97 86/90/98
f 89/91/99 90/94/102 91/93/101
f 90/94/102 89/91/99 88/92/100
f 91/95/101 92/97/104 93/96/103
f 92/97/104 91/95/101 90/94/102
f 93/96/103 94/99/106 95/98/105
f 94/99/106 93/96/103 92/97/104
f 95/98/107 96/100/109 97/59/108
f 96/100/109 95/98/107 94/99/110
f 97/59/108 98/101/111 72/58/83
f 98/101/111 97/59/108 96/100/109
f 72/58/83 99/102/112 64/64/69
f 99/102/112 72/58/83 98/101/111
f 99/102/112 62/63/68 64/64/69
f 62/63/68 99/102/112 100/103/113
f 62/63/81 101/102/114 56/57/62
f 101/102/114 62/63/81 100/103/115
f 56/57/62 102/101/116 57/58/63
f 102/101/116 56/57/62 101/102/114
f 57/58/63 103/100/117 58/59/64
f 103/100/117 57/58/63 102/101/116
f 58/59/64 104/104/118 59/60/65
f 104/104/118 58/59/64 103/100/117
f 59/60/65 105/97/119 61/62/67
f 105/97/119 59/60/65 104/104/118
f 61/62/67 106/94/120 23/23/23
f 106/94/120 61/62/67 105/97/119
f 23/23/23 107/105/121 22/22/22
f 107/105/121 23/23/23 106/94/120
f 22/22/22 108/106/122 19/19/19
f 108/106/122 22/22/22 107/105/121
f 19/19/19 109/107/123 18/18/18
f 109/107/123 19/19/19 108/106/122
f 18/18/18 110/108/124 17/17/17
f 110/108/124 18/18/18 109/107/123
f 17/17/17 111/109/125 16/16/16
f 111/109/125 17/17/17 110/108/124
f 16/16/16 82/110/126 25/25/35
f 82/110/126 16/16/16 111/109/125
f 82/84/93 32/30/33 81/83/92
f 32/30/33 82/84/93 33/111/32
f 81/83/92 35/32/127 83/86/94
f 35/32/127 81/83/92 32/30/33
f 83/86/94 37/34/128 84/88/96
f 37/34/128 83/86/94 35/32/127
f 84/88/96 39/36/129 86/90/98
f 39/36/129 84/88/96 37/34/128
f 86/90/98 41/38/130 88/92/100
f 41/38/130 86/90/98 39/36/129
f 88/92/100 44/40/131 90/94/102
f 44/40/131 88/92/100 41/38/130
f 90/94/102 79/81/132 92/97/104
f 79/81/132 90/94/102 44/40/131
f 92/97/104 77/79/133 94/99/106
f 77/79/133 92/97/104 79/81/132
f 94/99/110 75/77/134 96/100/109
f 75/77/134 94/99/110 77/79/135
f 75/77/134 98/101/111 96/100/109
f 98/101/111 75/77/134 73/75/136
f 98/101/111 69/70/77 99/102/112
f 69/70/77 98/101/111 73/75/136
f 99/102/112 71/71/78 100/103/113
f 71/71/78 99/102/112 69/70/77
f 100/103/115 70/72/137 101/102/114
f 70/72/137 100/103/115 71/71/138
f 101/102/114 74/74/139 102/101/116
f 74/74/139 101/102/114 70/72/137
f 102/101/116 76/76/140 103/100/117
f 76/76/140 102/101/116 74/74/139
f 103/100/117 78/78/141 104/104/118
f 78/78/141 103/100/117 76/76/140
f 104/104/118 80/80/142 105/97/119
f 80/80/142 104/104/118 78/78/141
f 105/97/119 43/41/143 106/94/120
f 43/41/143 105/97/119 80/80/142
f 106/94/120 42/39/144 107/105/121
f 42/39/144 106/94/120 43/41/143
f 107/105/121 40/37/145 108/106/122
f 40/37/145 107/105/121 42/39/144
f 108/106/122 38/35/146 109/107/123
f 38/35/146 108/106/122 40/37/145
f 109/107/123 36/33/147 110/108/124
f 36/33/147 109/107/123 38/35/146
f 110/108/124 31/28/148 111/109/125
f 31/28/148 110/108/124 36/33/147
f 111/109/125 33/29/149 82/110/126
f 33/29/149 111/109/125 31/28/148
f 3/2/2 112/112/150 1/1/1
f 112/112/150 3/2/2 113/113/151
f 1/1/1 114/115/153 65/114/152
f 114/115/153 1/1/1 112/112/150
f 65/114/154 115/116/154 29/2/154
f 115/116/155 65/114/155 114/115/155
f 115/116/156 3/2/2 29/2/29
f 3/2/2 115/116/156 113/113/151
f 113/113/151 116/117/157 112/112/150
f 116/117/157 113/113/151 117/118/158
f 112/112/150 118/119/159 114/115/153
f 118/119/159 112/112/150 116/117/157
f 114/115/160 119/120/160 115/116/160
f 119/120/161 114/115/161 118/119/161
f 115/116/156 117/118/158 113/113/151
f 117/118/158 115/116/156 119/120/162
f 117/118/158 120/121/163 116/117/157
f 120/121/163 117/118/158 121/122/164
f 116/117/157 122/123/165 118/119/159
f 122/123/165 116/117/157 120/121/163
f 118/119/166 123/124/166 119/120/166
f 123/124/167 118/119/167 122/123/167
f 119/120/162 121/122/164 117/118/158
f 121/122/164 119/120/162 123/124/168
f 121/122/164 124/125/169 120/121/163
f 124/125/169 121/122/164 125/126/170
f 120/121/163 126/127/171 122/123/165
f 126/127/171 120/121/163 124/125/169
f 122/123/172 127/128/172 123/124/172
f 127/128/173 122/123/173 126/127/173
f 123/124/168 125/126/170 121/122/164
f 125/126/170 123/124/168 127/128/174
f 125/126/170 128/129/175 124/125/169
f 124/125/169 128/129/175 126/127/171
f 126/127/176 128/129/176 127/128/176
f 127/128/174 128/129/175 125/126/170
f 66/66/72 68/69/76 46/45/71
f 67/68/75 68/69/76 66/66/72
