# Wavefront OBJ
# Created by fragMOTION 1.3.7
# http://www.fragmosoft.com

mtllib Bob_Hair_Mullet.mtl
# 138 vertices
v 0.0347328 0.959221 -0.0859186
v 0.00500254 0.972028 -0.084758
v 0.0384872 0.977303 -0.0418418
v 0.00500255 0.972024 -0.0847633
v 0.0552533 0.957318 -0.0144854
v 0.0607714 0.905623 -0.034148
v 0.0577292 0.943757 -0.0675848
v 0.0589298 0.931234 -0.00616058
v 0.00470407 0.929679 0.0281832
v 0.0376224 0.961216 0.0080259
v 0.00474055 0.963877 0.01869
v 0.0404239 0.928271 0.0196916
v 0.0375401 0.97861 -0.0124525
v 0.00480874 0.985273 -0.00536931
v 0.0572509 0.908916 0.0104448
v 0.041712 0.909272 0.0308334
v 0.0337562 0.939525 -0.0949949
v 0.00504238 0.957856 -0.10278
v 0.00503382 0.936158 -0.102581
v 0.00490452 0.987245 -0.0433384
v 0.00466983 0.909857 0.038919
v 0.0420183 0.883531 0.0388826
v 0.0046401 0.884117 0.0469683
v 0.0543549 0.884591 0.0248182
v 0.0628627 0.911723 -0.0181895
v 0.0540562 0.885469 -0.00874351
v 0.0552999 0.907259 -0.0261205
v 0.0621576 0.886496 0.00766733
v 0.0444211 0.84673 0.0574768
v 0.00396036 0.846921 0.0650861
v 0.0609163 0.844637 0.0298965
v 0.0612657 0.845293 -0.00410548
v 0.0637667 0.840413 0.011168
v 0.0486249 0.820924 0.0599807
v 0.00326102 0.820761 0.0671414
v 0.0640159 0.820766 0.0396178
v 0.0648998 0.80458 0.0110163
v 0.0668443 0.816043 0.0271777
v 0.0509484 0.803913 0.0739499
v 0.00319639 0.803717 0.0810555
v 0.0669704 0.805196 0.0596574
v 0.0573744 0.802304 0.0275686
v 0.0700097 0.801674 0.0429011
v 0.0557518 0.767395 0.0815402
v 0.00392706 0.748358 0.0846341
v 0.0685131 0.776811 0.073945
v 0.0707114 0.785828 0.046876
v 0.0733729 0.778659 0.0549965
v 0.0537775 0.888978 -0.0410671
v 0.0484461 0.931259 -0.0738143
v 0.0328446 0.929803 -0.078644
v 0.0451286 0.916823 -0.0521585
v 0.00499377 0.928211 -0.0877635
v 0.0508963 0.901168 -0.0216307
v 0.0480136 0.883083 -0.00643277
v 0.0488628 0.842783 -0.00474299
v 0.0533065 0.808369 0.00723449
v 0.0448521 0.808271 0.027049
v 0.0670466 0.788293 0.0433061
v 0.0524958 0.749378 0.0752928
v 0.00424397 0.739583 0.0763058
v 0.0669223 0.763543 0.0648557
v 0.0694746 0.768864 0.0542198
v 0.0480081 0.897101 -0.0369168
v 0.0299035 0.898358 -0.0433105
v 0.030755 0.897489 -0.0340614
v 0.00488651 0.897279 -0.0495119
v 0.0305301 0.889753 -0.0140691
v 0.0292731 0.877672 -0.0027349
v 0.0287931 0.853966 -0.00246702
v 0.0328307 0.832475 0.0122412
v 0.0343493 0.827845 0.0219011
v 0.0321397 0.806554 0.0289518
v 0.0409731 0.788313 0.0597145
v 0.0041008 0.780599 0.0560381
v 0.0353634 0.794993 0.0459376
v 0.0326672 0.799678 0.0383523
v 0.0315734 0.892419 -0.0257621
v -0.024731 0.959243 -0.0860675
v -0.0286926 0.977328 -0.04201
v -0.0456104 0.957356 -0.0147379
v -0.0510683 0.905665 -0.034428
v -0.0493479 0.931274 -0.00643168
v -0.0478305 0.943796 -0.0678491
v -0.0280894 0.961233 0.00783321
v -0.0319679 0.928298 0.0195104
v -0.0278917 0.978634 -0.0126163
v -0.0477688 0.908955 0.0101819
v -0.0323318 0.9093 0.030648
v -0.0237237 0.939546 -0.0951388
v -0.0326902 0.882817 0.0356682
v -0.0449628 0.884628 0.0245696
v -0.053235 0.911766 -0.0184802
v -0.0444955 0.885506 -0.00899025
v -0.0526781 0.886538 0.00737982
v -0.0456359 0.907297 -0.0263732
v -0.0363093 0.846016 0.0563797
v -0.0521457 0.843637 0.02836
v -0.051772 0.844555 -0.00491079
v -0.0545998 0.839647 0.010283
v -0.0417183 0.819599 0.0579385
v -0.0561625 0.819004 0.0369012
v -0.0552787 0.802818 0.00829973
v -0.0582864 0.814209 0.0243492
v -0.0441711 0.802519 0.0717998
v -0.0595618 0.803341 0.0567972
v -0.0484453 0.800753 0.0251766
v -0.0617365 0.799742 0.039923
v -0.0482405 0.76587 0.0791894
v -0.060916 0.774913 0.0710192
v -0.0621524 0.78388 0.0438726
v -0.0649669 0.77663 0.0518694
v -0.0440523 0.889014 -0.041312
v -0.0385256 0.931292 -0.0740321
v -0.0229012 0.929824 -0.0787836
v -0.0353272 0.916853 -0.0523599
v -0.0412594 0.901202 -0.0218615
v -0.0384662 0.883115 -0.00664928
v -0.038109 0.842014 -0.00592491
v -0.0436424 0.806947 0.00504298
v -0.0360926 0.807085 0.0252193
v -0.0584039 0.786453 0.0404703
v -0.0441791 0.74796 0.0731075
v -0.0585282 0.761704 0.0620199
v -0.0607522 0.766955 0.051276
v -0.0382977 0.897133 -0.0371329
v -0.0201604 0.898376 -0.0434359
v -0.0210588 0.897508 -0.0341911
v -0.0209398 0.889772 -0.014198
v -0.0197486 0.87769 -0.00285795
v -0.0193873 0.85354 -0.00312178
v -0.0235243 0.831976 0.0114754
v -0.0250292 0.827603 0.0214495
v -0.0234342 0.805739 0.0276955
v -0.0331101 0.787227 0.0580398
v -0.0270819 0.794077 0.044526
v -0.0241842 0.798845 0.0370672
v -0.0219225 0.892438 -0.025896
# 144 texture vertices
vt 0.565359 -0.430685
vt 0.633548 -0.48264
vt 0.624637 -0.390827
vt 0.60736 -0.388372
vt 0.607301 -0.543228
vt 0.544469 -0.483574
vt 0.510953 -0.57196
vt 0.5804 -0.580514
vt 0.701041 -0.630553
vt 0.702205 -0.577168
vt 0.650068 -0.568852
vt 0.634798 -0.622079
vt 0.649612 -0.522851
vt 0.703467 -0.52158
vt 0.579181 -0.626403
vt 0.623956 -0.65258
vt 0.523731 -0.432312
vt 0.551614 -0.374926
vt 0.499354 -0.389038
vt 0.704922 -0.454095
vt 0.699985 -0.662061
vt 0.617809 -0.689158
vt 0.700239 -0.696244
vt 0.577737 -0.67389
vt 0.533187 -0.593406
vt 0.50518 -0.591535
vt 0.500177 -0.64228
vt 0.540351 -0.655608
vt 0.616814 -0.754774
vt 0.698654 -0.75942
vt 0.555352 -0.738402
vt 0.493728 -0.714665
vt 0.518863 -0.732019
vt 0.606378 -0.791396
vt 0.697798 -0.794453
vt 0.556842 -0.781418
vt 0.501415 -0.788465
vt 0.531533 -0.783579
vt 0.610395 -0.821542
vt 0.697168 -0.824148
vt 0.573938 -0.81801
vt 0.50852 -0.816475
vt 0.544466 -0.819344
vt 0.610043 -0.877189
vt 0.695248 -0.913832
vt 0.592095 -0.864315
vt 0.546296 -0.853354
vt 0.561319 -0.862449
vt 0.520577 -0.481417
vt 0.48032 -0.56481
vt 0.50239 -0.460349
vt 0.489925 -0.518363
vt 0.469495 -0.41764
vt 0.489367 -0.600178
vt 0.479049 -0.646295
vt 0.468381 -0.71972
vt 0.48637 -0.784939
vt 0.479425 -0.825883
vt 0.536908 -0.854254
vt 0.614513 -0.901053
vt 0.695041 -0.924108
vt 0.583172 -0.886718
vt 0.567709 -0.876854
vt 0.476572 -0.566324
vt 0.444045 -0.524714
vt 0.443088 -0.548124
vt 0.409811 -0.489044
vt 0.442652 -0.612108
vt 0.437026 -0.65212
vt 0.427454 -0.706224
vt 0.433994 -0.772928
vt 0.439811 -0.809552
vt 0.461829 -0.872208
vt 0.582903 -0.961967
vt 0.693614 -0.99092
vt 0.530584 -0.951623
vt 0.491216 -0.919968
vt 0.441656 -0.577157
vt 0.845412 -0.435494
vt 0.8052 -0.391765
vt 0.787812 -0.393626
vt 0.775074 -0.485066
vt 0.798655 -0.546457
vt 0.824047 -0.584637
vt 0.893591 -0.578675
vt 0.86415 -0.489068
vt 0.769224 -0.624011
vt 0.754768 -0.5706
vt 0.757241 -0.524682
vt 0.823156 -0.630674
vt 0.777816 -0.654221
vt 0.886943 -0.438536
vt 0.913148 -0.396163
vt 0.861488 -0.380247
vt 0.784697 -0.690888
vt 0.821887 -0.678224
vt 0.870444 -0.599373
vt 0.860349 -0.661212
vt 0.901244 -0.649324
vt 0.898428 -0.598494
vt 0.780411 -0.758084
vt 0.842006 -0.743302
vt 0.878727 -0.73822
vt 0.904479 -0.721772
vt 0.789302 -0.794848
vt 0.839123 -0.786344
vt 0.864266 -0.789358
vt 0.894206 -0.795225
vt 0.784 -0.82471
vt 0.82056 -0.822376
vt 0.849917 -0.824672
vt 0.885922 -0.822985
vt 0.781977 -0.880274
vt 0.800452 -0.86801
vt 0.83129 -0.86717
vt 0.846681 -0.858593
vt 0.924223 -0.572649
vt 0.888322 -0.487659
vt 0.917118 -0.525774
vt 0.90711 -0.467321
vt 0.9418 -0.425814
vt 0.922246 -0.654073
vt 0.913874 -0.607713
vt 0.931864 -0.727734
vt 0.909382 -0.792197
vt 0.914592 -0.833379
vt 0.856026 -0.859823
vt 0.776513 -0.903937
vt 0.808443 -0.890681
vt 0.824308 -0.881325
vt 0.92793 -0.574347
vt 0.962467 -0.557235
vt 0.962601 -0.533748
vt 0.998356 -0.499312
vt 0.96399 -0.661291
vt 0.960145 -0.621052
vt 0.971272 -0.715503
vt 0.962182 -0.781928
vt 0.954824 -0.818374
vt 0.930274 -0.880352
vt 0.805492 -0.965899
vt 0.858221 -0.95738
vt 0.898888 -0.92711
vt 0.962502 -0.586244
# 138 normals
vn 0.548863 0.594288 -0.587853
vn 0.561074 0.809907 -0.171014
vn 0.00143314 0.900355 -0.435154
vn 0.00169204 0.833801 -0.552063
vn 0.889894 0.403302 0.213156
vn 0.905281 0.179997 -0.384796
vn 0.941432 -0.326799 0.0831128
vn 0.935505 0.218389 0.277735
vn -0.000976675 0.405991 0.913877
vn -0.00231258 0.514813 0.857299
vn 0.515706 0.489018 0.703497
vn 0.522394 0.397462 0.754406
vn 0.51194 0.814559 0.272783
vn -0.000761864 0.917915 0.396776
vn 0.869906 0.24605 0.427461
vn 0.500234 0.365725 0.784864
vn 0.503796 -0.293254 -0.812522
vn 0.00240912 0.44281 -0.896612
vn 0.00196506 -0.509195 -0.860649
vn 0.000787005 0.985797 -0.167939
vn -0.0153734 0.375284 0.926782
vn 0.507546 0.346775 0.788761
vn -0.0302752 0.424025 0.905144
vn 0.825392 0.194449 0.530017
vn 0.986664 -0.0495779 -0.155038
vn 0.596466 -0.800072 0.0641302
vn 0.451452 -0.434145 -0.779557
vn 0.996794 0.0428573 0.067558
vn 0.504881 0.373498 0.777393
vn -0.012776 0.352051 0.933791
vn 0.913847 0.274474 0.294766
vn 0.678849 -0.122211 -0.719165
vn 0.992537 0.0994562 -0.0160055
vn 0.449528 0.494015 0.744227
vn -0.0266879 0.433119 0.900941
vn 0.883958 0.364536 0.292799
vn 0.591162 -0.701447 -0.398119
vn 0.998543 -0.0447425 -0.0301805
vn 0.329698 0.451814 0.828953
vn -0.0264972 0.384919 0.92257
vn 0.795299 0.432994 0.424283
vn 0.141459 -0.897289 -0.418164
vn 0.970723 0.0564057 -0.233484
vn 0.410341 -0.129814 0.902645
vn -0.0156152 -0.368207 0.929613
vn 0.775313 -0.012148 0.631461
vn 0.657796 -0.41813 -0.626475
vn 0.982098 -0.124755 -0.14114
vn 0.54859 -0.561287 -0.619683
vn 0.0947869 -0.989171 -0.112054
vn 0.248818 -0.805899 -0.537231
vn -0.223911 -0.740053 -0.63418
vn 0.00105902 -0.836879 -0.547386
vn 0.35088 -0.806653 -0.475599
vn -0.0857898 -0.419292 -0.903789
vn -0.0671202 -0.285438 -0.954037
vn -0.285842 -0.698812 -0.65571
vn -0.313341 -0.731418 -0.605677
vn 0.221798 -0.57553 -0.787128
vn 0.422749 -0.905987 0.0216972
vn 0.0176664 -0.990076 -0.139415
vn 0.541395 -0.825172 -0.161192
vn 0.419266 -0.749393 -0.51247
vn -0.317915 -0.944786 -0.0794319
vn 0.530454 -0.740714 -0.412264
vn 0.115902 -0.83019 -0.545299
vn 0.00133587 -0.762541 -0.646939
vn 0.199959 -0.78453 -0.586966
vn -0.088931 -0.34534 -0.934253
vn -0.28435 -0.239211 -0.926786
vn -0.689151 -0.546367 -0.475528
vn -0.695457 -0.608916 -0.381096
vn -0.119902 -0.60388 -0.788005
vn -0.402887 -0.694453 -0.596169
vn 0.0267501 -0.442774 -0.896234
vn -0.619257 -0.753732 -0.22002
vn -0.44 -0.757936 -0.481593
vn 0.273866 -0.939845 -0.204177
vn -0.545465 0.594703 -0.59059
vn -0.559608 0.810324 -0.173819
vn -0.890588 0.403975 0.208943
vn -0.938754 0.219072 0.265987
vn -0.942079 -0.326098 0.0783979
vn -0.903209 0.18067 -0.389323
vn -0.536825 0.393029 0.746557
vn -0.517523 0.493034 0.699348
vn -0.512676 0.814844 0.27054
vn -0.875545 0.23866 0.420074
vn -0.491189 0.324809 0.808228
vn -0.499939 -0.292881 -0.815035
vn -0.499733 0.327123 0.802034
vn -0.799257 0.185067 0.571785
vn -0.985912 -0.0488441 -0.159975
vn -0.997075 0.0438847 0.0625739
vn -0.447801 -0.43374 -0.781885
vn -0.597374 -0.799628 0.0611417
vn -0.527719 0.379323 0.755457
vn -0.919559 0.267428 0.274097
vn -0.992742 0.0793183 -0.0462867
vn -0.653801 -0.139388 -0.741985
vn -0.496972 0.479921 0.722976
vn -0.906695 0.337865 0.252491
vn -0.994404 -0.0743842 -0.0750114
vn -0.551418 -0.717979 -0.424787
vn -0.379906 0.441411 0.812913
vn -0.825999 0.409226 0.387634
vn -0.960419 0.0280928 -0.277137
vn -0.0960727 -0.900771 -0.423533
vn -0.44672 -0.142379 0.883272
vn -0.802359 -0.0352774 0.595799
vn -0.970641 -0.153383 -0.185282
vn -0.616278 -0.436818 -0.65528
vn -0.0949614 -0.9891 -0.112529
vn -0.545897 -0.56088 -0.622422
vn 0.226533 -0.740221 -0.633053
vn -0.246724 -0.805714 -0.538471
vn 0.0894599 -0.41862 -0.903745
vn -0.349094 -0.806392 -0.477352
vn 0.111853 -0.289073 -0.948194
vn 0.334076 -0.689193 -0.642966
vn 0.361731 -0.721392 -0.590545
vn -0.169038 -0.581268 -0.795961
vn -0.39657 -0.917999 0.00317703
vn -0.50915 -0.840573 -0.184939
vn -0.37355 -0.761016 -0.530391
vn 0.317606 -0.945022 -0.077841
vn -0.113788 -0.830104 -0.545874
vn -0.528934 -0.74032 -0.414916
vn 0.095952 -0.343209 -0.934343
vn -0.197601 -0.784382 -0.587961
vn 0.319429 -0.233391 -0.914996
vn 0.706907 -0.533857 -0.455732
vn 0.703548 -0.602502 -0.369882
vn 0.173047 -0.59959 -0.781374
vn 0.449581 -0.681955 -0.5769
vn 0.650382 -0.735119 -0.191319
vn 0.483325 -0.7444 -0.460722
vn -0.27354 -0.939641 -0.205548
usemtl _09_-_Defaulteee
g Bob_Hair_Mullet
s off
f 1/1/1 2/3/3 3/2/2
f 2/3/3 1/1/1 4/4/4
f 5/5/5 6/7/7 7/6/6
f 6/7/7 5/5/5 8/8/8
f 9/9/9 10/11/11 11/10/10
f 10/11/11 9/9/9 12/12/12
f 3/2/2 5/5/5 7/6/6
f 5/5/5 3/2/2 13/13/13
f 10/11/11 14/14/14 11/10/10
f 14/14/14 10/11/11 13/13/13
f 7/6/6 1/1/1 3/2/2
f 15/15/15 12/12/12 16/16/16
f 12/12/12 15/15/15 8/8/8
f 13/13/13 10/11/11 5/5/5
f 17/17/17 18/18/18 1/1/1
f 18/18/18 17/17/17 19/19/19
f 3/2/2 2/3/3 20/20/20
f 21/21/21 22/22/22 16/16/16
f 22/22/22 21/21/21 23/23/23
f 16/16/16 24/24/24 15/15/15
f 24/24/24 16/16/16 22/22/22
f 25/25/25 26/27/27 27/26/26
f 26/27/27 25/25/25 28/28/28
f 15/15/15 28/28/28 25/25/25
f 28/28/28 15/15/15 24/24/24
f 23/23/23 29/29/29 22/22/22
f 29/29/29 23/23/23 30/30/30
f 22/22/22 31/31/31 24/24/24
f 31/31/31 22/22/22 29/29/29
f 28/28/28 32/32/32 26/27/27
f 32/32/32 28/28/28 33/33/33
f 24/24/24 33/33/33 28/28/28
f 33/33/33 24/24/24 31/31/31
f 30/30/30 34/34/34 29/29/29
f 34/34/34 30/30/30 35/35/35
f 29/29/29 36/36/36 31/31/31
f 36/36/36 29/29/29 34/34/34
f 33/33/33 37/37/37 32/32/32
f 37/37/37 33/33/33 38/38/38
f 31/31/31 38/38/38 33/33/33
f 38/38/38 31/31/31 36/36/36
f 35/35/35 39/39/39 34/34/34
f 39/39/39 35/35/35 40/40/40
f 34/34/34 41/41/41 36/36/36
f 41/41/41 34/34/34 39/39/39
f 38/38/38 42/42/42 37/37/37
f 42/42/42 38/38/38 43/43/43
f 36/36/36 43/43/43 38/38/38
f 43/43/43 36/36/36 41/41/41
f 40/40/40 44/44/44 39/39/39
f 44/44/44 40/40/40 45/45/45
f 39/39/39 46/46/46 41/41/41
f 46/46/46 39/39/39 44/44/44
f 43/43/43 47/47/47 42/42/42
f 47/47/47 43/43/43 48/48/48
f 41/41/41 48/48/48 43/43/43
f 48/48/48 41/41/41 46/46/46
f 7/6/6 49/50/50 50/49/49
f 49/50/50 7/6/6 6/7/7
f 17/17/17 7/6/6 50/49/49
f 7/6/6 17/17/17 1/1/1
f 16/16/16 9/9/9 21/21/21
f 9/9/9 16/16/16 12/12/12
f 10/11/11 8/8/8 5/5/5
f 8/8/8 10/11/11 12/12/12
f 25/25/25 8/8/8 15/15/15
f 8/8/8 25/25/25 6/7/7
f 27/26/26 6/7/7 25/25/25
f 6/7/7 27/26/26 49/50/50
f 50/49/49 51/51/51 17/17/17
f 51/51/51 50/49/49 52/52/52
f 17/17/17 53/53/53 19/19/19
f 53/53/53 17/17/17 51/51/51
f 26/27/27 54/54/54 27/26/26
f 54/54/54 26/27/27 55/55/55
f 32/32/32 55/55/55 26/27/27
f 55/55/55 32/32/32 56/56/56
f 37/37/37 56/56/56 32/32/32
f 56/56/56 37/37/37 57/57/57
f 42/42/42 57/57/57 37/37/37
f 57/57/57 42/42/42 58/58/58
f 59/59/59 42/42/42 47/47/47
f 42/42/42 59/59/59 58/58/58
f 45/45/45 60/60/60 44/44/44
f 60/60/60 45/45/45 61/61/61
f 44/44/44 62/62/62 46/46/46
f 62/62/62 44/44/44 60/60/60
f 48/48/48 59/59/59 47/47/47
f 59/59/59 48/48/48 63/63/63
f 62/62/62 48/48/48 46/46/46
f 48/48/48 62/62/62 63/63/63
f 49/50/50 52/52/52 50/49/49
f 52/52/52 49/50/50 64/64/64
f 27/26/26 64/64/64 49/50/50
f 64/64/64 27/26/26 54/54/54
f 52/52/52 65/65/65 51/51/51
f 65/65/65 52/52/52 66/66/66
f 51/51/51 67/67/67 53/53/53
f 67/67/67 51/51/51 65/65/65
f 55/55/55 68/68/68 54/54/54
f 68/68/68 55/55/55 69/69/69
f 56/56/56 69/69/69 55/55/55
f 69/69/69 56/56/56 70/70/70
f 57/57/57 70/70/70 56/56/56
f 70/70/70 57/57/57 71/71/71
f 58/58/58 71/71/71 57/57/57
f 71/71/71 58/58/58 72/72/72
f 73/73/73 58/58/58 59/59/59
f 58/58/58 73/73/73 72/72/72
f 61/61/61 74/74/74 60/60/60
f 74/74/74 61/61/61 75/75/75
f 74/74/74 62/62/62 60/60/60
f 62/62/62 74/74/74 76/76/76
f 63/63/63 73/73/73 59/59/59
f 73/73/73 63/63/63 77/77/77
f 62/62/62 77/77/77 63/63/63
f 77/77/77 62/62/62 76/76/76
f 64/64/64 66/66/66 52/52/52
f 66/66/66 64/64/64 78/78/78
f 54/54/54 78/78/78 64/64/64
f 78/78/78 54/54/54 68/68/68
f 20/20/20 13/13/13 3/2/2
f 13/13/13 20/20/20 14/14/14
f 18/18/18 4/4/4 1/1/1
f 79/79/79 2/81/3 4/80/4
f 2/81/3 79/79/79 80/82/80
f 81/83/81 82/85/83 83/84/82
f 82/85/83 81/83/81 84/86/84
f 9/9/9 85/88/86 86/87/85
f 85/88/86 9/9/9 11/10/10
f 80/82/80 81/83/81 87/89/87
f 81/83/81 80/82/80 84/86/84
f 85/88/86 14/14/14 87/89/87
f 14/14/14 85/88/86 11/10/10
f 84/86/84 80/82/80 79/79/79
f 88/90/88 86/87/85 83/84/82
f 86/87/85 88/90/88 89/91/89
f 87/89/87 81/83/81 85/88/86
f 90/92/90 18/94/18 19/93/19
f 18/94/18 90/92/90 79/79/79
f 80/82/80 20/20/20 2/81/3
f 21/21/21 91/95/91 23/23/23
f 91/95/91 21/21/21 89/91/89
f 89/91/89 92/96/92 91/95/91
f 92/96/92 89/91/89 88/90/88
f 93/97/93 94/99/95 95/98/94
f 94/99/95 93/97/93 96/100/96
f 88/90/88 95/98/94 92/96/92
f 95/98/94 88/90/88 93/97/93
f 23/23/23 97/101/97 30/30/30
f 97/101/97 23/23/23 91/95/91
f 91/95/91 98/102/98 97/101/97
f 98/102/98 91/95/91 92/96/92
f 95/98/94 99/104/100 100/103/99
f 99/104/100 95/98/94 94/99/95
f 92/96/92 100/103/99 98/102/98
f 100/103/99 92/96/92 95/98/94
f 30/30/30 101/105/101 35/35/35
f 101/105/101 30/30/30 97/101/97
f 97/101/97 102/106/102 101/105/101
f 102/106/102 97/101/97 98/102/98
f 100/103/99 103/108/104 104/107/103
f 103/108/104 100/103/99 99/104/100
f 98/102/98 104/107/103 102/106/102
f 104/107/103 98/102/98 100/103/99
f 35/35/35 105/109/105 40/40/40
f 105/109/105 35/35/35 101/105/101
f 101/105/101 106/110/106 105/109/105
f 106/110/106 101/105/101 102/106/102
f 104/107/103 107/112/108 108/111/107
f 107/112/108 104/107/103 103/108/104
f 102/106/102 108/111/107 106/110/106
f 108/111/107 102/106/102 104/107/103
f 40/40/40 109/113/109 45/45/45
f 109/113/109 40/40/40 105/109/105
f 105/109/105 110/114/110 109/113/109
f 110/114/110 105/109/105 106/110/106
f 108/111/107 111/116/112 112/115/111
f 111/116/112 108/111/107 107/112/108
f 106/110/106 112/115/111 110/114/110
f 112/115/111 106/110/106 108/111/107
f 84/86/84 113/117/113 82/85/83
f 113/117/113 84/86/84 114/118/114
f 90/92/90 114/118/114 84/86/84
f 84/86/84 79/79/79 90/92/90
f 89/91/89 9/9/9 86/87/85
f 9/9/9 89/91/89 21/21/21
f 85/88/86 83/84/82 86/87/85
f 83/84/82 85/88/86 81/83/81
f 93/97/93 83/84/82 82/85/83
f 83/84/82 93/97/93 88/90/88
f 96/100/96 82/85/83 113/117/113
f 82/85/83 96/100/96 93/97/93
f 114/118/114 115/120/116 116/119/115
f 115/120/116 114/118/114 90/92/90
f 90/92/90 53/121/53 115/120/116
f 53/121/53 90/92/90 19/93/19
f 94/99/95 117/123/118 118/122/117
f 117/123/118 94/99/95 96/100/96
f 99/104/100 118/122/117 119/124/119
f 118/122/117 99/104/100 94/99/95
f 103/108/104 119/124/119 120/125/120
f 119/124/119 103/108/104 99/104/100
f 107/112/108 120/125/120 121/126/121
f 120/125/120 107/112/108 103/108/104
f 122/127/122 107/112/108 121/126/121
f 107/112/108 122/127/122 111/116/112
f 45/45/45 123/128/123 61/61/61
f 123/128/123 45/45/45 109/113/109
f 109/113/109 124/129/124 123/128/123
f 124/129/124 109/113/109 110/114/110
f 112/115/111 122/127/122 125/130/125
f 122/127/122 112/115/111 111/116/112
f 112/115/111 124/129/124 110/114/110
f 124/129/124 112/115/111 125/130/125
f 113/117/113 116/119/115 126/131/126
f 116/119/115 113/117/113 114/118/114
f 96/100/96 126/131/126 117/123/118
f 126/131/126 96/100/96 113/117/113
f 116/119/115 127/133/128 128/132/127
f 127/133/128 116/119/115 115/120/116
f 115/120/116 67/134/67 127/133/128
f 67/134/67 115/120/116 53/121/53
f 118/122/117 129/136/130 130/135/129
f 129/136/130 118/122/117 117/123/118
f 119/124/119 130/135/129 131/137/131
f 130/135/129 119/124/119 118/122/117
f 120/125/120 131/137/131 132/138/132
f 131/137/131 120/125/120 119/124/119
f 121/126/121 132/138/132 133/139/133
f 132/138/132 121/126/121 120/125/120
f 121/126/121 134/140/134 122/127/122
f 134/140/134 121/126/121 133/139/133
f 61/61/61 135/141/135 75/75/75
f 135/141/135 61/61/61 123/128/123
f 135/141/135 124/129/124 136/142/136
f 124/129/124 135/141/135 123/128/123
f 125/130/125 134/140/134 137/143/137
f 134/140/134 125/130/125 122/127/122
f 124/129/124 137/143/137 136/142/136
f 137/143/137 124/129/124 125/130/125
f 126/131/126 128/132/127 138/144/138
f 128/132/127 126/131/126 116/119/115
f 117/123/118 138/144/138 129/136/130
f 138/144/138 117/123/118 126/131/126
f 20/20/20 87/89/87 14/14/14
f 87/89/87 20/20/20 80/82/80
f 18/94/18 79/79/79 4/80/4
