# Wavefront OBJ
# Created by fragMOTION 1.3.7
# http://www.fragmosoft.com

mtllib Bob_Hair_Cornrows.mtl
# 286 vertices
v -0.00591464 0.850671 0.0434779
v -0.00401557 0.844271 0.0393077
v -0.000354707 0.847697 0.042673
v -0.0100845 0.844592 0.0401101
v -0.00380659 0.952295 -0.0916441
v 0.00394868 0.955774 -0.0828359
v 0.00444062 0.946947 -0.0909118
v -0.00486796 0.960266 -0.0843211
v -0.00907798 0.944298 -0.0882901
v -0.0104516 0.952268 -0.0792884
v 0.00284495 0.972917 -0.0568269
v -0.00606808 0.977194 -0.0585891
v -0.012711 0.969376 -0.0561908
v 0.00228894 0.979665 -0.0206689
v -0.00602066 0.984722 -0.0212886
v -0.0131301 0.97716 -0.0214498
v 0.00319936 0.96368 0.0115466
v -0.00555961 0.966782 0.0131803
v -0.0113534 0.962036 0.0071783
v 0.00392383 0.918768 0.0318515
v -0.00478698 0.920276 0.0359819
v -0.0108998 0.917634 0.0283026
v 0.00394208 0.878844 0.0266178
v -0.00528491 0.878875 0.0301997
v -0.00199491 0.879483 0.0219061
v -0.00167445 0.918258 0.0266851
v -0.00861981 0.874442 0.0215086
v 0.00161076 0.855957 0.03373
v -0.00520035 0.857729 0.0364244
v -0.00274859 0.853689 0.0295311
v -0.0092452 0.853556 0.0305467
v -0.00240673 0.943567 -0.0908872
v -0.00122921 0.942898 -0.0867963
v -0.0383849 0.848685 0.0256631
v -0.0342616 0.841772 0.0253368
v -0.0338321 0.846801 0.0282654
v -0.038996 0.841011 0.0225808
v -0.0350928 0.941004 -0.0788992
v -0.0284619 0.948567 -0.0705528
v -0.0256515 0.941267 -0.0801807
v -0.0375908 0.947533 -0.0707436
v -0.0370714 0.934045 -0.074919
v -0.0401232 0.940661 -0.0656203
v -0.0338686 0.958984 -0.0547528
v -0.0406551 0.956026 -0.0533694
v -0.0424706 0.94792 -0.0504191
v -0.0348144 0.964708 -0.0224003
v -0.041816 0.962917 -0.0180633
v -0.0432593 0.954613 -0.0163526
v -0.0338829 0.958438 -0.00438315
v -0.0421571 0.958878 -0.00863275
v -0.0416825 0.936392 0.00657569
v -0.0329619 0.936961 0.0104305
v -0.0409407 0.932763 -0.00107752
v -0.0415019 0.913199 0.0176672
v -0.0261312 0.868121 0.0142997
v -0.0347503 0.915915 0.0206386
v -0.030663 0.864574 0.0121089
v -0.0246937 0.864077 0.00710836
v -0.0356523 0.911857 0.0128396
v -0.0301394 0.861441 0.00461866
v -0.0412307 0.909027 0.00856365
v -0.0260511 0.852101 0.0194703
v -0.0326168 0.852527 0.0178065
v -0.0259679 0.848028 0.0152068
v -0.0313711 0.846885 0.0126837
v -0.0303928 0.936333 -0.0792087
v -0.0280963 0.936318 -0.0753857
v -0.0216387 0.845681 0.0383541
v -0.0183198 0.838876 0.035798
v -0.0156848 0.843213 0.0388068
v -0.0244939 0.838685 0.0357661
v -0.0202776 0.950526 -0.0871365
v -0.0125646 0.952609 -0.0776104
v -0.0116136 0.94484 -0.086759
v -0.0221442 0.957654 -0.0798509
v -0.0247944 0.941639 -0.082155
v -0.0265828 0.948253 -0.0746341
v -0.0156097 0.968197 -0.0557098
v -0.0250672 0.970127 -0.0572079
v -0.0300523 0.96064 -0.0546061
v -0.017445 0.975227 -0.0245828
v -0.0263727 0.978933 -0.0269484
v -0.0310023 0.969248 -0.0265718
v -0.0153315 0.961944 0.00602992
v -0.0242234 0.965527 0.00848431
v -0.0287572 0.960244 0.00203016
v -0.014803 0.917556 0.0267844
v -0.0236627 0.919046 0.0312627
v -0.0296001 0.91648 0.0226438
v -0.0109157 0.873326 0.0205134
v -0.0185117 0.870959 0.0229373
v -0.0162725 0.870787 0.0152398
v -0.0204191 0.917115 0.0219646
v -0.0239847 0.869214 0.0158717
v -0.0131169 0.849799 0.0286819
v -0.0194274 0.851207 0.0302611
v -0.0163868 0.846477 0.024533
v -0.0229366 0.845877 0.0247518
v -0.0175968 0.941133 -0.0860633
v -0.016129 0.941532 -0.0823016
v -0.0449031 0.856821 0.0101495
v -0.0397655 0.853142 0.010605
v -0.0410726 0.856542 0.0135396
v -0.0431075 0.851356 0.00750225
v -0.0497219 0.93064 -0.0592578
v -0.0467527 0.942334 -0.0480177
v -0.0427256 0.934779 -0.0631265
v -0.053423 0.936304 -0.0447809
v -0.043621 0.921745 -0.0545321
v -0.047941 0.927691 -0.0432631
v -0.044931 0.946164 -0.0257486
v -0.0518762 0.939207 -0.0274962
v -0.04641 0.930789 -0.0280319
v -0.0440202 0.934309 -0.0086261
v -0.0510027 0.929594 -0.0123354
v -0.0459324 0.923106 -0.0174153
v -0.044922 0.905 0.00290212
v -0.0504538 0.903145 -0.00385465
v -0.0475895 0.89991 -0.00962741
v -0.0398391 0.886449 0.00260178
v -0.0463295 0.883879 -0.000819866
v -0.0400514 0.885992 -0.0053386
v -0.0429197 0.90284 -0.00151604
v -0.0420288 0.882277 -0.00773326
v -0.0368138 0.863618 0.00827989
v -0.0414915 0.862711 0.00601067
v -0.0356218 0.860967 0.00427586
v -0.0391678 0.858742 0.00115975
v -0.0424389 0.928843 -0.0606858
v -0.0531403 0.914249 -0.0431525
v -0.0477476 0.92275 -0.0341833
v -0.0477017 0.917774 -0.0464482
v -0.0534262 0.91739 -0.0323381
v -0.0479452 0.906673 -0.0391282
v -0.0487604 0.910279 -0.030134
v -0.045746 0.921 -0.0186746
v -0.0507018 0.916037 -0.019922
v -0.046801 0.910029 -0.020304
v -0.0459965 0.908966 -0.00431986
v -0.0490192 0.906925 -0.00592499
v -0.0468237 0.904116 -0.00812418
v -0.0462258 0.912718 -0.0443666
v 0.0151873 0.850663 0.0435307
v 0.0133044 0.844264 0.0393511
v 0.0193694 0.844581 0.0401838
v 0.00962927 0.847694 0.042698
v 0.0138314 0.952289 -0.0915999
v 0.00621467 0.955773 -0.0828302
v 0.014862 0.960258 -0.0842717
v 0.00557661 0.946947 -0.090909
v 0.0190799 0.944288 -0.0882197
v 0.0204144 0.952256 -0.0792112
v 0.00722093 0.972915 -0.056816
v 0.0161459 0.977185 -0.0585335
v 0.0227719 0.969363 -0.056102
v 0.00721893 0.979663 -0.0206565
v 0.0155353 0.984714 -0.0212346
v 0.0226388 0.977147 -0.0213602
v 0.00631735 0.963679 0.0115544
v 0.0150703 0.966774 0.013232
v 0.0208905 0.962024 0.00725902
v 0.00545782 0.918768 0.0318553
v 0.014149 0.920269 0.0360293
v 0.0202981 0.917623 0.0283808
v 0.00543608 0.878843 0.0266216
v 0.014645 0.878868 0.0302496
v 0.0113971 0.879478 0.0219397
v 0.0110815 0.918254 0.026717
v 0.0180201 0.874432 0.0215753
v 0.00771474 0.855955 0.0337452
v 0.0145136 0.857722 0.0364738
v 0.0120934 0.853684 0.0295683
v 0.0185847 0.853546 0.0306164
v 0.0124212 0.943562 -0.09085
v 0.0112228 0.942893 -0.0867651
v 0.0477449 0.848653 0.0258788
v 0.0436182 0.841743 0.0255318
v 0.0483657 0.840978 0.0227995
v 0.0431777 0.846773 0.0284582
v 0.045045 0.940974 -0.0786986
v 0.038378 0.948542 -0.0703855
v 0.047507 0.947502 -0.0705305
v 0.0356104 0.941244 -0.0800273
v 0.0469984 0.934014 -0.0747085
v 0.0500086 0.940628 -0.0653947
v 0.0437132 0.958955 -0.0545586
v 0.0504906 0.955992 -0.0531412
v 0.0522852 0.947885 -0.0501819
v 0.0445014 0.964679 -0.0222017
v 0.0513208 0.962883 -0.0178301
v 0.0529084 0.954577 -0.0161119
v 0.0434749 0.958409 -0.00418947
v 0.0517707 0.958843 -0.00839759
v 0.0512032 0.936357 0.00680825
v 0.0424639 0.936933 0.0106193
v 0.050497 0.932729 -0.000848593
v 0.0509498 0.913165 0.0178987
v 0.0355626 0.868098 0.0144541
v 0.0401028 0.864547 0.0122861
v 0.0441855 0.915886 0.0208362
v 0.0341582 0.864055 0.0072557
v 0.0451235 0.911827 0.0130419
v 0.0396144 0.861415 0.0047933
v 0.0507211 0.908992 0.00879387
v 0.0354447 0.852078 0.0196243
v 0.042019 0.852499 0.0179934
v 0.0353799 0.848005 0.0153604
v 0.0407947 0.846858 0.0128644
v 0.040343 0.936307 -0.0790316
v 0.0380275 0.936293 -0.0752202
v 0.0309331 0.845662 0.0384857
v 0.027622 0.838859 0.035913
v 0.033796 0.838663 0.0359121
v 0.0249751 0.843198 0.0389086
v 0.0302783 0.950507 -0.0870099
v 0.0225193 0.952596 -0.0775226
v 0.0321137 0.957634 -0.079715
v 0.0216083 0.944827 -0.0866759
v 0.0347634 0.941617 -0.0820059
v 0.0365191 0.94823 -0.0744761
v 0.0254662 0.968181 -0.055607
v 0.0349326 0.970105 -0.0570577
v 0.0398975 0.960614 -0.0544309
v 0.0271509 0.975211 -0.0244711
v 0.0360931 0.97891 -0.026792
v 0.0407135 0.969222 -0.0263922
v 0.0248743 0.961929 0.00613058
v 0.0337564 0.965506 0.00862947
v 0.0383186 0.960219 0.00219809
v 0.0242089 0.917542 0.0268821
v 0.0330471 0.919025 0.0314046
v 0.0390257 0.916455 0.0228156
v 0.0203202 0.873315 0.0205916
v 0.0279022 0.870941 0.0230535
v 0.0257014 0.870772 0.0153449
v 0.0298487 0.917096 0.0220905
v 0.0334091 0.869193 0.0160154
v 0.022463 0.849786 0.028771
v 0.0287665 0.85119 0.0303817
v 0.0257511 0.846462 0.0246385
v 0.0322992 0.845857 0.0248901
v 0.0275851 0.941117 -0.0859502
v 0.0260989 0.941517 -0.0821959
v 0.0543467 0.856785 0.010398
v 0.0492042 0.853109 0.0108277
v 0.0525603 0.85132 0.00774177
v 0.0504991 0.856508 0.0137688
v 0.0595678 0.930599 -0.0589841
v 0.0565511 0.942296 -0.047759
v 0.0632006 0.936261 -0.0444889
v 0.0525941 0.934743 -0.0628878
v 0.0534367 0.921709 -0.0542891
v 0.0577047 0.927652 -0.0429986
v 0.0546208 0.946127 -0.0254993
v 0.0615695 0.939165 -0.0272122
v 0.0560997 0.930751 -0.0277752
v 0.0536155 0.934272 -0.00838165
v 0.060613 0.929553 -0.0120559
v 0.0555633 0.923068 -0.0171612
v 0.0544377 0.904963 0.00315088
v 0.0600019 0.903104 -0.00357811
v 0.0571642 0.899871 -0.00936514
v 0.0493426 0.886415 0.00282506
v 0.0558482 0.883841 -0.000564046
v 0.0495943 0.885959 -0.00511417
v 0.052456 0.902805 -0.00127725
v 0.0515809 0.882242 -0.00749889
v 0.0462719 0.863587 0.00848791
v 0.0509602 0.862677 0.00624213
v 0.045098 0.860937 0.00447795
v 0.0486579 0.85871 0.00137964
v 0.0522908 0.928808 -0.0604487
v 0.0628934 0.914206 -0.042862
v 0.0574621 0.92271 -0.0339199
v 0.0631275 0.917347 -0.0320463
v 0.057474 0.917735 -0.0461849
v 0.0576725 0.906634 -0.0388638
v 0.0584453 0.910239 -0.0298656
v 0.0553817 0.920963 -0.0184214
v 0.0603399 0.915996 -0.019644
v 0.0564367 0.909991 -0.0200456
v 0.0555513 0.908928 -0.00406562
v 0.0585805 0.906885 -0.0056556
v 0.056394 0.904078 -0.00786575
v 0.0559839 0.91268 -0.0441107
# 132 texture vertices
vt 0.186118 -0.951543
vt 0.167374 -0.96163
vt 0.186284 -0.977535
vt 0.208865 -0.967919
vt 0.200302 -0.066439
vt 0.178475 -0.038626
vt 0.158399 -0.084958
vt 0.194838 -0.10161
vt 0.233522 -0.051723
vt 0.235788 -0.102801
vt 0.137564 -0.204884
vt 0.174795 -0.210602
vt 0.214062 -0.213862
vt 0.121823 -0.347983
vt 0.157351 -0.346315
vt 0.194723 -0.352882
vt 0.118622 -0.489454
vt 0.153321 -0.485247
vt 0.188615 -0.482102
vt 0.12923 -0.679732
vt 0.164213 -0.673114
vt 0.200968 -0.674061
vt 0.149338 -0.829791
vt 0.186967 -0.827713
vt 0.224331 -0.83832
vt 0.15928 -0.915482
vt 0.188228 -0.914522
vt 0.219452 -0.919662
vt 0.208451 -0.038607
vt 0.210977 -0.024882
vt 0.437488 -0.912019
vt 0.419999 -0.919498
vt 0.43871 -0.940277
vt 0.462267 -0.93076
vt 0.456243 -0.132944
vt 0.425945 -0.109848
vt 0.415976 -0.165737
vt 0.453554 -0.173401
vt 0.487622 -0.124365
vt 0.49082 -0.178165
vt 0.422105 -0.250788
vt 0.453621 -0.252869
vt 0.490897 -0.251687
vt 0.422045 -0.325508
vt 0.449567 -0.351592
vt 0.47929 -0.371269
vt 0.41282 -0.409386
vt 0.446488 -0.390276
vt 0.407257 -0.497517
vt 0.447268 -0.490746
vt 0.48324 -0.487937
vt 0.453049 -0.595746
vt 0.421014 -0.59797
vt 0.422243 -0.801457
vt 0.446072 -0.80842
vt 0.494455 -0.59717
vt 0.480014 -0.808682
vt 0.417438 -0.865183
vt 0.446276 -0.869622
vt 0.47935 -0.880723
vt 0.4794 -0.875325
vt 0.455576 -0.109617
vt 0.457524 -0.093366
vt 0.328906 -0.930444
vt 0.309561 -0.939655
vt 0.327265 -0.956554
vt 0.350541 -0.947276
vt 0.330828 -0.072161
vt 0.315028 -0.038543
vt 0.288748 -0.083477
vt 0.324223 -0.104137
vt 0.369141 -0.062267
vt 0.367501 -0.107746
vt 0.26925 -0.188033
vt 0.30562 -0.195596
vt 0.347416 -0.200672
vt 0.247664 -0.311996
vt 0.283514 -0.306898
vt 0.322221 -0.314672
vt 0.238688 -0.44573
vt 0.274833 -0.441648
vt 0.308967 -0.436064
vt 0.258407 -0.637425
vt 0.293572 -0.627887
vt 0.33283 -0.626084
vt 0.291308 -0.804635
vt 0.322528 -0.809291
vt 0.357254 -0.808108
vt 0.303631 -0.893176
vt 0.329511 -0.892931
vt 0.361582 -0.898602
vt 0.343108 -0.042721
vt 0.347186 -0.030897
vt 0.571688 -0.796655
vt 0.553973 -0.802482
vt 0.567264 -0.819045
vt 0.588353 -0.813715
vt 0.567976 -0.327888
vt 0.537511 -0.310251
vt 0.538255 -0.386542
vt 0.577302 -0.388324
vt 0.612097 -0.312618
vt 0.616896 -0.374011
vt 0.531135 -0.458309
vt 0.572675 -0.45236
vt 0.614782 -0.455185
vt 0.535807 -0.510622
vt 0.573927 -0.513055
vt 0.613484 -0.519873
vt 0.541467 -0.587567
vt 0.577682 -0.585696
vt 0.60582 -0.594186
vt 0.550401 -0.666397
vt 0.582233 -0.667774
vt 0.616337 -0.671061
vt 0.553852 -0.761967
vt 0.576515 -0.764158
vt 0.603589 -0.773244
vt 0.56884 -0.299484
vt 0.688147 -0.436651
vt 0.660079 -0.421652
vt 0.654929 -0.513308
vt 0.692847 -0.512115
vt 0.732276 -0.427142
vt 0.734307 -0.512334
vt 0.662911 -0.58789
vt 0.697833 -0.584643
vt 0.732187 -0.592639
vt 0.68417 -0.661371
vt 0.703292 -0.66112
vt 0.723256 -0.663379
vt 0.691005 -0.406437
# 286 normals
vn -0.279873 0.277865 0.918946
vn 0.693201 -0.310022 0.65066
vn 0.261917 -0.965082 0.00397269
vn -0.726179 -0.649215 0.226238
vn -0.210241 0.408722 -0.888113
vn 0.384517 0.0768712 -0.919912
vn 0.453835 0.684726 -0.570248
vn -0.268923 0.733752 -0.62393
vn -0.69848 -0.106497 -0.707661
vn -0.844925 0.376422 -0.380011
vn 0.461272 0.82669 -0.322199
vn -0.20036 0.902666 -0.380854
vn -0.766429 0.569587 -0.296914
vn 0.502411 0.854032 0.134951
vn -0.130014 0.985506 0.10897
vn -0.732616 0.672909 0.102303
vn 0.358024 0.624144 0.694452
vn -0.239631 0.67182 0.700881
vn -0.796841 0.409706 0.444056
vn 0.774324 0.18019 0.606592
vn -0.201238 0.172923 0.964158
vn -0.972229 0.150705 0.17905
vn 0.998378 -0.0457333 0.0339195
vn -0.427112 0.0185222 0.904009
vn 0.310659 0.123977 -0.942402
vn 0.33946 -0.0427752 -0.939647
vn -0.670779 -0.235894 -0.703143
vn 0.991811 -0.052433 0.116452
vn -0.338551 0.509053 0.791358
vn 0.319217 -0.5093 -0.799195
vn -0.836089 -0.260116 -0.483005
vn -0.0215651 -0.697 -0.716747
vn 0.157576 -0.966299 -0.203557
vn -0.760882 0.490639 0.424655
vn 0.163134 0.0874544 0.98272
vn 0.22476 -0.820854 0.525054
vn -0.705232 -0.707084 -0.0517661
vn -0.531266 0.253797 -0.808297
vn 0.0888774 0.264673 -0.960234
vn -0.0849209 0.793562 -0.602535
vn -0.629118 0.557041 -0.54214
vn -0.750255 -0.301757 -0.588269
vn -0.947824 0.121412 -0.294769
vn -0.385472 0.852549 -0.352947
vn -0.771099 0.582237 -0.257695
vn -0.976362 0.164746 -0.139912
vn -0.264452 0.964237 -0.017645
vn -0.654202 0.748418 0.109036
vn -0.993009 0.110443 0.0416633
vn -0.288242 0.695836 0.657821
vn -0.714723 0.559551 0.41961
vn -0.382508 0.468795 0.79619
vn -0.842664 0.275425 0.462665
vn -0.997732 -0.0388484 -0.0549677
vn -0.809183 -0.0109182 0.587455
vn -0.132886 0.263497 0.955464
vn 0.568117 0.0749521 0.819527
vn -0.886403 0.0205825 0.462457
vn 0.834058 0.240298 -0.496592
vn 0.853539 -0.0115784 -0.5209
vn -0.877271 -0.0501843 -0.477364
vn -0.353712 -0.23685 -0.90487
vn 0.735099 0.223865 0.639932
vn -0.78178 0.587137 0.209978
vn 0.807083 -0.546059 -0.224582
vn -0.289486 -0.588301 -0.755049
vn 0.11833 -0.663379 -0.738868
vn 0.454731 -0.846647 -0.276421
vn -0.451281 0.410787 0.792212
vn 0.610638 -0.104863 0.784936
vn 0.344651 -0.911174 0.225784
vn -0.689216 -0.678819 0.25335
vn -0.247326 0.41164 -0.877145
vn 0.404928 0.0876655 -0.910136
vn 0.489079 0.71102 -0.505225
vn -0.319913 0.722069 -0.613411
vn -0.771605 -0.181047 -0.609793
vn -0.903188 0.251343 -0.347964
vn 0.271282 0.903765 -0.331083
vn -0.404479 0.83552 -0.37189
vn -0.880771 0.387768 -0.271805
vn 0.33636 0.934074 0.119865
vn -0.329685 0.943944 0.0166856
vn -0.89994 0.434888 0.0313075
vn 0.422916 0.654864 0.626334
vn -0.258571 0.710252 0.654739
vn -0.874345 0.357505 0.328194
vn 0.785672 0.225907 0.575922
vn -0.237628 0.151336 0.959495
vn -0.984271 0.0914058 0.151178
vn 0.993579 0.0287129 0.109434
vn -0.319411 0.0894252 0.943387
vn 0.303518 0.161432 -0.939051
vn 0.348779 -0.0888187 -0.932987
vn -0.838598 -0.123733 -0.530512
vn 0.973436 0.0260456 0.227472
vn -0.408678 0.585905 0.699784
vn 0.469961 -0.572985 -0.671435
vn -0.729841 -0.407978 -0.54853
vn -0.00665787 -0.783749 -0.621042
vn 0.26818 -0.963366 -0.00245035
vn -0.951568 0.0697688 0.299416
vn -0.00760243 -0.045114 0.998953
vn 0.454996 -0.766917 0.452567
vn -0.372561 -0.907335 -0.194787
vn -0.79829 -0.140244 -0.585718
vn -0.564115 0.206294 -0.799511
vn -0.700645 0.659104 -0.273273
vn -0.988786 0.116459 -0.0934851
vn -0.722953 -0.631184 -0.280973
vn -0.843037 -0.534903 0.0562759
vn -0.716172 0.666348 0.207552
vn -0.966274 0.224684 0.125821
vn -0.845837 -0.529471 -0.0649637
vn -0.650381 0.4861 0.583705
vn -0.96001 0.14807 0.237604
vn -0.85041 -0.299703 -0.432413
vn -0.492256 0.053111 0.868829
vn -0.979995 -0.0811803 0.181713
vn -0.636812 -0.110681 -0.763034
vn 0.519066 0.278956 0.807932
vn -0.947038 -0.164983 0.275497
vn 0.989238 0.133106 0.0607547
vn 0.848459 0.196146 -0.491573
vn 0.000408983 -0.271748 -0.962368
vn 0.541246 0.301666 0.784889
vn -0.940685 0.256836 0.221691
vn 0.955431 -0.23111 -0.183682
vn -0.0282187 -0.49577 -0.867995
vn -0.283353 -0.496723 -0.820352
vn -0.853867 -0.0862297 -0.513299
vn -0.613194 0.243395 -0.7515
vn -0.680964 0.730523 -0.0512147
vn -0.978682 0.191947 0.0730645
vn -0.75929 -0.622571 -0.189429
vn -0.843139 -0.520858 0.133503
vn -0.69513 0.638181 0.330936
vn -0.960491 0.140244 0.240394
vn -0.840924 -0.536898 -0.0677289
vn -0.659359 0.589852 0.466177
vn -0.97883 0.105425 0.175437
vn -0.846433 -0.478404 -0.23384
vn -0.25788 -0.518153 -0.815484
vn 0.275475 0.277658 0.920337
vn 0.724554 -0.649755 0.22987
vn -0.262651 -0.964887 0.00265957
vn -0.696681 -0.309506 0.647181
vn 0.213245 0.410103 -0.88676
vn 0.267648 0.733841 -0.624374
vn -0.456491 0.683807 -0.569232
vn -0.381052 0.0761584 -0.921412
vn 0.701934 -0.107018 -0.704156
vn 0.846776 0.374357 -0.377925
vn 0.205918 0.902003 -0.379458
vn -0.45975 0.826495 -0.324864
vn 0.768486 0.569213 -0.292278
vn 0.127478 0.985728 0.109953
vn -0.502544 0.854436 0.131864
vn 0.732326 0.672386 0.107684
vn 0.237446 0.671792 0.701651
vn -0.360949 0.624178 0.692905
vn 0.794836 0.410872 0.446565
vn 0.196536 0.172775 0.965154
vn -0.777217 0.180767 0.602708
vn 0.971432 0.149982 0.183915
vn 0.422595 0.0182062 0.906136
vn -0.998569 -0.0449907 0.0289206
vn -0.334783 -0.0425245 -0.941335
vn -0.305845 0.124206 -0.943945
vn 0.674115 -0.236394 -0.699776
vn 0.334963 0.508803 0.793044
vn -0.992421 -0.0516951 0.111485
vn -0.315591 -0.509064 -0.800785
vn 0.838304 -0.260738 -0.478814
vn 0.0246348 -0.697017 -0.716631
vn -0.157273 -0.966182 -0.204345
vn 0.759111 0.490074 0.42846
vn 0.704957 -0.707608 -0.0482361
vn -0.227996 -0.820685 0.523921
vn -0.167987 0.0875776 0.981891
vn 0.535495 0.2534 -0.805626
vn 0.632238 0.556572 -0.538983
vn 0.0885266 0.793497 -0.602101
vn -0.083872 0.264737 -0.960666
vn 0.752966 -0.302316 -0.584507
vn 0.949378 0.120707 -0.29002
vn 0.773289 0.581543 -0.25265
vn 0.387868 0.852261 -0.351012
vn 0.977057 0.165967 -0.133469
vn 0.648019 0.753513 0.11086
vn 0.270612 0.962541 -0.0168649
vn 0.991732 0.121034 0.0426519
vn 0.713478 0.560849 0.419996
vn 0.285706 0.69575 0.659018
vn 0.840542 0.274799 0.466878
vn 0.378866 0.468512 0.798096
vn 0.997966 -0.0395906 -0.0499719
vn 0.806224 -0.0115189 0.591499
vn 0.884091 0.019924 0.466889
vn -0.572157 0.0753762 0.816673
vn 0.128297 0.2634 0.956117
vn -0.850929 -0.0109445 -0.525167
vn -0.831383 0.240917 -0.500761
vn 0.358062 -0.237116 -0.903088
vn 0.879613 -0.0508376 -0.472966
vn 0.781155 0.586556 0.21389
vn -0.738127 0.224413 0.636245
vn -0.806354 -0.545458 -0.228621
vn 0.292825 -0.588518 -0.753591
vn -0.115123 -0.663292 -0.739452
vn -0.453971 -0.846309 -0.278696
vn 0.447614 0.410452 0.794462
vn 0.687434 -0.679331 0.256795
vn -0.346455 -0.910917 0.224054
vn -0.614638 -0.104407 0.781869
vn 0.25202 0.411454 -0.875895
vn 0.323517 0.721829 -0.6118
vn -0.486015 0.711383 -0.507666
vn -0.400301 0.0879649 -0.912152
vn 0.774514 -0.181622 -0.605923
vn 0.905105 0.25067 -0.343438
vn 0.406958 0.835218 -0.369859
vn -0.268948 0.903965 -0.332435
vn 0.882409 0.387113 -0.267391
vn 0.330299 0.943698 0.0183377
vn -0.336261 0.934324 0.118181
vn 0.900095 0.434218 0.0358135
vn 0.255818 0.710061 0.656027
vn -0.425558 0.65518 0.62421
vn 0.872957 0.356855 0.332567
vn 0.232934 0.151161 0.960673
vn -0.788377 0.226493 0.571981
vn 0.98357 0.090674 0.156104
vn 0.314751 0.0891893 0.944975
vn -0.994093 0.0294521 0.104458
vn -0.34417 -0.088561 -0.934721
vn -0.298693 0.161656 -0.940559
vn 0.841152 -0.124358 -0.526307
vn 0.405605 0.585603 0.701822
vn -0.974543 0.0267702 0.222596
vn -0.46702 -0.572636 -0.67378
vn 0.732274 -0.408522 -0.544871
vn 0.00918408 -0.783755 -0.621002
vn -0.268881 -0.963166 -0.00379475
vn 0.950109 0.0690615 0.304176
vn 0.372856 -0.907612 -0.192921
vn -0.457827 -0.766577 0.450282
vn 0.00256754 -0.0451177 0.998979
vn 0.801107 -0.140839 -0.581714
vn 0.989328 0.115723 -0.0885334
vn 0.702494 0.658583 -0.26976
vn 0.568264 0.205873 -0.796676
vn 0.723881 -0.631722 -0.277352
vn 0.842347 -0.53553 0.0604948
vn 0.965799 0.223965 0.130658
vn 0.715619 0.665816 0.211136
vn 0.845757 -0.5301 -0.0607292
vn 0.958918 0.147356 0.242408
vn 0.647812 0.485617 0.586955
vn 0.852341 -0.300337 -0.428151
vn 0.979012 -0.0819088 0.186617
vn 0.487939 0.0527465 0.871283
vn 0.640542 -0.111156 -0.759836
vn 0.945524 -0.165686 0.280235
vn -0.522897 0.279344 0.805324
vn -0.845841 0.196776 -0.495815
vn -0.98943 0.133842 0.0558016
vn 0.00420697 -0.27175 -0.962359
vn 0.939754 0.256136 0.226398
vn -0.544944 0.30207 0.78217
vn -0.954671 -0.2304 -0.188464
vn 0.0321951 -0.495793 -0.867844
vn 0.287087 -0.496935 -0.818924
vn 0.856361 -0.0868657 -0.509018
vn 0.978446 0.19122 0.0779637
vn 0.681755 0.730017 -0.0478034
vn 0.61713 0.242938 -0.74842
vn 0.759766 -0.623136 -0.185627
vn 0.842073 -0.521485 0.137721
vn 0.959379 0.13953 0.2452
vn 0.693939 0.637665 0.334413
vn 0.840853 -0.537524 -0.063519
vn 0.978017 0.104697 0.180335
vn 0.657455 0.589362 0.469473
vn 0.847237 -0.479034 -0.229601
vn 0.261574 -0.518347 -0.814184
usemtl _19_-_Defaultaa
g Bob_Hair_Cornrows
s off
f 1/1/1 2/3/3 3/2/2
f 2/3/3 1/1/1 4/4/4
f 5/5/5 6/7/7 7/6/6
f 6/7/7 5/5/5 8/8/8
f 9/9/9 8/8/8 5/5/5
f 8/8/8 9/9/9 10/10/10
f 8/8/8 11/11/11 6/7/7
f 11/11/11 8/8/8 12/12/12
f 10/10/10 12/12/12 8/8/8
f 12/12/12 10/10/10 13/13/13
f 12/12/12 14/14/14 11/11/11
f 14/14/14 12/12/12 15/15/15
f 13/13/13 15/15/15 12/12/12
f 15/15/15 13/13/13 16/16/16
f 15/15/15 17/17/17 14/14/14
f 17/17/17 15/15/15 18/18/18
f 16/16/16 18/18/18 15/15/15
f 18/18/18 16/16/16 19/19/19
f 18/18/18 20/20/20 17/17/17
f 20/20/20 18/18/18 21/21/21
f 19/19/19 21/21/21 18/18/18
f 21/21/21 19/19/19 22/22/22
f 21/21/21 23/23/23 20/20/20
f 23/23/23 21/21/21 24/24/24
f 20/20/20 25/24/26 26/21/25
f 25/24/26 20/20/20 23/23/23
f 26/21/25 27/25/27 22/22/22
f 27/25/27 26/21/25 25/24/26
f 22/22/22 24/24/24 21/21/21
f 24/24/24 22/22/22 27/25/27
f 24/24/24 28/26/28 23/23/23
f 28/26/28 24/24/24 29/27/29
f 23/23/23 30/27/30 25/24/26
f 30/27/30 23/23/23 28/26/28
f 25/24/26 31/28/31 27/25/27
f 31/28/31 25/24/26 30/27/30
f 27/25/27 29/27/29 24/24/24
f 29/27/29 27/25/27 31/28/31
f 29/27/29 3/2/2 28/26/28
f 3/2/2 29/27/29 1/1/1
f 28/26/28 2/3/3 30/27/30
f 2/3/3 28/26/28 3/2/2
f 30/27/30 4/4/4 31/28/31
f 4/4/4 30/27/30 2/3/3
f 31/28/31 1/1/1 29/27/29
f 1/1/1 31/28/31 4/4/4
f 5/5/5 32/29/32 9/9/9
f 9/9/9 32/29/32 33/30/33
f 33/30/33 32/29/32 7/6/6
f 7/6/6 32/29/32 5/5/5
f 34/31/34 35/33/36 36/32/35
f 35/33/36 34/31/34 37/34/37
f 38/35/38 39/37/40 40/36/39
f 39/37/40 38/35/38 41/38/41
f 42/39/42 41/38/41 38/35/38
f 41/38/41 42/39/42 43/40/43
f 41/38/41 44/41/44 39/37/40
f 44/41/44 41/38/41 45/42/45
f 43/40/43 45/42/45 41/38/41
f 45/42/45 43/40/43 46/43/46
f 45/42/45 47/44/47 44/41/44
f 47/44/47 45/42/45 48/45/48
f 46/43/46 48/45/48 45/42/45
f 48/45/48 46/43/46 49/46/49
f 48/45/48 50/47/50 47/44/47
f 50/47/50 48/45/48 51/48/51
f 49/46/49 51/48/51 48/45/48
f 50/47/50 52/50/53 53/49/52
f 52/50/53 50/47/50 51/48/51
f 51/48/51 54/51/54 52/50/53
f 54/51/54 51/48/51 49/46/49
f 55/52/55 56/54/57 57/53/56
f 56/54/57 55/52/55 58/55/58
f 57/53/56 59/55/60 60/52/59
f 59/55/60 57/53/56 56/54/57
f 60/52/59 61/57/62 62/56/61
f 61/57/62 60/52/59 59/55/60
f 62/56/61 58/55/58 55/52/55
f 58/55/58 62/56/61 61/57/62
f 58/55/58 63/58/63 56/54/57
f 63/58/63 58/55/58 64/59/64
f 56/54/57 65/59/65 59/55/60
f 65/59/65 56/54/57 63/58/63
f 59/55/60 66/60/66 61/57/62
f 66/60/66 59/55/60 65/59/65
f 61/57/62 64/59/64 58/55/58
f 64/59/64 61/57/62 66/61/66
f 64/59/64 36/32/35 63/58/63
f 36/32/35 64/59/64 34/31/34
f 63/58/63 35/33/36 65/59/65
f 35/33/36 63/58/63 36/32/35
f 65/59/65 37/34/37 66/60/66
f 37/34/37 65/59/65 35/33/36
f 66/61/66 34/31/34 64/59/64
f 34/31/34 66/61/66 37/34/37
f 38/35/38 67/62/67 42/39/42
f 42/39/42 67/62/67 68/63/68
f 68/63/68 67/62/67 40/36/39
f 40/36/39 67/62/67 38/35/38
f 52/50/53 57/53/56 53/49/52
f 57/53/56 52/50/53 55/52/55
f 52/50/53 62/56/61 55/52/55
f 62/56/61 52/50/53 54/51/54
f 69/64/69 70/66/71 71/65/70
f 70/66/71 69/64/69 72/67/72
f 73/68/73 74/70/75 75/69/74
f 74/70/75 73/68/73 76/71/76
f 77/72/77 76/71/76 73/68/73
f 76/71/76 77/72/77 78/73/78
f 76/71/76 79/74/79 74/70/75
f 79/74/79 76/71/76 80/75/80
f 78/73/78 80/75/80 76/71/76
f 80/75/80 78/73/78 81/76/81
f 80/75/80 82/77/82 79/74/79
f 82/77/82 80/75/80 83/78/83
f 83/78/83 81/76/81 84/79/84
f 81/76/81 83/78/83 80/75/80
f 83/78/83 85/80/85 82/77/82
f 85/80/85 83/78/83 86/81/86
f 84/79/84 86/81/86 83/78/83
f 86/81/86 84/79/84 87/82/87
f 86/81/86 88/83/88 85/80/85
f 88/83/88 86/81/86 89/84/89
f 87/82/87 89/84/89 86/81/86
f 89/84/89 87/82/87 90/85/90
f 89/84/89 91/86/91 88/83/88
f 91/86/91 89/84/89 92/87/92
f 88/83/88 93/87/94 94/84/93
f 93/87/94 88/83/88 91/86/91
f 94/84/93 95/88/95 90/85/90
f 95/88/95 94/84/93 93/87/94
f 90/85/90 92/87/92 89/84/89
f 92/87/92 90/85/90 95/88/95
f 92/87/92 96/89/96 91/86/91
f 96/89/96 92/87/92 97/90/97
f 91/86/91 98/90/98 93/87/94
f 98/90/98 91/86/91 96/89/96
f 93/87/94 99/91/99 95/88/95
f 99/91/99 93/87/94 98/90/98
f 95/88/95 97/90/97 92/87/92
f 97/90/97 95/88/95 99/91/99
f 97/90/97 71/65/70 96/89/96
f 71/65/70 97/90/97 69/64/69
f 96/89/96 70/66/71 98/90/98
f 70/66/71 96/89/96 71/65/70
f 98/90/98 72/67/72 99/91/99
f 72/67/72 98/90/98 70/66/71
f 99/91/99 69/64/69 97/90/97
f 69/64/69 99/91/99 72/67/72
f 73/68/73 100/92/100 77/72/77
f 77/72/77 100/92/100 101/93/101
f 101/93/101 100/92/100 75/69/74
f 75/69/74 100/92/100 73/68/73
f 102/94/102 103/96/104 104/95/103
f 103/96/104 102/94/102 105/97/105
f 106/98/106 107/100/108 108/99/107
f 107/100/108 106/98/106 109/101/109
f 110/102/110 109/101/109 106/98/106
f 109/101/109 110/102/110 111/103/111
f 109/101/109 112/104/112 107/100/108
f 112/104/112 109/101/109 113/105/113
f 111/103/111 113/105/113 109/101/109
f 113/105/113 111/103/111 114/106/114
f 113/105/113 115/107/115 112/104/112
f 115/107/115 113/105/113 116/108/116
f 114/106/114 116/108/116 113/105/113
f 116/108/116 114/106/114 117/109/117
f 116/108/116 118/110/118 115/107/115
f 118/110/118 116/108/116 119/111/119
f 117/109/117 119/111/119 116/108/116
f 119/111/119 117/109/117 120/112/120
f 119/111/119 121/113/121 118/110/118
f 121/113/121 119/111/119 122/114/122
f 118/110/118 123/114/124 124/111/123
f 123/114/124 118/110/118 121/113/121
f 124/111/123 125/115/125 120/112/120
f 125/115/125 124/111/123 123/114/124
f 120/112/120 122/114/122 119/111/119
f 122/114/122 120/112/120 125/115/125
f 122/114/122 126/116/126 121/113/121
f 126/116/126 122/114/122 127/117/127
f 121/113/121 128/117/128 123/114/124
f 128/117/128 121/113/121 126/116/126
f 123/114/124 129/118/129 125/115/125
f 129/118/129 123/114/124 128/117/128
f 125/115/125 127/117/127 122/114/122
f 127/117/127 125/115/125 129/118/129
f 127/117/127 104/95/103 126/116/126
f 104/95/103 127/117/127 102/94/102
f 126/116/126 103/96/104 128/117/128
f 103/96/104 126/116/126 104/95/103
f 128/117/128 105/97/105 129/118/129
f 105/97/105 128/117/128 103/96/104
f 129/118/129 102/94/102 127/117/127
f 102/94/102 129/118/129 105/97/105
f 106/98/106 130/119/130 110/102/110
f 108/99/107 130/119/130 106/98/106
f 131/120/131 132/122/133 133/121/132
f 132/122/133 131/120/131 134/123/134
f 135/124/135 134/123/134 131/120/131
f 134/123/134 135/124/135 136/125/136
f 134/123/134 137/126/137 132/122/133
f 137/126/137 134/123/134 138/127/138
f 136/125/136 138/127/138 134/123/134
f 138/127/138 136/125/136 139/128/139
f 138/127/138 140/129/140 137/126/137
f 140/129/140 138/127/138 141/130/141
f 139/128/139 141/130/141 138/127/138
f 141/130/141 139/128/139 142/131/142
f 131/120/131 143/132/143 135/124/135
f 133/121/132 143/132/143 131/120/131
f 144/1/144 145/3/146 146/4/145
f 145/3/146 144/1/144 147/2/147
f 148/5/148 149/7/150 150/8/149
f 149/7/150 148/5/148 151/6/151
f 152/9/152 150/8/149 153/10/153
f 150/8/149 152/9/152 148/5/148
f 150/8/149 154/11/155 155/12/154
f 154/11/155 150/8/149 149/7/150
f 153/10/153 155/12/154 156/13/156
f 155/12/154 153/10/153 150/8/149
f 155/12/154 157/14/158 158/15/157
f 157/14/158 155/12/154 154/11/155
f 156/13/156 158/15/157 159/16/159
f 158/15/157 156/13/156 155/12/154
f 158/15/157 160/17/161 161/18/160
f 160/17/161 158/15/157 157/14/158
f 159/16/159 161/18/160 162/19/162
f 161/18/160 159/16/159 158/15/157
f 161/18/160 163/20/164 164/21/163
f 163/20/164 161/18/160 160/17/161
f 162/19/162 164/21/163 165/22/165
f 164/21/163 162/19/162 161/18/160
f 164/21/163 166/23/167 167/24/166
f 166/23/167 164/21/163 163/20/164
f 163/20/164 168/24/168 166/23/167
f 168/24/168 163/20/164 169/21/169
f 169/21/169 170/25/170 168/24/168
f 170/25/170 169/21/169 165/22/165
f 165/22/165 167/24/166 170/25/170
f 167/24/166 165/22/165 164/21/163
f 167/24/166 171/26/172 172/27/171
f 171/26/172 167/24/166 166/23/167
f 166/23/167 173/27/173 171/26/172
f 173/27/173 166/23/167 168/24/168
f 168/24/168 174/28/174 173/27/173
f 174/28/174 168/24/168 170/25/170
f 170/25/170 172/27/171 174/28/174
f 172/27/171 170/25/170 167/24/166
f 172/27/171 147/2/147 144/1/144
f 147/2/147 172/27/171 171/26/172
f 171/26/172 145/3/146 147/2/147
f 145/3/146 171/26/172 173/27/173
f 173/27/173 146/4/145 145/3/146
f 146/4/145 173/27/173 174/28/174
f 174/28/174 144/1/144 146/4/145
f 144/1/144 174/28/174 172/27/171
f 148/5/148 152/9/152 175/29/175
f 152/9/152 176/30/176 175/29/175
f 176/30/176 151/6/151 175/29/175
f 151/6/151 148/5/148 175/29/175
f 177/31/177 178/33/179 179/34/178
f 178/33/179 177/31/177 180/32/180
f 181/35/181 182/37/183 183/38/182
f 182/37/183 181/35/181 184/36/184
f 185/39/185 183/38/182 186/40/186
f 183/38/182 185/39/185 181/35/181
f 183/38/182 187/41/188 188/42/187
f 187/41/188 183/38/182 182/37/183
f 186/40/186 188/42/187 189/43/189
f 188/42/187 186/40/186 183/38/182
f 188/42/187 190/44/191 191/45/190
f 190/44/191 188/42/187 187/41/188
f 189/43/189 191/45/190 192/46/192
f 191/45/190 189/43/189 188/42/187
f 191/45/190 193/47/194 194/48/193
f 193/47/194 191/45/190 190/44/191
f 192/46/192 191/45/190 194/48/193
f 193/47/194 195/50/195 194/48/193
f 195/50/195 193/47/194 196/49/196
f 194/48/193 197/51/197 192/46/192
f 197/51/197 194/48/193 195/50/195
f 198/52/198 199/54/200 200/55/199
f 199/54/200 198/52/198 201/53/201
f 201/53/201 202/55/202 199/54/200
f 202/55/202 201/53/201 203/52/203
f 203/52/203 204/57/204 202/55/202
f 204/57/204 203/52/203 205/56/205
f 205/56/205 200/55/199 204/57/204
f 200/55/199 205/56/205 198/52/198
f 200/55/199 206/58/207 207/59/206
f 206/58/207 200/55/199 199/54/200
f 199/54/200 208/59/208 206/58/207
f 208/59/208 199/54/200 202/55/202
f 202/55/202 209/60/209 208/59/208
f 209/60/209 202/55/202 204/57/204
f 204/57/204 207/59/206 209/61/209
f 207/59/206 204/57/204 200/55/199
f 207/59/206 180/32/180 177/31/177
f 180/32/180 207/59/206 206/58/207
f 206/58/207 178/33/179 180/32/180
f 178/33/179 206/58/207 208/59/208
f 208/59/208 179/34/178 178/33/179
f 179/34/178 208/59/208 209/60/209
f 209/61/209 177/31/177 179/34/178
f 177/31/177 209/61/209 207/59/206
f 181/35/181 185/39/185 210/62/210
f 185/39/185 211/63/211 210/62/210
f 211/63/211 184/36/184 210/62/210
f 184/36/184 181/35/181 210/62/210
f 195/50/195 201/53/201 198/52/198
f 201/53/201 195/50/195 196/49/196
f 195/50/195 205/56/205 197/51/197
f 205/56/205 195/50/195 198/52/198
f 212/64/212 213/66/214 214/67/213
f 213/66/214 212/64/212 215/65/215
f 216/68/216 217/70/218 218/71/217
f 217/70/218 216/68/216 219/69/219
f 220/72/220 218/71/217 221/73/221
f 218/71/217 220/72/220 216/68/216
f 218/71/217 222/74/223 223/75/222
f 222/74/223 218/71/217 217/70/218
f 221/73/221 223/75/222 224/76/224
f 223/75/222 221/73/221 218/71/217
f 223/75/222 225/77/226 226/78/225
f 225/77/226 223/75/222 222/74/223
f 226/78/225 224/76/224 223/75/222
f 224/76/224 226/78/225 227/79/227
f 226/78/225 228/80/229 229/81/228
f 228/80/229 226/78/225 225/77/226
f 227/79/227 229/81/228 230/82/230
f 229/81/228 227/79/227 226/78/225
f 229/81/228 231/83/232 232/84/231
f 231/83/232 229/81/228 228/80/229
f 230/82/230 232/84/231 233/85/233
f 232/84/231 230/82/230 229/81/228
f 232/84/231 234/86/235 235/87/234
f 234/86/235 232/84/231 231/83/232
f 231/83/232 236/87/236 234/86/235
f 236/87/236 231/83/232 237/84/237
f 237/84/237 238/88/238 236/87/236
f 238/88/238 237/84/237 233/85/233
f 233/85/233 235/87/234 238/88/238
f 235/87/234 233/85/233 232/84/231
f 235/87/234 239/89/240 240/90/239
f 239/89/240 235/87/234 234/86/235
f 234/86/235 241/90/241 239/89/240
f 241/90/241 234/86/235 236/87/236
f 236/87/236 242/91/242 241/90/241
f 242/91/242 236/87/236 238/88/238
f 238/88/238 240/90/239 242/91/242
f 240/90/239 238/88/238 235/87/234
f 240/90/239 215/65/215 212/64/212
f 215/65/215 240/90/239 239/89/240
f 239/89/240 213/66/214 215/65/215
f 213/66/214 239/89/240 241/90/241
f 241/90/241 214/67/213 213/66/214
f 214/67/213 241/90/241 242/91/242
f 242/91/242 212/64/212 214/67/213
f 212/64/212 242/91/242 240/90/239
f 216/68/216 220/72/220 243/92/243
f 220/72/220 244/93/244 243/92/243
f 244/93/244 219/69/219 243/92/243
f 219/69/219 216/68/216 243/92/243
f 245/94/245 246/96/247 247/97/246
f 246/96/247 245/94/245 248/95/248
f 249/98/249 250/100/251 251/101/250
f 250/100/251 249/98/249 252/99/252
f 253/102/253 251/101/250 254/103/254
f 251/101/250 253/102/253 249/98/249
f 251/101/250 255/104/256 256/105/255
f 255/104/256 251/101/250 250/100/251
f 254/103/254 256/105/255 257/106/257
f 256/105/255 254/103/254 251/101/250
f 256/105/255 258/107/259 259/108/258
f 258/107/259 256/105/255 255/104/256
f 257/106/257 259/108/258 260/109/260
f 259/108/258 257/106/257 256/105/255
f 259/108/258 261/110/262 262/111/261
f 261/110/262 259/108/258 258/107/259
f 260/109/260 262/111/261 263/112/263
f 262/111/261 260/109/260 259/108/258
f 262/111/261 264/113/265 265/114/264
f 264/113/265 262/111/261 261/110/262
f 261/110/262 266/114/266 264/113/265
f 266/114/266 261/110/262 267/111/267
f 267/111/267 268/115/268 266/114/266
f 268/115/268 267/111/267 263/112/263
f 263/112/263 265/114/264 268/115/268
f 265/114/264 263/112/263 262/111/261
f 265/114/264 269/116/270 270/117/269
f 269/116/270 265/114/264 264/113/265
f 264/113/265 271/117/271 269/116/270
f 271/117/271 264/113/265 266/114/266
f 266/114/266 272/118/272 271/117/271
f 272/118/272 266/114/266 268/115/268
f 268/115/268 270/117/269 272/118/272
f 270/117/269 268/115/268 265/114/264
f 270/117/269 248/95/248 245/94/245
f 248/95/248 270/117/269 269/116/270
f 269/116/270 246/96/247 248/95/248
f 246/96/247 269/116/270 271/117/271
f 271/117/271 247/97/246 246/96/247
f 247/97/246 271/117/271 272/118/272
f 272/118/272 245/94/245 247/97/246
f 245/94/245 272/118/272 270/117/269
f 249/98/249 253/102/253 273/119/273
f 252/99/252 249/98/249 273/119/273
f 274/120/274 275/122/276 276/123/275
f 275/122/276 274/120/274 277/121/277
f 278/124/278 276/123/275 279/125/279
f 276/123/275 278/124/278 274/120/274
f 276/123/275 280/126/281 281/127/280
f 280/126/281 276/123/275 275/122/276
f 279/125/279 281/127/280 282/128/282
f 281/127/280 279/125/279 276/123/275
f 281/127/280 283/129/284 284/130/283
f 283/129/284 281/127/280 280/126/281
f 282/128/282 284/130/283 285/131/285
f 284/130/283 282/128/282 281/127/280
f 274/120/274 278/124/278 286/132/286
f 277/121/277 274/120/274 286/132/286
