# Wavefront OBJ
# Created by fragMOTION 1.3.7
# http://www.fragmosoft.com

mtllib Bob_Hair_Short.mtl
# 80 vertices
v 0.0587454 0.870116 0.0064184
v 0.0343441 0.855519 0.0250401
v 0.0400567 0.846758 0.0011589
v 0.0400478 0.875678 0.0265883
v 0.0354334 0.979732 -0.0498507
v 0.00512476 0.965829 -0.0888158
v 0.00503619 0.984686 -0.0506562
v 0.0627446 0.907475 -0.0307714
v 0.0527428 0.937412 -0.0579158
v 0.0620725 0.952166 -0.0416037
v 0.0585601 0.903535 -0.0507013
v 0.0657523 0.912567 -0.0151155
v 0.0576732 0.960694 -0.00830996
v 0.0667111 0.911926 0.00122779
v 0.0470764 0.918519 0.0299841
v 0.00476981 0.922571 0.0463325
v 0.0431302 0.969975 0.0193998
v 0.00482573 0.972713 0.0315218
v 0.0373615 0.950884 -0.0936948
v 0.0400879 0.931164 -0.0792506
v 0.0534542 0.967191 -0.0472143
v 0.0484919 0.973676 -0.0190252
v 0.00486967 0.986923 0.0161147
v 0.00476573 0.85183 0.0373776
v 0.00476019 0.880127 0.0438209
v 0.0590143 0.881295 -0.0461509
v 0.0632447 0.886103 -0.031622
v 0.0494264 0.865398 -0.00786069
v 0.0321529 0.830975 -0.01283
v 0.0328974 0.985738 -0.0134535
v 0.00515814 0.945738 -0.10514
v 0.00511567 0.923328 -0.0915439
v 0.00493352 0.989505 -0.00897227
v 0.0384064 0.856704 -0.0023903
v 0.0335412 0.864165 0.0179496
v 0.0492315 0.931768 -0.0614434
v 0.0541772 0.90384 -0.0515312
v 0.057729 0.908416 -0.029584
v 0.0602912 0.912752 -0.0162501
v 0.038433 0.928591 -0.0708734
v 0.00479896 0.868498 0.0266147
v 0.0545572 0.877973 -0.0458185
v 0.0581481 0.883256 -0.0286019
v 0.0316742 0.843262 -0.0143042
v 0.0463856 0.87258 -0.0100712
v 0.00508959 0.921919 -0.081352
v -0.0490443 0.870156 0.00614825
v -0.0247477 0.855541 0.024892
v -0.030444 0.875705 0.0264116
v -0.0303471 0.846784 0.000982453
v -0.0253684 0.979755 -0.0500031
v -0.0528291 0.907518 -0.031061
v -0.0426689 0.937447 -0.058155
v -0.0485476 0.903575 -0.0509697
v -0.0520692 0.952208 -0.0418898
v -0.0478305 0.960733 -0.00857438
v -0.0559114 0.912612 -0.0154204
v -0.0569526 0.911972 0.00091786
v -0.0374573 0.918551 0.0297722
v -0.0334196 0.970004 0.019208
v -0.0270983 0.950908 -0.0938563
v -0.0299119 0.931191 -0.079426
v -0.0434115 0.967227 -0.0474571
v -0.0385858 0.973709 -0.0192434
v -0.0490414 0.881335 -0.0464217
v -0.0533409 0.886146 -0.0319142
v -0.0396574 0.865431 -0.00808395
v -0.022385 0.830996 -0.0129667
v -0.0230104 0.985759 -0.0135936
v -0.0286715 0.856729 -0.00255842
v -0.0239027 0.864187 0.0178056
v -0.0391442 0.931802 -0.0616649
v -0.0441605 0.903877 -0.0517776
v -0.0478187 0.908455 -0.0298485
v -0.0504445 0.912794 -0.0165276
v -0.0283009 0.928616 -0.0710407
v -0.0445885 0.87801 -0.046067
v -0.0482616 0.883296 -0.0288686
v -0.0218897 0.843282 -0.0144385
v -0.0366002 0.872611 -0.0102791
# 85 texture vertices
vt 0.231472 -0.269191
vt 0.243589 -0.307554
vt 0.311341 -0.298098
vt 0.299507 -0.271335
vt 0.245623 -0.091321
vt 0.289168 -0.058817
vt 0.174061 -0.037232
vt 0.139312 -0.192521
vt 0.186589 -0.137697
vt 0.130155 -0.130402
vt 0.096552 -0.173453
vt 0.177186 -0.20897
vt 0.213566 -0.215202
vt 0.255981 -0.153638
vt 0.295488 -0.218973
vt 0.397085 -0.219743
vt 0.397762 -0.158024
vt 0.319485 -0.159254
vt 0.124989 -0.07678
vt 0.093029 -0.101359
vt 0.210367 -0.115439
vt 0.266377 -0.128006
vt 0.398012 -0.133623
vt 0.396255 -0.299126
vt 0.396586 -0.267223
vt 0.062592 -0.195635
vt 0.09252 -0.206598
vt 0.196217 -0.278377
vt 0.208455 -0.325344
vt 0.316465 -0.114346
vt 0.096953 -0.038388
vt 0.039018 -0.060725
vt 0.398352 -0.099463
vt 0.26029 -0.320204
vt 0.311482 -0.313256
vt 0.1109 -0.129187
vt 0.088729 -0.168858
vt 0.141004 -0.198901
vt 0.163988 -0.21338
vt 0.082899 -0.110796
vt 0.396023 -0.321511
vt 0.050525 -0.19771
vt 0.088462 -0.214053
vt 0.208065 -0.321933
vt 0.178408 -0.272452
vt 0.025243 -0.073078
vt 0.56163 -0.270137
vt 0.493567 -0.271889
vt 0.481184 -0.298583
vt 0.548732 -0.308428
vt 0.551253 -0.092195
vt 0.623643 -0.038424
vt 0.508329 -0.059455
vt 0.655162 -0.194045
vt 0.698036 -0.175338
vt 0.666571 -0.131836
vt 0.609579 -0.138837
vt 0.539687 -0.154409
vt 0.580617 -0.216246
vt 0.617075 -0.21024
vt 0.498676 -0.219548
vt 0.47603 -0.159684
vt 0.672027 -0.078193
vt 0.703835 -0.102829
vt 0.58614 -0.116492
vt 0.529814 -0.128735
vt 0.73172 -0.197631
vt 0.7016 -0.208434
vt 0.583497 -0.326421
vt 0.59669 -0.279528
vt 0.479947 -0.114805
vt 0.700621 -0.039879
vt 0.758271 -0.062368
vt 0.480729 -0.313739
vt 0.531772 -0.320981
vt 0.705776 -0.170846
vt 0.685963 -0.130749
vt 0.630153 -0.21473
vt 0.653364 -0.200389
vt 0.713919 -0.112308
vt 0.743751 -0.199755
vt 0.705499 -0.215909
vt 0.583954 -0.323011
vt 0.614613 -0.273706
vt 0.771929 -0.07475
# 80 normals
vn 0.90664 -0.375758 0.191858
vn -0.0104657 -0.91949 0.392974
vn 0.157138 -0.8955 0.416398
vn 0.582331 -0.1717 0.794613
vn 0.409153 0.842079 -0.35142
vn 0.00108841 0.956674 -0.291161
vn 0.00182186 0.793824 -0.608144
vn 0.935255 -0.265793 0.23378
vn 0.957254 0.203914 -0.205143
vn 0.87314 -0.106641 -0.475661
vn 0.720032 -0.102211 -0.686372
vn 0.930073 -0.268626 -0.250608
vn 0.964704 -0.00421747 0.263303
vn 0.894865 0.409908 0.176615
vn 0.631942 0.035413 0.774206
vn -0.00245413 0.103531 0.994623
vn -0.00195663 0.514349 0.857579
vn 0.600057 0.543622 0.586861
vn 0.594297 0.210003 -0.776344
vn 0.603306 -0.644529 -0.469685
vn 0.736343 0.617165 -0.277321
vn 0.698761 0.71466 0.0315146
vn -0.000742693 0.902226 0.431262
vn -0.00126484 -0.930845 0.365413
vn -0.00253419 -0.156791 0.987628
vn 0.672762 -0.480515 -0.56258
vn 0.892666 -0.316668 0.320733
vn 0.681166 -0.339585 -0.64861
vn -0.27051 -0.934875 -0.229852
vn 0.392159 0.918498 0.0507167
vn 0.00250934 0.00803122 -0.999964
vn 0.00114847 -0.814582 -0.580048
vn 0.000363071 0.999989 0.00471146
vn -0.985641 -0.121857 0.116887
vn -0.745289 -0.444559 -0.496902
vn 0.669722 0.0235173 -0.74224
vn 0.15755 -0.258422 -0.953098
vn 0.0673005 -0.623692 0.778768
vn 0.0637586 -0.889542 -0.452383
vn 0.486407 -0.845709 -0.219511
vn 0.00190228 -0.542436 -0.840095
vn 0.495043 -0.733957 -0.465016
vn 0.612417 -0.558151 0.559832
vn -0.546734 -0.120675 -0.828565
vn 0.263172 -0.180377 -0.947737
vn 9.50314e-006 -0.988437 -0.151632
vn -0.907872 -0.375078 0.18731
vn -0.586435 -0.171261 0.791684
vn -0.159895 -0.895381 0.415603
vn 0.00780625 -0.919497 0.39302
vn -0.406755 0.842385 -0.353465
vn -0.936614 -0.265091 0.229088
vn -0.716659 -0.101672 -0.689973
vn -0.870825 -0.105987 -0.480032
vn -0.956061 0.204631 -0.209939
vn -0.895431 0.410579 0.172127
vn -0.966015 -0.00349368 0.258464
vn -0.929006 -0.267929 -0.255268
vn -0.635788 0.0358883 0.771029
vn -0.602583 0.544073 0.583847
vn -0.59024 0.210447 -0.779313
vn -0.601427 -0.644077 -0.472705
vn -0.73448 0.617717 -0.281007
vn -0.698375 0.715184 0.0280128
vn -0.670293 -0.480012 -0.565947
vn -0.894499 -0.315998 0.316254
vn 0.270957 -0.935078 -0.228497
vn -0.67816 -0.339076 -0.652017
vn -0.39172 0.918792 0.048752
vn 0.747437 -0.445119 -0.493161
vn 0.984951 -0.122596 0.121826
vn -0.152965 -0.258305 -0.953876
vn -0.665974 0.0240178 -0.745588
vn -0.062157 -0.889495 -0.452698
vn -0.0716711 -0.62364 0.778419
vn -0.485934 -0.845344 -0.221948
vn -0.493256 -0.733587 -0.467493
vn -0.615634 -0.557691 0.556754
vn 0.55079 -0.121086 -0.825814
vn -0.258553 -0.180181 -0.949044
usemtl _09_-_Defaultaaa
g Bob_Hair_Short
s off
f 1/1/1 2/3/3 3/2/2
f 2/3/3 1/1/1 4/4/4
f 5/5/5 6/7/7 7/6/6
f 8/8/8 9/10/10 10/9/9
f 9/10/10 8/8/8 11/11/11
f 12/12/12 13/14/14 14/13/13
f 12/12/12 10/9/9 13/14/14
f 8/8/8 10/9/9 12/12/12
f 4/4/4 14/13/13 15/15/15
f 14/13/13 4/4/4 1/1/1
f 16/16/16 17/18/18 18/17/17
f 17/18/18 16/16/16 15/15/15
f 19/19/19 9/10/10 20/20/20
f 21/21/21 13/14/14 10/9/9
f 13/14/14 21/21/21 22/22/22
f 17/18/18 23/23/23 18/17/17
f 19/19/19 10/9/9 9/10/10
f 10/9/9 19/19/19 21/21/21
f 24/24/24 4/4/4 25/25/25
f 4/4/4 24/24/24 2/3/3
f 25/25/25 15/15/15 16/16/16
f 15/15/15 25/25/25 4/4/4
f 17/18/18 14/13/13 13/14/14
f 14/13/13 17/18/18 15/15/15
f 22/22/22 17/18/18 13/14/14
f 26/26/26 8/8/8 27/27/27
f 8/8/8 26/26/26 11/11/11
f 3/2/2 28/28/28 1/1/1
f 28/28/28 3/2/2 29/29/29
f 1/1/1 12/12/12 14/13/13
f 12/12/12 1/1/1 28/28/28
f 5/5/5 22/22/22 21/21/21
f 22/22/22 5/5/5 30/30/30
f 31/31/31 6/7/7 19/19/19
f 20/20/20 31/31/31 19/19/19
f 31/31/31 20/20/20 32/32/32
f 23/23/23 30/30/30 33/33/33
f 30/30/30 7/6/6 33/33/33
f 7/6/6 30/30/30 5/5/5
f 21/21/21 6/7/7 5/5/5
f 6/7/7 21/21/21 19/19/19
f 30/30/30 17/18/18 22/22/22
f 23/23/23 17/18/18 30/30/30
f 2/3/3 34/34/34 3/2/2
f 34/34/34 2/3/3 35/35/35
f 11/11/11 36/36/36 9/10/10
f 36/36/36 11/11/11 37/37/37
f 12/12/12 38/38/38 8/8/8
f 38/38/38 12/12/12 39/39/39
f 9/10/10 40/40/40 20/20/20
f 40/40/40 9/10/10 36/36/36
f 24/24/24 35/35/35 2/3/3
f 35/35/35 24/24/24 41/41/41
f 26/26/26 37/37/37 11/11/11
f 37/37/37 26/26/26 42/42/42
f 27/27/27 42/42/42 26/26/26
f 42/42/42 27/27/27 43/43/43
f 8/8/8 43/43/43 27/27/27
f 43/43/43 8/8/8 38/38/38
f 3/2/2 44/44/44 29/29/29
f 44/44/44 3/2/2 34/34/34
f 29/29/29 45/45/45 28/28/28
f 45/45/45 29/29/29 44/44/44
f 28/28/28 39/39/39 12/12/12
f 39/39/39 28/28/28 45/45/45
f 20/20/20 46/46/46 32/32/32
f 46/46/46 20/20/20 40/40/40
f 47/47/47 48/49/49 49/48/48
f 48/49/49 47/47/47 50/50/50
f 51/51/51 7/53/6 6/52/7
f 52/54/52 53/56/54 54/55/53
f 53/56/54 52/54/52 55/57/55
f 56/58/56 57/60/58 58/59/57
f 55/57/55 57/60/58 56/58/56
f 52/54/52 57/60/58 55/57/55
f 49/48/48 58/59/57 47/47/47
f 58/59/57 49/48/48 59/61/59
f 16/16/16 60/62/60 59/61/59
f 60/62/60 16/16/16 18/17/17
f 61/63/61 62/64/62 53/56/54
f 63/65/63 56/58/56 64/66/64
f 56/58/56 63/65/63 55/57/55
f 60/62/60 18/17/17 23/23/23
f 61/63/61 55/57/55 63/65/63
f 55/57/55 61/63/61 53/56/54
f 24/24/24 49/48/48 48/49/49
f 49/48/48 24/24/24 25/25/25
f 25/25/25 59/61/59 49/48/48
f 59/61/59 25/25/25 16/16/16
f 60/62/60 58/59/57 59/61/59
f 58/59/57 60/62/60 56/58/56
f 64/66/64 56/58/56 60/62/60
f 65/67/65 52/54/52 54/55/53
f 52/54/52 65/67/65 66/68/66
f 50/50/50 67/70/68 68/69/67
f 67/70/68 50/50/50 47/47/47
f 47/47/47 57/60/58 67/70/68
f 57/60/58 47/47/47 58/59/57
f 51/51/51 64/66/64 69/71/69
f 64/66/64 51/51/51 63/65/63
f 31/72/31 61/63/61 6/52/7
f 62/64/62 31/72/31 32/73/32
f 31/72/31 62/64/62 61/63/61
f 23/23/23 33/33/33 69/71/69
f 69/71/69 7/53/6 51/51/51
f 7/53/6 69/71/69 33/33/33
f 63/65/63 6/52/7 61/63/61
f 6/52/7 63/65/63 51/51/51
f 69/71/69 64/66/64 60/62/60
f 23/23/23 69/71/69 60/62/60
f 48/49/49 70/75/71 71/74/70
f 70/75/71 48/49/49 50/50/50
f 54/55/53 72/77/73 73/76/72
f 72/77/73 54/55/53 53/56/54
f 57/60/58 74/79/75 75/78/74
f 74/79/75 57/60/58 52/54/52
f 53/56/54 76/80/76 72/77/73
f 76/80/76 53/56/54 62/64/62
f 24/24/24 71/74/70 41/41/41
f 71/74/70 24/24/24 48/49/49
f 65/67/65 73/76/72 77/81/77
f 73/76/72 65/67/65 54/55/53
f 66/68/66 77/81/77 78/82/78
f 77/81/77 66/68/66 65/67/65
f 52/54/52 78/82/78 74/79/75
f 78/82/78 52/54/52 66/68/66
f 50/50/50 79/83/79 70/75/71
f 79/83/79 50/50/50 68/69/67
f 68/69/67 80/84/80 79/83/79
f 80/84/80 68/69/67 67/70/68
f 67/70/68 75/78/74 80/84/80
f 75/78/74 67/70/68 57/60/58
f 62/64/62 46/85/46 76/80/76
f 46/85/46 62/64/62 32/73/32
