# Wavefront OBJ
# Created by fragMOTION 1.3.7
# http://www.fragmosoft.com

mtllib Bob_Hair_Fresh.mtl
# 52 vertices
v 0.0486145 0.934071 -0.0735573
v 0.054022 0.984228 -0.0586825
v 0.0572184 0.940516 -0.0477782
v 0.0469256 0.978591 -0.0817617
v 0.0509777 0.991161 -0.030784
v 0.0528248 0.954717 -0.0158754
v 0.0363894 0.995479 -0.0132704
v 0.0376363 0.960297 0.00232261
v 0.00480946 0.997843 -0.00379064
v 0.00475716 0.963811 0.0120466
v -0.0267244 0.995502 -0.0134284
v -0.0280755 0.960321 0.00215809
v -0.041228 0.991196 -0.0310148
v -0.0431769 0.954752 -0.0161158
v -0.0441327 0.984265 -0.0589282
v -0.0474213 0.940555 -0.0480402
v -0.0369301 0.978622 -0.0819717
v -0.0386932 0.934104 -0.0737759
v -0.0205909 0.976624 -0.0907245
v -0.0207695 0.945243 -0.0831455
v 0.0050379 0.974635 -0.0984952
v 0.0050121 0.945496 -0.0925172
v 0.0307463 0.945224 -0.0830165
v 0.03057 0.976605 -0.0905964
v 0.0366433 1.00024 -0.0169129
v 0.0442565 0.997383 -0.0361921
v 0.0345838 1.00072 -0.0226192
v 0.0493022 0.996168 -0.0334326
v -0.0353576 0.984736 -0.0804688
v -0.0368878 0.991542 -0.0602278
v -0.0318117 0.987163 -0.0780573
v -0.0423176 0.989661 -0.0601597
v -0.0207263 0.98201 -0.0913792
v -0.0193955 0.98487 -0.0872639
v -0.0269565 1.00026 -0.0170721
v 0.00483501 1.00306 -0.0132223
v -0.0248681 1.00074 -0.022768
v 0.00482001 1.00263 -0.00729025
v 0.0522171 0.989626 -0.059923
v 0.0417941 0.987136 -0.077873
v 0.046788 0.991511 -0.0600183
v 0.0453502 0.984706 -0.0802667
v -0.0395356 0.996201 -0.033655
v -0.0344752 0.997412 -0.0363893
v 0.00504139 0.980083 -0.0990807
v 0.00503163 0.983013 -0.0947467
v 0.0293634 0.984852 -0.0871418
v 0.0307126 0.981991 -0.0912504
v 0.00486316 1.00219 -0.0257937
v 0.00488635 0.999255 -0.0394882
v 0.00495198 0.99442 -0.0608326
v 0.00497375 0.989797 -0.0762092
# 56 texture vertices
vt 0.838112 -0.956928
vt 0.935042 -0.784292
vt 0.731746 -0.704866
vt 0.685623 -0.805658
vt 0.933889 -0.56182
vt 0.74102 -0.570683
vt 0.898978 -0.41447
vt 0.712052 -0.465065
vt 0.827355 -0.244749
vt 0.640362 -0.318484
vt 0.178741 -0.233017
vt 0.101013 -0.400025
vt 0.285973 -0.45738
vt 0.362929 -0.313487
vt 0.060765 -0.545992
vt 0.253211 -0.561903
vt 0.051421 -0.768279
vt 0.257485 -0.696366
vt 0.141921 -0.944424
vt 0.299892 -0.798802
vt 0.368572 -0.844925
vt 0.301299 -0.984879
vt 0.488867 -1.02001
vt 0.491327 -0.881078
vt 0.677451 -0.991424
vt 0.614918 -0.849058
vt 0.684404 -0.476432
vt 0.658504 -0.494348
vt 0.692548 -0.569059
vt 0.717726 -0.56809
vt 0.307381 -0.779999
vt 0.317364 -0.763699
vt 0.294024 -0.679518
vt 0.274017 -0.686729
vt 0.374194 -0.825852
vt 0.377351 -0.80417
vt 0.313189 -0.469738
vt 0.338422 -0.488573
vt 0.449434 -0.378909
vt 0.411311 -0.33938
vt 0.715551 -0.694656
vt 0.695853 -0.686734
vt 0.669492 -0.769998
vt 0.678885 -0.786654
vt 0.591061 -0.342615
vt 0.551524 -0.380751
vt 0.276627 -0.560152
vt 0.301716 -0.562027
vt 0.491673 -0.865082
vt 0.491967 -0.844337
vt 0.609908 -0.829473
vt 0.607527 -0.807795
vt 0.499071 -0.456819
vt 0.497429 -0.54422
vt 0.495319 -0.662922
vt 0.493713 -0.746118
# 52 normals
vn 0.815074 -0.0814096 -0.573608
vn 0.992155 0.0373475 -0.119302
vn 0.975581 0.170263 -0.138752
vn 0.747601 0.0414174 -0.662856
vn 0.919188 0.19151 0.344119
vn 0.906603 0.287366 0.309017
vn 0.553398 0.353972 0.753959
vn 0.535972 0.440187 0.720395
vn -0.0021182 0.418271 0.90832
vn -0.00197407 0.504304 0.863524
vn -0.556902 0.354385 0.75118
vn -0.539245 0.440587 0.717703
vn -0.920767 0.19221 0.339476
vn -0.907941 0.288041 0.304427
vn -0.991516 0.0381301 -0.12427
vn -0.974746 0.171 -0.143632
vn -0.812401 -0.0808653 -0.577465
vn -0.74466 0.0419553 -0.666124
vn -0.390507 -0.0951788 -0.915667
vn -0.380759 -0.187362 -0.905493
vn 0.00254128 -0.217663 -0.976021
vn 0.00265374 -0.168564 -0.985687
vn 0.385024 -0.187343 -0.903692
vn 0.394728 -0.0953448 -0.913838
vn 0.438941 0.80053 0.408022
vn 0.144829 0.987082 -0.0685111
vn 0.204211 0.965597 -0.161001
vn 0.693719 0.713279 0.0999392
vn -0.605699 0.552739 -0.572371
vn -0.195888 0.909761 -0.36601
vn -0.216239 0.942008 -0.256635
vn -0.728964 0.64269 -0.235712
vn -0.332713 0.452536 -0.827353
vn -0.114101 0.889589 -0.442282
vn -0.440383 0.800857 0.405821
vn -0.143759 0.987189 -0.069212
vn 0.000352321 0.999963 0.00861221
vn -0.000998253 0.850974 0.525207
vn 0.730615 0.642142 -0.232068
vn 0.218218 0.941845 -0.255555
vn 0.198254 0.909552 -0.365254
vn 0.608568 0.552141 -0.5699
vn -0.693707 0.713775 0.0964185
vn -0.202704 0.965741 -0.162035
vn 0.00272834 0.36816 -0.929759
vn 0.00158798 0.884916 -0.465747
vn 0.336753 0.4524 -0.825791
vn 0.116773 0.889505 -0.441752
vn 0.000720159 0.990182 -0.139785
vn 0.000859475 0.976606 -0.215033
vn 0.00100516 0.968538 -0.248865
vn 0.00107042 0.954506 -0.29819
usemtl _15_-_Defaultkkk
g Bob_Hair_Fresh
s off
f 1/1/1 2/3/3 3/2/2
f 2/3/3 1/1/1 4/4/4
f 3/2/2 5/6/6 6/5/5
f 5/6/6 3/2/2 2/3/3
f 6/5/5 7/8/8 8/7/7
f 7/8/8 6/5/5 5/6/6
f 8/7/7 9/10/10 10/9/9
f 9/10/10 8/7/7 7/8/8
f 10/11/9 11/13/12 12/12/11
f 11/13/12 10/11/9 9/14/10
f 12/12/11 13/16/14 14/15/13
f 13/16/14 12/12/11 11/13/12
f 14/15/13 15/18/16 16/17/15
f 15/18/16 14/15/13 13/16/14
f 16/17/15 17/20/18 18/19/17
f 17/20/18 16/17/15 15/18/16
f 19/21/19 18/19/17 17/20/18
f 18/19/17 19/21/19 20/22/20
f 20/22/20 21/24/22 22/23/21
f 21/24/22 20/22/20 19/21/19
f 21/24/22 23/25/23 22/23/21
f 23/25/23 21/24/22 24/26/24
f 24/26/24 1/1/1 23/25/23
f 1/1/1 24/26/24 4/4/4
f 25/27/25 26/29/27 27/28/26
f 26/29/27 25/27/25 28/30/28
f 29/31/29 30/33/31 31/32/30
f 30/33/31 29/31/29 32/34/32
f 33/35/33 31/32/30 34/36/34
f 31/32/30 33/35/33 29/31/29
f 35/37/35 36/39/37 37/38/36
f 36/39/37 35/37/35 38/40/38
f 39/41/39 40/43/41 41/42/40
f 40/43/41 39/41/39 42/44/42
f 28/30/28 41/42/40 26/29/27
f 41/42/40 28/30/28 39/41/39
f 38/45/38 27/28/26 36/46/37
f 27/28/26 38/45/38 25/27/25
f 43/47/43 37/38/36 44/48/44
f 37/38/36 43/47/43 35/37/35
f 32/34/32 44/48/44 30/33/31
f 44/48/44 32/34/32 43/47/43
f 45/49/45 34/36/34 46/50/46
f 34/36/34 45/49/45 33/35/33
f 45/49/45 47/52/48 48/51/47
f 47/52/48 45/49/45 46/50/46
f 42/44/42 47/52/48 40/43/41
f 47/52/48 42/44/42 48/51/47
f 7/8/8 28/30/28 25/27/25
f 28/30/28 7/8/8 5/6/6
f 17/20/18 32/34/32 29/31/29
f 32/34/32 17/20/18 15/18/16
f 19/21/19 29/31/29 33/35/33
f 29/31/29 19/21/19 17/20/18
f 11/13/12 38/40/38 35/37/35
f 38/40/38 11/13/12 9/14/10
f 2/3/3 42/44/42 39/41/39
f 42/44/42 2/3/3 4/4/4
f 5/6/6 39/41/39 28/30/28
f 39/41/39 5/6/6 2/3/3
f 9/10/10 25/27/25 38/45/38
f 25/27/25 9/10/10 7/8/8
f 13/16/14 35/37/35 43/47/43
f 35/37/35 13/16/14 11/13/12
f 15/18/16 43/47/43 32/34/32
f 43/47/43 15/18/16 13/16/14
f 21/24/22 33/35/33 45/49/45
f 33/35/33 21/24/22 19/21/19
f 21/24/22 48/51/47 24/26/24
f 48/51/47 21/24/22 45/49/45
f 4/4/4 48/51/47 42/44/42
f 48/51/47 4/4/4 24/26/24
f 36/46/37 27/28/26 49/53/49
f 27/28/26 50/54/50 49/53/49
f 50/54/50 27/28/26 26/29/27
f 26/29/27 51/55/51 50/54/50
f 51/55/51 26/29/27 41/42/40
f 51/55/51 40/43/41 52/56/52
f 40/43/41 51/55/51 41/42/40
f 52/56/52 47/52/48 46/50/46
f 47/52/48 52/56/52 40/43/41
f 36/39/37 49/53/49 37/38/36
f 37/38/36 50/54/50 44/48/44
f 50/54/50 37/38/36 49/53/49
f 44/48/44 51/55/51 30/33/31
f 51/55/51 44/48/44 50/54/50
f 51/55/51 31/32/30 30/33/31
f 31/32/30 51/55/51 52/56/52
f 52/56/52 34/36/34 31/32/30
f 34/36/34 52/56/52 46/50/46
