# Wavefront OBJ
# Created by fragMOTION 1.3.7
# http://www.fragmosoft.com

mtllib Bob_Hair_MohawkFan.mtl
# 21 vertices
v -0.0042384 0.945441 -0.0887461
v 0.0142202 0.957157 -0.0776335
v -0.00426174 0.957164 -0.0776797
v 0.0142436 0.945434 -0.0886998
v 0.00518138 1.00009 -0.152031
v 0.00510711 1.03524 -0.117141
v 0.0139337 0.877377 0.0249865
v 0.00452281 0.885783 0.0940716
v -0.00454829 0.877384 0.0249402
v -0.00430963 0.970856 -0.0565138
v 0.0141723 0.970849 -0.0564675
v 0.0050005 1.05399 -0.0717673
v -0.00439683 0.977783 -0.0206517
v 0.0140851 0.977776 -0.0206054
v 0.00485093 1.0624 -0.0107677
v -0.00448291 0.962469 0.0114637
v 0.013999 0.962462 0.01151
v 0.00465885 1.02841 0.060918
v -0.00454959 0.917859 0.0314711
v 0.0139324 0.917853 0.0315174
v 0.0045474 0.9476 0.0934333
# 14 texture vertices
vt 0.728815 -0.350357
vt 0.678896 -0.350357
vt 0.768576 -0.079908
vt 0.685131 -0.079908
vt 0.081624 -0.350357
vt 0.011729 -0.079908
vt 0.600808 -0.350357
vt 0.60901 -0.079908
vt 0.486384 -0.350357
vt 0.470923 -0.079908
vt 0.367155 -0.350357
vt 0.326576 -0.079908
vt 0.200009 -0.350357
vt 0.14393 -0.079908
# 36 normals
vn -0.00207563 -0.686426 0.727197
vn 0.00135437 -0.75693 -0.653495
vn 0.99404 0.0765428 -0.0776217
vn 0.99433 0.0814643 -0.0683462
vn 0.994312 0.089357 -0.0579519
vn 0.994144 0.0771819 -0.0756365
vn -0.000675322 -0.992688 0.120702
vn -0.993645 0.0779874 -0.0811692
vn -0.993923 0.0903232 -0.0629238
vn -0.994 0.0819849 -0.0724018
vn -0.993709 0.0758251 -0.0824255
vn -0.00167191 -0.83963 0.543156
vn -0.994204 0.0993203 -0.0411456
vn -0.993813 0.106567 -0.031294
vn 0.994472 0.0985808 -0.0361674
vn 0.994036 0.105827 -0.0263177
vn -0.000839809 -0.981857 0.189619
vn -0.9943 0.105828 0.0129296
vn -0.994164 0.107044 0.0133967
vn 0.994302 0.105088 0.0179076
vn 0.994164 0.106304 0.018374
vn 0.0007417 -0.902641 -0.430394
vn -0.993687 0.0758083 0.0826946
vn -0.993726 0.0808447 0.0772844
vn 0.993317 0.0750693 0.0876686
vn 0.993386 0.0801057 0.0822586
vn 0.00213186 -0.409223 -0.912432
vn -0.989994 0.00644784 0.14096
vn -0.991356 0.026919 0.128405
vn 0.989281 0.00571176 0.145915
vn 0.990721 0.0261818 0.133366
vn 0.00253052 0.159297 -0.987228
vn -0.989664 -0.0112554 0.142961
vn -0.991527 0.00173521 0.12989
vn 0.988928 -0.0119912 0.147914
vn 0.990865 0.000997969 0.134853
usemtl _09_-_Defaultaaa
g Bob_Hair_MohawkFan
s off
f 1/1/1 2/2/1 3/2/1
f 2/2/1 1/1/1 4/1/1
f 1/1/2 5/3/2 4/1/2
f 4/1/3 6/4/5 2/2/4
f 6/4/5 4/1/3 5/3/6
f 7/5/7 8/6/7 9/5/7
f 5/3/8 3/2/10 6/4/9
f 3/2/10 5/3/8 1/1/11
f 2/2/12 10/7/12 3/2/12
f 10/7/12 2/2/12 11/7/12
f 10/7/13 6/4/9 3/2/10
f 6/4/9 10/7/13 12/8/14
f 6/4/5 11/7/15 2/2/4
f 11/7/15 6/4/5 12/8/16
f 11/7/17 13/9/17 10/7/17
f 13/9/17 11/7/17 14/9/17
f 13/9/18 12/8/14 10/7/13
f 12/8/14 13/9/18 15/10/19
f 12/8/16 14/9/20 11/7/15
f 14/9/20 12/8/16 15/10/21
f 14/9/22 16/11/22 13/9/22
f 16/11/22 14/9/22 17/11/22
f 16/11/23 15/10/19 13/9/18
f 15/10/19 16/11/23 18/12/24
f 15/10/21 17/11/25 14/9/20
f 17/11/25 15/10/21 18/12/26
f 17/11/27 19/13/27 16/11/27
f 19/13/27 17/11/27 20/13/27
f 19/13/28 18/12/24 16/11/23
f 18/12/24 19/13/28 21/14/29
f 18/12/26 20/13/30 17/11/25
f 20/13/30 18/12/26 21/14/31
f 20/13/32 9/5/32 19/13/32
f 9/5/32 20/13/32 7/5/32
f 9/5/33 21/14/29 19/13/28
f 21/14/29 9/5/33 8/6/34
f 21/14/31 7/5/35 20/13/30
f 7/5/35 21/14/31 8/6/36
