# Wavefront OBJ
# Created by fragMOTION 1.3.7
# http://www.fragmosoft.com

mtllib Bob_Hair_Picard.mtl
# 61 vertices
v 0.0503186 0.883877 0.0115682
v 0.03435 0.867893 0.0245733
v 0.0379309 0.860515 0.00632373
v 0.040051 0.888317 0.0272005
v 0.0627446 0.907475 -0.0307714
v 0.0553299 0.925204 -0.0537892
v 0.0585957 0.935533 -0.0326174
v 0.0585493 0.904628 -0.0462434
v 0.0657523 0.912567 -0.0151155
v 0.0576727 0.948183 -0.00994706
v 0.0626352 0.912836 0.00492278
v 0.0470764 0.918519 0.0299841
v 0.00478079 0.921455 0.0417843
v 0.0286116 0.946211 0.0252475
v 0.00481553 0.944294 0.0313398
v 0.00478085 0.867107 0.0336309
v 0.00477185 0.891907 0.0409319
v 0.0458429 0.951345 0.0123355
v 0.0565985 0.889858 -0.0421376
v 0.0608428 0.89325 -0.0333806
v 0.0472879 0.867375 0.00019412
v 0.0300154 0.832952 -0.00477617
v 0.0362806 0.870462 0.0027755
v 0.0335528 0.875946 0.0150603
v 0.0492166 0.919562 -0.0573223
v 0.0541665 0.904933 -0.0470723
v 0.057729 0.908416 -0.029584
v 0.0602912 0.912752 -0.0162501
v 0.00481061 0.880278 0.0237257
v 0.0521404 0.886535 -0.0418052
v 0.0557462 0.890403 -0.0303606
v 0.0295367 0.84524 -0.0062494
v 0.0442481 0.874556 -0.00201709
v -0.0406331 0.883911 0.0113402
v -0.0247419 0.867915 0.0244252
v -0.0304408 0.888343 0.0270238
v -0.0282369 0.86054 0.0061579
v -0.0528291 0.907518 -0.031061
v -0.0452858 0.925241 -0.0540413
v -0.0485584 0.904668 -0.0465118
v -0.04865 0.935573 -0.0328862
v -0.047831 0.948222 -0.0102115
v -0.0559114 0.912612 -0.0154204
v -0.0528945 0.91288 0.00463324
v -0.0374573 0.918551 0.0297722
v -0.0189483 0.946229 0.0251284
v -0.0361108 0.951375 0.0121301
v -0.0466392 0.889896 -0.0423964
v -0.0509249 0.893292 -0.0336608
v -0.0375578 0.867407 -1.85241e-005
v -0.0202865 0.832971 -0.00490224
v -0.0265613 0.870485 0.002618
v -0.023891 0.875968 0.0149164
v -0.0391591 0.919595 -0.0575438
v -0.0441712 0.90497 -0.0473188
v -0.0478187 0.908455 -0.0298485
v -0.0504445 0.912794 -0.0165276
v -0.0421854 0.886571 -0.0420416
v -0.0458456 0.890441 -0.0306152
v -0.0197912 0.845258 -0.00637303
v -0.0345016 0.874586 -0.00221445
# 61 texture vertices
vt 0.279444 -0.187654
vt 0.297837 -0.25366
vt 0.338258 -0.219461
vt 0.324155 -0.170694
vt 0.155549 -0.127478
vt 0.157283 -0.056953
vt 0.10236 -0.074537
vt 0.114877 -0.12687
vt 0.198141 -0.121468
vt 0.244653 -0.11641
vt 0.215191 -0.026327
vt 0.312086 -0.097963
vt 0.41517 -0.086175
vt 0.415176 -0.026475
vt 0.345761 -0.021709
vt 0.415156 -0.214452
vt 0.415162 -0.155654
vt 0.282798 -0.01408
vt 0.114769 -0.163909
vt 0.137813 -0.159936
vt 0.260349 -0.23477
vt 0.280642 -0.325981
vt 0.323045 -0.261335
vt 0.34191 -0.248436
vt 0.084013 -0.086353
vt 0.104335 -0.127016
vt 0.162537 -0.13681
vt 0.19265 -0.133285
vt 0.415152 -0.252315
vt 0.107937 -0.175318
vt 0.141985 -0.174471
vt 0.279593 -0.30921
vt 0.240005 -0.229735
vt 0.550873 -0.187682
vt 0.506166 -0.170713
vt 0.492053 -0.219477
vt 0.532466 -0.253684
vt 0.674777 -0.127532
vt 0.715449 -0.126926
vt 0.727976 -0.074597
vt 0.673057 -0.057005
vt 0.615158 -0.026368
vt 0.585678 -0.116446
vt 0.632188 -0.121512
vt 0.51825 -0.097984
vt 0.484591 -0.021723
vt 0.547556 -0.014108
vt 0.715556 -0.163964
vt 0.692511 -0.159991
vt 0.549647 -0.326009
vt 0.569958 -0.234802
vt 0.488395 -0.248451
vt 0.507257 -0.261354
vt 0.72599 -0.127073
vt 0.746321 -0.086415
vt 0.637676 -0.13333
vt 0.667787 -0.136863
vt 0.722387 -0.175374
vt 0.688337 -0.174526
vt 0.550699 -0.309239
vt 0.590302 -0.229771
# 61 normals
vn 0.850085 -0.326131 0.413515
vn -0.140901 -0.55391 0.820567
vn 0.231477 -0.870666 0.434005
vn 0.57929 -0.232995 0.781113
vn 0.930251 -0.297058 0.215382
vn 0.971139 0.175716 -0.161285
vn 0.871827 -0.0204608 -0.489387
vn 0.721907 -0.234911 -0.650897
vn 0.941072 -0.301905 -0.152438
vn 0.938769 -0.0436419 0.341771
vn 0.941873 0.264253 0.207475
vn 0.618563 0.0926567 0.780253
vn -0.002396 0.182377 0.983226
vn -0.00212343 0.415909 0.909404
vn 0.33475 0.395349 0.85536
vn -0.0012608 -0.931515 0.363701
vn -0.00253338 -0.174412 0.98467
vn 0.731282 0.355815 0.581913
vn 0.62869 -0.539129 -0.560437
vn 0.894797 -0.40556 0.186706
vn 0.849253 -0.462339 -0.254975
vn -0.228492 -0.965266 -0.126698
vn -0.986067 -0.135977 0.0958194
vn -0.755024 -0.507472 -0.415224
vn 0.56823 -0.230843 -0.789827
vn 0.137092 -0.433766 -0.890535
vn 0.0610153 -0.640499 0.765531
vn 0.0379494 -0.922291 -0.384627
vn 0.00177786 -0.601033 -0.799222
vn 0.495727 -0.748515 -0.440432
vn 0.593747 -0.649153 0.475464
vn -0.75101 -0.103893 -0.652066
vn 0.0751552 -0.264213 -0.961532
vn -0.852391 -0.325493 0.409248
vn -0.583372 -0.232559 0.778199
vn -0.234302 -0.870491 0.432838
vn 0.136371 -0.554014 0.821262
vn -0.931542 -0.29636 0.210715
vn -0.718811 -0.234371 -0.654508
vn -0.869378 -0.0198081 -0.493751
vn -0.970186 0.176444 -0.166151
vn -0.942703 0.264959 0.202751
vn -0.940503 -0.0429374 0.337061
vn -0.940522 -0.3012 -0.157154
vn -0.622397 0.0931219 0.777142
vn -0.338737 0.395602 0.853672
vn -0.733922 0.356364 0.578241
vn -0.626276 -0.538658 -0.563582
vn -0.896026 -0.404889 0.182217
vn 0.228399 -0.965438 -0.125555
vn -0.848311 -0.461702 -0.259228
vn 0.756715 -0.508038 -0.411435
vn 0.985473 -0.136716 0.100761
vn -0.132951 -0.433665 -0.891212
vn -0.564437 -0.230418 -0.792665
vn -0.0367124 -0.922264 -0.384814
vn -0.0653322 -0.640452 0.765214
vn -0.494074 -0.748144 -0.442913
vn -0.596609 -0.648707 0.472481
vn 0.754191 -0.104457 -0.648293
vn -0.0705323 -0.264159 -0.961896
usemtl _09_-_Defaultaaa
g Bob_Hair_Picard
s off
f 1/1/1 2/3/3 3/2/2
f 2/3/3 1/1/1 4/4/4
f 5/5/5 6/7/7 7/6/6
f 6/7/7 5/5/5 8/8/8
f 9/9/9 10/11/11 11/10/10
f 9/9/9 7/6/6 10/11/11
f 5/5/5 7/6/6 9/9/9
f 4/4/4 11/10/10 12/12/12
f 11/10/10 4/4/4 1/1/1
f 13/13/13 14/15/15 15/14/14
f 16/16/16 4/4/4 17/17/17
f 4/4/4 16/16/16 2/3/3
f 17/17/17 12/12/12 13/13/13
f 12/12/12 17/17/17 4/4/4
f 18/18/18 11/10/10 10/11/11
f 11/10/10 18/18/18 12/12/12
f 19/19/19 5/5/5 20/20/20
f 5/5/5 19/19/19 8/8/8
f 3/2/2 21/21/21 1/1/1
f 21/21/21 3/2/2 22/22/22
f 1/1/1 9/9/9 11/10/10
f 9/9/9 1/1/1 21/21/21
f 2/3/3 23/23/23 3/2/2
f 23/23/23 2/3/3 24/24/24
f 8/8/8 25/25/25 6/7/7
f 25/25/25 8/8/8 26/26/26
f 9/9/9 27/27/27 5/5/5
f 27/27/27 9/9/9 28/28/28
f 16/16/16 24/24/24 2/3/3
f 24/24/24 16/16/16 29/29/29
f 19/19/19 26/26/26 8/8/8
f 26/26/26 19/19/19 30/30/30
f 20/20/20 30/30/30 19/19/19
f 30/30/30 20/20/20 31/31/31
f 5/5/5 31/31/31 20/20/20
f 31/31/31 5/5/5 27/27/27
f 3/2/2 32/32/32 22/22/22
f 32/32/32 3/2/2 23/23/23
f 22/22/22 33/33/33 21/21/21
f 33/33/33 22/22/22 32/32/32
f 21/21/21 28/28/28 9/9/9
f 28/28/28 21/21/21 33/33/33
f 18/18/18 14/15/15 12/12/12
f 14/15/15 13/13/13 12/12/12
f 34/34/34 35/36/36 36/35/35
f 35/36/36 34/34/34 37/37/37
f 38/38/38 39/40/40 40/39/39
f 39/40/40 38/38/38 41/41/41
f 42/42/42 43/44/44 44/43/43
f 41/41/41 43/44/44 42/42/42
f 38/38/38 43/44/44 41/41/41
f 36/35/35 44/43/43 34/34/34
f 44/43/43 36/35/35 45/45/45
f 13/13/13 15/14/14 46/46/46
f 16/16/16 36/35/35 35/36/36
f 36/35/35 16/16/16 17/17/17
f 17/17/17 45/45/45 36/35/35
f 45/45/45 17/17/17 13/13/13
f 47/47/47 44/43/43 45/45/45
f 44/43/43 47/47/47 42/42/42
f 48/48/48 38/38/38 40/39/39
f 38/38/38 48/48/48 49/49/49
f 37/37/37 50/51/51 51/50/50
f 50/51/51 37/37/37 34/34/34
f 34/34/34 43/44/44 50/51/51
f 43/44/44 34/34/34 44/43/43
f 35/36/36 52/53/53 53/52/52
f 52/53/53 35/36/36 37/37/37
f 40/39/39 54/55/55 55/54/54
f 54/55/55 40/39/39 39/40/40
f 43/44/44 56/57/57 57/56/56
f 56/57/57 43/44/44 38/38/38
f 16/16/16 53/52/52 29/29/29
f 53/52/52 16/16/16 35/36/36
f 48/48/48 55/54/54 58/58/58
f 55/54/54 48/48/48 40/39/39
f 49/49/49 58/58/58 59/59/59
f 58/58/58 49/49/49 48/48/48
f 38/38/38 59/59/59 56/57/57
f 59/59/59 38/38/38 49/49/49
f 37/37/37 60/60/60 52/53/53
f 60/60/60 37/37/37 51/50/50
f 51/50/50 61/61/61 60/60/60
f 61/61/61 51/50/50 50/51/51
f 50/51/51 57/56/56 61/61/61
f 57/56/56 50/51/51 43/44/44
f 47/47/47 45/45/45 46/46/46
f 46/46/46 45/45/45 13/13/13
