# Wavefront OBJ
# Created by fragMOTION 1.3.7
# http://www.fragmosoft.com

mtllib Bob_Hair_PartingLeft.mtl
# 80 vertices
v -0.034549 0.978382 -0.010956
v -0.0578577 0.95052 -0.0383923
v -0.0492937 0.958145 -0.0061092
v -0.0372848 0.973665 -0.0440989
v 0.00483185 0.990782 -0.0137824
v 0.00491358 0.986009 -0.0471435
v 0.0186812 0.9844 -0.0132518
v 0.0261478 0.975796 -0.0455403
v 0.037313 0.985817 -0.0129375
v 0.0399985 0.981071 -0.0461836
v 0.055428 0.976341 -0.0103342
v 0.0599426 0.967462 -0.0422472
v -0.038775 0.924636 -0.107612
v -0.0540669 0.936729 -0.0887027
v -0.0355476 0.9414 -0.119257
v -0.0481497 0.921712 -0.0850057
v 0.00278556 0.93021 -0.116948
v 0.00282523 0.948149 -0.130129
v 0.0373965 0.951704 -0.0988985
v 0.0318889 0.938711 -0.0842275
v 0.0483045 0.933952 -0.0755498
v 0.0452115 0.957196 -0.0860884
v 0.0590792 0.95092 -0.073711
v 0.0643231 0.938742 -0.0670876
v 0.0651863 0.945811 -0.0369252
v 0.0606717 0.953701 -0.00476953
v -0.05113 0.933167 -0.000126242
v -0.0546903 0.925273 -0.0323303
v -0.0439298 0.897927 -0.050573
v -0.049471 0.905315 -0.0377896
v -0.0478668 0.897931 -0.0505712
v -0.0475019 0.905295 -0.0378604
v 0.0577088 0.897899 -0.0498546
v 0.0571434 0.905288 -0.0378059
v 0.0538071 0.897773 -0.0503839
v 0.0590251 0.905415 -0.0372816
v 0.0440194 0.970986 -0.0755947
v 0.0317648 0.965811 -0.0749719
v 0.0049941 0.978163 -0.0804729
v -0.0384039 0.966597 -0.0742621
v -0.0579694 0.943736 -0.0631019
v -0.0513057 0.919516 -0.0557976
v 0.00506258 0.967909 -0.109355
v -0.0390765 0.957268 -0.0993765
v -0.0276247 0.939319 -0.0819843
v 0.00501835 0.935736 -0.0964671
v -0.0381123 0.883435 -0.000582988
v -0.0257812 0.868823 0.0151982
v -0.0413037 0.883376 -0.000832819
v -0.0320005 0.967905 0.00968529
v 0.00474535 0.973429 0.0181926
v 0.0408976 0.967919 0.010527
v 0.0546614 0.960702 0.00597413
v 0.0508775 0.883403 -0.000360672
v 0.0352087 0.8688 0.0153509
v 0.047672 0.88335 -0.00059111
v -0.0439101 0.919653 -0.0552099
v -0.0457432 0.936137 0.0120176
v -0.0346136 0.938181 0.0204567
v 0.00537747 0.941081 0.0325138
v 0.0434227 0.938321 0.0212757
v 0.0542915 0.936315 0.0131026
v 0.0602078 0.933125 0.000108377
v 0.0622304 0.925236 -0.0320526
v 0.0591492 0.919572 -0.055166
v 0.0538044 0.919447 -0.055699
v -0.0476031 0.90464 0.00247105
v -0.0350497 0.915801 0.0219747
v 0.00538789 0.921199 0.0349851
v 0.0444321 0.91576 0.0229713
v 0.0571335 0.904686 0.00278458
v 0.00455819 0.868757 0.0262769
v 0.0545405 0.91036 -0.0227416
v 0.0590503 0.910486 -0.0222107
v 0.0559961 0.900261 -0.00967773
v 0.0586828 0.900387 -0.0091514
v -0.0495063 0.910625 -0.0229205
v -0.0447811 0.910604 -0.0229844
v -0.049149 0.900178 -0.0098154
v -0.0463928 0.900159 -0.00988426
# 87 texture vertices
vt 0.51339 -0.155129
vt 0.511163 -0.189552
vt 0.564748 -0.205827
vt 0.567366 -0.161117
vt 0.520287 -0.097334
vt 0.578159 -0.098477
vt 0.517987 -0.076242
vt 0.583953 -0.064899
vt 0.314847 -0.121917
vt 0.334799 -0.105603
vt 0.266549 -0.085132
vt 0.259333 -0.104287
vt 0.299397 -0.143974
vt 0.247829 -0.136214
vt 0.67993 -0.207063
vt 0.678208 -0.184999
vt 0.640285 -0.212843
vt 0.654902 -0.229468
vt 0.723933 -0.161839
vt 0.705421 -0.145086
vt 0.720974 -0.086492
vt 0.77138 -0.114443
vt 0.161084 -0.14646
vt 0.175295 -0.108636
vt 0.152945 -0.098091
vt 0.140018 -0.124458
vt 0.190063 -0.133307
vt 0.190208 -0.153139
vt 0.238014 -0.166742
vt 0.291816 -0.175035
vt 0.506094 -0.226328
vt 0.562325 -0.241787
vt 0.597835 -0.28413
vt 0.595918 -0.280511
vt 0.571912 -0.271328
vt 0.571357 -0.274081
vt 0.184821 -0.218296
vt 0.180925 -0.220288
vt 0.208943 -0.222169
vt 0.210149 -0.219627
vt 0.205164 -0.101766
vt 0.203089 -0.08481
vt 0.635261 -0.107147
vt 0.652355 -0.067394
vt 0.611891 -0.168547
vt 0.602026 -0.212801
vt 0.610454 -0.250703
vt 0.677938 -0.122531
vt 0.645631 -0.177631
vt 0.703456 -0.24113
vt 0.749803 -0.173645
vt 0.487744 -0.302241
vt 0.489924 -0.297423
vt 0.446401 -0.312975
vt 0.473226 -0.163632
vt 0.396834 -0.147868
vt 0.334551 -0.160065
vt 0.312931 -0.170284
vt 0.281389 -0.275037
vt 0.282611 -0.280675
vt 0.321342 -0.301009
vt 0.62523 -0.257967
vt 0.484416 -0.218856
vt 0.463154 -0.211645
vt 0.395549 -0.202095
vt 0.330645 -0.203282
vt 0.309324 -0.203641
vt 0.286303 -0.203308
vt 0.230554 -0.196099
vt 0.188843 -0.186304
vt 0.17863 -0.1855
vt 0.460117 -0.24521
vt 0.496346 -0.266007
vt 0.392167 -0.231508
vt 0.325271 -0.233804
vt 0.283068 -0.243427
vt 0.385061 -0.30771
vt 0.235496 -0.231555
vt 0.239827 -0.22576
vt 0.257861 -0.249118
vt 0.261443 -0.246712
vt 0.276649 -0.276985
vt 0.542929 -0.263848
vt 0.54412 -0.270797
vt 0.515785 -0.276077
vt 0.517885 -0.279651
vt 0.492887 -0.301163
# 101 normals
vn -0.521101 0.83212 0.189815
vn -0.858082 0.40619 0.314173
vn -0.957949 0.286932 -0.0017889
vn -0.549208 0.825322 -0.131207
vn 0.0643523 0.985227 0.158699
vn 0.0793076 0.979453 -0.185422
vn 0.169326 0.980911 0.0956168
vn 0.439551 0.880569 -0.177182
vn 0.18747 0.970983 0.148483
vn -0.307627 0.91149 -0.273042
vn 0.104055 0.965652 -0.238094
vn 0.710023 0.662206 0.239479
vn 0.837219 0.53487 -0.113925
vn -0.636505 -0.397356 -0.661037
vn -0.517411 0.0689017 -0.852959
vn -0.948987 0.0223382 -0.314524
vn -0.87984 -0.407057 -0.245329
vn 0.281025 -0.599341 -0.749543
vn 0.173325 0.100301 -0.979744
vn 0.780353 0.130391 -0.611594
vn 0.622267 -0.687148 -0.374981
vn 0.514237 -0.446853 -0.73204
vn 0.573921 0.429777 -0.69707
vn 0.646456 0.0252135 -0.762534
vn 0.113727 -0.764565 -0.634434
vn 0.802051 0.165169 -0.573962
vn 0.871893 -0.169456 -0.459442
vn 0.997652 0.0550811 0.040711
vn 0.960315 0.134874 0.244139
vn -0.960859 -0.0101727 0.276853
vn -0.982393 -0.183065 0.0373064
vn -0.000468531 -0.862189 -0.506587
vn -0.485898 -0.801387 -0.348828
vn 0.00523473 -0.909201 0.416325
vn 0.00623946 -0.905161 0.425023
vn 0.547301 -0.790404 -0.275177
vn 0.0932418 -0.846659 -0.523904
vn -0.0580152 -0.89753 0.43712
vn -0.0480824 -0.915898 0.398521
vn 0.210602 0.804337 -0.555598
vn -0.259952 0.804795 -0.533602
vn 0.0854725 0.954869 -0.284465
vn 0.467002 0.840491 -0.274743
vn -0.568243 0.789129 -0.233183
vn -0.977871 0.17815 -0.10968
vn -0.892783 -0.289517 -0.345136
vn 0.110765 0.839061 -0.532643
vn -0.601375 0.68247 -0.415431
vn 0.642095 -0.762376 0.0805988
vn 0.398839 -0.884658 0.241471
vn 0.356777 -0.883926 0.302298
vn 0.0664122 -0.953697 0.293345
vn 0.126037 -0.961154 0.245554
vn -0.012356 -0.96507 0.2617
vn 0.0721482 -0.624699 -0.777525
vn 0.0707176 -0.540134 -0.838603
vn 0.0680101 -0.705024 -0.705915
vn -0.470473 0.593266 0.653215
vn -0.0156443 0.671715 0.740644
vn 0.357073 0.57601 0.735331
vn 0.718823 0.34929 0.601075
vn 0.0677196 -0.585057 -0.808159
vn 0.0685129 -0.670595 -0.738653
vn 0.0590841 -0.759897 -0.647353
vn 0.340478 -0.872058 -0.351554
vn 0.0603135 -0.821648 -0.566796
vn -0.789149 0.1199 0.602385
vn -0.46334 0.208853 0.861218
vn -0.00245945 0.257137 0.966372
vn 0.443297 0.200266 0.873717
vn 0.788086 0.0723177 0.611302
vn 0.967155 -0.0209212 0.253326
vn 0.989005 -0.143142 0.0371413
vn 0.731579 -0.435078 -0.524881
vn 0.0787224 -0.794408 -0.602261
vn 0.0722588 -0.220871 -0.972623
vn -0.97521 -0.221004 -0.0110867
vn -0.559459 -0.105155 0.822161
vn -0.898869 -0.202822 0.388456
vn -0.0037356 -0.0151954 0.999878
vn 0.560904 -0.100487 0.82176
vn 0.903711 -0.192582 0.382385
vn 0.991246 -0.126549 -0.0376263
vn 0.101934 -0.236915 -0.966168
vn -0.525826 -0.222174 0.821064
vn -0.816324 -0.272793 0.509116
vn -0.0084628 -0.193742 0.981016
vn 0.814164 -0.275761 0.510973
vn 0.51947 -0.23533 0.821444
vn 0.0442396 -0.98815 -0.146976
vn 0.054441 -0.978675 -0.19807
vn 0.169217 -0.663841 -0.728478
vn 0.166007 -0.677353 -0.716683
vn 0.985842 -0.0689299 0.152851
vn 0.990015 -0.12015 0.0737204
vn -0.00638833 -0.986309 -0.164781
vn -0.00720972 -0.984654 -0.174368
vn -0.0225164 -0.664491 -0.746957
vn -0.0197025 -0.629821 -0.776491
vn -0.976546 -0.187104 0.106536
vn -0.985852 -0.0734138 0.150686
usemtl _09_-_Defaultaaa
g Bob_Hair_PartingLeft
s off
f 1/1/1 2/3/3 3/2/2
f 2/3/3 1/1/1 4/4/4
f 5/5/5 4/4/4 1/1/1
f 4/4/4 5/5/5 6/6/6
f 7/7/7 6/6/6 5/5/5
f 6/6/6 7/7/7 8/8/8
f 9/9/9 8/11/10 7/10/7
f 8/11/10 9/9/9 10/12/11
f 11/13/12 10/12/11 9/9/9
f 10/12/11 11/13/12 12/14/13
f 13/15/14 14/17/16 15/16/15
f 14/17/16 13/15/14 16/18/17
f 17/19/18 15/16/15 18/20/19
f 15/16/15 17/19/18 13/15/14
f 19/21/20 17/19/18 18/20/19
f 17/19/18 19/21/20 20/22/21
f 21/23/22 19/25/24 22/24/23
f 19/25/24 21/23/22 20/26/25
f 23/27/26 21/23/22 22/24/23
f 21/23/22 23/27/26 24/28/27
f 11/13/12 25/29/28 12/14/13
f 25/29/28 11/13/12 26/30/29
f 2/3/3 27/31/30 3/2/2
f 27/31/30 2/3/3 28/32/31
f 29/33/32 30/35/34 31/34/33
f 30/35/34 29/33/32 32/36/35
f 33/37/36 34/39/38 35/38/37
f 34/39/38 33/37/36 36/40/39
f 12/14/13 24/28/27 23/27/26
f 24/28/27 12/14/13 25/29/28
f 37/41/40 12/14/13 23/27/26
f 12/14/13 37/41/40 10/12/11
f 38/42/41 10/12/11 37/41/40
f 10/12/11 38/42/41 8/11/10
f 39/43/42 8/8/8 38/44/43
f 8/8/8 39/43/42 6/6/6
f 40/45/44 6/6/6 39/43/42
f 6/6/6 40/45/44 4/4/4
f 41/46/45 4/4/4 40/45/44
f 4/4/4 41/46/45 2/3/3
f 42/47/46 2/3/3 41/46/45
f 2/3/3 42/47/46 28/32/31
f 23/27/26 22/24/23 37/41/40
f 38/42/41 22/24/23 19/25/24
f 22/24/23 38/42/41 37/41/40
f 43/48/47 38/44/43 19/21/20
f 38/44/43 43/48/47 39/43/42
f 44/49/48 39/43/42 43/48/47
f 39/43/42 44/49/48 40/45/44
f 14/17/16 40/45/44 44/49/48
f 40/45/44 14/17/16 41/46/45
f 42/47/46 14/17/16 16/18/17
f 14/17/16 42/47/46 41/46/45
f 19/21/20 18/20/19 43/48/47
f 15/16/15 43/48/47 18/20/19
f 43/48/47 15/16/15 44/49/48
f 44/49/48 15/16/15 14/17/16
f 16/18/49 13/15/51 45/50/50
f 46/51/52 13/15/51 17/19/53
f 13/15/51 46/51/52 45/50/50
f 46/51/52 17/19/53 20/22/54
f 47/52/55 48/54/57 49/53/56
f 3/2/2 50/55/58 1/1/1
f 51/56/59 1/1/1 50/55/58
f 1/1/1 51/56/59 5/5/5
f 5/5/5 51/56/59 7/7/7
f 9/9/9 51/56/59 52/57/60
f 51/56/59 9/9/9 7/10/7
f 11/13/12 52/57/60 53/58/61
f 52/57/60 11/13/12 9/9/9
f 11/13/12 53/58/61 26/30/29
f 54/59/62 55/61/64 56/60/63
f 42/47/65 45/50/50 57/62/66
f 45/50/50 42/47/65 16/18/49
f 27/31/30 58/63/67 3/2/2
f 50/55/58 58/63/67 59/64/68
f 58/63/67 50/55/58 3/2/2
f 50/55/58 60/65/69 51/56/59
f 60/65/69 50/55/58 59/64/68
f 52/57/60 60/65/69 61/66/70
f 60/65/69 52/57/60 51/56/59
f 53/58/61 61/66/70 62/67/71
f 61/66/70 53/58/61 52/57/60
f 63/68/72 53/58/61 62/67/71
f 53/58/61 63/68/72 26/30/29
f 64/69/73 26/30/29 63/68/72
f 26/30/29 64/69/73 25/29/28
f 24/28/27 64/69/73 65/70/74
f 64/69/73 24/28/27 25/29/28
f 21/23/22 65/70/74 66/71/75
f 65/70/74 21/23/22 24/28/27
f 31/34/33 57/62/76 29/33/32
f 57/62/76 31/34/33 42/47/46
f 30/35/77 42/47/46 31/34/33
f 42/47/46 30/35/77 28/32/31
f 58/63/67 67/73/79 68/72/78
f 67/73/79 58/63/67 27/31/30
f 58/63/67 68/72/78 59/64/68
f 59/64/68 69/74/80 60/65/69
f 69/74/80 59/64/68 68/72/78
f 61/66/70 69/74/80 70/75/81
f 69/74/80 61/66/70 60/65/69
f 61/66/70 70/75/81 62/67/71
f 71/76/82 62/67/71 70/75/81
f 62/67/71 71/76/82 63/68/72
f 65/70/74 36/40/83 33/37/36
f 36/40/83 65/70/74 64/69/73
f 35/38/37 65/70/74 33/37/36
f 65/70/74 35/38/37 66/71/84
f 68/72/78 49/53/86 48/54/85
f 49/53/86 68/72/78 67/73/79
f 72/77/87 68/72/78 48/54/85
f 68/72/78 72/77/87 69/74/80
f 54/59/88 70/75/81 55/61/89
f 70/75/81 54/59/88 71/76/82
f 70/75/81 72/77/87 55/61/89
f 72/77/87 70/75/81 69/74/80
f 73/78/90 36/40/39 74/79/91
f 36/40/39 73/78/90 34/39/38
f 75/80/92 74/79/91 76/81/93
f 74/79/91 75/80/92 73/78/90
f 56/82/63 76/81/93 54/59/62
f 76/81/93 56/82/63 75/80/92
f 76/81/94 71/76/82 54/59/88
f 74/79/95 64/69/73 63/68/72
f 64/69/73 74/79/95 36/40/83
f 71/76/82 74/79/95 63/68/72
f 74/79/95 71/76/82 76/81/94
f 32/36/35 77/83/96 30/35/34
f 77/83/96 32/36/35 78/84/97
f 78/84/97 79/85/98 77/83/96
f 79/85/98 78/84/97 80/86/99
f 80/86/99 49/53/56 79/85/98
f 49/53/56 80/86/99 47/87/55
f 77/83/100 28/32/31 30/35/77
f 28/32/31 77/83/100 27/31/30
f 77/83/100 67/73/79 27/31/30
f 67/73/79 77/83/100 79/85/101
f 67/73/79 79/85/101 49/53/86
