<svg xmlns="http://www.w3.org/2000/svg" id="canvas" viewBox="155.857 125.426 531.854 106.412"><path d="M 220.71,161.60 C 220.77 161.01, 220.74 160.22, 220.49 158.76 C 220.23 157.31, 219.97 156.27, 219.42 154.33 C 218.88 152.38, 218.50 151.03, 217.76 149.03 C 217.02 147.03, 216.74 146.10, 215.75 144.33 C 214.75 142.57, 214.21 141.52, 212.79 140.21 C 211.36 138.90, 210.54 138.35, 208.64 137.78 C 206.75 137.20, 205.68 136.93, 203.31 137.33 C 200.94 137.73, 199.63 138.08, 196.79 139.78 C 193.96 141.48, 192.46 142.70, 189.13 145.82 C 185.80 148.94, 183.70 150.92, 180.13 155.36 C 176.57 159.81, 174.52 162.67, 171.30 168.05 C 168.09 173.42, 166.36 176.53, 164.05 182.23 C 161.75 187.94, 160.80 191.10, 159.79 196.57 C 158.77 202.03, 158.75 204.88, 158.97 209.55 C 159.19 214.22, 159.60 216.54, 160.87 219.91 C 162.15 223.27, 163.05 224.59, 165.36 226.38 C 167.67 228.16, 169.22 228.74, 172.43 228.83 C 175.63 228.91, 177.61 228.36, 181.39 226.80 C 185.17 225.23, 187.33 223.88, 191.35 221.01 C 195.36 218.13, 197.52 216.36, 201.45 212.44 C 205.39 208.51, 207.42 206.06, 211.03 201.39 C 214.64 196.72, 216.41 194.06, 219.52 189.10 C 222.63 184.14, 224.19 181.46, 226.57 176.59 C 228.96 171.73, 229.90 169.22, 231.43 164.77 C 232.97 160.32, 233.52 158.07, 234.26 154.35 C 234.99 150.62, 235.18 148.98, 235.12 146.15 C 235.07 143.33, 234.59 142.05, 233.96 140.23 C 233.34 138.42, 232.84 137.87, 231.99 137.07 C 231.14 136.27, 230.40 136.17, 229.70 136.22 C 229.00 136.28, 228.57 136.78, 228.48 137.36 C 228.40 137.94, 228.52 138.68, 229.26 139.12 C 230.01 139.57, 231.57 139.71, 232.20 139.60 C 232.83 139.49, 232.88 138.91, 232.42 138.57 C 231.95 138.22, 230.54 138.09, 229.87 137.86 C 229.20 137.62, 229.11 137.59, 229.07 137.40 C 229.04 137.21, 229.24 136.86, 229.70 136.92 C 230.16 136.97, 230.72 136.95, 231.37 137.68 C 232.03 138.41, 232.46 138.85, 232.99 140.55 C 233.51 142.25, 233.91 143.46, 233.98 146.18 C 234.06 148.91, 234.02 150.51, 233.36 154.18 C 232.70 157.85, 232.18 160.10, 230.70 164.52 C 229.21 168.94, 228.29 171.44, 225.94 176.28 C 223.59 181.13, 222.03 183.80, 218.94 188.74 C 215.85 193.68, 214.08 196.33, 210.48 200.97 C 206.88 205.60, 204.85 208.04, 200.93 211.90 C 197.00 215.77, 194.83 217.51, 190.85 220.31 C 186.87 223.11, 184.70 224.40, 181.02 225.89 C 177.34 227.39, 175.46 227.85, 172.45 227.79 C 169.44 227.73, 168.12 227.22, 165.97 225.58 C 163.82 223.94, 162.95 222.80, 161.71 219.59 C 160.46 216.38, 159.98 214.09, 159.73 209.51 C 159.48 204.93, 159.47 202.10, 160.46 196.69 C 161.44 191.28, 162.38 188.14, 164.66 182.48 C 166.95 176.82, 168.67 173.73, 171.89 168.40 C 175.11 163.08, 177.16 160.23, 180.74 155.85 C 184.32 151.47, 186.44 149.52, 189.77 146.52 C 193.11 143.51, 194.66 142.41, 197.41 140.82 C 200.16 139.23, 201.35 138.95, 203.53 138.57 C 205.70 138.19, 206.61 138.42, 208.29 138.93 C 209.98 139.44, 210.68 139.90, 211.93 141.11 C 213.19 142.32, 213.68 143.29, 214.55 144.98 C 215.42 146.67, 215.63 147.59, 216.29 149.55 C 216.95 151.51, 217.25 152.89, 217.85 154.79 C 218.44 156.70, 218.80 157.69, 219.26 159.07 C 219.72 160.46, 219.87 161.21, 220.16 161.72 C 220.45 162.22, 220.64 162.19, 220.71 161.60" style="stroke: black; fill: black;"/><path d="M 268.85,163.63 C 268.55 163.36, 268.07 163.03, 267.16 162.83 C 266.25 162.62, 265.65 162.41, 264.30 162.60 C 262.96 162.79, 262.11 163.03, 260.42 163.79 C 258.73 164.54, 257.76 164.98, 255.87 166.36 C 253.99 167.75, 252.87 168.81, 250.99 170.72 C 249.10 172.63, 247.97 173.80, 246.46 175.92 C 244.95 178.03, 244.19 179.25, 243.45 181.32 C 242.71 183.38, 242.51 184.43, 242.76 186.25 C 243.00 188.08, 243.63 188.92, 244.69 190.43 C 245.75 191.94, 246.62 192.51, 248.04 193.80 C 249.46 195.09, 250.59 195.72, 251.79 196.88 C 253.00 198.03, 253.54 198.51, 254.06 199.56 C 254.57 200.62, 254.59 201.20, 254.39 202.16 C 254.18 203.12, 253.96 203.54, 253.05 204.37 C 252.13 205.21, 251.34 205.59, 249.81 206.34 C 248.27 207.08, 247.28 207.56, 245.38 208.11 C 243.48 208.65, 242.39 208.78, 240.30 209.05 C 238.21 209.32, 236.84 209.38, 234.92 209.45 C 232.99 209.53, 231.98 209.65, 230.68 209.44 C 229.39 209.22, 228.94 208.96, 228.44 208.39 C 227.95 207.82, 228.13 207.30, 228.22 206.60 C 228.31 205.89, 228.59 205.55, 228.90 204.88 C 229.21 204.21, 229.71 203.64, 229.79 203.23 C 229.86 202.83, 229.66 202.63, 229.27 202.85 C 228.88 203.07, 228.26 203.59, 227.84 204.33 C 227.42 205.06, 227.20 205.60, 227.19 206.53 C 227.17 207.45, 227.10 208.15, 227.75 208.96 C 228.40 209.77, 228.99 210.20, 230.43 210.59 C 231.87 210.98, 232.94 210.92, 234.95 210.91 C 236.96 210.90, 238.32 210.82, 240.49 210.55 C 242.66 210.28, 243.80 210.14, 245.80 209.56 C 247.80 208.99, 248.86 208.53, 250.48 207.67 C 252.11 206.80, 252.93 206.30, 253.91 205.24 C 254.89 204.18, 255.15 203.59, 255.39 202.36 C 255.62 201.13, 255.61 200.40, 255.10 199.11 C 254.58 197.81, 254.01 197.15, 252.79 195.88 C 251.57 194.60, 250.42 193.95, 249.00 192.72 C 247.57 191.49, 246.69 191.04, 245.66 189.71 C 244.63 188.39, 244.06 187.70, 243.85 186.11 C 243.64 184.52, 243.86 183.63, 244.63 181.76 C 245.39 179.90, 246.16 178.78, 247.66 176.79 C 249.15 174.81, 250.28 173.67, 252.11 171.84 C 253.94 170.00, 255.01 168.95, 256.80 167.61 C 258.59 166.28, 259.50 165.88, 261.05 165.17 C 262.60 164.45, 263.35 164.25, 264.54 164.02 C 265.73 163.79, 266.17 163.96, 267.00 164.00 C 267.83 164.03, 268.32 164.26, 268.69 164.19 C 269.06 164.11, 269.16 163.90, 268.85 163.63" style="stroke: black; fill: black;"/><path d="M 291.27,149.08 C 291.76 149.04, 292.33 148.94, 293.46 148.43 C 294.59 147.91, 295.66 147.13, 296.92 146.50 C 298.19 145.87, 298.98 145.23, 299.80 145.26 C 300.62 145.29, 300.96 145.30, 301.03 146.64 C 301.10 147.98, 301.01 149.13, 300.15 151.98 C 299.30 154.83, 298.65 156.96, 296.77 160.90 C 294.88 164.85, 293.24 167.32, 290.72 171.71 C 288.20 176.09, 286.72 178.61, 284.16 182.83 C 281.61 187.05, 280.27 189.36, 277.96 192.82 C 275.64 196.28, 274.33 197.83, 272.58 200.12 C 270.83 202.41, 270.24 203.24, 269.22 204.28 C 268.20 205.31, 267.97 205.41, 267.50 205.32 C 267.03 205.22, 267.01 204.77, 266.87 203.80 C 266.73 202.83, 266.82 201.99, 266.80 200.45 C 266.78 198.91, 266.76 197.75, 266.77 196.10 C 266.79 194.44, 266.55 193.49, 266.88 192.16 C 267.21 190.83, 267.43 190.39, 268.41 189.45 C 269.38 188.51, 270.11 188.20, 271.77 187.46 C 273.43 186.73, 274.41 186.44, 276.70 185.77 C 278.98 185.10, 280.31 184.84, 283.18 184.12 C 286.05 183.41, 287.82 182.99, 291.04 182.19 C 294.26 181.39, 295.99 181.00, 299.26 180.15 C 302.54 179.29, 304.27 178.70, 307.42 177.91 C 310.58 177.11, 312.31 176.74, 315.05 176.19 C 317.78 175.63, 319.09 175.27, 321.11 175.15 C 323.13 175.03, 324.12 175.00, 325.15 175.61 C 326.18 176.21, 326.36 176.66, 326.27 178.17 C 326.17 179.67, 325.75 180.75, 324.67 183.13 C 323.60 185.51, 322.66 187.19, 320.89 190.09 C 319.12 192.98, 317.81 194.73, 315.81 197.61 C 313.82 200.48, 312.37 202.12, 310.90 204.45 C 309.43 206.78, 308.66 207.94, 308.45 209.25 C 308.25 210.55, 308.68 211.01, 309.90 210.99 C 311.11 210.97, 312.30 210.54, 314.52 209.16 C 316.75 207.77, 318.16 206.34, 321.00 204.06 C 323.84 201.78, 325.56 200.20, 328.72 197.75 C 331.88 195.30, 333.52 194.00, 336.80 191.80 C 340.07 189.60, 341.86 188.48, 345.11 186.75 C 348.37 185.02, 350.03 184.30, 353.07 183.12 C 356.11 181.95, 357.54 181.61, 360.30 180.90 C 363.06 180.18, 364.38 179.97, 366.88 179.55 C 369.38 179.12, 370.53 179.05, 372.81 178.76 C 375.09 178.47, 376.34 178.44, 378.29 178.10 C 380.24 177.76, 381.22 177.45, 382.56 177.05 C 383.90 176.65, 384.28 176.58, 385.01 176.10 C 385.73 175.61, 386.25 175.20, 386.19 174.64 C 386.13 174.08, 385.71 173.64, 384.73 173.29 C 383.74 172.95, 382.94 172.81, 381.25 172.91 C 379.56 173.01, 378.51 172.99, 376.28 173.79 C 374.04 174.60, 372.61 175.23, 370.08 176.93 C 367.54 178.62, 366.05 179.85, 363.60 182.28 C 361.14 184.72, 359.78 186.38, 357.79 189.09 C 355.81 191.80, 354.83 193.33, 353.68 195.81 C 352.52 198.29, 352.25 199.56, 352.02 201.48 C 351.79 203.40, 351.83 204.19, 352.52 205.42 C 353.21 206.64, 353.87 207.18, 355.45 207.59 C 357.04 208.00, 358.10 208.01, 360.44 207.47 C 362.79 206.94, 364.29 206.37, 367.17 204.92 C 370.05 203.48, 371.72 202.44, 374.84 200.25 C 377.96 198.06, 379.70 196.56, 382.76 193.98 C 385.83 191.40, 387.60 189.84, 390.18 187.35 C 392.75 184.86, 394.18 183.37, 395.64 181.53 C 397.10 179.68, 397.34 178.68, 397.48 178.12 C 397.61 177.57, 397.10 177.79, 396.31 178.76 C 395.51 179.74, 394.64 180.90, 393.51 183.00 C 392.38 185.10, 391.41 186.76, 390.65 189.25 C 389.89 191.73, 389.69 193.32, 389.71 195.43 C 389.73 197.53, 389.85 198.44, 390.76 199.76 C 391.67 201.08, 392.37 201.58, 394.27 202.03 C 396.16 202.47, 397.46 202.56, 400.23 201.97 C 403.01 201.37, 404.70 200.69, 408.15 199.05 C 411.61 197.42, 413.63 196.13, 417.51 193.79 C 421.40 191.45, 423.71 189.86, 427.59 187.36 C 431.46 184.87, 433.65 183.37, 436.89 181.33 C 440.14 179.28, 441.84 178.37, 443.81 177.13 C 445.78 175.88, 446.32 175.23, 446.75 175.09 C 447.19 174.96, 446.78 175.32, 445.99 176.45 C 445.20 177.58, 444.19 178.74, 442.79 180.75 C 441.38 182.77, 440.13 184.38, 438.97 186.55 C 437.81 188.72, 437.24 190.12, 437.00 191.59 C 436.77 193.06, 436.68 193.67, 437.78 193.90 C 438.88 194.12, 440.03 193.87, 442.50 192.72 C 444.98 191.58, 446.64 190.26, 450.15 188.17 C 453.66 186.07, 456.05 184.40, 460.04 182.25 C 464.03 180.10, 466.51 178.96, 470.11 177.43 C 473.72 175.89, 475.51 175.17, 478.06 174.58 C 480.61 173.99, 481.64 174.04, 482.86 174.47 C 484.07 174.90, 484.07 175.47, 484.13 176.74 C 484.18 178.01, 483.71 178.96, 483.13 180.81 C 482.55 182.66, 481.81 183.97, 481.24 185.99 C 480.66 188.00, 480.29 189.13, 480.25 190.88 C 480.22 192.63, 480.23 193.65, 481.05 194.75 C 481.88 195.84, 482.44 196.29, 484.37 196.38 C 486.30 196.47, 487.64 196.20, 490.71 195.19 C 493.79 194.18, 495.74 193.17, 499.75 191.31 C 503.77 189.45, 506.23 188.11, 510.79 185.89 C 515.34 183.68, 517.95 182.44, 522.54 180.24 C 527.12 178.04, 529.71 176.79, 533.70 174.91 C 537.69 173.03, 539.63 172.20, 542.49 170.84 C 545.35 169.49, 546.48 168.95, 548.00 168.14 C 549.51 167.32, 549.90 166.99, 550.05 166.78 C 550.20 166.57, 549.76 166.62, 548.75 167.09 C 547.75 167.56, 546.86 167.97, 545.04 169.12 C 543.21 170.27, 542.02 171.15, 539.63 172.84 C 537.24 174.54, 535.79 175.57, 533.09 177.62 C 530.39 179.66, 528.73 180.88, 526.14 183.07 C 523.55 185.25, 522.11 186.50, 520.15 188.55 C 518.20 190.61, 517.34 191.67, 516.36 193.34 C 515.39 195.00, 515.25 195.82, 515.29 196.89 C 515.33 197.95, 515.57 198.36, 516.55 198.67 C 517.52 198.98, 518.34 198.99, 520.16 198.43 C 521.99 197.87, 523.19 197.41, 525.69 195.87 C 528.19 194.32, 529.62 193.19, 532.64 190.71 C 535.67 188.23, 537.38 186.67, 540.80 183.47 C 544.22 180.27, 546.17 178.46, 549.73 174.71 C 553.30 170.97, 555.07 168.78, 558.63 164.75 C 562.19 160.71, 564.04 158.43, 567.54 154.55 C 571.04 150.67, 572.99 148.71, 576.13 145.33 C 579.28 141.94, 580.79 140.25, 583.26 137.63 C 585.72 135.00, 586.87 133.89, 588.46 132.21 C 590.06 130.52, 590.65 129.85, 591.24 129.19 C 591.84 128.53, 591.90 128.31, 591.43 128.91 C 590.97 129.51, 590.22 130.12, 588.91 132.19 C 587.60 134.25, 586.86 135.91, 584.89 139.23 C 582.93 142.54, 581.59 144.66, 579.09 148.76 C 576.58 152.86, 574.92 155.36, 572.38 159.74 C 569.85 164.11, 568.57 166.55, 566.40 170.64 C 564.23 174.74, 563.06 176.70, 561.53 180.20 C 560.01 183.70, 559.26 185.32, 558.77 188.15 C 558.27 190.98, 558.29 192.36, 559.07 194.35 C 559.85 196.34, 560.66 197.13, 562.67 198.11 C 564.68 199.09, 566.17 199.37, 569.12 199.25 C 572.08 199.13, 573.83 198.61, 577.44 197.51 C 581.06 196.40, 583.21 195.51, 587.21 193.72 C 591.20 191.93, 593.50 190.76, 597.42 188.58 C 601.33 186.40, 603.35 185.08, 606.78 182.83 C 610.21 180.59, 611.96 179.52, 614.57 177.37 C 617.17 175.22, 618.27 174.10, 619.81 172.08 C 621.34 170.06, 621.70 168.98, 622.26 167.26 C 622.81 165.54, 622.81 164.76, 622.58 163.49 C 622.34 162.22, 622.00 161.68, 621.08 160.91 C 620.16 160.14, 619.46 159.74, 617.99 159.65 C 616.52 159.55, 615.57 159.63, 613.73 160.42 C 611.89 161.20, 610.87 161.94, 608.80 163.58 C 606.74 165.23, 605.39 166.33, 603.41 168.65 C 601.43 170.97, 600.50 172.43, 598.91 175.18 C 597.31 177.94, 596.38 179.54, 595.43 182.42 C 594.49 185.30, 594.10 187.05, 594.18 189.59 C 594.26 192.12, 594.58 193.26, 595.83 195.07 C 597.09 196.89, 598.11 197.76, 600.45 198.66 C 602.78 199.56, 604.34 199.77, 607.51 199.57 C 610.68 199.38, 612.62 198.83, 616.28 197.68 C 619.95 196.53, 622.04 195.73, 625.85 193.81 C 629.66 191.88, 631.73 190.47, 635.33 188.05 C 638.93 185.63, 640.76 184.01, 643.84 181.72 C 646.92 179.44, 648.56 178.17, 650.73 176.65 C 652.89 175.12, 653.75 174.45, 654.67 174.11 C 655.60 173.76, 655.61 173.94, 655.35 174.93 C 655.09 175.92, 654.46 176.98, 653.37 179.06 C 652.29 181.13, 651.30 182.81, 649.93 185.30 C 648.56 187.79, 647.50 189.41, 646.54 191.50 C 645.58 193.58, 645.10 194.75, 645.13 195.72 C 645.16 196.70, 645.59 196.81, 646.68 196.37 C 647.78 195.93, 648.82 195.01, 650.61 193.53 C 652.41 192.05, 653.63 190.89, 655.64 188.95 C 657.65 187.02, 658.69 185.69, 660.67 183.84 C 662.64 181.99, 663.59 181.17, 665.51 179.70 C 667.44 178.24, 668.43 177.56, 670.28 176.53 C 672.14 175.50, 673.08 175.07, 674.78 174.55 C 676.49 174.04, 677.41 174.03, 678.81 173.95 C 680.20 173.88, 680.80 174.10, 681.75 174.17 C 682.71 174.23, 683.03 174.24, 683.58 174.29 C 684.13 174.34, 684.31 174.43, 684.52 174.39 C 684.72 174.35, 684.78 174.25, 684.62 174.08 C 684.47 173.91, 684.29 173.75, 683.74 173.55 C 683.20 173.35, 682.88 173.24, 681.88 173.08 C 680.88 172.91, 680.24 172.68, 678.75 172.74 C 677.26 172.79, 676.24 172.81, 674.42 173.34 C 672.60 173.88, 671.61 174.35, 669.67 175.41 C 667.73 176.47, 666.72 177.18, 664.72 178.64 C 662.72 180.11, 661.74 180.94, 659.67 182.74 C 657.61 184.54, 656.43 185.74, 654.40 187.65 C 652.37 189.57, 651.15 190.72, 649.53 192.33 C 647.91 193.95, 647.05 195.01, 646.28 195.71 C 645.52 196.41, 645.38 196.52, 645.71 195.83 C 646.04 195.13, 646.75 194.16, 647.93 192.24 C 649.11 190.32, 650.22 188.72, 651.60 186.22 C 652.97 183.71, 653.92 181.96, 654.81 179.72 C 655.70 177.47, 656.10 176.23, 656.05 174.99 C 656.00 173.75, 655.75 173.39, 654.54 173.51 C 653.34 173.64, 652.30 174.15, 650.03 175.62 C 647.77 177.10, 646.26 178.56, 643.21 180.89 C 640.16 183.22, 638.35 184.85, 634.79 187.25 C 631.23 189.66, 629.17 191.05, 625.40 192.92 C 621.63 194.79, 619.55 195.54, 615.96 196.61 C 612.36 197.69, 610.45 198.11, 607.43 198.29 C 604.41 198.47, 603.01 198.30, 600.87 197.54 C 598.72 196.77, 597.81 196.06, 596.71 194.46 C 595.62 192.87, 595.40 191.89, 595.40 189.56 C 595.39 187.24, 595.77 185.58, 596.70 182.84 C 597.63 180.10, 598.49 178.50, 600.05 175.85 C 601.61 173.20, 602.56 171.80, 604.51 169.59 C 606.45 167.39, 607.82 166.38, 609.78 164.81 C 611.74 163.23, 612.69 162.50, 614.32 161.71 C 615.95 160.92, 616.72 160.86, 617.95 160.85 C 619.18 160.85, 619.73 161.12, 620.47 161.67 C 621.22 162.23, 621.52 162.60, 621.68 163.65 C 621.84 164.70, 621.84 165.38, 621.28 166.92 C 620.72 168.47, 620.37 169.46, 618.89 171.38 C 617.41 173.31, 616.41 174.42, 613.88 176.55 C 611.36 178.68, 609.64 179.79, 606.26 182.04 C 602.87 184.28, 600.85 185.61, 596.96 187.76 C 593.07 189.92, 590.77 191.08, 586.80 192.81 C 582.83 194.54, 580.66 195.39, 577.12 196.41 C 573.57 197.43, 571.86 197.78, 569.06 197.93 C 566.26 198.08, 564.94 197.94, 563.11 197.15 C 561.29 196.37, 560.60 195.77, 559.95 194.01 C 559.30 192.25, 559.38 191.04, 559.87 188.35 C 560.36 185.66, 560.94 184.03, 562.40 180.57 C 563.85 177.11, 565.01 175.12, 567.15 171.04 C 569.30 166.96, 570.57 164.52, 573.12 160.17 C 575.68 155.81, 577.34 153.32, 579.91 149.27 C 582.48 145.22, 583.94 143.16, 585.99 139.90 C 588.04 136.63, 588.99 135.09, 590.17 132.94 C 591.36 130.78, 591.79 129.96, 591.93 129.12 C 592.07 128.28, 591.74 128.27, 590.89 128.73 C 590.04 129.19, 589.34 129.78, 587.67 131.43 C 586.00 133.07, 584.97 134.29, 582.54 136.96 C 580.11 139.63, 578.64 141.35, 575.53 144.77 C 572.42 148.19, 570.47 150.15, 566.97 154.04 C 563.48 157.94, 561.63 160.23, 558.07 164.25 C 554.50 168.27, 552.73 170.45, 549.15 174.15 C 545.57 177.86, 543.62 179.66, 540.17 182.79 C 536.73 185.92, 534.99 187.47, 531.93 189.82 C 528.87 192.17, 527.33 193.07, 524.88 194.54 C 522.44 196.01, 521.35 196.47, 519.71 197.16 C 518.07 197.84, 517.44 198.01, 516.70 197.96 C 515.95 197.91, 515.87 197.72, 515.99 196.92 C 516.11 196.11, 516.28 195.42, 517.31 193.94 C 518.34 192.46, 519.22 191.49, 521.15 189.51 C 523.07 187.52, 524.41 186.19, 526.96 184.03 C 529.50 181.87, 531.16 180.65, 533.88 178.68 C 536.60 176.72, 538.15 175.83, 540.57 174.19 C 542.98 172.54, 544.21 171.72, 545.94 170.45 C 547.68 169.18, 548.45 168.60, 549.26 167.83 C 550.07 167.06, 550.34 166.71, 550.01 166.61 C 549.68 166.50, 549.21 166.66, 547.61 167.31 C 546.01 167.97, 544.88 168.51, 542.02 169.87 C 539.17 171.22, 537.29 172.18, 533.32 174.11 C 529.35 176.03, 526.76 177.30, 522.18 179.50 C 517.60 181.69, 514.98 182.93, 510.41 185.10 C 505.84 187.27, 503.34 188.58, 499.32 190.34 C 495.30 192.10, 493.28 192.93, 490.29 193.91 C 487.30 194.90, 486.08 195.20, 484.37 195.27 C 482.67 195.33, 482.32 195.10, 481.76 194.25 C 481.19 193.39, 481.34 192.54, 481.55 190.98 C 481.76 189.42, 482.21 188.41, 482.81 186.45 C 483.41 184.49, 484.11 183.15, 484.54 181.18 C 484.98 179.22, 485.28 178.11, 485.00 176.63 C 484.72 175.15, 484.57 174.41, 483.14 173.78 C 481.70 173.14, 480.50 172.92, 477.82 173.46 C 475.13 174.00, 473.36 174.89, 469.70 176.47 C 466.05 178.04, 463.58 179.19, 459.54 181.32 C 455.51 183.44, 453.06 185.07, 449.52 187.10 C 445.99 189.13, 444.22 190.22, 441.88 191.46 C 439.54 192.71, 438.62 193.24, 437.83 193.32 C 437.04 193.40, 437.36 193.03, 437.93 191.87 C 438.49 190.71, 439.36 189.55, 440.64 187.52 C 441.92 185.49, 443.08 183.86, 444.32 181.73 C 445.55 179.60, 446.33 178.26, 446.82 176.87 C 447.30 175.48, 447.46 174.90, 446.75 174.77 C 446.04 174.63, 445.34 175.05, 443.26 176.19 C 441.18 177.33, 439.57 178.37, 436.33 180.45 C 433.10 182.53, 430.94 184.07, 427.07 186.57 C 423.21 189.07, 420.89 190.65, 417.01 192.94 C 413.12 195.22, 411.08 196.46, 407.66 197.99 C 404.25 199.51, 402.56 199.97, 399.93 200.56 C 397.29 201.16, 396.16 201.21, 394.48 200.95 C 392.80 200.68, 392.23 200.34, 391.53 199.24 C 390.84 198.15, 390.84 197.36, 391.02 195.48 C 391.20 193.59, 391.61 192.17, 392.42 189.83 C 393.23 187.48, 394.16 185.89, 395.08 183.76 C 396.01 181.63, 396.61 180.35, 397.04 179.18 C 397.47 178.02, 397.68 177.63, 397.21 177.94 C 396.75 178.26, 396.29 179.04, 394.72 180.75 C 393.15 182.46, 391.89 184.03, 389.36 186.51 C 386.83 188.99, 385.11 190.60, 382.07 193.15 C 379.03 195.71, 377.28 197.19, 374.18 199.29 C 371.08 201.40, 369.37 202.32, 366.56 203.67 C 363.74 205.03, 362.28 205.51, 360.10 206.09 C 357.93 206.67, 357.04 206.79, 355.67 206.57 C 354.30 206.35, 353.78 206.00, 353.26 205.01 C 352.74 204.02, 352.75 203.37, 353.07 201.64 C 353.39 199.91, 353.72 198.74, 354.87 196.38 C 356.02 194.02, 356.89 192.47, 358.81 189.84 C 360.74 187.20, 362.09 185.54, 364.50 183.21 C 366.92 180.87, 368.43 179.75, 370.89 178.16 C 373.35 176.57, 374.71 176.02, 376.81 175.27 C 378.90 174.52, 379.84 174.59, 381.37 174.42 C 382.91 174.26, 383.61 174.38, 384.48 174.43 C 385.35 174.48, 385.69 174.51, 385.72 174.69 C 385.75 174.87, 385.30 175.08, 384.61 175.32 C 383.92 175.57, 383.57 175.63, 382.26 175.93 C 380.96 176.22, 380.00 176.49, 378.07 176.80 C 376.15 177.11, 374.92 177.18, 372.64 177.48 C 370.36 177.79, 369.20 177.87, 366.67 178.32 C 364.14 178.77, 362.79 178.97, 359.99 179.73 C 357.19 180.48, 355.74 180.88, 352.67 182.10 C 349.60 183.33, 347.91 184.08, 344.63 185.85 C 341.34 187.62, 339.55 188.75, 336.24 190.96 C 332.92 193.16, 331.27 194.47, 328.05 196.87 C 324.84 199.28, 323.02 200.78, 320.16 202.99 C 317.29 205.20, 315.79 206.47, 313.72 207.95 C 311.65 209.42, 310.72 210.05, 309.80 210.35 C 308.88 210.65, 308.67 210.46, 309.13 209.44 C 309.58 208.41, 310.53 207.45, 312.08 205.24 C 313.64 203.02, 314.89 201.23, 316.89 198.35 C 318.88 195.47, 320.24 193.74, 322.07 190.81 C 323.90 187.89, 325.01 186.25, 326.05 183.72 C 327.09 181.19, 327.37 179.94, 327.28 178.17 C 327.19 176.41, 326.84 175.74, 325.60 174.90 C 324.36 174.06, 323.24 173.98, 321.08 173.98 C 318.92 173.97, 317.58 174.32, 314.78 174.87 C 311.99 175.43, 310.29 175.91, 307.12 176.73 C 303.96 177.56, 302.24 178.15, 298.96 178.99 C 295.69 179.83, 293.97 180.20, 290.74 180.95 C 287.52 181.69, 285.74 182.03, 282.84 182.72 C 279.95 183.40, 278.60 183.66, 276.28 184.36 C 273.95 185.07, 272.94 185.40, 271.20 186.25 C 269.47 187.11, 268.70 187.51, 267.60 188.63 C 266.49 189.74, 266.16 190.32, 265.66 191.81 C 265.17 193.29, 265.22 194.29, 265.11 196.04 C 265.01 197.79, 265.00 198.93, 265.16 200.54 C 265.31 202.15, 265.45 203.03, 265.90 204.08 C 266.34 205.13, 266.62 205.63, 267.40 205.79 C 268.17 205.95, 268.57 205.89, 269.78 204.89 C 271.00 203.90, 271.70 203.13, 273.48 200.81 C 275.27 198.50, 276.44 196.83, 278.72 193.32 C 281.00 189.81, 282.33 187.50, 284.89 183.27 C 287.44 179.04, 288.93 176.54, 291.50 172.16 C 294.08 167.79, 295.75 165.34, 297.75 161.39 C 299.75 157.43, 300.65 155.35, 301.50 152.37 C 302.36 149.40, 302.33 148.12, 302.02 146.51 C 301.71 144.90, 301.13 144.64, 299.97 144.32 C 298.81 144.00, 297.66 144.33, 296.21 144.90 C 294.77 145.48, 293.79 146.46, 292.75 147.20 C 291.71 147.94, 291.32 148.24, 291.03 148.61 C 290.73 148.99, 290.79 149.12, 291.27 149.08" style="stroke: black; fill: black;"/></svg>