<svg xmlns="http://www.w3.org/2000/svg" id="canvas" viewBox="327.338 100.731 325.428 157.789"><path d="M 365.95,104.73 C 365.66 106.08, 365.54 107.80, 365.18 111.55 C 364.82 115.30, 364.75 117.76, 364.15 123.46 C 363.56 129.16, 363.12 132.95, 362.22 140.04 C 361.32 147.14, 360.79 151.20, 359.66 158.95 C 358.53 166.69, 357.90 170.92, 356.58 178.78 C 355.25 186.64, 354.50 190.76, 353.05 198.24 C 351.59 205.71, 350.85 209.53, 349.31 216.16 C 347.76 222.78, 347.04 225.99, 345.33 231.34 C 343.63 236.70, 342.59 239.13, 340.80 242.93 C 339.00 246.74, 337.93 248.14, 336.36 250.35 C 334.79 252.56, 334.09 253.01, 332.95 253.97 C 331.80 254.92, 331.07 254.81, 330.64 255.11 C 330.21 255.42, 330.22 255.58, 330.79 255.50 C 331.36 255.41, 332.15 255.56, 333.48 254.69 C 334.81 253.81, 335.78 253.38, 337.42 251.11 C 339.06 248.84, 339.96 247.25, 341.69 243.34 C 343.42 239.44, 344.43 236.98, 346.09 231.58 C 347.74 226.17, 348.46 222.95, 349.97 216.31 C 351.49 209.67, 352.23 205.85, 353.67 198.36 C 355.12 190.87, 355.87 186.75, 357.20 178.88 C 358.53 171.02, 359.17 166.79, 360.33 159.04 C 361.49 151.30, 362.05 147.24, 363.01 140.15 C 363.97 133.05, 364.46 129.26, 365.11 123.56 C 365.77 117.86, 365.99 115.40, 366.30 111.65 C 366.60 107.89, 366.70 106.17, 366.63 104.78 C 366.56 103.40, 366.24 103.38, 365.95 104.73" style="stroke: black; fill: black;"/><path d="M 355.70,109.71 C 356.03 110.56, 356.34 111.26, 357.87 113.59 C 359.40 115.92, 360.52 117.25, 363.34 121.37 C 366.16 125.50, 367.97 128.40, 371.97 134.22 C 375.97 140.04, 378.62 143.82, 383.36 150.45 C 388.10 157.08, 390.64 160.67, 395.67 167.37 C 400.70 174.06, 403.50 177.58, 408.52 183.91 C 413.53 190.25, 416.13 193.40, 420.74 199.05 C 425.36 204.69, 427.64 207.41, 431.58 212.14 C 435.52 216.86, 437.49 219.04, 440.44 222.70 C 443.39 226.35, 444.57 228.17, 446.33 230.43 C 448.09 232.68, 448.85 233.38, 449.24 233.99 C 449.63 234.59, 449.65 234.20, 448.29 233.45 C 446.93 232.70, 445.87 231.96, 442.45 230.23 C 439.03 228.51, 436.57 227.02, 431.17 224.85 C 425.76 222.67, 422.14 221.17, 415.45 219.34 C 408.75 217.52, 404.68 216.64, 397.68 215.72 C 390.69 214.80, 386.82 214.65, 380.47 214.74 C 374.11 214.82, 370.82 215.29, 365.90 216.14 C 360.98 216.99, 358.88 217.82, 355.85 218.99 C 352.83 220.15, 352.09 220.91, 350.76 221.98 C 349.43 223.05, 349.46 223.82, 349.21 224.33 C 348.95 224.85, 349.08 224.89, 349.49 224.56 C 349.90 224.22, 349.90 223.56, 351.26 222.66 C 352.61 221.77, 353.31 221.21, 356.27 220.08 C 359.23 218.95, 361.22 217.94, 366.06 217.02 C 370.90 216.11, 374.17 215.62, 380.48 215.51 C 386.78 215.40, 390.64 215.54, 397.59 216.47 C 404.53 217.40, 408.59 218.27, 415.22 220.15 C 421.86 222.02, 425.43 223.57, 430.75 225.84 C 436.07 228.11, 438.38 229.80, 441.82 231.50 C 445.25 233.20, 446.34 233.87, 447.92 234.34 C 449.49 234.81, 449.80 234.78, 449.69 233.84 C 449.58 232.90, 449.06 232.00, 447.35 229.66 C 445.64 227.31, 444.19 225.71, 441.15 222.11 C 438.10 218.51, 436.12 216.36, 432.14 211.66 C 428.16 206.97, 425.87 204.26, 421.24 198.64 C 416.61 193.01, 414.01 189.87, 408.99 183.54 C 403.97 177.21, 401.18 173.69, 396.16 167.00 C 391.15 160.30, 388.61 156.70, 383.92 150.05 C 379.22 143.40, 376.60 139.60, 372.67 133.74 C 368.74 127.89, 366.99 124.95, 364.26 120.76 C 361.53 116.57, 360.63 115.08, 359.02 112.80 C 357.41 110.52, 356.87 109.98, 356.21 109.37 C 355.54 108.75, 355.37 108.87, 355.70 109.71" style="stroke: black; fill: black;"/><path d="M 428.72,109.72 C 428.77 110.72, 428.77 111.76, 429.60 114.56 C 430.43 117.35, 431.14 119.18, 432.88 123.69 C 434.62 128.20, 435.98 131.20, 438.28 137.10 C 440.58 143.00, 441.93 146.63, 444.38 153.20 C 446.83 159.76, 448.38 163.43, 450.52 169.92 C 452.66 176.40, 453.59 179.73, 455.07 185.61 C 456.55 191.50, 457.07 194.68, 457.92 199.34 C 458.76 204.01, 458.87 206.14, 459.30 208.95 C 459.73 211.75, 459.71 212.39, 460.08 213.37 C 460.45 214.35, 460.58 214.27, 461.16 213.87 C 461.74 213.48, 462.13 212.67, 462.98 211.40 C 463.84 210.13, 464.15 209.00, 465.44 207.53 C 466.74 206.05, 467.45 205.22, 469.45 204.04 C 471.46 202.86, 472.71 202.37, 475.49 201.62 C 478.27 200.87, 480.06 200.58, 483.36 200.29 C 486.67 199.99, 488.58 199.76, 492.02 200.15 C 495.45 200.54, 497.33 200.98, 500.55 202.24 C 503.77 203.49, 505.52 204.48, 508.10 206.42 C 510.69 208.36, 511.87 209.63, 513.46 211.93 C 515.06 214.23, 515.68 215.61, 516.08 217.94 C 516.47 220.28, 516.38 221.55, 515.43 223.59 C 514.47 225.62, 513.71 226.46, 511.30 228.13 C 508.89 229.81, 507.27 230.71, 503.37 231.95 C 499.47 233.19, 496.83 233.73, 491.81 234.31 C 486.78 234.90, 483.57 234.98, 478.25 234.87 C 472.93 234.76, 469.91 234.51, 465.21 233.76 C 460.51 233.01, 458.08 232.35, 454.75 231.13 C 451.42 229.90, 449.98 229.08, 448.56 227.62 C 447.14 226.17, 447.01 225.42, 447.65 223.85 C 448.29 222.28, 449.10 221.46, 451.77 219.78 C 454.44 218.09, 456.40 217.03, 460.99 215.42 C 465.58 213.82, 468.77 213.06, 474.70 211.76 C 480.64 210.46, 484.20 209.98, 490.68 208.91 C 497.15 207.84, 500.70 207.42, 507.08 206.42 C 513.46 205.42, 516.87 204.98, 522.59 203.92 C 528.30 202.86, 531.03 202.31, 535.67 201.13 C 540.31 199.95, 542.42 199.33, 545.80 198.01 C 549.19 196.70, 550.53 196.02, 552.58 194.57 C 554.64 193.12, 555.41 192.31, 556.08 190.76 C 556.76 189.22, 556.65 188.19, 555.96 186.83 C 555.26 185.46, 554.30 184.54, 552.61 183.94 C 550.92 183.33, 549.56 183.24, 547.50 183.80 C 545.44 184.35, 544.00 185.03, 542.30 186.70 C 540.59 188.37, 539.63 189.57, 538.96 192.15 C 538.28 194.72, 538.18 196.53, 538.91 199.58 C 539.64 202.64, 540.43 204.47, 542.59 207.43 C 544.75 210.38, 546.33 211.95, 549.73 214.36 C 553.13 216.78, 555.39 218.04, 559.57 219.50 C 563.75 220.97, 566.11 221.44, 570.62 221.68 C 575.13 221.91, 577.67 221.83, 582.11 220.68 C 586.56 219.52, 588.83 218.50, 592.85 215.90 C 596.88 213.31, 598.90 211.70, 602.26 207.70 C 605.61 203.70, 607.35 201.28, 609.61 195.90 C 611.86 190.52, 612.66 187.21, 613.52 180.81 C 614.38 174.40, 614.34 170.63, 613.89 163.89 C 613.43 157.15, 612.69 153.41, 611.24 147.11 C 609.78 140.81, 608.56 137.57, 606.63 132.40 C 604.70 127.22, 603.47 124.78, 601.58 121.22 C 599.69 117.67, 598.73 116.26, 597.16 114.61 C 595.60 112.95, 594.86 112.62, 593.76 112.95 C 592.67 113.29, 592.08 113.90, 591.69 116.29 C 591.30 118.68, 591.31 120.46, 591.82 124.89 C 592.33 129.33, 592.89 132.43, 594.25 138.46 C 595.61 144.48, 596.43 148.14, 598.62 155.01 C 600.81 161.87, 602.26 165.77, 605.19 172.78 C 608.11 179.78, 609.82 183.55, 613.25 190.04 C 616.67 196.53, 618.68 199.69, 622.33 205.23 C 625.98 210.77, 628.06 213.34, 631.50 217.73 C 634.93 222.13, 636.71 224.07, 639.52 227.20 C 642.33 230.33, 643.62 231.57, 645.54 233.39 C 647.46 235.21, 648.32 235.78, 649.10 236.30 C 649.87 236.81, 649.97 236.70, 649.41 235.97 C 648.85 235.23, 648.13 234.51, 646.31 232.62 C 644.48 230.73, 643.10 229.60, 640.26 226.52 C 637.43 223.44, 635.60 221.57, 632.13 217.23 C 628.66 212.89, 626.58 210.33, 622.92 204.83 C 619.26 199.33, 617.26 196.19, 613.84 189.72 C 610.42 183.26, 608.72 179.50, 605.82 172.51 C 602.92 165.52, 601.48 161.63, 599.35 154.78 C 597.22 147.93, 596.44 144.26, 595.19 138.25 C 593.94 132.25, 593.53 129.12, 593.10 124.76 C 592.67 120.39, 592.86 118.70, 593.02 116.45 C 593.19 114.19, 593.27 113.70, 593.93 113.48 C 594.59 113.26, 594.99 113.68, 596.34 115.33 C 597.68 116.98, 598.74 118.26, 600.64 121.73 C 602.54 125.20, 603.86 127.59, 605.83 132.70 C 607.80 137.81, 609.02 141.04, 610.48 147.29 C 611.94 153.53, 612.68 157.26, 613.13 163.94 C 613.58 170.63, 613.60 174.38, 612.74 180.70 C 611.88 187.03, 611.06 190.29, 608.83 195.57 C 606.59 200.85, 604.85 203.21, 601.55 207.11 C 598.25 211.00, 596.26 212.56, 592.32 215.07 C 588.38 217.59, 586.18 218.57, 581.85 219.68 C 577.53 220.78, 575.06 220.85, 570.68 220.60 C 566.30 220.34, 564.00 219.87, 559.96 218.42 C 555.91 216.97, 553.71 215.70, 550.47 213.34 C 547.22 210.98, 545.73 209.43, 543.74 206.60 C 541.74 203.78, 541.12 202.02, 540.49 199.22 C 539.86 196.41, 539.98 194.83, 540.58 192.58 C 541.18 190.32, 542.02 189.37, 543.50 187.95 C 544.98 186.54, 546.25 186.02, 547.98 185.51 C 549.71 185.00, 550.75 185.02, 552.15 185.39 C 553.54 185.77, 554.34 186.40, 554.93 187.39 C 555.53 188.37, 555.73 189.09, 555.11 190.31 C 554.49 191.53, 553.79 192.17, 551.84 193.50 C 549.89 194.82, 548.66 195.61, 545.38 196.95 C 542.10 198.30, 540.02 199.00, 535.44 200.23 C 530.85 201.46, 528.13 202.03, 522.44 203.11 C 516.74 204.20, 513.34 204.65, 506.96 205.65 C 500.58 206.65, 497.04 207.07, 490.55 208.11 C 484.06 209.15, 480.50 209.60, 474.51 210.85 C 468.52 212.09, 465.32 212.78, 460.62 214.33 C 455.92 215.88, 453.80 216.77, 451.01 218.60 C 448.23 220.44, 447.35 221.55, 446.70 223.50 C 446.05 225.45, 446.23 226.61, 447.75 228.36 C 449.28 230.11, 450.87 230.97, 454.33 232.25 C 457.79 233.54, 460.27 234.06, 465.05 234.79 C 469.83 235.51, 472.85 235.76, 478.23 235.88 C 483.60 236.01, 486.82 235.95, 491.93 235.40 C 497.03 234.86, 499.70 234.37, 503.74 233.15 C 507.78 231.94, 509.54 231.13, 512.13 229.34 C 514.73 227.54, 515.62 226.50, 516.69 224.18 C 517.77 221.85, 517.92 220.34, 517.53 217.71 C 517.13 215.09, 516.44 213.55, 514.73 211.06 C 513.01 208.57, 511.69 207.30, 508.96 205.27 C 506.23 203.25, 504.41 202.25, 501.06 200.94 C 497.70 199.63, 495.75 199.17, 492.18 198.73 C 488.62 198.29, 486.67 198.50, 483.24 198.74 C 479.81 198.98, 477.99 199.20, 475.05 199.94 C 472.11 200.68, 470.78 201.21, 468.55 202.45 C 466.31 203.69, 465.30 204.52, 463.87 206.14 C 462.44 207.76, 462.05 209.07, 461.42 210.55 C 460.79 212.03, 460.86 213.00, 460.72 213.53 C 460.58 214.07, 460.75 214.19, 460.72 213.24 C 460.70 212.28, 460.97 211.58, 460.60 208.76 C 460.22 205.95, 459.80 203.83, 458.85 199.16 C 457.90 194.49, 457.36 191.31, 455.84 185.42 C 454.31 179.52, 453.37 176.18, 451.22 169.68 C 449.08 163.19, 447.53 159.51, 445.12 152.92 C 442.70 146.34, 441.38 142.70, 439.15 136.77 C 436.92 130.84, 435.61 127.81, 433.97 123.28 C 432.33 118.75, 431.86 116.88, 430.94 114.14 C 430.01 111.39, 429.78 110.44, 429.34 109.55 C 428.90 108.67, 428.67 108.72, 428.72 109.72" style="stroke: black; fill: black;"/></svg>